<?xml version="1.0" encoding="utf-8" standalone="no"?>
<!DOCTYPE svg PUBLIC "-//W3C//DTD SVG 1.1//EN"
  "http://www.w3.org/Graphics/SVG/1.1/DTD/svg11.dtd">
<!-- Created with matplotlib (https://matplotlib.org/) -->
<svg height="276.278125pt" version="1.1" viewBox="0 0 419.053937 276.278125" width="419.053937pt" xmlns="http://www.w3.org/2000/svg" xmlns:xlink="http://www.w3.org/1999/xlink">
 <metadata>
  <rdf:RDF xmlns:cc="http://creativecommons.org/ns#" xmlns:dc="http://purl.org/dc/elements/1.1/" xmlns:rdf="http://www.w3.org/1999/02/22-rdf-syntax-ns#">
   <cc:Work>
    <dc:type rdf:resource="http://purl.org/dc/dcmitype/StillImage"/>
    <dc:date>2021-08-24T22:23:10.026530</dc:date>
    <dc:format>image/svg+xml</dc:format>
    <dc:creator>
     <cc:Agent>
      <dc:title>Matplotlib v3.3.3, https://matplotlib.org/</dc:title>
     </cc:Agent>
    </dc:creator>
   </cc:Work>
  </rdf:RDF>
 </metadata>
 <defs>
  <style type="text/css">*{stroke-linecap:butt;stroke-linejoin:round;}</style>
 </defs>
 <g id="figure_1">
  <g id="patch_1">
   <path d="M 0 276.278125 
L 419.053937 276.278125 
L 419.053937 0 
L 0 0 
z
" style="fill:none;"/>
  </g>
  <g id="axes_1">
   <g id="patch_2">
    <path d="M 49.404688 238.6 
L 348.189687 238.6 
L 348.189687 7.2 
L 49.404688 7.2 
z
" style="fill:#ffffff;"/>
   </g>
   <g id="matplotlib.axis_1">
    <g id="xtick_1">
     <g id="line2d_1">
      <defs>
       <path d="M 0 0 
L 0 3.5 
" id="m401888c7f2" style="stroke:#000000;stroke-width:0.8;"/>
      </defs>
      <g>
       <use style="stroke:#000000;stroke-width:0.8;" x="62.985824" xlink:href="#m401888c7f2" y="238.6"/>
      </g>
     </g>
     <g id="text_1">
      <!-- −2.0 -->
      <g transform="translate(50.844418 253.198437)scale(0.1 -0.1)">
       <defs>
        <path d="M 10.59375 35.5 
L 73.1875 35.5 
L 73.1875 27.203125 
L 10.59375 27.203125 
z
" id="DejaVuSans-8722"/>
        <path d="M 19.1875 8.296875 
L 53.609375 8.296875 
L 53.609375 0 
L 7.328125 0 
L 7.328125 8.296875 
Q 12.9375 14.109375 22.625 23.890625 
Q 32.328125 33.6875 34.8125 36.53125 
Q 39.546875 41.84375 41.421875 45.53125 
Q 43.3125 49.21875 43.3125 52.78125 
Q 43.3125 58.59375 39.234375 62.25 
Q 35.15625 65.921875 28.609375 65.921875 
Q 23.96875 65.921875 18.8125 64.3125 
Q 13.671875 62.703125 7.8125 59.421875 
L 7.8125 69.390625 
Q 13.765625 71.78125 18.9375 73 
Q 24.125 74.21875 28.421875 74.21875 
Q 39.75 74.21875 46.484375 68.546875 
Q 53.21875 62.890625 53.21875 53.421875 
Q 53.21875 48.921875 51.53125 44.890625 
Q 49.859375 40.875 45.40625 35.40625 
Q 44.1875 33.984375 37.640625 27.21875 
Q 31.109375 20.453125 19.1875 8.296875 
z
" id="DejaVuSans-50"/>
        <path d="M 10.6875 12.40625 
L 21 12.40625 
L 21 0 
L 10.6875 0 
z
" id="DejaVuSans-46"/>
        <path d="M 31.78125 66.40625 
Q 24.171875 66.40625 20.328125 58.90625 
Q 16.5 51.421875 16.5 36.375 
Q 16.5 21.390625 20.328125 13.890625 
Q 24.171875 6.390625 31.78125 6.390625 
Q 39.453125 6.390625 43.28125 13.890625 
Q 47.125 21.390625 47.125 36.375 
Q 47.125 51.421875 43.28125 58.90625 
Q 39.453125 66.40625 31.78125 66.40625 
z
M 31.78125 74.21875 
Q 44.046875 74.21875 50.515625 64.515625 
Q 56.984375 54.828125 56.984375 36.375 
Q 56.984375 17.96875 50.515625 8.265625 
Q 44.046875 -1.421875 31.78125 -1.421875 
Q 19.53125 -1.421875 13.0625 8.265625 
Q 6.59375 17.96875 6.59375 36.375 
Q 6.59375 54.828125 13.0625 64.515625 
Q 19.53125 74.21875 31.78125 74.21875 
z
" id="DejaVuSans-48"/>
       </defs>
       <use xlink:href="#DejaVuSans-8722"/>
       <use x="83.789062" xlink:href="#DejaVuSans-50"/>
       <use x="147.412109" xlink:href="#DejaVuSans-46"/>
       <use x="179.199219" xlink:href="#DejaVuSans-48"/>
      </g>
     </g>
    </g>
    <g id="xtick_2">
     <g id="line2d_2">
      <g>
       <use style="stroke:#000000;stroke-width:0.8;" x="96.938665" xlink:href="#m401888c7f2" y="238.6"/>
      </g>
     </g>
     <g id="text_2">
      <!-- −1.5 -->
      <g transform="translate(84.797259 253.198437)scale(0.1 -0.1)">
       <defs>
        <path d="M 12.40625 8.296875 
L 28.515625 8.296875 
L 28.515625 63.921875 
L 10.984375 60.40625 
L 10.984375 69.390625 
L 28.421875 72.90625 
L 38.28125 72.90625 
L 38.28125 8.296875 
L 54.390625 8.296875 
L 54.390625 0 
L 12.40625 0 
z
" id="DejaVuSans-49"/>
        <path d="M 10.796875 72.90625 
L 49.515625 72.90625 
L 49.515625 64.59375 
L 19.828125 64.59375 
L 19.828125 46.734375 
Q 21.96875 47.46875 24.109375 47.828125 
Q 26.265625 48.1875 28.421875 48.1875 
Q 40.625 48.1875 47.75 41.5 
Q 54.890625 34.8125 54.890625 23.390625 
Q 54.890625 11.625 47.5625 5.09375 
Q 40.234375 -1.421875 26.90625 -1.421875 
Q 22.3125 -1.421875 17.546875 -0.640625 
Q 12.796875 0.140625 7.71875 1.703125 
L 7.71875 11.625 
Q 12.109375 9.234375 16.796875 8.0625 
Q 21.484375 6.890625 26.703125 6.890625 
Q 35.15625 6.890625 40.078125 11.328125 
Q 45.015625 15.765625 45.015625 23.390625 
Q 45.015625 31 40.078125 35.4375 
Q 35.15625 39.890625 26.703125 39.890625 
Q 22.75 39.890625 18.8125 39.015625 
Q 14.890625 38.140625 10.796875 36.28125 
z
" id="DejaVuSans-53"/>
       </defs>
       <use xlink:href="#DejaVuSans-8722"/>
       <use x="83.789062" xlink:href="#DejaVuSans-49"/>
       <use x="147.412109" xlink:href="#DejaVuSans-46"/>
       <use x="179.199219" xlink:href="#DejaVuSans-53"/>
      </g>
     </g>
    </g>
    <g id="xtick_3">
     <g id="line2d_3">
      <g>
       <use style="stroke:#000000;stroke-width:0.8;" x="130.891506" xlink:href="#m401888c7f2" y="238.6"/>
      </g>
     </g>
     <g id="text_3">
      <!-- −1.0 -->
      <g transform="translate(118.750099 253.198437)scale(0.1 -0.1)">
       <use xlink:href="#DejaVuSans-8722"/>
       <use x="83.789062" xlink:href="#DejaVuSans-49"/>
       <use x="147.412109" xlink:href="#DejaVuSans-46"/>
       <use x="179.199219" xlink:href="#DejaVuSans-48"/>
      </g>
     </g>
    </g>
    <g id="xtick_4">
     <g id="line2d_4">
      <g>
       <use style="stroke:#000000;stroke-width:0.8;" x="164.844347" xlink:href="#m401888c7f2" y="238.6"/>
      </g>
     </g>
     <g id="text_4">
      <!-- −0.5 -->
      <g transform="translate(152.70294 253.198437)scale(0.1 -0.1)">
       <use xlink:href="#DejaVuSans-8722"/>
       <use x="83.789062" xlink:href="#DejaVuSans-48"/>
       <use x="147.412109" xlink:href="#DejaVuSans-46"/>
       <use x="179.199219" xlink:href="#DejaVuSans-53"/>
      </g>
     </g>
    </g>
    <g id="xtick_5">
     <g id="line2d_5">
      <g>
       <use style="stroke:#000000;stroke-width:0.8;" x="198.797188" xlink:href="#m401888c7f2" y="238.6"/>
      </g>
     </g>
     <g id="text_5">
      <!-- 0.0 -->
      <g transform="translate(190.845625 253.198437)scale(0.1 -0.1)">
       <use xlink:href="#DejaVuSans-48"/>
       <use x="63.623047" xlink:href="#DejaVuSans-46"/>
       <use x="95.410156" xlink:href="#DejaVuSans-48"/>
      </g>
     </g>
    </g>
    <g id="xtick_6">
     <g id="line2d_6">
      <g>
       <use style="stroke:#000000;stroke-width:0.8;" x="232.750028" xlink:href="#m401888c7f2" y="238.6"/>
      </g>
     </g>
     <g id="text_6">
      <!-- 0.5 -->
      <g transform="translate(224.798466 253.198437)scale(0.1 -0.1)">
       <use xlink:href="#DejaVuSans-48"/>
       <use x="63.623047" xlink:href="#DejaVuSans-46"/>
       <use x="95.410156" xlink:href="#DejaVuSans-53"/>
      </g>
     </g>
    </g>
    <g id="xtick_7">
     <g id="line2d_7">
      <g>
       <use style="stroke:#000000;stroke-width:0.8;" x="266.702869" xlink:href="#m401888c7f2" y="238.6"/>
      </g>
     </g>
     <g id="text_7">
      <!-- 1.0 -->
      <g transform="translate(258.751307 253.198437)scale(0.1 -0.1)">
       <use xlink:href="#DejaVuSans-49"/>
       <use x="63.623047" xlink:href="#DejaVuSans-46"/>
       <use x="95.410156" xlink:href="#DejaVuSans-48"/>
      </g>
     </g>
    </g>
    <g id="xtick_8">
     <g id="line2d_8">
      <g>
       <use style="stroke:#000000;stroke-width:0.8;" x="300.65571" xlink:href="#m401888c7f2" y="238.6"/>
      </g>
     </g>
     <g id="text_8">
      <!-- 1.5 -->
      <g transform="translate(292.704148 253.198437)scale(0.1 -0.1)">
       <use xlink:href="#DejaVuSans-49"/>
       <use x="63.623047" xlink:href="#DejaVuSans-46"/>
       <use x="95.410156" xlink:href="#DejaVuSans-53"/>
      </g>
     </g>
    </g>
    <g id="xtick_9">
     <g id="line2d_9">
      <g>
       <use style="stroke:#000000;stroke-width:0.8;" x="334.608551" xlink:href="#m401888c7f2" y="238.6"/>
      </g>
     </g>
     <g id="text_9">
      <!-- 2.0 -->
      <g transform="translate(326.656989 253.198437)scale(0.1 -0.1)">
       <use xlink:href="#DejaVuSans-50"/>
       <use x="63.623047" xlink:href="#DejaVuSans-46"/>
       <use x="95.410156" xlink:href="#DejaVuSans-48"/>
      </g>
     </g>
    </g>
    <g id="text_10">
     <!-- $\beta$ -->
     <g transform="translate(195.597188 266.978125)scale(0.1 -0.1)">
      <defs>
       <path d="M 13.625 3.375 
L 8.9375 -20.796875 
L -0.09375 -20.796875 
L 14.5 54.34375 
Q 18.84375 76.609375 39.65625 76.609375 
Q 60.75 76.609375 57.171875 57.8125 
Q 54.734375 44.4375 45.21875 39.546875 
Q 58.015625 35.15625 55.515625 22.125 
Q 51.125 -1.078125 27.484375 -1.03125 
Q 17.140625 -0.984375 13.625 3.375 
z
M 15.921875 15.09375 
Q 19.671875 6.59375 29.296875 6.640625 
Q 43.359375 6.640625 46.34375 21.96875 
Q 49.03125 35.75 26.171875 34.671875 
L 27.78125 42.96875 
Q 45.453125 42.671875 48.53125 58.59375 
Q 50.640625 69.34375 39.203125 69.28125 
Q 26.421875 69.28125 23.484375 54.046875 
z
" id="DejaVuSans-Oblique-946"/>
      </defs>
      <use transform="translate(0 0.390625)" xlink:href="#DejaVuSans-Oblique-946"/>
     </g>
    </g>
   </g>
   <g id="matplotlib.axis_2">
    <g id="ytick_1">
     <g id="line2d_10">
      <defs>
       <path d="M 0 0 
L -3.5 0 
" id="m6cf144b8b3" style="stroke:#000000;stroke-width:0.8;"/>
      </defs>
      <g>
       <use style="stroke:#000000;stroke-width:0.8;" x="49.404688" xlink:href="#m6cf144b8b3" y="238.423656"/>
      </g>
     </g>
     <g id="text_11">
      <!-- −25 -->
      <g transform="translate(21.3 242.222875)scale(0.1 -0.1)">
       <use xlink:href="#DejaVuSans-8722"/>
       <use x="83.789062" xlink:href="#DejaVuSans-50"/>
       <use x="147.412109" xlink:href="#DejaVuSans-53"/>
      </g>
     </g>
    </g>
    <g id="ytick_2">
     <g id="line2d_11">
      <g>
       <use style="stroke:#000000;stroke-width:0.8;" x="49.404688" xlink:href="#m6cf144b8b3" y="194.279029"/>
      </g>
     </g>
     <g id="text_12">
      <!-- −20 -->
      <g transform="translate(21.3 198.078248)scale(0.1 -0.1)">
       <use xlink:href="#DejaVuSans-8722"/>
       <use x="83.789062" xlink:href="#DejaVuSans-50"/>
       <use x="147.412109" xlink:href="#DejaVuSans-48"/>
      </g>
     </g>
    </g>
    <g id="ytick_3">
     <g id="line2d_12">
      <g>
       <use style="stroke:#000000;stroke-width:0.8;" x="49.404688" xlink:href="#m6cf144b8b3" y="150.134403"/>
      </g>
     </g>
     <g id="text_13">
      <!-- −15 -->
      <g transform="translate(21.3 153.933622)scale(0.1 -0.1)">
       <use xlink:href="#DejaVuSans-8722"/>
       <use x="83.789062" xlink:href="#DejaVuSans-49"/>
       <use x="147.412109" xlink:href="#DejaVuSans-53"/>
      </g>
     </g>
    </g>
    <g id="ytick_4">
     <g id="line2d_13">
      <g>
       <use style="stroke:#000000;stroke-width:0.8;" x="49.404688" xlink:href="#m6cf144b8b3" y="105.989777"/>
      </g>
     </g>
     <g id="text_14">
      <!-- −10 -->
      <g transform="translate(21.3 109.788995)scale(0.1 -0.1)">
       <use xlink:href="#DejaVuSans-8722"/>
       <use x="83.789062" xlink:href="#DejaVuSans-49"/>
       <use x="147.412109" xlink:href="#DejaVuSans-48"/>
      </g>
     </g>
    </g>
    <g id="ytick_5">
     <g id="line2d_14">
      <g>
       <use style="stroke:#000000;stroke-width:0.8;" x="49.404688" xlink:href="#m6cf144b8b3" y="61.84515"/>
      </g>
     </g>
     <g id="text_15">
      <!-- −5 -->
      <g transform="translate(27.6625 65.644369)scale(0.1 -0.1)">
       <use xlink:href="#DejaVuSans-8722"/>
       <use x="83.789062" xlink:href="#DejaVuSans-53"/>
      </g>
     </g>
    </g>
    <g id="ytick_6">
     <g id="line2d_15">
      <g>
       <use style="stroke:#000000;stroke-width:0.8;" x="49.404688" xlink:href="#m6cf144b8b3" y="17.700524"/>
      </g>
     </g>
     <g id="text_16">
      <!-- 0 -->
      <g transform="translate(36.042188 21.499743)scale(0.1 -0.1)">
       <use xlink:href="#DejaVuSans-48"/>
      </g>
     </g>
    </g>
    <g id="text_17">
     <!-- $pen(\beta|\theta)$ -->
     <g transform="translate(14.9 144.2)rotate(-90)scale(0.1 -0.1)">
      <defs>
       <path d="M 49.609375 33.6875 
Q 49.609375 40.875 46.484375 44.671875 
Q 43.359375 48.484375 37.5 48.484375 
Q 33.5 48.484375 29.859375 46.4375 
Q 26.21875 44.390625 23.390625 40.484375 
Q 20.609375 36.625 18.9375 31.15625 
Q 17.28125 25.6875 17.28125 20.3125 
Q 17.28125 13.484375 20.40625 9.796875 
Q 23.53125 6.109375 29.296875 6.109375 
Q 33.546875 6.109375 37.1875 8.109375 
Q 40.828125 10.109375 43.40625 13.921875 
Q 46.1875 17.921875 47.890625 23.34375 
Q 49.609375 28.765625 49.609375 33.6875 
z
M 21.78125 46.390625 
Q 25.390625 51.125 30.296875 53.5625 
Q 35.203125 56 41.21875 56 
Q 49.609375 56 54.25 50.5 
Q 58.890625 45.015625 58.890625 35.109375 
Q 58.890625 27 56 19.65625 
Q 53.125 12.3125 47.703125 6.5 
Q 44.09375 2.640625 39.546875 0.609375 
Q 35.015625 -1.421875 29.984375 -1.421875 
Q 24.171875 -1.421875 20.21875 1 
Q 16.265625 3.421875 14.3125 8.203125 
L 8.6875 -20.796875 
L -0.296875 -20.796875 
L 14.40625 54.6875 
L 23.390625 54.6875 
z
" id="DejaVuSans-Oblique-112"/>
       <path d="M 48.09375 32.234375 
Q 48.25 33.015625 48.3125 33.84375 
Q 48.390625 34.671875 48.390625 35.5 
Q 48.390625 41.453125 44.890625 44.921875 
Q 41.40625 48.390625 35.40625 48.390625 
Q 28.71875 48.390625 23.578125 44.15625 
Q 18.453125 39.9375 15.828125 32.171875 
z
M 55.90625 25.203125 
L 14.109375 25.203125 
Q 13.8125 23.34375 13.71875 22.265625 
Q 13.625 21.1875 13.625 20.40625 
Q 13.625 13.625 17.796875 9.90625 
Q 21.96875 6.203125 29.59375 6.203125 
Q 35.453125 6.203125 40.671875 7.515625 
Q 45.90625 8.84375 50.390625 11.375 
L 48.6875 2.484375 
Q 43.84375 0.53125 38.6875 -0.4375 
Q 33.546875 -1.421875 28.21875 -1.421875 
Q 16.84375 -1.421875 10.71875 4.015625 
Q 4.59375 9.46875 4.59375 19.484375 
Q 4.59375 28.03125 7.640625 35.375 
Q 10.6875 42.71875 16.609375 48.484375 
Q 20.40625 52.09375 25.65625 54.046875 
Q 30.90625 56 36.8125 56 
Q 46.09375 56 51.578125 50.4375 
Q 57.078125 44.875 57.078125 35.5 
Q 57.078125 33.25 56.78125 30.6875 
Q 56.5 28.125 55.90625 25.203125 
z
" id="DejaVuSans-Oblique-101"/>
       <path d="M 55.71875 33.015625 
L 49.3125 0 
L 40.28125 0 
L 46.6875 32.671875 
Q 47.125 34.96875 47.359375 36.71875 
Q 47.609375 38.484375 47.609375 39.5 
Q 47.609375 43.609375 45.015625 45.890625 
Q 42.4375 48.1875 37.796875 48.1875 
Q 30.5625 48.1875 25.34375 43.375 
Q 20.125 38.578125 18.5 30.328125 
L 12.5 0 
L 3.515625 0 
L 14.109375 54.6875 
L 23.09375 54.6875 
L 21.296875 46.09375 
Q 25.046875 50.828125 30.3125 53.40625 
Q 35.59375 56 41.40625 56 
Q 48.640625 56 52.609375 52.09375 
Q 56.59375 48.1875 56.59375 41.109375 
Q 56.59375 39.359375 56.375 37.359375 
Q 56.15625 35.359375 55.71875 33.015625 
z
" id="DejaVuSans-Oblique-110"/>
       <path d="M 31 75.875 
Q 24.46875 64.65625 21.28125 53.65625 
Q 18.109375 42.671875 18.109375 31.390625 
Q 18.109375 20.125 21.3125 9.0625 
Q 24.515625 -2 31 -13.1875 
L 23.1875 -13.1875 
Q 15.875 -1.703125 12.234375 9.375 
Q 8.59375 20.453125 8.59375 31.390625 
Q 8.59375 42.28125 12.203125 53.3125 
Q 15.828125 64.359375 23.1875 75.875 
z
" id="DejaVuSans-40"/>
       <path d="M 21 76.421875 
L 21 -23.578125 
L 12.703125 -23.578125 
L 12.703125 76.421875 
z
" id="DejaVuSans-124"/>
       <path d="M 45.515625 34.671875 
L 14.453125 34.671875 
Q 12.359375 20.0625 14.5 13.875 
Q 17.1875 6.25 24.46875 6.25 
Q 31.78125 6.25 37.359375 13.921875 
Q 42.234375 20.65625 45.515625 34.671875 
z
M 47.015625 42.96875 
Q 48.34375 56.84375 46.625 61.71875 
Q 43.953125 69.4375 36.765625 69.4375 
Q 29.296875 69.4375 23.828125 61.8125 
Q 19.53125 55.671875 16.15625 42.96875 
z
M 38.1875 76.765625 
Q 49.90625 76.765625 54.59375 66.40625 
Q 59.28125 56.109375 55.71875 37.84375 
Q 52.203125 19.625 43.453125 9.28125 
Q 34.765625 -1.125 23.046875 -1.125 
Q 11.28125 -1.125 6.640625 9.28125 
Q 2 19.625 5.515625 37.84375 
Q 9.078125 56.109375 17.71875 66.40625 
Q 26.421875 76.765625 38.1875 76.765625 
z
" id="DejaVuSans-Oblique-952"/>
       <path d="M 8.015625 75.875 
L 15.828125 75.875 
Q 23.140625 64.359375 26.78125 53.3125 
Q 30.421875 42.28125 30.421875 31.390625 
Q 30.421875 20.453125 26.78125 9.375 
Q 23.140625 -1.703125 15.828125 -13.1875 
L 8.015625 -13.1875 
Q 14.5 -2 17.703125 9.0625 
Q 20.90625 20.125 20.90625 31.390625 
Q 20.90625 42.671875 17.703125 53.65625 
Q 14.5 64.65625 8.015625 75.875 
z
" id="DejaVuSans-41"/>
      </defs>
      <use transform="translate(0 0.234375)" xlink:href="#DejaVuSans-Oblique-112"/>
      <use transform="translate(63.476562 0.234375)" xlink:href="#DejaVuSans-Oblique-101"/>
      <use transform="translate(125 0.234375)" xlink:href="#DejaVuSans-Oblique-110"/>
      <use transform="translate(188.378906 0.234375)" xlink:href="#DejaVuSans-40"/>
      <use transform="translate(227.392578 0.234375)" xlink:href="#DejaVuSans-Oblique-946"/>
      <use transform="translate(291.210938 0.234375)" xlink:href="#DejaVuSans-124"/>
      <use transform="translate(324.902344 0.234375)" xlink:href="#DejaVuSans-Oblique-952"/>
      <use transform="translate(386.083984 0.234375)" xlink:href="#DejaVuSans-41"/>
     </g>
    </g>
   </g>
   <g id="line2d_16">
    <path clip-path="url(#pfb93f720be)" d="M 62.985824 35.358375 
L 199.204622 17.753498 
L 334.608551 35.358375 
L 334.608551 35.358375 
" style="fill:none;stroke:#0173b2;stroke-linecap:square;stroke-width:1.5;"/>
   </g>
   <g id="line2d_17">
    <path clip-path="url(#pfb93f720be)" d="M 62.985824 69.028879 
L 81.456169 66.372684 
L 93.407569 64.440116 
L 102.439025 62.765227 
L 110.044461 61.133618 
L 116.563407 59.516831 
L 122.539107 57.815331 
L 128.243184 55.964957 
L 133.947261 53.873873 
L 139.651339 51.534777 
L 145.355416 48.953915 
L 151.602739 45.87202 
L 158.393307 42.260649 
L 166.066649 37.916909 
L 175.301822 32.418415 
L 186.981599 25.190739 
L 198.932999 17.787272 
L 215.773608 28.412896 
L 227.181762 35.359991 
L 235.941595 40.445503 
L 243.275409 44.457406 
L 249.794355 47.778049 
L 255.770055 50.579334 
L 261.474132 53.011991 
L 267.178209 55.197426 
L 272.882286 57.137808 
L 278.857986 58.924344 
L 285.105309 60.553797 
L 291.895877 62.095195 
L 299.772936 63.651103 
L 309.347637 65.305499 
L 321.842283 67.223039 
L 334.608551 69.028879 
L 334.608551 69.028879 
" style="fill:none;stroke:#de8f05;stroke-linecap:square;stroke-width:1.5;"/>
   </g>
   <g id="line2d_18">
    <path clip-path="url(#pfb93f720be)" d="M 62.985824 105.989777 
L 198.661376 17.788813 
L 198.932999 17.788813 
L 334.608551 105.989777 
L 334.608551 105.989777 
" style="fill:none;stroke:#de8f05;stroke-dasharray:6,2.25;stroke-dashoffset:0;stroke-width:1.5;"/>
   </g>
   <g id="line2d_19">
    <path clip-path="url(#pfb93f720be)" d="M 62.985824 75.184404 
L 131.77428 66.131164 
L 140.466207 64.768493 
L 145.898661 63.715243 
L 150.244625 62.648422 
L 153.77572 61.548323 
L 156.76357 60.390595 
L 159.479798 59.111474 
L 162.196025 57.580508 
L 164.64063 55.966985 
L 167.424763 53.848561 
L 170.14099 51.501746 
L 173.12884 48.629724 
L 176.659935 44.905298 
L 180.734276 40.268692 
L 185.895108 34.046661 
L 193.500544 24.488887 
L 198.661376 17.87534 
L 198.932999 17.87534 
L 210.069531 32.02755 
L 216.316853 39.629197 
L 220.93444 44.905298 
L 224.465535 48.629724 
L 227.725008 51.748294 
L 230.712858 54.285253 
L 233.496991 56.34542 
L 236.213218 58.06795 
L 238.929445 59.520221 
L 241.645673 60.730246 
L 244.633523 61.825267 
L 248.164618 62.869156 
L 252.238959 63.832042 
L 257.399791 64.815682 
L 264.733605 65.973054 
L 277.771495 67.77202 
L 323.472019 73.736419 
L 334.608551 75.184404 
L 334.608551 75.184404 
" style="fill:none;stroke:#029e73;stroke-linecap:square;stroke-width:1.5;"/>
   </g>
   <g id="line2d_20">
    <path clip-path="url(#pfb93f720be)" d="M 62.985824 131.978796 
L 105.155252 104.412684 
L 119.82288 94.575263 
L 129.329675 87.950387 
L 136.663489 82.586618 
L 142.910811 77.75314 
L 148.614889 73.055863 
L 153.77572 68.521889 
L 158.936552 63.684719 
L 164.097384 58.530878 
L 169.326122 52.99499 
L 175.030199 46.629934 
L 181.549144 39.009662 
L 189.426203 29.434351 
L 198.661376 17.872434 
L 198.932999 17.872434 
L 209.797908 31.441753 
L 217.674967 40.944628 
L 224.193913 48.480309 
L 229.89799 54.752972 
L 235.126727 60.192543 
L 240.287559 65.246246 
L 245.448391 69.985224 
L 250.609223 74.429387 
L 256.3133 79.042327 
L 262.560623 83.803717 
L 269.894436 89.107801 
L 279.129609 95.501067 
L 292.1675 104.232913 
L 314.508469 118.887561 
L 334.608551 131.978796 
L 334.608551 131.978796 
" style="fill:none;stroke:#029e73;stroke-dasharray:6,2.25;stroke-dashoffset:0;stroke-width:1.5;"/>
   </g>
   <g id="line2d_21">
    <path clip-path="url(#pfb93f720be)" d="M 62.985824 194.279029 
L 198.661376 17.877102 
L 198.932999 17.877102 
L 334.608551 194.279029 
L 334.608551 194.279029 
" style="fill:none;stroke:#029e73;stroke-dasharray:1.5,1.5;stroke-dashoffset:0;stroke-width:1.5;"/>
   </g>
   <g id="line2d_22">
    <path clip-path="url(#pfb93f720be)" d="M 62.985824 81.255516 
L 164.64063 67.92696 
L 168.782876 67.149045 
L 171.499103 66.412626 
L 173.400463 65.683947 
L 175.030199 64.839114 
L 176.659935 63.712607 
L 178.018049 62.502155 
L 179.376163 61.003102 
L 180.734276 59.191703 
L 182.364013 56.603085 
L 183.993749 53.596547 
L 186.166731 49.054716 
L 188.882958 42.77703 
L 192.685676 33.374392 
L 198.661376 18.051792 
L 198.932999 18.051792 
L 206.810058 38.135705 
L 210.341153 46.607518 
L 212.785758 51.956645 
L 214.687117 55.644524 
L 216.316853 58.378266 
L 217.94659 60.666227 
L 219.304703 62.226455 
L 220.662817 63.491901 
L 222.292553 64.673064 
L 223.92229 65.559402 
L 225.823649 66.32185 
L 228.268253 67.022103 
L 231.527726 67.687316 
L 236.756464 68.494346 
L 251.152468 70.404077 
L 334.608551 81.255516 
L 334.608551 81.255516 
" style="fill:none;stroke:#d55e00;stroke-linecap:square;stroke-width:1.5;"/>
   </g>
   <g id="line2d_23">
    <path clip-path="url(#pfb93f720be)" d="M 62.985824 137.870301 
L 163.554139 72.360891 
L 168.782876 68.683037 
L 172.042349 66.151517 
L 174.758576 63.762588 
L 176.931558 61.564427 
L 178.832917 59.354972 
L 180.734276 56.817065 
L 182.635635 53.907844 
L 184.536994 50.612114 
L 186.709976 46.395714 
L 189.154581 41.162013 
L 192.414053 33.589433 
L 196.760017 22.8633 
L 198.661376 18.046417 
L 198.932999 18.046417 
L 204.637076 32.279386 
L 208.168172 40.553652 
L 210.884399 46.395714 
L 213.057381 50.612114 
L 215.230363 54.347108 
L 217.131722 57.201611 
L 219.033081 59.689458 
L 221.206063 62.143393 
L 223.379044 64.26784 
L 226.095272 66.593933 
L 229.354744 69.081606 
L 234.040236 72.360891 
L 242.732164 78.123262 
L 279.401232 101.980714 
L 334.608551 137.870301 
L 334.608551 137.870301 
" style="fill:none;stroke:#d55e00;stroke-dasharray:6,2.25;stroke-dashoffset:0;stroke-width:1.5;"/>
   </g>
   <g id="line2d_24">
    <path clip-path="url(#pfb93f720be)" d="M 62.985824 220.275261 
L 152.68923 103.468164 
L 160.837911 92.475976 
L 166.066649 85.055139 
L 170.14099 78.882349 
L 173.672085 73.113626 
L 176.931558 67.341908 
L 180.191031 61.079525 
L 183.450503 54.316162 
L 186.981599 46.474663 
L 191.327562 36.238779 
L 196.760017 22.836785 
L 198.661376 18.044299 
L 198.932999 18.044299 
L 205.723567 34.923775 
L 210.341153 45.851974 
L 214.143872 54.316162 
L 217.674967 61.620754 
L 220.93444 67.841087 
L 224.193913 73.574047 
L 227.725008 79.308234 
L 231.527726 85.055139 
L 236.213218 91.723461 
L 242.732164 100.577069 
L 253.597073 114.896614 
L 285.920177 156.971441 
L 334.608551 220.275261 
L 334.608551 220.275261 
" style="fill:none;stroke:#d55e00;stroke-dasharray:1.5,1.5;stroke-dashoffset:0;stroke-width:1.5;"/>
   </g>
   <g id="line2d_25">
    <path clip-path="url(#pfb93f720be)" d="M 62.985824 89.316063 
L 184.265372 73.437349 
L 185.895108 72.983223 
L 186.981599 72.439983 
L 187.796467 71.773439 
L 188.611335 70.74004 
L 189.426203 69.176294 
L 190.241072 66.932133 
L 191.05594 63.936337 
L 192.142431 58.867675 
L 193.500544 51.299048 
L 195.945149 36.108557 
L 198.661376 18.581401 
L 198.932999 18.581401 
L 203.822208 49.679327 
L 205.451944 58.867675 
L 206.538435 63.936337 
L 207.353303 66.932133 
L 208.168172 69.176294 
L 208.98304 70.74004 
L 209.797908 71.773439 
L 210.612776 72.439983 
L 211.699267 72.983223 
L 213.057381 73.37834 
L 215.501985 73.80703 
L 224.193913 74.960187 
L 334.608551 89.316063 
L 334.608551 89.316063 
" style="fill:none;stroke:#cc78bc;stroke-linecap:square;stroke-width:1.5;"/>
   </g>
   <g id="line2d_26">
    <path clip-path="url(#pfb93f720be)" d="M 62.985824 145.815818 
L 185.623485 65.963091 
L 187.253222 64.660765 
L 188.339713 63.580033 
L 189.426203 62.150991 
L 190.241072 60.702664 
L 191.05594 58.790036 
L 191.870808 56.29874 
L 192.685676 53.172733 
L 193.772167 48.078185 
L 195.130281 40.586793 
L 197.574885 25.526306 
L 198.661376 18.574284 
L 198.932999 18.574284 
L 202.464094 40.586793 
L 204.093831 49.44084 
L 205.180322 54.285253 
L 206.266813 58.028271 
L 207.081681 60.123069 
L 207.896549 61.711712 
L 208.98304 63.263703 
L 210.069531 64.412939 
L 211.699267 65.761577 
L 214.415494 67.654444 
L 224.737158 74.389786 
L 334.608551 145.815818 
L 334.608551 145.815818 
" style="fill:none;stroke:#cc78bc;stroke-dasharray:6,2.25;stroke-dashoffset:0;stroke-width:1.5;"/>
   </g>
   <g id="line2d_27">
    <path clip-path="url(#pfb93f720be)" d="M 62.985824 228.081818 
L 185.623485 68.463601 
L 187.796467 65.216896 
L 189.154581 62.778766 
L 190.241072 60.370521 
L 191.327562 57.331694 
L 192.414053 53.474365 
L 193.500544 48.728436 
L 194.858658 41.698595 
L 196.760017 30.509471 
L 198.661376 18.567445 
L 198.932999 18.567445 
L 202.192472 38.62458 
L 203.822208 47.410858 
L 205.180322 53.474365 
L 206.266813 57.331694 
L 207.353303 60.370521 
L 208.439794 62.778766 
L 209.797908 65.216896 
L 211.699267 68.081646 
L 214.95874 72.487053 
L 228.268253 89.820837 
L 334.608551 228.081818 
L 334.608551 228.081818 
" style="fill:none;stroke:#cc78bc;stroke-dasharray:1.5,1.5;stroke-dashoffset:0;stroke-width:1.5;"/>
   </g>
   <g id="line2d_28"/>
   <g id="line2d_29"/>
   <g id="line2d_30"/>
   <g id="line2d_31"/>
   <g id="line2d_32"/>
   <g id="line2d_33"/>
   <g id="line2d_34"/>
   <g id="line2d_35"/>
   <g id="patch_3">
    <path d="M 49.404688 238.6 
L 49.404688 7.2 
" style="fill:none;stroke:#000000;stroke-linecap:square;stroke-linejoin:miter;stroke-width:0.8;"/>
   </g>
   <g id="patch_4">
    <path d="M 348.189687 238.6 
L 348.189687 7.2 
" style="fill:none;stroke:#000000;stroke-linecap:square;stroke-linejoin:miter;stroke-width:0.8;"/>
   </g>
   <g id="patch_5">
    <path d="M 49.404688 238.6 
L 348.189687 238.6 
" style="fill:none;stroke:#000000;stroke-linecap:square;stroke-linejoin:miter;stroke-width:0.8;"/>
   </g>
   <g id="patch_6">
    <path d="M 49.404688 7.2 
L 348.189687 7.2 
" style="fill:none;stroke:#000000;stroke-linecap:square;stroke-linejoin:miter;stroke-width:0.8;"/>
   </g>
   <g id="legend_1">
    <g id="patch_7">
     <path d="M 365.128938 156.98125 
L 409.853938 156.98125 
Q 411.853938 156.98125 411.853938 154.98125 
L 411.853938 9.2 
Q 411.853938 7.2 409.853938 7.2 
L 365.128938 7.2 
Q 363.128938 7.2 363.128938 9.2 
L 363.128938 154.98125 
Q 363.128938 156.98125 365.128938 156.98125 
z
" style="fill:#ffffff;opacity:0.8;stroke:#cccccc;stroke-linejoin:miter;"/>
    </g>
    <g id="text_18">
     <!-- $\lambda_0$ -->
     <g transform="translate(395.128938 18.798437)scale(0.1 -0.1)">
      <defs>
       <path d="M 36.71875 67.4375 
L 48.828125 0 
L 39.3125 0 
L 31.84375 40.4375 
L 5.125 0 
L -4.390625 0 
L 29.734375 52.4375 
L 28.03125 62.109375 
Q 26.953125 68.265625 21.734375 68.265625 
L 17.046875 68.265625 
L 18.5 75.984375 
L 24.21875 75.875 
Q 35.203125 75.734375 36.71875 67.4375 
z
" id="DejaVuSans-Oblique-955"/>
      </defs>
      <use transform="translate(0 0.015625)" xlink:href="#DejaVuSans-Oblique-955"/>
      <use transform="translate(59.179688 -16.390625)scale(0.7)" xlink:href="#DejaVuSans-48"/>
     </g>
    </g>
    <g id="line2d_36">
     <path d="M 367.128938 29.976562 
L 387.128938 29.976562 
" style="fill:none;stroke:#0173b2;stroke-linecap:square;stroke-width:1.5;"/>
    </g>
    <g id="line2d_37"/>
    <g id="text_19">
     <!-- 1 -->
     <g transform="translate(395.128938 33.476562)scale(0.1 -0.1)">
      <use xlink:href="#DejaVuSans-49"/>
     </g>
    </g>
    <g id="line2d_38">
     <path d="M 367.128938 44.654687 
L 387.128938 44.654687 
" style="fill:none;stroke:#de8f05;stroke-linecap:square;stroke-width:1.5;"/>
    </g>
    <g id="line2d_39"/>
    <g id="text_20">
     <!-- 5 -->
     <g transform="translate(395.128938 48.154687)scale(0.1 -0.1)">
      <use xlink:href="#DejaVuSans-53"/>
     </g>
    </g>
    <g id="line2d_40">
     <path d="M 367.128938 59.332812 
L 387.128938 59.332812 
" style="fill:none;stroke:#029e73;stroke-linecap:square;stroke-width:1.5;"/>
    </g>
    <g id="line2d_41"/>
    <g id="text_21">
     <!-- 10 -->
     <g transform="translate(395.128938 62.832812)scale(0.1 -0.1)">
      <use xlink:href="#DejaVuSans-49"/>
      <use x="63.623047" xlink:href="#DejaVuSans-48"/>
     </g>
    </g>
    <g id="line2d_42">
     <path d="M 367.128938 74.010938 
L 387.128938 74.010938 
" style="fill:none;stroke:#d55e00;stroke-linecap:square;stroke-width:1.5;"/>
    </g>
    <g id="line2d_43"/>
    <g id="text_22">
     <!-- 15 -->
     <g transform="translate(395.128938 77.510938)scale(0.1 -0.1)">
      <use xlink:href="#DejaVuSans-49"/>
      <use x="63.623047" xlink:href="#DejaVuSans-53"/>
     </g>
    </g>
    <g id="line2d_44">
     <path d="M 367.128938 88.689062 
L 387.128938 88.689062 
" style="fill:none;stroke:#cc78bc;stroke-linecap:square;stroke-width:1.5;"/>
    </g>
    <g id="line2d_45"/>
    <g id="text_23">
     <!-- 20 -->
     <g transform="translate(395.128938 92.189062)scale(0.1 -0.1)">
      <use xlink:href="#DejaVuSans-50"/>
      <use x="63.623047" xlink:href="#DejaVuSans-48"/>
     </g>
    </g>
    <g id="text_24">
     <!-- $\lambda_1$ -->
     <g transform="translate(395.128938 106.867188)scale(0.1 -0.1)">
      <use transform="translate(0 0.015625)" xlink:href="#DejaVuSans-Oblique-955"/>
      <use transform="translate(59.179688 -16.390625)scale(0.7)" xlink:href="#DejaVuSans-49"/>
     </g>
    </g>
    <g id="line2d_46">
     <path d="M 367.128938 118.045312 
L 387.128938 118.045312 
" style="fill:none;stroke:#333333;stroke-linecap:square;stroke-width:1.5;"/>
    </g>
    <g id="line2d_47"/>
    <g id="text_25">
     <!-- 1 -->
     <g transform="translate(395.128938 121.545312)scale(0.1 -0.1)">
      <use xlink:href="#DejaVuSans-49"/>
     </g>
    </g>
    <g id="line2d_48">
     <path d="M 367.128938 132.723437 
L 387.128938 132.723437 
" style="fill:none;stroke:#333333;stroke-dasharray:6,2.25;stroke-dashoffset:0;stroke-width:1.5;"/>
    </g>
    <g id="line2d_49"/>
    <g id="text_26">
     <!-- 5 -->
     <g transform="translate(395.128938 136.223437)scale(0.1 -0.1)">
      <use xlink:href="#DejaVuSans-53"/>
     </g>
    </g>
    <g id="line2d_50">
     <path d="M 367.128938 147.401562 
L 387.128938 147.401562 
" style="fill:none;stroke:#333333;stroke-dasharray:1.5,1.5;stroke-dashoffset:0;stroke-width:1.5;"/>
    </g>
    <g id="line2d_51"/>
    <g id="text_27">
     <!-- 10 -->
     <g transform="translate(395.128938 150.901562)scale(0.1 -0.1)">
      <use xlink:href="#DejaVuSans-49"/>
      <use x="63.623047" xlink:href="#DejaVuSans-48"/>
     </g>
    </g>
   </g>
  </g>
 </g>
 <defs>
  <clipPath id="pfb93f720be">
   <rect height="231.4" width="298.785" x="49.404688" y="7.2"/>
  </clipPath>
 </defs>
</svg>
