<?xml version="1.0" encoding="utf-8" standalone="no"?>
<!DOCTYPE svg PUBLIC "-//W3C//DTD SVG 1.1//EN"
  "http://www.w3.org/Graphics/SVG/1.1/DTD/svg11.dtd">
<!-- Created with matplotlib (https://matplotlib.org/) -->
<svg height="272.070938pt" version="1.1" viewBox="0 0 418.043 272.070938" width="418.043pt" xmlns="http://www.w3.org/2000/svg" xmlns:xlink="http://www.w3.org/1999/xlink">
 <metadata>
  <rdf:RDF xmlns:cc="http://creativecommons.org/ns#" xmlns:dc="http://purl.org/dc/elements/1.1/" xmlns:rdf="http://www.w3.org/1999/02/22-rdf-syntax-ns#">
   <cc:Work>
    <dc:type rdf:resource="http://purl.org/dc/dcmitype/StillImage"/>
    <dc:date>2021-08-16T17:40:54.386702</dc:date>
    <dc:format>image/svg+xml</dc:format>
    <dc:creator>
     <cc:Agent>
      <dc:title>Matplotlib v3.3.3, https://matplotlib.org/</dc:title>
     </cc:Agent>
    </dc:creator>
   </cc:Work>
  </rdf:RDF>
 </metadata>
 <defs>
  <style type="text/css">*{stroke-linecap:butt;stroke-linejoin:round;}</style>
 </defs>
 <g id="figure_1">
  <g id="patch_1">
   <path d="M 0 272.070938 
L 418.043 272.070938 
L 418.043 0 
L 0 0 
z
" style="fill:#ffffff;"/>
  </g>
  <g id="axes_1">
   <g id="patch_2">
    <path d="M 51.440625 232.425625 
L 348.850625 232.425625 
L 348.850625 22.095 
L 51.440625 22.095 
z
" style="fill:#ffffff;"/>
   </g>
   <g id="matplotlib.axis_1">
    <g id="xtick_1">
     <g id="line2d_1">
      <defs>
       <path d="M 0 0 
L 0 3.5 
" id="me7d1f0047a" style="stroke:#262626;stroke-width:0.8;"/>
      </defs>
      <g>
       <use style="fill:#262626;stroke:#262626;stroke-width:0.8;" x="64.959261" xlink:href="#me7d1f0047a" y="232.425625"/>
      </g>
     </g>
     <g id="text_1">
      <!-- $\mathdefault{10^{-1}}$ -->
      <g style="fill:#262626;" transform="translate(55.059261 249.738125)scale(0.1 -0.1)">
       <defs>
        <path d="M 37.25 0 
L 28.46875 0 
L 28.46875 56 
Q 25.296875 52.984375 20.140625 49.953125 
Q 14.984375 46.921875 10.890625 45.40625 
L 10.890625 53.90625 
Q 18.265625 57.375 23.78125 62.296875 
Q 29.296875 67.234375 31.59375 71.875 
L 37.25 71.875 
z
" id="ArialMT-49"/>
        <path d="M 4.15625 35.296875 
Q 4.15625 48 6.765625 55.734375 
Q 9.375 63.484375 14.515625 67.671875 
Q 19.671875 71.875 27.484375 71.875 
Q 33.25 71.875 37.59375 69.546875 
Q 41.9375 67.234375 44.765625 62.859375 
Q 47.609375 58.5 49.21875 52.21875 
Q 50.828125 45.953125 50.828125 35.296875 
Q 50.828125 22.703125 48.234375 14.96875 
Q 45.65625 7.234375 40.5 3 
Q 35.359375 -1.21875 27.484375 -1.21875 
Q 17.140625 -1.21875 11.234375 6.203125 
Q 4.15625 15.140625 4.15625 35.296875 
z
M 13.1875 35.296875 
Q 13.1875 17.671875 17.3125 11.828125 
Q 21.4375 6 27.484375 6 
Q 33.546875 6 37.671875 11.859375 
Q 41.796875 17.71875 41.796875 35.296875 
Q 41.796875 52.984375 37.671875 58.78125 
Q 33.546875 64.59375 27.390625 64.59375 
Q 21.34375 64.59375 17.71875 59.46875 
Q 13.1875 52.9375 13.1875 35.296875 
z
" id="ArialMT-48"/>
        <path d="M 52.828125 31.203125 
L 5.5625 31.203125 
L 5.5625 39.40625 
L 52.828125 39.40625 
z
" id="ArialMT-8722"/>
       </defs>
       <use transform="translate(0 0.99375)" xlink:href="#ArialMT-49"/>
       <use transform="translate(55.615234 0.99375)" xlink:href="#ArialMT-48"/>
       <use transform="translate(112.972813 70.6875)scale(0.7)" xlink:href="#ArialMT-8722"/>
       <use transform="translate(153.851719 70.6875)scale(0.7)" xlink:href="#ArialMT-49"/>
      </g>
     </g>
    </g>
    <g id="xtick_2">
     <g id="line2d_2">
      <g>
       <use style="fill:#262626;stroke:#262626;stroke-width:0.8;" x="132.552443" xlink:href="#me7d1f0047a" y="232.425625"/>
      </g>
     </g>
     <g id="text_2">
      <!-- $\mathdefault{10^{0}}$ -->
      <g style="fill:#262626;" transform="translate(124.702443 249.738125)scale(0.1 -0.1)">
       <use transform="translate(0 0.99375)" xlink:href="#ArialMT-49"/>
       <use transform="translate(55.615234 0.99375)" xlink:href="#ArialMT-48"/>
       <use transform="translate(112.972813 70.6875)scale(0.7)" xlink:href="#ArialMT-48"/>
      </g>
     </g>
    </g>
    <g id="xtick_3">
     <g id="line2d_3">
      <g>
       <use style="fill:#262626;stroke:#262626;stroke-width:0.8;" x="200.145625" xlink:href="#me7d1f0047a" y="232.425625"/>
      </g>
     </g>
     <g id="text_3">
      <!-- $\mathdefault{10^{1}}$ -->
      <g style="fill:#262626;" transform="translate(192.295625 249.738125)scale(0.1 -0.1)">
       <use transform="translate(0 0.99375)" xlink:href="#ArialMT-49"/>
       <use transform="translate(55.615234 0.99375)" xlink:href="#ArialMT-48"/>
       <use transform="translate(112.972813 70.6875)scale(0.7)" xlink:href="#ArialMT-49"/>
      </g>
     </g>
    </g>
    <g id="xtick_4">
     <g id="line2d_4">
      <g>
       <use style="fill:#262626;stroke:#262626;stroke-width:0.8;" x="267.738807" xlink:href="#me7d1f0047a" y="232.425625"/>
      </g>
     </g>
     <g id="text_4">
      <!-- $\mathdefault{10^{2}}$ -->
      <g style="fill:#262626;" transform="translate(259.888807 249.738125)scale(0.1 -0.1)">
       <defs>
        <path d="M 50.34375 8.453125 
L 50.34375 0 
L 3.03125 0 
Q 2.9375 3.171875 4.046875 6.109375 
Q 5.859375 10.9375 9.828125 15.625 
Q 13.8125 20.3125 21.34375 26.46875 
Q 33.015625 36.03125 37.109375 41.625 
Q 41.21875 47.21875 41.21875 52.203125 
Q 41.21875 57.421875 37.46875 61 
Q 33.734375 64.59375 27.734375 64.59375 
Q 21.390625 64.59375 17.578125 60.78125 
Q 13.765625 56.984375 13.71875 50.25 
L 4.6875 51.171875 
Q 5.609375 61.28125 11.65625 66.578125 
Q 17.71875 71.875 27.9375 71.875 
Q 38.234375 71.875 44.234375 66.15625 
Q 50.25 60.453125 50.25 52 
Q 50.25 47.703125 48.484375 43.546875 
Q 46.734375 39.40625 42.65625 34.8125 
Q 38.578125 30.21875 29.109375 22.21875 
Q 21.1875 15.578125 18.9375 13.203125 
Q 16.703125 10.84375 15.234375 8.453125 
z
" id="ArialMT-50"/>
       </defs>
       <use transform="translate(0 0.99375)" xlink:href="#ArialMT-49"/>
       <use transform="translate(55.615234 0.99375)" xlink:href="#ArialMT-48"/>
       <use transform="translate(112.972813 70.6875)scale(0.7)" xlink:href="#ArialMT-50"/>
      </g>
     </g>
    </g>
    <g id="xtick_5">
     <g id="line2d_5">
      <g>
       <use style="fill:#262626;stroke:#262626;stroke-width:0.8;" x="335.331989" xlink:href="#me7d1f0047a" y="232.425625"/>
      </g>
     </g>
     <g id="text_5">
      <!-- $\mathdefault{10^{3}}$ -->
      <g style="fill:#262626;" transform="translate(327.481989 249.738125)scale(0.1 -0.1)">
       <defs>
        <path d="M 4.203125 18.890625 
L 12.984375 20.0625 
Q 14.5 12.59375 18.140625 9.296875 
Q 21.78125 6 27 6 
Q 33.203125 6 37.46875 10.296875 
Q 41.75 14.59375 41.75 20.953125 
Q 41.75 27 37.796875 30.921875 
Q 33.84375 34.859375 27.734375 34.859375 
Q 25.25 34.859375 21.53125 33.890625 
L 22.515625 41.609375 
Q 23.390625 41.5 23.921875 41.5 
Q 29.546875 41.5 34.03125 44.421875 
Q 38.53125 47.359375 38.53125 53.46875 
Q 38.53125 58.296875 35.25 61.46875 
Q 31.984375 64.65625 26.8125 64.65625 
Q 21.6875 64.65625 18.265625 61.421875 
Q 14.84375 58.203125 13.875 51.765625 
L 5.078125 53.328125 
Q 6.6875 62.15625 12.390625 67.015625 
Q 18.109375 71.875 26.609375 71.875 
Q 32.46875 71.875 37.390625 69.359375 
Q 42.328125 66.84375 44.9375 62.5 
Q 47.5625 58.15625 47.5625 53.265625 
Q 47.5625 48.640625 45.0625 44.828125 
Q 42.578125 41.015625 37.703125 38.765625 
Q 44.046875 37.3125 47.5625 32.6875 
Q 51.078125 28.078125 51.078125 21.140625 
Q 51.078125 11.765625 44.234375 5.25 
Q 37.40625 -1.265625 26.953125 -1.265625 
Q 17.53125 -1.265625 11.296875 4.34375 
Q 5.078125 9.96875 4.203125 18.890625 
z
" id="ArialMT-51"/>
       </defs>
       <use transform="translate(0 0.99375)" xlink:href="#ArialMT-49"/>
       <use transform="translate(55.615234 0.99375)" xlink:href="#ArialMT-48"/>
       <use transform="translate(112.972813 70.6875)scale(0.7)" xlink:href="#ArialMT-51"/>
      </g>
     </g>
    </g>
    <g id="xtick_6">
     <g id="line2d_6">
      <defs>
       <path d="M 0 0 
L 0 2 
" id="m187aeffb10" style="stroke:#262626;stroke-width:0.6;"/>
      </defs>
      <g>
       <use style="fill:#262626;stroke:#262626;stroke-width:0.6;" x="54.488945" xlink:href="#m187aeffb10" y="232.425625"/>
      </g>
     </g>
    </g>
    <g id="xtick_7">
     <g id="line2d_7">
      <g>
       <use style="fill:#262626;stroke:#262626;stroke-width:0.6;" x="58.408805" xlink:href="#m187aeffb10" y="232.425625"/>
      </g>
     </g>
    </g>
    <g id="xtick_8">
     <g id="line2d_8">
      <g>
       <use style="fill:#262626;stroke:#262626;stroke-width:0.6;" x="61.866367" xlink:href="#m187aeffb10" y="232.425625"/>
      </g>
     </g>
    </g>
    <g id="xtick_9">
     <g id="line2d_9">
      <g>
       <use style="fill:#262626;stroke:#262626;stroke-width:0.6;" x="85.306837" xlink:href="#m187aeffb10" y="232.425625"/>
      </g>
     </g>
    </g>
    <g id="xtick_10">
     <g id="line2d_10">
      <g>
       <use style="fill:#262626;stroke:#262626;stroke-width:0.6;" x="97.209405" xlink:href="#m187aeffb10" y="232.425625"/>
      </g>
     </g>
    </g>
    <g id="xtick_11">
     <g id="line2d_11">
      <g>
       <use style="fill:#262626;stroke:#262626;stroke-width:0.6;" x="105.654412" xlink:href="#m187aeffb10" y="232.425625"/>
      </g>
     </g>
    </g>
    <g id="xtick_12">
     <g id="line2d_12">
      <g>
       <use style="fill:#262626;stroke:#262626;stroke-width:0.6;" x="112.204868" xlink:href="#m187aeffb10" y="232.425625"/>
      </g>
     </g>
    </g>
    <g id="xtick_13">
     <g id="line2d_13">
      <g>
       <use style="fill:#262626;stroke:#262626;stroke-width:0.6;" x="117.55698" xlink:href="#m187aeffb10" y="232.425625"/>
      </g>
     </g>
    </g>
    <g id="xtick_14">
     <g id="line2d_14">
      <g>
       <use style="fill:#262626;stroke:#262626;stroke-width:0.6;" x="122.082127" xlink:href="#m187aeffb10" y="232.425625"/>
      </g>
     </g>
    </g>
    <g id="xtick_15">
     <g id="line2d_15">
      <g>
       <use style="fill:#262626;stroke:#262626;stroke-width:0.6;" x="126.001987" xlink:href="#m187aeffb10" y="232.425625"/>
      </g>
     </g>
    </g>
    <g id="xtick_16">
     <g id="line2d_16">
      <g>
       <use style="fill:#262626;stroke:#262626;stroke-width:0.6;" x="129.459549" xlink:href="#m187aeffb10" y="232.425625"/>
      </g>
     </g>
    </g>
    <g id="xtick_17">
     <g id="line2d_17">
      <g>
       <use style="fill:#262626;stroke:#262626;stroke-width:0.6;" x="152.900018" xlink:href="#m187aeffb10" y="232.425625"/>
      </g>
     </g>
    </g>
    <g id="xtick_18">
     <g id="line2d_18">
      <g>
       <use style="fill:#262626;stroke:#262626;stroke-width:0.6;" x="164.802587" xlink:href="#m187aeffb10" y="232.425625"/>
      </g>
     </g>
    </g>
    <g id="xtick_19">
     <g id="line2d_19">
      <g>
       <use style="fill:#262626;stroke:#262626;stroke-width:0.6;" x="173.247594" xlink:href="#m187aeffb10" y="232.425625"/>
      </g>
     </g>
    </g>
    <g id="xtick_20">
     <g id="line2d_20">
      <g>
       <use style="fill:#262626;stroke:#262626;stroke-width:0.6;" x="179.79805" xlink:href="#m187aeffb10" y="232.425625"/>
      </g>
     </g>
    </g>
    <g id="xtick_21">
     <g id="line2d_21">
      <g>
       <use style="fill:#262626;stroke:#262626;stroke-width:0.6;" x="185.150162" xlink:href="#m187aeffb10" y="232.425625"/>
      </g>
     </g>
    </g>
    <g id="xtick_22">
     <g id="line2d_22">
      <g>
       <use style="fill:#262626;stroke:#262626;stroke-width:0.6;" x="189.675309" xlink:href="#m187aeffb10" y="232.425625"/>
      </g>
     </g>
    </g>
    <g id="xtick_23">
     <g id="line2d_23">
      <g>
       <use style="fill:#262626;stroke:#262626;stroke-width:0.6;" x="193.595169" xlink:href="#m187aeffb10" y="232.425625"/>
      </g>
     </g>
    </g>
    <g id="xtick_24">
     <g id="line2d_24">
      <g>
       <use style="fill:#262626;stroke:#262626;stroke-width:0.6;" x="197.052731" xlink:href="#m187aeffb10" y="232.425625"/>
      </g>
     </g>
    </g>
    <g id="xtick_25">
     <g id="line2d_25">
      <g>
       <use style="fill:#262626;stroke:#262626;stroke-width:0.6;" x="220.4932" xlink:href="#m187aeffb10" y="232.425625"/>
      </g>
     </g>
    </g>
    <g id="xtick_26">
     <g id="line2d_26">
      <g>
       <use style="fill:#262626;stroke:#262626;stroke-width:0.6;" x="232.395769" xlink:href="#m187aeffb10" y="232.425625"/>
      </g>
     </g>
    </g>
    <g id="xtick_27">
     <g id="line2d_27">
      <g>
       <use style="fill:#262626;stroke:#262626;stroke-width:0.6;" x="240.840775" xlink:href="#m187aeffb10" y="232.425625"/>
      </g>
     </g>
    </g>
    <g id="xtick_28">
     <g id="line2d_28">
      <g>
       <use style="fill:#262626;stroke:#262626;stroke-width:0.6;" x="247.391232" xlink:href="#m187aeffb10" y="232.425625"/>
      </g>
     </g>
    </g>
    <g id="xtick_29">
     <g id="line2d_29">
      <g>
       <use style="fill:#262626;stroke:#262626;stroke-width:0.6;" x="252.743344" xlink:href="#m187aeffb10" y="232.425625"/>
      </g>
     </g>
    </g>
    <g id="xtick_30">
     <g id="line2d_30">
      <g>
       <use style="fill:#262626;stroke:#262626;stroke-width:0.6;" x="257.26849" xlink:href="#m187aeffb10" y="232.425625"/>
      </g>
     </g>
    </g>
    <g id="xtick_31">
     <g id="line2d_31">
      <g>
       <use style="fill:#262626;stroke:#262626;stroke-width:0.6;" x="261.188351" xlink:href="#m187aeffb10" y="232.425625"/>
      </g>
     </g>
    </g>
    <g id="xtick_32">
     <g id="line2d_32">
      <g>
       <use style="fill:#262626;stroke:#262626;stroke-width:0.6;" x="264.645912" xlink:href="#m187aeffb10" y="232.425625"/>
      </g>
     </g>
    </g>
    <g id="xtick_33">
     <g id="line2d_33">
      <g>
       <use style="fill:#262626;stroke:#262626;stroke-width:0.6;" x="288.086382" xlink:href="#m187aeffb10" y="232.425625"/>
      </g>
     </g>
    </g>
    <g id="xtick_34">
     <g id="line2d_34">
      <g>
       <use style="fill:#262626;stroke:#262626;stroke-width:0.6;" x="299.988951" xlink:href="#m187aeffb10" y="232.425625"/>
      </g>
     </g>
    </g>
    <g id="xtick_35">
     <g id="line2d_35">
      <g>
       <use style="fill:#262626;stroke:#262626;stroke-width:0.6;" x="308.433957" xlink:href="#m187aeffb10" y="232.425625"/>
      </g>
     </g>
    </g>
    <g id="xtick_36">
     <g id="line2d_36">
      <g>
       <use style="fill:#262626;stroke:#262626;stroke-width:0.6;" x="314.984413" xlink:href="#m187aeffb10" y="232.425625"/>
      </g>
     </g>
    </g>
    <g id="xtick_37">
     <g id="line2d_37">
      <g>
       <use style="fill:#262626;stroke:#262626;stroke-width:0.6;" x="320.336526" xlink:href="#m187aeffb10" y="232.425625"/>
      </g>
     </g>
    </g>
    <g id="xtick_38">
     <g id="line2d_38">
      <g>
       <use style="fill:#262626;stroke:#262626;stroke-width:0.6;" x="324.861672" xlink:href="#m187aeffb10" y="232.425625"/>
      </g>
     </g>
    </g>
    <g id="xtick_39">
     <g id="line2d_39">
      <g>
       <use style="fill:#262626;stroke:#262626;stroke-width:0.6;" x="328.781533" xlink:href="#m187aeffb10" y="232.425625"/>
      </g>
     </g>
    </g>
    <g id="xtick_40">
     <g id="line2d_40">
      <g>
       <use style="fill:#262626;stroke:#262626;stroke-width:0.6;" x="332.239094" xlink:href="#m187aeffb10" y="232.425625"/>
      </g>
     </g>
    </g>
    <g id="text_6">
     <!-- $\lambda$ -->
     <g style="fill:#262626;" transform="translate(197.145625 262.883438)scale(0.1 -0.1)">
      <defs>
       <path d="M 36.71875 67.4375 
L 48.828125 0 
L 39.3125 0 
L 31.84375 40.4375 
L 5.125 0 
L -4.390625 0 
L 29.734375 52.4375 
L 28.03125 62.109375 
Q 26.953125 68.265625 21.734375 68.265625 
L 17.046875 68.265625 
L 18.5 75.984375 
L 24.21875 75.875 
Q 35.203125 75.734375 36.71875 67.4375 
z
" id="DejaVuSans-Oblique-955"/>
      </defs>
      <use transform="translate(0 0.015625)" xlink:href="#DejaVuSans-Oblique-955"/>
     </g>
    </g>
   </g>
   <g id="matplotlib.axis_2">
    <g id="ytick_1">
     <g id="line2d_41">
      <defs>
       <path d="M 0 0 
L -3.5 0 
" id="mc67881efa4" style="stroke:#262626;stroke-width:0.8;"/>
      </defs>
      <g>
       <use style="fill:#262626;stroke:#262626;stroke-width:0.8;" x="51.440625" xlink:href="#mc67881efa4" y="210.704903"/>
      </g>
     </g>
     <g id="text_7">
      <!-- −7.5 -->
      <g style="fill:#262626;" transform="translate(24.7 214.283809)scale(0.1 -0.1)">
       <defs>
        <path d="M 4.734375 62.203125 
L 4.734375 70.65625 
L 51.078125 70.65625 
L 51.078125 63.8125 
Q 44.234375 56.546875 37.515625 44.484375 
Q 30.8125 32.421875 27.15625 19.671875 
Q 24.515625 10.6875 23.78125 0 
L 14.75 0 
Q 14.890625 8.453125 18.0625 20.40625 
Q 21.234375 32.375 27.171875 43.484375 
Q 33.109375 54.59375 39.796875 62.203125 
z
" id="ArialMT-55"/>
        <path d="M 9.078125 0 
L 9.078125 10.015625 
L 19.09375 10.015625 
L 19.09375 0 
z
" id="ArialMT-46"/>
        <path d="M 4.15625 18.75 
L 13.375 19.53125 
Q 14.40625 12.796875 18.140625 9.390625 
Q 21.875 6 27.15625 6 
Q 33.5 6 37.890625 10.78125 
Q 42.28125 15.578125 42.28125 23.484375 
Q 42.28125 31 38.0625 35.34375 
Q 33.84375 39.703125 27 39.703125 
Q 22.75 39.703125 19.328125 37.765625 
Q 15.921875 35.84375 13.96875 32.765625 
L 5.71875 33.84375 
L 12.640625 70.609375 
L 48.25 70.609375 
L 48.25 62.203125 
L 19.671875 62.203125 
L 15.828125 42.96875 
Q 22.265625 47.46875 29.34375 47.46875 
Q 38.71875 47.46875 45.15625 40.96875 
Q 51.609375 34.46875 51.609375 24.265625 
Q 51.609375 14.546875 45.953125 7.46875 
Q 39.0625 -1.21875 27.15625 -1.21875 
Q 17.390625 -1.21875 11.203125 4.25 
Q 5.03125 9.71875 4.15625 18.75 
z
" id="ArialMT-53"/>
       </defs>
       <use xlink:href="#ArialMT-8722"/>
       <use x="58.398438" xlink:href="#ArialMT-55"/>
       <use x="114.013672" xlink:href="#ArialMT-46"/>
       <use x="141.796875" xlink:href="#ArialMT-53"/>
      </g>
     </g>
    </g>
    <g id="ytick_2">
     <g id="line2d_42">
      <g>
       <use style="fill:#262626;stroke:#262626;stroke-width:0.8;" x="51.440625" xlink:href="#mc67881efa4" y="182.660072"/>
      </g>
     </g>
     <g id="text_8">
      <!-- −5.0 -->
      <g style="fill:#262626;" transform="translate(24.7 186.238978)scale(0.1 -0.1)">
       <use xlink:href="#ArialMT-8722"/>
       <use x="58.398438" xlink:href="#ArialMT-53"/>
       <use x="114.013672" xlink:href="#ArialMT-46"/>
       <use x="141.796875" xlink:href="#ArialMT-48"/>
      </g>
     </g>
    </g>
    <g id="ytick_3">
     <g id="line2d_43">
      <g>
       <use style="fill:#262626;stroke:#262626;stroke-width:0.8;" x="51.440625" xlink:href="#mc67881efa4" y="154.615241"/>
      </g>
     </g>
     <g id="text_9">
      <!-- −2.5 -->
      <g style="fill:#262626;" transform="translate(24.7 158.194147)scale(0.1 -0.1)">
       <use xlink:href="#ArialMT-8722"/>
       <use x="58.398438" xlink:href="#ArialMT-50"/>
       <use x="114.013672" xlink:href="#ArialMT-46"/>
       <use x="141.796875" xlink:href="#ArialMT-53"/>
      </g>
     </g>
    </g>
    <g id="ytick_4">
     <g id="line2d_44">
      <g>
       <use style="fill:#262626;stroke:#262626;stroke-width:0.8;" x="51.440625" xlink:href="#mc67881efa4" y="126.57041"/>
      </g>
     </g>
     <g id="text_10">
      <!-- 0.0 -->
      <g style="fill:#262626;" transform="translate(30.540625 130.149316)scale(0.1 -0.1)">
       <use xlink:href="#ArialMT-48"/>
       <use x="55.615234" xlink:href="#ArialMT-46"/>
       <use x="83.398438" xlink:href="#ArialMT-48"/>
      </g>
     </g>
    </g>
    <g id="ytick_5">
     <g id="line2d_45">
      <g>
       <use style="fill:#262626;stroke:#262626;stroke-width:0.8;" x="51.440625" xlink:href="#mc67881efa4" y="98.525578"/>
      </g>
     </g>
     <g id="text_11">
      <!-- 2.5 -->
      <g style="fill:#262626;" transform="translate(30.540625 102.104485)scale(0.1 -0.1)">
       <use xlink:href="#ArialMT-50"/>
       <use x="55.615234" xlink:href="#ArialMT-46"/>
       <use x="83.398438" xlink:href="#ArialMT-53"/>
      </g>
     </g>
    </g>
    <g id="ytick_6">
     <g id="line2d_46">
      <g>
       <use style="fill:#262626;stroke:#262626;stroke-width:0.8;" x="51.440625" xlink:href="#mc67881efa4" y="70.480747"/>
      </g>
     </g>
     <g id="text_12">
      <!-- 5.0 -->
      <g style="fill:#262626;" transform="translate(30.540625 74.059654)scale(0.1 -0.1)">
       <use xlink:href="#ArialMT-53"/>
       <use x="55.615234" xlink:href="#ArialMT-46"/>
       <use x="83.398438" xlink:href="#ArialMT-48"/>
      </g>
     </g>
    </g>
    <g id="ytick_7">
     <g id="line2d_47">
      <g>
       <use style="fill:#262626;stroke:#262626;stroke-width:0.8;" x="51.440625" xlink:href="#mc67881efa4" y="42.435916"/>
      </g>
     </g>
     <g id="text_13">
      <!-- 7.5 -->
      <g style="fill:#262626;" transform="translate(30.540625 46.014822)scale(0.1 -0.1)">
       <use xlink:href="#ArialMT-55"/>
       <use x="55.615234" xlink:href="#ArialMT-46"/>
       <use x="83.398438" xlink:href="#ArialMT-53"/>
      </g>
     </g>
    </g>
    <g id="text_14">
     <!-- $\hat{\beta}_k$ -->
     <g style="fill:#262626;" transform="translate(18.6 132.710312)rotate(-90)scale(0.1 -0.1)">
      <defs>
       <path d="M -28.609375 79.984375 
L -21.390625 79.984375 
L -9.421875 61.625 
L -16.21875 61.625 
L -25 73.578125 
L -33.796875 61.625 
L -40.578125 61.625 
z
M -25 56 
z
" id="DejaVuSans-770"/>
       <path d="M 13.625 3.375 
L 8.9375 -20.796875 
L -0.09375 -20.796875 
L 14.5 54.34375 
Q 18.84375 76.609375 39.65625 76.609375 
Q 60.75 76.609375 57.171875 57.8125 
Q 54.734375 44.4375 45.21875 39.546875 
Q 58.015625 35.15625 55.515625 22.125 
Q 51.125 -1.078125 27.484375 -1.03125 
Q 17.140625 -0.984375 13.625 3.375 
z
M 15.921875 15.09375 
Q 19.671875 6.59375 29.296875 6.640625 
Q 43.359375 6.640625 46.34375 21.96875 
Q 49.03125 35.75 26.171875 34.671875 
L 27.78125 42.96875 
Q 45.453125 42.671875 48.53125 58.59375 
Q 50.640625 69.34375 39.203125 69.28125 
Q 26.421875 69.28125 23.484375 54.046875 
z
" id="DejaVuSans-Oblique-946"/>
       <path d="M 18.3125 75.984375 
L 27.296875 75.984375 
L 18.703125 31.6875 
L 49.515625 54.6875 
L 61.1875 54.6875 
L 26.8125 28.515625 
L 51.90625 0 
L 41.015625 0 
L 17.671875 26.703125 
L 12.5 0 
L 3.515625 0 
z
" id="DejaVuSans-Oblique-107"/>
      </defs>
      <use transform="translate(64.532715 34.015625)" xlink:href="#DejaVuSans-770"/>
      <use transform="translate(0 0.90625)" xlink:href="#DejaVuSans-Oblique-946"/>
      <use transform="translate(64.775391 -15.5)scale(0.7)" xlink:href="#DejaVuSans-Oblique-107"/>
     </g>
    </g>
   </g>
   <g id="line2d_48">
    <path clip-path="url(#pa07b1be76f)" d="M 64.959261 99.209872 
L 79.189405 77.144199 
L 93.419548 117.629717 
L 107.649692 133.110464 
L 121.879836 115.632925 
L 136.109979 117.652153 
L 150.340123 117.326833 
L 164.570266 117.50632 
L 178.80041 118.078435 
L 193.030553 119.469458 
L 207.260697 123.709837 
L 221.49084 126.57041 
L 235.720984 126.57041 
L 249.951127 126.57041 
L 264.181271 126.57041 
L 278.411414 126.57041 
L 292.641558 126.57041 
L 306.871702 126.57041 
L 321.101845 126.57041 
L 335.331989 126.57041 
" style="fill:none;stroke:#1f77b4;stroke-linecap:round;stroke-width:1.5;"/>
   </g>
   <g id="line2d_49">
    <path clip-path="url(#pa07b1be76f)" d="M 64.959261 109.676203 
L 79.189405 87.251556 
L 93.419548 127.131306 
L 107.649692 143.004681 
L 121.879836 125.53836 
L 136.109979 127.299575 
L 150.340123 126.985473 
L 164.570266 126.749897 
L 178.80041 126.660153 
L 193.030553 126.660153 
L 207.260697 126.604063 
L 221.49084 126.592846 
L 235.720984 126.57041 
L 249.951127 126.57041 
L 264.181271 126.57041 
L 278.411414 126.57041 
L 292.641558 126.57041 
L 306.871702 126.57041 
L 321.101845 126.57041 
L 335.331989 126.57041 
" style="fill:none;stroke:#aec7e8;stroke-linecap:round;stroke-width:1.5;"/>
   </g>
   <g id="line2d_50">
    <path clip-path="url(#pa07b1be76f)" d="M 64.959261 109.306012 
L 79.189405 87.094505 
L 93.419548 126.985473 
L 107.649692 142.84763 
L 121.879836 125.347655 
L 136.109979 127.131306 
L 150.340123 126.805986 
L 164.570266 126.615281 
L 178.80041 126.592846 
L 193.030553 126.604063 
L 207.260697 126.57041 
L 221.49084 126.57041 
L 235.720984 126.57041 
L 249.951127 126.57041 
L 264.181271 126.57041 
L 278.411414 126.57041 
L 292.641558 126.57041 
L 306.871702 126.57041 
L 321.101845 126.57041 
L 335.331989 126.57041 
" style="fill:none;stroke:#ff7f0e;stroke-linecap:round;stroke-width:1.5;"/>
   </g>
   <g id="line2d_51">
    <path clip-path="url(#pa07b1be76f)" d="M 64.959261 109.698639 
L 79.189405 87.262774 
L 93.419548 126.862076 
L 107.649692 143.071988 
L 121.879836 125.527142 
L 136.109979 127.243486 
L 150.340123 126.850858 
L 164.570266 126.693807 
L 178.80041 126.604063 
L 193.030553 126.57041 
L 207.260697 126.581628 
L 221.49084 126.57041 
L 235.720984 126.57041 
L 249.951127 126.57041 
L 264.181271 126.57041 
L 278.411414 126.57041 
L 292.641558 126.57041 
L 306.871702 126.57041 
L 321.101845 126.57041 
L 335.331989 126.57041 
" style="fill:none;stroke:#ffbb78;stroke-linecap:round;stroke-width:1.5;"/>
   </g>
   <g id="line2d_52">
    <path clip-path="url(#pa07b1be76f)" d="M 64.959261 138.663341 
L 79.189405 146.919739 
L 93.419548 105.289992 
L 107.649692 117.921384 
L 121.879836 119.648945 
L 136.109979 119.043177 
L 150.340123 117.214654 
L 164.570266 116.822026 
L 178.80041 116.79959 
L 193.030553 116.777155 
L 207.260697 116.934206 
L 221.49084 117.304397 
L 235.720984 117.988691 
L 249.951127 126.57041 
L 264.181271 126.57041 
L 278.411414 126.57041 
L 292.641558 126.57041 
L 306.871702 126.57041 
L 321.101845 126.57041 
L 335.331989 126.57041 
" style="fill:none;stroke:#2ca02c;stroke-linecap:round;stroke-width:1.5;"/>
   </g>
   <g id="line2d_53">
    <path clip-path="url(#pa07b1be76f)" d="M 64.959261 148.568775 
L 79.189405 156.870045 
L 93.419548 115.419785 
L 107.649692 127.8156 
L 121.879836 129.610469 
L 136.109979 128.971047 
L 150.340123 127.10887 
L 164.570266 126.637717 
L 178.80041 126.592846 
L 193.030553 126.559192 
L 207.260697 126.57041 
L 221.49084 126.57041 
L 235.720984 126.57041 
L 249.951127 126.57041 
L 264.181271 126.57041 
L 278.411414 126.57041 
L 292.641558 126.57041 
L 306.871702 126.57041 
L 321.101845 126.57041 
L 335.331989 126.57041 
" style="fill:none;stroke:#98df8a;stroke-linecap:round;stroke-width:1.5;"/>
   </g>
   <g id="line2d_54">
    <path clip-path="url(#pa07b1be76f)" d="M 64.959261 149.174544 
L 79.189405 157.229019 
L 93.419548 115.520746 
L 107.649692 128.241882 
L 121.879836 129.812392 
L 136.109979 129.386111 
L 150.340123 127.479062 
L 164.570266 126.918166 
L 178.80041 126.78355 
L 193.030553 126.592846 
L 207.260697 126.57041 
L 221.49084 126.57041 
L 235.720984 126.57041 
L 249.951127 126.57041 
L 264.181271 126.57041 
L 278.411414 126.57041 
L 292.641558 126.57041 
L 306.871702 126.57041 
L 321.101845 126.57041 
L 335.331989 126.57041 
" style="fill:none;stroke:#d62728;stroke-linecap:round;stroke-width:1.5;"/>
   </g>
   <g id="line2d_55">
    <path clip-path="url(#pa07b1be76f)" d="M 64.959261 126.57041 
L 79.189405 126.57041 
L 93.419548 126.57041 
L 107.649692 126.57041 
L 121.879836 126.57041 
L 136.109979 126.57041 
L 150.340123 126.57041 
L 164.570266 126.57041 
L 178.80041 126.57041 
L 193.030553 126.57041 
L 207.260697 126.57041 
L 221.49084 126.57041 
L 235.720984 126.57041 
L 249.951127 126.57041 
L 264.181271 126.57041 
L 278.411414 126.57041 
L 292.641558 126.57041 
L 306.871702 126.57041 
L 321.101845 126.57041 
L 335.331989 126.57041 
" style="fill:none;stroke:#ff9896;stroke-linecap:round;stroke-width:1.5;"/>
   </g>
   <g id="line2d_56">
    <path clip-path="url(#pa07b1be76f)" d="M 64.959261 102.474291 
L 79.189405 166.136058 
L 93.419548 119.469458 
L 107.649692 109.373319 
L 121.879836 127.299575 
L 136.109979 124.786758 
L 150.340123 126.155346 
L 164.570266 126.424577 
L 178.80041 126.547974 
L 193.030553 126.559192 
L 207.260697 126.547974 
L 221.49084 126.57041 
L 235.720984 126.57041 
L 249.951127 126.57041 
L 264.181271 126.57041 
L 278.411414 126.57041 
L 292.641558 126.57041 
L 306.871702 126.57041 
L 321.101845 126.57041 
L 335.331989 126.57041 
" style="fill:none;stroke:#9467bd;stroke-linecap:round;stroke-width:1.5;"/>
   </g>
   <g id="line2d_57">
    <path clip-path="url(#pa07b1be76f)" d="M 64.959261 102.373329 
L 79.189405 166.33798 
L 93.419548 119.121702 
L 107.649692 109.620114 
L 121.879836 127.176178 
L 136.109979 124.697015 
L 150.340123 126.031949 
L 164.570266 126.525538 
L 178.80041 126.503102 
L 193.030553 126.559192 
L 207.260697 126.57041 
L 221.49084 126.57041 
L 235.720984 126.57041 
L 249.951127 126.57041 
L 264.181271 126.57041 
L 278.411414 126.57041 
L 292.641558 126.57041 
L 306.871702 126.57041 
L 321.101845 126.57041 
L 335.331989 126.57041 
" style="fill:none;stroke:#c5b0d5;stroke-linecap:round;stroke-width:1.5;"/>
   </g>
   <g id="line2d_58">
    <path clip-path="url(#pa07b1be76f)" d="M 64.959261 113.995107 
L 79.189405 142.028721 
L 93.419548 31.655483 
L 107.649692 131.517518 
L 121.879836 129.453418 
L 136.109979 126.604063 
L 150.340123 126.83964 
L 164.570266 126.83964 
L 178.80041 126.78355 
L 193.030553 126.615281 
L 207.260697 126.604063 
L 221.49084 126.57041 
L 235.720984 126.57041 
L 249.951127 126.57041 
L 264.181271 126.57041 
L 278.411414 126.57041 
L 292.641558 126.57041 
L 306.871702 126.57041 
L 321.101845 126.57041 
L 335.331989 126.57041 
" style="fill:none;stroke:#8c564b;stroke-linecap:round;stroke-width:1.5;"/>
   </g>
   <g id="line2d_59">
    <path clip-path="url(#pa07b1be76f)" d="M 64.959261 73.386192 
L 79.189405 67.575303 
L 93.419548 40.40547 
L 107.649692 146.80756 
L 121.879836 125.661757 
L 136.109979 124.326823 
L 150.340123 126.110474 
L 164.570266 126.604063 
L 178.80041 126.547974 
L 193.030553 126.547974 
L 207.260697 126.592846 
L 221.49084 126.57041 
L 235.720984 126.57041 
L 249.951127 126.57041 
L 264.181271 126.57041 
L 278.411414 126.57041 
L 292.641558 126.57041 
L 306.871702 126.57041 
L 321.101845 126.57041 
L 335.331989 126.57041 
" style="fill:none;stroke:#c49c94;stroke-linecap:round;stroke-width:1.5;"/>
   </g>
   <g id="line2d_60">
    <path clip-path="url(#pa07b1be76f)" d="M 64.959261 141.961413 
L 79.189405 77.570481 
L 93.419548 124.23708 
L 107.649692 134.501488 
L 121.879836 116.406963 
L 136.109979 119.043177 
L 150.340123 117.809204 
L 164.570266 117.405359 
L 178.80041 117.192218 
L 193.030553 117.080039 
L 207.260697 117.023949 
L 221.49084 117.281962 
L 235.720984 118.022345 
L 249.951127 126.57041 
L 264.181271 126.57041 
L 278.411414 126.57041 
L 292.641558 126.57041 
L 306.871702 126.57041 
L 321.101845 126.57041 
L 335.331989 126.57041 
" style="fill:none;stroke:#e377c2;stroke-linecap:round;stroke-width:1.5;"/>
   </g>
   <g id="line2d_61">
    <path clip-path="url(#pa07b1be76f)" d="M 64.959261 158.934145 
L 79.189405 150.004671 
L 93.419548 222.865142 
L 107.649692 105.918196 
L 121.879836 126.13291 
L 136.109979 126.491884 
L 150.340123 126.974255 
L 164.570266 126.89573 
L 178.80041 126.89573 
L 193.030553 126.817204 
L 207.260697 126.592846 
L 221.49084 126.57041 
L 235.720984 126.57041 
L 249.951127 126.57041 
L 264.181271 126.57041 
L 278.411414 126.57041 
L 292.641558 126.57041 
L 306.871702 126.57041 
L 321.101845 126.57041 
L 335.331989 126.57041 
" style="fill:none;stroke:#f7b6d2;stroke-linecap:round;stroke-width:1.5;"/>
   </g>
   <g id="line2d_62">
    <path clip-path="url(#pa07b1be76f)" d="M 64.959261 126.57041 
L 79.189405 126.57041 
L 93.419548 126.57041 
L 107.649692 126.57041 
L 121.879836 126.57041 
L 136.109979 126.57041 
L 150.340123 126.57041 
L 164.570266 126.57041 
L 178.80041 126.57041 
L 193.030553 126.57041 
L 207.260697 126.57041 
L 221.49084 126.57041 
L 235.720984 126.57041 
L 249.951127 126.57041 
L 264.181271 126.57041 
L 278.411414 126.57041 
L 292.641558 126.57041 
L 306.871702 126.57041 
L 321.101845 126.57041 
L 335.331989 126.57041 
" style="fill:none;stroke:#7f7f7f;stroke-linecap:round;stroke-width:1.5;"/>
   </g>
   <g id="line2d_63"/>
   <g id="line2d_64"/>
   <g id="line2d_65"/>
   <g id="line2d_66"/>
   <g id="line2d_67"/>
   <g id="line2d_68"/>
   <g id="line2d_69"/>
   <g id="line2d_70"/>
   <g id="line2d_71"/>
   <g id="line2d_72"/>
   <g id="line2d_73"/>
   <g id="line2d_74"/>
   <g id="line2d_75"/>
   <g id="line2d_76"/>
   <g id="line2d_77"/>
   <g id="patch_3">
    <path d="M 51.440625 232.425625 
L 51.440625 22.095 
" style="fill:none;stroke:#262626;stroke-linecap:square;stroke-linejoin:miter;stroke-width:0.8;"/>
   </g>
   <g id="patch_4">
    <path d="M 348.850625 232.425625 
L 348.850625 22.095 
" style="fill:none;stroke:#262626;stroke-linecap:square;stroke-linejoin:miter;stroke-width:0.8;"/>
   </g>
   <g id="patch_5">
    <path d="M 51.440625 232.425625 
L 348.850625 232.425625 
" style="fill:none;stroke:#262626;stroke-linecap:square;stroke-linejoin:miter;stroke-width:0.8;"/>
   </g>
   <g id="patch_6">
    <path d="M 51.440625 22.095 
L 348.850625 22.095 
" style="fill:none;stroke:#262626;stroke-linecap:square;stroke-linejoin:miter;stroke-width:0.8;"/>
   </g>
   <g id="text_15">
    <!-- $\lambda_0 = \lambda_1$ -->
    <g style="fill:#262626;" transform="translate(179.985625 16.095)scale(0.12 -0.12)">
     <defs>
      <path d="M 31.78125 66.40625 
Q 24.171875 66.40625 20.328125 58.90625 
Q 16.5 51.421875 16.5 36.375 
Q 16.5 21.390625 20.328125 13.890625 
Q 24.171875 6.390625 31.78125 6.390625 
Q 39.453125 6.390625 43.28125 13.890625 
Q 47.125 21.390625 47.125 36.375 
Q 47.125 51.421875 43.28125 58.90625 
Q 39.453125 66.40625 31.78125 66.40625 
z
M 31.78125 74.21875 
Q 44.046875 74.21875 50.515625 64.515625 
Q 56.984375 54.828125 56.984375 36.375 
Q 56.984375 17.96875 50.515625 8.265625 
Q 44.046875 -1.421875 31.78125 -1.421875 
Q 19.53125 -1.421875 13.0625 8.265625 
Q 6.59375 17.96875 6.59375 36.375 
Q 6.59375 54.828125 13.0625 64.515625 
Q 19.53125 74.21875 31.78125 74.21875 
z
" id="DejaVuSans-48"/>
      <path d="M 10.59375 45.40625 
L 73.1875 45.40625 
L 73.1875 37.203125 
L 10.59375 37.203125 
z
M 10.59375 25.484375 
L 73.1875 25.484375 
L 73.1875 17.1875 
L 10.59375 17.1875 
z
" id="DejaVuSans-61"/>
      <path d="M 12.40625 8.296875 
L 28.515625 8.296875 
L 28.515625 63.921875 
L 10.984375 60.40625 
L 10.984375 69.390625 
L 28.421875 72.90625 
L 38.28125 72.90625 
L 38.28125 8.296875 
L 54.390625 8.296875 
L 54.390625 0 
L 12.40625 0 
z
" id="DejaVuSans-49"/>
     </defs>
     <use transform="translate(0 0.015625)" xlink:href="#DejaVuSans-Oblique-955"/>
     <use transform="translate(59.179688 -16.390625)scale(0.7)" xlink:href="#DejaVuSans-48"/>
     <use transform="translate(125.932617 0.015625)" xlink:href="#DejaVuSans-61"/>
     <use transform="translate(229.204102 0.015625)" xlink:href="#DejaVuSans-Oblique-955"/>
     <use transform="translate(288.383789 -16.390625)scale(0.7)" xlink:href="#DejaVuSans-49"/>
    </g>
   </g>
   <g id="legend_1">
    <g id="patch_7">
     <path d="M 365.721125 251.42 
L 408.843 251.42 
Q 410.843 251.42 410.843 249.42 
L 410.843 24.095 
Q 410.843 22.095 408.843 22.095 
L 365.721125 22.095 
Q 363.721125 22.095 363.721125 24.095 
L 363.721125 249.42 
Q 363.721125 251.42 365.721125 251.42 
z
" style="fill:#ffffff;opacity:0.8;stroke:#cccccc;stroke-linejoin:miter;"/>
    </g>
    <g id="text_16">
     <!-- k -->
     <g style="fill:#262626;" transform="translate(384.782063 33.252813)scale(0.1 -0.1)">
      <defs>
       <path d="M 6.640625 0 
L 6.640625 71.578125 
L 15.4375 71.578125 
L 15.4375 30.765625 
L 36.234375 51.859375 
L 47.609375 51.859375 
L 27.78125 32.625 
L 49.609375 0 
L 38.765625 0 
L 21.625 26.515625 
L 15.4375 20.5625 
L 15.4375 0 
z
" id="ArialMT-107"/>
      </defs>
      <use xlink:href="#ArialMT-107"/>
     </g>
    </g>
    <g id="line2d_78">
     <path d="M 367.721125 43.898125 
L 387.721125 43.898125 
" style="fill:none;stroke:#1f77b4;stroke-linecap:round;stroke-width:1.5;"/>
    </g>
    <g id="line2d_79"/>
    <g id="text_17">
     <!-- 0 -->
     <g style="fill:#262626;" transform="translate(395.721125 47.398125)scale(0.1 -0.1)">
      <use xlink:href="#ArialMT-48"/>
     </g>
    </g>
    <g id="line2d_80">
     <path d="M 367.721125 58.043438 
L 387.721125 58.043438 
" style="fill:none;stroke:#aec7e8;stroke-linecap:round;stroke-width:1.5;"/>
    </g>
    <g id="line2d_81"/>
    <g id="text_18">
     <!-- 1 -->
     <g style="fill:#262626;" transform="translate(395.721125 61.543438)scale(0.1 -0.1)">
      <use xlink:href="#ArialMT-49"/>
     </g>
    </g>
    <g id="line2d_82">
     <path d="M 367.721125 72.18875 
L 387.721125 72.18875 
" style="fill:none;stroke:#ff7f0e;stroke-linecap:round;stroke-width:1.5;"/>
    </g>
    <g id="line2d_83"/>
    <g id="text_19">
     <!-- 2 -->
     <g style="fill:#262626;" transform="translate(395.721125 75.68875)scale(0.1 -0.1)">
      <use xlink:href="#ArialMT-50"/>
     </g>
    </g>
    <g id="line2d_84">
     <path d="M 367.721125 86.334063 
L 387.721125 86.334063 
" style="fill:none;stroke:#ffbb78;stroke-linecap:round;stroke-width:1.5;"/>
    </g>
    <g id="line2d_85"/>
    <g id="text_20">
     <!-- 3 -->
     <g style="fill:#262626;" transform="translate(395.721125 89.834063)scale(0.1 -0.1)">
      <use xlink:href="#ArialMT-51"/>
     </g>
    </g>
    <g id="line2d_86">
     <path d="M 367.721125 100.479375 
L 387.721125 100.479375 
" style="fill:none;stroke:#2ca02c;stroke-linecap:round;stroke-width:1.5;"/>
    </g>
    <g id="line2d_87"/>
    <g id="text_21">
     <!-- 4 -->
     <g style="fill:#262626;" transform="translate(395.721125 103.979375)scale(0.1 -0.1)">
      <defs>
       <path d="M 32.328125 0 
L 32.328125 17.140625 
L 1.265625 17.140625 
L 1.265625 25.203125 
L 33.9375 71.578125 
L 41.109375 71.578125 
L 41.109375 25.203125 
L 50.78125 25.203125 
L 50.78125 17.140625 
L 41.109375 17.140625 
L 41.109375 0 
z
M 32.328125 25.203125 
L 32.328125 57.46875 
L 9.90625 25.203125 
z
" id="ArialMT-52"/>
      </defs>
      <use xlink:href="#ArialMT-52"/>
     </g>
    </g>
    <g id="line2d_88">
     <path d="M 367.721125 114.624688 
L 387.721125 114.624688 
" style="fill:none;stroke:#98df8a;stroke-linecap:round;stroke-width:1.5;"/>
    </g>
    <g id="line2d_89"/>
    <g id="text_22">
     <!-- 5 -->
     <g style="fill:#262626;" transform="translate(395.721125 118.124688)scale(0.1 -0.1)">
      <use xlink:href="#ArialMT-53"/>
     </g>
    </g>
    <g id="line2d_90">
     <path d="M 367.721125 128.77 
L 387.721125 128.77 
" style="fill:none;stroke:#d62728;stroke-linecap:round;stroke-width:1.5;"/>
    </g>
    <g id="line2d_91"/>
    <g id="text_23">
     <!-- 6 -->
     <g style="fill:#262626;" transform="translate(395.721125 132.27)scale(0.1 -0.1)">
      <defs>
       <path d="M 49.75 54.046875 
L 41.015625 53.375 
Q 39.84375 58.546875 37.703125 60.890625 
Q 34.125 64.65625 28.90625 64.65625 
Q 24.703125 64.65625 21.53125 62.3125 
Q 17.390625 59.28125 14.984375 53.46875 
Q 12.59375 47.65625 12.5 36.921875 
Q 15.671875 41.75 20.265625 44.09375 
Q 24.859375 46.4375 29.890625 46.4375 
Q 38.671875 46.4375 44.84375 39.96875 
Q 51.03125 33.5 51.03125 23.25 
Q 51.03125 16.5 48.125 10.71875 
Q 45.21875 4.9375 40.140625 1.859375 
Q 35.0625 -1.21875 28.609375 -1.21875 
Q 17.625 -1.21875 10.6875 6.859375 
Q 3.765625 14.9375 3.765625 33.5 
Q 3.765625 54.25 11.421875 63.671875 
Q 18.109375 71.875 29.4375 71.875 
Q 37.890625 71.875 43.28125 67.140625 
Q 48.6875 62.40625 49.75 54.046875 
z
M 13.875 23.1875 
Q 13.875 18.65625 15.796875 14.5 
Q 17.71875 10.359375 21.1875 8.171875 
Q 24.65625 6 28.46875 6 
Q 34.03125 6 38.03125 10.484375 
Q 42.046875 14.984375 42.046875 22.703125 
Q 42.046875 30.125 38.078125 34.390625 
Q 34.125 38.671875 28.125 38.671875 
Q 22.171875 38.671875 18.015625 34.390625 
Q 13.875 30.125 13.875 23.1875 
z
" id="ArialMT-54"/>
      </defs>
      <use xlink:href="#ArialMT-54"/>
     </g>
    </g>
    <g id="line2d_92">
     <path d="M 367.721125 142.915313 
L 387.721125 142.915313 
" style="fill:none;stroke:#ff9896;stroke-linecap:round;stroke-width:1.5;"/>
    </g>
    <g id="line2d_93"/>
    <g id="text_24">
     <!-- 9 -->
     <g style="fill:#262626;" transform="translate(395.721125 146.415313)scale(0.1 -0.1)">
      <defs>
       <path d="M 5.46875 16.546875 
L 13.921875 17.328125 
Q 14.984375 11.375 18.015625 8.6875 
Q 21.046875 6 25.78125 6 
Q 29.828125 6 32.875 7.859375 
Q 35.9375 9.71875 37.890625 12.8125 
Q 39.84375 15.921875 41.15625 21.1875 
Q 42.484375 26.46875 42.484375 31.9375 
Q 42.484375 32.515625 42.4375 33.6875 
Q 39.796875 29.5 35.234375 26.875 
Q 30.671875 24.265625 25.34375 24.265625 
Q 16.453125 24.265625 10.296875 30.703125 
Q 4.15625 37.15625 4.15625 47.703125 
Q 4.15625 58.59375 10.578125 65.234375 
Q 17 71.875 26.65625 71.875 
Q 33.640625 71.875 39.421875 68.109375 
Q 45.21875 64.359375 48.21875 57.390625 
Q 51.21875 50.4375 51.21875 37.25 
Q 51.21875 23.53125 48.234375 15.40625 
Q 45.265625 7.28125 39.375 3.03125 
Q 33.5 -1.21875 25.59375 -1.21875 
Q 17.1875 -1.21875 11.859375 3.4375 
Q 6.546875 8.109375 5.46875 16.546875 
z
M 41.453125 48.140625 
Q 41.453125 55.71875 37.421875 60.15625 
Q 33.40625 64.59375 27.734375 64.59375 
Q 21.875 64.59375 17.53125 59.8125 
Q 13.1875 55.03125 13.1875 47.40625 
Q 13.1875 40.578125 17.3125 36.296875 
Q 21.4375 32.03125 27.484375 32.03125 
Q 33.59375 32.03125 37.515625 36.296875 
Q 41.453125 40.578125 41.453125 48.140625 
z
" id="ArialMT-57"/>
      </defs>
      <use xlink:href="#ArialMT-57"/>
     </g>
    </g>
    <g id="line2d_94">
     <path d="M 367.721125 157.060625 
L 387.721125 157.060625 
" style="fill:none;stroke:#9467bd;stroke-linecap:round;stroke-width:1.5;"/>
    </g>
    <g id="line2d_95"/>
    <g id="text_25">
     <!-- 7 -->
     <g style="fill:#262626;" transform="translate(395.721125 160.560625)scale(0.1 -0.1)">
      <use xlink:href="#ArialMT-55"/>
     </g>
    </g>
    <g id="line2d_96">
     <path d="M 367.721125 171.205938 
L 387.721125 171.205938 
" style="fill:none;stroke:#c5b0d5;stroke-linecap:round;stroke-width:1.5;"/>
    </g>
    <g id="line2d_97"/>
    <g id="text_26">
     <!-- 8 -->
     <g style="fill:#262626;" transform="translate(395.721125 174.705938)scale(0.1 -0.1)">
      <defs>
       <path d="M 17.671875 38.8125 
Q 12.203125 40.828125 9.5625 44.53125 
Q 6.9375 48.25 6.9375 53.421875 
Q 6.9375 61.234375 12.546875 66.546875 
Q 18.171875 71.875 27.484375 71.875 
Q 36.859375 71.875 42.578125 66.421875 
Q 48.296875 60.984375 48.296875 53.171875 
Q 48.296875 48.1875 45.671875 44.5 
Q 43.0625 40.828125 37.75 38.8125 
Q 44.34375 36.671875 47.78125 31.875 
Q 51.21875 27.09375 51.21875 20.453125 
Q 51.21875 11.28125 44.71875 5.03125 
Q 38.234375 -1.21875 27.640625 -1.21875 
Q 17.046875 -1.21875 10.546875 5.046875 
Q 4.046875 11.328125 4.046875 20.703125 
Q 4.046875 27.6875 7.59375 32.390625 
Q 11.140625 37.109375 17.671875 38.8125 
z
M 15.921875 53.71875 
Q 15.921875 48.640625 19.1875 45.40625 
Q 22.46875 42.1875 27.6875 42.1875 
Q 32.765625 42.1875 36.015625 45.375 
Q 39.265625 48.578125 39.265625 53.21875 
Q 39.265625 58.0625 35.90625 61.359375 
Q 32.5625 64.65625 27.59375 64.65625 
Q 22.5625 64.65625 19.234375 61.421875 
Q 15.921875 58.203125 15.921875 53.71875 
z
M 13.09375 20.65625 
Q 13.09375 16.890625 14.875 13.375 
Q 16.65625 9.859375 20.171875 7.921875 
Q 23.6875 6 27.734375 6 
Q 34.03125 6 38.125 10.046875 
Q 42.234375 14.109375 42.234375 20.359375 
Q 42.234375 26.703125 38.015625 30.859375 
Q 33.796875 35.015625 27.4375 35.015625 
Q 21.234375 35.015625 17.15625 30.90625 
Q 13.09375 26.8125 13.09375 20.65625 
z
" id="ArialMT-56"/>
      </defs>
      <use xlink:href="#ArialMT-56"/>
     </g>
    </g>
    <g id="line2d_98">
     <path d="M 367.721125 185.35125 
L 387.721125 185.35125 
" style="fill:none;stroke:#8c564b;stroke-linecap:round;stroke-width:1.5;"/>
    </g>
    <g id="line2d_99"/>
    <g id="text_27">
     <!-- 10 -->
     <g style="fill:#262626;" transform="translate(395.721125 188.85125)scale(0.1 -0.1)">
      <use xlink:href="#ArialMT-49"/>
      <use x="55.615234" xlink:href="#ArialMT-48"/>
     </g>
    </g>
    <g id="line2d_100">
     <path d="M 367.721125 199.496563 
L 387.721125 199.496563 
" style="fill:none;stroke:#c49c94;stroke-linecap:round;stroke-width:1.5;"/>
    </g>
    <g id="line2d_101"/>
    <g id="text_28">
     <!-- 11 -->
     <g style="fill:#262626;" transform="translate(395.721125 202.996563)scale(0.1 -0.1)">
      <use xlink:href="#ArialMT-49"/>
      <use x="48.240234" xlink:href="#ArialMT-49"/>
     </g>
    </g>
    <g id="line2d_102">
     <path d="M 367.721125 213.641875 
L 387.721125 213.641875 
" style="fill:none;stroke:#e377c2;stroke-linecap:round;stroke-width:1.5;"/>
    </g>
    <g id="line2d_103"/>
    <g id="text_29">
     <!-- 12 -->
     <g style="fill:#262626;" transform="translate(395.721125 217.141875)scale(0.1 -0.1)">
      <use xlink:href="#ArialMT-49"/>
      <use x="55.615234" xlink:href="#ArialMT-50"/>
     </g>
    </g>
    <g id="line2d_104">
     <path d="M 367.721125 227.787188 
L 387.721125 227.787188 
" style="fill:none;stroke:#f7b6d2;stroke-linecap:round;stroke-width:1.5;"/>
    </g>
    <g id="line2d_105"/>
    <g id="text_30">
     <!-- 14 -->
     <g style="fill:#262626;" transform="translate(395.721125 231.287188)scale(0.1 -0.1)">
      <use xlink:href="#ArialMT-49"/>
      <use x="55.615234" xlink:href="#ArialMT-52"/>
     </g>
    </g>
    <g id="line2d_106">
     <path d="M 367.721125 241.9325 
L 387.721125 241.9325 
" style="fill:none;stroke:#7f7f7f;stroke-linecap:round;stroke-width:1.5;"/>
    </g>
    <g id="line2d_107"/>
    <g id="text_31">
     <!-- 15 -->
     <g style="fill:#262626;" transform="translate(395.721125 245.4325)scale(0.1 -0.1)">
      <use xlink:href="#ArialMT-49"/>
      <use x="55.615234" xlink:href="#ArialMT-53"/>
     </g>
    </g>
   </g>
  </g>
 </g>
 <defs>
  <clipPath id="pa07b1be76f">
   <rect height="210.330625" width="297.41" x="51.440625" y="22.095"/>
  </clipPath>
 </defs>
</svg>
