<?xml version="1.0" encoding="utf-8" standalone="no"?>
<!DOCTYPE svg PUBLIC "-//W3C//DTD SVG 1.1//EN"
  "http://www.w3.org/Graphics/SVG/1.1/DTD/svg11.dtd">
<!-- Created with matplotlib (https://matplotlib.org/) -->
<svg height="274.765313pt" version="1.1" viewBox="0 0 418.043 274.765313" width="418.043pt" xmlns="http://www.w3.org/2000/svg" xmlns:xlink="http://www.w3.org/1999/xlink">
 <metadata>
  <rdf:RDF xmlns:cc="http://creativecommons.org/ns#" xmlns:dc="http://purl.org/dc/elements/1.1/" xmlns:rdf="http://www.w3.org/1999/02/22-rdf-syntax-ns#">
   <cc:Work>
    <dc:type rdf:resource="http://purl.org/dc/dcmitype/StillImage"/>
    <dc:date>2021-08-18T13:13:26.944872</dc:date>
    <dc:format>image/svg+xml</dc:format>
    <dc:creator>
     <cc:Agent>
      <dc:title>Matplotlib v3.3.3, https://matplotlib.org/</dc:title>
     </cc:Agent>
    </dc:creator>
   </cc:Work>
  </rdf:RDF>
 </metadata>
 <defs>
  <style type="text/css">*{stroke-linecap:butt;stroke-linejoin:round;}</style>
 </defs>
 <g id="figure_1">
  <g id="patch_1">
   <path d="M 0 274.765313 
L 418.043 274.765313 
L 418.043 0 
L 0 0 
z
" style="fill:#ffffff;"/>
  </g>
  <g id="axes_1">
   <g id="patch_2">
    <path d="M 51.440625 237.72 
L 348.850625 237.72 
L 348.850625 22.32 
L 51.440625 22.32 
z
" style="fill:#ffffff;"/>
   </g>
   <g id="matplotlib.axis_1">
    <g id="xtick_1">
     <g id="line2d_1">
      <defs>
       <path d="M 0 0 
L 0 3.5 
" id="me1870c45a0" style="stroke:#262626;stroke-width:0.8;"/>
      </defs>
      <g>
       <use style="fill:#262626;stroke:#262626;stroke-width:0.8;" x="64.959261" xlink:href="#me1870c45a0" y="237.72"/>
      </g>
     </g>
     <g id="text_1">
      <!-- −10.0 -->
      <g style="fill:#262626;" transform="translate(52.30848 251.877813)scale(0.1 -0.1)">
       <defs>
        <path d="M 52.828125 31.203125 
L 5.5625 31.203125 
L 5.5625 39.40625 
L 52.828125 39.40625 
z
" id="ArialMT-8722"/>
        <path d="M 37.25 0 
L 28.46875 0 
L 28.46875 56 
Q 25.296875 52.984375 20.140625 49.953125 
Q 14.984375 46.921875 10.890625 45.40625 
L 10.890625 53.90625 
Q 18.265625 57.375 23.78125 62.296875 
Q 29.296875 67.234375 31.59375 71.875 
L 37.25 71.875 
z
" id="ArialMT-49"/>
        <path d="M 4.15625 35.296875 
Q 4.15625 48 6.765625 55.734375 
Q 9.375 63.484375 14.515625 67.671875 
Q 19.671875 71.875 27.484375 71.875 
Q 33.25 71.875 37.59375 69.546875 
Q 41.9375 67.234375 44.765625 62.859375 
Q 47.609375 58.5 49.21875 52.21875 
Q 50.828125 45.953125 50.828125 35.296875 
Q 50.828125 22.703125 48.234375 14.96875 
Q 45.65625 7.234375 40.5 3 
Q 35.359375 -1.21875 27.484375 -1.21875 
Q 17.140625 -1.21875 11.234375 6.203125 
Q 4.15625 15.140625 4.15625 35.296875 
z
M 13.1875 35.296875 
Q 13.1875 17.671875 17.3125 11.828125 
Q 21.4375 6 27.484375 6 
Q 33.546875 6 37.671875 11.859375 
Q 41.796875 17.71875 41.796875 35.296875 
Q 41.796875 52.984375 37.671875 58.78125 
Q 33.546875 64.59375 27.390625 64.59375 
Q 21.34375 64.59375 17.71875 59.46875 
Q 13.1875 52.9375 13.1875 35.296875 
z
" id="ArialMT-48"/>
        <path d="M 9.078125 0 
L 9.078125 10.015625 
L 19.09375 10.015625 
L 19.09375 0 
z
" id="ArialMT-46"/>
       </defs>
       <use xlink:href="#ArialMT-8722"/>
       <use x="58.398438" xlink:href="#ArialMT-49"/>
       <use x="114.013672" xlink:href="#ArialMT-48"/>
       <use x="169.628906" xlink:href="#ArialMT-46"/>
       <use x="197.412109" xlink:href="#ArialMT-48"/>
      </g>
     </g>
    </g>
    <g id="xtick_2">
     <g id="line2d_2">
      <g>
       <use style="fill:#262626;stroke:#262626;stroke-width:0.8;" x="98.755852" xlink:href="#me1870c45a0" y="237.72"/>
      </g>
     </g>
     <g id="text_2">
      <!-- −7.5 -->
      <g style="fill:#262626;" transform="translate(88.88554 251.877813)scale(0.1 -0.1)">
       <defs>
        <path d="M 4.734375 62.203125 
L 4.734375 70.65625 
L 51.078125 70.65625 
L 51.078125 63.8125 
Q 44.234375 56.546875 37.515625 44.484375 
Q 30.8125 32.421875 27.15625 19.671875 
Q 24.515625 10.6875 23.78125 0 
L 14.75 0 
Q 14.890625 8.453125 18.0625 20.40625 
Q 21.234375 32.375 27.171875 43.484375 
Q 33.109375 54.59375 39.796875 62.203125 
z
" id="ArialMT-55"/>
        <path d="M 4.15625 18.75 
L 13.375 19.53125 
Q 14.40625 12.796875 18.140625 9.390625 
Q 21.875 6 27.15625 6 
Q 33.5 6 37.890625 10.78125 
Q 42.28125 15.578125 42.28125 23.484375 
Q 42.28125 31 38.0625 35.34375 
Q 33.84375 39.703125 27 39.703125 
Q 22.75 39.703125 19.328125 37.765625 
Q 15.921875 35.84375 13.96875 32.765625 
L 5.71875 33.84375 
L 12.640625 70.609375 
L 48.25 70.609375 
L 48.25 62.203125 
L 19.671875 62.203125 
L 15.828125 42.96875 
Q 22.265625 47.46875 29.34375 47.46875 
Q 38.71875 47.46875 45.15625 40.96875 
Q 51.609375 34.46875 51.609375 24.265625 
Q 51.609375 14.546875 45.953125 7.46875 
Q 39.0625 -1.21875 27.15625 -1.21875 
Q 17.390625 -1.21875 11.203125 4.25 
Q 5.03125 9.71875 4.15625 18.75 
z
" id="ArialMT-53"/>
       </defs>
       <use xlink:href="#ArialMT-8722"/>
       <use x="58.398438" xlink:href="#ArialMT-55"/>
       <use x="114.013672" xlink:href="#ArialMT-46"/>
       <use x="141.796875" xlink:href="#ArialMT-53"/>
      </g>
     </g>
    </g>
    <g id="xtick_3">
     <g id="line2d_3">
      <g>
       <use style="fill:#262626;stroke:#262626;stroke-width:0.8;" x="132.552443" xlink:href="#me1870c45a0" y="237.72"/>
      </g>
     </g>
     <g id="text_3">
      <!-- −5.0 -->
      <g style="fill:#262626;" transform="translate(122.682131 251.877813)scale(0.1 -0.1)">
       <use xlink:href="#ArialMT-8722"/>
       <use x="58.398438" xlink:href="#ArialMT-53"/>
       <use x="114.013672" xlink:href="#ArialMT-46"/>
       <use x="141.796875" xlink:href="#ArialMT-48"/>
      </g>
     </g>
    </g>
    <g id="xtick_4">
     <g id="line2d_4">
      <g>
       <use style="fill:#262626;stroke:#262626;stroke-width:0.8;" x="166.349034" xlink:href="#me1870c45a0" y="237.72"/>
      </g>
     </g>
     <g id="text_4">
      <!-- −2.5 -->
      <g style="fill:#262626;" transform="translate(156.478722 251.877813)scale(0.1 -0.1)">
       <defs>
        <path d="M 50.34375 8.453125 
L 50.34375 0 
L 3.03125 0 
Q 2.9375 3.171875 4.046875 6.109375 
Q 5.859375 10.9375 9.828125 15.625 
Q 13.8125 20.3125 21.34375 26.46875 
Q 33.015625 36.03125 37.109375 41.625 
Q 41.21875 47.21875 41.21875 52.203125 
Q 41.21875 57.421875 37.46875 61 
Q 33.734375 64.59375 27.734375 64.59375 
Q 21.390625 64.59375 17.578125 60.78125 
Q 13.765625 56.984375 13.71875 50.25 
L 4.6875 51.171875 
Q 5.609375 61.28125 11.65625 66.578125 
Q 17.71875 71.875 27.9375 71.875 
Q 38.234375 71.875 44.234375 66.15625 
Q 50.25 60.453125 50.25 52 
Q 50.25 47.703125 48.484375 43.546875 
Q 46.734375 39.40625 42.65625 34.8125 
Q 38.578125 30.21875 29.109375 22.21875 
Q 21.1875 15.578125 18.9375 13.203125 
Q 16.703125 10.84375 15.234375 8.453125 
z
" id="ArialMT-50"/>
       </defs>
       <use xlink:href="#ArialMT-8722"/>
       <use x="58.398438" xlink:href="#ArialMT-50"/>
       <use x="114.013672" xlink:href="#ArialMT-46"/>
       <use x="141.796875" xlink:href="#ArialMT-53"/>
      </g>
     </g>
    </g>
    <g id="xtick_5">
     <g id="line2d_5">
      <g>
       <use style="fill:#262626;stroke:#262626;stroke-width:0.8;" x="200.145625" xlink:href="#me1870c45a0" y="237.72"/>
      </g>
     </g>
     <g id="text_5">
      <!-- 0.0 -->
      <g style="fill:#262626;" transform="translate(193.195625 251.877813)scale(0.1 -0.1)">
       <use xlink:href="#ArialMT-48"/>
       <use x="55.615234" xlink:href="#ArialMT-46"/>
       <use x="83.398438" xlink:href="#ArialMT-48"/>
      </g>
     </g>
    </g>
    <g id="xtick_6">
     <g id="line2d_6">
      <g>
       <use style="fill:#262626;stroke:#262626;stroke-width:0.8;" x="233.942216" xlink:href="#me1870c45a0" y="237.72"/>
      </g>
     </g>
     <g id="text_6">
      <!-- 2.5 -->
      <g style="fill:#262626;" transform="translate(226.992216 251.877813)scale(0.1 -0.1)">
       <use xlink:href="#ArialMT-50"/>
       <use x="55.615234" xlink:href="#ArialMT-46"/>
       <use x="83.398438" xlink:href="#ArialMT-53"/>
      </g>
     </g>
    </g>
    <g id="xtick_7">
     <g id="line2d_7">
      <g>
       <use style="fill:#262626;stroke:#262626;stroke-width:0.8;" x="267.738807" xlink:href="#me1870c45a0" y="237.72"/>
      </g>
     </g>
     <g id="text_7">
      <!-- 5.0 -->
      <g style="fill:#262626;" transform="translate(260.788807 251.877813)scale(0.1 -0.1)">
       <use xlink:href="#ArialMT-53"/>
       <use x="55.615234" xlink:href="#ArialMT-46"/>
       <use x="83.398438" xlink:href="#ArialMT-48"/>
      </g>
     </g>
    </g>
    <g id="xtick_8">
     <g id="line2d_8">
      <g>
       <use style="fill:#262626;stroke:#262626;stroke-width:0.8;" x="301.535398" xlink:href="#me1870c45a0" y="237.72"/>
      </g>
     </g>
     <g id="text_8">
      <!-- 7.5 -->
      <g style="fill:#262626;" transform="translate(294.585398 251.877813)scale(0.1 -0.1)">
       <use xlink:href="#ArialMT-55"/>
       <use x="55.615234" xlink:href="#ArialMT-46"/>
       <use x="83.398438" xlink:href="#ArialMT-53"/>
      </g>
     </g>
    </g>
    <g id="xtick_9">
     <g id="line2d_9">
      <g>
       <use style="fill:#262626;stroke:#262626;stroke-width:0.8;" x="335.331989" xlink:href="#me1870c45a0" y="237.72"/>
      </g>
     </g>
     <g id="text_9">
      <!-- 10.0 -->
      <g style="fill:#262626;" transform="translate(325.60152 251.877813)scale(0.1 -0.1)">
       <use xlink:href="#ArialMT-49"/>
       <use x="55.615234" xlink:href="#ArialMT-48"/>
       <use x="111.230469" xlink:href="#ArialMT-46"/>
       <use x="139.013672" xlink:href="#ArialMT-48"/>
      </g>
     </g>
    </g>
    <g id="text_10">
     <!-- $\phi$ -->
     <g style="fill:#262626;" transform="translate(196.845625 265.465313)scale(0.1 -0.1)">
      <defs>
       <path d="M 46.734375 75.984375 
L 42.78125 55.8125 
Q 52.546875 55.8125 57.5625 48.34375 
Q 62.75 40.71875 60.15625 27.296875 
Q 57.515625 13.875 49.359375 6.25 
Q 41.453125 -1.21875 31.6875 -1.21875 
L 27.875 -20.796875 
L 18.953125 -20.796875 
L 22.75 -1.21875 
Q 13.03125 -1.21875 7.953125 6.25 
Q 2.78125 13.875 5.421875 27.296875 
Q 8.015625 40.71875 16.15625 48.34375 
Q 24.125 55.8125 33.84375 55.8125 
L 37.796875 75.984375 
z
M 33.25 6.78125 
Q 38.765625 6.78125 43.5 11.8125 
Q 48.6875 17.4375 50.6875 27.296875 
Q 52.640625 37.0625 49.515625 42.78125 
Q 46.734375 47.796875 41.21875 47.796875 
z
M 24.3125 6.78125 
L 32.28125 47.796875 
Q 26.8125 47.796875 22.078125 42.78125 
Q 16.75 37.0625 14.890625 27.296875 
Q 13.03125 17.4375 16.0625 11.8125 
Q 18.796875 6.78125 24.3125 6.78125 
z
" id="DejaVuSans-Oblique-981"/>
      </defs>
      <use transform="translate(0 0.015625)" xlink:href="#DejaVuSans-Oblique-981"/>
     </g>
    </g>
   </g>
   <g id="matplotlib.axis_2">
    <g id="ytick_1">
     <g id="line2d_10">
      <defs>
       <path d="M 0 0 
L -3.5 0 
" id="m519f9a7e31" style="stroke:#262626;stroke-width:0.8;"/>
      </defs>
      <g>
       <use style="fill:#262626;stroke:#262626;stroke-width:0.8;" x="51.440625" xlink:href="#m519f9a7e31" y="233.904313"/>
      </g>
     </g>
     <g id="text_11">
      <!-- −0.2 -->
      <g style="fill:#262626;" transform="translate(24.7 237.483219)scale(0.1 -0.1)">
       <use xlink:href="#ArialMT-8722"/>
       <use x="58.398438" xlink:href="#ArialMT-48"/>
       <use x="114.013672" xlink:href="#ArialMT-46"/>
       <use x="141.796875" xlink:href="#ArialMT-50"/>
      </g>
     </g>
    </g>
    <g id="ytick_2">
     <g id="line2d_11">
      <g>
       <use style="fill:#262626;stroke:#262626;stroke-width:0.8;" x="51.440625" xlink:href="#m519f9a7e31" y="196.63868"/>
      </g>
     </g>
     <g id="text_12">
      <!-- 0.0 -->
      <g style="fill:#262626;" transform="translate(30.540625 200.217586)scale(0.1 -0.1)">
       <use xlink:href="#ArialMT-48"/>
       <use x="55.615234" xlink:href="#ArialMT-46"/>
       <use x="83.398438" xlink:href="#ArialMT-48"/>
      </g>
     </g>
    </g>
    <g id="ytick_3">
     <g id="line2d_12">
      <g>
       <use style="fill:#262626;stroke:#262626;stroke-width:0.8;" x="51.440625" xlink:href="#m519f9a7e31" y="159.373046"/>
      </g>
     </g>
     <g id="text_13">
      <!-- 0.2 -->
      <g style="fill:#262626;" transform="translate(30.540625 162.951953)scale(0.1 -0.1)">
       <use xlink:href="#ArialMT-48"/>
       <use x="55.615234" xlink:href="#ArialMT-46"/>
       <use x="83.398438" xlink:href="#ArialMT-50"/>
      </g>
     </g>
    </g>
    <g id="ytick_4">
     <g id="line2d_13">
      <g>
       <use style="fill:#262626;stroke:#262626;stroke-width:0.8;" x="51.440625" xlink:href="#m519f9a7e31" y="122.107413"/>
      </g>
     </g>
     <g id="text_14">
      <!-- 0.4 -->
      <g style="fill:#262626;" transform="translate(30.540625 125.68632)scale(0.1 -0.1)">
       <defs>
        <path d="M 32.328125 0 
L 32.328125 17.140625 
L 1.265625 17.140625 
L 1.265625 25.203125 
L 33.9375 71.578125 
L 41.109375 71.578125 
L 41.109375 25.203125 
L 50.78125 25.203125 
L 50.78125 17.140625 
L 41.109375 17.140625 
L 41.109375 0 
z
M 32.328125 25.203125 
L 32.328125 57.46875 
L 9.90625 25.203125 
z
" id="ArialMT-52"/>
       </defs>
       <use xlink:href="#ArialMT-48"/>
       <use x="55.615234" xlink:href="#ArialMT-46"/>
       <use x="83.398438" xlink:href="#ArialMT-52"/>
      </g>
     </g>
    </g>
    <g id="ytick_5">
     <g id="line2d_14">
      <g>
       <use style="fill:#262626;stroke:#262626;stroke-width:0.8;" x="51.440625" xlink:href="#m519f9a7e31" y="84.84178"/>
      </g>
     </g>
     <g id="text_15">
      <!-- 0.6 -->
      <g style="fill:#262626;" transform="translate(30.540625 88.420686)scale(0.1 -0.1)">
       <defs>
        <path d="M 49.75 54.046875 
L 41.015625 53.375 
Q 39.84375 58.546875 37.703125 60.890625 
Q 34.125 64.65625 28.90625 64.65625 
Q 24.703125 64.65625 21.53125 62.3125 
Q 17.390625 59.28125 14.984375 53.46875 
Q 12.59375 47.65625 12.5 36.921875 
Q 15.671875 41.75 20.265625 44.09375 
Q 24.859375 46.4375 29.890625 46.4375 
Q 38.671875 46.4375 44.84375 39.96875 
Q 51.03125 33.5 51.03125 23.25 
Q 51.03125 16.5 48.125 10.71875 
Q 45.21875 4.9375 40.140625 1.859375 
Q 35.0625 -1.21875 28.609375 -1.21875 
Q 17.625 -1.21875 10.6875 6.859375 
Q 3.765625 14.9375 3.765625 33.5 
Q 3.765625 54.25 11.421875 63.671875 
Q 18.109375 71.875 29.4375 71.875 
Q 37.890625 71.875 43.28125 67.140625 
Q 48.6875 62.40625 49.75 54.046875 
z
M 13.875 23.1875 
Q 13.875 18.65625 15.796875 14.5 
Q 17.71875 10.359375 21.1875 8.171875 
Q 24.65625 6 28.46875 6 
Q 34.03125 6 38.03125 10.484375 
Q 42.046875 14.984375 42.046875 22.703125 
Q 42.046875 30.125 38.078125 34.390625 
Q 34.125 38.671875 28.125 38.671875 
Q 22.171875 38.671875 18.015625 34.390625 
Q 13.875 30.125 13.875 23.1875 
z
" id="ArialMT-54"/>
       </defs>
       <use xlink:href="#ArialMT-48"/>
       <use x="55.615234" xlink:href="#ArialMT-46"/>
       <use x="83.398438" xlink:href="#ArialMT-54"/>
      </g>
     </g>
    </g>
    <g id="ytick_6">
     <g id="line2d_15">
      <g>
       <use style="fill:#262626;stroke:#262626;stroke-width:0.8;" x="51.440625" xlink:href="#m519f9a7e31" y="47.576147"/>
      </g>
     </g>
     <g id="text_16">
      <!-- 0.8 -->
      <g style="fill:#262626;" transform="translate(30.540625 51.155053)scale(0.1 -0.1)">
       <defs>
        <path d="M 17.671875 38.8125 
Q 12.203125 40.828125 9.5625 44.53125 
Q 6.9375 48.25 6.9375 53.421875 
Q 6.9375 61.234375 12.546875 66.546875 
Q 18.171875 71.875 27.484375 71.875 
Q 36.859375 71.875 42.578125 66.421875 
Q 48.296875 60.984375 48.296875 53.171875 
Q 48.296875 48.1875 45.671875 44.5 
Q 43.0625 40.828125 37.75 38.8125 
Q 44.34375 36.671875 47.78125 31.875 
Q 51.21875 27.09375 51.21875 20.453125 
Q 51.21875 11.28125 44.71875 5.03125 
Q 38.234375 -1.21875 27.640625 -1.21875 
Q 17.046875 -1.21875 10.546875 5.046875 
Q 4.046875 11.328125 4.046875 20.703125 
Q 4.046875 27.6875 7.59375 32.390625 
Q 11.140625 37.109375 17.671875 38.8125 
z
M 15.921875 53.71875 
Q 15.921875 48.640625 19.1875 45.40625 
Q 22.46875 42.1875 27.6875 42.1875 
Q 32.765625 42.1875 36.015625 45.375 
Q 39.265625 48.578125 39.265625 53.21875 
Q 39.265625 58.0625 35.90625 61.359375 
Q 32.5625 64.65625 27.59375 64.65625 
Q 22.5625 64.65625 19.234375 61.421875 
Q 15.921875 58.203125 15.921875 53.71875 
z
M 13.09375 20.65625 
Q 13.09375 16.890625 14.875 13.375 
Q 16.65625 9.859375 20.171875 7.921875 
Q 23.6875 6 27.734375 6 
Q 34.03125 6 38.125 10.046875 
Q 42.234375 14.109375 42.234375 20.359375 
Q 42.234375 26.703125 38.015625 30.859375 
Q 33.796875 35.015625 27.4375 35.015625 
Q 21.234375 35.015625 17.15625 30.90625 
Q 13.09375 26.8125 13.09375 20.65625 
z
" id="ArialMT-56"/>
       </defs>
       <use xlink:href="#ArialMT-48"/>
       <use x="55.615234" xlink:href="#ArialMT-46"/>
       <use x="83.398438" xlink:href="#ArialMT-56"/>
      </g>
     </g>
    </g>
    <g id="text_17">
     <!-- $\hat{\beta}_k$ -->
     <g style="fill:#262626;" transform="translate(18.6 135.47)rotate(-90)scale(0.1 -0.1)">
      <defs>
       <path d="M -28.609375 79.984375 
L -21.390625 79.984375 
L -9.421875 61.625 
L -16.21875 61.625 
L -25 73.578125 
L -33.796875 61.625 
L -40.578125 61.625 
z
M -25 56 
z
" id="DejaVuSans-770"/>
       <path d="M 13.625 3.375 
L 8.9375 -20.796875 
L -0.09375 -20.796875 
L 14.5 54.34375 
Q 18.84375 76.609375 39.65625 76.609375 
Q 60.75 76.609375 57.171875 57.8125 
Q 54.734375 44.4375 45.21875 39.546875 
Q 58.015625 35.15625 55.515625 22.125 
Q 51.125 -1.078125 27.484375 -1.03125 
Q 17.140625 -0.984375 13.625 3.375 
z
M 15.921875 15.09375 
Q 19.671875 6.59375 29.296875 6.640625 
Q 43.359375 6.640625 46.34375 21.96875 
Q 49.03125 35.75 26.171875 34.671875 
L 27.78125 42.96875 
Q 45.453125 42.671875 48.53125 58.59375 
Q 50.640625 69.34375 39.203125 69.28125 
Q 26.421875 69.28125 23.484375 54.046875 
z
" id="DejaVuSans-Oblique-946"/>
       <path d="M 18.3125 75.984375 
L 27.296875 75.984375 
L 18.703125 31.6875 
L 49.515625 54.6875 
L 61.1875 54.6875 
L 26.8125 28.515625 
L 51.90625 0 
L 41.015625 0 
L 17.671875 26.703125 
L 12.5 0 
L 3.515625 0 
z
" id="DejaVuSans-Oblique-107"/>
      </defs>
      <use transform="translate(64.532715 34.015625)" xlink:href="#DejaVuSans-770"/>
      <use transform="translate(0 0.90625)" xlink:href="#DejaVuSans-Oblique-946"/>
      <use transform="translate(64.775391 -15.5)scale(0.7)" xlink:href="#DejaVuSans-Oblique-107"/>
     </g>
    </g>
   </g>
   <g id="line2d_16">
    <path clip-path="url(#p03971558db)" d="M 64.959261 114.095302 
L 78.477898 116.890225 
L 91.996534 106.269519 
L 105.51517 103.474597 
L 119.033807 99.375377 
L 132.552443 95.089829 
L 146.07108 90.617953 
L 159.589716 86.518734 
L 173.108352 79.81092 
L 186.626989 71.239824 
L 200.145625 66.58162 
L 213.664261 61.178103 
L 227.182898 59.314821 
L 240.701534 54.842945 
L 254.22017 53.35232 
L 267.738807 50.371069 
L 281.257443 49.439429 
L 294.77608 50.371069 
L 308.294716 51.861695 
L 321.813352 52.048023 
L 335.331989 52.420679 
" style="fill:none;stroke:#1f77b4;stroke-linecap:round;stroke-width:1.5;"/>
   </g>
   <g id="line2d_17">
    <path clip-path="url(#p03971558db)" d="M 64.959261 196.825008 
L 78.477898 197.570321 
L 91.996534 197.197664 
L 105.51517 197.011336 
L 119.033807 197.197664 
L 132.552443 196.825008 
L 146.07108 197.197664 
L 159.589716 197.197664 
L 173.108352 197.756649 
L 186.626989 196.63868 
L 200.145625 198.315633 
L 213.664261 199.060946 
L 227.182898 201.483212 
L 240.701534 201.66954 
L 254.22017 204.278135 
L 267.738807 202.787509 
L 281.257443 203.346494 
L 294.77608 205.396104 
L 308.294716 209.308995 
L 321.813352 208.75001 
L 335.331989 209.308995 
" style="fill:none;stroke:#aec7e8;stroke-linecap:round;stroke-width:1.5;"/>
   </g>
   <g id="line2d_18">
    <path clip-path="url(#p03971558db)" d="M 64.959261 196.825008 
L 78.477898 196.825008 
L 91.996534 196.63868 
L 105.51517 196.63868 
L 119.033807 196.825008 
L 132.552443 196.825008 
L 146.07108 197.011336 
L 159.589716 197.197664 
L 173.108352 196.63868 
L 186.626989 196.63868 
L 200.145625 196.63868 
L 213.664261 197.197664 
L 227.182898 197.756649 
L 240.701534 198.874618 
L 254.22017 200.365243 
L 267.738807 199.992587 
L 281.257443 199.61993 
L 294.77608 201.483212 
L 308.294716 204.464463 
L 321.813352 205.76876 
L 335.331989 205.209775 
" style="fill:none;stroke:#ff7f0e;stroke-linecap:round;stroke-width:1.5;"/>
   </g>
   <g id="line2d_19">
    <path clip-path="url(#p03971558db)" d="M 64.959261 196.63868 
L 78.477898 196.63868 
L 91.996534 196.825008 
L 105.51517 196.825008 
L 119.033807 197.011336 
L 132.552443 196.825008 
L 146.07108 196.63868 
L 159.589716 196.63868 
L 173.108352 196.63868 
L 186.626989 196.63868 
L 200.145625 197.197664 
L 213.664261 198.129305 
L 227.182898 199.060946 
L 240.701534 198.874618 
L 254.22017 200.737899 
L 267.738807 199.433602 
L 281.257443 198.129305 
L 294.77608 199.433602 
L 308.294716 207.073057 
L 321.813352 207.073057 
L 335.331989 206.700401 
" style="fill:none;stroke:#ffbb78;stroke-linecap:round;stroke-width:1.5;"/>
   </g>
   <g id="line2d_20">
    <path clip-path="url(#p03971558db)" d="M 64.959261 33.415206 
L 78.477898 33.974191 
L 91.996534 34.346847 
L 105.51517 33.601534 
L 119.033807 34.346847 
L 132.552443 34.346847 
L 146.07108 33.415206 
L 159.589716 34.160519 
L 173.108352 34.719503 
L 186.626989 32.110909 
L 200.145625 34.346847 
L 213.664261 33.04255 
L 227.182898 33.974191 
L 240.701534 35.278488 
L 254.22017 35.464816 
L 267.738807 34.533175 
L 281.257443 35.651144 
L 294.77608 34.160519 
L 308.294716 38.07341 
L 321.813352 36.582785 
L 335.331989 37.700754 
" style="fill:none;stroke:#2ca02c;stroke-linecap:round;stroke-width:1.5;"/>
   </g>
   <g id="line2d_21">
    <path clip-path="url(#p03971558db)" d="M 64.959261 196.63868 
L 78.477898 196.63868 
L 91.996534 196.825008 
L 105.51517 196.63868 
L 119.033807 196.63868 
L 132.552443 196.452352 
L 146.07108 196.63868 
L 159.589716 196.63868 
L 173.108352 197.011336 
L 186.626989 196.452352 
L 200.145625 197.011336 
L 213.664261 196.63868 
L 227.182898 197.383992 
L 240.701534 197.942977 
L 254.22017 197.756649 
L 267.738807 196.825008 
L 281.257443 199.247274 
L 294.77608 199.060946 
L 308.294716 201.296884 
L 321.813352 198.315633 
L 335.331989 199.433602 
" style="fill:none;stroke:#98df8a;stroke-linecap:round;stroke-width:1.5;"/>
   </g>
   <g id="line2d_22">
    <path clip-path="url(#p03971558db)" d="M 64.959261 196.63868 
L 78.477898 196.825008 
L 91.996534 196.63868 
L 105.51517 197.011336 
L 119.033807 196.825008 
L 132.552443 196.825008 
L 146.07108 196.63868 
L 159.589716 196.63868 
L 173.108352 197.011336 
L 186.626989 197.197664 
L 200.145625 197.756649 
L 213.664261 198.315633 
L 227.182898 198.129305 
L 240.701534 201.110556 
L 254.22017 201.66954 
L 267.738807 199.060946 
L 281.257443 203.71915 
L 294.77608 200.924228 
L 308.294716 207.632041 
L 321.813352 206.141416 
L 335.331989 206.327744 
" style="fill:none;stroke:#d62728;stroke-linecap:round;stroke-width:1.5;"/>
   </g>
   <g id="line2d_23">
    <path clip-path="url(#p03971558db)" d="M 64.959261 196.63868 
L 78.477898 196.63868 
L 91.996534 196.63868 
L 105.51517 196.63868 
L 119.033807 196.63868 
L 132.552443 196.63868 
L 146.07108 196.63868 
L 159.589716 196.63868 
L 173.108352 196.63868 
L 186.626989 196.63868 
L 200.145625 196.63868 
L 213.664261 196.63868 
L 227.182898 196.63868 
L 240.701534 196.63868 
L 254.22017 196.63868 
L 267.738807 196.63868 
L 281.257443 196.63868 
L 294.77608 196.63868 
L 308.294716 196.63868 
L 321.813352 196.63868 
L 335.331989 196.63868 
" style="fill:none;stroke:#ff9896;stroke-linecap:round;stroke-width:1.5;"/>
   </g>
   <g id="line2d_24">
    <path clip-path="url(#p03971558db)" d="M 64.959261 196.452352 
L 78.477898 196.452352 
L 91.996534 196.452352 
L 105.51517 196.452352 
L 119.033807 196.63868 
L 132.552443 196.63868 
L 146.07108 196.079695 
L 159.589716 196.452352 
L 173.108352 196.452352 
L 186.626989 196.452352 
L 200.145625 196.452352 
L 213.664261 196.266023 
L 227.182898 194.961726 
L 240.701534 192.725788 
L 254.22017 185.086333 
L 267.738807 183.036724 
L 281.257443 178.378519 
L 294.77608 160.118359 
L 308.294716 45.153881 
L 321.813352 44.035912 
L 335.331989 40.495677 
" style="fill:none;stroke:#9467bd;stroke-linecap:round;stroke-width:1.5;"/>
   </g>
   <g id="line2d_25">
    <path clip-path="url(#p03971558db)" d="M 64.959261 196.63868 
L 78.477898 196.825008 
L 91.996534 196.452352 
L 105.51517 196.63868 
L 119.033807 196.452352 
L 132.552443 196.452352 
L 146.07108 196.63868 
L 159.589716 196.63868 
L 173.108352 196.63868 
L 186.626989 196.452352 
L 200.145625 196.63868 
L 213.664261 196.079695 
L 227.182898 195.148054 
L 240.701534 194.58907 
L 254.22017 188.812897 
L 267.738807 191.235163 
L 281.257443 182.477739 
L 294.77608 160.118359 
L 308.294716 51.116382 
L 321.813352 48.507788 
L 335.331989 45.526537 
" style="fill:none;stroke:#c5b0d5;stroke-linecap:round;stroke-width:1.5;"/>
   </g>
   <g id="line2d_26">
    <path clip-path="url(#p03971558db)" d="M 64.959261 197.011336 
L 78.477898 196.63868 
L 91.996534 197.383992 
L 105.51517 197.383992 
L 119.033807 197.942977 
L 132.552443 197.942977 
L 146.07108 197.011336 
L 159.589716 197.756649 
L 173.108352 199.433602 
L 186.626989 198.129305 
L 200.145625 199.992587 
L 213.664261 198.68829 
L 227.182898 198.129305 
L 240.701534 200.178915 
L 254.22017 198.874618 
L 267.738807 197.570321 
L 281.257443 197.756649 
L 294.77608 196.825008 
L 308.294716 197.011336 
L 321.813352 196.825008 
L 335.331989 196.63868 
" style="fill:none;stroke:#8c564b;stroke-linecap:round;stroke-width:1.5;"/>
   </g>
   <g id="line2d_27">
    <path clip-path="url(#p03971558db)" d="M 64.959261 196.452352 
L 78.477898 196.266023 
L 91.996534 196.452352 
L 105.51517 196.63868 
L 119.033807 196.452352 
L 132.552443 196.452352 
L 146.07108 196.63868 
L 159.589716 196.266023 
L 173.108352 196.452352 
L 186.626989 196.452352 
L 200.145625 196.63868 
L 213.664261 196.63868 
L 227.182898 197.383992 
L 240.701534 197.011336 
L 254.22017 197.570321 
L 267.738807 196.63868 
L 281.257443 196.63868 
L 294.77608 197.011336 
L 308.294716 196.452352 
L 321.813352 196.63868 
L 335.331989 196.452352 
" style="fill:none;stroke:#c49c94;stroke-linecap:round;stroke-width:1.5;"/>
   </g>
   <g id="line2d_28">
    <path clip-path="url(#p03971558db)" d="M 64.959261 49.2531 
L 78.477898 47.389819 
L 91.996534 47.762475 
L 105.51517 47.389819 
L 119.033807 45.712865 
L 132.552443 45.526537 
L 146.07108 44.22224 
L 159.589716 41.986302 
L 173.108352 40.682005 
L 186.626989 40.682005 
L 200.145625 39.377708 
L 213.664261 40.12302 
L 227.182898 40.309348 
L 240.701534 42.917943 
L 254.22017 48.694116 
L 267.738807 47.762475 
L 281.257443 54.283961 
L 294.77608 71.61248 
L 308.294716 190.862507 
L 321.813352 192.166804 
L 335.331989 195.334383 
" style="fill:none;stroke:#e377c2;stroke-linecap:round;stroke-width:1.5;"/>
   </g>
   <g id="line2d_29">
    <path clip-path="url(#p03971558db)" d="M 64.959261 213.408215 
L 78.477898 211.172277 
L 91.996534 211.544933 
L 105.51517 211.544933 
L 119.033807 209.867979 
L 132.552443 209.308995 
L 146.07108 208.004698 
L 159.589716 205.023447 
L 173.108352 202.042197 
L 186.626989 204.091806 
L 200.145625 200.365243 
L 213.664261 201.110556 
L 227.182898 197.011336 
L 240.701534 197.197664 
L 254.22017 196.63868 
L 267.738807 196.825008 
L 281.257443 196.63868 
L 294.77608 196.63868 
L 308.294716 196.63868 
L 321.813352 196.63868 
L 335.331989 196.63868 
" style="fill:none;stroke:#f7b6d2;stroke-linecap:round;stroke-width:1.5;"/>
   </g>
   <g id="line2d_30">
    <path clip-path="url(#p03971558db)" d="M 64.959261 196.63868 
L 78.477898 196.63868 
L 91.996534 196.63868 
L 105.51517 196.63868 
L 119.033807 196.63868 
L 132.552443 196.63868 
L 146.07108 196.63868 
L 159.589716 196.63868 
L 173.108352 196.63868 
L 186.626989 196.63868 
L 200.145625 196.63868 
L 213.664261 196.63868 
L 227.182898 196.63868 
L 240.701534 196.63868 
L 254.22017 196.63868 
L 267.738807 196.63868 
L 281.257443 196.63868 
L 294.77608 196.63868 
L 308.294716 196.63868 
L 321.813352 196.63868 
L 335.331989 196.63868 
" style="fill:none;stroke:#7f7f7f;stroke-linecap:round;stroke-width:1.5;"/>
   </g>
   <g id="line2d_31"/>
   <g id="line2d_32"/>
   <g id="line2d_33"/>
   <g id="line2d_34"/>
   <g id="line2d_35"/>
   <g id="line2d_36"/>
   <g id="line2d_37"/>
   <g id="line2d_38"/>
   <g id="line2d_39"/>
   <g id="line2d_40"/>
   <g id="line2d_41"/>
   <g id="line2d_42"/>
   <g id="line2d_43"/>
   <g id="line2d_44"/>
   <g id="line2d_45"/>
   <g id="line2d_46">
    <path clip-path="url(#p03971558db)" d="M 64.959261 185.4879 
L 78.477898 185.45105 
L 91.996534 185.501857 
L 105.51517 185.521116 
L 119.033807 185.414688 
L 132.552443 185.170217 
L 146.07108 185.030263 
L 159.589716 184.716022 
L 173.108352 184.310227 
L 186.626989 183.78108 
L 200.145625 183.003766 
L 213.664261 182.156004 
L 227.182898 181.082332 
L 240.701534 179.790918 
L 254.22017 178.529318 
L 267.738807 177.080805 
L 281.257443 175.181959 
L 294.77608 173.308747 
L 308.294716 170.255171 
L 321.813352 167.545741 
L 335.331989 165.348268 
" style="fill:none;stroke:#000000;stroke-dasharray:5.55,2.4;stroke-dashoffset:0;stroke-width:1.5;"/>
   </g>
   <g id="line2d_47">
    <path clip-path="url(#p03971558db)" d="M 64.959261 207.789459 
L 78.477898 207.826309 
L 91.996534 207.775503 
L 105.51517 207.756243 
L 119.033807 207.862671 
L 132.552443 208.107142 
L 146.07108 208.247096 
L 159.589716 208.561338 
L 173.108352 208.967132 
L 186.626989 209.496279 
L 200.145625 210.273593 
L 213.664261 211.121356 
L 227.182898 212.195027 
L 240.701534 213.486441 
L 254.22017 214.748041 
L 267.738807 216.196555 
L 281.257443 218.0954 
L 294.77608 219.968613 
L 308.294716 223.022189 
L 321.813352 225.731619 
L 335.331989 227.929091 
" style="fill:none;stroke:#000000;stroke-dasharray:5.55,2.4;stroke-dashoffset:0;stroke-width:1.5;"/>
   </g>
   <g id="patch_3">
    <path d="M 51.440625 237.72 
L 51.440625 22.32 
" style="fill:none;stroke:#262626;stroke-linecap:square;stroke-linejoin:miter;stroke-width:0.8;"/>
   </g>
   <g id="patch_4">
    <path d="M 348.850625 237.72 
L 348.850625 22.32 
" style="fill:none;stroke:#262626;stroke-linecap:square;stroke-linejoin:miter;stroke-width:0.8;"/>
   </g>
   <g id="patch_5">
    <path d="M 51.440625 237.72 
L 348.850625 237.72 
" style="fill:none;stroke:#262626;stroke-linecap:square;stroke-linejoin:miter;stroke-width:0.8;"/>
   </g>
   <g id="patch_6">
    <path d="M 51.440625 22.32 
L 348.850625 22.32 
" style="fill:none;stroke:#262626;stroke-linecap:square;stroke-linejoin:miter;stroke-width:0.8;"/>
   </g>
   <g id="text_18">
    <!-- $\lambda_0 = 50, \lambda_1$ adaptive -->
    <g style="fill:#262626;" transform="translate(144.885625 16.32)scale(0.12 -0.12)">
     <defs>
      <path d="M 36.71875 67.4375 
L 48.828125 0 
L 39.3125 0 
L 31.84375 40.4375 
L 5.125 0 
L -4.390625 0 
L 29.734375 52.4375 
L 28.03125 62.109375 
Q 26.953125 68.265625 21.734375 68.265625 
L 17.046875 68.265625 
L 18.5 75.984375 
L 24.21875 75.875 
Q 35.203125 75.734375 36.71875 67.4375 
z
" id="DejaVuSans-Oblique-955"/>
      <path d="M 31.78125 66.40625 
Q 24.171875 66.40625 20.328125 58.90625 
Q 16.5 51.421875 16.5 36.375 
Q 16.5 21.390625 20.328125 13.890625 
Q 24.171875 6.390625 31.78125 6.390625 
Q 39.453125 6.390625 43.28125 13.890625 
Q 47.125 21.390625 47.125 36.375 
Q 47.125 51.421875 43.28125 58.90625 
Q 39.453125 66.40625 31.78125 66.40625 
z
M 31.78125 74.21875 
Q 44.046875 74.21875 50.515625 64.515625 
Q 56.984375 54.828125 56.984375 36.375 
Q 56.984375 17.96875 50.515625 8.265625 
Q 44.046875 -1.421875 31.78125 -1.421875 
Q 19.53125 -1.421875 13.0625 8.265625 
Q 6.59375 17.96875 6.59375 36.375 
Q 6.59375 54.828125 13.0625 64.515625 
Q 19.53125 74.21875 31.78125 74.21875 
z
" id="DejaVuSans-48"/>
      <path d="M 10.59375 45.40625 
L 73.1875 45.40625 
L 73.1875 37.203125 
L 10.59375 37.203125 
z
M 10.59375 25.484375 
L 73.1875 25.484375 
L 73.1875 17.1875 
L 10.59375 17.1875 
z
" id="DejaVuSans-61"/>
      <path d="M 10.796875 72.90625 
L 49.515625 72.90625 
L 49.515625 64.59375 
L 19.828125 64.59375 
L 19.828125 46.734375 
Q 21.96875 47.46875 24.109375 47.828125 
Q 26.265625 48.1875 28.421875 48.1875 
Q 40.625 48.1875 47.75 41.5 
Q 54.890625 34.8125 54.890625 23.390625 
Q 54.890625 11.625 47.5625 5.09375 
Q 40.234375 -1.421875 26.90625 -1.421875 
Q 22.3125 -1.421875 17.546875 -0.640625 
Q 12.796875 0.140625 7.71875 1.703125 
L 7.71875 11.625 
Q 12.109375 9.234375 16.796875 8.0625 
Q 21.484375 6.890625 26.703125 6.890625 
Q 35.15625 6.890625 40.078125 11.328125 
Q 45.015625 15.765625 45.015625 23.390625 
Q 45.015625 31 40.078125 35.4375 
Q 35.15625 39.890625 26.703125 39.890625 
Q 22.75 39.890625 18.8125 39.015625 
Q 14.890625 38.140625 10.796875 36.28125 
z
" id="DejaVuSans-53"/>
      <path d="M 11.71875 12.40625 
L 22.015625 12.40625 
L 22.015625 4 
L 14.015625 -11.625 
L 7.71875 -11.625 
L 11.71875 4 
z
" id="DejaVuSans-44"/>
      <path d="M 12.40625 8.296875 
L 28.515625 8.296875 
L 28.515625 63.921875 
L 10.984375 60.40625 
L 10.984375 69.390625 
L 28.421875 72.90625 
L 38.28125 72.90625 
L 38.28125 8.296875 
L 54.390625 8.296875 
L 54.390625 0 
L 12.40625 0 
z
" id="DejaVuSans-49"/>
      <path id="ArialMT-32"/>
      <path d="M 40.4375 6.390625 
Q 35.546875 2.25 31.03125 0.53125 
Q 26.515625 -1.171875 21.34375 -1.171875 
Q 12.796875 -1.171875 8.203125 3 
Q 3.609375 7.171875 3.609375 13.671875 
Q 3.609375 17.484375 5.34375 20.625 
Q 7.078125 23.78125 9.890625 25.6875 
Q 12.703125 27.59375 16.21875 28.5625 
Q 18.796875 29.25 24.03125 29.890625 
Q 34.671875 31.15625 39.703125 32.90625 
Q 39.75 34.71875 39.75 35.203125 
Q 39.75 40.578125 37.25 42.78125 
Q 33.890625 45.75 27.25 45.75 
Q 21.046875 45.75 18.09375 43.578125 
Q 15.140625 41.40625 13.71875 35.890625 
L 5.125 37.0625 
Q 6.296875 42.578125 8.984375 45.96875 
Q 11.671875 49.359375 16.75 51.1875 
Q 21.828125 53.03125 28.515625 53.03125 
Q 35.15625 53.03125 39.296875 51.46875 
Q 43.453125 49.90625 45.40625 47.53125 
Q 47.359375 45.171875 48.140625 41.546875 
Q 48.578125 39.3125 48.578125 33.453125 
L 48.578125 21.734375 
Q 48.578125 9.46875 49.140625 6.21875 
Q 49.703125 2.984375 51.375 0 
L 42.1875 0 
Q 40.828125 2.734375 40.4375 6.390625 
z
M 39.703125 26.03125 
Q 34.90625 24.078125 25.34375 22.703125 
Q 19.921875 21.921875 17.671875 20.9375 
Q 15.4375 19.96875 14.203125 18.09375 
Q 12.984375 16.21875 12.984375 13.921875 
Q 12.984375 10.40625 15.640625 8.0625 
Q 18.3125 5.71875 23.4375 5.71875 
Q 28.515625 5.71875 32.46875 7.9375 
Q 36.421875 10.15625 38.28125 14.015625 
Q 39.703125 17 39.703125 22.796875 
z
" id="ArialMT-97"/>
      <path d="M 40.234375 0 
L 40.234375 6.546875 
Q 35.296875 -1.171875 25.734375 -1.171875 
Q 19.53125 -1.171875 14.328125 2.25 
Q 9.125 5.671875 6.265625 11.796875 
Q 3.421875 17.921875 3.421875 25.875 
Q 3.421875 33.640625 6 39.96875 
Q 8.59375 46.296875 13.765625 49.65625 
Q 18.953125 53.03125 25.34375 53.03125 
Q 30.03125 53.03125 33.6875 51.046875 
Q 37.359375 49.078125 39.65625 45.90625 
L 39.65625 71.578125 
L 48.390625 71.578125 
L 48.390625 0 
z
M 12.453125 25.875 
Q 12.453125 15.921875 16.640625 10.984375 
Q 20.84375 6.0625 26.5625 6.0625 
Q 32.328125 6.0625 36.34375 10.765625 
Q 40.375 15.484375 40.375 25.140625 
Q 40.375 35.796875 36.265625 40.765625 
Q 32.171875 45.75 26.171875 45.75 
Q 20.3125 45.75 16.375 40.96875 
Q 12.453125 36.1875 12.453125 25.875 
z
" id="ArialMT-100"/>
      <path d="M 6.59375 -19.875 
L 6.59375 51.859375 
L 14.59375 51.859375 
L 14.59375 45.125 
Q 17.4375 49.078125 21 51.046875 
Q 24.5625 53.03125 29.640625 53.03125 
Q 36.28125 53.03125 41.359375 49.609375 
Q 46.4375 46.1875 49.015625 39.953125 
Q 51.609375 33.734375 51.609375 26.3125 
Q 51.609375 18.359375 48.75 11.984375 
Q 45.90625 5.609375 40.453125 2.21875 
Q 35.015625 -1.171875 29 -1.171875 
Q 24.609375 -1.171875 21.109375 0.6875 
Q 17.625 2.546875 15.375 5.375 
L 15.375 -19.875 
z
M 14.546875 25.640625 
Q 14.546875 15.625 18.59375 10.84375 
Q 22.65625 6.0625 28.421875 6.0625 
Q 34.28125 6.0625 38.453125 11.015625 
Q 42.625 15.96875 42.625 26.375 
Q 42.625 36.28125 38.546875 41.203125 
Q 34.46875 46.140625 28.8125 46.140625 
Q 23.1875 46.140625 18.859375 40.890625 
Q 14.546875 35.640625 14.546875 25.640625 
z
" id="ArialMT-112"/>
      <path d="M 25.78125 7.859375 
L 27.046875 0.09375 
Q 23.34375 -0.6875 20.40625 -0.6875 
Q 15.625 -0.6875 12.984375 0.828125 
Q 10.359375 2.34375 9.28125 4.8125 
Q 8.203125 7.28125 8.203125 15.1875 
L 8.203125 45.015625 
L 1.765625 45.015625 
L 1.765625 51.859375 
L 8.203125 51.859375 
L 8.203125 64.703125 
L 16.9375 69.96875 
L 16.9375 51.859375 
L 25.78125 51.859375 
L 25.78125 45.015625 
L 16.9375 45.015625 
L 16.9375 14.703125 
Q 16.9375 10.9375 17.40625 9.859375 
Q 17.875 8.796875 18.921875 8.15625 
Q 19.96875 7.515625 21.921875 7.515625 
Q 23.390625 7.515625 25.78125 7.859375 
z
" id="ArialMT-116"/>
      <path d="M 6.640625 61.46875 
L 6.640625 71.578125 
L 15.4375 71.578125 
L 15.4375 61.46875 
z
M 6.640625 0 
L 6.640625 51.859375 
L 15.4375 51.859375 
L 15.4375 0 
z
" id="ArialMT-105"/>
      <path d="M 21 0 
L 1.265625 51.859375 
L 10.546875 51.859375 
L 21.6875 20.796875 
Q 23.484375 15.765625 25 10.359375 
Q 26.171875 14.453125 28.265625 20.21875 
L 39.796875 51.859375 
L 48.828125 51.859375 
L 29.203125 0 
z
" id="ArialMT-118"/>
      <path d="M 42.09375 16.703125 
L 51.171875 15.578125 
Q 49.03125 7.625 43.21875 3.21875 
Q 37.40625 -1.171875 28.375 -1.171875 
Q 17 -1.171875 10.328125 5.828125 
Q 3.65625 12.84375 3.65625 25.484375 
Q 3.65625 38.578125 10.390625 45.796875 
Q 17.140625 53.03125 27.875 53.03125 
Q 38.28125 53.03125 44.875 45.953125 
Q 51.46875 38.875 51.46875 26.03125 
Q 51.46875 25.25 51.421875 23.6875 
L 12.75 23.6875 
Q 13.234375 15.140625 17.578125 10.59375 
Q 21.921875 6.0625 28.421875 6.0625 
Q 33.25 6.0625 36.671875 8.59375 
Q 40.09375 11.140625 42.09375 16.703125 
z
M 13.234375 30.90625 
L 42.1875 30.90625 
Q 41.609375 37.453125 38.875 40.71875 
Q 34.671875 45.796875 27.984375 45.796875 
Q 21.921875 45.796875 17.796875 41.75 
Q 13.671875 37.703125 13.234375 30.90625 
z
" id="ArialMT-101"/>
     </defs>
     <use transform="translate(0 0.015625)" xlink:href="#DejaVuSans-Oblique-955"/>
     <use transform="translate(59.179688 -16.390625)scale(0.7)" xlink:href="#DejaVuSans-48"/>
     <use transform="translate(125.932617 0.015625)" xlink:href="#DejaVuSans-61"/>
     <use transform="translate(229.204102 0.015625)" xlink:href="#DejaVuSans-53"/>
     <use transform="translate(292.827148 0.015625)" xlink:href="#DejaVuSans-48"/>
     <use transform="translate(356.450195 0.015625)" xlink:href="#DejaVuSans-44"/>
     <use transform="translate(407.719727 0.015625)" xlink:href="#DejaVuSans-Oblique-955"/>
     <use transform="translate(466.899414 -16.390625)scale(0.7)" xlink:href="#DejaVuSans-49"/>
     <use transform="translate(514.169922 0.015625)" xlink:href="#ArialMT-32"/>
     <use transform="translate(541.953125 0.015625)" xlink:href="#ArialMT-97"/>
     <use transform="translate(597.568359 0.015625)" xlink:href="#ArialMT-100"/>
     <use transform="translate(653.183594 0.015625)" xlink:href="#ArialMT-97"/>
     <use transform="translate(708.798828 0.015625)" xlink:href="#ArialMT-112"/>
     <use transform="translate(764.414062 0.015625)" xlink:href="#ArialMT-116"/>
     <use transform="translate(792.197266 0.015625)" xlink:href="#ArialMT-105"/>
     <use transform="translate(814.414062 0.015625)" xlink:href="#ArialMT-118"/>
     <use transform="translate(864.414062 0.015625)" xlink:href="#ArialMT-101"/>
    </g>
   </g>
   <g id="legend_1">
    <g id="patch_7">
     <path d="M 365.721125 251.645 
L 408.843 251.645 
Q 410.843 251.645 410.843 249.645 
L 410.843 24.32 
Q 410.843 22.32 408.843 22.32 
L 365.721125 22.32 
Q 363.721125 22.32 363.721125 24.32 
L 363.721125 249.645 
Q 363.721125 251.645 365.721125 251.645 
z
" style="fill:#ffffff;opacity:0.8;stroke:#cccccc;stroke-linejoin:miter;"/>
    </g>
    <g id="text_19">
     <!-- k -->
     <g style="fill:#262626;" transform="translate(384.782063 33.477812)scale(0.1 -0.1)">
      <defs>
       <path d="M 6.640625 0 
L 6.640625 71.578125 
L 15.4375 71.578125 
L 15.4375 30.765625 
L 36.234375 51.859375 
L 47.609375 51.859375 
L 27.78125 32.625 
L 49.609375 0 
L 38.765625 0 
L 21.625 26.515625 
L 15.4375 20.5625 
L 15.4375 0 
z
" id="ArialMT-107"/>
      </defs>
      <use xlink:href="#ArialMT-107"/>
     </g>
    </g>
    <g id="line2d_48">
     <path d="M 367.721125 44.123125 
L 387.721125 44.123125 
" style="fill:none;stroke:#1f77b4;stroke-linecap:round;stroke-width:1.5;"/>
    </g>
    <g id="line2d_49"/>
    <g id="text_20">
     <!-- 0 -->
     <g style="fill:#262626;" transform="translate(395.721125 47.623125)scale(0.1 -0.1)">
      <use xlink:href="#ArialMT-48"/>
     </g>
    </g>
    <g id="line2d_50">
     <path d="M 367.721125 58.268438 
L 387.721125 58.268438 
" style="fill:none;stroke:#aec7e8;stroke-linecap:round;stroke-width:1.5;"/>
    </g>
    <g id="line2d_51"/>
    <g id="text_21">
     <!-- 1 -->
     <g style="fill:#262626;" transform="translate(395.721125 61.768438)scale(0.1 -0.1)">
      <use xlink:href="#ArialMT-49"/>
     </g>
    </g>
    <g id="line2d_52">
     <path d="M 367.721125 72.41375 
L 387.721125 72.41375 
" style="fill:none;stroke:#ff7f0e;stroke-linecap:round;stroke-width:1.5;"/>
    </g>
    <g id="line2d_53"/>
    <g id="text_22">
     <!-- 2 -->
     <g style="fill:#262626;" transform="translate(395.721125 75.91375)scale(0.1 -0.1)">
      <use xlink:href="#ArialMT-50"/>
     </g>
    </g>
    <g id="line2d_54">
     <path d="M 367.721125 86.559063 
L 387.721125 86.559063 
" style="fill:none;stroke:#ffbb78;stroke-linecap:round;stroke-width:1.5;"/>
    </g>
    <g id="line2d_55"/>
    <g id="text_23">
     <!-- 3 -->
     <g style="fill:#262626;" transform="translate(395.721125 90.059063)scale(0.1 -0.1)">
      <defs>
       <path d="M 4.203125 18.890625 
L 12.984375 20.0625 
Q 14.5 12.59375 18.140625 9.296875 
Q 21.78125 6 27 6 
Q 33.203125 6 37.46875 10.296875 
Q 41.75 14.59375 41.75 20.953125 
Q 41.75 27 37.796875 30.921875 
Q 33.84375 34.859375 27.734375 34.859375 
Q 25.25 34.859375 21.53125 33.890625 
L 22.515625 41.609375 
Q 23.390625 41.5 23.921875 41.5 
Q 29.546875 41.5 34.03125 44.421875 
Q 38.53125 47.359375 38.53125 53.46875 
Q 38.53125 58.296875 35.25 61.46875 
Q 31.984375 64.65625 26.8125 64.65625 
Q 21.6875 64.65625 18.265625 61.421875 
Q 14.84375 58.203125 13.875 51.765625 
L 5.078125 53.328125 
Q 6.6875 62.15625 12.390625 67.015625 
Q 18.109375 71.875 26.609375 71.875 
Q 32.46875 71.875 37.390625 69.359375 
Q 42.328125 66.84375 44.9375 62.5 
Q 47.5625 58.15625 47.5625 53.265625 
Q 47.5625 48.640625 45.0625 44.828125 
Q 42.578125 41.015625 37.703125 38.765625 
Q 44.046875 37.3125 47.5625 32.6875 
Q 51.078125 28.078125 51.078125 21.140625 
Q 51.078125 11.765625 44.234375 5.25 
Q 37.40625 -1.265625 26.953125 -1.265625 
Q 17.53125 -1.265625 11.296875 4.34375 
Q 5.078125 9.96875 4.203125 18.890625 
z
" id="ArialMT-51"/>
      </defs>
      <use xlink:href="#ArialMT-51"/>
     </g>
    </g>
    <g id="line2d_56">
     <path d="M 367.721125 100.704375 
L 387.721125 100.704375 
" style="fill:none;stroke:#2ca02c;stroke-linecap:round;stroke-width:1.5;"/>
    </g>
    <g id="line2d_57"/>
    <g id="text_24">
     <!-- 4 -->
     <g style="fill:#262626;" transform="translate(395.721125 104.204375)scale(0.1 -0.1)">
      <use xlink:href="#ArialMT-52"/>
     </g>
    </g>
    <g id="line2d_58">
     <path d="M 367.721125 114.849688 
L 387.721125 114.849688 
" style="fill:none;stroke:#98df8a;stroke-linecap:round;stroke-width:1.5;"/>
    </g>
    <g id="line2d_59"/>
    <g id="text_25">
     <!-- 5 -->
     <g style="fill:#262626;" transform="translate(395.721125 118.349688)scale(0.1 -0.1)">
      <use xlink:href="#ArialMT-53"/>
     </g>
    </g>
    <g id="line2d_60">
     <path d="M 367.721125 128.995 
L 387.721125 128.995 
" style="fill:none;stroke:#d62728;stroke-linecap:round;stroke-width:1.5;"/>
    </g>
    <g id="line2d_61"/>
    <g id="text_26">
     <!-- 6 -->
     <g style="fill:#262626;" transform="translate(395.721125 132.495)scale(0.1 -0.1)">
      <use xlink:href="#ArialMT-54"/>
     </g>
    </g>
    <g id="line2d_62">
     <path d="M 367.721125 143.140313 
L 387.721125 143.140313 
" style="fill:none;stroke:#ff9896;stroke-linecap:round;stroke-width:1.5;"/>
    </g>
    <g id="line2d_63"/>
    <g id="text_27">
     <!-- 9 -->
     <g style="fill:#262626;" transform="translate(395.721125 146.640313)scale(0.1 -0.1)">
      <defs>
       <path d="M 5.46875 16.546875 
L 13.921875 17.328125 
Q 14.984375 11.375 18.015625 8.6875 
Q 21.046875 6 25.78125 6 
Q 29.828125 6 32.875 7.859375 
Q 35.9375 9.71875 37.890625 12.8125 
Q 39.84375 15.921875 41.15625 21.1875 
Q 42.484375 26.46875 42.484375 31.9375 
Q 42.484375 32.515625 42.4375 33.6875 
Q 39.796875 29.5 35.234375 26.875 
Q 30.671875 24.265625 25.34375 24.265625 
Q 16.453125 24.265625 10.296875 30.703125 
Q 4.15625 37.15625 4.15625 47.703125 
Q 4.15625 58.59375 10.578125 65.234375 
Q 17 71.875 26.65625 71.875 
Q 33.640625 71.875 39.421875 68.109375 
Q 45.21875 64.359375 48.21875 57.390625 
Q 51.21875 50.4375 51.21875 37.25 
Q 51.21875 23.53125 48.234375 15.40625 
Q 45.265625 7.28125 39.375 3.03125 
Q 33.5 -1.21875 25.59375 -1.21875 
Q 17.1875 -1.21875 11.859375 3.4375 
Q 6.546875 8.109375 5.46875 16.546875 
z
M 41.453125 48.140625 
Q 41.453125 55.71875 37.421875 60.15625 
Q 33.40625 64.59375 27.734375 64.59375 
Q 21.875 64.59375 17.53125 59.8125 
Q 13.1875 55.03125 13.1875 47.40625 
Q 13.1875 40.578125 17.3125 36.296875 
Q 21.4375 32.03125 27.484375 32.03125 
Q 33.59375 32.03125 37.515625 36.296875 
Q 41.453125 40.578125 41.453125 48.140625 
z
" id="ArialMT-57"/>
      </defs>
      <use xlink:href="#ArialMT-57"/>
     </g>
    </g>
    <g id="line2d_64">
     <path d="M 367.721125 157.285625 
L 387.721125 157.285625 
" style="fill:none;stroke:#9467bd;stroke-linecap:round;stroke-width:1.5;"/>
    </g>
    <g id="line2d_65"/>
    <g id="text_28">
     <!-- 7 -->
     <g style="fill:#262626;" transform="translate(395.721125 160.785625)scale(0.1 -0.1)">
      <use xlink:href="#ArialMT-55"/>
     </g>
    </g>
    <g id="line2d_66">
     <path d="M 367.721125 171.430938 
L 387.721125 171.430938 
" style="fill:none;stroke:#c5b0d5;stroke-linecap:round;stroke-width:1.5;"/>
    </g>
    <g id="line2d_67"/>
    <g id="text_29">
     <!-- 8 -->
     <g style="fill:#262626;" transform="translate(395.721125 174.930938)scale(0.1 -0.1)">
      <use xlink:href="#ArialMT-56"/>
     </g>
    </g>
    <g id="line2d_68">
     <path d="M 367.721125 185.57625 
L 387.721125 185.57625 
" style="fill:none;stroke:#8c564b;stroke-linecap:round;stroke-width:1.5;"/>
    </g>
    <g id="line2d_69"/>
    <g id="text_30">
     <!-- 10 -->
     <g style="fill:#262626;" transform="translate(395.721125 189.07625)scale(0.1 -0.1)">
      <use xlink:href="#ArialMT-49"/>
      <use x="55.615234" xlink:href="#ArialMT-48"/>
     </g>
    </g>
    <g id="line2d_70">
     <path d="M 367.721125 199.721563 
L 387.721125 199.721563 
" style="fill:none;stroke:#c49c94;stroke-linecap:round;stroke-width:1.5;"/>
    </g>
    <g id="line2d_71"/>
    <g id="text_31">
     <!-- 11 -->
     <g style="fill:#262626;" transform="translate(395.721125 203.221563)scale(0.1 -0.1)">
      <use xlink:href="#ArialMT-49"/>
      <use x="48.240234" xlink:href="#ArialMT-49"/>
     </g>
    </g>
    <g id="line2d_72">
     <path d="M 367.721125 213.866875 
L 387.721125 213.866875 
" style="fill:none;stroke:#e377c2;stroke-linecap:round;stroke-width:1.5;"/>
    </g>
    <g id="line2d_73"/>
    <g id="text_32">
     <!-- 12 -->
     <g style="fill:#262626;" transform="translate(395.721125 217.366875)scale(0.1 -0.1)">
      <use xlink:href="#ArialMT-49"/>
      <use x="55.615234" xlink:href="#ArialMT-50"/>
     </g>
    </g>
    <g id="line2d_74">
     <path d="M 367.721125 228.012187 
L 387.721125 228.012187 
" style="fill:none;stroke:#f7b6d2;stroke-linecap:round;stroke-width:1.5;"/>
    </g>
    <g id="line2d_75"/>
    <g id="text_33">
     <!-- 14 -->
     <g style="fill:#262626;" transform="translate(395.721125 231.512187)scale(0.1 -0.1)">
      <use xlink:href="#ArialMT-49"/>
      <use x="55.615234" xlink:href="#ArialMT-52"/>
     </g>
    </g>
    <g id="line2d_76">
     <path d="M 367.721125 242.1575 
L 387.721125 242.1575 
" style="fill:none;stroke:#7f7f7f;stroke-linecap:round;stroke-width:1.5;"/>
    </g>
    <g id="line2d_77"/>
    <g id="text_34">
     <!-- 15 -->
     <g style="fill:#262626;" transform="translate(395.721125 245.6575)scale(0.1 -0.1)">
      <use xlink:href="#ArialMT-49"/>
      <use x="55.615234" xlink:href="#ArialMT-53"/>
     </g>
    </g>
   </g>
  </g>
 </g>
 <defs>
  <clipPath id="p03971558db">
   <rect height="215.4" width="297.41" x="51.440625" y="22.32"/>
  </clipPath>
 </defs>
</svg>
