<?xml version="1.0" encoding="utf-8" standalone="no"?>
<!DOCTYPE svg PUBLIC "-//W3C//DTD SVG 1.1//EN"
  "http://www.w3.org/Graphics/SVG/1.1/DTD/svg11.dtd">
<!-- Created with matplotlib (https://matplotlib.org/) -->
<svg height="274.340313pt" version="1.1" viewBox="0 0 418.043 274.340313" width="418.043pt" xmlns="http://www.w3.org/2000/svg" xmlns:xlink="http://www.w3.org/1999/xlink">
 <metadata>
  <rdf:RDF xmlns:cc="http://creativecommons.org/ns#" xmlns:dc="http://purl.org/dc/elements/1.1/" xmlns:rdf="http://www.w3.org/1999/02/22-rdf-syntax-ns#">
   <cc:Work>
    <dc:type rdf:resource="http://purl.org/dc/dcmitype/StillImage"/>
    <dc:date>2021-08-16T17:53:01.223255</dc:date>
    <dc:format>image/svg+xml</dc:format>
    <dc:creator>
     <cc:Agent>
      <dc:title>Matplotlib v3.3.3, https://matplotlib.org/</dc:title>
     </cc:Agent>
    </dc:creator>
   </cc:Work>
  </rdf:RDF>
 </metadata>
 <defs>
  <style type="text/css">*{stroke-linecap:butt;stroke-linejoin:round;}</style>
 </defs>
 <g id="figure_1">
  <g id="patch_1">
   <path d="M 0 274.340313 
L 418.043 274.340313 
L 418.043 0 
L 0 0 
z
" style="fill:#ffffff;"/>
  </g>
  <g id="axes_1">
   <g id="patch_2">
    <path d="M 51.440625 237.695 
L 348.850625 237.695 
L 348.850625 22.095 
L 51.440625 22.095 
z
" style="fill:#ffffff;"/>
   </g>
   <g id="matplotlib.axis_1">
    <g id="xtick_1">
     <g id="line2d_1">
      <defs>
       <path d="M 0 0 
L 0 3.5 
" id="m0dd1e7097e" style="stroke:#262626;stroke-width:0.8;"/>
      </defs>
      <g>
       <use style="fill:#262626;stroke:#262626;stroke-width:0.8;" x="64.676504" xlink:href="#m0dd1e7097e" y="237.695"/>
      </g>
     </g>
     <g id="text_1">
      <!-- 0 -->
      <g style="fill:#262626;" transform="translate(61.896035 251.852813)scale(0.1 -0.1)">
       <defs>
        <path d="M 4.15625 35.296875 
Q 4.15625 48 6.765625 55.734375 
Q 9.375 63.484375 14.515625 67.671875 
Q 19.671875 71.875 27.484375 71.875 
Q 33.25 71.875 37.59375 69.546875 
Q 41.9375 67.234375 44.765625 62.859375 
Q 47.609375 58.5 49.21875 52.21875 
Q 50.828125 45.953125 50.828125 35.296875 
Q 50.828125 22.703125 48.234375 14.96875 
Q 45.65625 7.234375 40.5 3 
Q 35.359375 -1.21875 27.484375 -1.21875 
Q 17.140625 -1.21875 11.234375 6.203125 
Q 4.15625 15.140625 4.15625 35.296875 
z
M 13.1875 35.296875 
Q 13.1875 17.671875 17.3125 11.828125 
Q 21.4375 6 27.484375 6 
Q 33.546875 6 37.671875 11.859375 
Q 41.796875 17.71875 41.796875 35.296875 
Q 41.796875 52.984375 37.671875 58.78125 
Q 33.546875 64.59375 27.390625 64.59375 
Q 21.34375 64.59375 17.71875 59.46875 
Q 13.1875 52.9375 13.1875 35.296875 
z
" id="ArialMT-48"/>
       </defs>
       <use xlink:href="#ArialMT-48"/>
      </g>
     </g>
    </g>
    <g id="xtick_2">
     <g id="line2d_2">
      <g>
       <use style="fill:#262626;stroke:#262626;stroke-width:0.8;" x="121.228005" xlink:href="#m0dd1e7097e" y="237.695"/>
      </g>
     </g>
     <g id="text_2">
      <!-- 10 -->
      <g style="fill:#262626;" transform="translate(115.667068 251.852813)scale(0.1 -0.1)">
       <defs>
        <path d="M 37.25 0 
L 28.46875 0 
L 28.46875 56 
Q 25.296875 52.984375 20.140625 49.953125 
Q 14.984375 46.921875 10.890625 45.40625 
L 10.890625 53.90625 
Q 18.265625 57.375 23.78125 62.296875 
Q 29.296875 67.234375 31.59375 71.875 
L 37.25 71.875 
z
" id="ArialMT-49"/>
       </defs>
       <use xlink:href="#ArialMT-49"/>
       <use x="55.615234" xlink:href="#ArialMT-48"/>
      </g>
     </g>
    </g>
    <g id="xtick_3">
     <g id="line2d_3">
      <g>
       <use style="fill:#262626;stroke:#262626;stroke-width:0.8;" x="177.779506" xlink:href="#m0dd1e7097e" y="237.695"/>
      </g>
     </g>
     <g id="text_3">
      <!-- 20 -->
      <g style="fill:#262626;" transform="translate(172.218569 251.852813)scale(0.1 -0.1)">
       <defs>
        <path d="M 50.34375 8.453125 
L 50.34375 0 
L 3.03125 0 
Q 2.9375 3.171875 4.046875 6.109375 
Q 5.859375 10.9375 9.828125 15.625 
Q 13.8125 20.3125 21.34375 26.46875 
Q 33.015625 36.03125 37.109375 41.625 
Q 41.21875 47.21875 41.21875 52.203125 
Q 41.21875 57.421875 37.46875 61 
Q 33.734375 64.59375 27.734375 64.59375 
Q 21.390625 64.59375 17.578125 60.78125 
Q 13.765625 56.984375 13.71875 50.25 
L 4.6875 51.171875 
Q 5.609375 61.28125 11.65625 66.578125 
Q 17.71875 71.875 27.9375 71.875 
Q 38.234375 71.875 44.234375 66.15625 
Q 50.25 60.453125 50.25 52 
Q 50.25 47.703125 48.484375 43.546875 
Q 46.734375 39.40625 42.65625 34.8125 
Q 38.578125 30.21875 29.109375 22.21875 
Q 21.1875 15.578125 18.9375 13.203125 
Q 16.703125 10.84375 15.234375 8.453125 
z
" id="ArialMT-50"/>
       </defs>
       <use xlink:href="#ArialMT-50"/>
       <use x="55.615234" xlink:href="#ArialMT-48"/>
      </g>
     </g>
    </g>
    <g id="xtick_4">
     <g id="line2d_4">
      <g>
       <use style="fill:#262626;stroke:#262626;stroke-width:0.8;" x="234.331007" xlink:href="#m0dd1e7097e" y="237.695"/>
      </g>
     </g>
     <g id="text_4">
      <!-- 30 -->
      <g style="fill:#262626;" transform="translate(228.77007 251.852813)scale(0.1 -0.1)">
       <defs>
        <path d="M 4.203125 18.890625 
L 12.984375 20.0625 
Q 14.5 12.59375 18.140625 9.296875 
Q 21.78125 6 27 6 
Q 33.203125 6 37.46875 10.296875 
Q 41.75 14.59375 41.75 20.953125 
Q 41.75 27 37.796875 30.921875 
Q 33.84375 34.859375 27.734375 34.859375 
Q 25.25 34.859375 21.53125 33.890625 
L 22.515625 41.609375 
Q 23.390625 41.5 23.921875 41.5 
Q 29.546875 41.5 34.03125 44.421875 
Q 38.53125 47.359375 38.53125 53.46875 
Q 38.53125 58.296875 35.25 61.46875 
Q 31.984375 64.65625 26.8125 64.65625 
Q 21.6875 64.65625 18.265625 61.421875 
Q 14.84375 58.203125 13.875 51.765625 
L 5.078125 53.328125 
Q 6.6875 62.15625 12.390625 67.015625 
Q 18.109375 71.875 26.609375 71.875 
Q 32.46875 71.875 37.390625 69.359375 
Q 42.328125 66.84375 44.9375 62.5 
Q 47.5625 58.15625 47.5625 53.265625 
Q 47.5625 48.640625 45.0625 44.828125 
Q 42.578125 41.015625 37.703125 38.765625 
Q 44.046875 37.3125 47.5625 32.6875 
Q 51.078125 28.078125 51.078125 21.140625 
Q 51.078125 11.765625 44.234375 5.25 
Q 37.40625 -1.265625 26.953125 -1.265625 
Q 17.53125 -1.265625 11.296875 4.34375 
Q 5.078125 9.96875 4.203125 18.890625 
z
" id="ArialMT-51"/>
       </defs>
       <use xlink:href="#ArialMT-51"/>
       <use x="55.615234" xlink:href="#ArialMT-48"/>
      </g>
     </g>
    </g>
    <g id="xtick_5">
     <g id="line2d_5">
      <g>
       <use style="fill:#262626;stroke:#262626;stroke-width:0.8;" x="290.882509" xlink:href="#m0dd1e7097e" y="237.695"/>
      </g>
     </g>
     <g id="text_5">
      <!-- 40 -->
      <g style="fill:#262626;" transform="translate(285.321571 251.852813)scale(0.1 -0.1)">
       <defs>
        <path d="M 32.328125 0 
L 32.328125 17.140625 
L 1.265625 17.140625 
L 1.265625 25.203125 
L 33.9375 71.578125 
L 41.109375 71.578125 
L 41.109375 25.203125 
L 50.78125 25.203125 
L 50.78125 17.140625 
L 41.109375 17.140625 
L 41.109375 0 
z
M 32.328125 25.203125 
L 32.328125 57.46875 
L 9.90625 25.203125 
z
" id="ArialMT-52"/>
       </defs>
       <use xlink:href="#ArialMT-52"/>
       <use x="55.615234" xlink:href="#ArialMT-48"/>
      </g>
     </g>
    </g>
    <g id="xtick_6">
     <g id="line2d_6">
      <g>
       <use style="fill:#262626;stroke:#262626;stroke-width:0.8;" x="347.43401" xlink:href="#m0dd1e7097e" y="237.695"/>
      </g>
     </g>
     <g id="text_6">
      <!-- 50 -->
      <g style="fill:#262626;" transform="translate(341.873072 251.852813)scale(0.1 -0.1)">
       <defs>
        <path d="M 4.15625 18.75 
L 13.375 19.53125 
Q 14.40625 12.796875 18.140625 9.390625 
Q 21.875 6 27.15625 6 
Q 33.5 6 37.890625 10.78125 
Q 42.28125 15.578125 42.28125 23.484375 
Q 42.28125 31 38.0625 35.34375 
Q 33.84375 39.703125 27 39.703125 
Q 22.75 39.703125 19.328125 37.765625 
Q 15.921875 35.84375 13.96875 32.765625 
L 5.71875 33.84375 
L 12.640625 70.609375 
L 48.25 70.609375 
L 48.25 62.203125 
L 19.671875 62.203125 
L 15.828125 42.96875 
Q 22.265625 47.46875 29.34375 47.46875 
Q 38.71875 47.46875 45.15625 40.96875 
Q 51.609375 34.46875 51.609375 24.265625 
Q 51.609375 14.546875 45.953125 7.46875 
Q 39.0625 -1.21875 27.15625 -1.21875 
Q 17.390625 -1.21875 11.203125 4.25 
Q 5.03125 9.71875 4.15625 18.75 
z
" id="ArialMT-53"/>
       </defs>
       <use xlink:href="#ArialMT-53"/>
       <use x="55.615234" xlink:href="#ArialMT-48"/>
      </g>
     </g>
    </g>
    <g id="text_7">
     <!-- $\lambda_1$ -->
     <g style="fill:#262626;" transform="translate(194.795625 265.152813)scale(0.1 -0.1)">
      <defs>
       <path d="M 36.71875 67.4375 
L 48.828125 0 
L 39.3125 0 
L 31.84375 40.4375 
L 5.125 0 
L -4.390625 0 
L 29.734375 52.4375 
L 28.03125 62.109375 
Q 26.953125 68.265625 21.734375 68.265625 
L 17.046875 68.265625 
L 18.5 75.984375 
L 24.21875 75.875 
Q 35.203125 75.734375 36.71875 67.4375 
z
" id="DejaVuSans-Oblique-955"/>
       <path d="M 12.40625 8.296875 
L 28.515625 8.296875 
L 28.515625 63.921875 
L 10.984375 60.40625 
L 10.984375 69.390625 
L 28.421875 72.90625 
L 38.28125 72.90625 
L 38.28125 8.296875 
L 54.390625 8.296875 
L 54.390625 0 
L 12.40625 0 
z
" id="DejaVuSans-49"/>
      </defs>
      <use transform="translate(0 0.015625)" xlink:href="#DejaVuSans-Oblique-955"/>
      <use transform="translate(59.179688 -16.390625)scale(0.7)" xlink:href="#DejaVuSans-49"/>
     </g>
    </g>
   </g>
   <g id="matplotlib.axis_2">
    <g id="ytick_1">
     <g id="line2d_7">
      <defs>
       <path d="M 0 0 
L -3.5 0 
" id="ma4b4a9873a" style="stroke:#262626;stroke-width:0.8;"/>
      </defs>
      <g>
       <use style="fill:#262626;stroke:#262626;stroke-width:0.8;" x="51.440625" xlink:href="#ma4b4a9873a" y="234.318661"/>
      </g>
     </g>
     <g id="text_8">
      <!-- −0.4 -->
      <g style="fill:#262626;" transform="translate(24.7 237.897567)scale(0.1 -0.1)">
       <defs>
        <path d="M 52.828125 31.203125 
L 5.5625 31.203125 
L 5.5625 39.40625 
L 52.828125 39.40625 
z
" id="ArialMT-8722"/>
        <path d="M 9.078125 0 
L 9.078125 10.015625 
L 19.09375 10.015625 
L 19.09375 0 
z
" id="ArialMT-46"/>
       </defs>
       <use xlink:href="#ArialMT-8722"/>
       <use x="58.398438" xlink:href="#ArialMT-48"/>
       <use x="114.013672" xlink:href="#ArialMT-46"/>
       <use x="141.796875" xlink:href="#ArialMT-52"/>
      </g>
     </g>
    </g>
    <g id="ytick_2">
     <g id="line2d_8">
      <g>
       <use style="fill:#262626;stroke:#262626;stroke-width:0.8;" x="51.440625" xlink:href="#ma4b4a9873a" y="202.983729"/>
      </g>
     </g>
     <g id="text_9">
      <!-- −0.2 -->
      <g style="fill:#262626;" transform="translate(24.7 206.562635)scale(0.1 -0.1)">
       <use xlink:href="#ArialMT-8722"/>
       <use x="58.398438" xlink:href="#ArialMT-48"/>
       <use x="114.013672" xlink:href="#ArialMT-46"/>
       <use x="141.796875" xlink:href="#ArialMT-50"/>
      </g>
     </g>
    </g>
    <g id="ytick_3">
     <g id="line2d_9">
      <g>
       <use style="fill:#262626;stroke:#262626;stroke-width:0.8;" x="51.440625" xlink:href="#ma4b4a9873a" y="171.648797"/>
      </g>
     </g>
     <g id="text_10">
      <!-- 0.0 -->
      <g style="fill:#262626;" transform="translate(30.540625 175.227703)scale(0.1 -0.1)">
       <use xlink:href="#ArialMT-48"/>
       <use x="55.615234" xlink:href="#ArialMT-46"/>
       <use x="83.398438" xlink:href="#ArialMT-48"/>
      </g>
     </g>
    </g>
    <g id="ytick_4">
     <g id="line2d_10">
      <g>
       <use style="fill:#262626;stroke:#262626;stroke-width:0.8;" x="51.440625" xlink:href="#ma4b4a9873a" y="140.313865"/>
      </g>
     </g>
     <g id="text_11">
      <!-- 0.2 -->
      <g style="fill:#262626;" transform="translate(30.540625 143.892771)scale(0.1 -0.1)">
       <use xlink:href="#ArialMT-48"/>
       <use x="55.615234" xlink:href="#ArialMT-46"/>
       <use x="83.398438" xlink:href="#ArialMT-50"/>
      </g>
     </g>
    </g>
    <g id="ytick_5">
     <g id="line2d_11">
      <g>
       <use style="fill:#262626;stroke:#262626;stroke-width:0.8;" x="51.440625" xlink:href="#ma4b4a9873a" y="108.978933"/>
      </g>
     </g>
     <g id="text_12">
      <!-- 0.4 -->
      <g style="fill:#262626;" transform="translate(30.540625 112.557839)scale(0.1 -0.1)">
       <use xlink:href="#ArialMT-48"/>
       <use x="55.615234" xlink:href="#ArialMT-46"/>
       <use x="83.398438" xlink:href="#ArialMT-52"/>
      </g>
     </g>
    </g>
    <g id="ytick_6">
     <g id="line2d_12">
      <g>
       <use style="fill:#262626;stroke:#262626;stroke-width:0.8;" x="51.440625" xlink:href="#ma4b4a9873a" y="77.644001"/>
      </g>
     </g>
     <g id="text_13">
      <!-- 0.6 -->
      <g style="fill:#262626;" transform="translate(30.540625 81.222907)scale(0.1 -0.1)">
       <defs>
        <path d="M 49.75 54.046875 
L 41.015625 53.375 
Q 39.84375 58.546875 37.703125 60.890625 
Q 34.125 64.65625 28.90625 64.65625 
Q 24.703125 64.65625 21.53125 62.3125 
Q 17.390625 59.28125 14.984375 53.46875 
Q 12.59375 47.65625 12.5 36.921875 
Q 15.671875 41.75 20.265625 44.09375 
Q 24.859375 46.4375 29.890625 46.4375 
Q 38.671875 46.4375 44.84375 39.96875 
Q 51.03125 33.5 51.03125 23.25 
Q 51.03125 16.5 48.125 10.71875 
Q 45.21875 4.9375 40.140625 1.859375 
Q 35.0625 -1.21875 28.609375 -1.21875 
Q 17.625 -1.21875 10.6875 6.859375 
Q 3.765625 14.9375 3.765625 33.5 
Q 3.765625 54.25 11.421875 63.671875 
Q 18.109375 71.875 29.4375 71.875 
Q 37.890625 71.875 43.28125 67.140625 
Q 48.6875 62.40625 49.75 54.046875 
z
M 13.875 23.1875 
Q 13.875 18.65625 15.796875 14.5 
Q 17.71875 10.359375 21.1875 8.171875 
Q 24.65625 6 28.46875 6 
Q 34.03125 6 38.03125 10.484375 
Q 42.046875 14.984375 42.046875 22.703125 
Q 42.046875 30.125 38.078125 34.390625 
Q 34.125 38.671875 28.125 38.671875 
Q 22.171875 38.671875 18.015625 34.390625 
Q 13.875 30.125 13.875 23.1875 
z
" id="ArialMT-54"/>
       </defs>
       <use xlink:href="#ArialMT-48"/>
       <use x="55.615234" xlink:href="#ArialMT-46"/>
       <use x="83.398438" xlink:href="#ArialMT-54"/>
      </g>
     </g>
    </g>
    <g id="ytick_7">
     <g id="line2d_13">
      <g>
       <use style="fill:#262626;stroke:#262626;stroke-width:0.8;" x="51.440625" xlink:href="#ma4b4a9873a" y="46.309069"/>
      </g>
     </g>
     <g id="text_14">
      <!-- 0.8 -->
      <g style="fill:#262626;" transform="translate(30.540625 49.887975)scale(0.1 -0.1)">
       <defs>
        <path d="M 17.671875 38.8125 
Q 12.203125 40.828125 9.5625 44.53125 
Q 6.9375 48.25 6.9375 53.421875 
Q 6.9375 61.234375 12.546875 66.546875 
Q 18.171875 71.875 27.484375 71.875 
Q 36.859375 71.875 42.578125 66.421875 
Q 48.296875 60.984375 48.296875 53.171875 
Q 48.296875 48.1875 45.671875 44.5 
Q 43.0625 40.828125 37.75 38.8125 
Q 44.34375 36.671875 47.78125 31.875 
Q 51.21875 27.09375 51.21875 20.453125 
Q 51.21875 11.28125 44.71875 5.03125 
Q 38.234375 -1.21875 27.640625 -1.21875 
Q 17.046875 -1.21875 10.546875 5.046875 
Q 4.046875 11.328125 4.046875 20.703125 
Q 4.046875 27.6875 7.59375 32.390625 
Q 11.140625 37.109375 17.671875 38.8125 
z
M 15.921875 53.71875 
Q 15.921875 48.640625 19.1875 45.40625 
Q 22.46875 42.1875 27.6875 42.1875 
Q 32.765625 42.1875 36.015625 45.375 
Q 39.265625 48.578125 39.265625 53.21875 
Q 39.265625 58.0625 35.90625 61.359375 
Q 32.5625 64.65625 27.59375 64.65625 
Q 22.5625 64.65625 19.234375 61.421875 
Q 15.921875 58.203125 15.921875 53.71875 
z
M 13.09375 20.65625 
Q 13.09375 16.890625 14.875 13.375 
Q 16.65625 9.859375 20.171875 7.921875 
Q 23.6875 6 27.734375 6 
Q 34.03125 6 38.125 10.046875 
Q 42.234375 14.109375 42.234375 20.359375 
Q 42.234375 26.703125 38.015625 30.859375 
Q 33.796875 35.015625 27.4375 35.015625 
Q 21.234375 35.015625 17.15625 30.90625 
Q 13.09375 26.8125 13.09375 20.65625 
z
" id="ArialMT-56"/>
       </defs>
       <use xlink:href="#ArialMT-48"/>
       <use x="55.615234" xlink:href="#ArialMT-46"/>
       <use x="83.398438" xlink:href="#ArialMT-56"/>
      </g>
     </g>
    </g>
    <g id="text_15">
     <!-- $\hat{\beta}_k$ -->
     <g style="fill:#262626;" transform="translate(18.6 135.345)rotate(-90)scale(0.1 -0.1)">
      <defs>
       <path d="M -28.609375 79.984375 
L -21.390625 79.984375 
L -9.421875 61.625 
L -16.21875 61.625 
L -25 73.578125 
L -33.796875 61.625 
L -40.578125 61.625 
z
M -25 56 
z
" id="DejaVuSans-770"/>
       <path d="M 13.625 3.375 
L 8.9375 -20.796875 
L -0.09375 -20.796875 
L 14.5 54.34375 
Q 18.84375 76.609375 39.65625 76.609375 
Q 60.75 76.609375 57.171875 57.8125 
Q 54.734375 44.4375 45.21875 39.546875 
Q 58.015625 35.15625 55.515625 22.125 
Q 51.125 -1.078125 27.484375 -1.03125 
Q 17.140625 -0.984375 13.625 3.375 
z
M 15.921875 15.09375 
Q 19.671875 6.59375 29.296875 6.640625 
Q 43.359375 6.640625 46.34375 21.96875 
Q 49.03125 35.75 26.171875 34.671875 
L 27.78125 42.96875 
Q 45.453125 42.671875 48.53125 58.59375 
Q 50.640625 69.34375 39.203125 69.28125 
Q 26.421875 69.28125 23.484375 54.046875 
z
" id="DejaVuSans-Oblique-946"/>
       <path d="M 18.3125 75.984375 
L 27.296875 75.984375 
L 18.703125 31.6875 
L 49.515625 54.6875 
L 61.1875 54.6875 
L 26.8125 28.515625 
L 51.90625 0 
L 41.015625 0 
L 17.671875 26.703125 
L 12.5 0 
L 3.515625 0 
z
" id="DejaVuSans-Oblique-107"/>
      </defs>
      <use transform="translate(64.532715 34.015625)" xlink:href="#DejaVuSans-770"/>
      <use transform="translate(0 0.90625)" xlink:href="#DejaVuSans-Oblique-946"/>
      <use transform="translate(64.775391 -15.5)scale(0.7)" xlink:href="#DejaVuSans-Oblique-107"/>
     </g>
    </g>
   </g>
   <g id="line2d_14">
    <path clip-path="url(#p02e03a3839)" d="M 64.959261 43.802274 
L 65.072364 42.862226 
L 65.242019 43.33225 
L 65.524776 42.862226 
L 65.864085 44.272298 
L 66.373049 44.428973 
L 67.16477 44.428973 
L 68.239248 41.452154 
L 69.766139 43.802274 
L 71.971648 46.935767 
L 75.195083 48.815863 
L 79.719203 49.755911 
L 86.279177 56.806271 
L 95.666727 65.580052 
L 109.182535 81.874217 
L 128.523149 158.331451 
L 156.289936 171.492122 
L 196.102193 171.648797 
L 253.27576 171.648797 
L 335.331989 171.648797 
" style="fill:none;stroke:#1f77b4;stroke-linecap:round;stroke-width:1.5;"/>
   </g>
   <g id="line2d_15">
    <path clip-path="url(#p02e03a3839)" d="M 64.959261 172.74552 
L 65.072364 173.842242 
L 65.242019 172.588845 
L 65.524776 173.998917 
L 65.864085 173.685568 
L 66.373049 174.625616 
L 67.16477 173.998917 
L 68.239248 171.648797 
L 69.766139 172.902194 
L 71.971648 174.938965 
L 75.195083 175.095639 
L 79.719203 172.275496 
L 86.279177 173.685568 
L 95.666727 172.902194 
L 109.182535 171.962146 
L 128.523149 172.43217 
L 156.289936 171.805472 
L 196.102193 171.648797 
L 253.27576 171.648797 
L 335.331989 171.648797 
" style="fill:none;stroke:#aec7e8;stroke-linecap:round;stroke-width:1.5;"/>
   </g>
   <g id="line2d_16">
    <path clip-path="url(#p02e03a3839)" d="M 64.959261 171.648797 
L 65.072364 171.962146 
L 65.242019 171.648797 
L 65.524776 171.648797 
L 65.864085 172.588845 
L 66.373049 172.902194 
L 67.16477 172.118821 
L 68.239248 171.492122 
L 69.766139 171.492122 
L 71.971648 172.74552 
L 75.195083 172.43217 
L 79.719203 171.805472 
L 86.279177 171.805472 
L 95.666727 171.805472 
L 109.182535 171.805472 
L 128.523149 171.962146 
L 156.289936 171.648797 
L 196.102193 171.648797 
L 253.27576 171.648797 
L 335.331989 171.648797 
" style="fill:none;stroke:#ff7f0e;stroke-linecap:round;stroke-width:1.5;"/>
   </g>
   <g id="line2d_17">
    <path clip-path="url(#p02e03a3839)" d="M 64.959261 172.588845 
L 65.072364 172.275496 
L 65.242019 171.648797 
L 65.524776 173.685568 
L 65.864085 174.468941 
L 66.373049 172.902194 
L 67.16477 173.842242 
L 68.239248 172.275496 
L 69.766139 172.902194 
L 71.971648 172.118821 
L 75.195083 174.155592 
L 79.719203 172.118821 
L 86.279177 172.902194 
L 95.666727 171.962146 
L 109.182535 171.805472 
L 128.523149 171.805472 
L 156.289936 171.648797 
L 196.102193 171.648797 
L 253.27576 171.648797 
L 335.331989 171.648797 
" style="fill:none;stroke:#ffbb78;stroke-linecap:round;stroke-width:1.5;"/>
   </g>
   <g id="line2d_18">
    <path clip-path="url(#p02e03a3839)" d="M 64.959261 33.931771 
L 65.072364 34.088445 
L 65.242019 35.341843 
L 65.524776 33.775096 
L 65.864085 31.895 
L 66.373049 34.401795 
L 67.16477 32.678373 
L 68.239248 32.835048 
L 69.766139 35.498517 
L 71.971648 34.871819 
L 75.195083 32.991723 
L 79.719203 34.401795 
L 86.279177 35.185168 
L 95.666727 35.028493 
L 109.182535 35.811867 
L 128.523149 38.475336 
L 156.289936 40.512106 
L 196.102193 45.055671 
L 253.27576 171.648797 
L 335.331989 171.648797 
" style="fill:none;stroke:#2ca02c;stroke-linecap:round;stroke-width:1.5;"/>
   </g>
   <g id="line2d_19">
    <path clip-path="url(#p02e03a3839)" d="M 64.959261 172.902194 
L 65.072364 172.43217 
L 65.242019 172.902194 
L 65.524776 171.962146 
L 65.864085 171.492122 
L 66.373049 172.588845 
L 67.16477 171.805472 
L 68.239248 171.648797 
L 69.766139 172.588845 
L 71.971648 172.118821 
L 75.195083 171.805472 
L 79.719203 172.275496 
L 86.279177 171.648797 
L 95.666727 171.648797 
L 109.182535 171.805472 
L 128.523149 171.805472 
L 156.289936 171.648797 
L 196.102193 171.648797 
L 253.27576 171.648797 
L 335.331989 171.648797 
" style="fill:none;stroke:#98df8a;stroke-linecap:round;stroke-width:1.5;"/>
   </g>
   <g id="line2d_20">
    <path clip-path="url(#p02e03a3839)" d="M 64.959261 175.252314 
L 65.072364 174.78229 
L 65.242019 175.252314 
L 65.524776 173.372218 
L 65.864085 173.058869 
L 66.373049 175.408989 
L 67.16477 173.058869 
L 68.239248 174.155592 
L 69.766139 176.035687 
L 71.971648 174.938965 
L 75.195083 173.215544 
L 79.719203 173.842242 
L 86.279177 172.588845 
L 95.666727 171.805472 
L 109.182535 171.962146 
L 128.523149 171.648797 
L 156.289936 171.648797 
L 196.102193 171.648797 
L 253.27576 171.648797 
L 335.331989 171.648797 
" style="fill:none;stroke:#d62728;stroke-linecap:round;stroke-width:1.5;"/>
   </g>
   <g id="line2d_21">
    <path clip-path="url(#p02e03a3839)" d="M 64.959261 171.648797 
L 65.072364 171.648797 
L 65.242019 171.648797 
L 65.524776 171.648797 
L 65.864085 171.648797 
L 66.373049 171.648797 
L 67.16477 171.648797 
L 68.239248 171.648797 
L 69.766139 171.648797 
L 71.971648 171.648797 
L 75.195083 171.648797 
L 79.719203 171.648797 
L 86.279177 171.648797 
L 95.666727 171.648797 
L 109.182535 171.648797 
L 128.523149 171.648797 
L 156.289936 171.648797 
L 196.102193 171.648797 
L 253.27576 171.648797 
L 335.331989 171.648797 
" style="fill:none;stroke:#ff9896;stroke-linecap:round;stroke-width:1.5;"/>
   </g>
   <g id="line2d_22">
    <path clip-path="url(#p02e03a3839)" d="M 64.959261 171.648797 
L 65.072364 171.492122 
L 65.242019 170.865424 
L 65.524776 168.985328 
L 65.864085 166.321859 
L 66.373049 169.768701 
L 67.16477 168.985328 
L 68.239248 169.925376 
L 69.766139 167.418581 
L 71.971648 169.925376 
L 75.195083 170.552074 
L 79.719203 170.708749 
L 86.279177 170.3954 
L 95.666727 171.492122 
L 109.182535 171.492122 
L 128.523149 171.335448 
L 156.289936 171.492122 
L 196.102193 171.648797 
L 253.27576 171.648797 
L 335.331989 171.648797 
" style="fill:none;stroke:#9467bd;stroke-linecap:round;stroke-width:1.5;"/>
   </g>
   <g id="line2d_23">
    <path clip-path="url(#p02e03a3839)" d="M 64.959261 171.805472 
L 65.072364 172.588845 
L 65.242019 171.492122 
L 65.524776 167.418581 
L 65.864085 165.538485 
L 66.373049 169.298677 
L 67.16477 168.358629 
L 68.239248 169.455352 
L 69.766139 166.791882 
L 71.971648 169.768701 
L 75.195083 169.612026 
L 79.719203 171.022098 
L 86.279177 170.238725 
L 95.666727 171.805472 
L 109.182535 171.648797 
L 128.523149 171.648797 
L 156.289936 171.648797 
L 196.102193 171.648797 
L 253.27576 171.648797 
L 335.331989 171.648797 
" style="fill:none;stroke:#c5b0d5;stroke-linecap:round;stroke-width:1.5;"/>
   </g>
   <g id="line2d_24">
    <path clip-path="url(#p02e03a3839)" d="M 64.959261 178.072458 
L 65.072364 173.998917 
L 65.242019 179.639205 
L 65.524776 176.662386 
L 65.864085 171.805472 
L 66.373049 175.408989 
L 67.16477 173.372218 
L 68.239248 174.938965 
L 69.766139 176.505711 
L 71.971648 174.938965 
L 75.195083 174.78229 
L 79.719203 174.155592 
L 86.279177 175.095639 
L 95.666727 174.312266 
L 109.182535 173.685568 
L 128.523149 172.275496 
L 156.289936 171.805472 
L 196.102193 171.648797 
L 253.27576 227.895 
L 335.331989 171.648797 
" style="fill:none;stroke:#8c564b;stroke-linecap:round;stroke-width:1.5;"/>
   </g>
   <g id="line2d_25">
    <path clip-path="url(#p02e03a3839)" d="M 64.959261 171.962146 
L 65.072364 171.335448 
L 65.242019 172.43217 
L 65.524776 171.492122 
L 65.864085 171.178773 
L 66.373049 171.962146 
L 67.16477 172.275496 
L 68.239248 171.492122 
L 69.766139 171.492122 
L 71.971648 171.962146 
L 75.195083 173.058869 
L 79.719203 171.335448 
L 86.279177 171.805472 
L 95.666727 171.492122 
L 109.182535 171.648797 
L 128.523149 171.648797 
L 156.289936 171.648797 
L 196.102193 171.648797 
L 253.27576 171.648797 
L 335.331989 171.648797 
" style="fill:none;stroke:#c49c94;stroke-linecap:round;stroke-width:1.5;"/>
   </g>
   <g id="line2d_26">
    <path clip-path="url(#p02e03a3839)" d="M 64.959261 41.138805 
L 65.072364 41.138805 
L 65.242019 41.765504 
L 65.524776 45.995719 
L 65.864085 48.03249 
L 66.373049 43.488925 
L 67.16477 45.369021 
L 68.239248 43.958949 
L 69.766139 46.309069 
L 71.971648 43.175576 
L 75.195083 43.6456 
L 79.719203 41.608829 
L 86.279177 41.29548 
L 95.666727 38.005312 
L 109.182535 38.475336 
L 128.523149 38.94536 
L 156.289936 40.668781 
L 196.102193 44.898997 
L 253.27576 171.648797 
L 335.331989 171.648797 
" style="fill:none;stroke:#e377c2;stroke-linecap:round;stroke-width:1.5;"/>
   </g>
   <g id="line2d_27">
    <path clip-path="url(#p02e03a3839)" d="M 64.959261 175.722338 
L 65.072364 180.265903 
L 65.242019 174.312266 
L 65.524776 176.505711 
L 65.864085 181.675975 
L 66.373049 175.879013 
L 67.16477 177.915783 
L 68.239248 180.422578 
L 69.766139 176.035687 
L 71.971648 174.468941 
L 75.195083 176.035687 
L 79.719203 177.445759 
L 86.279177 173.998917 
L 95.666727 172.902194 
L 109.182535 173.685568 
L 128.523149 171.648797 
L 156.289936 171.805472 
L 196.102193 171.648797 
L 253.27576 171.648797 
L 335.331989 171.648797 
" style="fill:none;stroke:#f7b6d2;stroke-linecap:round;stroke-width:1.5;"/>
   </g>
   <g id="line2d_28">
    <path clip-path="url(#p02e03a3839)" d="M 64.959261 171.648797 
L 65.072364 171.648797 
L 65.242019 171.648797 
L 65.524776 171.648797 
L 65.864085 171.648797 
L 66.373049 171.648797 
L 67.16477 171.648797 
L 68.239248 171.648797 
L 69.766139 171.648797 
L 71.971648 171.648797 
L 75.195083 171.648797 
L 79.719203 171.648797 
L 86.279177 171.648797 
L 95.666727 171.648797 
L 109.182535 171.648797 
L 128.523149 171.648797 
L 156.289936 171.648797 
L 196.102193 171.648797 
L 253.27576 171.648797 
L 335.331989 171.648797 
" style="fill:none;stroke:#7f7f7f;stroke-linecap:round;stroke-width:1.5;"/>
   </g>
   <g id="line2d_29"/>
   <g id="line2d_30"/>
   <g id="line2d_31"/>
   <g id="line2d_32"/>
   <g id="line2d_33"/>
   <g id="line2d_34"/>
   <g id="line2d_35"/>
   <g id="line2d_36"/>
   <g id="line2d_37"/>
   <g id="line2d_38"/>
   <g id="line2d_39"/>
   <g id="line2d_40"/>
   <g id="line2d_41"/>
   <g id="line2d_42"/>
   <g id="line2d_43"/>
   <g id="patch_3">
    <path d="M 51.440625 237.695 
L 51.440625 22.095 
" style="fill:none;stroke:#262626;stroke-linecap:square;stroke-linejoin:miter;stroke-width:0.8;"/>
   </g>
   <g id="patch_4">
    <path d="M 348.850625 237.695 
L 348.850625 22.095 
" style="fill:none;stroke:#262626;stroke-linecap:square;stroke-linejoin:miter;stroke-width:0.8;"/>
   </g>
   <g id="patch_5">
    <path d="M 51.440625 237.695 
L 348.850625 237.695 
" style="fill:none;stroke:#262626;stroke-linecap:square;stroke-linejoin:miter;stroke-width:0.8;"/>
   </g>
   <g id="patch_6">
    <path d="M 51.440625 22.095 
L 348.850625 22.095 
" style="fill:none;stroke:#262626;stroke-linecap:square;stroke-linejoin:miter;stroke-width:0.8;"/>
   </g>
   <g id="text_16">
    <!-- $\lambda_0 = 50$ -->
    <g style="fill:#262626;" transform="translate(178.725625 16.095)scale(0.12 -0.12)">
     <defs>
      <path d="M 31.78125 66.40625 
Q 24.171875 66.40625 20.328125 58.90625 
Q 16.5 51.421875 16.5 36.375 
Q 16.5 21.390625 20.328125 13.890625 
Q 24.171875 6.390625 31.78125 6.390625 
Q 39.453125 6.390625 43.28125 13.890625 
Q 47.125 21.390625 47.125 36.375 
Q 47.125 51.421875 43.28125 58.90625 
Q 39.453125 66.40625 31.78125 66.40625 
z
M 31.78125 74.21875 
Q 44.046875 74.21875 50.515625 64.515625 
Q 56.984375 54.828125 56.984375 36.375 
Q 56.984375 17.96875 50.515625 8.265625 
Q 44.046875 -1.421875 31.78125 -1.421875 
Q 19.53125 -1.421875 13.0625 8.265625 
Q 6.59375 17.96875 6.59375 36.375 
Q 6.59375 54.828125 13.0625 64.515625 
Q 19.53125 74.21875 31.78125 74.21875 
z
" id="DejaVuSans-48"/>
      <path d="M 10.59375 45.40625 
L 73.1875 45.40625 
L 73.1875 37.203125 
L 10.59375 37.203125 
z
M 10.59375 25.484375 
L 73.1875 25.484375 
L 73.1875 17.1875 
L 10.59375 17.1875 
z
" id="DejaVuSans-61"/>
      <path d="M 10.796875 72.90625 
L 49.515625 72.90625 
L 49.515625 64.59375 
L 19.828125 64.59375 
L 19.828125 46.734375 
Q 21.96875 47.46875 24.109375 47.828125 
Q 26.265625 48.1875 28.421875 48.1875 
Q 40.625 48.1875 47.75 41.5 
Q 54.890625 34.8125 54.890625 23.390625 
Q 54.890625 11.625 47.5625 5.09375 
Q 40.234375 -1.421875 26.90625 -1.421875 
Q 22.3125 -1.421875 17.546875 -0.640625 
Q 12.796875 0.140625 7.71875 1.703125 
L 7.71875 11.625 
Q 12.109375 9.234375 16.796875 8.0625 
Q 21.484375 6.890625 26.703125 6.890625 
Q 35.15625 6.890625 40.078125 11.328125 
Q 45.015625 15.765625 45.015625 23.390625 
Q 45.015625 31 40.078125 35.4375 
Q 35.15625 39.890625 26.703125 39.890625 
Q 22.75 39.890625 18.8125 39.015625 
Q 14.890625 38.140625 10.796875 36.28125 
z
" id="DejaVuSans-53"/>
     </defs>
     <use transform="translate(0 0.015625)" xlink:href="#DejaVuSans-Oblique-955"/>
     <use transform="translate(59.179688 -16.390625)scale(0.7)" xlink:href="#DejaVuSans-48"/>
     <use transform="translate(125.932617 0.015625)" xlink:href="#DejaVuSans-61"/>
     <use transform="translate(229.204102 0.015625)" xlink:href="#DejaVuSans-53"/>
     <use transform="translate(292.827148 0.015625)" xlink:href="#DejaVuSans-48"/>
    </g>
   </g>
   <g id="legend_1">
    <g id="patch_7">
     <path d="M 365.721125 251.42 
L 408.843 251.42 
Q 410.843 251.42 410.843 249.42 
L 410.843 24.095 
Q 410.843 22.095 408.843 22.095 
L 365.721125 22.095 
Q 363.721125 22.095 363.721125 24.095 
L 363.721125 249.42 
Q 363.721125 251.42 365.721125 251.42 
z
" style="fill:#ffffff;opacity:0.8;stroke:#cccccc;stroke-linejoin:miter;"/>
    </g>
    <g id="text_17">
     <!-- k -->
     <g style="fill:#262626;" transform="translate(384.782063 33.252813)scale(0.1 -0.1)">
      <defs>
       <path d="M 6.640625 0 
L 6.640625 71.578125 
L 15.4375 71.578125 
L 15.4375 30.765625 
L 36.234375 51.859375 
L 47.609375 51.859375 
L 27.78125 32.625 
L 49.609375 0 
L 38.765625 0 
L 21.625 26.515625 
L 15.4375 20.5625 
L 15.4375 0 
z
" id="ArialMT-107"/>
      </defs>
      <use xlink:href="#ArialMT-107"/>
     </g>
    </g>
    <g id="line2d_44">
     <path d="M 367.721125 43.898125 
L 387.721125 43.898125 
" style="fill:none;stroke:#1f77b4;stroke-linecap:round;stroke-width:1.5;"/>
    </g>
    <g id="line2d_45"/>
    <g id="text_18">
     <!-- 0 -->
     <g style="fill:#262626;" transform="translate(395.721125 47.398125)scale(0.1 -0.1)">
      <use xlink:href="#ArialMT-48"/>
     </g>
    </g>
    <g id="line2d_46">
     <path d="M 367.721125 58.043438 
L 387.721125 58.043438 
" style="fill:none;stroke:#aec7e8;stroke-linecap:round;stroke-width:1.5;"/>
    </g>
    <g id="line2d_47"/>
    <g id="text_19">
     <!-- 1 -->
     <g style="fill:#262626;" transform="translate(395.721125 61.543438)scale(0.1 -0.1)">
      <use xlink:href="#ArialMT-49"/>
     </g>
    </g>
    <g id="line2d_48">
     <path d="M 367.721125 72.18875 
L 387.721125 72.18875 
" style="fill:none;stroke:#ff7f0e;stroke-linecap:round;stroke-width:1.5;"/>
    </g>
    <g id="line2d_49"/>
    <g id="text_20">
     <!-- 2 -->
     <g style="fill:#262626;" transform="translate(395.721125 75.68875)scale(0.1 -0.1)">
      <use xlink:href="#ArialMT-50"/>
     </g>
    </g>
    <g id="line2d_50">
     <path d="M 367.721125 86.334063 
L 387.721125 86.334063 
" style="fill:none;stroke:#ffbb78;stroke-linecap:round;stroke-width:1.5;"/>
    </g>
    <g id="line2d_51"/>
    <g id="text_21">
     <!-- 3 -->
     <g style="fill:#262626;" transform="translate(395.721125 89.834063)scale(0.1 -0.1)">
      <use xlink:href="#ArialMT-51"/>
     </g>
    </g>
    <g id="line2d_52">
     <path d="M 367.721125 100.479375 
L 387.721125 100.479375 
" style="fill:none;stroke:#2ca02c;stroke-linecap:round;stroke-width:1.5;"/>
    </g>
    <g id="line2d_53"/>
    <g id="text_22">
     <!-- 4 -->
     <g style="fill:#262626;" transform="translate(395.721125 103.979375)scale(0.1 -0.1)">
      <use xlink:href="#ArialMT-52"/>
     </g>
    </g>
    <g id="line2d_54">
     <path d="M 367.721125 114.624688 
L 387.721125 114.624688 
" style="fill:none;stroke:#98df8a;stroke-linecap:round;stroke-width:1.5;"/>
    </g>
    <g id="line2d_55"/>
    <g id="text_23">
     <!-- 5 -->
     <g style="fill:#262626;" transform="translate(395.721125 118.124688)scale(0.1 -0.1)">
      <use xlink:href="#ArialMT-53"/>
     </g>
    </g>
    <g id="line2d_56">
     <path d="M 367.721125 128.77 
L 387.721125 128.77 
" style="fill:none;stroke:#d62728;stroke-linecap:round;stroke-width:1.5;"/>
    </g>
    <g id="line2d_57"/>
    <g id="text_24">
     <!-- 6 -->
     <g style="fill:#262626;" transform="translate(395.721125 132.27)scale(0.1 -0.1)">
      <use xlink:href="#ArialMT-54"/>
     </g>
    </g>
    <g id="line2d_58">
     <path d="M 367.721125 142.915313 
L 387.721125 142.915313 
" style="fill:none;stroke:#ff9896;stroke-linecap:round;stroke-width:1.5;"/>
    </g>
    <g id="line2d_59"/>
    <g id="text_25">
     <!-- 9 -->
     <g style="fill:#262626;" transform="translate(395.721125 146.415313)scale(0.1 -0.1)">
      <defs>
       <path d="M 5.46875 16.546875 
L 13.921875 17.328125 
Q 14.984375 11.375 18.015625 8.6875 
Q 21.046875 6 25.78125 6 
Q 29.828125 6 32.875 7.859375 
Q 35.9375 9.71875 37.890625 12.8125 
Q 39.84375 15.921875 41.15625 21.1875 
Q 42.484375 26.46875 42.484375 31.9375 
Q 42.484375 32.515625 42.4375 33.6875 
Q 39.796875 29.5 35.234375 26.875 
Q 30.671875 24.265625 25.34375 24.265625 
Q 16.453125 24.265625 10.296875 30.703125 
Q 4.15625 37.15625 4.15625 47.703125 
Q 4.15625 58.59375 10.578125 65.234375 
Q 17 71.875 26.65625 71.875 
Q 33.640625 71.875 39.421875 68.109375 
Q 45.21875 64.359375 48.21875 57.390625 
Q 51.21875 50.4375 51.21875 37.25 
Q 51.21875 23.53125 48.234375 15.40625 
Q 45.265625 7.28125 39.375 3.03125 
Q 33.5 -1.21875 25.59375 -1.21875 
Q 17.1875 -1.21875 11.859375 3.4375 
Q 6.546875 8.109375 5.46875 16.546875 
z
M 41.453125 48.140625 
Q 41.453125 55.71875 37.421875 60.15625 
Q 33.40625 64.59375 27.734375 64.59375 
Q 21.875 64.59375 17.53125 59.8125 
Q 13.1875 55.03125 13.1875 47.40625 
Q 13.1875 40.578125 17.3125 36.296875 
Q 21.4375 32.03125 27.484375 32.03125 
Q 33.59375 32.03125 37.515625 36.296875 
Q 41.453125 40.578125 41.453125 48.140625 
z
" id="ArialMT-57"/>
      </defs>
      <use xlink:href="#ArialMT-57"/>
     </g>
    </g>
    <g id="line2d_60">
     <path d="M 367.721125 157.060625 
L 387.721125 157.060625 
" style="fill:none;stroke:#9467bd;stroke-linecap:round;stroke-width:1.5;"/>
    </g>
    <g id="line2d_61"/>
    <g id="text_26">
     <!-- 7 -->
     <g style="fill:#262626;" transform="translate(395.721125 160.560625)scale(0.1 -0.1)">
      <defs>
       <path d="M 4.734375 62.203125 
L 4.734375 70.65625 
L 51.078125 70.65625 
L 51.078125 63.8125 
Q 44.234375 56.546875 37.515625 44.484375 
Q 30.8125 32.421875 27.15625 19.671875 
Q 24.515625 10.6875 23.78125 0 
L 14.75 0 
Q 14.890625 8.453125 18.0625 20.40625 
Q 21.234375 32.375 27.171875 43.484375 
Q 33.109375 54.59375 39.796875 62.203125 
z
" id="ArialMT-55"/>
      </defs>
      <use xlink:href="#ArialMT-55"/>
     </g>
    </g>
    <g id="line2d_62">
     <path d="M 367.721125 171.205938 
L 387.721125 171.205938 
" style="fill:none;stroke:#c5b0d5;stroke-linecap:round;stroke-width:1.5;"/>
    </g>
    <g id="line2d_63"/>
    <g id="text_27">
     <!-- 8 -->
     <g style="fill:#262626;" transform="translate(395.721125 174.705938)scale(0.1 -0.1)">
      <use xlink:href="#ArialMT-56"/>
     </g>
    </g>
    <g id="line2d_64">
     <path d="M 367.721125 185.35125 
L 387.721125 185.35125 
" style="fill:none;stroke:#8c564b;stroke-linecap:round;stroke-width:1.5;"/>
    </g>
    <g id="line2d_65"/>
    <g id="text_28">
     <!-- 10 -->
     <g style="fill:#262626;" transform="translate(395.721125 188.85125)scale(0.1 -0.1)">
      <use xlink:href="#ArialMT-49"/>
      <use x="55.615234" xlink:href="#ArialMT-48"/>
     </g>
    </g>
    <g id="line2d_66">
     <path d="M 367.721125 199.496563 
L 387.721125 199.496563 
" style="fill:none;stroke:#c49c94;stroke-linecap:round;stroke-width:1.5;"/>
    </g>
    <g id="line2d_67"/>
    <g id="text_29">
     <!-- 11 -->
     <g style="fill:#262626;" transform="translate(395.721125 202.996563)scale(0.1 -0.1)">
      <use xlink:href="#ArialMT-49"/>
      <use x="48.240234" xlink:href="#ArialMT-49"/>
     </g>
    </g>
    <g id="line2d_68">
     <path d="M 367.721125 213.641875 
L 387.721125 213.641875 
" style="fill:none;stroke:#e377c2;stroke-linecap:round;stroke-width:1.5;"/>
    </g>
    <g id="line2d_69"/>
    <g id="text_30">
     <!-- 12 -->
     <g style="fill:#262626;" transform="translate(395.721125 217.141875)scale(0.1 -0.1)">
      <use xlink:href="#ArialMT-49"/>
      <use x="55.615234" xlink:href="#ArialMT-50"/>
     </g>
    </g>
    <g id="line2d_70">
     <path d="M 367.721125 227.787188 
L 387.721125 227.787188 
" style="fill:none;stroke:#f7b6d2;stroke-linecap:round;stroke-width:1.5;"/>
    </g>
    <g id="line2d_71"/>
    <g id="text_31">
     <!-- 14 -->
     <g style="fill:#262626;" transform="translate(395.721125 231.287188)scale(0.1 -0.1)">
      <use xlink:href="#ArialMT-49"/>
      <use x="55.615234" xlink:href="#ArialMT-52"/>
     </g>
    </g>
    <g id="line2d_72">
     <path d="M 367.721125 241.9325 
L 387.721125 241.9325 
" style="fill:none;stroke:#7f7f7f;stroke-linecap:round;stroke-width:1.5;"/>
    </g>
    <g id="line2d_73"/>
    <g id="text_32">
     <!-- 15 -->
     <g style="fill:#262626;" transform="translate(395.721125 245.4325)scale(0.1 -0.1)">
      <use xlink:href="#ArialMT-49"/>
      <use x="55.615234" xlink:href="#ArialMT-53"/>
     </g>
    </g>
   </g>
  </g>
 </g>
 <defs>
  <clipPath id="p02e03a3839">
   <rect height="215.6" width="297.41" x="51.440625" y="22.095"/>
  </clipPath>
 </defs>
</svg>
