<svg class="toyplot-canvas-Canvas" xmlns:toyplot="http://www.sandia.gov/toyplot" xmlns:xlink="http://www.w3.org/1999/xlink" xmlns="http://www.w3.org/2000/svg" width="850.0px" height="700.0px" viewBox="0 0 850.0 700.0" preserveAspectRatio="xMidYMid meet" style="background-color:transparent;border-color:#292724;border-style:none;border-width:1.0;fill:rgb(16.1%,15.3%,14.1%);fill-opacity:1.0;font-family:Helvetica;font-size:12px;opacity:1.0;stroke:rgb(16.1%,15.3%,14.1%);stroke-opacity:1.0;stroke-width:1.0" id="te7e0120cee584904a54990d9dbf766c9"><g class="toyplot-coordinates-Cartesian" id="t610b67c0099a4c1783302d633a104c94"><clipPath id="tdc737052c1fc4e2d9c838cd8f94917d2"><rect x="180.0" y="30.0" width="460.0" height="640.0" /></clipPath><g clip-path="url(#tdc737052c1fc4e2d9c838cd8f94917d2)"><g class="toytree-mark-Toytree" id="t7bcf0a8bd7a64a5298c5e936773e7122"><g class="toytree-Edges" style="fill:none;stroke:rgb(14.9%,14.9%,14.9%);stroke-linecap:round;stroke-opacity:1;stroke-width:2"><path d="M 200.0 398.2 L 200.0 173.9 L 231.1 173.9" id="74,73" style="stroke:rgb(0%,0%,0%);stroke-opacity:1.0" /><path d="M 200.0 398.2 L 200.0 421.6 L 231.1 421.6" id="74,72" style="stroke:rgb(0%,0%,0%);stroke-opacity:1.0" /><path d="M 200.0 398.2 L 200.0 599.2 L 231.1 599.2" id="74,71" style="stroke:rgb(0%,0%,0%);stroke-opacity:1.0" /><path d="M 231.1 173.9 L 231.1 90.4 L 262.2 90.4" id="73,70" style="stroke:rgb(50.2%,0%,50.2%);stroke-opacity:1.0" /><path d="M 231.1 173.9 L 231.1 257.4 L 262.2 257.4" id="73,69" style="stroke:rgb(50.2%,0%,50.2%);stroke-opacity:1.0" /><path d="M 231.1 421.6 L 231.1 382.4 L 262.2 382.4" id="72,68" style="stroke:rgb(100%,64.7%,0%);stroke-opacity:1.0" /><path d="M 231.1 421.6 L 231.1 455.9 L 262.2 455.9" id="72,67" style="stroke:rgb(100%,64.7%,0%);stroke-opacity:1.0" /><path d="M 231.1 599.2 L 231.1 505.9 L 262.2 505.9" id="71,66" style="stroke:rgb(0%,50.2%,0%);stroke-opacity:1.0" /><path d="M 231.1 599.2 L 231.1 575.5 L 262.2 575.5" id="71,65" style="stroke:rgb(0%,50.2%,0%);stroke-opacity:1.0" /><path d="M 262.2 90.4 L 262.2 67.6 L 293.3 67.6" id="70,64" style="stroke:rgb(50.2%,0%,50.2%);stroke-opacity:1.0" /><path d="M 262.2 90.4 L 262.2 113.2 L 293.3 113.2" id="70,63" style="stroke:rgb(50.2%,0%,50.2%);stroke-opacity:1.0" /><path d="M 262.2 257.4 L 262.2 161.8 L 293.3 161.8" id="69,62" style="stroke:rgb(50.2%,0%,50.2%);stroke-opacity:1.0" /><path d="M 262.2 257.4 L 262.2 238.2 L 293.3 238.2" id="69,61" style="stroke:rgb(50.2%,0%,50.2%);stroke-opacity:1.0" /><path d="M 262.2 382.4 L 262.2 338.2 L 293.3 338.2" id="68,60" style="stroke:rgb(100%,64.7%,0%);stroke-opacity:1.0" /><path d="M 262.2 382.4 L 262.2 373.5 L 293.3 373.5" id="68,59" style="stroke:rgb(100%,64.7%,0%);stroke-opacity:1.0" /><path d="M 262.2 505.9 L 262.2 491.2 L 293.3 491.2" id="66,58" style="stroke:rgb(0%,50.2%,0%);stroke-opacity:1.0" /><path d="M 262.2 505.9 L 262.2 520.6 L 293.3 520.6" id="66,57" style="stroke:rgb(0%,50.2%,0%);stroke-opacity:1.0" /><path d="M 262.2 575.5 L 262.2 550.0 L 293.3 550.0" id="65,56" style="stroke:rgb(0%,50.2%,0%);stroke-opacity:1.0" /><path d="M 262.2 575.5 L 262.2 573.5 L 293.3 573.5" id="65,55" style="stroke:rgb(0%,50.2%,0%);stroke-opacity:1.0" /><path d="M 262.2 575.5 L 262.2 602.9 L 293.3 602.9" id="65,54" style="stroke:rgb(0%,50.2%,0%);stroke-opacity:1.0" /><path d="M 293.3 113.2 L 293.3 91.2 L 324.4 91.2" id="63,53" style="stroke:rgb(50.2%,0%,50.2%);stroke-opacity:1.0" /><path d="M 293.3 238.2 L 293.3 208.8 L 324.4 208.8" id="61,52" style="stroke:rgb(50.2%,0%,50.2%);stroke-opacity:1.0" /><path d="M 293.3 238.2 L 293.3 267.6 L 324.4 267.6" id="61,51" style="stroke:rgb(50.2%,0%,50.2%);stroke-opacity:1.0" /><path d="M 293.3 67.6 L 293.3 61.8 L 324.4 61.8" id="64,50" style="stroke:rgb(50.2%,0%,50.2%);stroke-opacity:1.0" /><path d="M 293.3 67.6 L 293.3 73.5 L 324.4 73.5" id="64,49" style="stroke:rgb(50.2%,0%,50.2%);stroke-opacity:1.0" /><path d="M 324.4 91.2 L 324.4 85.3 L 355.6 85.3" id="53,48" style="stroke:rgb(50.2%,0%,50.2%);stroke-opacity:1.0" /><path d="M 324.4 91.2 L 324.4 97.1 L 355.6 97.1" id="53,47" style="stroke:rgb(50.2%,0%,50.2%);stroke-opacity:1.0" /><path d="M 293.3 113.2 L 293.3 108.8 L 324.4 108.8" id="63,46" style="stroke:rgb(50.2%,0%,50.2%);stroke-opacity:1.0" /><path d="M 293.3 113.2 L 293.3 120.6 L 324.4 120.6" id="63,45" style="stroke:rgb(50.2%,0%,50.2%);stroke-opacity:1.0" /><path d="M 293.3 113.2 L 293.3 132.4 L 324.4 132.4" id="63,44" style="stroke:rgb(50.2%,0%,50.2%);stroke-opacity:1.0" /><path d="M 293.3 161.8 L 293.3 144.1 L 324.4 144.1" id="62,43" style="stroke:rgb(50.2%,0%,50.2%);stroke-opacity:1.0" /><path d="M 293.3 161.8 L 293.3 155.9 L 324.4 155.9" id="62,42" style="stroke:rgb(50.2%,0%,50.2%);stroke-opacity:1.0" /><path d="M 293.3 161.8 L 293.3 167.6 L 324.4 167.6" id="62,41" style="stroke:rgb(50.2%,0%,50.2%);stroke-opacity:1.0" /><path d="M 293.3 161.8 L 293.3 179.4 L 324.4 179.4" id="62,40" style="stroke:rgb(50.2%,0%,50.2%);stroke-opacity:1.0" /><path d="M 324.4 208.8 L 324.4 191.2 L 355.6 191.2" id="52,39" style="stroke:rgb(50.2%,0%,50.2%);stroke-opacity:1.0" /><path d="M 324.4 208.8 L 324.4 202.9 L 355.6 202.9" id="52,38" style="stroke:rgb(50.2%,0%,50.2%);stroke-opacity:1.0" /><path d="M 324.4 208.8 L 324.4 214.7 L 355.6 214.7" id="52,37" style="stroke:rgb(50.2%,0%,50.2%);stroke-opacity:1.0" /><path d="M 324.4 208.8 L 324.4 226.5 L 355.6 226.5" id="52,36" style="stroke:rgb(50.2%,0%,50.2%);stroke-opacity:1.0" /><path d="M 324.4 267.6 L 324.4 238.2 L 355.6 238.2" id="51,35" style="stroke:rgb(50.2%,0%,50.2%);stroke-opacity:1.0" /><path d="M 324.4 267.6 L 324.4 250.0 L 355.6 250.0" id="51,34" style="stroke:rgb(50.2%,0%,50.2%);stroke-opacity:1.0" /><path d="M 324.4 267.6 L 324.4 261.8 L 355.6 261.8" id="51,33" style="stroke:rgb(50.2%,0%,50.2%);stroke-opacity:1.0" /><path d="M 324.4 267.6 L 324.4 273.5 L 355.6 273.5" id="51,32" style="stroke:rgb(50.2%,0%,50.2%);stroke-opacity:1.0" /><path d="M 324.4 267.6 L 324.4 285.3 L 355.6 285.3" id="51,31" style="stroke:rgb(50.2%,0%,50.2%);stroke-opacity:1.0" /><path d="M 324.4 267.6 L 324.4 297.1 L 355.6 297.1" id="51,30" style="stroke:rgb(50.2%,0%,50.2%);stroke-opacity:1.0" /><path d="M 262.2 257.4 L 262.2 308.8 L 293.3 308.8" id="69,29" style="stroke:rgb(50.2%,0%,50.2%);stroke-opacity:1.0" /><path d="M 262.2 257.4 L 262.2 320.6 L 293.3 320.6" id="69,28" style="stroke:rgb(50.2%,0%,50.2%);stroke-opacity:1.0" /><path d="M 293.3 338.2 L 293.3 332.4 L 324.4 332.4" id="60,27" style="stroke:rgb(100%,64.7%,0%);stroke-opacity:1.0" /><path d="M 293.3 338.2 L 293.3 344.1 L 324.4 344.1" id="60,26" style="stroke:rgb(100%,64.7%,0%);stroke-opacity:1.0" /><path d="M 293.3 373.5 L 293.3 355.9 L 324.4 355.9" id="59,25" style="stroke:rgb(100%,64.7%,0%);stroke-opacity:1.0" /><path d="M 293.3 373.5 L 293.3 367.6 L 324.4 367.6" id="59,24" style="stroke:rgb(100%,64.7%,0%);stroke-opacity:1.0" /><path d="M 293.3 373.5 L 293.3 379.4 L 324.4 379.4" id="59,23" style="stroke:rgb(100%,64.7%,0%);stroke-opacity:1.0" /><path d="M 293.3 373.5 L 293.3 391.2 L 324.4 391.2" id="59,22" style="stroke:rgb(100%,64.7%,0%);stroke-opacity:1.0" /><path d="M 262.2 382.4 L 262.2 402.9 L 293.3 402.9" id="68,21" style="stroke:rgb(100%,64.7%,0%);stroke-opacity:1.0" /><path d="M 262.2 382.4 L 262.2 414.7 L 293.3 414.7" id="68,20" style="stroke:rgb(100%,64.7%,0%);stroke-opacity:1.0" /><path d="M 231.1 421.6 L 231.1 426.5 L 262.2 426.5" id="72,19" style="stroke:rgb(100%,64.7%,0%);stroke-opacity:1.0" /><path d="M 262.2 455.9 L 262.2 438.2 L 293.3 438.2" id="67,18" style="stroke:rgb(100%,64.7%,0%);stroke-opacity:1.0" /><path d="M 262.2 455.9 L 262.2 450.0 L 293.3 450.0" id="67,17" style="stroke:rgb(100%,64.7%,0%);stroke-opacity:1.0" /><path d="M 262.2 455.9 L 262.2 461.8 L 293.3 461.8" id="67,16" style="stroke:rgb(100%,64.7%,0%);stroke-opacity:1.0" /><path d="M 262.2 455.9 L 262.2 473.5 L 293.3 473.5" id="67,15" style="stroke:rgb(100%,64.7%,0%);stroke-opacity:1.0" /><path d="M 293.3 491.2 L 293.3 485.3 L 324.4 485.3" id="58,14" style="stroke:rgb(0%,50.2%,0%);stroke-opacity:1.0" /><path d="M 293.3 491.2 L 293.3 497.1 L 324.4 497.1" id="58,13" style="stroke:rgb(0%,50.2%,0%);stroke-opacity:1.0" /><path d="M 293.3 520.6 L 293.3 508.8 L 324.4 508.8" id="57,12" style="stroke:rgb(0%,50.2%,0%);stroke-opacity:1.0" /><path d="M 293.3 520.6 L 293.3 520.6 L 324.4 520.6" id="57,11" style="stroke:rgb(0%,50.2%,0%);stroke-opacity:1.0" /><path d="M 293.3 520.6 L 293.3 532.4 L 324.4 532.4" id="57,10" style="stroke:rgb(0%,50.2%,0%);stroke-opacity:1.0" /><path d="M 293.3 550.0 L 293.3 544.1 L 324.4 544.1" id="56,9" style="stroke:rgb(0%,50.2%,0%);stroke-opacity:1.0" /><path d="M 293.3 550.0 L 293.3 555.9 L 324.4 555.9" id="56,8" style="stroke:rgb(0%,50.2%,0%);stroke-opacity:1.0" /><path d="M 293.3 573.5 L 293.3 567.6 L 324.4 567.6" id="55,7" style="stroke:rgb(0%,50.2%,0%);stroke-opacity:1.0" /><path d="M 293.3 573.5 L 293.3 579.4 L 324.4 579.4" id="55,6" style="stroke:rgb(0%,50.2%,0%);stroke-opacity:1.0" /><path d="M 293.3 602.9 L 293.3 591.2 L 324.4 591.2" id="54,5" style="stroke:rgb(0%,50.2%,0%);stroke-opacity:1.0" /><path d="M 293.3 602.9 L 293.3 602.9 L 324.4 602.9" id="54,4" style="stroke:rgb(0%,50.2%,0%);stroke-opacity:1.0" /><path d="M 293.3 602.9 L 293.3 614.7 L 324.4 614.7" id="54,3" style="stroke:rgb(0%,50.2%,0%);stroke-opacity:1.0" /><path d="M 231.1 599.2 L 231.1 626.5 L 262.2 626.5" id="71,2" style="stroke:rgb(0%,50.2%,0%);stroke-opacity:1.0" /><path d="M 231.1 599.2 L 231.1 638.2 L 262.2 638.2" id="71,1" style="stroke:rgb(0%,50.2%,0%);stroke-opacity:1.0" /><path d="M 231.1 599.2 L 231.1 650.0 L 262.2 650.0" id="71,0" style="stroke:rgb(0%,50.2%,0%);stroke-opacity:1.0" /></g><g class="toytree-AlignEdges" style="stroke:rgb(66.3%,66.3%,66.3%);stroke-dasharray:2, 4;stroke-linecap:round;stroke-opacity:1.0;stroke-width:2"><path d="M 355.6 650.0 L 262.2 650.0" /><path d="M 355.6 638.2 L 262.2 638.2" /><path d="M 355.6 626.5 L 262.2 626.5" /><path d="M 355.6 614.7 L 324.4 614.7" /><path d="M 355.6 602.9 L 324.4 602.9" /><path d="M 355.6 591.2 L 324.4 591.2" /><path d="M 355.6 579.4 L 324.4 579.4" /><path d="M 355.6 567.6 L 324.4 567.6" /><path d="M 355.6 555.9 L 324.4 555.9" /><path d="M 355.6 544.1 L 324.4 544.1" /><path d="M 355.6 532.4 L 324.4 532.4" /><path d="M 355.6 520.6 L 324.4 520.6" /><path d="M 355.6 508.8 L 324.4 508.8" /><path d="M 355.6 497.1 L 324.4 497.1" /><path d="M 355.6 485.3 L 324.4 485.3" /><path d="M 355.6 473.5 L 293.3 473.5" /><path d="M 355.6 461.8 L 293.3 461.8" /><path d="M 355.6 450.0 L 293.3 450.0" /><path d="M 355.6 438.2 L 293.3 438.2" /><path d="M 355.6 426.5 L 262.2 426.5" /><path d="M 355.6 414.7 L 293.3 414.7" /><path d="M 355.6 402.9 L 293.3 402.9" /><path d="M 355.6 391.2 L 324.4 391.2" /><path d="M 355.6 379.4 L 324.4 379.4" /><path d="M 355.6 367.6 L 324.4 367.6" /><path d="M 355.6 355.9 L 324.4 355.9" /><path d="M 355.6 344.1 L 324.4 344.1" /><path d="M 355.6 332.4 L 324.4 332.4" /><path d="M 355.6 320.6 L 293.3 320.6" /><path d="M 355.6 308.8 L 293.3 308.8" /><path d="M 355.6 297.1 L 355.6 297.1" /><path d="M 355.6 285.3 L 355.6 285.3" /><path d="M 355.6 273.5 L 355.6 273.5" /><path d="M 355.6 261.8 L 355.6 261.8" /><path d="M 355.6 250.0 L 355.6 250.0" /><path d="M 355.6 238.2 L 355.6 238.2" /><path d="M 355.6 226.5 L 355.6 226.5" /><path d="M 355.6 214.7 L 355.6 214.7" /><path d="M 355.6 202.9 L 355.6 202.9" /><path d="M 355.6 191.2 L 355.6 191.2" /><path d="M 355.6 179.4 L 324.4 179.4" /><path d="M 355.6 167.6 L 324.4 167.6" /><path d="M 355.6 155.9 L 324.4 155.9" /><path d="M 355.6 144.1 L 324.4 144.1" /><path d="M 355.6 132.4 L 324.4 132.4" /><path d="M 355.6 120.6 L 324.4 120.6" /><path d="M 355.6 108.8 L 324.4 108.8" /><path d="M 355.6 97.1 L 355.6 97.1" /><path d="M 355.6 85.3 L 355.6 85.3" /><path d="M 355.6 73.5 L 324.4 73.5" /><path d="M 355.6 61.8 L 324.4 61.8" /></g><g class="toytree-TipLabels" style="fill:rgb(14.9%,14.9%,14.9%);fill-opacity:1.0;font-family:helvetica;font-size:12px;font-weight:normal;stroke:none;white-space:pre"><g transform="translate(355.56,650.00)rotate(0)"><text x="15.00" y="3.07" style="">Mcells</text></g><g transform="translate(355.56,638.24)rotate(0)"><text x="15.00" y="3.07" style="">Stem</text></g><g transform="translate(355.56,626.47)rotate(0)"><text x="15.00" y="3.07" style="">CyclingTA</text></g><g transform="translate(355.56,614.71)rotate(0)"><text x="15.00" y="3.07" style="">ImmatureEnterocytes1</text></g><g transform="translate(355.56,602.94)rotate(0)"><text x="15.00" y="3.07" style="">ImmatureEnterocytes2</text></g><g transform="translate(355.56,591.18)rotate(0)"><text x="15.00" y="3.07" style="">EnterocyteProgenitors</text></g><g transform="translate(355.56,579.41)rotate(0)"><text x="15.00" y="3.07" style="">Enterocytes</text></g><g transform="translate(355.56,567.65)rotate(0)"><text x="15.00" y="3.07" style="">Best4+Enterocytes</text></g><g transform="translate(355.56,555.88)rotate(0)"><text x="15.00" y="3.07" style="">TA2</text></g><g transform="translate(355.56,544.12)rotate(0)"><text x="15.00" y="3.07" style="">TA1</text></g><g transform="translate(355.56,532.35)rotate(0)"><text x="15.00" y="3.07" style="">Tuft</text></g><g transform="translate(355.56,520.59)rotate(0)"><text x="15.00" y="3.07" style="">Goblet</text></g><g transform="translate(355.56,508.82)rotate(0)"><text x="15.00" y="3.07" style="">Enteroendocrine</text></g><g transform="translate(355.56,497.06)rotate(0)"><text x="15.00" y="3.07" style="">SecretoryTA</text></g><g transform="translate(355.56,485.29)rotate(0)"><text x="15.00" y="3.07" style="">ImmatureGoblet</text></g><g transform="translate(355.56,473.53)rotate(0)"><text x="15.00" y="3.07" style="">Post-capillaryVenules</text></g><g transform="translate(355.56,461.76)rotate(0)"><text x="15.00" y="3.07" style="">Endothelial</text></g><g transform="translate(355.56,450.00)rotate(0)"><text x="15.00" y="3.07" style="">Microvascular</text></g><g transform="translate(355.56,438.24)rotate(0)"><text x="15.00" y="3.07" style="">Pericytes</text></g><g transform="translate(355.56,426.47)rotate(0)"><text x="15.00" y="3.07" style="">Glia</text></g><g transform="translate(355.56,414.71)rotate(0)"><text x="15.00" y="3.07" style="">Myofibroblasts</text></g><g transform="translate(355.56,402.94)rotate(0)"><text x="15.00" y="3.07" style="">InflammatoryFibroblasts</text></g><g transform="translate(355.56,391.18)rotate(0)"><text x="15.00" y="3.07" style="">WNT2B+Fos-lo2</text></g><g transform="translate(355.56,379.41)rotate(0)"><text x="15.00" y="3.07" style="">RSPO3+</text></g><g transform="translate(355.56,367.65)rotate(0)"><text x="15.00" y="3.07" style="">WNT2B+Fos-lo1</text></g><g transform="translate(355.56,355.88)rotate(0)"><text x="15.00" y="3.07" style="">WNT2B+Fos-hi</text></g><g transform="translate(355.56,344.12)rotate(0)"><text x="15.00" y="3.07" style="">WNT5B+1</text></g><g transform="translate(355.56,332.35)rotate(0)"><text x="15.00" y="3.07" style="">WNT5B+2</text></g><g transform="translate(355.56,320.59)rotate(0)"><text x="15.00" y="3.07" style="">ILCs</text></g><g transform="translate(355.56,308.82)rotate(0)"><text x="15.00" y="3.07" style="">NKs</text></g><g transform="translate(355.56,297.06)rotate(0)"><text x="15.00" y="3.07" style="">Tregs</text></g><g transform="translate(355.56,285.29)rotate(0)"><text x="15.00" y="3.07" style="">MT-hi</text></g><g transform="translate(355.56,273.53)rotate(0)"><text x="15.00" y="3.07" style="">CD4+ActivatedFos-hi</text></g><g transform="translate(355.56,261.76)rotate(0)"><text x="15.00" y="3.07" style="">CD4+PD1+</text></g><g transform="translate(355.56,250.00)rotate(0)"><text x="15.00" y="3.07" style="">CD4+ActivatedFos-lo</text></g><g transform="translate(355.56,238.24)rotate(0)"><text x="15.00" y="3.07" style="">CD4+Memory</text></g><g transform="translate(355.56,226.47)rotate(0)"><text x="15.00" y="3.07" style="">CD8+IL17+</text></g><g transform="translate(355.56,214.71)rotate(0)"><text x="15.00" y="3.07" style="">CyclingT</text></g><g transform="translate(355.56,202.94)rotate(0)"><text x="15.00" y="3.07" style="">CD8+LP</text></g><g transform="translate(355.56,191.18)rotate(0)"><text x="15.00" y="3.07" style="">CD8+IELs</text></g><g transform="translate(355.56,179.41)rotate(0)"><text x="15.00" y="3.07" style="">Plasma</text></g><g transform="translate(355.56,167.65)rotate(0)"><text x="15.00" y="3.07" style="">Follicular</text></g><g transform="translate(355.56,155.88)rotate(0)"><text x="15.00" y="3.07" style="">GC</text></g><g transform="translate(355.56,144.12)rotate(0)"><text x="15.00" y="3.07" style="">CyclingB</text></g><g transform="translate(355.56,132.35)rotate(0)"><text x="15.00" y="3.07" style="">CyclingMonocytes</text></g><g transform="translate(355.56,120.59)rotate(0)"><text x="15.00" y="3.07" style="">InflammatoryMonocytes</text></g><g transform="translate(355.56,108.82)rotate(0)"><text x="15.00" y="3.07" style="">Macrophages</text></g><g transform="translate(355.56,97.06)rotate(0)"><text x="15.00" y="3.07" style="">DC1</text></g><g transform="translate(355.56,85.29)rotate(0)"><text x="15.00" y="3.07" style="">DC2</text></g><g transform="translate(355.56,73.53)rotate(0)"><text x="15.00" y="3.07" style="">CD69-Mast</text></g><g transform="translate(355.56,61.76)rotate(0)"><text x="15.00" y="3.07" style="">CD69+Mast</text></g></g></g><g class="toyplot-mark-Range" style="stroke:none" id="t70569f4eb7c04a358b23cd390b4e3eb4"><g class="toyplot-Series"><rect class="toyplot-Datum" x="361.77777777777777" y="479.4117647058823" width="258.22222222222223" height="11.764705882353041" style="fill:rgb(50.2%,50.2%,50.2%);fill-opacity:1.0;opacity:0.3;stroke:none" /></g></g></g></g><g class="toyplot-coordinates-Cartesian" id="t696c2008457a4ddaa2629d7e72028512"><clipPath id="tbb3df80045a34ea9b4f633ed2684e8df"><rect x="0.0" y="50.0" width="800.0" height="50.0" /></clipPath><g clip-path="url(#tbb3df80045a34ea9b4f633ed2684e8df)" /><g transform="translate(400.0,42.0)"><text x="-107.75100000000002" y="-4.823" style="fill:rgb(16.1%,15.3%,14.1%);fill-opacity:1.0;font-family:helvetica;font-size:14.0px;font-weight:bold;stroke:none;vertical-align:baseline;white-space:pre">Epithelium; Healthy vs. Inflamed</text></g></g><g class="toyplot-coordinates-Cartesian" id="tf9b5dfdb54af46faaf9a881f6663b98b"><clipPath id="tf22f3960e5f74fddaff53b465de84516"><rect x="620.0" y="50.0" width="180.0" height="600.0" /></clipPath><g clip-path="url(#tf22f3960e5f74fddaff53b465de84516)"><g class="toyplot-mark-BarMagnitudes" style="stroke:rgb(100%,100%,100%);stroke-opacity:1.0;stroke-width:1.0" id="t3f68b129b7244a06bbf600df8ca11f8e"><g class="toyplot-Series"><rect class="toyplot-Datum" y="644.1176470588235" x="710.0" height="11.764705882352928" width="0.0" style="fill:rgb(0%,0%,0%);fill-opacity:1.0;opacity:1.0;stroke:rgb(100%,100%,100%);stroke-opacity:1.0;stroke-width:1.0" /><rect class="toyplot-Datum" y="632.3529411764706" x="710.0" height="11.764705882352928" width="0.0" style="fill:rgb(0%,0%,0%);fill-opacity:1.0;opacity:1.0;stroke:rgb(100%,100%,100%);stroke-opacity:1.0;stroke-width:1.0" /><rect class="toyplot-Datum" y="620.5882352941177" x="710.0" height="11.764705882352928" width="0.0" style="fill:rgb(0%,0%,0%);fill-opacity:1.0;opacity:1.0;stroke:rgb(100%,100%,100%);stroke-opacity:1.0;stroke-width:1.0" /><rect class="toyplot-Datum" y="608.8235294117646" x="710.0" height="11.764705882353041" width="0.0" style="fill:rgb(0%,0%,0%);fill-opacity:1.0;opacity:1.0;stroke:rgb(100%,100%,100%);stroke-opacity:1.0;stroke-width:1.0" /><rect class="toyplot-Datum" y="597.0588235294117" x="710.0" height="11.764705882352928" width="0.0" style="fill:rgb(0%,0%,0%);fill-opacity:1.0;opacity:1.0;stroke:rgb(100%,100%,100%);stroke-opacity:1.0;stroke-width:1.0" /><rect class="toyplot-Datum" y="585.2941176470588" x="710.0" height="11.764705882352928" width="0.0" style="fill:rgb(0%,0%,0%);fill-opacity:1.0;opacity:1.0;stroke:rgb(100%,100%,100%);stroke-opacity:1.0;stroke-width:1.0" /><rect class="toyplot-Datum" y="573.5294117647059" x="710.0" height="11.764705882352928" width="0.0" style="fill:rgb(0%,0%,0%);fill-opacity:1.0;opacity:1.0;stroke:rgb(100%,100%,100%);stroke-opacity:1.0;stroke-width:1.0" /><rect class="toyplot-Datum" y="561.7647058823529" x="710.0" height="11.764705882352928" width="0.0" style="fill:rgb(0%,0%,0%);fill-opacity:1.0;opacity:1.0;stroke:rgb(100%,100%,100%);stroke-opacity:1.0;stroke-width:1.0" /><rect class="toyplot-Datum" y="550.0000000000001" x="710.0" height="11.764705882352814" width="0.0" style="fill:rgb(0%,0%,0%);fill-opacity:1.0;opacity:1.0;stroke:rgb(100%,100%,100%);stroke-opacity:1.0;stroke-width:1.0" /><rect class="toyplot-Datum" y="538.2352941176471" x="710.0" height="11.764705882353041" width="0.0" style="fill:rgb(0%,0%,0%);fill-opacity:1.0;opacity:1.0;stroke:rgb(100%,100%,100%);stroke-opacity:1.0;stroke-width:1.0" /><rect class="toyplot-Datum" y="526.4705882352941" x="710.0" height="11.764705882352928" width="0.0" style="fill:rgb(0%,0%,0%);fill-opacity:1.0;opacity:1.0;stroke:rgb(100%,100%,100%);stroke-opacity:1.0;stroke-width:1.0" /><rect class="toyplot-Datum" y="514.7058823529412" x="710.0" height="11.764705882352928" width="0.0" style="fill:rgb(0%,0%,0%);fill-opacity:1.0;opacity:1.0;stroke:rgb(100%,100%,100%);stroke-opacity:1.0;stroke-width:1.0" /><rect class="toyplot-Datum" y="502.94117647058823" x="710.0" height="11.764705882352985" width="0.0" style="fill:rgb(0%,0%,0%);fill-opacity:1.0;opacity:1.0;stroke:rgb(100%,100%,100%);stroke-opacity:1.0;stroke-width:1.0" /><rect class="toyplot-Datum" y="491.17647058823536" x="710.0" height="11.764705882352871" width="0.0" style="fill:rgb(0%,0%,0%);fill-opacity:1.0;opacity:1.0;stroke:rgb(100%,100%,100%);stroke-opacity:1.0;stroke-width:1.0" /><rect class="toyplot-Datum" y="479.4117647058823" x="710.0" height="11.764705882353041" width="0.0" style="fill:rgb(0%,0%,0%);fill-opacity:1.0;opacity:1.0;stroke:rgb(100%,100%,100%);stroke-opacity:1.0;stroke-width:1.0" /><rect class="toyplot-Datum" y="467.6470588235294" x="710.0" height="11.764705882352928" width="0.0" style="fill:rgb(0%,0%,0%);fill-opacity:1.0;opacity:1.0;stroke:rgb(100%,100%,100%);stroke-opacity:1.0;stroke-width:1.0" /><rect class="toyplot-Datum" y="455.8823529411765" x="710.0" height="11.764705882352871" width="0.0" style="fill:rgb(0%,0%,0%);fill-opacity:1.0;opacity:1.0;stroke:rgb(100%,100%,100%);stroke-opacity:1.0;stroke-width:1.0" /><rect class="toyplot-Datum" y="444.11764705882354" x="710.0" height="11.764705882352985" width="0.0" style="fill:rgb(0%,0%,0%);fill-opacity:1.0;opacity:1.0;stroke:rgb(100%,100%,100%);stroke-opacity:1.0;stroke-width:1.0" /><rect class="toyplot-Datum" y="432.35294117647055" x="710.0" height="11.764705882352985" width="0.0" style="fill:rgb(0%,0%,0%);fill-opacity:1.0;opacity:1.0;stroke:rgb(100%,100%,100%);stroke-opacity:1.0;stroke-width:1.0" /><rect class="toyplot-Datum" y="420.5882352941177" x="710.0" height="11.764705882352871" width="0.0" style="fill:rgb(0%,0%,0%);fill-opacity:1.0;opacity:1.0;stroke:rgb(100%,100%,100%);stroke-opacity:1.0;stroke-width:1.0" /><rect class="toyplot-Datum" y="408.8235294117647" x="710.0" height="11.764705882352985" width="0.0" style="fill:rgb(0%,0%,0%);fill-opacity:1.0;opacity:1.0;stroke:rgb(100%,100%,100%);stroke-opacity:1.0;stroke-width:1.0" /><rect class="toyplot-Datum" y="397.0588235294117" x="710.0" height="11.764705882352985" width="0.0" style="fill:rgb(0%,0%,0%);fill-opacity:1.0;opacity:1.0;stroke:rgb(100%,100%,100%);stroke-opacity:1.0;stroke-width:1.0" /><rect class="toyplot-Datum" y="385.29411764705884" x="710.0" height="11.764705882352871" width="0.0" style="fill:rgb(0%,0%,0%);fill-opacity:1.0;opacity:1.0;stroke:rgb(100%,100%,100%);stroke-opacity:1.0;stroke-width:1.0" /><rect class="toyplot-Datum" y="373.52941176470597" x="710.0" height="11.764705882352871" width="0.0" style="fill:rgb(0%,0%,0%);fill-opacity:1.0;opacity:1.0;stroke:rgb(100%,100%,100%);stroke-opacity:1.0;stroke-width:1.0" /><rect class="toyplot-Datum" y="361.76470588235287" x="710.0" height="11.764705882353098" width="0.0" style="fill:rgb(0%,0%,0%);fill-opacity:1.0;opacity:1.0;stroke:rgb(100%,100%,100%);stroke-opacity:1.0;stroke-width:1.0" /><rect class="toyplot-Datum" y="350.0" x="710.0" height="11.764705882352871" width="0.0" style="fill:rgb(0%,0%,0%);fill-opacity:1.0;opacity:1.0;stroke:rgb(100%,100%,100%);stroke-opacity:1.0;stroke-width:1.0" /><rect class="toyplot-Datum" y="338.2352941176471" x="710.0" height="11.764705882352928" width="0.0" style="fill:rgb(0%,0%,0%);fill-opacity:1.0;opacity:1.0;stroke:rgb(100%,100%,100%);stroke-opacity:1.0;stroke-width:1.0" /><rect class="toyplot-Datum" y="326.4705882352941" x="710.0" height="11.764705882352985" width="0.0" style="fill:rgb(0%,0%,0%);fill-opacity:1.0;opacity:1.0;stroke:rgb(100%,100%,100%);stroke-opacity:1.0;stroke-width:1.0" /><rect class="toyplot-Datum" y="314.70588235294116" x="710.0" height="11.764705882352928" width="0.0" style="fill:rgb(0%,0%,0%);fill-opacity:1.0;opacity:1.0;stroke:rgb(100%,100%,100%);stroke-opacity:1.0;stroke-width:1.0" /><rect class="toyplot-Datum" y="302.94117647058823" x="710.0" height="11.764705882352928" width="0.0" style="fill:rgb(0%,0%,0%);fill-opacity:1.0;opacity:1.0;stroke:rgb(100%,100%,100%);stroke-opacity:1.0;stroke-width:1.0" /><rect class="toyplot-Datum" y="291.1764705882353" x="710.0" height="11.764705882352928" width="0.0" style="fill:rgb(0%,0%,0%);fill-opacity:1.0;opacity:1.0;stroke:rgb(100%,100%,100%);stroke-opacity:1.0;stroke-width:1.0" /><rect class="toyplot-Datum" y="279.4117647058823" x="710.0" height="11.764705882352985" width="0.0" style="fill:rgb(0%,0%,0%);fill-opacity:1.0;opacity:1.0;stroke:rgb(100%,100%,100%);stroke-opacity:1.0;stroke-width:1.0" /><rect class="toyplot-Datum" y="267.64705882352945" x="710.0" height="11.764705882352871" width="0.0" style="fill:rgb(0%,0%,0%);fill-opacity:1.0;opacity:1.0;stroke:rgb(100%,100%,100%);stroke-opacity:1.0;stroke-width:1.0" /><rect class="toyplot-Datum" y="255.88235294117646" x="710.0" height="11.764705882352985" width="0.0" style="fill:rgb(0%,0%,0%);fill-opacity:1.0;opacity:1.0;stroke:rgb(100%,100%,100%);stroke-opacity:1.0;stroke-width:1.0" /><rect class="toyplot-Datum" y="244.11764705882354" x="710.0" height="11.764705882352928" width="0.0" style="fill:rgb(0%,0%,0%);fill-opacity:1.0;opacity:1.0;stroke:rgb(100%,100%,100%);stroke-opacity:1.0;stroke-width:1.0" /><rect class="toyplot-Datum" y="232.3529411764706" x="710.0" height="11.764705882352928" width="0.0" style="fill:rgb(0%,0%,0%);fill-opacity:1.0;opacity:1.0;stroke:rgb(100%,100%,100%);stroke-opacity:1.0;stroke-width:1.0" /><rect class="toyplot-Datum" y="220.58823529411762" x="710.0" height="11.764705882352985" width="0.0" style="fill:rgb(0%,0%,0%);fill-opacity:1.0;opacity:1.0;stroke:rgb(100%,100%,100%);stroke-opacity:1.0;stroke-width:1.0" /><rect class="toyplot-Datum" y="208.8235294117647" x="710.0" height="11.764705882352928" width="0.0" style="fill:rgb(0%,0%,0%);fill-opacity:1.0;opacity:1.0;stroke:rgb(100%,100%,100%);stroke-opacity:1.0;stroke-width:1.0" /><rect class="toyplot-Datum" y="197.05882352941177" x="710.0" height="11.764705882352928" width="0.0" style="fill:rgb(0%,0%,0%);fill-opacity:1.0;opacity:1.0;stroke:rgb(100%,100%,100%);stroke-opacity:1.0;stroke-width:1.0" /><rect class="toyplot-Datum" y="185.2941176470588" x="710.0" height="11.764705882352956" width="0.0" style="fill:rgb(0%,0%,0%);fill-opacity:1.0;opacity:1.0;stroke:rgb(100%,100%,100%);stroke-opacity:1.0;stroke-width:1.0" /><rect class="toyplot-Datum" y="173.5294117647059" x="710.0" height="11.7647058823529" width="0.0" style="fill:rgb(0%,0%,0%);fill-opacity:1.0;opacity:1.0;stroke:rgb(100%,100%,100%);stroke-opacity:1.0;stroke-width:1.0" /><rect class="toyplot-Datum" y="161.76470588235293" x="710.0" height="11.764705882352985" width="0.0" style="fill:rgb(0%,0%,0%);fill-opacity:1.0;opacity:1.0;stroke:rgb(100%,100%,100%);stroke-opacity:1.0;stroke-width:1.0" /><rect class="toyplot-Datum" y="150.0" x="710.0" height="11.764705882352928" width="0.0" style="fill:rgb(0%,0%,0%);fill-opacity:1.0;opacity:1.0;stroke:rgb(100%,100%,100%);stroke-opacity:1.0;stroke-width:1.0" /><rect class="toyplot-Datum" y="138.23529411764707" x="710.0" height="11.764705882352928" width="0.0" style="fill:rgb(0%,0%,0%);fill-opacity:1.0;opacity:1.0;stroke:rgb(100%,100%,100%);stroke-opacity:1.0;stroke-width:1.0" /><rect class="toyplot-Datum" y="126.47058823529412" x="710.0" height="11.764705882352956" width="0.0" style="fill:rgb(0%,0%,0%);fill-opacity:1.0;opacity:1.0;stroke:rgb(100%,100%,100%);stroke-opacity:1.0;stroke-width:1.0" /><rect class="toyplot-Datum" y="114.70588235294115" x="710.0" height="11.76470588235297" width="0.0" style="fill:rgb(0%,0%,0%);fill-opacity:1.0;opacity:1.0;stroke:rgb(100%,100%,100%);stroke-opacity:1.0;stroke-width:1.0" /><rect class="toyplot-Datum" y="102.94117647058825" x="710.0" height="11.7647058823529" width="0.0" style="fill:rgb(0%,0%,0%);fill-opacity:1.0;opacity:1.0;stroke:rgb(100%,100%,100%);stroke-opacity:1.0;stroke-width:1.0" /><rect class="toyplot-Datum" y="91.17647058823528" x="710.0" height="11.76470588235297" width="0.0" style="fill:rgb(0%,0%,0%);fill-opacity:1.0;opacity:1.0;stroke:rgb(100%,100%,100%);stroke-opacity:1.0;stroke-width:1.0" /><rect class="toyplot-Datum" y="79.41176470588238" x="710.0" height="11.7647058823529" width="0.0" style="fill:rgb(0%,0%,0%);fill-opacity:1.0;opacity:1.0;stroke:rgb(100%,100%,100%);stroke-opacity:1.0;stroke-width:1.0" /><rect class="toyplot-Datum" y="67.64705882352942" x="710.0" height="11.764705882352956" width="0.0" style="fill:rgb(0%,0%,0%);fill-opacity:1.0;opacity:1.0;stroke:rgb(100%,100%,100%);stroke-opacity:1.0;stroke-width:1.0" /><rect class="toyplot-Datum" y="55.88235294117645" x="710.0" height="11.76470588235297" width="0.0" style="fill:rgb(0%,0%,0%);fill-opacity:1.0;opacity:1.0;stroke:rgb(100%,100%,100%);stroke-opacity:1.0;stroke-width:1.0" /></g></g><g class="toyplot-mark-AxisLines" style="" id="t2af3e13ff479414c96d38bddd3482485"><g class="toyplot-Series"><line class="toyplot-Datum" x1="710.0" x2="710.0" y1="50.0" y2="650.0" style="opacity:1.0;stroke:rgb(16.1%,15.3%,14.1%);stroke-opacity:1.0" /></g></g><g class="toyplot-mark-Range" style="stroke:none" id="t45296ceea0644fd6b6ad69a2fd827c74"><g class="toyplot-Series"><rect class="toyplot-Datum" x="620.0" y="479.4117647058823" width="180.0" height="11.764705882353041" style="fill:rgb(50.2%,50.2%,50.2%);fill-opacity:1.0;opacity:0.3;stroke:none" /></g></g></g><g class="toyplot-coordinates-Axis" id="t6826865d8b7e43789a7a82f990698a97" transform="translate(620.0,650.0)"><line x1="0" y1="0" x2="180.0" y2="0" style="" /><g><line x1="0.0" y1="0" x2="0.0" y2="-5" style="" /><line x1="90.0" y1="0" x2="90.0" y2="-5" style="" /><line x1="180.0" y1="0" x2="180.0" y2="-5" style="" /></g><g><g transform="translate(0.0,6)"><text x="-8.615" y="8.555" style="fill:rgb(16.1%,15.3%,14.1%);fill-opacity:1.0;font-family:helvetica;font-size:10.0px;font-weight:normal;stroke:none;vertical-align:baseline;white-space:pre">-0.5</text></g><g transform="translate(90.0,6)"><text x="-6.95" y="8.555" style="fill:rgb(16.1%,15.3%,14.1%);fill-opacity:1.0;font-family:helvetica;font-size:10.0px;font-weight:normal;stroke:none;vertical-align:baseline;white-space:pre">0.0</text></g><g transform="translate(180.0,6)"><text x="-6.95" y="8.555" style="fill:rgb(16.1%,15.3%,14.1%);fill-opacity:1.0;font-family:helvetica;font-size:10.0px;font-weight:normal;stroke:none;vertical-align:baseline;white-space:pre">0.5</text></g></g><g transform="translate(90.0,22)"><text x="-16.668" y="10.265999999999998" style="fill:rgb(16.1%,15.3%,14.1%);fill-opacity:1.0;font-family:helvetica;font-size:12.0px;font-weight:bold;stroke:none;vertical-align:baseline;white-space:pre">Effect</text></g><g class="toyplot-coordinates-Axis-coordinates" style="visibility:hidden" transform=""><line x1="0" x2="0" y1="-3.0" y2="4.5" style="stroke:rgb(43.9%,50.2%,56.5%);stroke-opacity:1.0;stroke-width:1.0" /><text x="0" y="-6" style="alignment-baseline:alphabetic;fill:rgb(43.9%,50.2%,56.5%);fill-opacity:1.0;font-size:10px;font-weight:normal;stroke:none;text-anchor:middle" /></g></g></g><g class="toyplot-coordinates-Table" id="t419159d818d5418ca48b36520ff8eeff"><g transform="translate(75.0,300.0)"><text x="-44.737" y="-10.423" style="fill:rgb(16.1%,15.3%,14.1%);fill-opacity:1.0;font-family:helvetica;font-size:14.0px;font-weight:bold;stroke:none;vertical-align:baseline;white-space:pre">Major lineage</text></g><g transform="translate(70.0,313.33333333333337)"><g style="fill:rgb(100%,64.7%,0%);fill-opacity:1.0" transform="translate(-5.55, -4.440892098500626e-16)"><circle r="4.0" /></g></g><g transform="translate(80.0,313.33333333333337)"><text x="0" y="3.066" style="fill:rgb(16.1%,15.3%,14.1%);fill-opacity:1.0;font-family:helvetica;font-size:12.0px;font-weight:normal;stroke:none;vertical-align:baseline;white-space:pre">Stromal</text></g><g transform="translate(70.0,340.0)"><g style="fill:rgb(50.2%,0%,50.2%);fill-opacity:1.0" transform="translate(-5.55, -4.440892098500626e-16)"><circle r="4.0" /></g></g><g transform="translate(80.0,340.0)"><text x="0" y="3.066" style="fill:rgb(16.1%,15.3%,14.1%);fill-opacity:1.0;font-family:helvetica;font-size:12.0px;font-weight:normal;stroke:none;vertical-align:baseline;white-space:pre">Immune</text></g><g transform="translate(70.0,366.66666666666663)"><g style="fill:rgb(0%,50.2%,0%);fill-opacity:1.0" transform="translate(-5.55, -4.440892098500626e-16)"><circle r="4.0" /></g></g><g transform="translate(80.0,366.66666666666663)"><text x="0" y="3.066" style="fill:rgb(16.1%,15.3%,14.1%);fill-opacity:1.0;font-family:helvetica;font-size:12.0px;font-weight:normal;stroke:none;vertical-align:baseline;white-space:pre">Epithelial</text></g></g><g class="toyplot-coordinates-Table" id="t03406556e912481a83cc233ad84d3130"><g transform="translate(75.0,420.0)"><text x="-23.337999999999997" y="-10.423" style="fill:rgb(16.1%,15.3%,14.1%);fill-opacity:1.0;font-family:helvetica;font-size:14.0px;font-weight:bold;stroke:none;vertical-align:baseline;white-space:pre">Effects</text></g><g transform="translate(70.0,440.0)"><g style="fill:rgb(0%,0%,0%);fill-opacity:1.0" transform="translate(-5.55, -4.440892098500626e-16)"><circle r="10.0" /></g></g><g transform="translate(80.0,440.0)"><text x="0" y="3.066" style="fill:rgb(16.1%,15.3%,14.1%);fill-opacity:1.0;font-family:helvetica;font-size:12.0px;font-weight:normal;stroke:none;vertical-align:baseline;white-space:pre">0.0</text></g><g transform="translate(70.0,480.0)"><g style="fill:rgb(100%,100%,100%);fill-opacity:1.0" transform="translate(-5.55, -4.440892098500626e-16)"><circle r="10.0" /></g></g><g transform="translate(80.0,480.0)"><text x="0" y="3.066" style="fill:rgb(16.1%,15.3%,14.1%);fill-opacity:1.0;font-family:helvetica;font-size:12.0px;font-weight:normal;stroke:none;vertical-align:baseline;white-space:pre">-0.0</text></g></g></svg>