<?xml version="1.0" encoding="utf-8" standalone="no"?>
<!DOCTYPE svg PUBLIC "-//W3C//DTD SVG 1.1//EN"
  "http://www.w3.org/Graphics/SVG/1.1/DTD/svg11.dtd">
<!-- Created with matplotlib (https://matplotlib.org/) -->
<svg height="472.3628pt" version="1.1" viewBox="0 0 543.515975 472.3628" width="543.515975pt" xmlns="http://www.w3.org/2000/svg" xmlns:xlink="http://www.w3.org/1999/xlink">
 <metadata>
  <rdf:RDF xmlns:cc="http://creativecommons.org/ns#" xmlns:dc="http://purl.org/dc/elements/1.1/" xmlns:rdf="http://www.w3.org/1999/02/22-rdf-syntax-ns#">
   <cc:Work>
    <dc:type rdf:resource="http://purl.org/dc/dcmitype/StillImage"/>
    <dc:date>2021-08-21T09:49:25.141177</dc:date>
    <dc:format>image/svg+xml</dc:format>
    <dc:creator>
     <cc:Agent>
      <dc:title>Matplotlib v3.3.3, https://matplotlib.org/</dc:title>
     </cc:Agent>
    </dc:creator>
   </cc:Work>
  </rdf:RDF>
 </metadata>
 <defs>
  <style type="text/css">*{stroke-linecap:butt;stroke-linejoin:round;}</style>
 </defs>
 <g id="figure_1">
  <g id="patch_1">
   <path d="M 0 472.3628 
L 543.515975 472.3628 
L 543.515975 0 
L 0 0 
z
" style="fill:#ffffff;"/>
  </g>
  <g id="axes_1">
   <g id="patch_2">
    <path d="M 43.636775 224.64 
L 378.436775 224.64 
L 378.436775 7.2 
L 43.636775 7.2 
z
" style="fill:#ffffff;"/>
   </g>
   <g id="matplotlib.axis_1">
    <g id="xtick_1">
     <g id="line2d_1">
      <defs>
       <path d="M 0 0 
L 0 4.8 
" id="m8ba75cdd2c" style="stroke:#262626;"/>
      </defs>
      <g>
       <use style="fill:#262626;stroke:#262626;" x="71.536775" xlink:href="#m8ba75cdd2c" y="224.64"/>
      </g>
     </g>
     <g id="text_1">
      <!-- Epithelium; Healthy vs. Non-inflamed -->
      <g style="fill:#262626;" transform="translate(74.496875 420.500588)rotate(-90)scale(0.1144 -0.1144)">
       <defs>
        <path d="M 7.90625 0 
L 7.90625 71.578125 
L 59.671875 71.578125 
L 59.671875 63.140625 
L 17.390625 63.140625 
L 17.390625 41.21875 
L 56.984375 41.21875 
L 56.984375 32.8125 
L 17.390625 32.8125 
L 17.390625 8.453125 
L 61.328125 8.453125 
L 61.328125 0 
z
" id="ArialMT-69"/>
        <path d="M 6.59375 -19.875 
L 6.59375 51.859375 
L 14.59375 51.859375 
L 14.59375 45.125 
Q 17.4375 49.078125 21 51.046875 
Q 24.5625 53.03125 29.640625 53.03125 
Q 36.28125 53.03125 41.359375 49.609375 
Q 46.4375 46.1875 49.015625 39.953125 
Q 51.609375 33.734375 51.609375 26.3125 
Q 51.609375 18.359375 48.75 11.984375 
Q 45.90625 5.609375 40.453125 2.21875 
Q 35.015625 -1.171875 29 -1.171875 
Q 24.609375 -1.171875 21.109375 0.6875 
Q 17.625 2.546875 15.375 5.375 
L 15.375 -19.875 
z
M 14.546875 25.640625 
Q 14.546875 15.625 18.59375 10.84375 
Q 22.65625 6.0625 28.421875 6.0625 
Q 34.28125 6.0625 38.453125 11.015625 
Q 42.625 15.96875 42.625 26.375 
Q 42.625 36.28125 38.546875 41.203125 
Q 34.46875 46.140625 28.8125 46.140625 
Q 23.1875 46.140625 18.859375 40.890625 
Q 14.546875 35.640625 14.546875 25.640625 
z
" id="ArialMT-112"/>
        <path d="M 6.640625 61.46875 
L 6.640625 71.578125 
L 15.4375 71.578125 
L 15.4375 61.46875 
z
M 6.640625 0 
L 6.640625 51.859375 
L 15.4375 51.859375 
L 15.4375 0 
z
" id="ArialMT-105"/>
        <path d="M 25.78125 7.859375 
L 27.046875 0.09375 
Q 23.34375 -0.6875 20.40625 -0.6875 
Q 15.625 -0.6875 12.984375 0.828125 
Q 10.359375 2.34375 9.28125 4.8125 
Q 8.203125 7.28125 8.203125 15.1875 
L 8.203125 45.015625 
L 1.765625 45.015625 
L 1.765625 51.859375 
L 8.203125 51.859375 
L 8.203125 64.703125 
L 16.9375 69.96875 
L 16.9375 51.859375 
L 25.78125 51.859375 
L 25.78125 45.015625 
L 16.9375 45.015625 
L 16.9375 14.703125 
Q 16.9375 10.9375 17.40625 9.859375 
Q 17.875 8.796875 18.921875 8.15625 
Q 19.96875 7.515625 21.921875 7.515625 
Q 23.390625 7.515625 25.78125 7.859375 
z
" id="ArialMT-116"/>
        <path d="M 6.59375 0 
L 6.59375 71.578125 
L 15.375 71.578125 
L 15.375 45.90625 
Q 21.53125 53.03125 30.90625 53.03125 
Q 36.671875 53.03125 40.921875 50.75 
Q 45.171875 48.484375 47 44.484375 
Q 48.828125 40.484375 48.828125 32.859375 
L 48.828125 0 
L 40.046875 0 
L 40.046875 32.859375 
Q 40.046875 39.453125 37.1875 42.453125 
Q 34.328125 45.453125 29.109375 45.453125 
Q 25.203125 45.453125 21.75 43.421875 
Q 18.3125 41.40625 16.84375 37.9375 
Q 15.375 34.46875 15.375 28.375 
L 15.375 0 
z
" id="ArialMT-104"/>
        <path d="M 42.09375 16.703125 
L 51.171875 15.578125 
Q 49.03125 7.625 43.21875 3.21875 
Q 37.40625 -1.171875 28.375 -1.171875 
Q 17 -1.171875 10.328125 5.828125 
Q 3.65625 12.84375 3.65625 25.484375 
Q 3.65625 38.578125 10.390625 45.796875 
Q 17.140625 53.03125 27.875 53.03125 
Q 38.28125 53.03125 44.875 45.953125 
Q 51.46875 38.875 51.46875 26.03125 
Q 51.46875 25.25 51.421875 23.6875 
L 12.75 23.6875 
Q 13.234375 15.140625 17.578125 10.59375 
Q 21.921875 6.0625 28.421875 6.0625 
Q 33.25 6.0625 36.671875 8.59375 
Q 40.09375 11.140625 42.09375 16.703125 
z
M 13.234375 30.90625 
L 42.1875 30.90625 
Q 41.609375 37.453125 38.875 40.71875 
Q 34.671875 45.796875 27.984375 45.796875 
Q 21.921875 45.796875 17.796875 41.75 
Q 13.671875 37.703125 13.234375 30.90625 
z
" id="ArialMT-101"/>
        <path d="M 6.390625 0 
L 6.390625 71.578125 
L 15.1875 71.578125 
L 15.1875 0 
z
" id="ArialMT-108"/>
        <path d="M 40.578125 0 
L 40.578125 7.625 
Q 34.515625 -1.171875 24.125 -1.171875 
Q 19.53125 -1.171875 15.546875 0.578125 
Q 11.578125 2.34375 9.640625 5 
Q 7.71875 7.671875 6.9375 11.53125 
Q 6.390625 14.109375 6.390625 19.734375 
L 6.390625 51.859375 
L 15.1875 51.859375 
L 15.1875 23.09375 
Q 15.1875 16.21875 15.71875 13.8125 
Q 16.546875 10.359375 19.234375 8.375 
Q 21.921875 6.390625 25.875 6.390625 
Q 29.828125 6.390625 33.296875 8.421875 
Q 36.765625 10.453125 38.203125 13.9375 
Q 39.65625 17.4375 39.65625 24.078125 
L 39.65625 51.859375 
L 48.4375 51.859375 
L 48.4375 0 
z
" id="ArialMT-117"/>
        <path d="M 6.59375 0 
L 6.59375 51.859375 
L 14.453125 51.859375 
L 14.453125 44.578125 
Q 16.890625 48.390625 20.9375 50.703125 
Q 25 53.03125 30.171875 53.03125 
Q 35.9375 53.03125 39.625 50.640625 
Q 43.3125 48.25 44.828125 43.953125 
Q 50.984375 53.03125 60.84375 53.03125 
Q 68.5625 53.03125 72.703125 48.75 
Q 76.859375 44.484375 76.859375 35.59375 
L 76.859375 0 
L 68.109375 0 
L 68.109375 32.671875 
Q 68.109375 37.9375 67.25 40.25 
Q 66.40625 42.578125 64.15625 43.984375 
Q 61.921875 45.40625 58.890625 45.40625 
Q 53.421875 45.40625 49.796875 41.765625 
Q 46.1875 38.140625 46.1875 30.125 
L 46.1875 0 
L 37.40625 0 
L 37.40625 33.6875 
Q 37.40625 39.546875 35.25 42.46875 
Q 33.109375 45.40625 28.21875 45.40625 
Q 24.515625 45.40625 21.359375 43.453125 
Q 18.21875 41.5 16.796875 37.734375 
Q 15.375 33.984375 15.375 26.90625 
L 15.375 0 
z
" id="ArialMT-109"/>
        <path d="M 8.890625 41.84375 
L 8.890625 51.859375 
L 18.890625 51.859375 
L 18.890625 41.84375 
z
M 8.890625 0 
L 8.890625 10.015625 
L 18.890625 10.015625 
L 18.890625 0 
Q 18.890625 -5.515625 16.9375 -8.90625 
Q 14.984375 -12.3125 10.75 -14.15625 
L 8.296875 -10.40625 
Q 11.078125 -9.1875 12.390625 -6.8125 
Q 13.71875 -4.4375 13.875 0 
z
" id="ArialMT-59"/>
        <path id="ArialMT-32"/>
        <path d="M 8.015625 0 
L 8.015625 71.578125 
L 17.484375 71.578125 
L 17.484375 42.1875 
L 54.6875 42.1875 
L 54.6875 71.578125 
L 64.15625 71.578125 
L 64.15625 0 
L 54.6875 0 
L 54.6875 33.734375 
L 17.484375 33.734375 
L 17.484375 0 
z
" id="ArialMT-72"/>
        <path d="M 40.4375 6.390625 
Q 35.546875 2.25 31.03125 0.53125 
Q 26.515625 -1.171875 21.34375 -1.171875 
Q 12.796875 -1.171875 8.203125 3 
Q 3.609375 7.171875 3.609375 13.671875 
Q 3.609375 17.484375 5.34375 20.625 
Q 7.078125 23.78125 9.890625 25.6875 
Q 12.703125 27.59375 16.21875 28.5625 
Q 18.796875 29.25 24.03125 29.890625 
Q 34.671875 31.15625 39.703125 32.90625 
Q 39.75 34.71875 39.75 35.203125 
Q 39.75 40.578125 37.25 42.78125 
Q 33.890625 45.75 27.25 45.75 
Q 21.046875 45.75 18.09375 43.578125 
Q 15.140625 41.40625 13.71875 35.890625 
L 5.125 37.0625 
Q 6.296875 42.578125 8.984375 45.96875 
Q 11.671875 49.359375 16.75 51.1875 
Q 21.828125 53.03125 28.515625 53.03125 
Q 35.15625 53.03125 39.296875 51.46875 
Q 43.453125 49.90625 45.40625 47.53125 
Q 47.359375 45.171875 48.140625 41.546875 
Q 48.578125 39.3125 48.578125 33.453125 
L 48.578125 21.734375 
Q 48.578125 9.46875 49.140625 6.21875 
Q 49.703125 2.984375 51.375 0 
L 42.1875 0 
Q 40.828125 2.734375 40.4375 6.390625 
z
M 39.703125 26.03125 
Q 34.90625 24.078125 25.34375 22.703125 
Q 19.921875 21.921875 17.671875 20.9375 
Q 15.4375 19.96875 14.203125 18.09375 
Q 12.984375 16.21875 12.984375 13.921875 
Q 12.984375 10.40625 15.640625 8.0625 
Q 18.3125 5.71875 23.4375 5.71875 
Q 28.515625 5.71875 32.46875 7.9375 
Q 36.421875 10.15625 38.28125 14.015625 
Q 39.703125 17 39.703125 22.796875 
z
" id="ArialMT-97"/>
        <path d="M 6.203125 -19.96875 
L 5.21875 -11.71875 
Q 8.109375 -12.5 10.25 -12.5 
Q 13.1875 -12.5 14.9375 -11.515625 
Q 16.703125 -10.546875 17.828125 -8.796875 
Q 18.65625 -7.46875 20.515625 -2.25 
Q 20.75 -1.515625 21.296875 -0.09375 
L 1.609375 51.859375 
L 11.078125 51.859375 
L 21.875 21.828125 
Q 23.96875 16.109375 25.640625 9.8125 
Q 27.15625 15.875 29.25 21.625 
L 40.328125 51.859375 
L 49.125 51.859375 
L 29.390625 -0.875 
Q 26.21875 -9.421875 24.46875 -12.640625 
Q 22.125 -17 19.09375 -19.015625 
Q 16.0625 -21.046875 11.859375 -21.046875 
Q 9.328125 -21.046875 6.203125 -19.96875 
z
" id="ArialMT-121"/>
        <path d="M 21 0 
L 1.265625 51.859375 
L 10.546875 51.859375 
L 21.6875 20.796875 
Q 23.484375 15.765625 25 10.359375 
Q 26.171875 14.453125 28.265625 20.21875 
L 39.796875 51.859375 
L 48.828125 51.859375 
L 29.203125 0 
z
" id="ArialMT-118"/>
        <path d="M 3.078125 15.484375 
L 11.765625 16.84375 
Q 12.5 11.625 15.84375 8.84375 
Q 19.1875 6.0625 25.203125 6.0625 
Q 31.25 6.0625 34.171875 8.515625 
Q 37.109375 10.984375 37.109375 14.3125 
Q 37.109375 17.28125 34.515625 19 
Q 32.71875 20.171875 25.53125 21.96875 
Q 15.875 24.421875 12.140625 26.203125 
Q 8.40625 27.984375 6.46875 31.125 
Q 4.546875 34.28125 4.546875 38.09375 
Q 4.546875 41.546875 6.125 44.5 
Q 7.71875 47.46875 10.453125 49.421875 
Q 12.5 50.921875 16.03125 51.96875 
Q 19.578125 53.03125 23.640625 53.03125 
Q 29.734375 53.03125 34.34375 51.265625 
Q 38.96875 49.515625 41.15625 46.5 
Q 43.359375 43.5 44.1875 38.484375 
L 35.59375 37.3125 
Q 35.015625 41.3125 32.203125 43.546875 
Q 29.390625 45.796875 24.265625 45.796875 
Q 18.21875 45.796875 15.625 43.796875 
Q 13.03125 41.796875 13.03125 39.109375 
Q 13.03125 37.40625 14.109375 36.03125 
Q 15.1875 34.625 17.484375 33.6875 
Q 18.796875 33.203125 25.25 31.453125 
Q 34.578125 28.953125 38.25 27.359375 
Q 41.9375 25.78125 44.03125 22.75 
Q 46.140625 19.734375 46.140625 15.234375 
Q 46.140625 10.84375 43.578125 6.953125 
Q 41.015625 3.078125 36.171875 0.953125 
Q 31.34375 -1.171875 25.25 -1.171875 
Q 15.140625 -1.171875 9.84375 3.03125 
Q 4.546875 7.234375 3.078125 15.484375 
z
" id="ArialMT-115"/>
        <path d="M 9.078125 0 
L 9.078125 10.015625 
L 19.09375 10.015625 
L 19.09375 0 
z
" id="ArialMT-46"/>
        <path d="M 7.625 0 
L 7.625 71.578125 
L 17.328125 71.578125 
L 54.9375 15.375 
L 54.9375 71.578125 
L 64.015625 71.578125 
L 64.015625 0 
L 54.296875 0 
L 16.703125 56.25 
L 16.703125 0 
z
" id="ArialMT-78"/>
        <path d="M 3.328125 25.921875 
Q 3.328125 40.328125 11.328125 47.265625 
Q 18.015625 53.03125 27.640625 53.03125 
Q 38.328125 53.03125 45.109375 46.015625 
Q 51.90625 39.015625 51.90625 26.65625 
Q 51.90625 16.65625 48.90625 10.90625 
Q 45.90625 5.171875 40.15625 2 
Q 34.421875 -1.171875 27.640625 -1.171875 
Q 16.75 -1.171875 10.03125 5.8125 
Q 3.328125 12.796875 3.328125 25.921875 
z
M 12.359375 25.921875 
Q 12.359375 15.96875 16.703125 11.015625 
Q 21.046875 6.0625 27.640625 6.0625 
Q 34.1875 6.0625 38.53125 11.03125 
Q 42.875 16.015625 42.875 26.21875 
Q 42.875 35.84375 38.5 40.796875 
Q 34.125 45.75 27.640625 45.75 
Q 21.046875 45.75 16.703125 40.8125 
Q 12.359375 35.890625 12.359375 25.921875 
z
" id="ArialMT-111"/>
        <path d="M 6.59375 0 
L 6.59375 51.859375 
L 14.5 51.859375 
L 14.5 44.484375 
Q 20.21875 53.03125 31 53.03125 
Q 35.6875 53.03125 39.625 51.34375 
Q 43.5625 49.65625 45.515625 46.921875 
Q 47.46875 44.1875 48.25 40.4375 
Q 48.734375 37.984375 48.734375 31.890625 
L 48.734375 0 
L 39.9375 0 
L 39.9375 31.546875 
Q 39.9375 36.921875 38.90625 39.578125 
Q 37.890625 42.234375 35.28125 43.8125 
Q 32.671875 45.40625 29.15625 45.40625 
Q 23.53125 45.40625 19.453125 41.84375 
Q 15.375 38.28125 15.375 28.328125 
L 15.375 0 
z
" id="ArialMT-110"/>
        <path d="M 3.171875 21.484375 
L 3.171875 30.328125 
L 30.171875 30.328125 
L 30.171875 21.484375 
z
" id="ArialMT-45"/>
        <path d="M 8.6875 0 
L 8.6875 45.015625 
L 0.921875 45.015625 
L 0.921875 51.859375 
L 8.6875 51.859375 
L 8.6875 57.375 
Q 8.6875 62.59375 9.625 65.140625 
Q 10.890625 68.5625 14.078125 70.671875 
Q 17.28125 72.796875 23.046875 72.796875 
Q 26.765625 72.796875 31.25 71.921875 
L 29.9375 64.265625 
Q 27.203125 64.75 24.75 64.75 
Q 20.75 64.75 19.09375 63.03125 
Q 17.4375 61.328125 17.4375 56.640625 
L 17.4375 51.859375 
L 27.546875 51.859375 
L 27.546875 45.015625 
L 17.4375 45.015625 
L 17.4375 0 
z
" id="ArialMT-102"/>
        <path d="M 40.234375 0 
L 40.234375 6.546875 
Q 35.296875 -1.171875 25.734375 -1.171875 
Q 19.53125 -1.171875 14.328125 2.25 
Q 9.125 5.671875 6.265625 11.796875 
Q 3.421875 17.921875 3.421875 25.875 
Q 3.421875 33.640625 6 39.96875 
Q 8.59375 46.296875 13.765625 49.65625 
Q 18.953125 53.03125 25.34375 53.03125 
Q 30.03125 53.03125 33.6875 51.046875 
Q 37.359375 49.078125 39.65625 45.90625 
L 39.65625 71.578125 
L 48.390625 71.578125 
L 48.390625 0 
z
M 12.453125 25.875 
Q 12.453125 15.921875 16.640625 10.984375 
Q 20.84375 6.0625 26.5625 6.0625 
Q 32.328125 6.0625 36.34375 10.765625 
Q 40.375 15.484375 40.375 25.140625 
Q 40.375 35.796875 36.265625 40.765625 
Q 32.171875 45.75 26.171875 45.75 
Q 20.3125 45.75 16.375 40.96875 
Q 12.453125 36.1875 12.453125 25.875 
z
" id="ArialMT-100"/>
       </defs>
       <use xlink:href="#ArialMT-69"/>
       <use x="66.699219" xlink:href="#ArialMT-112"/>
       <use x="122.314453" xlink:href="#ArialMT-105"/>
       <use x="144.53125" xlink:href="#ArialMT-116"/>
       <use x="172.314453" xlink:href="#ArialMT-104"/>
       <use x="227.929688" xlink:href="#ArialMT-101"/>
       <use x="283.544922" xlink:href="#ArialMT-108"/>
       <use x="305.761719" xlink:href="#ArialMT-105"/>
       <use x="327.978516" xlink:href="#ArialMT-117"/>
       <use x="383.59375" xlink:href="#ArialMT-109"/>
       <use x="466.894531" xlink:href="#ArialMT-59"/>
       <use x="494.677734" xlink:href="#ArialMT-32"/>
       <use x="522.460938" xlink:href="#ArialMT-72"/>
       <use x="594.677734" xlink:href="#ArialMT-101"/>
       <use x="650.292969" xlink:href="#ArialMT-97"/>
       <use x="705.908203" xlink:href="#ArialMT-108"/>
       <use x="728.125" xlink:href="#ArialMT-116"/>
       <use x="755.908203" xlink:href="#ArialMT-104"/>
       <use x="811.523438" xlink:href="#ArialMT-121"/>
       <use x="861.523438" xlink:href="#ArialMT-32"/>
       <use x="889.306641" xlink:href="#ArialMT-118"/>
       <use x="939.306641" xlink:href="#ArialMT-115"/>
       <use x="989.306641" xlink:href="#ArialMT-46"/>
       <use x="1017.089844" xlink:href="#ArialMT-32"/>
       <use x="1044.873047" xlink:href="#ArialMT-78"/>
       <use x="1117.089844" xlink:href="#ArialMT-111"/>
       <use x="1172.705078" xlink:href="#ArialMT-110"/>
       <use x="1228.320312" xlink:href="#ArialMT-45"/>
       <use x="1261.621094" xlink:href="#ArialMT-105"/>
       <use x="1283.837891" xlink:href="#ArialMT-110"/>
       <use x="1339.453125" xlink:href="#ArialMT-102"/>
       <use x="1367.236328" xlink:href="#ArialMT-108"/>
       <use x="1389.453125" xlink:href="#ArialMT-97"/>
       <use x="1445.068359" xlink:href="#ArialMT-109"/>
       <use x="1528.369141" xlink:href="#ArialMT-101"/>
       <use x="1583.984375" xlink:href="#ArialMT-100"/>
      </g>
     </g>
    </g>
    <g id="xtick_2">
     <g id="line2d_2">
      <g>
       <use style="fill:#262626;stroke:#262626;" x="127.336775" xlink:href="#m8ba75cdd2c" y="224.64"/>
      </g>
     </g>
     <g id="text_2">
      <!-- Epithelium; Healthy vs. Inflamed -->
      <g style="fill:#262626;" transform="translate(130.296875 396.342525)rotate(-90)scale(0.1144 -0.1144)">
       <defs>
        <path d="M 9.328125 0 
L 9.328125 71.578125 
L 18.796875 71.578125 
L 18.796875 0 
z
" id="ArialMT-73"/>
       </defs>
       <use xlink:href="#ArialMT-69"/>
       <use x="66.699219" xlink:href="#ArialMT-112"/>
       <use x="122.314453" xlink:href="#ArialMT-105"/>
       <use x="144.53125" xlink:href="#ArialMT-116"/>
       <use x="172.314453" xlink:href="#ArialMT-104"/>
       <use x="227.929688" xlink:href="#ArialMT-101"/>
       <use x="283.544922" xlink:href="#ArialMT-108"/>
       <use x="305.761719" xlink:href="#ArialMT-105"/>
       <use x="327.978516" xlink:href="#ArialMT-117"/>
       <use x="383.59375" xlink:href="#ArialMT-109"/>
       <use x="466.894531" xlink:href="#ArialMT-59"/>
       <use x="494.677734" xlink:href="#ArialMT-32"/>
       <use x="522.460938" xlink:href="#ArialMT-72"/>
       <use x="594.677734" xlink:href="#ArialMT-101"/>
       <use x="650.292969" xlink:href="#ArialMT-97"/>
       <use x="705.908203" xlink:href="#ArialMT-108"/>
       <use x="728.125" xlink:href="#ArialMT-116"/>
       <use x="755.908203" xlink:href="#ArialMT-104"/>
       <use x="811.523438" xlink:href="#ArialMT-121"/>
       <use x="861.523438" xlink:href="#ArialMT-32"/>
       <use x="889.306641" xlink:href="#ArialMT-118"/>
       <use x="939.306641" xlink:href="#ArialMT-115"/>
       <use x="989.306641" xlink:href="#ArialMT-46"/>
       <use x="1017.089844" xlink:href="#ArialMT-32"/>
       <use x="1044.873047" xlink:href="#ArialMT-73"/>
       <use x="1072.65625" xlink:href="#ArialMT-110"/>
       <use x="1128.271484" xlink:href="#ArialMT-102"/>
       <use x="1156.054688" xlink:href="#ArialMT-108"/>
       <use x="1178.271484" xlink:href="#ArialMT-97"/>
       <use x="1233.886719" xlink:href="#ArialMT-109"/>
       <use x="1317.1875" xlink:href="#ArialMT-101"/>
       <use x="1372.802734" xlink:href="#ArialMT-100"/>
      </g>
     </g>
    </g>
    <g id="xtick_3">
     <g id="line2d_3">
      <g>
       <use style="fill:#262626;stroke:#262626;" x="183.136775" xlink:href="#m8ba75cdd2c" y="224.64"/>
      </g>
     </g>
     <g id="text_3">
      <!-- Epithelium; Non-inflamed vs. Inflamed -->
      <g style="fill:#262626;" transform="translate(186.163906 425.587813)rotate(-90)scale(0.1144 -0.1144)">
       <use xlink:href="#ArialMT-69"/>
       <use x="66.699219" xlink:href="#ArialMT-112"/>
       <use x="122.314453" xlink:href="#ArialMT-105"/>
       <use x="144.53125" xlink:href="#ArialMT-116"/>
       <use x="172.314453" xlink:href="#ArialMT-104"/>
       <use x="227.929688" xlink:href="#ArialMT-101"/>
       <use x="283.544922" xlink:href="#ArialMT-108"/>
       <use x="305.761719" xlink:href="#ArialMT-105"/>
       <use x="327.978516" xlink:href="#ArialMT-117"/>
       <use x="383.59375" xlink:href="#ArialMT-109"/>
       <use x="466.894531" xlink:href="#ArialMT-59"/>
       <use x="494.677734" xlink:href="#ArialMT-32"/>
       <use x="522.460938" xlink:href="#ArialMT-78"/>
       <use x="594.677734" xlink:href="#ArialMT-111"/>
       <use x="650.292969" xlink:href="#ArialMT-110"/>
       <use x="705.908203" xlink:href="#ArialMT-45"/>
       <use x="739.208984" xlink:href="#ArialMT-105"/>
       <use x="761.425781" xlink:href="#ArialMT-110"/>
       <use x="817.041016" xlink:href="#ArialMT-102"/>
       <use x="844.824219" xlink:href="#ArialMT-108"/>
       <use x="867.041016" xlink:href="#ArialMT-97"/>
       <use x="922.65625" xlink:href="#ArialMT-109"/>
       <use x="1005.957031" xlink:href="#ArialMT-101"/>
       <use x="1061.572266" xlink:href="#ArialMT-100"/>
       <use x="1117.1875" xlink:href="#ArialMT-32"/>
       <use x="1144.970703" xlink:href="#ArialMT-118"/>
       <use x="1194.970703" xlink:href="#ArialMT-115"/>
       <use x="1244.970703" xlink:href="#ArialMT-46"/>
       <use x="1272.753906" xlink:href="#ArialMT-32"/>
       <use x="1300.537109" xlink:href="#ArialMT-73"/>
       <use x="1328.320312" xlink:href="#ArialMT-110"/>
       <use x="1383.935547" xlink:href="#ArialMT-102"/>
       <use x="1411.71875" xlink:href="#ArialMT-108"/>
       <use x="1433.935547" xlink:href="#ArialMT-97"/>
       <use x="1489.550781" xlink:href="#ArialMT-109"/>
       <use x="1572.851562" xlink:href="#ArialMT-101"/>
       <use x="1628.466797" xlink:href="#ArialMT-100"/>
      </g>
     </g>
    </g>
    <g id="xtick_4">
     <g id="line2d_4">
      <g>
       <use style="fill:#262626;stroke:#262626;" x="238.936775" xlink:href="#m8ba75cdd2c" y="224.64"/>
      </g>
     </g>
     <g id="text_4">
      <!-- Lamina Propria; Healthy vs. Non-inflamed -->
      <g style="fill:#262626;" transform="translate(241.896875 444.662225)rotate(-90)scale(0.1144 -0.1144)">
       <defs>
        <path d="M 7.328125 0 
L 7.328125 71.578125 
L 16.796875 71.578125 
L 16.796875 8.453125 
L 52.046875 8.453125 
L 52.046875 0 
z
" id="ArialMT-76"/>
        <path d="M 7.71875 0 
L 7.71875 71.578125 
L 34.71875 71.578125 
Q 41.84375 71.578125 45.609375 70.90625 
Q 50.875 70.015625 54.4375 67.546875 
Q 58.015625 65.09375 60.1875 60.640625 
Q 62.359375 56.203125 62.359375 50.875 
Q 62.359375 41.75 56.546875 35.421875 
Q 50.734375 29.109375 35.546875 29.109375 
L 17.1875 29.109375 
L 17.1875 0 
z
M 17.1875 37.546875 
L 35.6875 37.546875 
Q 44.875 37.546875 48.734375 40.96875 
Q 52.59375 44.390625 52.59375 50.59375 
Q 52.59375 55.078125 50.3125 58.265625 
Q 48.046875 61.46875 44.34375 62.5 
Q 41.9375 63.140625 35.5 63.140625 
L 17.1875 63.140625 
z
" id="ArialMT-80"/>
        <path d="M 6.5 0 
L 6.5 51.859375 
L 14.40625 51.859375 
L 14.40625 44 
Q 17.4375 49.515625 20 51.265625 
Q 22.5625 53.03125 25.640625 53.03125 
Q 30.078125 53.03125 34.671875 50.203125 
L 31.640625 42.046875 
Q 28.421875 43.953125 25.203125 43.953125 
Q 22.3125 43.953125 20.015625 42.21875 
Q 17.71875 40.484375 16.75 37.40625 
Q 15.28125 32.71875 15.28125 27.15625 
L 15.28125 0 
z
" id="ArialMT-114"/>
       </defs>
       <use xlink:href="#ArialMT-76"/>
       <use x="55.615234" xlink:href="#ArialMT-97"/>
       <use x="111.230469" xlink:href="#ArialMT-109"/>
       <use x="194.53125" xlink:href="#ArialMT-105"/>
       <use x="216.748047" xlink:href="#ArialMT-110"/>
       <use x="272.363281" xlink:href="#ArialMT-97"/>
       <use x="327.978516" xlink:href="#ArialMT-32"/>
       <use x="355.761719" xlink:href="#ArialMT-80"/>
       <use x="422.460938" xlink:href="#ArialMT-114"/>
       <use x="455.761719" xlink:href="#ArialMT-111"/>
       <use x="511.376953" xlink:href="#ArialMT-112"/>
       <use x="566.992188" xlink:href="#ArialMT-114"/>
       <use x="600.292969" xlink:href="#ArialMT-105"/>
       <use x="622.509766" xlink:href="#ArialMT-97"/>
       <use x="678.125" xlink:href="#ArialMT-59"/>
       <use x="705.908203" xlink:href="#ArialMT-32"/>
       <use x="733.691406" xlink:href="#ArialMT-72"/>
       <use x="805.908203" xlink:href="#ArialMT-101"/>
       <use x="861.523438" xlink:href="#ArialMT-97"/>
       <use x="917.138672" xlink:href="#ArialMT-108"/>
       <use x="939.355469" xlink:href="#ArialMT-116"/>
       <use x="967.138672" xlink:href="#ArialMT-104"/>
       <use x="1022.753906" xlink:href="#ArialMT-121"/>
       <use x="1072.753906" xlink:href="#ArialMT-32"/>
       <use x="1100.537109" xlink:href="#ArialMT-118"/>
       <use x="1150.537109" xlink:href="#ArialMT-115"/>
       <use x="1200.537109" xlink:href="#ArialMT-46"/>
       <use x="1228.320312" xlink:href="#ArialMT-32"/>
       <use x="1256.103516" xlink:href="#ArialMT-78"/>
       <use x="1328.320312" xlink:href="#ArialMT-111"/>
       <use x="1383.935547" xlink:href="#ArialMT-110"/>
       <use x="1439.550781" xlink:href="#ArialMT-45"/>
       <use x="1472.851562" xlink:href="#ArialMT-105"/>
       <use x="1495.068359" xlink:href="#ArialMT-110"/>
       <use x="1550.683594" xlink:href="#ArialMT-102"/>
       <use x="1578.466797" xlink:href="#ArialMT-108"/>
       <use x="1600.683594" xlink:href="#ArialMT-97"/>
       <use x="1656.298828" xlink:href="#ArialMT-109"/>
       <use x="1739.599609" xlink:href="#ArialMT-101"/>
       <use x="1795.214844" xlink:href="#ArialMT-100"/>
      </g>
     </g>
    </g>
    <g id="xtick_5">
     <g id="line2d_5">
      <g>
       <use style="fill:#262626;stroke:#262626;" x="294.736775" xlink:href="#m8ba75cdd2c" y="224.64"/>
      </g>
     </g>
     <g id="text_5">
      <!-- Lamina Propria; Healthy vs. Inflamed -->
      <g style="fill:#262626;" transform="translate(297.696875 420.504163)rotate(-90)scale(0.1144 -0.1144)">
       <use xlink:href="#ArialMT-76"/>
       <use x="55.615234" xlink:href="#ArialMT-97"/>
       <use x="111.230469" xlink:href="#ArialMT-109"/>
       <use x="194.53125" xlink:href="#ArialMT-105"/>
       <use x="216.748047" xlink:href="#ArialMT-110"/>
       <use x="272.363281" xlink:href="#ArialMT-97"/>
       <use x="327.978516" xlink:href="#ArialMT-32"/>
       <use x="355.761719" xlink:href="#ArialMT-80"/>
       <use x="422.460938" xlink:href="#ArialMT-114"/>
       <use x="455.761719" xlink:href="#ArialMT-111"/>
       <use x="511.376953" xlink:href="#ArialMT-112"/>
       <use x="566.992188" xlink:href="#ArialMT-114"/>
       <use x="600.292969" xlink:href="#ArialMT-105"/>
       <use x="622.509766" xlink:href="#ArialMT-97"/>
       <use x="678.125" xlink:href="#ArialMT-59"/>
       <use x="705.908203" xlink:href="#ArialMT-32"/>
       <use x="733.691406" xlink:href="#ArialMT-72"/>
       <use x="805.908203" xlink:href="#ArialMT-101"/>
       <use x="861.523438" xlink:href="#ArialMT-97"/>
       <use x="917.138672" xlink:href="#ArialMT-108"/>
       <use x="939.355469" xlink:href="#ArialMT-116"/>
       <use x="967.138672" xlink:href="#ArialMT-104"/>
       <use x="1022.753906" xlink:href="#ArialMT-121"/>
       <use x="1072.753906" xlink:href="#ArialMT-32"/>
       <use x="1100.537109" xlink:href="#ArialMT-118"/>
       <use x="1150.537109" xlink:href="#ArialMT-115"/>
       <use x="1200.537109" xlink:href="#ArialMT-46"/>
       <use x="1228.320312" xlink:href="#ArialMT-32"/>
       <use x="1256.103516" xlink:href="#ArialMT-73"/>
       <use x="1283.886719" xlink:href="#ArialMT-110"/>
       <use x="1339.501953" xlink:href="#ArialMT-102"/>
       <use x="1367.285156" xlink:href="#ArialMT-108"/>
       <use x="1389.501953" xlink:href="#ArialMT-97"/>
       <use x="1445.117188" xlink:href="#ArialMT-109"/>
       <use x="1528.417969" xlink:href="#ArialMT-101"/>
       <use x="1584.033203" xlink:href="#ArialMT-100"/>
      </g>
     </g>
    </g>
    <g id="xtick_6">
     <g id="line2d_6">
      <g>
       <use style="fill:#262626;stroke:#262626;" x="350.536775" xlink:href="#m8ba75cdd2c" y="224.64"/>
      </g>
     </g>
     <g id="text_6">
      <!-- Lamina Propria; Non-inflamed vs. Inflamed -->
      <g style="fill:#262626;" transform="translate(353.563906 449.74945)rotate(-90)scale(0.1144 -0.1144)">
       <use xlink:href="#ArialMT-76"/>
       <use x="55.615234" xlink:href="#ArialMT-97"/>
       <use x="111.230469" xlink:href="#ArialMT-109"/>
       <use x="194.53125" xlink:href="#ArialMT-105"/>
       <use x="216.748047" xlink:href="#ArialMT-110"/>
       <use x="272.363281" xlink:href="#ArialMT-97"/>
       <use x="327.978516" xlink:href="#ArialMT-32"/>
       <use x="355.761719" xlink:href="#ArialMT-80"/>
       <use x="422.460938" xlink:href="#ArialMT-114"/>
       <use x="455.761719" xlink:href="#ArialMT-111"/>
       <use x="511.376953" xlink:href="#ArialMT-112"/>
       <use x="566.992188" xlink:href="#ArialMT-114"/>
       <use x="600.292969" xlink:href="#ArialMT-105"/>
       <use x="622.509766" xlink:href="#ArialMT-97"/>
       <use x="678.125" xlink:href="#ArialMT-59"/>
       <use x="705.908203" xlink:href="#ArialMT-32"/>
       <use x="733.691406" xlink:href="#ArialMT-78"/>
       <use x="805.908203" xlink:href="#ArialMT-111"/>
       <use x="861.523438" xlink:href="#ArialMT-110"/>
       <use x="917.138672" xlink:href="#ArialMT-45"/>
       <use x="950.439453" xlink:href="#ArialMT-105"/>
       <use x="972.65625" xlink:href="#ArialMT-110"/>
       <use x="1028.271484" xlink:href="#ArialMT-102"/>
       <use x="1056.054688" xlink:href="#ArialMT-108"/>
       <use x="1078.271484" xlink:href="#ArialMT-97"/>
       <use x="1133.886719" xlink:href="#ArialMT-109"/>
       <use x="1217.1875" xlink:href="#ArialMT-101"/>
       <use x="1272.802734" xlink:href="#ArialMT-100"/>
       <use x="1328.417969" xlink:href="#ArialMT-32"/>
       <use x="1356.201172" xlink:href="#ArialMT-118"/>
       <use x="1406.201172" xlink:href="#ArialMT-115"/>
       <use x="1456.201172" xlink:href="#ArialMT-46"/>
       <use x="1483.984375" xlink:href="#ArialMT-32"/>
       <use x="1511.767578" xlink:href="#ArialMT-73"/>
       <use x="1539.550781" xlink:href="#ArialMT-110"/>
       <use x="1595.166016" xlink:href="#ArialMT-102"/>
       <use x="1622.949219" xlink:href="#ArialMT-108"/>
       <use x="1645.166016" xlink:href="#ArialMT-97"/>
       <use x="1700.78125" xlink:href="#ArialMT-109"/>
       <use x="1784.082031" xlink:href="#ArialMT-101"/>
       <use x="1839.697266" xlink:href="#ArialMT-100"/>
      </g>
     </g>
    </g>
    <g id="text_7">
     <!-- Scenario -->
     <g style="fill:#262626;" transform="translate(186.410225 462.6824)scale(0.1248 -0.1248)">
      <defs>
       <path d="M 4.5 23 
L 13.421875 23.78125 
Q 14.0625 18.40625 16.375 14.96875 
Q 18.703125 11.53125 23.578125 9.40625 
Q 28.46875 7.28125 34.578125 7.28125 
Q 39.984375 7.28125 44.140625 8.890625 
Q 48.296875 10.5 50.3125 13.296875 
Q 52.34375 16.109375 52.34375 19.4375 
Q 52.34375 22.796875 50.390625 25.3125 
Q 48.4375 27.828125 43.953125 29.546875 
Q 41.0625 30.671875 31.203125 33.03125 
Q 21.34375 35.40625 17.390625 37.5 
Q 12.25 40.1875 9.734375 44.15625 
Q 7.234375 48.140625 7.234375 53.078125 
Q 7.234375 58.5 10.296875 63.203125 
Q 13.375 67.921875 19.28125 70.359375 
Q 25.203125 72.796875 32.421875 72.796875 
Q 40.375 72.796875 46.453125 70.234375 
Q 52.546875 67.671875 55.8125 62.6875 
Q 59.078125 57.71875 59.328125 51.421875 
L 50.25 50.734375 
Q 49.515625 57.515625 45.28125 60.984375 
Q 41.0625 64.453125 32.8125 64.453125 
Q 24.21875 64.453125 20.28125 61.296875 
Q 16.359375 58.15625 16.359375 53.71875 
Q 16.359375 49.859375 19.140625 47.359375 
Q 21.875 44.875 33.421875 42.265625 
Q 44.96875 39.65625 49.265625 37.703125 
Q 55.515625 34.8125 58.484375 30.390625 
Q 61.46875 25.984375 61.46875 20.21875 
Q 61.46875 14.5 58.203125 9.4375 
Q 54.9375 4.390625 48.796875 1.578125 
Q 42.671875 -1.21875 35.015625 -1.21875 
Q 25.296875 -1.21875 18.71875 1.609375 
Q 12.15625 4.4375 8.421875 10.125 
Q 4.6875 15.828125 4.5 23 
z
" id="ArialMT-83"/>
       <path d="M 40.4375 19 
L 49.078125 17.875 
Q 47.65625 8.9375 41.8125 3.875 
Q 35.984375 -1.171875 27.484375 -1.171875 
Q 16.84375 -1.171875 10.375 5.78125 
Q 3.90625 12.75 3.90625 25.734375 
Q 3.90625 34.125 6.6875 40.421875 
Q 9.46875 46.734375 15.15625 49.875 
Q 20.84375 53.03125 27.546875 53.03125 
Q 35.984375 53.03125 41.359375 48.75 
Q 46.734375 44.484375 48.25 36.625 
L 39.703125 35.296875 
Q 38.484375 40.53125 35.375 43.15625 
Q 32.28125 45.796875 27.875 45.796875 
Q 21.234375 45.796875 17.078125 41.03125 
Q 12.9375 36.28125 12.9375 25.984375 
Q 12.9375 15.53125 16.9375 10.796875 
Q 20.953125 6.0625 27.390625 6.0625 
Q 32.5625 6.0625 36.03125 9.234375 
Q 39.5 12.40625 40.4375 19 
z
" id="ArialMT-99"/>
      </defs>
      <use xlink:href="#ArialMT-83"/>
      <use x="66.699219" xlink:href="#ArialMT-99"/>
      <use x="116.699219" xlink:href="#ArialMT-101"/>
      <use x="172.314453" xlink:href="#ArialMT-110"/>
      <use x="227.929688" xlink:href="#ArialMT-97"/>
      <use x="283.544922" xlink:href="#ArialMT-114"/>
      <use x="316.845703" xlink:href="#ArialMT-105"/>
      <use x="339.0625" xlink:href="#ArialMT-111"/>
     </g>
    </g>
   </g>
   <g id="matplotlib.axis_2">
    <g id="ytick_1">
     <g id="line2d_7">
      <defs>
       <path d="M 0 0 
L -4.8 0 
" id="m9dd80addd9" style="stroke:#262626;"/>
      </defs>
      <g>
       <use style="fill:#262626;stroke:#262626;" x="43.636775" xlink:href="#m9dd80addd9" y="224.64"/>
      </g>
     </g>
     <g id="text_8">
      <!-- 0 -->
      <g style="fill:#262626;" transform="translate(28.975063 228.734269)scale(0.1144 -0.1144)">
       <defs>
        <path d="M 4.15625 35.296875 
Q 4.15625 48 6.765625 55.734375 
Q 9.375 63.484375 14.515625 67.671875 
Q 19.671875 71.875 27.484375 71.875 
Q 33.25 71.875 37.59375 69.546875 
Q 41.9375 67.234375 44.765625 62.859375 
Q 47.609375 58.5 49.21875 52.21875 
Q 50.828125 45.953125 50.828125 35.296875 
Q 50.828125 22.703125 48.234375 14.96875 
Q 45.65625 7.234375 40.5 3 
Q 35.359375 -1.21875 27.484375 -1.21875 
Q 17.140625 -1.21875 11.234375 6.203125 
Q 4.15625 15.140625 4.15625 35.296875 
z
M 13.1875 35.296875 
Q 13.1875 17.671875 17.3125 11.828125 
Q 21.4375 6 27.484375 6 
Q 33.546875 6 37.671875 11.859375 
Q 41.796875 17.71875 41.796875 35.296875 
Q 41.796875 52.984375 37.671875 58.78125 
Q 33.546875 64.59375 27.390625 64.59375 
Q 21.34375 64.59375 17.71875 59.46875 
Q 13.1875 52.9375 13.1875 35.296875 
z
" id="ArialMT-48"/>
       </defs>
       <use xlink:href="#ArialMT-48"/>
      </g>
     </g>
    </g>
    <g id="ytick_2">
     <g id="line2d_8">
      <g>
       <use style="fill:#262626;stroke:#262626;" x="43.636775" xlink:href="#m9dd80addd9" y="176.703492"/>
      </g>
     </g>
     <g id="text_9">
      <!-- 5 -->
      <g style="fill:#262626;" transform="translate(28.975063 180.797761)scale(0.1144 -0.1144)">
       <defs>
        <path d="M 4.15625 18.75 
L 13.375 19.53125 
Q 14.40625 12.796875 18.140625 9.390625 
Q 21.875 6 27.15625 6 
Q 33.5 6 37.890625 10.78125 
Q 42.28125 15.578125 42.28125 23.484375 
Q 42.28125 31 38.0625 35.34375 
Q 33.84375 39.703125 27 39.703125 
Q 22.75 39.703125 19.328125 37.765625 
Q 15.921875 35.84375 13.96875 32.765625 
L 5.71875 33.84375 
L 12.640625 70.609375 
L 48.25 70.609375 
L 48.25 62.203125 
L 19.671875 62.203125 
L 15.828125 42.96875 
Q 22.265625 47.46875 29.34375 47.46875 
Q 38.71875 47.46875 45.15625 40.96875 
Q 51.609375 34.46875 51.609375 24.265625 
Q 51.609375 14.546875 45.953125 7.46875 
Q 39.0625 -1.21875 27.15625 -1.21875 
Q 17.390625 -1.21875 11.203125 4.25 
Q 5.03125 9.71875 4.15625 18.75 
z
" id="ArialMT-53"/>
       </defs>
       <use xlink:href="#ArialMT-53"/>
      </g>
     </g>
    </g>
    <g id="ytick_3">
     <g id="line2d_9">
      <g>
       <use style="fill:#262626;stroke:#262626;" x="43.636775" xlink:href="#m9dd80addd9" y="128.766984"/>
      </g>
     </g>
     <g id="text_10">
      <!-- 10 -->
      <g style="fill:#262626;" transform="translate(22.61335 132.861253)scale(0.1144 -0.1144)">
       <defs>
        <path d="M 37.25 0 
L 28.46875 0 
L 28.46875 56 
Q 25.296875 52.984375 20.140625 49.953125 
Q 14.984375 46.921875 10.890625 45.40625 
L 10.890625 53.90625 
Q 18.265625 57.375 23.78125 62.296875 
Q 29.296875 67.234375 31.59375 71.875 
L 37.25 71.875 
z
" id="ArialMT-49"/>
       </defs>
       <use xlink:href="#ArialMT-49"/>
       <use x="55.615234" xlink:href="#ArialMT-48"/>
      </g>
     </g>
    </g>
    <g id="ytick_4">
     <g id="line2d_10">
      <g>
       <use style="fill:#262626;stroke:#262626;" x="43.636775" xlink:href="#m9dd80addd9" y="80.830476"/>
      </g>
     </g>
     <g id="text_11">
      <!-- 15 -->
      <g style="fill:#262626;" transform="translate(22.61335 84.924745)scale(0.1144 -0.1144)">
       <use xlink:href="#ArialMT-49"/>
       <use x="55.615234" xlink:href="#ArialMT-53"/>
      </g>
     </g>
    </g>
    <g id="ytick_5">
     <g id="line2d_11">
      <g>
       <use style="fill:#262626;stroke:#262626;" x="43.636775" xlink:href="#m9dd80addd9" y="32.893968"/>
      </g>
     </g>
     <g id="text_12">
      <!-- 20 -->
      <g style="fill:#262626;" transform="translate(22.61335 36.988237)scale(0.1144 -0.1144)">
       <defs>
        <path d="M 50.34375 8.453125 
L 50.34375 0 
L 3.03125 0 
Q 2.9375 3.171875 4.046875 6.109375 
Q 5.859375 10.9375 9.828125 15.625 
Q 13.8125 20.3125 21.34375 26.46875 
Q 33.015625 36.03125 37.109375 41.625 
Q 41.21875 47.21875 41.21875 52.203125 
Q 41.21875 57.421875 37.46875 61 
Q 33.734375 64.59375 27.734375 64.59375 
Q 21.390625 64.59375 17.578125 60.78125 
Q 13.765625 56.984375 13.71875 50.25 
L 4.6875 51.171875 
Q 5.609375 61.28125 11.65625 66.578125 
Q 17.71875 71.875 27.9375 71.875 
Q 38.234375 71.875 44.234375 66.15625 
Q 50.25 60.453125 50.25 52 
Q 50.25 47.703125 48.484375 43.546875 
Q 46.734375 39.40625 42.65625 34.8125 
Q 38.578125 30.21875 29.109375 22.21875 
Q 21.1875 15.578125 18.9375 13.203125 
Q 16.703125 10.84375 15.234375 8.453125 
z
" id="ArialMT-50"/>
       </defs>
       <use xlink:href="#ArialMT-50"/>
       <use x="55.615234" xlink:href="#ArialMT-48"/>
      </g>
     </g>
    </g>
    <g id="text_13">
     <!-- Number of Effects -->
     <g style="fill:#262626;" transform="translate(16.13295 165.7464)rotate(-90)scale(0.1248 -0.1248)">
      <defs>
       <path d="M 14.703125 0 
L 6.546875 0 
L 6.546875 71.578125 
L 15.328125 71.578125 
L 15.328125 46.046875 
Q 20.90625 53.03125 29.546875 53.03125 
Q 34.328125 53.03125 38.59375 51.09375 
Q 42.875 49.171875 45.625 45.671875 
Q 48.390625 42.1875 49.953125 37.25 
Q 51.515625 32.328125 51.515625 26.703125 
Q 51.515625 13.375 44.921875 6.09375 
Q 38.328125 -1.171875 29.109375 -1.171875 
Q 19.921875 -1.171875 14.703125 6.5 
z
M 14.59375 26.3125 
Q 14.59375 17 17.140625 12.84375 
Q 21.296875 6.0625 28.375 6.0625 
Q 34.125 6.0625 38.328125 11.0625 
Q 42.53125 16.0625 42.53125 25.984375 
Q 42.53125 36.140625 38.5 40.96875 
Q 34.46875 45.796875 28.765625 45.796875 
Q 23 45.796875 18.796875 40.796875 
Q 14.59375 35.796875 14.59375 26.3125 
z
" id="ArialMT-98"/>
      </defs>
      <use xlink:href="#ArialMT-78"/>
      <use x="72.216797" xlink:href="#ArialMT-117"/>
      <use x="127.832031" xlink:href="#ArialMT-109"/>
      <use x="211.132812" xlink:href="#ArialMT-98"/>
      <use x="266.748047" xlink:href="#ArialMT-101"/>
      <use x="322.363281" xlink:href="#ArialMT-114"/>
      <use x="355.664062" xlink:href="#ArialMT-32"/>
      <use x="383.447266" xlink:href="#ArialMT-111"/>
      <use x="439.0625" xlink:href="#ArialMT-102"/>
      <use x="466.845703" xlink:href="#ArialMT-32"/>
      <use x="494.628906" xlink:href="#ArialMT-69"/>
      <use x="561.328125" xlink:href="#ArialMT-102"/>
      <use x="587.361328" xlink:href="#ArialMT-102"/>
      <use x="615.144531" xlink:href="#ArialMT-101"/>
      <use x="670.759766" xlink:href="#ArialMT-99"/>
      <use x="720.759766" xlink:href="#ArialMT-116"/>
      <use x="748.542969" xlink:href="#ArialMT-115"/>
     </g>
    </g>
   </g>
   <g id="patch_3">
    <path clip-path="url(#pe1b549827b)" d="M 49.216775 224.64 
L 56.656775 224.64 
L 56.656775 224.64 
L 49.216775 224.64 
z
" style="fill:#252629;stroke:#ffffff;stroke-linejoin:miter;stroke-width:0.8;"/>
   </g>
   <g id="patch_4">
    <path clip-path="url(#pe1b549827b)" d="M 105.016775 224.64 
L 112.456775 224.64 
L 112.456775 224.64 
L 105.016775 224.64 
z
" style="fill:#252629;stroke:#ffffff;stroke-linejoin:miter;stroke-width:0.8;"/>
   </g>
   <g id="patch_5">
    <path clip-path="url(#pe1b549827b)" d="M 160.816775 224.64 
L 168.256775 224.64 
L 168.256775 224.64 
L 160.816775 224.64 
z
" style="fill:#252629;stroke:#ffffff;stroke-linejoin:miter;stroke-width:0.8;"/>
   </g>
   <g id="patch_6">
    <path clip-path="url(#pe1b549827b)" d="M 216.616775 224.64 
L 224.056775 224.64 
L 224.056775 220.805079 
L 216.616775 220.805079 
z
" style="fill:#252629;stroke:#ffffff;stroke-linejoin:miter;stroke-width:0.8;"/>
   </g>
   <g id="patch_7">
    <path clip-path="url(#pe1b549827b)" d="M 272.416775 224.64 
L 279.856775 224.64 
L 279.856775 224.64 
L 272.416775 224.64 
z
" style="fill:#252629;stroke:#ffffff;stroke-linejoin:miter;stroke-width:0.8;"/>
   </g>
   <g id="patch_8">
    <path clip-path="url(#pe1b549827b)" d="M 328.216775 224.64 
L 335.656775 224.64 
L 335.656775 224.64 
L 328.216775 224.64 
z
" style="fill:#252629;stroke:#ffffff;stroke-linejoin:miter;stroke-width:0.8;"/>
   </g>
   <g id="patch_9">
    <path clip-path="url(#pe1b549827b)" d="M 56.656775 224.64 
L 64.096775 224.64 
L 64.096775 224.64 
L 56.656775 224.64 
z
" style="fill:#394352;stroke:#ffffff;stroke-linejoin:miter;stroke-width:0.8;"/>
   </g>
   <g id="patch_10">
    <path clip-path="url(#pe1b549827b)" d="M 112.456775 224.64 
L 119.896775 224.64 
L 119.896775 209.300317 
L 112.456775 209.300317 
z
" style="fill:#394352;stroke:#ffffff;stroke-linejoin:miter;stroke-width:0.8;"/>
   </g>
   <g id="patch_11">
    <path clip-path="url(#pe1b549827b)" d="M 168.256775 224.64 
L 175.696775 224.64 
L 175.696775 224.64 
L 168.256775 224.64 
z
" style="fill:#394352;stroke:#ffffff;stroke-linejoin:miter;stroke-width:0.8;"/>
   </g>
   <g id="patch_12">
    <path clip-path="url(#pe1b549827b)" d="M 224.056775 224.64 
L 231.496775 224.64 
L 231.496775 207.382857 
L 224.056775 207.382857 
z
" style="fill:#394352;stroke:#ffffff;stroke-linejoin:miter;stroke-width:0.8;"/>
   </g>
   <g id="patch_13">
    <path clip-path="url(#pe1b549827b)" d="M 279.856775 224.64 
L 287.296775 224.64 
L 287.296775 207.382857 
L 279.856775 207.382857 
z
" style="fill:#394352;stroke:#ffffff;stroke-linejoin:miter;stroke-width:0.8;"/>
   </g>
   <g id="patch_14">
    <path clip-path="url(#pe1b549827b)" d="M 335.656775 224.64 
L 343.096775 224.64 
L 343.096775 224.64 
L 335.656775 224.64 
z
" style="fill:#394352;stroke:#ffffff;stroke-linejoin:miter;stroke-width:0.8;"/>
   </g>
   <g id="patch_15">
    <path clip-path="url(#pe1b549827b)" d="M 64.096775 224.64 
L 71.536775 224.64 
L 71.536775 224.64 
L 64.096775 224.64 
z
" style="fill:#4d617c;stroke:#ffffff;stroke-linejoin:miter;stroke-width:0.8;"/>
   </g>
   <g id="patch_16">
    <path clip-path="url(#pe1b549827b)" d="M 119.896775 224.64 
L 127.336775 224.64 
L 127.336775 199.713016 
L 119.896775 199.713016 
z
" style="fill:#4d617c;stroke:#ffffff;stroke-linejoin:miter;stroke-width:0.8;"/>
   </g>
   <g id="patch_17">
    <path clip-path="url(#pe1b549827b)" d="M 175.696775 224.64 
L 183.136775 224.64 
L 183.136775 224.64 
L 175.696775 224.64 
z
" style="fill:#4d617c;stroke:#ffffff;stroke-linejoin:miter;stroke-width:0.8;"/>
   </g>
   <g id="patch_18">
    <path clip-path="url(#pe1b549827b)" d="M 231.496775 224.64 
L 238.936775 224.64 
L 238.936775 195.878095 
L 231.496775 195.878095 
z
" style="fill:#4d617c;stroke:#ffffff;stroke-linejoin:miter;stroke-width:0.8;"/>
   </g>
   <g id="patch_19">
    <path clip-path="url(#pe1b549827b)" d="M 287.296775 224.64 
L 294.736775 224.64 
L 294.736775 178.620952 
L 287.296775 178.620952 
z
" style="fill:#4d617c;stroke:#ffffff;stroke-linejoin:miter;stroke-width:0.8;"/>
   </g>
   <g id="patch_20">
    <path clip-path="url(#pe1b549827b)" d="M 343.096775 224.64 
L 350.536775 224.64 
L 350.536775 224.64 
L 343.096775 224.64 
z
" style="fill:#4d617c;stroke:#ffffff;stroke-linejoin:miter;stroke-width:0.8;"/>
   </g>
   <g id="patch_21">
    <path clip-path="url(#pe1b549827b)" d="M 71.536775 224.64 
L 78.976775 224.64 
L 78.976775 213.135238 
L 71.536775 213.135238 
z
" style="fill:#617ea5;stroke:#ffffff;stroke-linejoin:miter;stroke-width:0.8;"/>
   </g>
   <g id="patch_22">
    <path clip-path="url(#pe1b549827b)" d="M 127.336775 224.64 
L 134.776775 224.64 
L 134.776775 193.960635 
L 127.336775 193.960635 
z
" style="fill:#617ea5;stroke:#ffffff;stroke-linejoin:miter;stroke-width:0.8;"/>
   </g>
   <g id="patch_23">
    <path clip-path="url(#pe1b549827b)" d="M 183.136775 224.64 
L 190.576775 224.64 
L 190.576775 222.72254 
L 183.136775 222.72254 
z
" style="fill:#617ea5;stroke:#ffffff;stroke-linejoin:miter;stroke-width:0.8;"/>
   </g>
   <g id="patch_24">
    <path clip-path="url(#pe1b549827b)" d="M 238.936775 224.64 
L 246.376775 224.64 
L 246.376775 165.19873 
L 238.936775 165.19873 
z
" style="fill:#617ea5;stroke:#ffffff;stroke-linejoin:miter;stroke-width:0.8;"/>
   </g>
   <g id="patch_25">
    <path clip-path="url(#pe1b549827b)" d="M 294.736775 224.64 
L 302.176775 224.64 
L 302.176775 149.859048 
L 294.736775 149.859048 
z
" style="fill:#617ea5;stroke:#ffffff;stroke-linejoin:miter;stroke-width:0.8;"/>
   </g>
   <g id="patch_26">
    <path clip-path="url(#pe1b549827b)" d="M 350.536775 224.64 
L 357.976775 224.64 
L 357.976775 224.64 
L 350.536775 224.64 
z
" style="fill:#617ea5;stroke:#ffffff;stroke-linejoin:miter;stroke-width:0.8;"/>
   </g>
   <g id="patch_27">
    <path clip-path="url(#pe1b549827b)" d="M 78.976775 224.64 
L 86.416775 224.64 
L 86.416775 193.960635 
L 78.976775 193.960635 
z
" style="fill:#759bce;stroke:#ffffff;stroke-linejoin:miter;stroke-width:0.8;"/>
   </g>
   <g id="patch_28">
    <path clip-path="url(#pe1b549827b)" d="M 134.776775 224.64 
L 142.216775 224.64 
L 142.216775 146.024127 
L 134.776775 146.024127 
z
" style="fill:#759bce;stroke:#ffffff;stroke-linejoin:miter;stroke-width:0.8;"/>
   </g>
   <g id="patch_29">
    <path clip-path="url(#pe1b549827b)" d="M 190.576775 224.64 
L 198.016775 224.64 
L 198.016775 190.125714 
L 190.576775 190.125714 
z
" style="fill:#759bce;stroke:#ffffff;stroke-linejoin:miter;stroke-width:0.8;"/>
   </g>
   <g id="patch_30">
    <path clip-path="url(#pe1b549827b)" d="M 246.376775 224.64 
L 253.816775 224.64 
L 253.816775 71.243175 
L 246.376775 71.243175 
z
" style="fill:#759bce;stroke:#ffffff;stroke-linejoin:miter;stroke-width:0.8;"/>
   </g>
   <g id="patch_31">
    <path clip-path="url(#pe1b549827b)" d="M 302.176775 224.64 
L 309.616775 224.64 
L 309.616775 53.986032 
L 302.176775 53.986032 
z
" style="fill:#759bce;stroke:#ffffff;stroke-linejoin:miter;stroke-width:0.8;"/>
   </g>
   <g id="patch_32">
    <path clip-path="url(#pe1b549827b)" d="M 357.976775 224.64 
L 365.416775 224.64 
L 365.416775 211.217778 
L 357.976775 211.217778 
z
" style="fill:#759bce;stroke:#ffffff;stroke-linejoin:miter;stroke-width:0.8;"/>
   </g>
   <g id="patch_33">
    <path clip-path="url(#pe1b549827b)" d="M 86.416775 224.64 
L 93.856775 224.64 
L 93.856775 201.630476 
L 86.416775 201.630476 
z
" style="fill:#df2020;stroke:#ffffff;stroke-linejoin:miter;stroke-width:0.8;"/>
   </g>
   <g id="patch_34">
    <path clip-path="url(#pe1b549827b)" d="M 142.216775 224.64 
L 149.656775 224.64 
L 149.656775 121.097143 
L 142.216775 121.097143 
z
" style="fill:#df2020;stroke:#ffffff;stroke-linejoin:miter;stroke-width:0.8;"/>
   </g>
   <g id="patch_35">
    <path clip-path="url(#pe1b549827b)" d="M 198.016775 224.64 
L 205.456775 224.64 
L 205.456775 174.786032 
L 198.016775 174.786032 
z
" style="fill:#df2020;stroke:#ffffff;stroke-linejoin:miter;stroke-width:0.8;"/>
   </g>
   <g id="patch_36">
    <path clip-path="url(#pe1b549827b)" d="M 253.816775 224.64 
L 261.256775 224.64 
L 261.256775 86.582857 
L 253.816775 86.582857 
z
" style="fill:#df2020;stroke:#ffffff;stroke-linejoin:miter;stroke-width:0.8;"/>
   </g>
   <g id="patch_37">
    <path clip-path="url(#pe1b549827b)" d="M 309.616775 224.64 
L 317.056775 224.64 
L 317.056775 57.820952 
L 309.616775 57.820952 
z
" style="fill:#df2020;stroke:#ffffff;stroke-linejoin:miter;stroke-width:0.8;"/>
   </g>
   <g id="patch_38">
    <path clip-path="url(#pe1b549827b)" d="M 365.416775 224.64 
L 372.856775 224.64 
L 372.856775 220.805079 
L 365.416775 220.805079 
z
" style="fill:#df2020;stroke:#ffffff;stroke-linejoin:miter;stroke-width:0.8;"/>
   </g>
   <g id="line2d_12">
    <path clip-path="url(#pe1b549827b)" d="M 52.936775 224.64 
L 52.936775 224.64 
" style="fill:none;stroke:#424242;stroke-linecap:round;stroke-width:2.16;"/>
   </g>
   <g id="line2d_13">
    <path clip-path="url(#pe1b549827b)" d="M 108.736775 224.64 
L 108.736775 224.64 
" style="fill:none;stroke:#424242;stroke-linecap:round;stroke-width:2.16;"/>
   </g>
   <g id="line2d_14">
    <path clip-path="url(#pe1b549827b)" d="M 164.536775 224.64 
L 164.536775 224.64 
" style="fill:none;stroke:#424242;stroke-linecap:round;stroke-width:2.16;"/>
   </g>
   <g id="line2d_15">
    <path clip-path="url(#pe1b549827b)" d="M 220.336775 224.64 
L 220.336775 213.135238 
" style="fill:none;stroke:#424242;stroke-linecap:round;stroke-width:2.16;"/>
   </g>
   <g id="line2d_16">
    <path clip-path="url(#pe1b549827b)" d="M 276.136775 224.64 
L 276.136775 224.64 
" style="fill:none;stroke:#424242;stroke-linecap:round;stroke-width:2.16;"/>
   </g>
   <g id="line2d_17">
    <path clip-path="url(#pe1b549827b)" d="M 331.936775 224.64 
L 331.936775 224.64 
" style="fill:none;stroke:#424242;stroke-linecap:round;stroke-width:2.16;"/>
   </g>
   <g id="line2d_18">
    <path clip-path="url(#pe1b549827b)" d="M 60.376775 224.64 
L 60.376775 224.64 
" style="fill:none;stroke:#424242;stroke-linecap:round;stroke-width:2.16;"/>
   </g>
   <g id="line2d_19">
    <path clip-path="url(#pe1b549827b)" d="M 116.176775 216.970159 
L 116.176775 201.630476 
" style="fill:none;stroke:#424242;stroke-linecap:round;stroke-width:2.16;"/>
   </g>
   <g id="line2d_20">
    <path clip-path="url(#pe1b549827b)" d="M 171.976775 224.64 
L 171.976775 224.64 
" style="fill:none;stroke:#424242;stroke-linecap:round;stroke-width:2.16;"/>
   </g>
   <g id="line2d_21">
    <path clip-path="url(#pe1b549827b)" d="M 227.776775 220.805079 
L 227.776775 193.960635 
" style="fill:none;stroke:#424242;stroke-linecap:round;stroke-width:2.16;"/>
   </g>
   <g id="line2d_22">
    <path clip-path="url(#pe1b549827b)" d="M 283.576775 224.64 
L 283.576775 180.538413 
" style="fill:none;stroke:#424242;stroke-linecap:round;stroke-width:2.16;"/>
   </g>
   <g id="line2d_23">
    <path clip-path="url(#pe1b549827b)" d="M 339.376775 224.64 
L 339.376775 224.64 
" style="fill:none;stroke:#424242;stroke-linecap:round;stroke-width:2.16;"/>
   </g>
   <g id="line2d_24">
    <path clip-path="url(#pe1b549827b)" d="M 67.816775 224.64 
L 67.816775 224.64 
" style="fill:none;stroke:#424242;stroke-linecap:round;stroke-width:2.16;"/>
   </g>
   <g id="line2d_25">
    <path clip-path="url(#pe1b549827b)" d="M 123.616775 205.465397 
L 123.616775 192.043175 
" style="fill:none;stroke:#424242;stroke-linecap:round;stroke-width:2.16;"/>
   </g>
   <g id="line2d_26">
    <path clip-path="url(#pe1b549827b)" d="M 179.416775 224.64 
L 179.416775 224.64 
" style="fill:none;stroke:#424242;stroke-linecap:round;stroke-width:2.16;"/>
   </g>
   <g id="line2d_27">
    <path clip-path="url(#pe1b549827b)" d="M 235.216775 211.217778 
L 235.216775 182.455873 
" style="fill:none;stroke:#424242;stroke-linecap:round;stroke-width:2.16;"/>
   </g>
   <g id="line2d_28">
    <path clip-path="url(#pe1b549827b)" d="M 291.016775 207.382857 
L 291.016775 146.024127 
" style="fill:none;stroke:#424242;stroke-linecap:round;stroke-width:2.16;"/>
   </g>
   <g id="line2d_29">
    <path clip-path="url(#pe1b549827b)" d="M 346.816775 224.64 
L 346.816775 224.64 
" style="fill:none;stroke:#424242;stroke-linecap:round;stroke-width:2.16;"/>
   </g>
   <g id="line2d_30">
    <path clip-path="url(#pe1b549827b)" d="M 75.256775 222.72254 
L 75.256775 203.547937 
" style="fill:none;stroke:#424242;stroke-linecap:round;stroke-width:2.16;"/>
   </g>
   <g id="line2d_31">
    <path clip-path="url(#pe1b549827b)" d="M 131.056775 199.713016 
L 131.056775 188.208254 
" style="fill:none;stroke:#424242;stroke-linecap:round;stroke-width:2.16;"/>
   </g>
   <g id="line2d_32">
    <path clip-path="url(#pe1b549827b)" d="M 186.856775 224.64 
L 186.856775 218.887619 
" style="fill:none;stroke:#424242;stroke-linecap:round;stroke-width:2.16;"/>
   </g>
   <g id="line2d_33">
    <path clip-path="url(#pe1b549827b)" d="M 242.656775 186.290794 
L 242.656775 146.024127 
" style="fill:none;stroke:#424242;stroke-linecap:round;stroke-width:2.16;"/>
   </g>
   <g id="line2d_34">
    <path clip-path="url(#pe1b549827b)" d="M 298.456775 169.033651 
L 298.456775 123.014603 
" style="fill:none;stroke:#424242;stroke-linecap:round;stroke-width:2.16;"/>
   </g>
   <g id="line2d_35">
    <path clip-path="url(#pe1b549827b)" d="M 354.256775 224.64 
L 354.256775 224.64 
" style="fill:none;stroke:#424242;stroke-linecap:round;stroke-width:2.16;"/>
   </g>
   <g id="line2d_36">
    <path clip-path="url(#pe1b549827b)" d="M 82.696775 205.465397 
L 82.696775 182.455873 
" style="fill:none;stroke:#424242;stroke-linecap:round;stroke-width:2.16;"/>
   </g>
   <g id="line2d_37">
    <path clip-path="url(#pe1b549827b)" d="M 138.496775 159.446349 
L 138.496775 132.601905 
" style="fill:none;stroke:#424242;stroke-linecap:round;stroke-width:2.16;"/>
   </g>
   <g id="line2d_38">
    <path clip-path="url(#pe1b549827b)" d="M 194.296775 209.300317 
L 194.296775 176.703492 
" style="fill:none;stroke:#424242;stroke-linecap:round;stroke-width:2.16;"/>
   </g>
   <g id="line2d_39">
    <path clip-path="url(#pe1b549827b)" d="M 250.096775 111.557778 
L 250.096775 38.646349 
" style="fill:none;stroke:#424242;stroke-linecap:round;stroke-width:2.16;"/>
   </g>
   <g id="line2d_40">
    <path clip-path="url(#pe1b549827b)" d="M 305.896775 73.160635 
L 305.896775 27.141587 
" style="fill:none;stroke:#424242;stroke-linecap:round;stroke-width:2.16;"/>
   </g>
   <g id="line2d_41">
    <path clip-path="url(#pe1b549827b)" d="M 361.696775 215.052698 
L 361.696775 203.547937 
" style="fill:none;stroke:#424242;stroke-linecap:round;stroke-width:2.16;"/>
   </g>
   <g id="line2d_42">
    <path clip-path="url(#pe1b549827b)" d="M 90.136775 209.300317 
L 90.136775 193.960635 
" style="fill:none;stroke:#424242;stroke-linecap:round;stroke-width:2.16;"/>
   </g>
   <g id="line2d_43">
    <path clip-path="url(#pe1b549827b)" d="M 145.936775 134.519365 
L 145.936775 107.674921 
" style="fill:none;stroke:#424242;stroke-linecap:round;stroke-width:2.16;"/>
   </g>
   <g id="line2d_44">
    <path clip-path="url(#pe1b549827b)" d="M 201.736775 201.630476 
L 201.736775 155.611429 
" style="fill:none;stroke:#424242;stroke-linecap:round;stroke-width:2.16;"/>
   </g>
   <g id="line2d_45">
    <path clip-path="url(#pe1b549827b)" d="M 257.536775 128.766984 
L 257.536775 53.986032 
" style="fill:none;stroke:#424242;stroke-linecap:round;stroke-width:2.16;"/>
   </g>
   <g id="line2d_46">
    <path clip-path="url(#pe1b549827b)" d="M 313.336775 90.465714 
L 313.336775 17.554286 
" style="fill:none;stroke:#424242;stroke-linecap:round;stroke-width:2.16;"/>
   </g>
   <g id="line2d_47">
    <path clip-path="url(#pe1b549827b)" d="M 369.136775 224.64 
L 369.136775 216.970159 
" style="fill:none;stroke:#424242;stroke-linecap:round;stroke-width:2.16;"/>
   </g>
   <g id="patch_39">
    <path d="M 43.636775 224.64 
L 43.636775 7.2 
" style="fill:none;stroke:#262626;stroke-linecap:square;stroke-linejoin:miter;"/>
   </g>
   <g id="patch_40">
    <path d="M 378.436775 224.64 
L 378.436775 7.2 
" style="fill:none;stroke:#262626;stroke-linecap:square;stroke-linejoin:miter;"/>
   </g>
   <g id="patch_41">
    <path d="M 43.636775 224.64 
L 378.436775 224.64 
" style="fill:none;stroke:#262626;stroke-linecap:square;stroke-linejoin:miter;"/>
   </g>
   <g id="patch_42">
    <path d="M 43.636775 7.2 
L 378.436775 7.2 
" style="fill:none;stroke:#262626;stroke-linecap:square;stroke-linejoin:miter;"/>
   </g>
   <g id="legend_1">
    <g id="patch_43">
     <path d="M 394.116775 128.031588 
L 534.027975 128.031588 
Q 536.315975 128.031588 536.315975 125.743587 
L 536.315975 9.488 
Q 536.315975 7.2 534.027975 7.2 
L 394.116775 7.2 
Q 391.828775 7.2 391.828775 9.488 
L 391.828775 125.743587 
Q 391.828775 128.031588 394.116775 128.031588 
z
" style="fill:#ffffff;opacity:0.8;stroke:#cccccc;stroke-linejoin:miter;stroke-width:0.8;"/>
    </g>
    <g id="text_14">
     <!-- Model -->
     <g style="fill:#262626;" transform="translate(447.078125 20.70895)scale(0.1248 -0.1248)">
      <defs>
       <path d="M 7.421875 0 
L 7.421875 71.578125 
L 21.6875 71.578125 
L 38.625 20.90625 
Q 40.96875 13.8125 42.046875 10.296875 
Q 43.265625 14.203125 45.84375 21.78125 
L 62.984375 71.578125 
L 75.734375 71.578125 
L 75.734375 0 
L 66.609375 0 
L 66.609375 59.90625 
L 45.796875 0 
L 37.25 0 
L 16.546875 60.9375 
L 16.546875 0 
z
" id="ArialMT-77"/>
      </defs>
      <use xlink:href="#ArialMT-77"/>
      <use x="83.300781" xlink:href="#ArialMT-111"/>
      <use x="138.916016" xlink:href="#ArialMT-100"/>
      <use x="194.53125" xlink:href="#ArialMT-101"/>
      <use x="250.146484" xlink:href="#ArialMT-108"/>
     </g>
    </g>
    <g id="patch_44">
     <path d="M 396.404775 37.60375 
L 419.284775 37.60375 
L 419.284775 29.59575 
L 396.404775 29.59575 
z
" style="fill:#252629;stroke:#ffffff;stroke-linejoin:miter;stroke-width:0.8;"/>
    </g>
    <g id="text_15">
     <!-- tascCODA, $\phi=-5$ -->
     <g style="fill:#262626;" transform="translate(428.436775 37.60375)scale(0.1144 -0.1144)">
      <defs>
       <path d="M 58.796875 25.09375 
L 68.265625 22.703125 
Q 65.28125 11.03125 57.546875 4.90625 
Q 49.8125 -1.21875 38.625 -1.21875 
Q 27.046875 -1.21875 19.796875 3.484375 
Q 12.546875 8.203125 8.765625 17.140625 
Q 4.984375 26.078125 4.984375 36.328125 
Q 4.984375 47.515625 9.25 55.828125 
Q 13.53125 64.15625 21.40625 68.46875 
Q 29.296875 72.796875 38.765625 72.796875 
Q 49.515625 72.796875 56.828125 67.328125 
Q 64.15625 61.859375 67.046875 51.953125 
L 57.71875 49.75 
Q 55.21875 57.5625 50.484375 61.125 
Q 45.75 64.703125 38.578125 64.703125 
Q 30.328125 64.703125 24.78125 60.734375 
Q 19.234375 56.78125 16.984375 50.109375 
Q 14.75 43.453125 14.75 36.375 
Q 14.75 27.25 17.40625 20.4375 
Q 20.0625 13.625 25.671875 10.25 
Q 31.296875 6.890625 37.84375 6.890625 
Q 45.796875 6.890625 51.3125 11.46875 
Q 56.84375 16.0625 58.796875 25.09375 
z
" id="ArialMT-67"/>
       <path d="M 4.828125 34.859375 
Q 4.828125 52.6875 14.390625 62.765625 
Q 23.96875 72.859375 39.109375 72.859375 
Q 49.03125 72.859375 56.984375 68.109375 
Q 64.9375 63.375 69.109375 54.90625 
Q 73.296875 46.4375 73.296875 35.6875 
Q 73.296875 24.8125 68.890625 16.21875 
Q 64.5 7.625 56.4375 3.203125 
Q 48.390625 -1.21875 39.0625 -1.21875 
Q 28.953125 -1.21875 20.984375 3.65625 
Q 13.03125 8.546875 8.921875 16.984375 
Q 4.828125 25.4375 4.828125 34.859375 
z
M 14.59375 34.71875 
Q 14.59375 21.78125 21.546875 14.328125 
Q 28.515625 6.890625 39.015625 6.890625 
Q 49.703125 6.890625 56.609375 14.40625 
Q 63.53125 21.921875 63.53125 35.75 
Q 63.53125 44.484375 60.578125 51 
Q 57.625 57.515625 51.921875 61.109375 
Q 46.234375 64.703125 39.15625 64.703125 
Q 29.109375 64.703125 21.84375 57.78125 
Q 14.59375 50.875 14.59375 34.71875 
z
" id="ArialMT-79"/>
       <path d="M 7.71875 0 
L 7.71875 71.578125 
L 32.375 71.578125 
Q 40.71875 71.578125 45.125 70.5625 
Q 51.265625 69.140625 55.609375 65.4375 
Q 61.28125 60.640625 64.078125 53.1875 
Q 66.890625 45.75 66.890625 36.1875 
Q 66.890625 28.03125 64.984375 21.734375 
Q 63.09375 15.4375 60.109375 11.296875 
Q 57.125 7.171875 53.578125 4.796875 
Q 50.046875 2.4375 45.046875 1.21875 
Q 40.046875 0 33.546875 0 
z
M 17.1875 8.453125 
L 32.46875 8.453125 
Q 39.546875 8.453125 43.578125 9.765625 
Q 47.609375 11.078125 50 13.484375 
Q 53.375 16.84375 55.25 22.53125 
Q 57.125 28.21875 57.125 36.328125 
Q 57.125 47.5625 53.4375 53.59375 
Q 49.75 59.625 44.484375 61.671875 
Q 40.671875 63.140625 32.234375 63.140625 
L 17.1875 63.140625 
z
" id="ArialMT-68"/>
       <path d="M -0.140625 0 
L 27.34375 71.578125 
L 37.546875 71.578125 
L 66.84375 0 
L 56.0625 0 
L 47.703125 21.6875 
L 17.78125 21.6875 
L 9.90625 0 
z
M 20.515625 29.390625 
L 44.78125 29.390625 
L 37.3125 49.21875 
Q 33.890625 58.25 32.234375 64.0625 
Q 30.859375 57.171875 28.375 50.390625 
z
" id="ArialMT-65"/>
       <path d="M 8.890625 0 
L 8.890625 10.015625 
L 18.890625 10.015625 
L 18.890625 0 
Q 18.890625 -5.515625 16.9375 -8.90625 
Q 14.984375 -12.3125 10.75 -14.15625 
L 8.296875 -10.40625 
Q 11.078125 -9.1875 12.390625 -6.8125 
Q 13.71875 -4.4375 13.875 0 
z
" id="ArialMT-44"/>
       <path d="M 46.734375 75.984375 
L 42.78125 55.8125 
Q 52.546875 55.8125 57.5625 48.34375 
Q 62.75 40.71875 60.15625 27.296875 
Q 57.515625 13.875 49.359375 6.25 
Q 41.453125 -1.21875 31.6875 -1.21875 
L 27.875 -20.796875 
L 18.953125 -20.796875 
L 22.75 -1.21875 
Q 13.03125 -1.21875 7.953125 6.25 
Q 2.78125 13.875 5.421875 27.296875 
Q 8.015625 40.71875 16.15625 48.34375 
Q 24.125 55.8125 33.84375 55.8125 
L 37.796875 75.984375 
z
M 33.25 6.78125 
Q 38.765625 6.78125 43.5 11.8125 
Q 48.6875 17.4375 50.6875 27.296875 
Q 52.640625 37.0625 49.515625 42.78125 
Q 46.734375 47.796875 41.21875 47.796875 
z
M 24.3125 6.78125 
L 32.28125 47.796875 
Q 26.8125 47.796875 22.078125 42.78125 
Q 16.75 37.0625 14.890625 27.296875 
Q 13.03125 17.4375 16.0625 11.8125 
Q 18.796875 6.78125 24.3125 6.78125 
z
" id="DejaVuSans-Oblique-981"/>
       <path d="M 10.59375 45.40625 
L 73.1875 45.40625 
L 73.1875 37.203125 
L 10.59375 37.203125 
z
M 10.59375 25.484375 
L 73.1875 25.484375 
L 73.1875 17.1875 
L 10.59375 17.1875 
z
" id="DejaVuSans-61"/>
       <path d="M 10.59375 35.5 
L 73.1875 35.5 
L 73.1875 27.203125 
L 10.59375 27.203125 
z
" id="DejaVuSans-8722"/>
       <path d="M 10.796875 72.90625 
L 49.515625 72.90625 
L 49.515625 64.59375 
L 19.828125 64.59375 
L 19.828125 46.734375 
Q 21.96875 47.46875 24.109375 47.828125 
Q 26.265625 48.1875 28.421875 48.1875 
Q 40.625 48.1875 47.75 41.5 
Q 54.890625 34.8125 54.890625 23.390625 
Q 54.890625 11.625 47.5625 5.09375 
Q 40.234375 -1.421875 26.90625 -1.421875 
Q 22.3125 -1.421875 17.546875 -0.640625 
Q 12.796875 0.140625 7.71875 1.703125 
L 7.71875 11.625 
Q 12.109375 9.234375 16.796875 8.0625 
Q 21.484375 6.890625 26.703125 6.890625 
Q 35.15625 6.890625 40.078125 11.328125 
Q 45.015625 15.765625 45.015625 23.390625 
Q 45.015625 31 40.078125 35.4375 
Q 35.15625 39.890625 26.703125 39.890625 
Q 22.75 39.890625 18.8125 39.015625 
Q 14.890625 38.140625 10.796875 36.28125 
z
" id="DejaVuSans-53"/>
      </defs>
      <use transform="translate(0 0.015625)" xlink:href="#ArialMT-116"/>
      <use transform="translate(27.783203 0.015625)" xlink:href="#ArialMT-97"/>
      <use transform="translate(83.398438 0.015625)" xlink:href="#ArialMT-115"/>
      <use transform="translate(133.398438 0.015625)" xlink:href="#ArialMT-99"/>
      <use transform="translate(183.398438 0.015625)" xlink:href="#ArialMT-67"/>
      <use transform="translate(255.615234 0.015625)" xlink:href="#ArialMT-79"/>
      <use transform="translate(333.398438 0.015625)" xlink:href="#ArialMT-68"/>
      <use transform="translate(405.615234 0.015625)" xlink:href="#ArialMT-65"/>
      <use transform="translate(472.314453 0.015625)" xlink:href="#ArialMT-44"/>
      <use transform="translate(500.097656 0.015625)" xlink:href="#ArialMT-32"/>
      <use transform="translate(527.880859 0.015625)" xlink:href="#DejaVuSans-Oblique-981"/>
      <use transform="translate(613.330078 0.015625)" xlink:href="#DejaVuSans-61"/>
      <use transform="translate(736.083984 0.015625)" xlink:href="#DejaVuSans-8722"/>
      <use transform="translate(839.355469 0.015625)" xlink:href="#DejaVuSans-53"/>
     </g>
    </g>
    <g id="patch_45">
     <path d="M 396.404775 54.42055 
L 419.284775 54.42055 
L 419.284775 46.41255 
L 396.404775 46.41255 
z
" style="fill:#394352;stroke:#ffffff;stroke-linejoin:miter;stroke-width:0.8;"/>
    </g>
    <g id="text_16">
     <!-- tascCODA, $\phi=-1$ -->
     <g style="fill:#262626;" transform="translate(428.436775 54.42055)scale(0.1144 -0.1144)">
      <defs>
       <path d="M 12.40625 8.296875 
L 28.515625 8.296875 
L 28.515625 63.921875 
L 10.984375 60.40625 
L 10.984375 69.390625 
L 28.421875 72.90625 
L 38.28125 72.90625 
L 38.28125 8.296875 
L 54.390625 8.296875 
L 54.390625 0 
L 12.40625 0 
z
" id="DejaVuSans-49"/>
      </defs>
      <use transform="translate(0 0.015625)" xlink:href="#ArialMT-116"/>
      <use transform="translate(27.783203 0.015625)" xlink:href="#ArialMT-97"/>
      <use transform="translate(83.398438 0.015625)" xlink:href="#ArialMT-115"/>
      <use transform="translate(133.398438 0.015625)" xlink:href="#ArialMT-99"/>
      <use transform="translate(183.398438 0.015625)" xlink:href="#ArialMT-67"/>
      <use transform="translate(255.615234 0.015625)" xlink:href="#ArialMT-79"/>
      <use transform="translate(333.398438 0.015625)" xlink:href="#ArialMT-68"/>
      <use transform="translate(405.615234 0.015625)" xlink:href="#ArialMT-65"/>
      <use transform="translate(472.314453 0.015625)" xlink:href="#ArialMT-44"/>
      <use transform="translate(500.097656 0.015625)" xlink:href="#ArialMT-32"/>
      <use transform="translate(527.880859 0.015625)" xlink:href="#DejaVuSans-Oblique-981"/>
      <use transform="translate(613.330078 0.015625)" xlink:href="#DejaVuSans-61"/>
      <use transform="translate(736.083984 0.015625)" xlink:href="#DejaVuSans-8722"/>
      <use transform="translate(839.355469 0.015625)" xlink:href="#DejaVuSans-49"/>
     </g>
    </g>
    <g id="patch_46">
     <path d="M 396.404775 71.23735 
L 419.284775 71.23735 
L 419.284775 63.22935 
L 396.404775 63.22935 
z
" style="fill:#4d617c;stroke:#ffffff;stroke-linejoin:miter;stroke-width:0.8;"/>
    </g>
    <g id="text_17">
     <!-- tascCODA, $\phi=0$ -->
     <g style="fill:#262626;" transform="translate(428.436775 71.23735)scale(0.1144 -0.1144)">
      <defs>
       <path d="M 31.78125 66.40625 
Q 24.171875 66.40625 20.328125 58.90625 
Q 16.5 51.421875 16.5 36.375 
Q 16.5 21.390625 20.328125 13.890625 
Q 24.171875 6.390625 31.78125 6.390625 
Q 39.453125 6.390625 43.28125 13.890625 
Q 47.125 21.390625 47.125 36.375 
Q 47.125 51.421875 43.28125 58.90625 
Q 39.453125 66.40625 31.78125 66.40625 
z
M 31.78125 74.21875 
Q 44.046875 74.21875 50.515625 64.515625 
Q 56.984375 54.828125 56.984375 36.375 
Q 56.984375 17.96875 50.515625 8.265625 
Q 44.046875 -1.421875 31.78125 -1.421875 
Q 19.53125 -1.421875 13.0625 8.265625 
Q 6.59375 17.96875 6.59375 36.375 
Q 6.59375 54.828125 13.0625 64.515625 
Q 19.53125 74.21875 31.78125 74.21875 
z
" id="DejaVuSans-48"/>
      </defs>
      <use transform="translate(0 0.015625)" xlink:href="#ArialMT-116"/>
      <use transform="translate(27.783203 0.015625)" xlink:href="#ArialMT-97"/>
      <use transform="translate(83.398438 0.015625)" xlink:href="#ArialMT-115"/>
      <use transform="translate(133.398438 0.015625)" xlink:href="#ArialMT-99"/>
      <use transform="translate(183.398438 0.015625)" xlink:href="#ArialMT-67"/>
      <use transform="translate(255.615234 0.015625)" xlink:href="#ArialMT-79"/>
      <use transform="translate(333.398438 0.015625)" xlink:href="#ArialMT-68"/>
      <use transform="translate(405.615234 0.015625)" xlink:href="#ArialMT-65"/>
      <use transform="translate(472.314453 0.015625)" xlink:href="#ArialMT-44"/>
      <use transform="translate(500.097656 0.015625)" xlink:href="#ArialMT-32"/>
      <use transform="translate(527.880859 0.015625)" xlink:href="#DejaVuSans-Oblique-981"/>
      <use transform="translate(613.330078 0.015625)" xlink:href="#DejaVuSans-61"/>
      <use transform="translate(716.601562 0.015625)" xlink:href="#DejaVuSans-48"/>
     </g>
    </g>
    <g id="patch_47">
     <path d="M 396.404775 88.05415 
L 419.284775 88.05415 
L 419.284775 80.04615 
L 396.404775 80.04615 
z
" style="fill:#617ea5;stroke:#ffffff;stroke-linejoin:miter;stroke-width:0.8;"/>
    </g>
    <g id="text_18">
     <!-- tascCODA, $\phi=1$ -->
     <g style="fill:#262626;" transform="translate(428.436775 88.05415)scale(0.1144 -0.1144)">
      <use transform="translate(0 0.015625)" xlink:href="#ArialMT-116"/>
      <use transform="translate(27.783203 0.015625)" xlink:href="#ArialMT-97"/>
      <use transform="translate(83.398438 0.015625)" xlink:href="#ArialMT-115"/>
      <use transform="translate(133.398438 0.015625)" xlink:href="#ArialMT-99"/>
      <use transform="translate(183.398438 0.015625)" xlink:href="#ArialMT-67"/>
      <use transform="translate(255.615234 0.015625)" xlink:href="#ArialMT-79"/>
      <use transform="translate(333.398438 0.015625)" xlink:href="#ArialMT-68"/>
      <use transform="translate(405.615234 0.015625)" xlink:href="#ArialMT-65"/>
      <use transform="translate(472.314453 0.015625)" xlink:href="#ArialMT-44"/>
      <use transform="translate(500.097656 0.015625)" xlink:href="#ArialMT-32"/>
      <use transform="translate(527.880859 0.015625)" xlink:href="#DejaVuSans-Oblique-981"/>
      <use transform="translate(613.330078 0.015625)" xlink:href="#DejaVuSans-61"/>
      <use transform="translate(716.601562 0.015625)" xlink:href="#DejaVuSans-49"/>
     </g>
    </g>
    <g id="patch_48">
     <path d="M 396.404775 104.87095 
L 419.284775 104.87095 
L 419.284775 96.86295 
L 396.404775 96.86295 
z
" style="fill:#759bce;stroke:#ffffff;stroke-linejoin:miter;stroke-width:0.8;"/>
    </g>
    <g id="text_19">
     <!-- tascCODA, $\phi=5$ -->
     <g style="fill:#262626;" transform="translate(428.436775 104.87095)scale(0.1144 -0.1144)">
      <use transform="translate(0 0.015625)" xlink:href="#ArialMT-116"/>
      <use transform="translate(27.783203 0.015625)" xlink:href="#ArialMT-97"/>
      <use transform="translate(83.398438 0.015625)" xlink:href="#ArialMT-115"/>
      <use transform="translate(133.398438 0.015625)" xlink:href="#ArialMT-99"/>
      <use transform="translate(183.398438 0.015625)" xlink:href="#ArialMT-67"/>
      <use transform="translate(255.615234 0.015625)" xlink:href="#ArialMT-79"/>
      <use transform="translate(333.398438 0.015625)" xlink:href="#ArialMT-68"/>
      <use transform="translate(405.615234 0.015625)" xlink:href="#ArialMT-65"/>
      <use transform="translate(472.314453 0.015625)" xlink:href="#ArialMT-44"/>
      <use transform="translate(500.097656 0.015625)" xlink:href="#ArialMT-32"/>
      <use transform="translate(527.880859 0.015625)" xlink:href="#DejaVuSans-Oblique-981"/>
      <use transform="translate(613.330078 0.015625)" xlink:href="#DejaVuSans-61"/>
      <use transform="translate(716.601562 0.015625)" xlink:href="#DejaVuSans-53"/>
     </g>
    </g>
    <g id="patch_49">
     <path d="M 396.404775 121.181888 
L 419.284775 121.181888 
L 419.284775 113.173888 
L 396.404775 113.173888 
z
" style="fill:#df2020;stroke:#ffffff;stroke-linejoin:miter;stroke-width:0.8;"/>
    </g>
    <g id="text_20">
     <!-- scCODA -->
     <g style="fill:#262626;" transform="translate(428.436775 121.181888)scale(0.1144 -0.1144)">
      <use xlink:href="#ArialMT-115"/>
      <use x="50" xlink:href="#ArialMT-99"/>
      <use x="100" xlink:href="#ArialMT-67"/>
      <use x="172.216797" xlink:href="#ArialMT-79"/>
      <use x="250" xlink:href="#ArialMT-68"/>
      <use x="322.216797" xlink:href="#ArialMT-65"/>
     </g>
    </g>
   </g>
  </g>
 </g>
 <defs>
  <clipPath id="pe1b549827b">
   <rect height="217.44" width="334.8" x="43.636775" y="7.2"/>
  </clipPath>
 </defs>
</svg>
