<?xml version="1.0" encoding="utf-8" standalone="no"?>
<!DOCTYPE svg PUBLIC "-//W3C//DTD SVG 1.1//EN"
  "http://www.w3.org/Graphics/SVG/1.1/DTD/svg11.dtd">
<!-- Created with matplotlib (https://matplotlib.org/) -->
<svg height="355.896484pt" version="1.1" viewBox="0 0 1595.057344 355.896484" width="1595.057344pt" xmlns="http://www.w3.org/2000/svg" xmlns:xlink="http://www.w3.org/1999/xlink">
 <metadata>
  <rdf:RDF xmlns:cc="http://creativecommons.org/ns#" xmlns:dc="http://purl.org/dc/elements/1.1/" xmlns:rdf="http://www.w3.org/1999/02/22-rdf-syntax-ns#">
   <cc:Work>
    <dc:type rdf:resource="http://purl.org/dc/dcmitype/StillImage"/>
    <dc:date>2021-10-06T10:04:43.422498</dc:date>
    <dc:format>image/svg+xml</dc:format>
    <dc:creator>
     <cc:Agent>
      <dc:title>Matplotlib v3.3.3, https://matplotlib.org/</dc:title>
     </cc:Agent>
    </dc:creator>
   </cc:Work>
  </rdf:RDF>
 </metadata>
 <defs>
  <style type="text/css">*{stroke-linecap:butt;stroke-linejoin:round;}</style>
 </defs>
 <g id="figure_1">
  <g id="patch_1">
   <path d="M 0 355.896484 
L 1595.057344 355.896484 
L 1595.057344 0 
L 0 0 
z
" style="fill:#ffffff;"/>
  </g>
  <g id="axes_1">
   <g id="patch_2">
    <path d="M 63.195781 307.852 
L 396.115531 307.852 
L 396.115531 42.048 
L 63.195781 42.048 
z
" style="fill:#ffffff;"/>
   </g>
   <g id="matplotlib.axis_1">
    <g id="xtick_1">
     <g id="line2d_1">
      <defs>
       <path d="M 0 0 
L 0 6 
" id="m27645a7814" style="stroke:#262626;stroke-width:1.25;"/>
      </defs>
      <g>
       <use style="fill:#262626;stroke:#262626;stroke-width:1.25;" x="78.328497" xlink:href="#m27645a7814" y="307.852"/>
      </g>
     </g>
     <g id="text_1">
      <!-- 0.3 -->
      <g style="fill:#262626;" transform="translate(68.389997 327.587672)scale(0.143 -0.143)">
       <defs>
        <path d="M 4.15625 35.296875 
Q 4.15625 48 6.765625 55.734375 
Q 9.375 63.484375 14.515625 67.671875 
Q 19.671875 71.875 27.484375 71.875 
Q 33.25 71.875 37.59375 69.546875 
Q 41.9375 67.234375 44.765625 62.859375 
Q 47.609375 58.5 49.21875 52.21875 
Q 50.828125 45.953125 50.828125 35.296875 
Q 50.828125 22.703125 48.234375 14.96875 
Q 45.65625 7.234375 40.5 3 
Q 35.359375 -1.21875 27.484375 -1.21875 
Q 17.140625 -1.21875 11.234375 6.203125 
Q 4.15625 15.140625 4.15625 35.296875 
z
M 13.1875 35.296875 
Q 13.1875 17.671875 17.3125 11.828125 
Q 21.4375 6 27.484375 6 
Q 33.546875 6 37.671875 11.859375 
Q 41.796875 17.71875 41.796875 35.296875 
Q 41.796875 52.984375 37.671875 58.78125 
Q 33.546875 64.59375 27.390625 64.59375 
Q 21.34375 64.59375 17.71875 59.46875 
Q 13.1875 52.9375 13.1875 35.296875 
z
" id="ArialMT-48"/>
        <path d="M 9.078125 0 
L 9.078125 10.015625 
L 19.09375 10.015625 
L 19.09375 0 
z
" id="ArialMT-46"/>
        <path d="M 4.203125 18.890625 
L 12.984375 20.0625 
Q 14.5 12.59375 18.140625 9.296875 
Q 21.78125 6 27 6 
Q 33.203125 6 37.46875 10.296875 
Q 41.75 14.59375 41.75 20.953125 
Q 41.75 27 37.796875 30.921875 
Q 33.84375 34.859375 27.734375 34.859375 
Q 25.25 34.859375 21.53125 33.890625 
L 22.515625 41.609375 
Q 23.390625 41.5 23.921875 41.5 
Q 29.546875 41.5 34.03125 44.421875 
Q 38.53125 47.359375 38.53125 53.46875 
Q 38.53125 58.296875 35.25 61.46875 
Q 31.984375 64.65625 26.8125 64.65625 
Q 21.6875 64.65625 18.265625 61.421875 
Q 14.84375 58.203125 13.875 51.765625 
L 5.078125 53.328125 
Q 6.6875 62.15625 12.390625 67.015625 
Q 18.109375 71.875 26.609375 71.875 
Q 32.46875 71.875 37.390625 69.359375 
Q 42.328125 66.84375 44.9375 62.5 
Q 47.5625 58.15625 47.5625 53.265625 
Q 47.5625 48.640625 45.0625 44.828125 
Q 42.578125 41.015625 37.703125 38.765625 
Q 44.046875 37.3125 47.5625 32.6875 
Q 51.078125 28.078125 51.078125 21.140625 
Q 51.078125 11.765625 44.234375 5.25 
Q 37.40625 -1.265625 26.953125 -1.265625 
Q 17.53125 -1.265625 11.296875 4.34375 
Q 5.078125 9.96875 4.203125 18.890625 
z
" id="ArialMT-51"/>
       </defs>
       <use xlink:href="#ArialMT-48"/>
       <use x="55.615234" xlink:href="#ArialMT-46"/>
       <use x="83.398438" xlink:href="#ArialMT-51"/>
      </g>
     </g>
    </g>
    <g id="xtick_2">
     <g id="line2d_2">
      <g>
       <use style="fill:#262626;stroke:#262626;stroke-width:1.25;" x="179.21327" xlink:href="#m27645a7814" y="307.852"/>
      </g>
     </g>
     <g id="text_2">
      <!-- 0.5 -->
      <g style="fill:#262626;" transform="translate(169.27477 327.587672)scale(0.143 -0.143)">
       <defs>
        <path d="M 4.15625 18.75 
L 13.375 19.53125 
Q 14.40625 12.796875 18.140625 9.390625 
Q 21.875 6 27.15625 6 
Q 33.5 6 37.890625 10.78125 
Q 42.28125 15.578125 42.28125 23.484375 
Q 42.28125 31 38.0625 35.34375 
Q 33.84375 39.703125 27 39.703125 
Q 22.75 39.703125 19.328125 37.765625 
Q 15.921875 35.84375 13.96875 32.765625 
L 5.71875 33.84375 
L 12.640625 70.609375 
L 48.25 70.609375 
L 48.25 62.203125 
L 19.671875 62.203125 
L 15.828125 42.96875 
Q 22.265625 47.46875 29.34375 47.46875 
Q 38.71875 47.46875 45.15625 40.96875 
Q 51.609375 34.46875 51.609375 24.265625 
Q 51.609375 14.546875 45.953125 7.46875 
Q 39.0625 -1.21875 27.15625 -1.21875 
Q 17.390625 -1.21875 11.203125 4.25 
Q 5.03125 9.71875 4.15625 18.75 
z
" id="ArialMT-53"/>
       </defs>
       <use xlink:href="#ArialMT-48"/>
       <use x="55.615234" xlink:href="#ArialMT-46"/>
       <use x="83.398438" xlink:href="#ArialMT-53"/>
      </g>
     </g>
    </g>
    <g id="xtick_3">
     <g id="line2d_3">
      <g>
       <use style="fill:#262626;stroke:#262626;stroke-width:1.25;" x="280.098043" xlink:href="#m27645a7814" y="307.852"/>
      </g>
     </g>
     <g id="text_3">
      <!-- 0.7 -->
      <g style="fill:#262626;" transform="translate(270.159543 327.587672)scale(0.143 -0.143)">
       <defs>
        <path d="M 4.734375 62.203125 
L 4.734375 70.65625 
L 51.078125 70.65625 
L 51.078125 63.8125 
Q 44.234375 56.546875 37.515625 44.484375 
Q 30.8125 32.421875 27.15625 19.671875 
Q 24.515625 10.6875 23.78125 0 
L 14.75 0 
Q 14.890625 8.453125 18.0625 20.40625 
Q 21.234375 32.375 27.171875 43.484375 
Q 33.109375 54.59375 39.796875 62.203125 
z
" id="ArialMT-55"/>
       </defs>
       <use xlink:href="#ArialMT-48"/>
       <use x="55.615234" xlink:href="#ArialMT-46"/>
       <use x="83.398438" xlink:href="#ArialMT-55"/>
      </g>
     </g>
    </g>
    <g id="xtick_4">
     <g id="line2d_4">
      <g>
       <use style="fill:#262626;stroke:#262626;stroke-width:1.25;" x="380.982815" xlink:href="#m27645a7814" y="307.852"/>
      </g>
     </g>
     <g id="text_4">
      <!-- 0.9 -->
      <g style="fill:#262626;" transform="translate(371.044315 327.587672)scale(0.143 -0.143)">
       <defs>
        <path d="M 5.46875 16.546875 
L 13.921875 17.328125 
Q 14.984375 11.375 18.015625 8.6875 
Q 21.046875 6 25.78125 6 
Q 29.828125 6 32.875 7.859375 
Q 35.9375 9.71875 37.890625 12.8125 
Q 39.84375 15.921875 41.15625 21.1875 
Q 42.484375 26.46875 42.484375 31.9375 
Q 42.484375 32.515625 42.4375 33.6875 
Q 39.796875 29.5 35.234375 26.875 
Q 30.671875 24.265625 25.34375 24.265625 
Q 16.453125 24.265625 10.296875 30.703125 
Q 4.15625 37.15625 4.15625 47.703125 
Q 4.15625 58.59375 10.578125 65.234375 
Q 17 71.875 26.65625 71.875 
Q 33.640625 71.875 39.421875 68.109375 
Q 45.21875 64.359375 48.21875 57.390625 
Q 51.21875 50.4375 51.21875 37.25 
Q 51.21875 23.53125 48.234375 15.40625 
Q 45.265625 7.28125 39.375 3.03125 
Q 33.5 -1.21875 25.59375 -1.21875 
Q 17.1875 -1.21875 11.859375 3.4375 
Q 6.546875 8.109375 5.46875 16.546875 
z
M 41.453125 48.140625 
Q 41.453125 55.71875 37.421875 60.15625 
Q 33.40625 64.59375 27.734375 64.59375 
Q 21.875 64.59375 17.53125 59.8125 
Q 13.1875 55.03125 13.1875 47.40625 
Q 13.1875 40.578125 17.3125 36.296875 
Q 21.4375 32.03125 27.484375 32.03125 
Q 33.59375 32.03125 37.515625 36.296875 
Q 41.453125 40.578125 41.453125 48.140625 
z
" id="ArialMT-57"/>
       </defs>
       <use xlink:href="#ArialMT-48"/>
       <use x="55.615234" xlink:href="#ArialMT-46"/>
       <use x="83.398438" xlink:href="#ArialMT-57"/>
      </g>
     </g>
    </g>
    <g id="text_5">
     <!-- Effect size -->
     <g style="fill:#262626;" transform="translate(193.813438 345.595984)scale(0.156 -0.156)">
      <defs>
       <path d="M 7.90625 0 
L 7.90625 71.578125 
L 59.671875 71.578125 
L 59.671875 63.140625 
L 17.390625 63.140625 
L 17.390625 41.21875 
L 56.984375 41.21875 
L 56.984375 32.8125 
L 17.390625 32.8125 
L 17.390625 8.453125 
L 61.328125 8.453125 
L 61.328125 0 
z
" id="ArialMT-69"/>
       <path d="M 8.6875 0 
L 8.6875 45.015625 
L 0.921875 45.015625 
L 0.921875 51.859375 
L 8.6875 51.859375 
L 8.6875 57.375 
Q 8.6875 62.59375 9.625 65.140625 
Q 10.890625 68.5625 14.078125 70.671875 
Q 17.28125 72.796875 23.046875 72.796875 
Q 26.765625 72.796875 31.25 71.921875 
L 29.9375 64.265625 
Q 27.203125 64.75 24.75 64.75 
Q 20.75 64.75 19.09375 63.03125 
Q 17.4375 61.328125 17.4375 56.640625 
L 17.4375 51.859375 
L 27.546875 51.859375 
L 27.546875 45.015625 
L 17.4375 45.015625 
L 17.4375 0 
z
" id="ArialMT-102"/>
       <path d="M 42.09375 16.703125 
L 51.171875 15.578125 
Q 49.03125 7.625 43.21875 3.21875 
Q 37.40625 -1.171875 28.375 -1.171875 
Q 17 -1.171875 10.328125 5.828125 
Q 3.65625 12.84375 3.65625 25.484375 
Q 3.65625 38.578125 10.390625 45.796875 
Q 17.140625 53.03125 27.875 53.03125 
Q 38.28125 53.03125 44.875 45.953125 
Q 51.46875 38.875 51.46875 26.03125 
Q 51.46875 25.25 51.421875 23.6875 
L 12.75 23.6875 
Q 13.234375 15.140625 17.578125 10.59375 
Q 21.921875 6.0625 28.421875 6.0625 
Q 33.25 6.0625 36.671875 8.59375 
Q 40.09375 11.140625 42.09375 16.703125 
z
M 13.234375 30.90625 
L 42.1875 30.90625 
Q 41.609375 37.453125 38.875 40.71875 
Q 34.671875 45.796875 27.984375 45.796875 
Q 21.921875 45.796875 17.796875 41.75 
Q 13.671875 37.703125 13.234375 30.90625 
z
" id="ArialMT-101"/>
       <path d="M 40.4375 19 
L 49.078125 17.875 
Q 47.65625 8.9375 41.8125 3.875 
Q 35.984375 -1.171875 27.484375 -1.171875 
Q 16.84375 -1.171875 10.375 5.78125 
Q 3.90625 12.75 3.90625 25.734375 
Q 3.90625 34.125 6.6875 40.421875 
Q 9.46875 46.734375 15.15625 49.875 
Q 20.84375 53.03125 27.546875 53.03125 
Q 35.984375 53.03125 41.359375 48.75 
Q 46.734375 44.484375 48.25 36.625 
L 39.703125 35.296875 
Q 38.484375 40.53125 35.375 43.15625 
Q 32.28125 45.796875 27.875 45.796875 
Q 21.234375 45.796875 17.078125 41.03125 
Q 12.9375 36.28125 12.9375 25.984375 
Q 12.9375 15.53125 16.9375 10.796875 
Q 20.953125 6.0625 27.390625 6.0625 
Q 32.5625 6.0625 36.03125 9.234375 
Q 39.5 12.40625 40.4375 19 
z
" id="ArialMT-99"/>
       <path d="M 25.78125 7.859375 
L 27.046875 0.09375 
Q 23.34375 -0.6875 20.40625 -0.6875 
Q 15.625 -0.6875 12.984375 0.828125 
Q 10.359375 2.34375 9.28125 4.8125 
Q 8.203125 7.28125 8.203125 15.1875 
L 8.203125 45.015625 
L 1.765625 45.015625 
L 1.765625 51.859375 
L 8.203125 51.859375 
L 8.203125 64.703125 
L 16.9375 69.96875 
L 16.9375 51.859375 
L 25.78125 51.859375 
L 25.78125 45.015625 
L 16.9375 45.015625 
L 16.9375 14.703125 
Q 16.9375 10.9375 17.40625 9.859375 
Q 17.875 8.796875 18.921875 8.15625 
Q 19.96875 7.515625 21.921875 7.515625 
Q 23.390625 7.515625 25.78125 7.859375 
z
" id="ArialMT-116"/>
       <path id="ArialMT-32"/>
       <path d="M 3.078125 15.484375 
L 11.765625 16.84375 
Q 12.5 11.625 15.84375 8.84375 
Q 19.1875 6.0625 25.203125 6.0625 
Q 31.25 6.0625 34.171875 8.515625 
Q 37.109375 10.984375 37.109375 14.3125 
Q 37.109375 17.28125 34.515625 19 
Q 32.71875 20.171875 25.53125 21.96875 
Q 15.875 24.421875 12.140625 26.203125 
Q 8.40625 27.984375 6.46875 31.125 
Q 4.546875 34.28125 4.546875 38.09375 
Q 4.546875 41.546875 6.125 44.5 
Q 7.71875 47.46875 10.453125 49.421875 
Q 12.5 50.921875 16.03125 51.96875 
Q 19.578125 53.03125 23.640625 53.03125 
Q 29.734375 53.03125 34.34375 51.265625 
Q 38.96875 49.515625 41.15625 46.5 
Q 43.359375 43.5 44.1875 38.484375 
L 35.59375 37.3125 
Q 35.015625 41.3125 32.203125 43.546875 
Q 29.390625 45.796875 24.265625 45.796875 
Q 18.21875 45.796875 15.625 43.796875 
Q 13.03125 41.796875 13.03125 39.109375 
Q 13.03125 37.40625 14.109375 36.03125 
Q 15.1875 34.625 17.484375 33.6875 
Q 18.796875 33.203125 25.25 31.453125 
Q 34.578125 28.953125 38.25 27.359375 
Q 41.9375 25.78125 44.03125 22.75 
Q 46.140625 19.734375 46.140625 15.234375 
Q 46.140625 10.84375 43.578125 6.953125 
Q 41.015625 3.078125 36.171875 0.953125 
Q 31.34375 -1.171875 25.25 -1.171875 
Q 15.140625 -1.171875 9.84375 3.03125 
Q 4.546875 7.234375 3.078125 15.484375 
z
" id="ArialMT-115"/>
       <path d="M 6.640625 61.46875 
L 6.640625 71.578125 
L 15.4375 71.578125 
L 15.4375 61.46875 
z
M 6.640625 0 
L 6.640625 51.859375 
L 15.4375 51.859375 
L 15.4375 0 
z
" id="ArialMT-105"/>
       <path d="M 1.953125 0 
L 1.953125 7.125 
L 34.96875 45.015625 
Q 29.34375 44.734375 25.046875 44.734375 
L 3.90625 44.734375 
L 3.90625 51.859375 
L 46.296875 51.859375 
L 46.296875 46.046875 
L 18.21875 13.140625 
L 12.796875 7.125 
Q 18.703125 7.5625 23.875 7.5625 
L 47.859375 7.5625 
L 47.859375 0 
z
" id="ArialMT-122"/>
      </defs>
      <use xlink:href="#ArialMT-69"/>
      <use x="66.699219" xlink:href="#ArialMT-102"/>
      <use x="92.732422" xlink:href="#ArialMT-102"/>
      <use x="120.515625" xlink:href="#ArialMT-101"/>
      <use x="176.130859" xlink:href="#ArialMT-99"/>
      <use x="226.130859" xlink:href="#ArialMT-116"/>
      <use x="253.914062" xlink:href="#ArialMT-32"/>
      <use x="281.697266" xlink:href="#ArialMT-115"/>
      <use x="331.697266" xlink:href="#ArialMT-105"/>
      <use x="353.914062" xlink:href="#ArialMT-122"/>
      <use x="403.914062" xlink:href="#ArialMT-101"/>
     </g>
    </g>
   </g>
   <g id="matplotlib.axis_2">
    <g id="ytick_1">
     <g id="line2d_5">
      <defs>
       <path d="M 0 0 
L -6 0 
" id="m3f00b784ac" style="stroke:#262626;stroke-width:1.25;"/>
      </defs>
      <g>
       <use style="fill:#262626;stroke:#262626;stroke-width:1.25;" x="63.195781" xlink:href="#m3f00b784ac" y="297.21984"/>
      </g>
     </g>
     <g id="text_6">
      <!-- −0.2 -->
      <g style="fill:#262626;" transform="translate(25.466688 302.337676)scale(0.143 -0.143)">
       <defs>
        <path d="M 52.828125 31.203125 
L 5.5625 31.203125 
L 5.5625 39.40625 
L 52.828125 39.40625 
z
" id="ArialMT-8722"/>
        <path d="M 50.34375 8.453125 
L 50.34375 0 
L 3.03125 0 
Q 2.9375 3.171875 4.046875 6.109375 
Q 5.859375 10.9375 9.828125 15.625 
Q 13.8125 20.3125 21.34375 26.46875 
Q 33.015625 36.03125 37.109375 41.625 
Q 41.21875 47.21875 41.21875 52.203125 
Q 41.21875 57.421875 37.46875 61 
Q 33.734375 64.59375 27.734375 64.59375 
Q 21.390625 64.59375 17.578125 60.78125 
Q 13.765625 56.984375 13.71875 50.25 
L 4.6875 51.171875 
Q 5.609375 61.28125 11.65625 66.578125 
Q 17.71875 71.875 27.9375 71.875 
Q 38.234375 71.875 44.234375 66.15625 
Q 50.25 60.453125 50.25 52 
Q 50.25 47.703125 48.484375 43.546875 
Q 46.734375 39.40625 42.65625 34.8125 
Q 38.578125 30.21875 29.109375 22.21875 
Q 21.1875 15.578125 18.9375 13.203125 
Q 16.703125 10.84375 15.234375 8.453125 
z
" id="ArialMT-50"/>
       </defs>
       <use xlink:href="#ArialMT-8722"/>
       <use x="58.398438" xlink:href="#ArialMT-48"/>
       <use x="114.013672" xlink:href="#ArialMT-46"/>
       <use x="141.796875" xlink:href="#ArialMT-50"/>
      </g>
     </g>
    </g>
    <g id="ytick_2">
     <g id="line2d_6">
      <g>
       <use style="fill:#262626;stroke:#262626;stroke-width:1.25;" x="63.195781" xlink:href="#m3f00b784ac" y="254.6912"/>
      </g>
     </g>
     <g id="text_7">
      <!-- 0.0 -->
      <g style="fill:#262626;" transform="translate(33.818781 259.809036)scale(0.143 -0.143)">
       <use xlink:href="#ArialMT-48"/>
       <use x="55.615234" xlink:href="#ArialMT-46"/>
       <use x="83.398438" xlink:href="#ArialMT-48"/>
      </g>
     </g>
    </g>
    <g id="ytick_3">
     <g id="line2d_7">
      <g>
       <use style="fill:#262626;stroke:#262626;stroke-width:1.25;" x="63.195781" xlink:href="#m3f00b784ac" y="212.16256"/>
      </g>
     </g>
     <g id="text_8">
      <!-- 0.2 -->
      <g style="fill:#262626;" transform="translate(33.818781 217.280396)scale(0.143 -0.143)">
       <use xlink:href="#ArialMT-48"/>
       <use x="55.615234" xlink:href="#ArialMT-46"/>
       <use x="83.398438" xlink:href="#ArialMT-50"/>
      </g>
     </g>
    </g>
    <g id="ytick_4">
     <g id="line2d_8">
      <g>
       <use style="fill:#262626;stroke:#262626;stroke-width:1.25;" x="63.195781" xlink:href="#m3f00b784ac" y="169.63392"/>
      </g>
     </g>
     <g id="text_9">
      <!-- 0.4 -->
      <g style="fill:#262626;" transform="translate(33.818781 174.751756)scale(0.143 -0.143)">
       <defs>
        <path d="M 32.328125 0 
L 32.328125 17.140625 
L 1.265625 17.140625 
L 1.265625 25.203125 
L 33.9375 71.578125 
L 41.109375 71.578125 
L 41.109375 25.203125 
L 50.78125 25.203125 
L 50.78125 17.140625 
L 41.109375 17.140625 
L 41.109375 0 
z
M 32.328125 25.203125 
L 32.328125 57.46875 
L 9.90625 25.203125 
z
" id="ArialMT-52"/>
       </defs>
       <use xlink:href="#ArialMT-48"/>
       <use x="55.615234" xlink:href="#ArialMT-46"/>
       <use x="83.398438" xlink:href="#ArialMT-52"/>
      </g>
     </g>
    </g>
    <g id="ytick_5">
     <g id="line2d_9">
      <g>
       <use style="fill:#262626;stroke:#262626;stroke-width:1.25;" x="63.195781" xlink:href="#m3f00b784ac" y="127.10528"/>
      </g>
     </g>
     <g id="text_10">
      <!-- 0.6 -->
      <g style="fill:#262626;" transform="translate(33.818781 132.223116)scale(0.143 -0.143)">
       <defs>
        <path d="M 49.75 54.046875 
L 41.015625 53.375 
Q 39.84375 58.546875 37.703125 60.890625 
Q 34.125 64.65625 28.90625 64.65625 
Q 24.703125 64.65625 21.53125 62.3125 
Q 17.390625 59.28125 14.984375 53.46875 
Q 12.59375 47.65625 12.5 36.921875 
Q 15.671875 41.75 20.265625 44.09375 
Q 24.859375 46.4375 29.890625 46.4375 
Q 38.671875 46.4375 44.84375 39.96875 
Q 51.03125 33.5 51.03125 23.25 
Q 51.03125 16.5 48.125 10.71875 
Q 45.21875 4.9375 40.140625 1.859375 
Q 35.0625 -1.21875 28.609375 -1.21875 
Q 17.625 -1.21875 10.6875 6.859375 
Q 3.765625 14.9375 3.765625 33.5 
Q 3.765625 54.25 11.421875 63.671875 
Q 18.109375 71.875 29.4375 71.875 
Q 37.890625 71.875 43.28125 67.140625 
Q 48.6875 62.40625 49.75 54.046875 
z
M 13.875 23.1875 
Q 13.875 18.65625 15.796875 14.5 
Q 17.71875 10.359375 21.1875 8.171875 
Q 24.65625 6 28.46875 6 
Q 34.03125 6 38.03125 10.484375 
Q 42.046875 14.984375 42.046875 22.703125 
Q 42.046875 30.125 38.078125 34.390625 
Q 34.125 38.671875 28.125 38.671875 
Q 22.171875 38.671875 18.015625 34.390625 
Q 13.875 30.125 13.875 23.1875 
z
" id="ArialMT-54"/>
       </defs>
       <use xlink:href="#ArialMT-48"/>
       <use x="55.615234" xlink:href="#ArialMT-46"/>
       <use x="83.398438" xlink:href="#ArialMT-54"/>
      </g>
     </g>
    </g>
    <g id="ytick_6">
     <g id="line2d_10">
      <g>
       <use style="fill:#262626;stroke:#262626;stroke-width:1.25;" x="63.195781" xlink:href="#m3f00b784ac" y="84.57664"/>
      </g>
     </g>
     <g id="text_11">
      <!-- 0.8 -->
      <g style="fill:#262626;" transform="translate(33.818781 89.694476)scale(0.143 -0.143)">
       <defs>
        <path d="M 17.671875 38.8125 
Q 12.203125 40.828125 9.5625 44.53125 
Q 6.9375 48.25 6.9375 53.421875 
Q 6.9375 61.234375 12.546875 66.546875 
Q 18.171875 71.875 27.484375 71.875 
Q 36.859375 71.875 42.578125 66.421875 
Q 48.296875 60.984375 48.296875 53.171875 
Q 48.296875 48.1875 45.671875 44.5 
Q 43.0625 40.828125 37.75 38.8125 
Q 44.34375 36.671875 47.78125 31.875 
Q 51.21875 27.09375 51.21875 20.453125 
Q 51.21875 11.28125 44.71875 5.03125 
Q 38.234375 -1.21875 27.640625 -1.21875 
Q 17.046875 -1.21875 10.546875 5.046875 
Q 4.046875 11.328125 4.046875 20.703125 
Q 4.046875 27.6875 7.59375 32.390625 
Q 11.140625 37.109375 17.671875 38.8125 
z
M 15.921875 53.71875 
Q 15.921875 48.640625 19.1875 45.40625 
Q 22.46875 42.1875 27.6875 42.1875 
Q 32.765625 42.1875 36.015625 45.375 
Q 39.265625 48.578125 39.265625 53.21875 
Q 39.265625 58.0625 35.90625 61.359375 
Q 32.5625 64.65625 27.59375 64.65625 
Q 22.5625 64.65625 19.234375 61.421875 
Q 15.921875 58.203125 15.921875 53.71875 
z
M 13.09375 20.65625 
Q 13.09375 16.890625 14.875 13.375 
Q 16.65625 9.859375 20.171875 7.921875 
Q 23.6875 6 27.734375 6 
Q 34.03125 6 38.125 10.046875 
Q 42.234375 14.109375 42.234375 20.359375 
Q 42.234375 26.703125 38.015625 30.859375 
Q 33.796875 35.015625 27.4375 35.015625 
Q 21.234375 35.015625 17.15625 30.90625 
Q 13.09375 26.8125 13.09375 20.65625 
z
" id="ArialMT-56"/>
       </defs>
       <use xlink:href="#ArialMT-48"/>
       <use x="55.615234" xlink:href="#ArialMT-46"/>
       <use x="83.398438" xlink:href="#ArialMT-56"/>
      </g>
     </g>
    </g>
    <g id="ytick_7">
     <g id="line2d_11">
      <g>
       <use style="fill:#262626;stroke:#262626;stroke-width:1.25;" x="63.195781" xlink:href="#m3f00b784ac" y="42.048"/>
      </g>
     </g>
     <g id="text_12">
      <!-- 1.0 -->
      <g style="fill:#262626;" transform="translate(33.818781 47.165836)scale(0.143 -0.143)">
       <defs>
        <path d="M 37.25 0 
L 28.46875 0 
L 28.46875 56 
Q 25.296875 52.984375 20.140625 49.953125 
Q 14.984375 46.921875 10.890625 45.40625 
L 10.890625 53.90625 
Q 18.265625 57.375 23.78125 62.296875 
Q 29.296875 67.234375 31.59375 71.875 
L 37.25 71.875 
z
" id="ArialMT-49"/>
       </defs>
       <use xlink:href="#ArialMT-49"/>
       <use x="55.615234" xlink:href="#ArialMT-46"/>
       <use x="83.398438" xlink:href="#ArialMT-48"/>
      </g>
     </g>
    </g>
    <g id="text_13">
     <!-- FDR -->
     <g style="fill:#262626;" transform="translate(18.366188 190.980219)rotate(-90)scale(0.156 -0.156)">
      <defs>
       <path d="M 8.203125 0 
L 8.203125 71.578125 
L 56.5 71.578125 
L 56.5 63.140625 
L 17.671875 63.140625 
L 17.671875 40.96875 
L 51.265625 40.96875 
L 51.265625 32.515625 
L 17.671875 32.515625 
L 17.671875 0 
z
" id="ArialMT-70"/>
       <path d="M 7.71875 0 
L 7.71875 71.578125 
L 32.375 71.578125 
Q 40.71875 71.578125 45.125 70.5625 
Q 51.265625 69.140625 55.609375 65.4375 
Q 61.28125 60.640625 64.078125 53.1875 
Q 66.890625 45.75 66.890625 36.1875 
Q 66.890625 28.03125 64.984375 21.734375 
Q 63.09375 15.4375 60.109375 11.296875 
Q 57.125 7.171875 53.578125 4.796875 
Q 50.046875 2.4375 45.046875 1.21875 
Q 40.046875 0 33.546875 0 
z
M 17.1875 8.453125 
L 32.46875 8.453125 
Q 39.546875 8.453125 43.578125 9.765625 
Q 47.609375 11.078125 50 13.484375 
Q 53.375 16.84375 55.25 22.53125 
Q 57.125 28.21875 57.125 36.328125 
Q 57.125 47.5625 53.4375 53.59375 
Q 49.75 59.625 44.484375 61.671875 
Q 40.671875 63.140625 32.234375 63.140625 
L 17.1875 63.140625 
z
" id="ArialMT-68"/>
       <path d="M 7.859375 0 
L 7.859375 71.578125 
L 39.59375 71.578125 
Q 49.171875 71.578125 54.140625 69.640625 
Q 59.125 67.71875 62.109375 62.828125 
Q 65.09375 57.953125 65.09375 52.046875 
Q 65.09375 44.4375 60.15625 39.203125 
Q 55.21875 33.984375 44.921875 32.5625 
Q 48.6875 30.765625 50.640625 29 
Q 54.78125 25.203125 58.5 19.484375 
L 70.953125 0 
L 59.03125 0 
L 49.5625 14.890625 
Q 45.40625 21.34375 42.71875 24.75 
Q 40.046875 28.171875 37.921875 29.53125 
Q 35.796875 30.90625 33.59375 31.453125 
Q 31.984375 31.78125 28.328125 31.78125 
L 17.328125 31.78125 
L 17.328125 0 
z
M 17.328125 39.984375 
L 37.703125 39.984375 
Q 44.1875 39.984375 47.84375 41.328125 
Q 51.515625 42.671875 53.421875 45.625 
Q 55.328125 48.578125 55.328125 52.046875 
Q 55.328125 57.125 51.640625 60.390625 
Q 47.953125 63.671875 39.984375 63.671875 
L 17.328125 63.671875 
z
" id="ArialMT-82"/>
      </defs>
      <use xlink:href="#ArialMT-70"/>
      <use x="61.083984" xlink:href="#ArialMT-68"/>
      <use x="133.300781" xlink:href="#ArialMT-82"/>
     </g>
    </g>
   </g>
   <g id="PolyCollection_1">
    <defs>
     <path d="M 78.328497 -153.459503 
L 78.328497 -125.274786 
L 179.21327 -138.990589 
L 280.098043 -147.718664 
L 380.982815 -150.931728 
L 380.982815 -181.18613 
L 380.982815 -181.18613 
L 280.098043 -175.971414 
L 179.21327 -166.753395 
L 78.328497 -153.459503 
z
" id="mb51e9c8f41" style="stroke:#0173b2;stroke-opacity:0.2;"/>
    </defs>
    <g clip-path="url(#p5f45c7ff14)">
     <use style="fill:#0173b2;fill-opacity:0.2;stroke:#0173b2;stroke-opacity:0.2;" x="0" xlink:href="#mb51e9c8f41" y="355.896484"/>
    </g>
   </g>
   <g id="PolyCollection_2">
    <defs>
     <path d="M 78.328497 -112.44737 
L 78.328497 -102.401402 
L 179.21327 -104.53891 
L 280.098043 -120.904314 
L 380.982815 -124.720395 
L 380.982815 -146.45061 
L 380.982815 -146.45061 
L 280.098043 -143.534571 
L 179.21327 -117.008809 
L 78.328497 -112.44737 
z
" id="m0bab9ccac0" style="stroke:#0173b2;stroke-opacity:0.2;"/>
    </defs>
    <g clip-path="url(#p5f45c7ff14)">
     <use style="fill:#0173b2;fill-opacity:0.2;stroke:#0173b2;stroke-opacity:0.2;" x="0" xlink:href="#m0bab9ccac0" y="355.896484"/>
    </g>
   </g>
   <g id="PolyCollection_3">
    <defs>
     <path d="M 78.328497 -124.64809 
L 78.328497 -106.25556 
L 179.21327 -120.692357 
L 280.098043 -134.06686 
L 380.982815 -142.256181 
L 380.982815 -158.516266 
L 380.982815 -158.516266 
L 280.098043 -151.445378 
L 179.21327 -143.878534 
L 78.328497 -124.64809 
z
" id="mfc8b9f0ef7" style="stroke:#0173b2;stroke-opacity:0.2;"/>
    </defs>
    <g clip-path="url(#p5f45c7ff14)">
     <use style="fill:#0173b2;fill-opacity:0.2;stroke:#0173b2;stroke-opacity:0.2;" x="0" xlink:href="#mfc8b9f0ef7" y="355.896484"/>
    </g>
   </g>
   <g id="PolyCollection_4">
    <defs>
     <path d="M 78.328497 -118.368628 
L 78.328497 -105.400399 
L 179.21327 -104.394932 
L 280.098043 -110.256834 
L 380.982815 -111.541368 
L 380.982815 -132.392954 
L 380.982815 -132.392954 
L 280.098043 -131.080731 
L 179.21327 -116.894365 
L 78.328497 -118.368628 
z
" id="m061686212e" style="stroke:#de8f05;stroke-opacity:0.2;"/>
    </defs>
    <g clip-path="url(#p5f45c7ff14)">
     <use style="fill:#de8f05;fill-opacity:0.2;stroke:#de8f05;stroke-opacity:0.2;" x="0" xlink:href="#m061686212e" y="355.896484"/>
    </g>
   </g>
   <g id="PolyCollection_5">
    <defs>
     <path d="M 78.328497 -190.341469 
L 78.328497 -164.896669 
L 179.21327 -182.257995 
L 280.098043 -192.124017 
L 380.982815 -213.184343 
L 380.982815 -229.710285 
L 380.982815 -229.710285 
L 280.098043 -216.752867 
L 179.21327 -208.598064 
L 78.328497 -190.341469 
z
" id="md3c37b1e61" style="stroke:#029e73;stroke-opacity:0.2;"/>
    </defs>
    <g clip-path="url(#p5f45c7ff14)">
     <use style="fill:#029e73;fill-opacity:0.2;stroke:#029e73;stroke-opacity:0.2;" x="0" xlink:href="#md3c37b1e61" y="355.896484"/>
    </g>
   </g>
   <g id="PolyCollection_6">
    <defs>
     <path d="M 78.328497 -140.148893 
L 78.328497 -113.032455 
L 179.21327 -127.992368 
L 280.098043 -134.3377 
L 380.982815 -144.310149 
L 380.982815 -167.250617 
L 380.982815 -167.250617 
L 280.098043 -155.951626 
L 179.21327 -153.231328 
L 78.328497 -140.148893 
z
" id="mc0b2d53089" style="stroke:#cc78bc;stroke-opacity:0.2;"/>
    </defs>
    <g clip-path="url(#p5f45c7ff14)">
     <use style="fill:#cc78bc;fill-opacity:0.2;stroke:#cc78bc;stroke-opacity:0.2;" x="0" xlink:href="#mc0b2d53089" y="355.896484"/>
    </g>
   </g>
   <g id="PolyCollection_7">
    <defs>
     <path d="M 78.328497 -104.398255 
L 78.328497 -101.205284 
L 179.21327 -101.205284 
L 280.098043 -101.205284 
L 380.982815 -101.736892 
L 380.982815 -106.612181 
L 380.982815 -106.612181 
L 280.098043 -107.11204 
L 179.21327 -102.800108 
L 78.328497 -104.398255 
z
" id="ma6a0e3fc38" style="stroke:#ca9161;stroke-opacity:0.2;"/>
    </defs>
    <g clip-path="url(#p5f45c7ff14)">
     <use style="fill:#ca9161;fill-opacity:0.2;stroke:#ca9161;stroke-opacity:0.2;" x="0" xlink:href="#ma6a0e3fc38" y="355.896484"/>
    </g>
   </g>
   <g id="line2d_12">
    <path clip-path="url(#p5f45c7ff14)" d="M 78.328497 216.90906 
L 179.21327 202.855201 
L 280.098043 194.786151 
L 380.982815 189.970036 
" style="fill:none;stroke:#0173b2;stroke-dasharray:3,3;stroke-dashoffset:0;stroke-width:3;"/>
   </g>
   <g id="line2d_13">
    <path clip-path="url(#p5f45c7ff14)" d="M 78.328497 249.337148 
L 179.21327 245.328992 
L 280.098043 223.88747 
L 380.982815 220.630316 
" style="fill:none;stroke:#0173b2;stroke-linecap:round;stroke-width:3;"/>
   </g>
   <g id="line2d_14">
    <path clip-path="url(#p5f45c7ff14)" d="M 78.328497 241.268098 
L 179.21327 224.332586 
L 280.098043 213.180421 
L 380.982815 205.696772 
" style="fill:none;stroke:#0173b2;stroke-dasharray:12,3;stroke-dashoffset:0;stroke-width:3;"/>
   </g>
   <g id="line2d_15">
    <path clip-path="url(#p5f45c7ff14)" d="M 78.328497 244.204599 
L 179.21327 245.919668 
L 280.098043 235.560695 
L 380.982815 235.080772 
" style="fill:none;stroke:#de8f05;stroke-linecap:round;stroke-width:3;"/>
   </g>
   <g id="line2d_16">
    <path clip-path="url(#p5f45c7ff14)" d="M 78.328497 178.390685 
L 179.21327 160.872936 
L 280.098043 150.580414 
L 380.982815 134.216592 
" style="fill:none;stroke:#029e73;stroke-linecap:round;stroke-width:3;"/>
   </g>
   <g id="line2d_17">
    <path clip-path="url(#p5f45c7ff14)" d="M 78.328497 230.680239 
L 179.21327 214.998857 
L 280.098043 211.093015 
L 380.982815 200.205599 
" style="fill:none;stroke:#cc78bc;stroke-linecap:round;stroke-width:3;"/>
   </g>
   <g id="line2d_18">
    <path clip-path="url(#p5f45c7ff14)" d="M 78.328497 253.495082 
L 179.21327 254.159592 
L 280.098043 252.682903 
L 380.982815 252.077461 
" style="fill:none;stroke:#ca9161;stroke-linecap:round;stroke-width:3;"/>
   </g>
   <g id="line2d_19"/>
   <g id="line2d_20"/>
   <g id="line2d_21"/>
   <g id="line2d_22"/>
   <g id="line2d_23"/>
   <g id="line2d_24"/>
   <g id="line2d_25"/>
   <g id="line2d_26"/>
   <g id="patch_3">
    <path d="M 63.195781 307.852 
L 63.195781 42.048 
" style="fill:none;stroke:#262626;stroke-linecap:square;stroke-linejoin:miter;stroke-width:1.25;"/>
   </g>
   <g id="patch_4">
    <path d="M 63.195781 307.852 
L 396.115531 307.852 
" style="fill:none;stroke:#262626;stroke-linecap:square;stroke-linejoin:miter;stroke-width:1.25;"/>
   </g>
   <g id="text_14">
    <!-- p = 10 -->
    <g style="fill:#262626;" transform="translate(207.7535 36.048)scale(0.156 -0.156)">
     <defs>
      <path d="M 6.59375 -19.875 
L 6.59375 51.859375 
L 14.59375 51.859375 
L 14.59375 45.125 
Q 17.4375 49.078125 21 51.046875 
Q 24.5625 53.03125 29.640625 53.03125 
Q 36.28125 53.03125 41.359375 49.609375 
Q 46.4375 46.1875 49.015625 39.953125 
Q 51.609375 33.734375 51.609375 26.3125 
Q 51.609375 18.359375 48.75 11.984375 
Q 45.90625 5.609375 40.453125 2.21875 
Q 35.015625 -1.171875 29 -1.171875 
Q 24.609375 -1.171875 21.109375 0.6875 
Q 17.625 2.546875 15.375 5.375 
L 15.375 -19.875 
z
M 14.546875 25.640625 
Q 14.546875 15.625 18.59375 10.84375 
Q 22.65625 6.0625 28.421875 6.0625 
Q 34.28125 6.0625 38.453125 11.015625 
Q 42.625 15.96875 42.625 26.375 
Q 42.625 36.28125 38.546875 41.203125 
Q 34.46875 46.140625 28.8125 46.140625 
Q 23.1875 46.140625 18.859375 40.890625 
Q 14.546875 35.640625 14.546875 25.640625 
z
" id="ArialMT-112"/>
      <path d="M 52.828125 42.09375 
L 5.5625 42.09375 
L 5.5625 50.296875 
L 52.828125 50.296875 
z
M 52.828125 20.359375 
L 5.5625 20.359375 
L 5.5625 28.5625 
L 52.828125 28.5625 
z
" id="ArialMT-61"/>
     </defs>
     <use xlink:href="#ArialMT-112"/>
     <use x="55.615234" xlink:href="#ArialMT-32"/>
     <use x="83.398438" xlink:href="#ArialMT-61"/>
     <use x="141.796875" xlink:href="#ArialMT-32"/>
     <use x="169.580078" xlink:href="#ArialMT-49"/>
     <use x="225.195312" xlink:href="#ArialMT-48"/>
    </g>
   </g>
  </g>
  <g id="axes_2">
   <g id="patch_5">
    <path d="M 402.115531 307.852 
L 735.035281 307.852 
L 735.035281 42.048 
L 402.115531 42.048 
z
" style="fill:#ffffff;"/>
   </g>
   <g id="matplotlib.axis_3">
    <g id="xtick_5">
     <g id="line2d_27">
      <g>
       <use style="fill:#262626;stroke:#262626;stroke-width:1.25;" x="417.248247" xlink:href="#m27645a7814" y="307.852"/>
      </g>
     </g>
     <g id="text_15">
      <!-- 0.3 -->
      <g style="fill:#262626;" transform="translate(407.309747 327.587672)scale(0.143 -0.143)">
       <use xlink:href="#ArialMT-48"/>
       <use x="55.615234" xlink:href="#ArialMT-46"/>
       <use x="83.398438" xlink:href="#ArialMT-51"/>
      </g>
     </g>
    </g>
    <g id="xtick_6">
     <g id="line2d_28">
      <g>
       <use style="fill:#262626;stroke:#262626;stroke-width:1.25;" x="518.13302" xlink:href="#m27645a7814" y="307.852"/>
      </g>
     </g>
     <g id="text_16">
      <!-- 0.5 -->
      <g style="fill:#262626;" transform="translate(508.19452 327.587672)scale(0.143 -0.143)">
       <use xlink:href="#ArialMT-48"/>
       <use x="55.615234" xlink:href="#ArialMT-46"/>
       <use x="83.398438" xlink:href="#ArialMT-53"/>
      </g>
     </g>
    </g>
    <g id="xtick_7">
     <g id="line2d_29">
      <g>
       <use style="fill:#262626;stroke:#262626;stroke-width:1.25;" x="619.017793" xlink:href="#m27645a7814" y="307.852"/>
      </g>
     </g>
     <g id="text_17">
      <!-- 0.7 -->
      <g style="fill:#262626;" transform="translate(609.079293 327.587672)scale(0.143 -0.143)">
       <use xlink:href="#ArialMT-48"/>
       <use x="55.615234" xlink:href="#ArialMT-46"/>
       <use x="83.398438" xlink:href="#ArialMT-55"/>
      </g>
     </g>
    </g>
    <g id="xtick_8">
     <g id="line2d_30">
      <g>
       <use style="fill:#262626;stroke:#262626;stroke-width:1.25;" x="719.902565" xlink:href="#m27645a7814" y="307.852"/>
      </g>
     </g>
     <g id="text_18">
      <!-- 0.9 -->
      <g style="fill:#262626;" transform="translate(709.964065 327.587672)scale(0.143 -0.143)">
       <use xlink:href="#ArialMT-48"/>
       <use x="55.615234" xlink:href="#ArialMT-46"/>
       <use x="83.398438" xlink:href="#ArialMT-57"/>
      </g>
     </g>
    </g>
    <g id="text_19">
     <!-- Effect size -->
     <g style="fill:#262626;" transform="translate(532.733187 345.595984)scale(0.156 -0.156)">
      <use xlink:href="#ArialMT-69"/>
      <use x="66.699219" xlink:href="#ArialMT-102"/>
      <use x="92.732422" xlink:href="#ArialMT-102"/>
      <use x="120.515625" xlink:href="#ArialMT-101"/>
      <use x="176.130859" xlink:href="#ArialMT-99"/>
      <use x="226.130859" xlink:href="#ArialMT-116"/>
      <use x="253.914062" xlink:href="#ArialMT-32"/>
      <use x="281.697266" xlink:href="#ArialMT-115"/>
      <use x="331.697266" xlink:href="#ArialMT-105"/>
      <use x="353.914062" xlink:href="#ArialMT-122"/>
      <use x="403.914062" xlink:href="#ArialMT-101"/>
     </g>
    </g>
   </g>
   <g id="matplotlib.axis_4">
    <g id="ytick_8">
     <g id="line2d_31">
      <g>
       <use style="fill:#262626;stroke:#262626;stroke-width:1.25;" x="402.115531" xlink:href="#m3f00b784ac" y="297.21984"/>
      </g>
     </g>
    </g>
    <g id="ytick_9">
     <g id="line2d_32">
      <g>
       <use style="fill:#262626;stroke:#262626;stroke-width:1.25;" x="402.115531" xlink:href="#m3f00b784ac" y="254.6912"/>
      </g>
     </g>
    </g>
    <g id="ytick_10">
     <g id="line2d_33">
      <g>
       <use style="fill:#262626;stroke:#262626;stroke-width:1.25;" x="402.115531" xlink:href="#m3f00b784ac" y="212.16256"/>
      </g>
     </g>
    </g>
    <g id="ytick_11">
     <g id="line2d_34">
      <g>
       <use style="fill:#262626;stroke:#262626;stroke-width:1.25;" x="402.115531" xlink:href="#m3f00b784ac" y="169.63392"/>
      </g>
     </g>
    </g>
    <g id="ytick_12">
     <g id="line2d_35">
      <g>
       <use style="fill:#262626;stroke:#262626;stroke-width:1.25;" x="402.115531" xlink:href="#m3f00b784ac" y="127.10528"/>
      </g>
     </g>
    </g>
    <g id="ytick_13">
     <g id="line2d_36">
      <g>
       <use style="fill:#262626;stroke:#262626;stroke-width:1.25;" x="402.115531" xlink:href="#m3f00b784ac" y="84.57664"/>
      </g>
     </g>
    </g>
    <g id="ytick_14">
     <g id="line2d_37">
      <g>
       <use style="fill:#262626;stroke:#262626;stroke-width:1.25;" x="402.115531" xlink:href="#m3f00b784ac" y="42.048"/>
      </g>
     </g>
    </g>
   </g>
   <g id="PolyCollection_8">
    <defs>
     <path d="M 417.248247 -101.205284 
L 417.248247 -101.205284 
L 518.13302 -101.205284 
L 619.017793 -101.205284 
L 719.902565 -101.205284 
L 719.902565 -112.940952 
L 719.902565 -112.940952 
L 619.017793 -101.205284 
L 518.13302 -101.205284 
L 417.248247 -101.205284 
z
" id="mb4b4cbc8a3" style="stroke:#0173b2;stroke-opacity:0.2;"/>
    </defs>
    <g clip-path="url(#p17cb57f214)">
     <use style="fill:#0173b2;fill-opacity:0.2;stroke:#0173b2;stroke-opacity:0.2;" x="0" xlink:href="#mb4b4cbc8a3" y="355.896484"/>
    </g>
   </g>
   <g id="PolyCollection_9">
    <defs>
     <path d="M 417.248247 -102.344444 
L 417.248247 -101.205284 
L 518.13302 -101.205284 
L 619.017793 -101.205284 
L 719.902565 -103.02794 
L 719.902565 -115.010368 
L 719.902565 -115.010368 
L 619.017793 -104.053184 
L 518.13302 -102.344444 
L 417.248247 -102.344444 
z
" id="m67934c46b8" style="stroke:#0173b2;stroke-opacity:0.2;"/>
    </defs>
    <g clip-path="url(#p17cb57f214)">
     <use style="fill:#0173b2;fill-opacity:0.2;stroke:#0173b2;stroke-opacity:0.2;" x="0" xlink:href="#m67934c46b8" y="355.896484"/>
    </g>
   </g>
   <g id="PolyCollection_10">
    <defs>
     <path d="M 417.248247 -114.495484 
L 417.248247 -102.028011 
L 518.13302 -112.342156 
L 619.017793 -112.102774 
L 719.902565 -128.197335 
L 719.902565 -141.441724 
L 719.902565 -141.441724 
L 619.017793 -122.295962 
L 518.13302 -129.210109 
L 417.248247 -114.495484 
z
" id="m56e0b89f99" style="stroke:#0173b2;stroke-opacity:0.2;"/>
    </defs>
    <g clip-path="url(#p17cb57f214)">
     <use style="fill:#0173b2;fill-opacity:0.2;stroke:#0173b2;stroke-opacity:0.2;" x="0" xlink:href="#m56e0b89f99" y="355.896484"/>
    </g>
   </g>
   <g id="PolyCollection_11">
    <defs>
     <path d="M 417.248247 -133.241351 
L 417.248247 -112.635052 
L 518.13302 -112.037905 
L 619.017793 -115.805044 
L 719.902565 -124.662861 
L 719.902565 -139.056598 
L 719.902565 -139.056598 
L 619.017793 -128.156057 
L 518.13302 -127.5607 
L 417.248247 -133.241351 
z
" id="m0312053a51" style="stroke:#de8f05;stroke-opacity:0.2;"/>
    </defs>
    <g clip-path="url(#p17cb57f214)">
     <use style="fill:#de8f05;fill-opacity:0.2;stroke:#de8f05;stroke-opacity:0.2;" x="0" xlink:href="#m0312053a51" y="355.896484"/>
    </g>
   </g>
   <g id="PolyCollection_12">
    <defs>
     <path d="M 417.248247 -176.542761 
L 417.248247 -146.766094 
L 518.13302 -140.534194 
L 619.017793 -148.27895 
L 719.902565 -163.630847 
L 719.902565 -188.093209 
L 719.902565 -188.093209 
L 619.017793 -172.338364 
L 518.13302 -164.442815 
L 417.248247 -176.542761 
z
" id="me1cd7120a4" style="stroke:#029e73;stroke-opacity:0.2;"/>
    </defs>
    <g clip-path="url(#p17cb57f214)">
     <use style="fill:#029e73;fill-opacity:0.2;stroke:#029e73;stroke-opacity:0.2;" x="0" xlink:href="#me1cd7120a4" y="355.896484"/>
    </g>
   </g>
   <g id="PolyCollection_13">
    <defs>
     <path d="M 417.248247 -127.431279 
L 417.248247 -106.957726 
L 518.13302 -113.252851 
L 619.017793 -107.937404 
L 719.902565 -109.796133 
L 719.902565 -119.087248 
L 719.902565 -119.087248 
L 619.017793 -122.072639 
L 518.13302 -138.817658 
L 417.248247 -127.431279 
z
" id="m24506aefbb" style="stroke:#cc78bc;stroke-opacity:0.2;"/>
    </defs>
    <g clip-path="url(#p17cb57f214)">
     <use style="fill:#cc78bc;fill-opacity:0.2;stroke:#cc78bc;stroke-opacity:0.2;" x="0" xlink:href="#m24506aefbb" y="355.896484"/>
    </g>
   </g>
   <g id="PolyCollection_14">
    <defs>
     <path d="M 417.248247 -101.205284 
L 417.248247 -101.205284 
L 518.13302 -101.205284 
L 619.017793 -101.205284 
L 719.902565 -101.205284 
L 719.902565 -102.344444 
L 719.902565 -102.344444 
L 619.017793 -104.195579 
L 518.13302 -101.205284 
L 417.248247 -101.205284 
z
" id="m3130a534e9" style="stroke:#ca9161;stroke-opacity:0.2;"/>
    </defs>
    <g clip-path="url(#p17cb57f214)">
     <use style="fill:#ca9161;fill-opacity:0.2;stroke:#ca9161;stroke-opacity:0.2;" x="0" xlink:href="#m3130a534e9" y="355.896484"/>
    </g>
   </g>
   <g id="line2d_38">
    <path clip-path="url(#p17cb57f214)" d="M 417.248247 254.6912 
L 518.13302 254.6912 
L 619.017793 254.6912 
L 719.902565 249.546509 
" style="fill:none;stroke:#0173b2;stroke-dasharray:3,3;stroke-dashoffset:0;stroke-width:3;"/>
   </g>
   <g id="line2d_39">
    <path clip-path="url(#p17cb57f214)" d="M 417.248247 254.31148 
L 518.13302 254.31148 
L 619.017793 253.64697 
L 719.902565 247.604582 
" style="fill:none;stroke:#0173b2;stroke-linecap:round;stroke-width:3;"/>
   </g>
   <g id="line2d_40">
    <path clip-path="url(#p17cb57f214)" d="M 417.248247 248.552393 
L 518.13302 235.572298 
L 619.017793 239.189131 
L 719.902565 221.271237 
" style="fill:none;stroke:#0173b2;stroke-dasharray:12,3;stroke-dashoffset:0;stroke-width:3;"/>
   </g>
   <g id="line2d_41">
    <path clip-path="url(#p17cb57f214)" d="M 417.248247 233.365519 
L 518.13302 236.325409 
L 619.017793 234.272 
L 719.902565 224.31445 
" style="fill:none;stroke:#de8f05;stroke-linecap:round;stroke-width:3;"/>
   </g>
   <g id="line2d_42">
    <path clip-path="url(#p17cb57f214)" d="M 417.248247 195.105749 
L 518.13302 203.206825 
L 619.017793 195.829761 
L 719.902565 180.090157 
" style="fill:none;stroke:#029e73;stroke-linecap:round;stroke-width:3;"/>
   </g>
   <g id="line2d_43">
    <path clip-path="url(#p17cb57f214)" d="M 417.248247 239.451771 
L 518.13302 230.813141 
L 619.017793 241.862993 
L 719.902565 241.543395 
" style="fill:none;stroke:#cc78bc;stroke-linecap:round;stroke-width:3;"/>
   </g>
   <g id="line2d_44">
    <path clip-path="url(#p17cb57f214)" d="M 417.248247 254.6912 
L 518.13302 254.6912 
L 619.017793 253.694435 
L 719.902565 254.31148 
" style="fill:none;stroke:#ca9161;stroke-linecap:round;stroke-width:3;"/>
   </g>
   <g id="patch_6">
    <path d="M 402.115531 307.852 
L 402.115531 42.048 
" style="fill:none;stroke:#262626;stroke-linecap:square;stroke-linejoin:miter;stroke-width:1.25;"/>
   </g>
   <g id="patch_7">
    <path d="M 402.115531 307.852 
L 735.035281 307.852 
" style="fill:none;stroke:#262626;stroke-linecap:square;stroke-linejoin:miter;stroke-width:1.25;"/>
   </g>
   <g id="text_20">
    <!-- p = 30 -->
    <g style="fill:#262626;" transform="translate(546.67325 36.048)scale(0.156 -0.156)">
     <use xlink:href="#ArialMT-112"/>
     <use x="55.615234" xlink:href="#ArialMT-32"/>
     <use x="83.398438" xlink:href="#ArialMT-61"/>
     <use x="141.796875" xlink:href="#ArialMT-32"/>
     <use x="169.580078" xlink:href="#ArialMT-51"/>
     <use x="225.195312" xlink:href="#ArialMT-48"/>
    </g>
   </g>
  </g>
  <g id="axes_3">
   <g id="patch_8">
    <path d="M 741.035281 307.852 
L 1073.955031 307.852 
L 1073.955031 42.048 
L 741.035281 42.048 
z
" style="fill:#ffffff;"/>
   </g>
   <g id="matplotlib.axis_5">
    <g id="xtick_9">
     <g id="line2d_45">
      <g>
       <use style="fill:#262626;stroke:#262626;stroke-width:1.25;" x="756.167997" xlink:href="#m27645a7814" y="307.852"/>
      </g>
     </g>
     <g id="text_21">
      <!-- 0.3 -->
      <g style="fill:#262626;" transform="translate(746.229497 327.587672)scale(0.143 -0.143)">
       <use xlink:href="#ArialMT-48"/>
       <use x="55.615234" xlink:href="#ArialMT-46"/>
       <use x="83.398438" xlink:href="#ArialMT-51"/>
      </g>
     </g>
    </g>
    <g id="xtick_10">
     <g id="line2d_46">
      <g>
       <use style="fill:#262626;stroke:#262626;stroke-width:1.25;" x="857.05277" xlink:href="#m27645a7814" y="307.852"/>
      </g>
     </g>
     <g id="text_22">
      <!-- 0.5 -->
      <g style="fill:#262626;" transform="translate(847.11427 327.587672)scale(0.143 -0.143)">
       <use xlink:href="#ArialMT-48"/>
       <use x="55.615234" xlink:href="#ArialMT-46"/>
       <use x="83.398438" xlink:href="#ArialMT-53"/>
      </g>
     </g>
    </g>
    <g id="xtick_11">
     <g id="line2d_47">
      <g>
       <use style="fill:#262626;stroke:#262626;stroke-width:1.25;" x="957.937543" xlink:href="#m27645a7814" y="307.852"/>
      </g>
     </g>
     <g id="text_23">
      <!-- 0.7 -->
      <g style="fill:#262626;" transform="translate(947.999043 327.587672)scale(0.143 -0.143)">
       <use xlink:href="#ArialMT-48"/>
       <use x="55.615234" xlink:href="#ArialMT-46"/>
       <use x="83.398438" xlink:href="#ArialMT-55"/>
      </g>
     </g>
    </g>
    <g id="xtick_12">
     <g id="line2d_48">
      <g>
       <use style="fill:#262626;stroke:#262626;stroke-width:1.25;" x="1058.822315" xlink:href="#m27645a7814" y="307.852"/>
      </g>
     </g>
     <g id="text_24">
      <!-- 0.9 -->
      <g style="fill:#262626;" transform="translate(1048.883815 327.587672)scale(0.143 -0.143)">
       <use xlink:href="#ArialMT-48"/>
       <use x="55.615234" xlink:href="#ArialMT-46"/>
       <use x="83.398438" xlink:href="#ArialMT-57"/>
      </g>
     </g>
    </g>
    <g id="text_25">
     <!-- Effect size -->
     <g style="fill:#262626;" transform="translate(871.652938 345.595984)scale(0.156 -0.156)">
      <use xlink:href="#ArialMT-69"/>
      <use x="66.699219" xlink:href="#ArialMT-102"/>
      <use x="92.732422" xlink:href="#ArialMT-102"/>
      <use x="120.515625" xlink:href="#ArialMT-101"/>
      <use x="176.130859" xlink:href="#ArialMT-99"/>
      <use x="226.130859" xlink:href="#ArialMT-116"/>
      <use x="253.914062" xlink:href="#ArialMT-32"/>
      <use x="281.697266" xlink:href="#ArialMT-115"/>
      <use x="331.697266" xlink:href="#ArialMT-105"/>
      <use x="353.914062" xlink:href="#ArialMT-122"/>
      <use x="403.914062" xlink:href="#ArialMT-101"/>
     </g>
    </g>
   </g>
   <g id="matplotlib.axis_6">
    <g id="ytick_15">
     <g id="line2d_49">
      <g>
       <use style="fill:#262626;stroke:#262626;stroke-width:1.25;" x="741.035281" xlink:href="#m3f00b784ac" y="297.21984"/>
      </g>
     </g>
    </g>
    <g id="ytick_16">
     <g id="line2d_50">
      <g>
       <use style="fill:#262626;stroke:#262626;stroke-width:1.25;" x="741.035281" xlink:href="#m3f00b784ac" y="254.6912"/>
      </g>
     </g>
    </g>
    <g id="ytick_17">
     <g id="line2d_51">
      <g>
       <use style="fill:#262626;stroke:#262626;stroke-width:1.25;" x="741.035281" xlink:href="#m3f00b784ac" y="212.16256"/>
      </g>
     </g>
    </g>
    <g id="ytick_18">
     <g id="line2d_52">
      <g>
       <use style="fill:#262626;stroke:#262626;stroke-width:1.25;" x="741.035281" xlink:href="#m3f00b784ac" y="169.63392"/>
      </g>
     </g>
    </g>
    <g id="ytick_19">
     <g id="line2d_53">
      <g>
       <use style="fill:#262626;stroke:#262626;stroke-width:1.25;" x="741.035281" xlink:href="#m3f00b784ac" y="127.10528"/>
      </g>
     </g>
    </g>
    <g id="ytick_20">
     <g id="line2d_54">
      <g>
       <use style="fill:#262626;stroke:#262626;stroke-width:1.25;" x="741.035281" xlink:href="#m3f00b784ac" y="84.57664"/>
      </g>
     </g>
    </g>
    <g id="ytick_21">
     <g id="line2d_55">
      <g>
       <use style="fill:#262626;stroke:#262626;stroke-width:1.25;" x="741.035281" xlink:href="#m3f00b784ac" y="42.048"/>
      </g>
     </g>
    </g>
   </g>
   <g id="PolyCollection_15">
    <defs>
     <path d="M 756.167997 -101.205284 
L 756.167997 -101.205284 
L 857.05277 -101.205284 
L 957.937543 -107.633749 
L 1058.822315 -115.460815 
L 1058.822315 -147.365319 
L 1058.822315 -147.365319 
L 957.937543 -129.350498 
L 857.05277 -107.684257 
L 756.167997 -101.205284 
z
" id="m624efffb9a" style="stroke:#0173b2;stroke-opacity:0.2;"/>
    </defs>
    <g clip-path="url(#pd313da946b)">
     <use style="fill:#0173b2;fill-opacity:0.2;stroke:#0173b2;stroke-opacity:0.2;" x="0" xlink:href="#m624efffb9a" y="355.896484"/>
    </g>
   </g>
   <g id="PolyCollection_16">
    <defs>
     <path d="M 756.167997 -101.205284 
L 756.167997 -101.205284 
L 857.05277 -101.205284 
L 957.937543 -101.205284 
L 1058.822315 -108.083767 
L 1058.822315 -129.582395 
L 1058.822315 -129.582395 
L 957.937543 -112.003572 
L 857.05277 -101.205284 
L 756.167997 -101.205284 
z
" id="mcf81b61687" style="stroke:#0173b2;stroke-opacity:0.2;"/>
    </defs>
    <g clip-path="url(#pd313da946b)">
     <use style="fill:#0173b2;fill-opacity:0.2;stroke:#0173b2;stroke-opacity:0.2;" x="0" xlink:href="#mcf81b61687" y="355.896484"/>
    </g>
   </g>
   <g id="PolyCollection_17">
    <defs>
     <path d="M 756.167997 -112.280451 
L 756.167997 -101.648291 
L 857.05277 -101.964724 
L 957.937543 -111.892978 
L 1058.822315 -122.685254 
L 1058.822315 -136.43797 
L 1058.822315 -136.43797 
L 957.937543 -121.545935 
L 857.05277 -105.73661 
L 756.167997 -112.280451 
z
" id="m82c2d7351d" style="stroke:#0173b2;stroke-opacity:0.2;"/>
    </defs>
    <g clip-path="url(#pd313da946b)">
     <use style="fill:#0173b2;fill-opacity:0.2;stroke:#0173b2;stroke-opacity:0.2;" x="0" xlink:href="#m82c2d7351d" y="355.896484"/>
    </g>
   </g>
   <g id="PolyCollection_18">
    <defs>
     <path d="M 756.167997 -142.403293 
L 756.167997 -118.778496 
L 857.05277 -120.098253 
L 957.937543 -125.943726 
L 1058.822315 -129.536711 
L 1058.822315 -142.624639 
L 1058.822315 -142.624639 
L 957.937543 -139.754056 
L 857.05277 -139.090668 
L 756.167997 -142.403293 
z
" id="m680a80cc5c" style="stroke:#de8f05;stroke-opacity:0.2;"/>
    </defs>
    <g clip-path="url(#pd313da946b)">
     <use style="fill:#de8f05;fill-opacity:0.2;stroke:#de8f05;stroke-opacity:0.2;" x="0" xlink:href="#m680a80cc5c" y="355.896484"/>
    </g>
   </g>
   <g id="PolyCollection_19">
    <defs>
     <path d="M 756.167997 -151.8446 
L 756.167997 -124.618661 
L 857.05277 -138.088462 
L 957.937543 -147.535561 
L 1058.822315 -145.625059 
L 1058.822315 -174.797064 
L 1058.822315 -174.797064 
L 957.937543 -178.63366 
L 857.05277 -167.286281 
L 756.167997 -151.8446 
z
" id="ma7b1a7bc63" style="stroke:#029e73;stroke-opacity:0.2;"/>
    </defs>
    <g clip-path="url(#pd313da946b)">
     <use style="fill:#029e73;fill-opacity:0.2;stroke:#029e73;stroke-opacity:0.2;" x="0" xlink:href="#ma7b1a7bc63" y="355.896484"/>
    </g>
   </g>
   <g id="PolyCollection_20">
    <defs>
     <path d="M 756.167997 -135.538301 
L 756.167997 -112.05341 
L 857.05277 -120.92098 
L 957.937543 -115.247805 
L 1058.822315 -116.077335 
L 1058.822315 -133.063792 
L 1058.822315 -133.063792 
L 957.937543 -130.065587 
L 857.05277 -147.786961 
L 756.167997 -135.538301 
z
" id="m3958bfd85b" style="stroke:#cc78bc;stroke-opacity:0.2;"/>
    </defs>
    <g clip-path="url(#pd313da946b)">
     <use style="fill:#cc78bc;fill-opacity:0.2;stroke:#cc78bc;stroke-opacity:0.2;" x="0" xlink:href="#m3958bfd85b" y="355.896484"/>
    </g>
   </g>
   <g id="PolyCollection_21">
    <defs>
     <path d="M 756.167997 -101.205284 
L 756.167997 -101.205284 
L 857.05277 -101.205284 
L 957.937543 -101.205284 
L 1058.822315 -101.205284 
L 1058.822315 -105.209604 
L 1058.822315 -105.209604 
L 957.937543 -101.205284 
L 857.05277 -102.54538 
L 756.167997 -101.205284 
z
" id="m0af4be2bad" style="stroke:#ca9161;stroke-opacity:0.2;"/>
    </defs>
    <g clip-path="url(#pd313da946b)">
     <use style="fill:#ca9161;fill-opacity:0.2;stroke:#ca9161;stroke-opacity:0.2;" x="0" xlink:href="#m0af4be2bad" y="355.896484"/>
    </g>
   </g>
   <g id="line2d_56">
    <path clip-path="url(#pd313da946b)" d="M 756.167997 254.6912 
L 857.05277 252.531543 
L 957.937543 239.503931 
L 1058.822315 224.650902 
" style="fill:none;stroke:#0173b2;stroke-dasharray:3,3;stroke-dashoffset:0;stroke-width:3;"/>
   </g>
   <g id="line2d_57">
    <path clip-path="url(#pd313da946b)" d="M 756.167997 254.6912 
L 857.05277 254.6912 
L 957.937543 250.371885 
L 1058.822315 237.963476 
" style="fill:none;stroke:#0173b2;stroke-linecap:round;stroke-width:3;"/>
   </g>
   <g id="line2d_58">
    <path clip-path="url(#pd313da946b)" d="M 756.167997 250.261133 
L 857.05277 252.197705 
L 957.937543 239.350512 
L 1058.822315 226.920037 
" style="fill:none;stroke:#0173b2;stroke-dasharray:12,3;stroke-dashoffset:0;stroke-width:3;"/>
   </g>
   <g id="line2d_59">
    <path clip-path="url(#pd313da946b)" d="M 756.167997 225.833195 
L 857.05277 226.831546 
L 957.937543 223.421833 
L 1058.822315 219.860951 
" style="fill:none;stroke:#de8f05;stroke-linecap:round;stroke-width:3;"/>
   </g>
   <g id="line2d_60">
    <path clip-path="url(#pd313da946b)" d="M 756.167997 217.624583 
L 857.05277 204.26552 
L 957.937543 193.568133 
L 1058.822315 195.991073 
" style="fill:none;stroke:#029e73;stroke-linecap:round;stroke-width:3;"/>
   </g>
   <g id="line2d_61">
    <path clip-path="url(#pd313da946b)" d="M 756.167997 232.540867 
L 857.05277 221.965665 
L 957.937543 233.907859 
L 1058.822315 231.854206 
" style="fill:none;stroke:#cc78bc;stroke-linecap:round;stroke-width:3;"/>
   </g>
   <g id="line2d_62">
    <path clip-path="url(#pd313da946b)" d="M 756.167997 254.6912 
L 857.05277 254.248193 
L 957.937543 254.6912 
L 1058.822315 253.10328 
" style="fill:none;stroke:#ca9161;stroke-linecap:round;stroke-width:3;"/>
   </g>
   <g id="patch_9">
    <path d="M 741.035281 307.852 
L 741.035281 42.048 
" style="fill:none;stroke:#262626;stroke-linecap:square;stroke-linejoin:miter;stroke-width:1.25;"/>
   </g>
   <g id="patch_10">
    <path d="M 741.035281 307.852 
L 1073.955031 307.852 
" style="fill:none;stroke:#262626;stroke-linecap:square;stroke-linejoin:miter;stroke-width:1.25;"/>
   </g>
   <g id="text_26">
    <!-- p = 50 -->
    <g style="fill:#262626;" transform="translate(885.593 36.048)scale(0.156 -0.156)">
     <use xlink:href="#ArialMT-112"/>
     <use x="55.615234" xlink:href="#ArialMT-32"/>
     <use x="83.398438" xlink:href="#ArialMT-61"/>
     <use x="141.796875" xlink:href="#ArialMT-32"/>
     <use x="169.580078" xlink:href="#ArialMT-53"/>
     <use x="225.195312" xlink:href="#ArialMT-48"/>
    </g>
   </g>
  </g>
  <g id="axes_4">
   <g id="patch_11">
    <path d="M 1079.955031 307.852 
L 1412.874781 307.852 
L 1412.874781 42.048 
L 1079.955031 42.048 
z
" style="fill:#ffffff;"/>
   </g>
   <g id="matplotlib.axis_7">
    <g id="xtick_13">
     <g id="line2d_63">
      <g>
       <use style="fill:#262626;stroke:#262626;stroke-width:1.25;" x="1095.087747" xlink:href="#m27645a7814" y="307.852"/>
      </g>
     </g>
     <g id="text_27">
      <!-- 0.3 -->
      <g style="fill:#262626;" transform="translate(1085.149247 327.587672)scale(0.143 -0.143)">
       <use xlink:href="#ArialMT-48"/>
       <use x="55.615234" xlink:href="#ArialMT-46"/>
       <use x="83.398438" xlink:href="#ArialMT-51"/>
      </g>
     </g>
    </g>
    <g id="xtick_14">
     <g id="line2d_64">
      <g>
       <use style="fill:#262626;stroke:#262626;stroke-width:1.25;" x="1195.97252" xlink:href="#m27645a7814" y="307.852"/>
      </g>
     </g>
     <g id="text_28">
      <!-- 0.5 -->
      <g style="fill:#262626;" transform="translate(1186.03402 327.587672)scale(0.143 -0.143)">
       <use xlink:href="#ArialMT-48"/>
       <use x="55.615234" xlink:href="#ArialMT-46"/>
       <use x="83.398438" xlink:href="#ArialMT-53"/>
      </g>
     </g>
    </g>
    <g id="xtick_15">
     <g id="line2d_65">
      <g>
       <use style="fill:#262626;stroke:#262626;stroke-width:1.25;" x="1296.857293" xlink:href="#m27645a7814" y="307.852"/>
      </g>
     </g>
     <g id="text_29">
      <!-- 0.7 -->
      <g style="fill:#262626;" transform="translate(1286.918793 327.587672)scale(0.143 -0.143)">
       <use xlink:href="#ArialMT-48"/>
       <use x="55.615234" xlink:href="#ArialMT-46"/>
       <use x="83.398438" xlink:href="#ArialMT-55"/>
      </g>
     </g>
    </g>
    <g id="xtick_16">
     <g id="line2d_66">
      <g>
       <use style="fill:#262626;stroke:#262626;stroke-width:1.25;" x="1397.742065" xlink:href="#m27645a7814" y="307.852"/>
      </g>
     </g>
     <g id="text_30">
      <!-- 0.9 -->
      <g style="fill:#262626;" transform="translate(1387.803565 327.587672)scale(0.143 -0.143)">
       <use xlink:href="#ArialMT-48"/>
       <use x="55.615234" xlink:href="#ArialMT-46"/>
       <use x="83.398438" xlink:href="#ArialMT-57"/>
      </g>
     </g>
    </g>
    <g id="text_31">
     <!-- Effect size -->
     <g style="fill:#262626;" transform="translate(1210.572688 345.595984)scale(0.156 -0.156)">
      <use xlink:href="#ArialMT-69"/>
      <use x="66.699219" xlink:href="#ArialMT-102"/>
      <use x="92.732422" xlink:href="#ArialMT-102"/>
      <use x="120.515625" xlink:href="#ArialMT-101"/>
      <use x="176.130859" xlink:href="#ArialMT-99"/>
      <use x="226.130859" xlink:href="#ArialMT-116"/>
      <use x="253.914062" xlink:href="#ArialMT-32"/>
      <use x="281.697266" xlink:href="#ArialMT-115"/>
      <use x="331.697266" xlink:href="#ArialMT-105"/>
      <use x="353.914062" xlink:href="#ArialMT-122"/>
      <use x="403.914062" xlink:href="#ArialMT-101"/>
     </g>
    </g>
   </g>
   <g id="matplotlib.axis_8">
    <g id="ytick_22">
     <g id="line2d_67">
      <g>
       <use style="fill:#262626;stroke:#262626;stroke-width:1.25;" x="1079.955031" xlink:href="#m3f00b784ac" y="297.21984"/>
      </g>
     </g>
    </g>
    <g id="ytick_23">
     <g id="line2d_68">
      <g>
       <use style="fill:#262626;stroke:#262626;stroke-width:1.25;" x="1079.955031" xlink:href="#m3f00b784ac" y="254.6912"/>
      </g>
     </g>
    </g>
    <g id="ytick_24">
     <g id="line2d_69">
      <g>
       <use style="fill:#262626;stroke:#262626;stroke-width:1.25;" x="1079.955031" xlink:href="#m3f00b784ac" y="212.16256"/>
      </g>
     </g>
    </g>
    <g id="ytick_25">
     <g id="line2d_70">
      <g>
       <use style="fill:#262626;stroke:#262626;stroke-width:1.25;" x="1079.955031" xlink:href="#m3f00b784ac" y="169.63392"/>
      </g>
     </g>
    </g>
    <g id="ytick_26">
     <g id="line2d_71">
      <g>
       <use style="fill:#262626;stroke:#262626;stroke-width:1.25;" x="1079.955031" xlink:href="#m3f00b784ac" y="127.10528"/>
      </g>
     </g>
    </g>
    <g id="ytick_27">
     <g id="line2d_72">
      <g>
       <use style="fill:#262626;stroke:#262626;stroke-width:1.25;" x="1079.955031" xlink:href="#m3f00b784ac" y="84.57664"/>
      </g>
     </g>
    </g>
    <g id="ytick_28">
     <g id="line2d_73">
      <g>
       <use style="fill:#262626;stroke:#262626;stroke-width:1.25;" x="1079.955031" xlink:href="#m3f00b784ac" y="42.048"/>
      </g>
     </g>
    </g>
   </g>
   <g id="PolyCollection_22">
    <defs>
     <path d="M 1095.087747 -101.205284 
L 1095.087747 -101.205284 
L 1195.97252 -101.205284 
L 1296.857293 -101.205284 
L 1397.742065 -101.205284 
L 1397.742065 -104.622764 
L 1397.742065 -104.622764 
L 1296.857293 -101.205284 
L 1195.97252 -101.205284 
L 1095.087747 -101.205284 
z
" id="m1d9b2aec47" style="stroke:#0173b2;stroke-opacity:0.2;"/>
    </defs>
    <g clip-path="url(#pc19625c731)">
     <use style="fill:#0173b2;fill-opacity:0.2;stroke:#0173b2;stroke-opacity:0.2;" x="0" xlink:href="#m1d9b2aec47" y="355.896484"/>
    </g>
   </g>
   <g id="PolyCollection_23">
    <defs>
     <path d="M 1095.087747 -101.205284 
L 1095.087747 -101.205284 
L 1195.97252 -101.205284 
L 1296.857293 -101.205284 
L 1397.742065 -101.205284 
L 1397.742065 -101.205284 
L 1397.742065 -101.205284 
L 1296.857293 -103.483604 
L 1195.97252 -101.205284 
L 1095.087747 -101.205284 
z
" id="mce0e7bdb76" style="stroke:#0173b2;stroke-opacity:0.2;"/>
    </defs>
    <g clip-path="url(#pc19625c731)">
     <use style="fill:#0173b2;fill-opacity:0.2;stroke:#0173b2;stroke-opacity:0.2;" x="0" xlink:href="#mce0e7bdb76" y="355.896484"/>
    </g>
   </g>
   <g id="PolyCollection_24">
    <defs>
     <path d="M 1095.087747 -101.205284 
L 1095.087747 -101.205284 
L 1195.97252 -101.205284 
L 1296.857293 -103.293744 
L 1397.742065 -108.292995 
L 1397.742065 -119.229327 
L 1397.742065 -119.229327 
L 1296.857293 -115.065064 
L 1195.97252 -105.192344 
L 1095.087747 -101.205284 
z
" id="m9a965d6f3f" style="stroke:#0173b2;stroke-opacity:0.2;"/>
    </defs>
    <g clip-path="url(#pc19625c731)">
     <use style="fill:#0173b2;fill-opacity:0.2;stroke:#0173b2;stroke-opacity:0.2;" x="0" xlink:href="#m9a965d6f3f" y="355.896484"/>
    </g>
   </g>
   <g id="PolyCollection_25">
    <defs>
     <path d="M 1095.087747 -128.069646 
L 1095.087747 -106.370742 
L 1195.97252 -117.819336 
L 1296.857293 -123.656783 
L 1397.742065 -133.634907 
L 1397.742065 -153.755871 
L 1397.742065 -153.755871 
L 1296.857293 -141.495281 
L 1195.97252 -140.562734 
L 1095.087747 -128.069646 
z
" id="m67ffd2cd73" style="stroke:#de8f05;stroke-opacity:0.2;"/>
    </defs>
    <g clip-path="url(#pc19625c731)">
     <use style="fill:#de8f05;fill-opacity:0.2;stroke:#de8f05;stroke-opacity:0.2;" x="0" xlink:href="#m67ffd2cd73" y="355.896484"/>
    </g>
   </g>
   <g id="PolyCollection_26">
    <defs>
     <path d="M 1095.087747 -138.710545 
L 1095.087747 -113.963876 
L 1195.97252 -127.337586 
L 1296.857293 -137.479831 
L 1397.742065 -135.040408 
L 1397.742065 -160.683436 
L 1397.742065 -160.683436 
L 1296.857293 -165.215109 
L 1195.97252 -151.421176 
L 1095.087747 -138.710545 
z
" id="m4b1ebf760b" style="stroke:#029e73;stroke-opacity:0.2;"/>
    </defs>
    <g clip-path="url(#pc19625c731)">
     <use style="fill:#029e73;fill-opacity:0.2;stroke:#029e73;stroke-opacity:0.2;" x="0" xlink:href="#m4b1ebf760b" y="355.896484"/>
    </g>
   </g>
   <g id="PolyCollection_27">
    <defs>
     <path d="M 1095.087747 -155.916608 
L 1095.087747 -121.140584 
L 1195.97252 -123.613511 
L 1296.857293 -128.116674 
L 1397.742065 -124.779568 
L 1397.742065 -149.571012 
L 1397.742065 -149.571012 
L 1296.857293 -154.458641 
L 1195.97252 -152.324457 
L 1095.087747 -155.916608 
z
" id="mc2a5553da5" style="stroke:#cc78bc;stroke-opacity:0.2;"/>
    </defs>
    <g clip-path="url(#pc19625c731)">
     <use style="fill:#cc78bc;fill-opacity:0.2;stroke:#cc78bc;stroke-opacity:0.2;" x="0" xlink:href="#mc2a5553da5" y="355.896484"/>
    </g>
   </g>
   <g id="PolyCollection_28">
    <defs>
     <path d="M 1095.087747 -101.205284 
L 1095.087747 -101.205284 
L 1195.97252 -101.205284 
L 1296.857293 -101.205284 
L 1397.742065 -101.205284 
L 1397.742065 -101.205284 
L 1397.742065 -101.205284 
L 1296.857293 -101.205284 
L 1195.97252 -101.205284 
L 1095.087747 -101.205284 
z
" id="m75d883c200" style="stroke:#ca9161;stroke-opacity:0.2;"/>
    </defs>
    <g clip-path="url(#pc19625c731)">
     <use style="fill:#ca9161;fill-opacity:0.2;stroke:#ca9161;stroke-opacity:0.2;" x="0" xlink:href="#m75d883c200" y="355.896484"/>
    </g>
   </g>
   <g id="line2d_74">
    <path clip-path="url(#pc19625c731)" d="M 1095.087747 254.6912 
L 1195.97252 254.6912 
L 1296.857293 254.6912 
L 1397.742065 253.55204 
" style="fill:none;stroke:#0173b2;stroke-dasharray:3,3;stroke-dashoffset:0;stroke-width:3;"/>
   </g>
   <g id="line2d_75">
    <path clip-path="url(#pc19625c731)" d="M 1095.087747 254.6912 
L 1195.97252 254.6912 
L 1296.857293 253.93176 
L 1397.742065 254.6912 
" style="fill:none;stroke:#0173b2;stroke-linecap:round;stroke-width:3;"/>
   </g>
   <g id="line2d_76">
    <path clip-path="url(#pc19625c731)" d="M 1095.087747 254.6912 
L 1195.97252 253.36218 
L 1296.857293 247.38159 
L 1397.742065 242.271192 
" style="fill:none;stroke:#0173b2;stroke-dasharray:12,3;stroke-dashoffset:0;stroke-width:3;"/>
   </g>
   <g id="line2d_77">
    <path clip-path="url(#pc19625c731)" d="M 1095.087747 239.407771 
L 1195.97252 227.627657 
L 1296.857293 223.762431 
L 1397.742065 212.947779 
" style="fill:none;stroke:#de8f05;stroke-linecap:round;stroke-width:3;"/>
   </g>
   <g id="line2d_78">
    <path clip-path="url(#pc19625c731)" d="M 1095.087747 229.781568 
L 1195.97252 217.037839 
L 1296.857293 205.042102 
L 1397.742065 207.96186 
" style="fill:none;stroke:#029e73;stroke-linecap:round;stroke-width:3;"/>
   </g>
   <g id="line2d_79">
    <path clip-path="url(#pc19625c731)" d="M 1095.087747 218.586157 
L 1195.97252 218.598814 
L 1296.857293 215.371194 
L 1397.742065 219.332939 
" style="fill:none;stroke:#cc78bc;stroke-linecap:round;stroke-width:3;"/>
   </g>
   <g id="line2d_80">
    <path clip-path="url(#pc19625c731)" d="M 1095.087747 254.6912 
L 1195.97252 254.6912 
L 1296.857293 254.6912 
L 1397.742065 254.6912 
" style="fill:none;stroke:#ca9161;stroke-linecap:round;stroke-width:3;"/>
   </g>
   <g id="patch_12">
    <path d="M 1079.955031 307.852 
L 1079.955031 42.048 
" style="fill:none;stroke:#262626;stroke-linecap:square;stroke-linejoin:miter;stroke-width:1.25;"/>
   </g>
   <g id="patch_13">
    <path d="M 1079.955031 307.852 
L 1412.874781 307.852 
" style="fill:none;stroke:#262626;stroke-linecap:square;stroke-linejoin:miter;stroke-width:1.25;"/>
   </g>
   <g id="text_32">
    <!-- p = 100 -->
    <g style="fill:#262626;" transform="translate(1220.175219 36.048)scale(0.156 -0.156)">
     <use xlink:href="#ArialMT-112"/>
     <use x="55.615234" xlink:href="#ArialMT-32"/>
     <use x="83.398438" xlink:href="#ArialMT-61"/>
     <use x="141.796875" xlink:href="#ArialMT-32"/>
     <use x="169.580078" xlink:href="#ArialMT-49"/>
     <use x="225.195312" xlink:href="#ArialMT-48"/>
     <use x="280.810547" xlink:href="#ArialMT-48"/>
    </g>
   </g>
  </g>
  <g id="legend_1">
   <g id="patch_14">
    <path d="M 1461.382781 214.561172 
L 1584.997344 214.561172 
Q 1587.857344 214.561172 1587.857344 211.701172 
L 1587.857344 10.06 
Q 1587.857344 7.2 1584.997344 7.2 
L 1461.382781 7.2 
Q 1458.522781 7.2 1458.522781 10.06 
L 1458.522781 211.701172 
Q 1458.522781 214.561172 1461.382781 214.561172 
z
" style="fill:#ffffff;opacity:0.8;stroke:#cccccc;stroke-linejoin:miter;"/>
   </g>
   <g id="text_33">
    <!-- Model -->
    <g style="fill:#262626;" transform="translate(1504.282781 23.155672)scale(0.143 -0.143)">
     <defs>
      <path d="M 7.421875 0 
L 7.421875 71.578125 
L 21.6875 71.578125 
L 38.625 20.90625 
Q 40.96875 13.8125 42.046875 10.296875 
Q 43.265625 14.203125 45.84375 21.78125 
L 62.984375 71.578125 
L 75.734375 71.578125 
L 75.734375 0 
L 66.609375 0 
L 66.609375 59.90625 
L 45.796875 0 
L 37.25 0 
L 16.546875 60.9375 
L 16.546875 0 
z
" id="ArialMT-77"/>
      <path d="M 3.328125 25.921875 
Q 3.328125 40.328125 11.328125 47.265625 
Q 18.015625 53.03125 27.640625 53.03125 
Q 38.328125 53.03125 45.109375 46.015625 
Q 51.90625 39.015625 51.90625 26.65625 
Q 51.90625 16.65625 48.90625 10.90625 
Q 45.90625 5.171875 40.15625 2 
Q 34.421875 -1.171875 27.640625 -1.171875 
Q 16.75 -1.171875 10.03125 5.8125 
Q 3.328125 12.796875 3.328125 25.921875 
z
M 12.359375 25.921875 
Q 12.359375 15.96875 16.703125 11.015625 
Q 21.046875 6.0625 27.640625 6.0625 
Q 34.1875 6.0625 38.53125 11.03125 
Q 42.875 16.015625 42.875 26.21875 
Q 42.875 35.84375 38.5 40.796875 
Q 34.125 45.75 27.640625 45.75 
Q 21.046875 45.75 16.703125 40.8125 
Q 12.359375 35.890625 12.359375 25.921875 
z
" id="ArialMT-111"/>
      <path d="M 40.234375 0 
L 40.234375 6.546875 
Q 35.296875 -1.171875 25.734375 -1.171875 
Q 19.53125 -1.171875 14.328125 2.25 
Q 9.125 5.671875 6.265625 11.796875 
Q 3.421875 17.921875 3.421875 25.875 
Q 3.421875 33.640625 6 39.96875 
Q 8.59375 46.296875 13.765625 49.65625 
Q 18.953125 53.03125 25.34375 53.03125 
Q 30.03125 53.03125 33.6875 51.046875 
Q 37.359375 49.078125 39.65625 45.90625 
L 39.65625 71.578125 
L 48.390625 71.578125 
L 48.390625 0 
z
M 12.453125 25.875 
Q 12.453125 15.921875 16.640625 10.984375 
Q 20.84375 6.0625 26.5625 6.0625 
Q 32.328125 6.0625 36.34375 10.765625 
Q 40.375 15.484375 40.375 25.140625 
Q 40.375 35.796875 36.265625 40.765625 
Q 32.171875 45.75 26.171875 45.75 
Q 20.3125 45.75 16.375 40.96875 
Q 12.453125 36.1875 12.453125 25.875 
z
" id="ArialMT-100"/>
      <path d="M 6.390625 0 
L 6.390625 71.578125 
L 15.1875 71.578125 
L 15.1875 0 
z
" id="ArialMT-108"/>
     </defs>
     <use xlink:href="#ArialMT-77"/>
     <use x="83.300781" xlink:href="#ArialMT-111"/>
     <use x="138.916016" xlink:href="#ArialMT-100"/>
     <use x="194.53125" xlink:href="#ArialMT-101"/>
     <use x="250.146484" xlink:href="#ArialMT-108"/>
    </g>
   </g>
   <g id="line2d_81">
    <path d="M 1464.242781 38.378469 
L 1492.842781 38.378469 
" style="fill:none;stroke:#0173b2;stroke-linecap:round;stroke-width:1.5;"/>
   </g>
   <g id="line2d_82"/>
   <g id="text_34">
    <!-- tascCODA -->
    <g style="fill:#262626;" transform="translate(1504.282781 43.383469)scale(0.143 -0.143)">
     <defs>
      <path d="M 40.4375 6.390625 
Q 35.546875 2.25 31.03125 0.53125 
Q 26.515625 -1.171875 21.34375 -1.171875 
Q 12.796875 -1.171875 8.203125 3 
Q 3.609375 7.171875 3.609375 13.671875 
Q 3.609375 17.484375 5.34375 20.625 
Q 7.078125 23.78125 9.890625 25.6875 
Q 12.703125 27.59375 16.21875 28.5625 
Q 18.796875 29.25 24.03125 29.890625 
Q 34.671875 31.15625 39.703125 32.90625 
Q 39.75 34.71875 39.75 35.203125 
Q 39.75 40.578125 37.25 42.78125 
Q 33.890625 45.75 27.25 45.75 
Q 21.046875 45.75 18.09375 43.578125 
Q 15.140625 41.40625 13.71875 35.890625 
L 5.125 37.0625 
Q 6.296875 42.578125 8.984375 45.96875 
Q 11.671875 49.359375 16.75 51.1875 
Q 21.828125 53.03125 28.515625 53.03125 
Q 35.15625 53.03125 39.296875 51.46875 
Q 43.453125 49.90625 45.40625 47.53125 
Q 47.359375 45.171875 48.140625 41.546875 
Q 48.578125 39.3125 48.578125 33.453125 
L 48.578125 21.734375 
Q 48.578125 9.46875 49.140625 6.21875 
Q 49.703125 2.984375 51.375 0 
L 42.1875 0 
Q 40.828125 2.734375 40.4375 6.390625 
z
M 39.703125 26.03125 
Q 34.90625 24.078125 25.34375 22.703125 
Q 19.921875 21.921875 17.671875 20.9375 
Q 15.4375 19.96875 14.203125 18.09375 
Q 12.984375 16.21875 12.984375 13.921875 
Q 12.984375 10.40625 15.640625 8.0625 
Q 18.3125 5.71875 23.4375 5.71875 
Q 28.515625 5.71875 32.46875 7.9375 
Q 36.421875 10.15625 38.28125 14.015625 
Q 39.703125 17 39.703125 22.796875 
z
" id="ArialMT-97"/>
      <path d="M 58.796875 25.09375 
L 68.265625 22.703125 
Q 65.28125 11.03125 57.546875 4.90625 
Q 49.8125 -1.21875 38.625 -1.21875 
Q 27.046875 -1.21875 19.796875 3.484375 
Q 12.546875 8.203125 8.765625 17.140625 
Q 4.984375 26.078125 4.984375 36.328125 
Q 4.984375 47.515625 9.25 55.828125 
Q 13.53125 64.15625 21.40625 68.46875 
Q 29.296875 72.796875 38.765625 72.796875 
Q 49.515625 72.796875 56.828125 67.328125 
Q 64.15625 61.859375 67.046875 51.953125 
L 57.71875 49.75 
Q 55.21875 57.5625 50.484375 61.125 
Q 45.75 64.703125 38.578125 64.703125 
Q 30.328125 64.703125 24.78125 60.734375 
Q 19.234375 56.78125 16.984375 50.109375 
Q 14.75 43.453125 14.75 36.375 
Q 14.75 27.25 17.40625 20.4375 
Q 20.0625 13.625 25.671875 10.25 
Q 31.296875 6.890625 37.84375 6.890625 
Q 45.796875 6.890625 51.3125 11.46875 
Q 56.84375 16.0625 58.796875 25.09375 
z
" id="ArialMT-67"/>
      <path d="M 4.828125 34.859375 
Q 4.828125 52.6875 14.390625 62.765625 
Q 23.96875 72.859375 39.109375 72.859375 
Q 49.03125 72.859375 56.984375 68.109375 
Q 64.9375 63.375 69.109375 54.90625 
Q 73.296875 46.4375 73.296875 35.6875 
Q 73.296875 24.8125 68.890625 16.21875 
Q 64.5 7.625 56.4375 3.203125 
Q 48.390625 -1.21875 39.0625 -1.21875 
Q 28.953125 -1.21875 20.984375 3.65625 
Q 13.03125 8.546875 8.921875 16.984375 
Q 4.828125 25.4375 4.828125 34.859375 
z
M 14.59375 34.71875 
Q 14.59375 21.78125 21.546875 14.328125 
Q 28.515625 6.890625 39.015625 6.890625 
Q 49.703125 6.890625 56.609375 14.40625 
Q 63.53125 21.921875 63.53125 35.75 
Q 63.53125 44.484375 60.578125 51 
Q 57.625 57.515625 51.921875 61.109375 
Q 46.234375 64.703125 39.15625 64.703125 
Q 29.109375 64.703125 21.84375 57.78125 
Q 14.59375 50.875 14.59375 34.71875 
z
" id="ArialMT-79"/>
      <path d="M -0.140625 0 
L 27.34375 71.578125 
L 37.546875 71.578125 
L 66.84375 0 
L 56.0625 0 
L 47.703125 21.6875 
L 17.78125 21.6875 
L 9.90625 0 
z
M 20.515625 29.390625 
L 44.78125 29.390625 
L 37.3125 49.21875 
Q 33.890625 58.25 32.234375 64.0625 
Q 30.859375 57.171875 28.375 50.390625 
z
" id="ArialMT-65"/>
     </defs>
     <use xlink:href="#ArialMT-116"/>
     <use x="27.783203" xlink:href="#ArialMT-97"/>
     <use x="83.398438" xlink:href="#ArialMT-115"/>
     <use x="133.398438" xlink:href="#ArialMT-99"/>
     <use x="183.398438" xlink:href="#ArialMT-67"/>
     <use x="255.615234" xlink:href="#ArialMT-79"/>
     <use x="333.398438" xlink:href="#ArialMT-68"/>
     <use x="405.615234" xlink:href="#ArialMT-65"/>
    </g>
   </g>
   <g id="line2d_83">
    <path d="M 1464.242781 58.606266 
L 1492.842781 58.606266 
" style="fill:none;stroke:#de8f05;stroke-linecap:round;stroke-width:1.5;"/>
   </g>
   <g id="line2d_84"/>
   <g id="text_35">
    <!-- scCODA -->
    <g style="fill:#262626;" transform="translate(1504.282781 63.611266)scale(0.143 -0.143)">
     <use xlink:href="#ArialMT-115"/>
     <use x="50" xlink:href="#ArialMT-99"/>
     <use x="100" xlink:href="#ArialMT-67"/>
     <use x="172.216797" xlink:href="#ArialMT-79"/>
     <use x="250" xlink:href="#ArialMT-68"/>
     <use x="322.216797" xlink:href="#ArialMT-65"/>
    </g>
   </g>
   <g id="line2d_85">
    <path d="M 1464.242781 78.834063 
L 1492.842781 78.834063 
" style="fill:none;stroke:#029e73;stroke-linecap:round;stroke-width:1.5;"/>
   </g>
   <g id="line2d_86"/>
   <g id="text_36">
    <!-- adaANCOM -->
    <g style="fill:#262626;" transform="translate(1504.282781 83.839063)scale(0.143 -0.143)">
     <defs>
      <path d="M 7.625 0 
L 7.625 71.578125 
L 17.328125 71.578125 
L 54.9375 15.375 
L 54.9375 71.578125 
L 64.015625 71.578125 
L 64.015625 0 
L 54.296875 0 
L 16.703125 56.25 
L 16.703125 0 
z
" id="ArialMT-78"/>
     </defs>
     <use xlink:href="#ArialMT-97"/>
     <use x="55.615234" xlink:href="#ArialMT-100"/>
     <use x="111.230469" xlink:href="#ArialMT-97"/>
     <use x="166.845703" xlink:href="#ArialMT-65"/>
     <use x="233.544922" xlink:href="#ArialMT-78"/>
     <use x="305.761719" xlink:href="#ArialMT-67"/>
     <use x="377.978516" xlink:href="#ArialMT-79"/>
     <use x="455.761719" xlink:href="#ArialMT-77"/>
    </g>
   </g>
   <g id="line2d_87">
    <path d="M 1464.242781 99.061859 
L 1492.842781 99.061859 
" style="fill:none;stroke:#cc78bc;stroke-linecap:round;stroke-width:1.5;"/>
   </g>
   <g id="line2d_88"/>
   <g id="text_37">
    <!-- ANCOM-BC -->
    <g style="fill:#262626;" transform="translate(1504.282781 104.066859)scale(0.143 -0.143)">
     <defs>
      <path d="M 3.171875 21.484375 
L 3.171875 30.328125 
L 30.171875 30.328125 
L 30.171875 21.484375 
z
" id="ArialMT-45"/>
      <path d="M 7.328125 0 
L 7.328125 71.578125 
L 34.1875 71.578125 
Q 42.390625 71.578125 47.34375 69.40625 
Q 52.296875 67.234375 55.09375 62.71875 
Q 57.90625 58.203125 57.90625 53.265625 
Q 57.90625 48.6875 55.421875 44.625 
Q 52.9375 40.578125 47.90625 38.09375 
Q 54.390625 36.1875 57.875 31.59375 
Q 61.375 27 61.375 20.75 
Q 61.375 15.71875 59.25 11.390625 
Q 57.125 7.078125 54 4.734375 
Q 50.875 2.390625 46.15625 1.1875 
Q 41.453125 0 34.625 0 
z
M 16.796875 41.5 
L 32.28125 41.5 
Q 38.578125 41.5 41.3125 42.328125 
Q 44.921875 43.40625 46.75 45.890625 
Q 48.578125 48.390625 48.578125 52.15625 
Q 48.578125 55.71875 46.875 58.421875 
Q 45.171875 61.140625 41.984375 62.140625 
Q 38.8125 63.140625 31.109375 63.140625 
L 16.796875 63.140625 
z
M 16.796875 8.453125 
L 34.625 8.453125 
Q 39.203125 8.453125 41.0625 8.796875 
Q 44.34375 9.375 46.53125 10.734375 
Q 48.734375 12.109375 50.140625 14.71875 
Q 51.5625 17.328125 51.5625 20.75 
Q 51.5625 24.75 49.515625 27.703125 
Q 47.46875 30.671875 43.828125 31.859375 
Q 40.1875 33.0625 33.34375 33.0625 
L 16.796875 33.0625 
z
" id="ArialMT-66"/>
     </defs>
     <use xlink:href="#ArialMT-65"/>
     <use x="66.699219" xlink:href="#ArialMT-78"/>
     <use x="138.916016" xlink:href="#ArialMT-67"/>
     <use x="211.132812" xlink:href="#ArialMT-79"/>
     <use x="288.916016" xlink:href="#ArialMT-77"/>
     <use x="372.216797" xlink:href="#ArialMT-45"/>
     <use x="405.517578" xlink:href="#ArialMT-66"/>
     <use x="472.216797" xlink:href="#ArialMT-67"/>
    </g>
   </g>
   <g id="line2d_89">
    <path d="M 1464.242781 119.289656 
L 1492.842781 119.289656 
" style="fill:none;stroke:#ca9161;stroke-linecap:round;stroke-width:1.5;"/>
   </g>
   <g id="line2d_90"/>
   <g id="text_38">
    <!-- ALDEx2 -->
    <g style="fill:#262626;" transform="translate(1504.282781 124.294656)scale(0.143 -0.143)">
     <defs>
      <path d="M 7.328125 0 
L 7.328125 71.578125 
L 16.796875 71.578125 
L 16.796875 8.453125 
L 52.046875 8.453125 
L 52.046875 0 
z
" id="ArialMT-76"/>
      <path d="M 0.734375 0 
L 19.671875 26.953125 
L 2.15625 51.859375 
L 13.140625 51.859375 
L 21.09375 39.703125 
Q 23.34375 36.234375 24.703125 33.890625 
Q 26.859375 37.109375 28.65625 39.59375 
L 37.40625 51.859375 
L 47.90625 51.859375 
L 29.984375 27.4375 
L 49.265625 0 
L 38.484375 0 
L 27.828125 16.109375 
L 25 20.453125 
L 11.375 0 
z
" id="ArialMT-120"/>
     </defs>
     <use xlink:href="#ArialMT-65"/>
     <use x="66.699219" xlink:href="#ArialMT-76"/>
     <use x="122.314453" xlink:href="#ArialMT-68"/>
     <use x="194.53125" xlink:href="#ArialMT-69"/>
     <use x="261.230469" xlink:href="#ArialMT-120"/>
     <use x="311.230469" xlink:href="#ArialMT-50"/>
    </g>
   </g>
   <g id="text_39">
    <!-- $\phi$ -->
    <g style="fill:#262626;" transform="translate(1504.282781 145.154781)scale(0.143 -0.143)">
     <defs>
      <path d="M 46.734375 75.984375 
L 42.78125 55.8125 
Q 52.546875 55.8125 57.5625 48.34375 
Q 62.75 40.71875 60.15625 27.296875 
Q 57.515625 13.875 49.359375 6.25 
Q 41.453125 -1.21875 31.6875 -1.21875 
L 27.875 -20.796875 
L 18.953125 -20.796875 
L 22.75 -1.21875 
Q 13.03125 -1.21875 7.953125 6.25 
Q 2.78125 13.875 5.421875 27.296875 
Q 8.015625 40.71875 16.15625 48.34375 
Q 24.125 55.8125 33.84375 55.8125 
L 37.796875 75.984375 
z
M 33.25 6.78125 
Q 38.765625 6.78125 43.5 11.8125 
Q 48.6875 17.4375 50.6875 27.296875 
Q 52.640625 37.0625 49.515625 42.78125 
Q 46.734375 47.796875 41.21875 47.796875 
z
M 24.3125 6.78125 
L 32.28125 47.796875 
Q 26.8125 47.796875 22.078125 42.78125 
Q 16.75 37.0625 14.890625 27.296875 
Q 13.03125 17.4375 16.0625 11.8125 
Q 18.796875 6.78125 24.3125 6.78125 
z
" id="DejaVuSans-Oblique-981"/>
     </defs>
     <use transform="translate(0 0.015625)" xlink:href="#DejaVuSans-Oblique-981"/>
    </g>
   </g>
   <g id="line2d_91">
    <path d="M 1464.242781 160.538453 
L 1492.842781 160.538453 
" style="fill:none;stroke:#333333;stroke-dasharray:1.5,1.5;stroke-dashoffset:0;stroke-width:1.5;"/>
   </g>
   <g id="line2d_92"/>
   <g id="text_40">
    <!-- -5 -->
    <g style="fill:#262626;" transform="translate(1504.282781 165.543453)scale(0.143 -0.143)">
     <use xlink:href="#ArialMT-45"/>
     <use x="33.300781" xlink:href="#ArialMT-53"/>
    </g>
   </g>
   <g id="line2d_93">
    <path d="M 1464.242781 180.76625 
L 1492.842781 180.76625 
" style="fill:none;stroke:#333333;stroke-linecap:round;stroke-width:1.5;"/>
   </g>
   <g id="line2d_94"/>
   <g id="text_41">
    <!-- 0 -->
    <g style="fill:#262626;" transform="translate(1504.282781 185.77125)scale(0.143 -0.143)">
     <use xlink:href="#ArialMT-48"/>
    </g>
   </g>
   <g id="line2d_95">
    <path d="M 1464.242781 200.994047 
L 1492.842781 200.994047 
" style="fill:none;stroke:#333333;stroke-dasharray:6,1.5;stroke-dashoffset:0;stroke-width:1.5;"/>
   </g>
   <g id="line2d_96"/>
   <g id="text_42">
    <!-- 5 -->
    <g style="fill:#262626;" transform="translate(1504.282781 205.999047)scale(0.143 -0.143)">
     <use xlink:href="#ArialMT-53"/>
    </g>
   </g>
  </g>
 </g>
 <defs>
  <clipPath id="p5f45c7ff14">
   <rect height="265.804" width="332.91975" x="63.195781" y="42.048"/>
  </clipPath>
  <clipPath id="p17cb57f214">
   <rect height="265.804" width="332.91975" x="402.115531" y="42.048"/>
  </clipPath>
  <clipPath id="pd313da946b">
   <rect height="265.804" width="332.91975" x="741.035281" y="42.048"/>
  </clipPath>
  <clipPath id="pc19625c731">
   <rect height="265.804" width="332.91975" x="1079.955031" y="42.048"/>
  </clipPath>
 </defs>
</svg>
