<?xml version="1.0" encoding="utf-8" standalone="no"?>
<!DOCTYPE svg PUBLIC "-//W3C//DTD SVG 1.1//EN"
  "http://www.w3.org/Graphics/SVG/1.1/DTD/svg11.dtd">
<!-- Created with matplotlib (https://matplotlib.org/) -->
<svg height="355.896484pt" version="1.1" viewBox="0 0 1595.057344 355.896484" width="1595.057344pt" xmlns="http://www.w3.org/2000/svg" xmlns:xlink="http://www.w3.org/1999/xlink">
 <metadata>
  <rdf:RDF xmlns:cc="http://creativecommons.org/ns#" xmlns:dc="http://purl.org/dc/elements/1.1/" xmlns:rdf="http://www.w3.org/1999/02/22-rdf-syntax-ns#">
   <cc:Work>
    <dc:type rdf:resource="http://purl.org/dc/dcmitype/StillImage"/>
    <dc:date>2021-10-06T10:04:46.062928</dc:date>
    <dc:format>image/svg+xml</dc:format>
    <dc:creator>
     <cc:Agent>
      <dc:title>Matplotlib v3.3.3, https://matplotlib.org/</dc:title>
     </cc:Agent>
    </dc:creator>
   </cc:Work>
  </rdf:RDF>
 </metadata>
 <defs>
  <style type="text/css">*{stroke-linecap:butt;stroke-linejoin:round;}</style>
 </defs>
 <g id="figure_1">
  <g id="patch_1">
   <path d="M 0 355.896484 
L 1595.057344 355.896484 
L 1595.057344 0 
L 0 0 
z
" style="fill:#ffffff;"/>
  </g>
  <g id="axes_1">
   <g id="patch_2">
    <path d="M 63.195781 307.852 
L 396.115531 307.852 
L 396.115531 42.048 
L 63.195781 42.048 
z
" style="fill:#ffffff;"/>
   </g>
   <g id="matplotlib.axis_1">
    <g id="xtick_1">
     <g id="line2d_1">
      <defs>
       <path d="M 0 0 
L 0 6 
" id="mc0e187cc68" style="stroke:#262626;stroke-width:1.25;"/>
      </defs>
      <g>
       <use style="fill:#262626;stroke:#262626;stroke-width:1.25;" x="78.328497" xlink:href="#mc0e187cc68" y="307.852"/>
      </g>
     </g>
     <g id="text_1">
      <!-- 0.3 -->
      <g style="fill:#262626;" transform="translate(68.389997 327.587672)scale(0.143 -0.143)">
       <defs>
        <path d="M 4.15625 35.296875 
Q 4.15625 48 6.765625 55.734375 
Q 9.375 63.484375 14.515625 67.671875 
Q 19.671875 71.875 27.484375 71.875 
Q 33.25 71.875 37.59375 69.546875 
Q 41.9375 67.234375 44.765625 62.859375 
Q 47.609375 58.5 49.21875 52.21875 
Q 50.828125 45.953125 50.828125 35.296875 
Q 50.828125 22.703125 48.234375 14.96875 
Q 45.65625 7.234375 40.5 3 
Q 35.359375 -1.21875 27.484375 -1.21875 
Q 17.140625 -1.21875 11.234375 6.203125 
Q 4.15625 15.140625 4.15625 35.296875 
z
M 13.1875 35.296875 
Q 13.1875 17.671875 17.3125 11.828125 
Q 21.4375 6 27.484375 6 
Q 33.546875 6 37.671875 11.859375 
Q 41.796875 17.71875 41.796875 35.296875 
Q 41.796875 52.984375 37.671875 58.78125 
Q 33.546875 64.59375 27.390625 64.59375 
Q 21.34375 64.59375 17.71875 59.46875 
Q 13.1875 52.9375 13.1875 35.296875 
z
" id="ArialMT-48"/>
        <path d="M 9.078125 0 
L 9.078125 10.015625 
L 19.09375 10.015625 
L 19.09375 0 
z
" id="ArialMT-46"/>
        <path d="M 4.203125 18.890625 
L 12.984375 20.0625 
Q 14.5 12.59375 18.140625 9.296875 
Q 21.78125 6 27 6 
Q 33.203125 6 37.46875 10.296875 
Q 41.75 14.59375 41.75 20.953125 
Q 41.75 27 37.796875 30.921875 
Q 33.84375 34.859375 27.734375 34.859375 
Q 25.25 34.859375 21.53125 33.890625 
L 22.515625 41.609375 
Q 23.390625 41.5 23.921875 41.5 
Q 29.546875 41.5 34.03125 44.421875 
Q 38.53125 47.359375 38.53125 53.46875 
Q 38.53125 58.296875 35.25 61.46875 
Q 31.984375 64.65625 26.8125 64.65625 
Q 21.6875 64.65625 18.265625 61.421875 
Q 14.84375 58.203125 13.875 51.765625 
L 5.078125 53.328125 
Q 6.6875 62.15625 12.390625 67.015625 
Q 18.109375 71.875 26.609375 71.875 
Q 32.46875 71.875 37.390625 69.359375 
Q 42.328125 66.84375 44.9375 62.5 
Q 47.5625 58.15625 47.5625 53.265625 
Q 47.5625 48.640625 45.0625 44.828125 
Q 42.578125 41.015625 37.703125 38.765625 
Q 44.046875 37.3125 47.5625 32.6875 
Q 51.078125 28.078125 51.078125 21.140625 
Q 51.078125 11.765625 44.234375 5.25 
Q 37.40625 -1.265625 26.953125 -1.265625 
Q 17.53125 -1.265625 11.296875 4.34375 
Q 5.078125 9.96875 4.203125 18.890625 
z
" id="ArialMT-51"/>
       </defs>
       <use xlink:href="#ArialMT-48"/>
       <use x="55.615234" xlink:href="#ArialMT-46"/>
       <use x="83.398438" xlink:href="#ArialMT-51"/>
      </g>
     </g>
    </g>
    <g id="xtick_2">
     <g id="line2d_2">
      <g>
       <use style="fill:#262626;stroke:#262626;stroke-width:1.25;" x="179.21327" xlink:href="#mc0e187cc68" y="307.852"/>
      </g>
     </g>
     <g id="text_2">
      <!-- 0.5 -->
      <g style="fill:#262626;" transform="translate(169.27477 327.587672)scale(0.143 -0.143)">
       <defs>
        <path d="M 4.15625 18.75 
L 13.375 19.53125 
Q 14.40625 12.796875 18.140625 9.390625 
Q 21.875 6 27.15625 6 
Q 33.5 6 37.890625 10.78125 
Q 42.28125 15.578125 42.28125 23.484375 
Q 42.28125 31 38.0625 35.34375 
Q 33.84375 39.703125 27 39.703125 
Q 22.75 39.703125 19.328125 37.765625 
Q 15.921875 35.84375 13.96875 32.765625 
L 5.71875 33.84375 
L 12.640625 70.609375 
L 48.25 70.609375 
L 48.25 62.203125 
L 19.671875 62.203125 
L 15.828125 42.96875 
Q 22.265625 47.46875 29.34375 47.46875 
Q 38.71875 47.46875 45.15625 40.96875 
Q 51.609375 34.46875 51.609375 24.265625 
Q 51.609375 14.546875 45.953125 7.46875 
Q 39.0625 -1.21875 27.15625 -1.21875 
Q 17.390625 -1.21875 11.203125 4.25 
Q 5.03125 9.71875 4.15625 18.75 
z
" id="ArialMT-53"/>
       </defs>
       <use xlink:href="#ArialMT-48"/>
       <use x="55.615234" xlink:href="#ArialMT-46"/>
       <use x="83.398438" xlink:href="#ArialMT-53"/>
      </g>
     </g>
    </g>
    <g id="xtick_3">
     <g id="line2d_3">
      <g>
       <use style="fill:#262626;stroke:#262626;stroke-width:1.25;" x="280.098043" xlink:href="#mc0e187cc68" y="307.852"/>
      </g>
     </g>
     <g id="text_3">
      <!-- 0.7 -->
      <g style="fill:#262626;" transform="translate(270.159543 327.587672)scale(0.143 -0.143)">
       <defs>
        <path d="M 4.734375 62.203125 
L 4.734375 70.65625 
L 51.078125 70.65625 
L 51.078125 63.8125 
Q 44.234375 56.546875 37.515625 44.484375 
Q 30.8125 32.421875 27.15625 19.671875 
Q 24.515625 10.6875 23.78125 0 
L 14.75 0 
Q 14.890625 8.453125 18.0625 20.40625 
Q 21.234375 32.375 27.171875 43.484375 
Q 33.109375 54.59375 39.796875 62.203125 
z
" id="ArialMT-55"/>
       </defs>
       <use xlink:href="#ArialMT-48"/>
       <use x="55.615234" xlink:href="#ArialMT-46"/>
       <use x="83.398438" xlink:href="#ArialMT-55"/>
      </g>
     </g>
    </g>
    <g id="xtick_4">
     <g id="line2d_4">
      <g>
       <use style="fill:#262626;stroke:#262626;stroke-width:1.25;" x="380.982815" xlink:href="#mc0e187cc68" y="307.852"/>
      </g>
     </g>
     <g id="text_4">
      <!-- 0.9 -->
      <g style="fill:#262626;" transform="translate(371.044315 327.587672)scale(0.143 -0.143)">
       <defs>
        <path d="M 5.46875 16.546875 
L 13.921875 17.328125 
Q 14.984375 11.375 18.015625 8.6875 
Q 21.046875 6 25.78125 6 
Q 29.828125 6 32.875 7.859375 
Q 35.9375 9.71875 37.890625 12.8125 
Q 39.84375 15.921875 41.15625 21.1875 
Q 42.484375 26.46875 42.484375 31.9375 
Q 42.484375 32.515625 42.4375 33.6875 
Q 39.796875 29.5 35.234375 26.875 
Q 30.671875 24.265625 25.34375 24.265625 
Q 16.453125 24.265625 10.296875 30.703125 
Q 4.15625 37.15625 4.15625 47.703125 
Q 4.15625 58.59375 10.578125 65.234375 
Q 17 71.875 26.65625 71.875 
Q 33.640625 71.875 39.421875 68.109375 
Q 45.21875 64.359375 48.21875 57.390625 
Q 51.21875 50.4375 51.21875 37.25 
Q 51.21875 23.53125 48.234375 15.40625 
Q 45.265625 7.28125 39.375 3.03125 
Q 33.5 -1.21875 25.59375 -1.21875 
Q 17.1875 -1.21875 11.859375 3.4375 
Q 6.546875 8.109375 5.46875 16.546875 
z
M 41.453125 48.140625 
Q 41.453125 55.71875 37.421875 60.15625 
Q 33.40625 64.59375 27.734375 64.59375 
Q 21.875 64.59375 17.53125 59.8125 
Q 13.1875 55.03125 13.1875 47.40625 
Q 13.1875 40.578125 17.3125 36.296875 
Q 21.4375 32.03125 27.484375 32.03125 
Q 33.59375 32.03125 37.515625 36.296875 
Q 41.453125 40.578125 41.453125 48.140625 
z
" id="ArialMT-57"/>
       </defs>
       <use xlink:href="#ArialMT-48"/>
       <use x="55.615234" xlink:href="#ArialMT-46"/>
       <use x="83.398438" xlink:href="#ArialMT-57"/>
      </g>
     </g>
    </g>
    <g id="text_5">
     <!-- Effect size -->
     <g style="fill:#262626;" transform="translate(193.813438 345.595984)scale(0.156 -0.156)">
      <defs>
       <path d="M 7.90625 0 
L 7.90625 71.578125 
L 59.671875 71.578125 
L 59.671875 63.140625 
L 17.390625 63.140625 
L 17.390625 41.21875 
L 56.984375 41.21875 
L 56.984375 32.8125 
L 17.390625 32.8125 
L 17.390625 8.453125 
L 61.328125 8.453125 
L 61.328125 0 
z
" id="ArialMT-69"/>
       <path d="M 8.6875 0 
L 8.6875 45.015625 
L 0.921875 45.015625 
L 0.921875 51.859375 
L 8.6875 51.859375 
L 8.6875 57.375 
Q 8.6875 62.59375 9.625 65.140625 
Q 10.890625 68.5625 14.078125 70.671875 
Q 17.28125 72.796875 23.046875 72.796875 
Q 26.765625 72.796875 31.25 71.921875 
L 29.9375 64.265625 
Q 27.203125 64.75 24.75 64.75 
Q 20.75 64.75 19.09375 63.03125 
Q 17.4375 61.328125 17.4375 56.640625 
L 17.4375 51.859375 
L 27.546875 51.859375 
L 27.546875 45.015625 
L 17.4375 45.015625 
L 17.4375 0 
z
" id="ArialMT-102"/>
       <path d="M 42.09375 16.703125 
L 51.171875 15.578125 
Q 49.03125 7.625 43.21875 3.21875 
Q 37.40625 -1.171875 28.375 -1.171875 
Q 17 -1.171875 10.328125 5.828125 
Q 3.65625 12.84375 3.65625 25.484375 
Q 3.65625 38.578125 10.390625 45.796875 
Q 17.140625 53.03125 27.875 53.03125 
Q 38.28125 53.03125 44.875 45.953125 
Q 51.46875 38.875 51.46875 26.03125 
Q 51.46875 25.25 51.421875 23.6875 
L 12.75 23.6875 
Q 13.234375 15.140625 17.578125 10.59375 
Q 21.921875 6.0625 28.421875 6.0625 
Q 33.25 6.0625 36.671875 8.59375 
Q 40.09375 11.140625 42.09375 16.703125 
z
M 13.234375 30.90625 
L 42.1875 30.90625 
Q 41.609375 37.453125 38.875 40.71875 
Q 34.671875 45.796875 27.984375 45.796875 
Q 21.921875 45.796875 17.796875 41.75 
Q 13.671875 37.703125 13.234375 30.90625 
z
" id="ArialMT-101"/>
       <path d="M 40.4375 19 
L 49.078125 17.875 
Q 47.65625 8.9375 41.8125 3.875 
Q 35.984375 -1.171875 27.484375 -1.171875 
Q 16.84375 -1.171875 10.375 5.78125 
Q 3.90625 12.75 3.90625 25.734375 
Q 3.90625 34.125 6.6875 40.421875 
Q 9.46875 46.734375 15.15625 49.875 
Q 20.84375 53.03125 27.546875 53.03125 
Q 35.984375 53.03125 41.359375 48.75 
Q 46.734375 44.484375 48.25 36.625 
L 39.703125 35.296875 
Q 38.484375 40.53125 35.375 43.15625 
Q 32.28125 45.796875 27.875 45.796875 
Q 21.234375 45.796875 17.078125 41.03125 
Q 12.9375 36.28125 12.9375 25.984375 
Q 12.9375 15.53125 16.9375 10.796875 
Q 20.953125 6.0625 27.390625 6.0625 
Q 32.5625 6.0625 36.03125 9.234375 
Q 39.5 12.40625 40.4375 19 
z
" id="ArialMT-99"/>
       <path d="M 25.78125 7.859375 
L 27.046875 0.09375 
Q 23.34375 -0.6875 20.40625 -0.6875 
Q 15.625 -0.6875 12.984375 0.828125 
Q 10.359375 2.34375 9.28125 4.8125 
Q 8.203125 7.28125 8.203125 15.1875 
L 8.203125 45.015625 
L 1.765625 45.015625 
L 1.765625 51.859375 
L 8.203125 51.859375 
L 8.203125 64.703125 
L 16.9375 69.96875 
L 16.9375 51.859375 
L 25.78125 51.859375 
L 25.78125 45.015625 
L 16.9375 45.015625 
L 16.9375 14.703125 
Q 16.9375 10.9375 17.40625 9.859375 
Q 17.875 8.796875 18.921875 8.15625 
Q 19.96875 7.515625 21.921875 7.515625 
Q 23.390625 7.515625 25.78125 7.859375 
z
" id="ArialMT-116"/>
       <path id="ArialMT-32"/>
       <path d="M 3.078125 15.484375 
L 11.765625 16.84375 
Q 12.5 11.625 15.84375 8.84375 
Q 19.1875 6.0625 25.203125 6.0625 
Q 31.25 6.0625 34.171875 8.515625 
Q 37.109375 10.984375 37.109375 14.3125 
Q 37.109375 17.28125 34.515625 19 
Q 32.71875 20.171875 25.53125 21.96875 
Q 15.875 24.421875 12.140625 26.203125 
Q 8.40625 27.984375 6.46875 31.125 
Q 4.546875 34.28125 4.546875 38.09375 
Q 4.546875 41.546875 6.125 44.5 
Q 7.71875 47.46875 10.453125 49.421875 
Q 12.5 50.921875 16.03125 51.96875 
Q 19.578125 53.03125 23.640625 53.03125 
Q 29.734375 53.03125 34.34375 51.265625 
Q 38.96875 49.515625 41.15625 46.5 
Q 43.359375 43.5 44.1875 38.484375 
L 35.59375 37.3125 
Q 35.015625 41.3125 32.203125 43.546875 
Q 29.390625 45.796875 24.265625 45.796875 
Q 18.21875 45.796875 15.625 43.796875 
Q 13.03125 41.796875 13.03125 39.109375 
Q 13.03125 37.40625 14.109375 36.03125 
Q 15.1875 34.625 17.484375 33.6875 
Q 18.796875 33.203125 25.25 31.453125 
Q 34.578125 28.953125 38.25 27.359375 
Q 41.9375 25.78125 44.03125 22.75 
Q 46.140625 19.734375 46.140625 15.234375 
Q 46.140625 10.84375 43.578125 6.953125 
Q 41.015625 3.078125 36.171875 0.953125 
Q 31.34375 -1.171875 25.25 -1.171875 
Q 15.140625 -1.171875 9.84375 3.03125 
Q 4.546875 7.234375 3.078125 15.484375 
z
" id="ArialMT-115"/>
       <path d="M 6.640625 61.46875 
L 6.640625 71.578125 
L 15.4375 71.578125 
L 15.4375 61.46875 
z
M 6.640625 0 
L 6.640625 51.859375 
L 15.4375 51.859375 
L 15.4375 0 
z
" id="ArialMT-105"/>
       <path d="M 1.953125 0 
L 1.953125 7.125 
L 34.96875 45.015625 
Q 29.34375 44.734375 25.046875 44.734375 
L 3.90625 44.734375 
L 3.90625 51.859375 
L 46.296875 51.859375 
L 46.296875 46.046875 
L 18.21875 13.140625 
L 12.796875 7.125 
Q 18.703125 7.5625 23.875 7.5625 
L 47.859375 7.5625 
L 47.859375 0 
z
" id="ArialMT-122"/>
      </defs>
      <use xlink:href="#ArialMT-69"/>
      <use x="66.699219" xlink:href="#ArialMT-102"/>
      <use x="92.732422" xlink:href="#ArialMT-102"/>
      <use x="120.515625" xlink:href="#ArialMT-101"/>
      <use x="176.130859" xlink:href="#ArialMT-99"/>
      <use x="226.130859" xlink:href="#ArialMT-116"/>
      <use x="253.914062" xlink:href="#ArialMT-32"/>
      <use x="281.697266" xlink:href="#ArialMT-115"/>
      <use x="331.697266" xlink:href="#ArialMT-105"/>
      <use x="353.914062" xlink:href="#ArialMT-122"/>
      <use x="403.914062" xlink:href="#ArialMT-101"/>
     </g>
    </g>
   </g>
   <g id="matplotlib.axis_2">
    <g id="ytick_1">
     <g id="line2d_5">
      <defs>
       <path d="M 0 0 
L -6 0 
" id="m83cc8df766" style="stroke:#262626;stroke-width:1.25;"/>
      </defs>
      <g>
       <use style="fill:#262626;stroke:#262626;stroke-width:1.25;" x="63.195781" xlink:href="#m83cc8df766" y="297.21984"/>
      </g>
     </g>
     <g id="text_6">
      <!-- −0.2 -->
      <g style="fill:#262626;" transform="translate(25.466688 302.337676)scale(0.143 -0.143)">
       <defs>
        <path d="M 52.828125 31.203125 
L 5.5625 31.203125 
L 5.5625 39.40625 
L 52.828125 39.40625 
z
" id="ArialMT-8722"/>
        <path d="M 50.34375 8.453125 
L 50.34375 0 
L 3.03125 0 
Q 2.9375 3.171875 4.046875 6.109375 
Q 5.859375 10.9375 9.828125 15.625 
Q 13.8125 20.3125 21.34375 26.46875 
Q 33.015625 36.03125 37.109375 41.625 
Q 41.21875 47.21875 41.21875 52.203125 
Q 41.21875 57.421875 37.46875 61 
Q 33.734375 64.59375 27.734375 64.59375 
Q 21.390625 64.59375 17.578125 60.78125 
Q 13.765625 56.984375 13.71875 50.25 
L 4.6875 51.171875 
Q 5.609375 61.28125 11.65625 66.578125 
Q 17.71875 71.875 27.9375 71.875 
Q 38.234375 71.875 44.234375 66.15625 
Q 50.25 60.453125 50.25 52 
Q 50.25 47.703125 48.484375 43.546875 
Q 46.734375 39.40625 42.65625 34.8125 
Q 38.578125 30.21875 29.109375 22.21875 
Q 21.1875 15.578125 18.9375 13.203125 
Q 16.703125 10.84375 15.234375 8.453125 
z
" id="ArialMT-50"/>
       </defs>
       <use xlink:href="#ArialMT-8722"/>
       <use x="58.398438" xlink:href="#ArialMT-48"/>
       <use x="114.013672" xlink:href="#ArialMT-46"/>
       <use x="141.796875" xlink:href="#ArialMT-50"/>
      </g>
     </g>
    </g>
    <g id="ytick_2">
     <g id="line2d_6">
      <g>
       <use style="fill:#262626;stroke:#262626;stroke-width:1.25;" x="63.195781" xlink:href="#m83cc8df766" y="254.6912"/>
      </g>
     </g>
     <g id="text_7">
      <!-- 0.0 -->
      <g style="fill:#262626;" transform="translate(33.818781 259.809036)scale(0.143 -0.143)">
       <use xlink:href="#ArialMT-48"/>
       <use x="55.615234" xlink:href="#ArialMT-46"/>
       <use x="83.398438" xlink:href="#ArialMT-48"/>
      </g>
     </g>
    </g>
    <g id="ytick_3">
     <g id="line2d_7">
      <g>
       <use style="fill:#262626;stroke:#262626;stroke-width:1.25;" x="63.195781" xlink:href="#m83cc8df766" y="212.16256"/>
      </g>
     </g>
     <g id="text_8">
      <!-- 0.2 -->
      <g style="fill:#262626;" transform="translate(33.818781 217.280396)scale(0.143 -0.143)">
       <use xlink:href="#ArialMT-48"/>
       <use x="55.615234" xlink:href="#ArialMT-46"/>
       <use x="83.398438" xlink:href="#ArialMT-50"/>
      </g>
     </g>
    </g>
    <g id="ytick_4">
     <g id="line2d_8">
      <g>
       <use style="fill:#262626;stroke:#262626;stroke-width:1.25;" x="63.195781" xlink:href="#m83cc8df766" y="169.63392"/>
      </g>
     </g>
     <g id="text_9">
      <!-- 0.4 -->
      <g style="fill:#262626;" transform="translate(33.818781 174.751756)scale(0.143 -0.143)">
       <defs>
        <path d="M 32.328125 0 
L 32.328125 17.140625 
L 1.265625 17.140625 
L 1.265625 25.203125 
L 33.9375 71.578125 
L 41.109375 71.578125 
L 41.109375 25.203125 
L 50.78125 25.203125 
L 50.78125 17.140625 
L 41.109375 17.140625 
L 41.109375 0 
z
M 32.328125 25.203125 
L 32.328125 57.46875 
L 9.90625 25.203125 
z
" id="ArialMT-52"/>
       </defs>
       <use xlink:href="#ArialMT-48"/>
       <use x="55.615234" xlink:href="#ArialMT-46"/>
       <use x="83.398438" xlink:href="#ArialMT-52"/>
      </g>
     </g>
    </g>
    <g id="ytick_5">
     <g id="line2d_9">
      <g>
       <use style="fill:#262626;stroke:#262626;stroke-width:1.25;" x="63.195781" xlink:href="#m83cc8df766" y="127.10528"/>
      </g>
     </g>
     <g id="text_10">
      <!-- 0.6 -->
      <g style="fill:#262626;" transform="translate(33.818781 132.223116)scale(0.143 -0.143)">
       <defs>
        <path d="M 49.75 54.046875 
L 41.015625 53.375 
Q 39.84375 58.546875 37.703125 60.890625 
Q 34.125 64.65625 28.90625 64.65625 
Q 24.703125 64.65625 21.53125 62.3125 
Q 17.390625 59.28125 14.984375 53.46875 
Q 12.59375 47.65625 12.5 36.921875 
Q 15.671875 41.75 20.265625 44.09375 
Q 24.859375 46.4375 29.890625 46.4375 
Q 38.671875 46.4375 44.84375 39.96875 
Q 51.03125 33.5 51.03125 23.25 
Q 51.03125 16.5 48.125 10.71875 
Q 45.21875 4.9375 40.140625 1.859375 
Q 35.0625 -1.21875 28.609375 -1.21875 
Q 17.625 -1.21875 10.6875 6.859375 
Q 3.765625 14.9375 3.765625 33.5 
Q 3.765625 54.25 11.421875 63.671875 
Q 18.109375 71.875 29.4375 71.875 
Q 37.890625 71.875 43.28125 67.140625 
Q 48.6875 62.40625 49.75 54.046875 
z
M 13.875 23.1875 
Q 13.875 18.65625 15.796875 14.5 
Q 17.71875 10.359375 21.1875 8.171875 
Q 24.65625 6 28.46875 6 
Q 34.03125 6 38.03125 10.484375 
Q 42.046875 14.984375 42.046875 22.703125 
Q 42.046875 30.125 38.078125 34.390625 
Q 34.125 38.671875 28.125 38.671875 
Q 22.171875 38.671875 18.015625 34.390625 
Q 13.875 30.125 13.875 23.1875 
z
" id="ArialMT-54"/>
       </defs>
       <use xlink:href="#ArialMT-48"/>
       <use x="55.615234" xlink:href="#ArialMT-46"/>
       <use x="83.398438" xlink:href="#ArialMT-54"/>
      </g>
     </g>
    </g>
    <g id="ytick_6">
     <g id="line2d_10">
      <g>
       <use style="fill:#262626;stroke:#262626;stroke-width:1.25;" x="63.195781" xlink:href="#m83cc8df766" y="84.57664"/>
      </g>
     </g>
     <g id="text_11">
      <!-- 0.8 -->
      <g style="fill:#262626;" transform="translate(33.818781 89.694476)scale(0.143 -0.143)">
       <defs>
        <path d="M 17.671875 38.8125 
Q 12.203125 40.828125 9.5625 44.53125 
Q 6.9375 48.25 6.9375 53.421875 
Q 6.9375 61.234375 12.546875 66.546875 
Q 18.171875 71.875 27.484375 71.875 
Q 36.859375 71.875 42.578125 66.421875 
Q 48.296875 60.984375 48.296875 53.171875 
Q 48.296875 48.1875 45.671875 44.5 
Q 43.0625 40.828125 37.75 38.8125 
Q 44.34375 36.671875 47.78125 31.875 
Q 51.21875 27.09375 51.21875 20.453125 
Q 51.21875 11.28125 44.71875 5.03125 
Q 38.234375 -1.21875 27.640625 -1.21875 
Q 17.046875 -1.21875 10.546875 5.046875 
Q 4.046875 11.328125 4.046875 20.703125 
Q 4.046875 27.6875 7.59375 32.390625 
Q 11.140625 37.109375 17.671875 38.8125 
z
M 15.921875 53.71875 
Q 15.921875 48.640625 19.1875 45.40625 
Q 22.46875 42.1875 27.6875 42.1875 
Q 32.765625 42.1875 36.015625 45.375 
Q 39.265625 48.578125 39.265625 53.21875 
Q 39.265625 58.0625 35.90625 61.359375 
Q 32.5625 64.65625 27.59375 64.65625 
Q 22.5625 64.65625 19.234375 61.421875 
Q 15.921875 58.203125 15.921875 53.71875 
z
M 13.09375 20.65625 
Q 13.09375 16.890625 14.875 13.375 
Q 16.65625 9.859375 20.171875 7.921875 
Q 23.6875 6 27.734375 6 
Q 34.03125 6 38.125 10.046875 
Q 42.234375 14.109375 42.234375 20.359375 
Q 42.234375 26.703125 38.015625 30.859375 
Q 33.796875 35.015625 27.4375 35.015625 
Q 21.234375 35.015625 17.15625 30.90625 
Q 13.09375 26.8125 13.09375 20.65625 
z
" id="ArialMT-56"/>
       </defs>
       <use xlink:href="#ArialMT-48"/>
       <use x="55.615234" xlink:href="#ArialMT-46"/>
       <use x="83.398438" xlink:href="#ArialMT-56"/>
      </g>
     </g>
    </g>
    <g id="ytick_7">
     <g id="line2d_11">
      <g>
       <use style="fill:#262626;stroke:#262626;stroke-width:1.25;" x="63.195781" xlink:href="#m83cc8df766" y="42.048"/>
      </g>
     </g>
     <g id="text_12">
      <!-- 1.0 -->
      <g style="fill:#262626;" transform="translate(33.818781 47.165836)scale(0.143 -0.143)">
       <defs>
        <path d="M 37.25 0 
L 28.46875 0 
L 28.46875 56 
Q 25.296875 52.984375 20.140625 49.953125 
Q 14.984375 46.921875 10.890625 45.40625 
L 10.890625 53.90625 
Q 18.265625 57.375 23.78125 62.296875 
Q 29.296875 67.234375 31.59375 71.875 
L 37.25 71.875 
z
" id="ArialMT-49"/>
       </defs>
       <use xlink:href="#ArialMT-49"/>
       <use x="55.615234" xlink:href="#ArialMT-46"/>
       <use x="83.398438" xlink:href="#ArialMT-48"/>
      </g>
     </g>
    </g>
    <g id="text_13">
     <!-- TPR -->
     <g style="fill:#262626;" transform="translate(18.366188 190.55)rotate(-90)scale(0.156 -0.156)">
      <defs>
       <path d="M 25.921875 0 
L 25.921875 63.140625 
L 2.34375 63.140625 
L 2.34375 71.578125 
L 59.078125 71.578125 
L 59.078125 63.140625 
L 35.40625 63.140625 
L 35.40625 0 
z
" id="ArialMT-84"/>
       <path d="M 7.71875 0 
L 7.71875 71.578125 
L 34.71875 71.578125 
Q 41.84375 71.578125 45.609375 70.90625 
Q 50.875 70.015625 54.4375 67.546875 
Q 58.015625 65.09375 60.1875 60.640625 
Q 62.359375 56.203125 62.359375 50.875 
Q 62.359375 41.75 56.546875 35.421875 
Q 50.734375 29.109375 35.546875 29.109375 
L 17.1875 29.109375 
L 17.1875 0 
z
M 17.1875 37.546875 
L 35.6875 37.546875 
Q 44.875 37.546875 48.734375 40.96875 
Q 52.59375 44.390625 52.59375 50.59375 
Q 52.59375 55.078125 50.3125 58.265625 
Q 48.046875 61.46875 44.34375 62.5 
Q 41.9375 63.140625 35.5 63.140625 
L 17.1875 63.140625 
z
" id="ArialMT-80"/>
       <path d="M 7.859375 0 
L 7.859375 71.578125 
L 39.59375 71.578125 
Q 49.171875 71.578125 54.140625 69.640625 
Q 59.125 67.71875 62.109375 62.828125 
Q 65.09375 57.953125 65.09375 52.046875 
Q 65.09375 44.4375 60.15625 39.203125 
Q 55.21875 33.984375 44.921875 32.5625 
Q 48.6875 30.765625 50.640625 29 
Q 54.78125 25.203125 58.5 19.484375 
L 70.953125 0 
L 59.03125 0 
L 49.5625 14.890625 
Q 45.40625 21.34375 42.71875 24.75 
Q 40.046875 28.171875 37.921875 29.53125 
Q 35.796875 30.90625 33.59375 31.453125 
Q 31.984375 31.78125 28.328125 31.78125 
L 17.328125 31.78125 
L 17.328125 0 
z
M 17.328125 39.984375 
L 37.703125 39.984375 
Q 44.1875 39.984375 47.84375 41.328125 
Q 51.515625 42.671875 53.421875 45.625 
Q 55.328125 48.578125 55.328125 52.046875 
Q 55.328125 57.125 51.640625 60.390625 
Q 47.953125 63.671875 39.984375 63.671875 
L 17.328125 63.671875 
z
" id="ArialMT-82"/>
      </defs>
      <use xlink:href="#ArialMT-84"/>
      <use x="61.083984" xlink:href="#ArialMT-80"/>
      <use x="127.783203" xlink:href="#ArialMT-82"/>
     </g>
    </g>
   </g>
   <g id="PolyCollection_1">
    <defs>
     <path d="M 78.328497 -166.991774 
L 78.328497 -138.417844 
L 179.21327 -184.933544 
L 280.098043 -200.200662 
L 380.982815 -210.184924 
L 380.982815 -251.384544 
L 380.982815 -251.384544 
L 280.098043 -239.423364 
L 179.21327 -225.468654 
L 78.328497 -166.991774 
z
" id="m08edff9970" style="stroke:#0173b2;stroke-opacity:0.2;"/>
    </defs>
    <g clip-path="url(#p8a415106bf)">
     <use style="fill:#0173b2;fill-opacity:0.2;stroke:#0173b2;stroke-opacity:0.2;" x="0" xlink:href="#m08edff9970" y="355.896484"/>
    </g>
   </g>
   <g id="PolyCollection_2">
    <defs>
     <path d="M 78.328497 -198.888254 
L 78.328497 -162.340204 
L 179.21327 -209.520414 
L 280.098043 -233.442774 
L 380.982815 -249.374402 
L 380.982815 -284.610044 
L 380.982815 -284.610044 
L 280.098043 -270.007437 
L 179.21327 -250.055524 
L 78.328497 -198.888254 
z
" id="m6885b5be7d" style="stroke:#0173b2;stroke-opacity:0.2;"/>
    </defs>
    <g clip-path="url(#p8a415106bf)">
     <use style="fill:#0173b2;fill-opacity:0.2;stroke:#0173b2;stroke-opacity:0.2;" x="0" xlink:href="#m6885b5be7d" y="355.896484"/>
    </g>
   </g>
   <g id="PolyCollection_3">
    <defs>
     <path d="M 78.328497 -204.220947 
L 78.328497 -172.307854 
L 179.21327 -247.397484 
L 280.098043 -287.251472 
L 380.982815 -297.900244 
L 380.982815 -310.525934 
L 380.982815 -310.525934 
L 280.098043 -302.551814 
L 179.21327 -276.635924 
L 78.328497 -204.220947 
z
" id="md0b00649b7" style="stroke:#0173b2;stroke-opacity:0.2;"/>
    </defs>
    <g clip-path="url(#p8a415106bf)">
     <use style="fill:#0173b2;fill-opacity:0.2;stroke:#0173b2;stroke-opacity:0.2;" x="0" xlink:href="#md0b00649b7" y="355.896484"/>
    </g>
   </g>
   <g id="PolyCollection_4">
    <defs>
     <path d="M 78.328497 -206.878987 
L 78.328497 -170.962222 
L 179.21327 -228.110082 
L 280.098043 -246.068464 
L 380.982815 -273.313374 
L 380.982815 -297.916857 
L 380.982815 -297.916857 
L 280.098043 -277.964944 
L 179.21327 -262.697827 
L 78.328497 -206.878987 
z
" id="ma2789d64bf" style="stroke:#de8f05;stroke-opacity:0.2;"/>
    </defs>
    <g clip-path="url(#p8a415106bf)">
     <use style="fill:#de8f05;fill-opacity:0.2;stroke:#de8f05;stroke-opacity:0.2;" x="0" xlink:href="#ma2789d64bf" y="355.896484"/>
    </g>
   </g>
   <g id="PolyCollection_5">
    <defs>
     <path d="M 78.328497 -180.963097 
L 78.328497 -153.701574 
L 179.21327 -181.610994 
L 280.098043 -178.952954 
L 380.982815 -200.217274 
L 380.982815 -219.488064 
L 380.982815 -219.488064 
L 280.098043 -202.875314 
L 179.21327 -211.530557 
L 78.328497 -180.963097 
z
" id="m47064b049c" style="stroke:#029e73;stroke-opacity:0.2;"/>
    </defs>
    <g clip-path="url(#p8a415106bf)">
     <use style="fill:#029e73;fill-opacity:0.2;stroke:#029e73;stroke-opacity:0.2;" x="0" xlink:href="#m47064b049c" y="355.896484"/>
    </g>
   </g>
   <g id="PolyCollection_6">
    <defs>
     <path d="M 78.328497 -202.210804 
L 78.328497 -166.991774 
L 179.21327 -236.100814 
L 280.098043 -273.977884 
L 380.982815 -289.926124 
L 380.982815 -304.545344 
L 380.982815 -304.545344 
L 280.098043 -295.242204 
L 179.21327 -268.661804 
L 78.328497 -202.210804 
z
" id="m6f79fda6f0" style="stroke:#cc78bc;stroke-opacity:0.2;"/>
    </defs>
    <g clip-path="url(#p8a415106bf)">
     <use style="fill:#cc78bc;fill-opacity:0.2;stroke:#cc78bc;stroke-opacity:0.2;" x="0" xlink:href="#m6f79fda6f0" y="355.896484"/>
    </g>
   </g>
   <g id="PolyCollection_7">
    <defs>
     <path d="M 78.328497 -179.617464 
L 78.328497 -143.069414 
L 179.21327 -194.236684 
L 280.098043 -210.832822 
L 380.982815 -228.126694 
L 380.982815 -268.678417 
L 380.982815 -268.678417 
L 280.098043 -253.394687 
L 179.21327 -234.771794 
L 78.328497 -179.617464 
z
" id="m4b0516768c" style="stroke:#ca9161;stroke-opacity:0.2;"/>
    </defs>
    <g clip-path="url(#p8a415106bf)">
     <use style="fill:#ca9161;fill-opacity:0.2;stroke:#ca9161;stroke-opacity:0.2;" x="0" xlink:href="#m4b0516768c" y="355.896484"/>
    </g>
   </g>
   <g id="line2d_12">
    <path clip-path="url(#p8a415106bf)" d="M 78.328497 203.52393 
L 179.21327 150.36313 
L 280.098043 135.74391 
L 380.982815 124.44724 
" style="fill:none;stroke:#0173b2;stroke-dasharray:3,3;stroke-dashoffset:0;stroke-width:3;"/>
   </g>
   <g id="line2d_13">
    <path clip-path="url(#p8a415106bf)" d="M 78.328497 175.61451 
L 179.21327 125.77626 
L 280.098043 103.18292 
L 380.982815 88.5637 
" style="fill:none;stroke:#0173b2;stroke-linecap:round;stroke-width:3;"/>
   </g>
   <g id="line2d_14">
    <path clip-path="url(#p8a415106bf)" d="M 78.328497 168.3049 
L 179.21327 93.21527 
L 280.098043 61.31879 
L 380.982815 50.68663 
" style="fill:none;stroke:#0173b2;stroke-dasharray:12,3;stroke-dashoffset:0;stroke-width:3;"/>
   </g>
   <g id="line2d_15">
    <path clip-path="url(#p8a415106bf)" d="M 78.328497 167.64039 
L 179.21327 109.82802 
L 280.098043 92.55076 
L 380.982815 68.6284 
" style="fill:none;stroke:#de8f05;stroke-linecap:round;stroke-width:3;"/>
   </g>
   <g id="line2d_16">
    <path clip-path="url(#p8a415106bf)" d="M 78.328497 188.2402 
L 179.21327 159.00176 
L 280.098043 164.98235 
L 380.982815 146.37607 
" style="fill:none;stroke:#029e73;stroke-linecap:round;stroke-width:3;"/>
   </g>
   <g id="line2d_17">
    <path clip-path="url(#p8a415106bf)" d="M 78.328497 170.96294 
L 179.21327 103.18292 
L 280.098043 70.62193 
L 380.982815 57.99624 
" style="fill:none;stroke:#cc78bc;stroke-linecap:round;stroke-width:3;"/>
   </g>
   <g id="line2d_18">
    <path clip-path="url(#p8a415106bf)" d="M 78.328497 194.8853 
L 179.21327 140.39548 
L 280.098043 123.11822 
L 380.982815 105.84096 
" style="fill:none;stroke:#ca9161;stroke-linecap:round;stroke-width:3;"/>
   </g>
   <g id="line2d_19"/>
   <g id="line2d_20"/>
   <g id="line2d_21"/>
   <g id="line2d_22"/>
   <g id="line2d_23"/>
   <g id="line2d_24"/>
   <g id="line2d_25"/>
   <g id="line2d_26"/>
   <g id="patch_3">
    <path d="M 63.195781 307.852 
L 63.195781 42.048 
" style="fill:none;stroke:#262626;stroke-linecap:square;stroke-linejoin:miter;stroke-width:1.25;"/>
   </g>
   <g id="patch_4">
    <path d="M 63.195781 307.852 
L 396.115531 307.852 
" style="fill:none;stroke:#262626;stroke-linecap:square;stroke-linejoin:miter;stroke-width:1.25;"/>
   </g>
   <g id="text_14">
    <!-- p = 10 -->
    <g style="fill:#262626;" transform="translate(207.7535 36.048)scale(0.156 -0.156)">
     <defs>
      <path d="M 6.59375 -19.875 
L 6.59375 51.859375 
L 14.59375 51.859375 
L 14.59375 45.125 
Q 17.4375 49.078125 21 51.046875 
Q 24.5625 53.03125 29.640625 53.03125 
Q 36.28125 53.03125 41.359375 49.609375 
Q 46.4375 46.1875 49.015625 39.953125 
Q 51.609375 33.734375 51.609375 26.3125 
Q 51.609375 18.359375 48.75 11.984375 
Q 45.90625 5.609375 40.453125 2.21875 
Q 35.015625 -1.171875 29 -1.171875 
Q 24.609375 -1.171875 21.109375 0.6875 
Q 17.625 2.546875 15.375 5.375 
L 15.375 -19.875 
z
M 14.546875 25.640625 
Q 14.546875 15.625 18.59375 10.84375 
Q 22.65625 6.0625 28.421875 6.0625 
Q 34.28125 6.0625 38.453125 11.015625 
Q 42.625 15.96875 42.625 26.375 
Q 42.625 36.28125 38.546875 41.203125 
Q 34.46875 46.140625 28.8125 46.140625 
Q 23.1875 46.140625 18.859375 40.890625 
Q 14.546875 35.640625 14.546875 25.640625 
z
" id="ArialMT-112"/>
      <path d="M 52.828125 42.09375 
L 5.5625 42.09375 
L 5.5625 50.296875 
L 52.828125 50.296875 
z
M 52.828125 20.359375 
L 5.5625 20.359375 
L 5.5625 28.5625 
L 52.828125 28.5625 
z
" id="ArialMT-61"/>
     </defs>
     <use xlink:href="#ArialMT-112"/>
     <use x="55.615234" xlink:href="#ArialMT-32"/>
     <use x="83.398438" xlink:href="#ArialMT-61"/>
     <use x="141.796875" xlink:href="#ArialMT-32"/>
     <use x="169.580078" xlink:href="#ArialMT-49"/>
     <use x="225.195312" xlink:href="#ArialMT-48"/>
    </g>
   </g>
  </g>
  <g id="axes_2">
   <g id="patch_5">
    <path d="M 402.115531 307.852 
L 735.035281 307.852 
L 735.035281 42.048 
L 402.115531 42.048 
z
" style="fill:#ffffff;"/>
   </g>
   <g id="matplotlib.axis_3">
    <g id="xtick_5">
     <g id="line2d_27">
      <g>
       <use style="fill:#262626;stroke:#262626;stroke-width:1.25;" x="417.248247" xlink:href="#mc0e187cc68" y="307.852"/>
      </g>
     </g>
     <g id="text_15">
      <!-- 0.3 -->
      <g style="fill:#262626;" transform="translate(407.309747 327.587672)scale(0.143 -0.143)">
       <use xlink:href="#ArialMT-48"/>
       <use x="55.615234" xlink:href="#ArialMT-46"/>
       <use x="83.398438" xlink:href="#ArialMT-51"/>
      </g>
     </g>
    </g>
    <g id="xtick_6">
     <g id="line2d_28">
      <g>
       <use style="fill:#262626;stroke:#262626;stroke-width:1.25;" x="518.13302" xlink:href="#mc0e187cc68" y="307.852"/>
      </g>
     </g>
     <g id="text_16">
      <!-- 0.5 -->
      <g style="fill:#262626;" transform="translate(508.19452 327.587672)scale(0.143 -0.143)">
       <use xlink:href="#ArialMT-48"/>
       <use x="55.615234" xlink:href="#ArialMT-46"/>
       <use x="83.398438" xlink:href="#ArialMT-53"/>
      </g>
     </g>
    </g>
    <g id="xtick_7">
     <g id="line2d_29">
      <g>
       <use style="fill:#262626;stroke:#262626;stroke-width:1.25;" x="619.017793" xlink:href="#mc0e187cc68" y="307.852"/>
      </g>
     </g>
     <g id="text_17">
      <!-- 0.7 -->
      <g style="fill:#262626;" transform="translate(609.079293 327.587672)scale(0.143 -0.143)">
       <use xlink:href="#ArialMT-48"/>
       <use x="55.615234" xlink:href="#ArialMT-46"/>
       <use x="83.398438" xlink:href="#ArialMT-55"/>
      </g>
     </g>
    </g>
    <g id="xtick_8">
     <g id="line2d_30">
      <g>
       <use style="fill:#262626;stroke:#262626;stroke-width:1.25;" x="719.902565" xlink:href="#mc0e187cc68" y="307.852"/>
      </g>
     </g>
     <g id="text_18">
      <!-- 0.9 -->
      <g style="fill:#262626;" transform="translate(709.964065 327.587672)scale(0.143 -0.143)">
       <use xlink:href="#ArialMT-48"/>
       <use x="55.615234" xlink:href="#ArialMT-46"/>
       <use x="83.398438" xlink:href="#ArialMT-57"/>
      </g>
     </g>
    </g>
    <g id="text_19">
     <!-- Effect size -->
     <g style="fill:#262626;" transform="translate(532.733187 345.595984)scale(0.156 -0.156)">
      <use xlink:href="#ArialMT-69"/>
      <use x="66.699219" xlink:href="#ArialMT-102"/>
      <use x="92.732422" xlink:href="#ArialMT-102"/>
      <use x="120.515625" xlink:href="#ArialMT-101"/>
      <use x="176.130859" xlink:href="#ArialMT-99"/>
      <use x="226.130859" xlink:href="#ArialMT-116"/>
      <use x="253.914062" xlink:href="#ArialMT-32"/>
      <use x="281.697266" xlink:href="#ArialMT-115"/>
      <use x="331.697266" xlink:href="#ArialMT-105"/>
      <use x="353.914062" xlink:href="#ArialMT-122"/>
      <use x="403.914062" xlink:href="#ArialMT-101"/>
     </g>
    </g>
   </g>
   <g id="matplotlib.axis_4">
    <g id="ytick_8">
     <g id="line2d_31">
      <g>
       <use style="fill:#262626;stroke:#262626;stroke-width:1.25;" x="402.115531" xlink:href="#m83cc8df766" y="297.21984"/>
      </g>
     </g>
    </g>
    <g id="ytick_9">
     <g id="line2d_32">
      <g>
       <use style="fill:#262626;stroke:#262626;stroke-width:1.25;" x="402.115531" xlink:href="#m83cc8df766" y="254.6912"/>
      </g>
     </g>
    </g>
    <g id="ytick_10">
     <g id="line2d_33">
      <g>
       <use style="fill:#262626;stroke:#262626;stroke-width:1.25;" x="402.115531" xlink:href="#m83cc8df766" y="212.16256"/>
      </g>
     </g>
    </g>
    <g id="ytick_11">
     <g id="line2d_34">
      <g>
       <use style="fill:#262626;stroke:#262626;stroke-width:1.25;" x="402.115531" xlink:href="#m83cc8df766" y="169.63392"/>
      </g>
     </g>
    </g>
    <g id="ytick_12">
     <g id="line2d_35">
      <g>
       <use style="fill:#262626;stroke:#262626;stroke-width:1.25;" x="402.115531" xlink:href="#m83cc8df766" y="127.10528"/>
      </g>
     </g>
    </g>
    <g id="ytick_13">
     <g id="line2d_36">
      <g>
       <use style="fill:#262626;stroke:#262626;stroke-width:1.25;" x="402.115531" xlink:href="#m83cc8df766" y="84.57664"/>
      </g>
     </g>
    </g>
    <g id="ytick_14">
     <g id="line2d_37">
      <g>
       <use style="fill:#262626;stroke:#262626;stroke-width:1.25;" x="402.115531" xlink:href="#m83cc8df766" y="42.048"/>
      </g>
     </g>
    </g>
   </g>
   <g id="PolyCollection_8">
    <defs>
     <path d="M 417.248247 -141.518891 
L 417.248247 -115.824504 
L 518.13302 -158.785076 
L 619.017793 -172.529358 
L 719.902565 -192.453583 
L 719.902565 -230.563231 
L 719.902565 -230.563231 
L 619.017793 -214.171984 
L 518.13302 -195.565704 
L 417.248247 -141.518891 
z
" id="m71eb1580d7" style="stroke:#0173b2;stroke-opacity:0.2;"/>
    </defs>
    <g clip-path="url(#pcf855af3d0)">
     <use style="fill:#0173b2;fill-opacity:0.2;stroke:#0173b2;stroke-opacity:0.2;" x="0" xlink:href="#m71eb1580d7" y="355.896484"/>
    </g>
   </g>
   <g id="PolyCollection_9">
    <defs>
     <path d="M 417.248247 -170.757331 
L 417.248247 -139.303858 
L 518.13302 -179.617464 
L 619.017793 -221.249016 
L 719.902565 -245.614383 
L 719.902565 -275.749911 
L 719.902565 -275.749911 
L 619.017793 -255.825686 
L 518.13302 -219.056133 
L 417.248247 -170.757331 
z
" id="me608e38dbe" style="stroke:#0173b2;stroke-opacity:0.2;"/>
    </defs>
    <g clip-path="url(#pcf855af3d0)">
     <use style="fill:#0173b2;fill-opacity:0.2;stroke:#0173b2;stroke-opacity:0.2;" x="0" xlink:href="#me608e38dbe" y="355.896484"/>
    </g>
   </g>
   <g id="PolyCollection_10">
    <defs>
     <path d="M 417.248247 -192.021651 
L 417.248247 -157.024124 
L 518.13302 -220.374078 
L 619.017793 -276.192918 
L 719.902565 -303.659331 
L 719.902565 -311.190444 
L 719.902565 -311.190444 
L 619.017793 -297.014231 
L 518.13302 -257.143631 
L 417.248247 -192.021651 
z
" id="m1a21779b29" style="stroke:#0173b2;stroke-opacity:0.2;"/>
    </defs>
    <g clip-path="url(#pcf855af3d0)">
     <use style="fill:#0173b2;fill-opacity:0.2;stroke:#0173b2;stroke-opacity:0.2;" x="0" xlink:href="#m1a21779b29" y="355.896484"/>
    </g>
   </g>
   <g id="PolyCollection_11">
    <defs>
     <path d="M 417.248247 -176.084486 
L 417.248247 -146.823896 
L 518.13302 -196.883649 
L 619.017793 -242.070329 
L 719.902565 -274.863898 
L 719.902565 -292.584164 
L 719.902565 -292.584164 
L 619.017793 -269.990824 
L 518.13302 -232.778264 
L 417.248247 -176.084486 
z
" id="m293a464e4e" style="stroke:#de8f05;stroke-opacity:0.2;"/>
    </defs>
    <g clip-path="url(#pcf855af3d0)">
     <use style="fill:#de8f05;fill-opacity:0.2;stroke:#de8f05;stroke-opacity:0.2;" x="0" xlink:href="#m293a464e4e" y="355.896484"/>
    </g>
   </g>
   <g id="PolyCollection_12">
    <defs>
     <path d="M 417.248247 -157.478206 
L 417.248247 -133.544771 
L 518.13302 -150.379024 
L 619.017793 -166.327264 
L 719.902565 -181.389491 
L 719.902565 -210.196 
L 719.902565 -210.196 
L 619.017793 -196.894724 
L 518.13302 -178.288444 
L 417.248247 -157.478206 
z
" id="m818370aaa2" style="stroke:#029e73;stroke-opacity:0.2;"/>
    </defs>
    <g clip-path="url(#pcf855af3d0)">
     <use style="fill:#029e73;fill-opacity:0.2;stroke:#029e73;stroke-opacity:0.2;" x="0" xlink:href="#m818370aaa2" y="355.896484"/>
    </g>
   </g>
   <g id="PolyCollection_13">
    <defs>
     <path d="M 417.248247 -161.908273 
L 417.248247 -135.316798 
L 518.13302 -201.756723 
L 619.017793 -243.410424 
L 719.902565 -278.407951 
L 719.902565 -295.242204 
L 719.902565 -295.242204 
L 619.017793 -268.218798 
L 518.13302 -235.44738 
L 417.248247 -161.908273 
z
" id="m057d2d9472" style="stroke:#cc78bc;stroke-opacity:0.2;"/>
    </defs>
    <g clip-path="url(#pcf855af3d0)">
     <use style="fill:#cc78bc;fill-opacity:0.2;stroke:#cc78bc;stroke-opacity:0.2;" x="0" xlink:href="#m057d2d9472" y="355.896484"/>
    </g>
   </g>
   <g id="PolyCollection_14">
    <defs>
     <path d="M 417.248247 -118.039538 
L 417.248247 -103.863324 
L 518.13302 -120.254571 
L 619.017793 -145.505951 
L 719.902565 -157.910138 
L 719.902565 -200.438778 
L 719.902565 -200.438778 
L 619.017793 -181.389491 
L 518.13302 -149.050004 
L 417.248247 -118.039538 
z
" id="m00d72bbf06" style="stroke:#ca9161;stroke-opacity:0.2;"/>
    </defs>
    <g clip-path="url(#pcf855af3d0)">
     <use style="fill:#ca9161;fill-opacity:0.2;stroke:#ca9161;stroke-opacity:0.2;" x="0" xlink:href="#m00d72bbf06" y="355.896484"/>
    </g>
   </g>
   <g id="line2d_38">
    <path clip-path="url(#pcf855af3d0)" d="M 417.248247 227.224787 
L 518.13302 180.26608 
L 619.017793 161.216793 
L 719.902565 143.05352 
" style="fill:none;stroke:#0173b2;stroke-dasharray:3,3;stroke-dashoffset:0;stroke-width:3;"/>
   </g>
   <g id="line2d_39">
    <path clip-path="url(#pcf855af3d0)" d="M 417.248247 201.087393 
L 518.13302 157.229733 
L 619.017793 116.47312 
L 719.902565 94.765793 
" style="fill:none;stroke:#0173b2;stroke-linecap:round;stroke-width:3;"/>
   </g>
   <g id="line2d_40">
    <path clip-path="url(#pcf855af3d0)" d="M 417.248247 180.709087 
L 518.13302 117.359133 
L 619.017793 68.6284 
L 719.902565 48.250093 
" style="fill:none;stroke:#0173b2;stroke-dasharray:12,3;stroke-dashoffset:0;stroke-width:3;"/>
   </g>
   <g id="line2d_41">
    <path clip-path="url(#pcf855af3d0)" d="M 417.248247 193.999287 
L 518.13302 141.281493 
L 619.017793 99.19586 
L 719.902565 71.729447 
" style="fill:none;stroke:#de8f05;stroke-linecap:round;stroke-width:3;"/>
   </g>
   <g id="line2d_42">
    <path clip-path="url(#pcf855af3d0)" d="M 417.248247 211.276547 
L 518.13302 192.22726 
L 619.017793 175.393007 
L 719.902565 160.33078 
" style="fill:none;stroke:#029e73;stroke-linecap:round;stroke-width:3;"/>
   </g>
   <g id="line2d_43">
    <path clip-path="url(#pcf855af3d0)" d="M 417.248247 206.84648 
L 518.13302 136.851427 
L 619.017793 99.19586 
L 719.902565 68.6284 
" style="fill:none;stroke:#cc78bc;stroke-linecap:round;stroke-width:3;"/>
   </g>
   <g id="line2d_44">
    <path clip-path="url(#pcf855af3d0)" d="M 417.248247 245.831067 
L 518.13302 221.908707 
L 619.017793 192.670267 
L 719.902565 177.60804 
" style="fill:none;stroke:#ca9161;stroke-linecap:round;stroke-width:3;"/>
   </g>
   <g id="patch_6">
    <path d="M 402.115531 307.852 
L 402.115531 42.048 
" style="fill:none;stroke:#262626;stroke-linecap:square;stroke-linejoin:miter;stroke-width:1.25;"/>
   </g>
   <g id="patch_7">
    <path d="M 402.115531 307.852 
L 735.035281 307.852 
" style="fill:none;stroke:#262626;stroke-linecap:square;stroke-linejoin:miter;stroke-width:1.25;"/>
   </g>
   <g id="text_20">
    <!-- p = 30 -->
    <g style="fill:#262626;" transform="translate(546.67325 36.048)scale(0.156 -0.156)">
     <use xlink:href="#ArialMT-112"/>
     <use x="55.615234" xlink:href="#ArialMT-32"/>
     <use x="83.398438" xlink:href="#ArialMT-61"/>
     <use x="141.796875" xlink:href="#ArialMT-32"/>
     <use x="169.580078" xlink:href="#ArialMT-51"/>
     <use x="225.195312" xlink:href="#ArialMT-48"/>
    </g>
   </g>
  </g>
  <g id="axes_3">
   <g id="patch_8">
    <path d="M 741.035281 307.852 
L 1073.955031 307.852 
L 1073.955031 42.048 
L 741.035281 42.048 
z
" style="fill:#ffffff;"/>
   </g>
   <g id="matplotlib.axis_5">
    <g id="xtick_9">
     <g id="line2d_45">
      <g>
       <use style="fill:#262626;stroke:#262626;stroke-width:1.25;" x="756.167997" xlink:href="#mc0e187cc68" y="307.852"/>
      </g>
     </g>
     <g id="text_21">
      <!-- 0.3 -->
      <g style="fill:#262626;" transform="translate(746.229497 327.587672)scale(0.143 -0.143)">
       <use xlink:href="#ArialMT-48"/>
       <use x="55.615234" xlink:href="#ArialMT-46"/>
       <use x="83.398438" xlink:href="#ArialMT-51"/>
      </g>
     </g>
    </g>
    <g id="xtick_10">
     <g id="line2d_46">
      <g>
       <use style="fill:#262626;stroke:#262626;stroke-width:1.25;" x="857.05277" xlink:href="#mc0e187cc68" y="307.852"/>
      </g>
     </g>
     <g id="text_22">
      <!-- 0.5 -->
      <g style="fill:#262626;" transform="translate(847.11427 327.587672)scale(0.143 -0.143)">
       <use xlink:href="#ArialMT-48"/>
       <use x="55.615234" xlink:href="#ArialMT-46"/>
       <use x="83.398438" xlink:href="#ArialMT-53"/>
      </g>
     </g>
    </g>
    <g id="xtick_11">
     <g id="line2d_47">
      <g>
       <use style="fill:#262626;stroke:#262626;stroke-width:1.25;" x="957.937543" xlink:href="#mc0e187cc68" y="307.852"/>
      </g>
     </g>
     <g id="text_23">
      <!-- 0.7 -->
      <g style="fill:#262626;" transform="translate(947.999043 327.587672)scale(0.143 -0.143)">
       <use xlink:href="#ArialMT-48"/>
       <use x="55.615234" xlink:href="#ArialMT-46"/>
       <use x="83.398438" xlink:href="#ArialMT-55"/>
      </g>
     </g>
    </g>
    <g id="xtick_12">
     <g id="line2d_48">
      <g>
       <use style="fill:#262626;stroke:#262626;stroke-width:1.25;" x="1058.822315" xlink:href="#mc0e187cc68" y="307.852"/>
      </g>
     </g>
     <g id="text_24">
      <!-- 0.9 -->
      <g style="fill:#262626;" transform="translate(1048.883815 327.587672)scale(0.143 -0.143)">
       <use xlink:href="#ArialMT-48"/>
       <use x="55.615234" xlink:href="#ArialMT-46"/>
       <use x="83.398438" xlink:href="#ArialMT-57"/>
      </g>
     </g>
    </g>
    <g id="text_25">
     <!-- Effect size -->
     <g style="fill:#262626;" transform="translate(871.652938 345.595984)scale(0.156 -0.156)">
      <use xlink:href="#ArialMT-69"/>
      <use x="66.699219" xlink:href="#ArialMT-102"/>
      <use x="92.732422" xlink:href="#ArialMT-102"/>
      <use x="120.515625" xlink:href="#ArialMT-101"/>
      <use x="176.130859" xlink:href="#ArialMT-99"/>
      <use x="226.130859" xlink:href="#ArialMT-116"/>
      <use x="253.914062" xlink:href="#ArialMT-32"/>
      <use x="281.697266" xlink:href="#ArialMT-115"/>
      <use x="331.697266" xlink:href="#ArialMT-105"/>
      <use x="353.914062" xlink:href="#ArialMT-122"/>
      <use x="403.914062" xlink:href="#ArialMT-101"/>
     </g>
    </g>
   </g>
   <g id="matplotlib.axis_6">
    <g id="ytick_15">
     <g id="line2d_49">
      <g>
       <use style="fill:#262626;stroke:#262626;stroke-width:1.25;" x="741.035281" xlink:href="#m83cc8df766" y="297.21984"/>
      </g>
     </g>
    </g>
    <g id="ytick_16">
     <g id="line2d_50">
      <g>
       <use style="fill:#262626;stroke:#262626;stroke-width:1.25;" x="741.035281" xlink:href="#m83cc8df766" y="254.6912"/>
      </g>
     </g>
    </g>
    <g id="ytick_17">
     <g id="line2d_51">
      <g>
       <use style="fill:#262626;stroke:#262626;stroke-width:1.25;" x="741.035281" xlink:href="#m83cc8df766" y="212.16256"/>
      </g>
     </g>
    </g>
    <g id="ytick_18">
     <g id="line2d_52">
      <g>
       <use style="fill:#262626;stroke:#262626;stroke-width:1.25;" x="741.035281" xlink:href="#m83cc8df766" y="169.63392"/>
      </g>
     </g>
    </g>
    <g id="ytick_19">
     <g id="line2d_53">
      <g>
       <use style="fill:#262626;stroke:#262626;stroke-width:1.25;" x="741.035281" xlink:href="#m83cc8df766" y="127.10528"/>
      </g>
     </g>
    </g>
    <g id="ytick_20">
     <g id="line2d_54">
      <g>
       <use style="fill:#262626;stroke:#262626;stroke-width:1.25;" x="741.035281" xlink:href="#m83cc8df766" y="84.57664"/>
      </g>
     </g>
    </g>
    <g id="ytick_21">
     <g id="line2d_55">
      <g>
       <use style="fill:#262626;stroke:#262626;stroke-width:1.25;" x="741.035281" xlink:href="#m83cc8df766" y="42.048"/>
      </g>
     </g>
    </g>
   </g>
   <g id="PolyCollection_15">
    <defs>
     <path d="M 756.167997 -110.065418 
L 756.167997 -101.205284 
L 857.05277 -128.228691 
L 957.937543 -159.682164 
L 1058.822315 -172.518283 
L 1058.822315 -213.728978 
L 1058.822315 -213.728978 
L 957.937543 -197.802888 
L 857.05277 -158.796151 
L 756.167997 -110.065418 
z
" id="me39f400c4e" style="stroke:#0173b2;stroke-opacity:0.2;"/>
    </defs>
    <g clip-path="url(#pc644702744)">
     <use style="fill:#0173b2;fill-opacity:0.2;stroke:#0173b2;stroke-opacity:0.2;" x="0" xlink:href="#me39f400c4e" y="355.896484"/>
    </g>
   </g>
   <g id="PolyCollection_16">
    <defs>
     <path d="M 756.167997 -140.643953 
L 756.167997 -115.381498 
L 857.05277 -162.329129 
L 957.937543 -188.477598 
L 1058.822315 -210.627931 
L 1058.822315 -249.180586 
L 1058.822315 -249.180586 
L 957.937543 -227.019178 
L 857.05277 -199.995771 
L 756.167997 -140.643953 
z
" id="m4037e25784" style="stroke:#0173b2;stroke-opacity:0.2;"/>
    </defs>
    <g clip-path="url(#pc644702744)">
     <use style="fill:#0173b2;fill-opacity:0.2;stroke:#0173b2;stroke-opacity:0.2;" x="0" xlink:href="#m4037e25784" y="355.896484"/>
    </g>
   </g>
   <g id="PolyCollection_17">
    <defs>
     <path d="M 756.167997 -173.858378 
L 756.167997 -141.075884 
L 857.05277 -219.476989 
L 957.937543 -268.207723 
L 1058.822315 -291.255144 
L 1058.822315 -303.216324 
L 1058.822315 -303.216324 
L 957.937543 -289.040111 
L 857.05277 -252.713564 
L 756.167997 -173.858378 
z
" id="md9c4d1ef33" style="stroke:#0173b2;stroke-opacity:0.2;"/>
    </defs>
    <g clip-path="url(#pc644702744)">
     <use style="fill:#0173b2;fill-opacity:0.2;stroke:#0173b2;stroke-opacity:0.2;" x="0" xlink:href="#md9c4d1ef33" y="355.896484"/>
    </g>
   </g>
   <g id="PolyCollection_18">
    <defs>
     <path d="M 756.167997 -158.807226 
L 756.167997 -130.886731 
L 857.05277 -181.389491 
L 957.937543 -224.804144 
L 1058.822315 -262.005629 
L 1058.822315 -282.406086 
L 1058.822315 -282.406086 
L 957.937543 -255.371604 
L 857.05277 -215.057998 
L 756.167997 -158.807226 
z
" id="me169789d10" style="stroke:#de8f05;stroke-opacity:0.2;"/>
    </defs>
    <g clip-path="url(#pc644702744)">
     <use style="fill:#de8f05;fill-opacity:0.2;stroke:#de8f05;stroke-opacity:0.2;" x="0" xlink:href="#me169789d10" y="355.896484"/>
    </g>
   </g>
   <g id="PolyCollection_19">
    <defs>
     <path d="M 756.167997 -131.772744 
L 756.167997 -114.052478 
L 857.05277 -142.404904 
L 957.937543 -148.595923 
L 1058.822315 -163.215143 
L 1058.822315 -191.146713 
L 1058.822315 -191.146713 
L 957.937543 -172.086351 
L 857.05277 -167.213278 
L 756.167997 -131.772744 
z
" id="m5ea07a1c0f" style="stroke:#029e73;stroke-opacity:0.2;"/>
    </defs>
    <g clip-path="url(#pc644702744)">
     <use style="fill:#029e73;fill-opacity:0.2;stroke:#029e73;stroke-opacity:0.2;" x="0" xlink:href="#m5ea07a1c0f" y="355.896484"/>
    </g>
   </g>
   <g id="PolyCollection_20">
    <defs>
     <path d="M 756.167997 -139.746864 
L 756.167997 -121.140584 
L 857.05277 -180.946484 
L 957.937543 -226.133164 
L 1058.822315 -258.915658 
L 1058.822315 -279.748046 
L 1058.822315 -279.748046 
L 957.937543 -253.599578 
L 857.05277 -211.956951 
L 756.167997 -139.746864 
z
" id="m510be86b53" style="stroke:#cc78bc;stroke-opacity:0.2;"/>
    </defs>
    <g clip-path="url(#pc644702744)">
     <use style="fill:#cc78bc;fill-opacity:0.2;stroke:#cc78bc;stroke-opacity:0.2;" x="0" xlink:href="#m510be86b53" y="355.896484"/>
    </g>
   </g>
   <g id="PolyCollection_21">
    <defs>
     <path d="M 756.167997 -105.635351 
L 756.167997 -101.205284 
L 857.05277 -110.508424 
L 957.937543 -119.368558 
L 1058.822315 -142.404904 
L 1058.822315 -181.389491 
L 1058.822315 -181.389491 
L 957.937543 -144.176931 
L 857.05277 -133.544771 
L 756.167997 -105.635351 
z
" id="ma80b707170" style="stroke:#ca9161;stroke-opacity:0.2;"/>
    </defs>
    <g clip-path="url(#pc644702744)">
     <use style="fill:#ca9161;fill-opacity:0.2;stroke:#ca9161;stroke-opacity:0.2;" x="0" xlink:href="#ma80b707170" y="355.896484"/>
    </g>
   </g>
   <g id="line2d_56">
    <path clip-path="url(#pc644702744)" d="M 756.167997 251.147147 
L 857.05277 213.49158 
L 957.937543 177.60804 
L 1058.822315 162.98882 
" style="fill:none;stroke:#0173b2;stroke-dasharray:3,3;stroke-dashoffset:0;stroke-width:3;"/>
   </g>
   <g id="line2d_57">
    <path clip-path="url(#pc644702744)" d="M 756.167997 228.553807 
L 857.05277 174.95 
L 957.937543 147.926593 
L 1058.822315 125.333253 
" style="fill:none;stroke:#0173b2;stroke-linecap:round;stroke-width:3;"/>
   </g>
   <g id="line2d_58">
    <path clip-path="url(#pc644702744)" d="M 756.167997 199.315367 
L 857.05277 118.688153 
L 957.937543 77.045527 
L 1058.822315 57.99624 
" style="fill:none;stroke:#0173b2;stroke-dasharray:12,3;stroke-dashoffset:0;stroke-width:3;"/>
   </g>
   <g id="line2d_59">
    <path clip-path="url(#pc644702744)" d="M 756.167997 210.83354 
L 857.05277 157.67274 
L 957.937543 115.587107 
L 1058.822315 83.24762 
" style="fill:none;stroke:#de8f05;stroke-linecap:round;stroke-width:3;"/>
   </g>
   <g id="line2d_60">
    <path clip-path="url(#pc644702744)" d="M 756.167997 233.869887 
L 857.05277 201.087393 
L 957.937543 196.21432 
L 1058.822315 178.494053 
" style="fill:none;stroke:#029e73;stroke-linecap:round;stroke-width:3;"/>
   </g>
   <g id="line2d_61">
    <path clip-path="url(#pc644702744)" d="M 756.167997 225.45276 
L 857.05277 159.444767 
L 957.937543 116.030113 
L 1058.822315 86.348667 
" style="fill:none;stroke:#cc78bc;stroke-linecap:round;stroke-width:3;"/>
   </g>
   <g id="line2d_62">
    <path clip-path="url(#pc644702744)" d="M 756.167997 252.919173 
L 857.05277 235.198907 
L 957.937543 225.009753 
L 1058.822315 194.442293 
" style="fill:none;stroke:#ca9161;stroke-linecap:round;stroke-width:3;"/>
   </g>
   <g id="patch_9">
    <path d="M 741.035281 307.852 
L 741.035281 42.048 
" style="fill:none;stroke:#262626;stroke-linecap:square;stroke-linejoin:miter;stroke-width:1.25;"/>
   </g>
   <g id="patch_10">
    <path d="M 741.035281 307.852 
L 1073.955031 307.852 
" style="fill:none;stroke:#262626;stroke-linecap:square;stroke-linejoin:miter;stroke-width:1.25;"/>
   </g>
   <g id="text_26">
    <!-- p = 50 -->
    <g style="fill:#262626;" transform="translate(885.593 36.048)scale(0.156 -0.156)">
     <use xlink:href="#ArialMT-112"/>
     <use x="55.615234" xlink:href="#ArialMT-32"/>
     <use x="83.398438" xlink:href="#ArialMT-61"/>
     <use x="141.796875" xlink:href="#ArialMT-32"/>
     <use x="169.580078" xlink:href="#ArialMT-53"/>
     <use x="225.195312" xlink:href="#ArialMT-48"/>
    </g>
   </g>
  </g>
  <g id="axes_4">
   <g id="patch_11">
    <path d="M 1079.955031 307.852 
L 1412.874781 307.852 
L 1412.874781 42.048 
L 1079.955031 42.048 
z
" style="fill:#ffffff;"/>
   </g>
   <g id="matplotlib.axis_7">
    <g id="xtick_13">
     <g id="line2d_63">
      <g>
       <use style="fill:#262626;stroke:#262626;stroke-width:1.25;" x="1095.087747" xlink:href="#mc0e187cc68" y="307.852"/>
      </g>
     </g>
     <g id="text_27">
      <!-- 0.3 -->
      <g style="fill:#262626;" transform="translate(1085.149247 327.587672)scale(0.143 -0.143)">
       <use xlink:href="#ArialMT-48"/>
       <use x="55.615234" xlink:href="#ArialMT-46"/>
       <use x="83.398438" xlink:href="#ArialMT-51"/>
      </g>
     </g>
    </g>
    <g id="xtick_14">
     <g id="line2d_64">
      <g>
       <use style="fill:#262626;stroke:#262626;stroke-width:1.25;" x="1195.97252" xlink:href="#mc0e187cc68" y="307.852"/>
      </g>
     </g>
     <g id="text_28">
      <!-- 0.5 -->
      <g style="fill:#262626;" transform="translate(1186.03402 327.587672)scale(0.143 -0.143)">
       <use xlink:href="#ArialMT-48"/>
       <use x="55.615234" xlink:href="#ArialMT-46"/>
       <use x="83.398438" xlink:href="#ArialMT-53"/>
      </g>
     </g>
    </g>
    <g id="xtick_15">
     <g id="line2d_65">
      <g>
       <use style="fill:#262626;stroke:#262626;stroke-width:1.25;" x="1296.857293" xlink:href="#mc0e187cc68" y="307.852"/>
      </g>
     </g>
     <g id="text_29">
      <!-- 0.7 -->
      <g style="fill:#262626;" transform="translate(1286.918793 327.587672)scale(0.143 -0.143)">
       <use xlink:href="#ArialMT-48"/>
       <use x="55.615234" xlink:href="#ArialMT-46"/>
       <use x="83.398438" xlink:href="#ArialMT-55"/>
      </g>
     </g>
    </g>
    <g id="xtick_16">
     <g id="line2d_66">
      <g>
       <use style="fill:#262626;stroke:#262626;stroke-width:1.25;" x="1397.742065" xlink:href="#mc0e187cc68" y="307.852"/>
      </g>
     </g>
     <g id="text_30">
      <!-- 0.9 -->
      <g style="fill:#262626;" transform="translate(1387.803565 327.587672)scale(0.143 -0.143)">
       <use xlink:href="#ArialMT-48"/>
       <use x="55.615234" xlink:href="#ArialMT-46"/>
       <use x="83.398438" xlink:href="#ArialMT-57"/>
      </g>
     </g>
    </g>
    <g id="text_31">
     <!-- Effect size -->
     <g style="fill:#262626;" transform="translate(1210.572688 345.595984)scale(0.156 -0.156)">
      <use xlink:href="#ArialMT-69"/>
      <use x="66.699219" xlink:href="#ArialMT-102"/>
      <use x="92.732422" xlink:href="#ArialMT-102"/>
      <use x="120.515625" xlink:href="#ArialMT-101"/>
      <use x="176.130859" xlink:href="#ArialMT-99"/>
      <use x="226.130859" xlink:href="#ArialMT-116"/>
      <use x="253.914062" xlink:href="#ArialMT-32"/>
      <use x="281.697266" xlink:href="#ArialMT-115"/>
      <use x="331.697266" xlink:href="#ArialMT-105"/>
      <use x="353.914062" xlink:href="#ArialMT-122"/>
      <use x="403.914062" xlink:href="#ArialMT-101"/>
     </g>
    </g>
   </g>
   <g id="matplotlib.axis_8">
    <g id="ytick_22">
     <g id="line2d_67">
      <g>
       <use style="fill:#262626;stroke:#262626;stroke-width:1.25;" x="1079.955031" xlink:href="#m83cc8df766" y="297.21984"/>
      </g>
     </g>
    </g>
    <g id="ytick_23">
     <g id="line2d_68">
      <g>
       <use style="fill:#262626;stroke:#262626;stroke-width:1.25;" x="1079.955031" xlink:href="#m83cc8df766" y="254.6912"/>
      </g>
     </g>
    </g>
    <g id="ytick_24">
     <g id="line2d_69">
      <g>
       <use style="fill:#262626;stroke:#262626;stroke-width:1.25;" x="1079.955031" xlink:href="#m83cc8df766" y="212.16256"/>
      </g>
     </g>
    </g>
    <g id="ytick_25">
     <g id="line2d_70">
      <g>
       <use style="fill:#262626;stroke:#262626;stroke-width:1.25;" x="1079.955031" xlink:href="#m83cc8df766" y="169.63392"/>
      </g>
     </g>
    </g>
    <g id="ytick_26">
     <g id="line2d_71">
      <g>
       <use style="fill:#262626;stroke:#262626;stroke-width:1.25;" x="1079.955031" xlink:href="#m83cc8df766" y="127.10528"/>
      </g>
     </g>
    </g>
    <g id="ytick_27">
     <g id="line2d_72">
      <g>
       <use style="fill:#262626;stroke:#262626;stroke-width:1.25;" x="1079.955031" xlink:href="#m83cc8df766" y="84.57664"/>
      </g>
     </g>
    </g>
    <g id="ytick_28">
     <g id="line2d_73">
      <g>
       <use style="fill:#262626;stroke:#262626;stroke-width:1.25;" x="1079.955031" xlink:href="#m83cc8df766" y="42.048"/>
      </g>
     </g>
    </g>
   </g>
   <g id="PolyCollection_22">
    <defs>
     <path d="M 1095.087747 -101.205284 
L 1095.087747 -101.205284 
L 1195.97252 -101.205284 
L 1296.857293 -102.977311 
L 1397.742065 -126.445589 
L 1397.742065 -158.807226 
L 1397.742065 -158.807226 
L 1296.857293 -118.49362 
L 1195.97252 -111.394438 
L 1095.087747 -101.205284 
z
" id="m570bf786ee" style="stroke:#0173b2;stroke-opacity:0.2;"/>
    </defs>
    <g clip-path="url(#p9be468db98)">
     <use style="fill:#0173b2;fill-opacity:0.2;stroke:#0173b2;stroke-opacity:0.2;" x="0" xlink:href="#m570bf786ee" y="355.896484"/>
    </g>
   </g>
   <g id="PolyCollection_23">
    <defs>
     <path d="M 1095.087747 -106.521364 
L 1095.087747 -101.205284 
L 1195.97252 -118.039538 
L 1296.857293 -153.037064 
L 1397.742065 -167.645209 
L 1397.742065 -206.197864 
L 1397.742065 -206.197864 
L 1296.857293 -192.032726 
L 1195.97252 -145.505951 
L 1095.087747 -106.521364 
z
" id="m5a1f9a2224" style="stroke:#0173b2;stroke-opacity:0.2;"/>
    </defs>
    <g clip-path="url(#p9be468db98)">
     <use style="fill:#0173b2;fill-opacity:0.2;stroke:#0173b2;stroke-opacity:0.2;" x="0" xlink:href="#m5a1f9a2224" y="355.896484"/>
    </g>
   </g>
   <g id="PolyCollection_24">
    <defs>
     <path d="M 1095.087747 -134.430784 
L 1095.087747 -112.280451 
L 1195.97252 -172.075276 
L 1296.857293 -212.842964 
L 1397.742065 -260.687684 
L 1397.742065 -284.610044 
L 1397.742065 -284.610044 
L 1296.857293 -247.851566 
L 1195.97252 -207.53796 
L 1095.087747 -134.430784 
z
" id="m395b2831f9" style="stroke:#0173b2;stroke-opacity:0.2;"/>
    </defs>
    <g clip-path="url(#p9be468db98)">
     <use style="fill:#0173b2;fill-opacity:0.2;stroke:#0173b2;stroke-opacity:0.2;" x="0" xlink:href="#m395b2831f9" y="355.896484"/>
    </g>
   </g>
   <g id="PolyCollection_25">
    <defs>
     <path d="M 1095.087747 -123.355618 
L 1095.087747 -109.179404 
L 1195.97252 -149.493011 
L 1296.857293 -179.174458 
L 1397.742065 -221.692023 
L 1397.742065 -252.72464 
L 1397.742065 -252.72464 
L 1296.857293 -214.614991 
L 1195.97252 -179.617464 
L 1095.087747 -123.355618 
z
" id="m714dc41a79" style="stroke:#de8f05;stroke-opacity:0.2;"/>
    </defs>
    <g clip-path="url(#p9be468db98)">
     <use style="fill:#de8f05;fill-opacity:0.2;stroke:#de8f05;stroke-opacity:0.2;" x="0" xlink:href="#m714dc41a79" y="355.896484"/>
    </g>
   </g>
   <g id="PolyCollection_26">
    <defs>
     <path d="M 1095.087747 -118.49362 
L 1095.087747 -106.521364 
L 1195.97252 -133.987778 
L 1296.857293 -151.265038 
L 1397.742065 -168.985304 
L 1397.742065 -206.20894 
L 1397.742065 -206.20894 
L 1296.857293 -183.161518 
L 1195.97252 -158.796151 
L 1095.087747 -118.49362 
z
" id="m091e588d8b" style="stroke:#029e73;stroke-opacity:0.2;"/>
    </defs>
    <g clip-path="url(#p9be468db98)">
     <use style="fill:#029e73;fill-opacity:0.2;stroke:#029e73;stroke-opacity:0.2;" x="0" xlink:href="#m091e588d8b" y="355.896484"/>
    </g>
   </g>
   <g id="PolyCollection_27">
    <defs>
     <path d="M 1095.087747 -120.254571 
L 1095.087747 -110.065418 
L 1195.97252 -149.936018 
L 1296.857293 -186.251489 
L 1397.742065 -215.501004 
L 1397.742065 -246.068464 
L 1397.742065 -246.068464 
L 1296.857293 -216.830024 
L 1195.97252 -172.529358 
L 1095.087747 -120.254571 
z
" id="m20b1365a13" style="stroke:#cc78bc;stroke-opacity:0.2;"/>
    </defs>
    <g clip-path="url(#p9be468db98)">
     <use style="fill:#cc78bc;fill-opacity:0.2;stroke:#cc78bc;stroke-opacity:0.2;" x="0" xlink:href="#m20b1365a13" y="355.896484"/>
    </g>
   </g>
   <g id="PolyCollection_28">
    <defs>
     <path d="M 1095.087747 -101.205284 
L 1095.087747 -101.205284 
L 1195.97252 -101.205284 
L 1296.857293 -103.863324 
L 1397.742065 -111.394438 
L 1397.742065 -132.658758 
L 1397.742065 -132.658758 
L 1296.857293 -118.925551 
L 1195.97252 -110.065418 
L 1095.087747 -101.205284 
z
" id="m19c3726087" style="stroke:#ca9161;stroke-opacity:0.2;"/>
    </defs>
    <g clip-path="url(#p9be468db98)">
     <use style="fill:#ca9161;fill-opacity:0.2;stroke:#ca9161;stroke-opacity:0.2;" x="0" xlink:href="#m19c3726087" y="355.896484"/>
    </g>
   </g>
   <g id="line2d_74">
    <path clip-path="url(#p9be468db98)" d="M 1095.087747 254.6912 
L 1195.97252 250.70414 
L 1296.857293 245.38806 
L 1397.742065 213.49158 
" style="fill:none;stroke:#0173b2;stroke-dasharray:3,3;stroke-dashoffset:0;stroke-width:3;"/>
   </g>
   <g id="line2d_75">
    <path clip-path="url(#p9be468db98)" d="M 1095.087747 252.919173 
L 1195.97252 224.12374 
L 1296.857293 183.810133 
L 1397.742065 168.747907 
" style="fill:none;stroke:#0173b2;stroke-linecap:round;stroke-width:3;"/>
   </g>
   <g id="line2d_76">
    <path clip-path="url(#p9be468db98)" d="M 1095.087747 232.983873 
L 1195.97252 165.64686 
L 1296.857293 125.77626 
L 1397.742065 82.361607 
" style="fill:none;stroke:#0173b2;stroke-dasharray:12,3;stroke-dashoffset:0;stroke-width:3;"/>
   </g>
   <g id="line2d_77">
    <path clip-path="url(#p9be468db98)" d="M 1095.087747 240.07198 
L 1195.97252 191.341247 
L 1296.857293 159.444767 
L 1397.742065 118.688153 
" style="fill:none;stroke:#de8f05;stroke-linecap:round;stroke-width:3;"/>
   </g>
   <g id="line2d_78">
    <path clip-path="url(#p9be468db98)" d="M 1095.087747 243.616033 
L 1195.97252 209.50452 
L 1296.857293 188.683207 
L 1397.742065 167.861893 
" style="fill:none;stroke:#029e73;stroke-linecap:round;stroke-width:3;"/>
   </g>
   <g id="line2d_79">
    <path clip-path="url(#p9be468db98)" d="M 1095.087747 240.957993 
L 1195.97252 194.442293 
L 1296.857293 154.571693 
L 1397.742065 124.890247 
" style="fill:none;stroke:#cc78bc;stroke-linecap:round;stroke-width:3;"/>
   </g>
   <g id="line2d_80">
    <path clip-path="url(#p9be468db98)" d="M 1095.087747 254.6912 
L 1195.97252 251.147147 
L 1296.857293 244.945053 
L 1397.742065 234.7559 
" style="fill:none;stroke:#ca9161;stroke-linecap:round;stroke-width:3;"/>
   </g>
   <g id="patch_12">
    <path d="M 1079.955031 307.852 
L 1079.955031 42.048 
" style="fill:none;stroke:#262626;stroke-linecap:square;stroke-linejoin:miter;stroke-width:1.25;"/>
   </g>
   <g id="patch_13">
    <path d="M 1079.955031 307.852 
L 1412.874781 307.852 
" style="fill:none;stroke:#262626;stroke-linecap:square;stroke-linejoin:miter;stroke-width:1.25;"/>
   </g>
   <g id="text_32">
    <!-- p = 100 -->
    <g style="fill:#262626;" transform="translate(1220.175219 36.048)scale(0.156 -0.156)">
     <use xlink:href="#ArialMT-112"/>
     <use x="55.615234" xlink:href="#ArialMT-32"/>
     <use x="83.398438" xlink:href="#ArialMT-61"/>
     <use x="141.796875" xlink:href="#ArialMT-32"/>
     <use x="169.580078" xlink:href="#ArialMT-49"/>
     <use x="225.195312" xlink:href="#ArialMT-48"/>
     <use x="280.810547" xlink:href="#ArialMT-48"/>
    </g>
   </g>
  </g>
  <g id="legend_1">
   <g id="patch_14">
    <path d="M 1461.382781 214.561172 
L 1584.997344 214.561172 
Q 1587.857344 214.561172 1587.857344 211.701172 
L 1587.857344 10.06 
Q 1587.857344 7.2 1584.997344 7.2 
L 1461.382781 7.2 
Q 1458.522781 7.2 1458.522781 10.06 
L 1458.522781 211.701172 
Q 1458.522781 214.561172 1461.382781 214.561172 
z
" style="fill:#ffffff;opacity:0.8;stroke:#cccccc;stroke-linejoin:miter;"/>
   </g>
   <g id="text_33">
    <!-- Model -->
    <g style="fill:#262626;" transform="translate(1504.282781 23.155672)scale(0.143 -0.143)">
     <defs>
      <path d="M 7.421875 0 
L 7.421875 71.578125 
L 21.6875 71.578125 
L 38.625 20.90625 
Q 40.96875 13.8125 42.046875 10.296875 
Q 43.265625 14.203125 45.84375 21.78125 
L 62.984375 71.578125 
L 75.734375 71.578125 
L 75.734375 0 
L 66.609375 0 
L 66.609375 59.90625 
L 45.796875 0 
L 37.25 0 
L 16.546875 60.9375 
L 16.546875 0 
z
" id="ArialMT-77"/>
      <path d="M 3.328125 25.921875 
Q 3.328125 40.328125 11.328125 47.265625 
Q 18.015625 53.03125 27.640625 53.03125 
Q 38.328125 53.03125 45.109375 46.015625 
Q 51.90625 39.015625 51.90625 26.65625 
Q 51.90625 16.65625 48.90625 10.90625 
Q 45.90625 5.171875 40.15625 2 
Q 34.421875 -1.171875 27.640625 -1.171875 
Q 16.75 -1.171875 10.03125 5.8125 
Q 3.328125 12.796875 3.328125 25.921875 
z
M 12.359375 25.921875 
Q 12.359375 15.96875 16.703125 11.015625 
Q 21.046875 6.0625 27.640625 6.0625 
Q 34.1875 6.0625 38.53125 11.03125 
Q 42.875 16.015625 42.875 26.21875 
Q 42.875 35.84375 38.5 40.796875 
Q 34.125 45.75 27.640625 45.75 
Q 21.046875 45.75 16.703125 40.8125 
Q 12.359375 35.890625 12.359375 25.921875 
z
" id="ArialMT-111"/>
      <path d="M 40.234375 0 
L 40.234375 6.546875 
Q 35.296875 -1.171875 25.734375 -1.171875 
Q 19.53125 -1.171875 14.328125 2.25 
Q 9.125 5.671875 6.265625 11.796875 
Q 3.421875 17.921875 3.421875 25.875 
Q 3.421875 33.640625 6 39.96875 
Q 8.59375 46.296875 13.765625 49.65625 
Q 18.953125 53.03125 25.34375 53.03125 
Q 30.03125 53.03125 33.6875 51.046875 
Q 37.359375 49.078125 39.65625 45.90625 
L 39.65625 71.578125 
L 48.390625 71.578125 
L 48.390625 0 
z
M 12.453125 25.875 
Q 12.453125 15.921875 16.640625 10.984375 
Q 20.84375 6.0625 26.5625 6.0625 
Q 32.328125 6.0625 36.34375 10.765625 
Q 40.375 15.484375 40.375 25.140625 
Q 40.375 35.796875 36.265625 40.765625 
Q 32.171875 45.75 26.171875 45.75 
Q 20.3125 45.75 16.375 40.96875 
Q 12.453125 36.1875 12.453125 25.875 
z
" id="ArialMT-100"/>
      <path d="M 6.390625 0 
L 6.390625 71.578125 
L 15.1875 71.578125 
L 15.1875 0 
z
" id="ArialMT-108"/>
     </defs>
     <use xlink:href="#ArialMT-77"/>
     <use x="83.300781" xlink:href="#ArialMT-111"/>
     <use x="138.916016" xlink:href="#ArialMT-100"/>
     <use x="194.53125" xlink:href="#ArialMT-101"/>
     <use x="250.146484" xlink:href="#ArialMT-108"/>
    </g>
   </g>
   <g id="line2d_81">
    <path d="M 1464.242781 38.378469 
L 1492.842781 38.378469 
" style="fill:none;stroke:#0173b2;stroke-linecap:round;stroke-width:1.5;"/>
   </g>
   <g id="line2d_82"/>
   <g id="text_34">
    <!-- tascCODA -->
    <g style="fill:#262626;" transform="translate(1504.282781 43.383469)scale(0.143 -0.143)">
     <defs>
      <path d="M 40.4375 6.390625 
Q 35.546875 2.25 31.03125 0.53125 
Q 26.515625 -1.171875 21.34375 -1.171875 
Q 12.796875 -1.171875 8.203125 3 
Q 3.609375 7.171875 3.609375 13.671875 
Q 3.609375 17.484375 5.34375 20.625 
Q 7.078125 23.78125 9.890625 25.6875 
Q 12.703125 27.59375 16.21875 28.5625 
Q 18.796875 29.25 24.03125 29.890625 
Q 34.671875 31.15625 39.703125 32.90625 
Q 39.75 34.71875 39.75 35.203125 
Q 39.75 40.578125 37.25 42.78125 
Q 33.890625 45.75 27.25 45.75 
Q 21.046875 45.75 18.09375 43.578125 
Q 15.140625 41.40625 13.71875 35.890625 
L 5.125 37.0625 
Q 6.296875 42.578125 8.984375 45.96875 
Q 11.671875 49.359375 16.75 51.1875 
Q 21.828125 53.03125 28.515625 53.03125 
Q 35.15625 53.03125 39.296875 51.46875 
Q 43.453125 49.90625 45.40625 47.53125 
Q 47.359375 45.171875 48.140625 41.546875 
Q 48.578125 39.3125 48.578125 33.453125 
L 48.578125 21.734375 
Q 48.578125 9.46875 49.140625 6.21875 
Q 49.703125 2.984375 51.375 0 
L 42.1875 0 
Q 40.828125 2.734375 40.4375 6.390625 
z
M 39.703125 26.03125 
Q 34.90625 24.078125 25.34375 22.703125 
Q 19.921875 21.921875 17.671875 20.9375 
Q 15.4375 19.96875 14.203125 18.09375 
Q 12.984375 16.21875 12.984375 13.921875 
Q 12.984375 10.40625 15.640625 8.0625 
Q 18.3125 5.71875 23.4375 5.71875 
Q 28.515625 5.71875 32.46875 7.9375 
Q 36.421875 10.15625 38.28125 14.015625 
Q 39.703125 17 39.703125 22.796875 
z
" id="ArialMT-97"/>
      <path d="M 58.796875 25.09375 
L 68.265625 22.703125 
Q 65.28125 11.03125 57.546875 4.90625 
Q 49.8125 -1.21875 38.625 -1.21875 
Q 27.046875 -1.21875 19.796875 3.484375 
Q 12.546875 8.203125 8.765625 17.140625 
Q 4.984375 26.078125 4.984375 36.328125 
Q 4.984375 47.515625 9.25 55.828125 
Q 13.53125 64.15625 21.40625 68.46875 
Q 29.296875 72.796875 38.765625 72.796875 
Q 49.515625 72.796875 56.828125 67.328125 
Q 64.15625 61.859375 67.046875 51.953125 
L 57.71875 49.75 
Q 55.21875 57.5625 50.484375 61.125 
Q 45.75 64.703125 38.578125 64.703125 
Q 30.328125 64.703125 24.78125 60.734375 
Q 19.234375 56.78125 16.984375 50.109375 
Q 14.75 43.453125 14.75 36.375 
Q 14.75 27.25 17.40625 20.4375 
Q 20.0625 13.625 25.671875 10.25 
Q 31.296875 6.890625 37.84375 6.890625 
Q 45.796875 6.890625 51.3125 11.46875 
Q 56.84375 16.0625 58.796875 25.09375 
z
" id="ArialMT-67"/>
      <path d="M 4.828125 34.859375 
Q 4.828125 52.6875 14.390625 62.765625 
Q 23.96875 72.859375 39.109375 72.859375 
Q 49.03125 72.859375 56.984375 68.109375 
Q 64.9375 63.375 69.109375 54.90625 
Q 73.296875 46.4375 73.296875 35.6875 
Q 73.296875 24.8125 68.890625 16.21875 
Q 64.5 7.625 56.4375 3.203125 
Q 48.390625 -1.21875 39.0625 -1.21875 
Q 28.953125 -1.21875 20.984375 3.65625 
Q 13.03125 8.546875 8.921875 16.984375 
Q 4.828125 25.4375 4.828125 34.859375 
z
M 14.59375 34.71875 
Q 14.59375 21.78125 21.546875 14.328125 
Q 28.515625 6.890625 39.015625 6.890625 
Q 49.703125 6.890625 56.609375 14.40625 
Q 63.53125 21.921875 63.53125 35.75 
Q 63.53125 44.484375 60.578125 51 
Q 57.625 57.515625 51.921875 61.109375 
Q 46.234375 64.703125 39.15625 64.703125 
Q 29.109375 64.703125 21.84375 57.78125 
Q 14.59375 50.875 14.59375 34.71875 
z
" id="ArialMT-79"/>
      <path d="M 7.71875 0 
L 7.71875 71.578125 
L 32.375 71.578125 
Q 40.71875 71.578125 45.125 70.5625 
Q 51.265625 69.140625 55.609375 65.4375 
Q 61.28125 60.640625 64.078125 53.1875 
Q 66.890625 45.75 66.890625 36.1875 
Q 66.890625 28.03125 64.984375 21.734375 
Q 63.09375 15.4375 60.109375 11.296875 
Q 57.125 7.171875 53.578125 4.796875 
Q 50.046875 2.4375 45.046875 1.21875 
Q 40.046875 0 33.546875 0 
z
M 17.1875 8.453125 
L 32.46875 8.453125 
Q 39.546875 8.453125 43.578125 9.765625 
Q 47.609375 11.078125 50 13.484375 
Q 53.375 16.84375 55.25 22.53125 
Q 57.125 28.21875 57.125 36.328125 
Q 57.125 47.5625 53.4375 53.59375 
Q 49.75 59.625 44.484375 61.671875 
Q 40.671875 63.140625 32.234375 63.140625 
L 17.1875 63.140625 
z
" id="ArialMT-68"/>
      <path d="M -0.140625 0 
L 27.34375 71.578125 
L 37.546875 71.578125 
L 66.84375 0 
L 56.0625 0 
L 47.703125 21.6875 
L 17.78125 21.6875 
L 9.90625 0 
z
M 20.515625 29.390625 
L 44.78125 29.390625 
L 37.3125 49.21875 
Q 33.890625 58.25 32.234375 64.0625 
Q 30.859375 57.171875 28.375 50.390625 
z
" id="ArialMT-65"/>
     </defs>
     <use xlink:href="#ArialMT-116"/>
     <use x="27.783203" xlink:href="#ArialMT-97"/>
     <use x="83.398438" xlink:href="#ArialMT-115"/>
     <use x="133.398438" xlink:href="#ArialMT-99"/>
     <use x="183.398438" xlink:href="#ArialMT-67"/>
     <use x="255.615234" xlink:href="#ArialMT-79"/>
     <use x="333.398438" xlink:href="#ArialMT-68"/>
     <use x="405.615234" xlink:href="#ArialMT-65"/>
    </g>
   </g>
   <g id="line2d_83">
    <path d="M 1464.242781 58.606266 
L 1492.842781 58.606266 
" style="fill:none;stroke:#de8f05;stroke-linecap:round;stroke-width:1.5;"/>
   </g>
   <g id="line2d_84"/>
   <g id="text_35">
    <!-- scCODA -->
    <g style="fill:#262626;" transform="translate(1504.282781 63.611266)scale(0.143 -0.143)">
     <use xlink:href="#ArialMT-115"/>
     <use x="50" xlink:href="#ArialMT-99"/>
     <use x="100" xlink:href="#ArialMT-67"/>
     <use x="172.216797" xlink:href="#ArialMT-79"/>
     <use x="250" xlink:href="#ArialMT-68"/>
     <use x="322.216797" xlink:href="#ArialMT-65"/>
    </g>
   </g>
   <g id="line2d_85">
    <path d="M 1464.242781 78.834063 
L 1492.842781 78.834063 
" style="fill:none;stroke:#029e73;stroke-linecap:round;stroke-width:1.5;"/>
   </g>
   <g id="line2d_86"/>
   <g id="text_36">
    <!-- adaANCOM -->
    <g style="fill:#262626;" transform="translate(1504.282781 83.839063)scale(0.143 -0.143)">
     <defs>
      <path d="M 7.625 0 
L 7.625 71.578125 
L 17.328125 71.578125 
L 54.9375 15.375 
L 54.9375 71.578125 
L 64.015625 71.578125 
L 64.015625 0 
L 54.296875 0 
L 16.703125 56.25 
L 16.703125 0 
z
" id="ArialMT-78"/>
     </defs>
     <use xlink:href="#ArialMT-97"/>
     <use x="55.615234" xlink:href="#ArialMT-100"/>
     <use x="111.230469" xlink:href="#ArialMT-97"/>
     <use x="166.845703" xlink:href="#ArialMT-65"/>
     <use x="233.544922" xlink:href="#ArialMT-78"/>
     <use x="305.761719" xlink:href="#ArialMT-67"/>
     <use x="377.978516" xlink:href="#ArialMT-79"/>
     <use x="455.761719" xlink:href="#ArialMT-77"/>
    </g>
   </g>
   <g id="line2d_87">
    <path d="M 1464.242781 99.061859 
L 1492.842781 99.061859 
" style="fill:none;stroke:#cc78bc;stroke-linecap:round;stroke-width:1.5;"/>
   </g>
   <g id="line2d_88"/>
   <g id="text_37">
    <!-- ANCOM-BC -->
    <g style="fill:#262626;" transform="translate(1504.282781 104.066859)scale(0.143 -0.143)">
     <defs>
      <path d="M 3.171875 21.484375 
L 3.171875 30.328125 
L 30.171875 30.328125 
L 30.171875 21.484375 
z
" id="ArialMT-45"/>
      <path d="M 7.328125 0 
L 7.328125 71.578125 
L 34.1875 71.578125 
Q 42.390625 71.578125 47.34375 69.40625 
Q 52.296875 67.234375 55.09375 62.71875 
Q 57.90625 58.203125 57.90625 53.265625 
Q 57.90625 48.6875 55.421875 44.625 
Q 52.9375 40.578125 47.90625 38.09375 
Q 54.390625 36.1875 57.875 31.59375 
Q 61.375 27 61.375 20.75 
Q 61.375 15.71875 59.25 11.390625 
Q 57.125 7.078125 54 4.734375 
Q 50.875 2.390625 46.15625 1.1875 
Q 41.453125 0 34.625 0 
z
M 16.796875 41.5 
L 32.28125 41.5 
Q 38.578125 41.5 41.3125 42.328125 
Q 44.921875 43.40625 46.75 45.890625 
Q 48.578125 48.390625 48.578125 52.15625 
Q 48.578125 55.71875 46.875 58.421875 
Q 45.171875 61.140625 41.984375 62.140625 
Q 38.8125 63.140625 31.109375 63.140625 
L 16.796875 63.140625 
z
M 16.796875 8.453125 
L 34.625 8.453125 
Q 39.203125 8.453125 41.0625 8.796875 
Q 44.34375 9.375 46.53125 10.734375 
Q 48.734375 12.109375 50.140625 14.71875 
Q 51.5625 17.328125 51.5625 20.75 
Q 51.5625 24.75 49.515625 27.703125 
Q 47.46875 30.671875 43.828125 31.859375 
Q 40.1875 33.0625 33.34375 33.0625 
L 16.796875 33.0625 
z
" id="ArialMT-66"/>
     </defs>
     <use xlink:href="#ArialMT-65"/>
     <use x="66.699219" xlink:href="#ArialMT-78"/>
     <use x="138.916016" xlink:href="#ArialMT-67"/>
     <use x="211.132812" xlink:href="#ArialMT-79"/>
     <use x="288.916016" xlink:href="#ArialMT-77"/>
     <use x="372.216797" xlink:href="#ArialMT-45"/>
     <use x="405.517578" xlink:href="#ArialMT-66"/>
     <use x="472.216797" xlink:href="#ArialMT-67"/>
    </g>
   </g>
   <g id="line2d_89">
    <path d="M 1464.242781 119.289656 
L 1492.842781 119.289656 
" style="fill:none;stroke:#ca9161;stroke-linecap:round;stroke-width:1.5;"/>
   </g>
   <g id="line2d_90"/>
   <g id="text_38">
    <!-- ALDEx2 -->
    <g style="fill:#262626;" transform="translate(1504.282781 124.294656)scale(0.143 -0.143)">
     <defs>
      <path d="M 7.328125 0 
L 7.328125 71.578125 
L 16.796875 71.578125 
L 16.796875 8.453125 
L 52.046875 8.453125 
L 52.046875 0 
z
" id="ArialMT-76"/>
      <path d="M 0.734375 0 
L 19.671875 26.953125 
L 2.15625 51.859375 
L 13.140625 51.859375 
L 21.09375 39.703125 
Q 23.34375 36.234375 24.703125 33.890625 
Q 26.859375 37.109375 28.65625 39.59375 
L 37.40625 51.859375 
L 47.90625 51.859375 
L 29.984375 27.4375 
L 49.265625 0 
L 38.484375 0 
L 27.828125 16.109375 
L 25 20.453125 
L 11.375 0 
z
" id="ArialMT-120"/>
     </defs>
     <use xlink:href="#ArialMT-65"/>
     <use x="66.699219" xlink:href="#ArialMT-76"/>
     <use x="122.314453" xlink:href="#ArialMT-68"/>
     <use x="194.53125" xlink:href="#ArialMT-69"/>
     <use x="261.230469" xlink:href="#ArialMT-120"/>
     <use x="311.230469" xlink:href="#ArialMT-50"/>
    </g>
   </g>
   <g id="text_39">
    <!-- $\phi$ -->
    <g style="fill:#262626;" transform="translate(1504.282781 145.154781)scale(0.143 -0.143)">
     <defs>
      <path d="M 46.734375 75.984375 
L 42.78125 55.8125 
Q 52.546875 55.8125 57.5625 48.34375 
Q 62.75 40.71875 60.15625 27.296875 
Q 57.515625 13.875 49.359375 6.25 
Q 41.453125 -1.21875 31.6875 -1.21875 
L 27.875 -20.796875 
L 18.953125 -20.796875 
L 22.75 -1.21875 
Q 13.03125 -1.21875 7.953125 6.25 
Q 2.78125 13.875 5.421875 27.296875 
Q 8.015625 40.71875 16.15625 48.34375 
Q 24.125 55.8125 33.84375 55.8125 
L 37.796875 75.984375 
z
M 33.25 6.78125 
Q 38.765625 6.78125 43.5 11.8125 
Q 48.6875 17.4375 50.6875 27.296875 
Q 52.640625 37.0625 49.515625 42.78125 
Q 46.734375 47.796875 41.21875 47.796875 
z
M 24.3125 6.78125 
L 32.28125 47.796875 
Q 26.8125 47.796875 22.078125 42.78125 
Q 16.75 37.0625 14.890625 27.296875 
Q 13.03125 17.4375 16.0625 11.8125 
Q 18.796875 6.78125 24.3125 6.78125 
z
" id="DejaVuSans-Oblique-981"/>
     </defs>
     <use transform="translate(0 0.015625)" xlink:href="#DejaVuSans-Oblique-981"/>
    </g>
   </g>
   <g id="line2d_91">
    <path d="M 1464.242781 160.538453 
L 1492.842781 160.538453 
" style="fill:none;stroke:#333333;stroke-dasharray:1.5,1.5;stroke-dashoffset:0;stroke-width:1.5;"/>
   </g>
   <g id="line2d_92"/>
   <g id="text_40">
    <!-- -5 -->
    <g style="fill:#262626;" transform="translate(1504.282781 165.543453)scale(0.143 -0.143)">
     <use xlink:href="#ArialMT-45"/>
     <use x="33.300781" xlink:href="#ArialMT-53"/>
    </g>
   </g>
   <g id="line2d_93">
    <path d="M 1464.242781 180.76625 
L 1492.842781 180.76625 
" style="fill:none;stroke:#333333;stroke-linecap:round;stroke-width:1.5;"/>
   </g>
   <g id="line2d_94"/>
   <g id="text_41">
    <!-- 0 -->
    <g style="fill:#262626;" transform="translate(1504.282781 185.77125)scale(0.143 -0.143)">
     <use xlink:href="#ArialMT-48"/>
    </g>
   </g>
   <g id="line2d_95">
    <path d="M 1464.242781 200.994047 
L 1492.842781 200.994047 
" style="fill:none;stroke:#333333;stroke-dasharray:6,1.5;stroke-dashoffset:0;stroke-width:1.5;"/>
   </g>
   <g id="line2d_96"/>
   <g id="text_42">
    <!-- 5 -->
    <g style="fill:#262626;" transform="translate(1504.282781 205.999047)scale(0.143 -0.143)">
     <use xlink:href="#ArialMT-53"/>
    </g>
   </g>
  </g>
 </g>
 <defs>
  <clipPath id="p8a415106bf">
   <rect height="265.804" width="332.91975" x="63.195781" y="42.048"/>
  </clipPath>
  <clipPath id="pcf855af3d0">
   <rect height="265.804" width="332.91975" x="402.115531" y="42.048"/>
  </clipPath>
  <clipPath id="pc644702744">
   <rect height="265.804" width="332.91975" x="741.035281" y="42.048"/>
  </clipPath>
  <clipPath id="p9be468db98">
   <rect height="265.804" width="332.91975" x="1079.955031" y="42.048"/>
  </clipPath>
 </defs>
</svg>
