<svg class="toyplot-canvas-Canvas" xmlns:toyplot="http://www.sandia.gov/toyplot" xmlns:xlink="http://www.w3.org/1999/xlink" xmlns="http://www.w3.org/2000/svg" width="1000.0px" height="1000.0px" viewBox="0 0 1000.0 1000.0" preserveAspectRatio="xMidYMid meet" style="background-color:transparent;border-color:#292724;border-style:none;border-width:1.0;fill:rgb(16.1%,15.3%,14.1%);fill-opacity:1.0;font-family:Helvetica;font-size:12px;opacity:1.0;stroke:rgb(16.1%,15.3%,14.1%);stroke-opacity:1.0;stroke-width:1.0" id="t9f3a507f10c44754bb01ea50c4b7b091"><g class="toyplot-coordinates-Cartesian" id="tde09d32c55e043baad31634d77a515e1"><clipPath id="t00d7275992774e15b283dc4d1e380350"><rect x="30.0" y="30.0" width="790.0" height="790.0" /></clipPath><g clip-path="url(#t00d7275992774e15b283dc4d1e380350)"><g class="toytree-mark-Toytree" id="t630a05747258451789aed1d4c57b5511"><g class="toytree-Edges" style="fill:none;stroke:rgb(14.9%,14.9%,14.9%);stroke-linecap:round;stroke-opacity:1;stroke-width:3"><path d="M 456.4 475.5 L 425.0 425.0 A -0.0 -0.0 0 0 0 425.0 425.0" id="150,149" style="stroke:rgb(0%,0%,0%);stroke-opacity:1.0" /><path d="M 543.6 433.2 L 484.3 429.1 A 59.4 59.4 0 0 1 456.4 475.5" id="149,148" style="stroke:rgb(100%,49.8%,0%);stroke-opacity:1.0" /><path d="M 540.6 452.4 L 482.8 438.7 A 59.4 59.4 0 0 1 456.4 475.5" id="149,147" style="stroke:rgb(21.6%,49.4%,72.2%);stroke-opacity:1.0" /><path d="M 518.3 498.6 L 471.7 461.8 A 59.4 59.4 0 0 1 456.4 475.5" id="149,146" style="stroke:rgb(59.6%,30.6%,63.9%);stroke-opacity:1.0" /><path d="M 454.8 540.1 L 439.9 482.5 A 59.4 59.4 0 0 0 456.4 475.5" id="149,145" style="stroke:rgb(30.2%,68.6%,29%);stroke-opacity:1.0" /><path d="M 313.7 466.7 L 369.3 445.8 A 59.4 59.4 0 0 0 456.4 475.5" id="149,144" style="stroke:rgb(89.4%,10.2%,11%);stroke-opacity:1.0" /><path d="M 602.8 437.3 L 543.6 433.2 A 118.8 118.8 0 0 1 543.6 433.2" id="148,143" style="stroke:rgb(100%,49.8%,0%);stroke-opacity:1.0" /><path d="M 598.5 466.2 L 540.6 452.4 A 118.8 118.8 0 0 1 540.6 452.4" id="147,142" style="stroke:rgb(21.6%,49.4%,72.2%);stroke-opacity:1.0" /><path d="M 565.0 535.3 L 518.3 498.6 A 118.8 118.8 0 0 1 518.3 498.6" id="146,141" style="stroke:rgb(59.6%,30.6%,63.9%);stroke-opacity:1.0" /><path d="M 469.7 597.6 L 454.8 540.1 A 118.8 118.8 0 0 1 454.8 540.1" id="145,140" style="stroke:rgb(30.2%,68.6%,29%);stroke-opacity:1.0" /><path d="M 342.2 582.8 L 369.8 530.2 A 118.8 118.8 0 0 1 313.7 466.7" id="144,139" style="stroke:rgb(89.4%,10.2%,11%);stroke-opacity:1.0" /><path d="M 277.4 525.0 L 326.6 491.7 A 118.8 118.8 0 0 1 313.7 466.7" id="144,138" style="stroke:rgb(89.4%,10.2%,11%);stroke-opacity:1.0" /><path d="M 278.7 323.1 L 327.5 357.1 A 118.8 118.8 0 0 0 313.7 466.7" id="144,137" style="stroke:rgb(89.4%,10.2%,11%);stroke-opacity:1.0" /><path d="M 662.1 441.4 L 602.8 437.3 A 178.3 178.3 0 0 1 602.8 437.3" id="143,136" style="stroke:rgb(100%,49.8%,0%);stroke-opacity:1.0" /><path d="M 660.4 457.7 L 601.6 449.5 A 178.3 178.3 0 0 1 598.5 466.2" id="142,135" style="stroke:rgb(21.6%,49.4%,72.2%);stroke-opacity:1.0" /><path d="M 650.0 501.6 L 593.8 482.4 A 178.3 178.3 0 0 0 598.5 466.2" id="142,134" style="stroke:rgb(21.6%,49.4%,72.2%);stroke-opacity:1.0" /><path d="M 611.7 572.1 L 565.0 535.3 A 178.3 178.3 0 0 1 565.0 535.3" id="141,133" style="stroke:rgb(59.6%,30.6%,63.9%);stroke-opacity:1.0" /><path d="M 484.5 655.1 L 469.7 597.6 A 178.3 178.3 0 0 1 469.7 597.6" id="140,132" style="stroke:rgb(30.2%,68.6%,29%);stroke-opacity:1.0" /><path d="M 333.1 644.2 L 356.1 589.4 A 178.3 178.3 0 0 1 342.2 582.8" id="139,131" style="stroke:rgb(89.4%,10.2%,11%);stroke-opacity:1.0" /><path d="M 296.8 625.2 L 328.9 575.1 A 178.3 178.3 0 0 0 342.2 582.8" id="139,130" style="stroke:rgb(89.4%,10.2%,11%);stroke-opacity:1.0" /><path d="M 258.4 594.5 L 300.0 552.1 A 178.3 178.3 0 0 1 277.4 525.0" id="138,129" style="stroke:rgb(89.4%,10.2%,11%);stroke-opacity:1.0" /><path d="M 205.8 516.9 L 260.6 493.9 A 178.3 178.3 0 0 0 277.4 525.0" id="138,128" style="stroke:rgb(89.4%,10.2%,11%);stroke-opacity:1.0" /><path d="M 187.4 433.2 L 246.8 431.2 A 178.3 178.3 0 0 1 278.7 323.1" id="137,127" style="stroke:rgb(89.4%,10.2%,11%);stroke-opacity:1.0" /><path d="M 187.4 416.8 L 246.8 418.8 A 178.3 178.3 0 0 1 278.7 323.1" id="137,126" style="stroke:rgb(89.4%,10.2%,11%);stroke-opacity:1.0" /><path d="M 188.6 400.4 L 247.7 406.6 A 178.3 178.3 0 0 1 278.7 323.1" id="137,125" style="stroke:rgb(89.4%,10.2%,11%);stroke-opacity:1.0" /><path d="M 192.4 376.1 L 250.5 388.3 A 178.3 178.3 0 0 1 278.7 323.1" id="137,124" style="stroke:rgb(89.4%,10.2%,11%);stroke-opacity:1.0" /><path d="M 204.2 336.9 L 259.4 358.9 A 178.3 178.3 0 0 1 278.7 323.1" id="137,123" style="stroke:rgb(89.4%,10.2%,11%);stroke-opacity:1.0" /><path d="M 340.7 202.8 L 361.8 258.3 A 178.3 178.3 0 0 0 278.7 323.1" id="137,122" style="stroke:rgb(89.4%,10.2%,11%);stroke-opacity:1.0" /><path d="M 593.6 257.4 L 551.4 299.3 A 178.3 178.3 0 0 0 278.7 323.1" id="137,121" style="stroke:rgb(89.4%,10.2%,11%);stroke-opacity:1.0" /><path d="M 721.4 445.5 L 662.1 441.4 A 237.7 237.7 0 0 1 662.1 441.4" id="136,120" style="stroke:rgb(100%,49.8%,0%);stroke-opacity:1.0" /><path d="M 719.3 465.9 L 660.4 457.7 A 237.7 237.7 0 0 1 660.4 457.7" id="135,119" style="stroke:rgb(21.6%,49.4%,72.2%);stroke-opacity:1.0" /><path d="M 713.5 496.1 L 655.8 481.9 A 237.7 237.7 0 0 1 650.0 501.6" id="134,118" style="stroke:rgb(21.6%,49.4%,72.2%);stroke-opacity:1.0" /><path d="M 697.0 544.6 L 642.6 520.7 A 237.7 237.7 0 0 0 650.0 501.6" id="134,117" style="stroke:rgb(21.6%,49.4%,72.2%);stroke-opacity:1.0" /><path d="M 677.9 580.9 L 627.3 549.7 A 237.7 237.7 0 0 1 611.7 572.1" id="133,116" style="stroke:rgb(59.6%,30.6%,63.9%);stroke-opacity:1.0" /><path d="M 666.6 598.0 L 618.3 563.4 A 237.7 237.7 0 0 1 611.7 572.1" id="133,115" style="stroke:rgb(59.6%,30.6%,63.9%);stroke-opacity:1.0" /><path d="M 625.8 644.0 L 585.7 600.2 A 237.7 237.7 0 0 0 611.7 572.1" id="133,114" style="stroke:rgb(59.6%,30.6%,63.9%);stroke-opacity:1.0" /><path d="M 576.5 680.6 L 546.2 629.5 A 237.7 237.7 0 0 1 484.5 655.1" id="132,113" style="stroke:rgb(30.2%,68.6%,29%);stroke-opacity:1.0" /><path d="M 558.5 690.4 L 531.8 637.3 A 237.7 237.7 0 0 1 484.5 655.1" id="132,112" style="stroke:rgb(30.2%,68.6%,29%);stroke-opacity:1.0" /><path d="M 530.4 702.8 L 509.3 647.2 A 237.7 237.7 0 0 1 484.5 655.1" id="132,111" style="stroke:rgb(30.2%,68.6%,29%);stroke-opacity:1.0" /><path d="M 491.1 714.7 L 477.9 656.7 A 237.7 237.7 0 0 0 484.5 655.1" id="132,110" style="stroke:rgb(30.2%,68.6%,29%);stroke-opacity:1.0" /><path d="M 450.6 721.0 L 445.5 661.8 A 237.7 237.7 0 0 0 484.5 655.1" id="132,109" style="stroke:rgb(30.2%,68.6%,29%);stroke-opacity:1.0" /><path d="M 379.0 718.5 L 388.2 659.8 A 237.7 237.7 0 0 0 484.5 655.1" id="132,108" style="stroke:rgb(30.2%,68.6%,29%);stroke-opacity:1.0" /><path d="M 310.1 699.0 L 333.1 644.2 A 237.7 237.7 0 0 0 333.1 644.2" id="131,107" style="stroke:rgb(89.4%,10.2%,11%);stroke-opacity:1.0" /><path d="M 264.8 675.2 L 296.8 625.2 A 237.7 237.7 0 0 0 296.8 625.2" id="130,106" style="stroke:rgb(89.4%,10.2%,11%);stroke-opacity:1.0" /><path d="M 231.8 650.8 L 270.5 605.6 A 237.7 237.7 0 0 1 258.4 594.5" id="129,105" style="stroke:rgb(89.4%,10.2%,11%);stroke-opacity:1.0" /><path d="M 216.7 636.9 L 258.4 594.5 A 237.7 237.7 0 0 0 258.4 594.5" id="129,104" style="stroke:rgb(89.4%,10.2%,11%);stroke-opacity:1.0" /><path d="M 202.6 622.0 L 247.1 582.6 A 237.7 237.7 0 0 0 258.4 594.5" id="129,103" style="stroke:rgb(89.4%,10.2%,11%);stroke-opacity:1.0" /><path d="M 172.1 580.9 L 222.7 549.7 A 237.7 237.7 0 0 1 205.8 516.9" id="128,102" style="stroke:rgb(89.4%,10.2%,11%);stroke-opacity:1.0" /><path d="M 136.5 496.1 L 194.2 481.9 A 237.7 237.7 0 0 0 205.8 516.9" id="128,101" style="stroke:rgb(89.4%,10.2%,11%);stroke-opacity:1.0" /><path d="M 128.1 435.3 L 187.4 433.2 A 237.7 237.7 0 0 0 187.4 433.2" id="127,100" style="stroke:rgb(89.4%,10.2%,11%);stroke-opacity:1.0" /><path d="M 128.1 414.7 L 187.4 416.8 A 237.7 237.7 0 0 1 187.4 416.8" id="126,99" style="stroke:rgb(89.4%,10.2%,11%);stroke-opacity:1.0" /><path d="M 129.5 394.3 L 188.6 400.4 A 237.7 237.7 0 0 1 188.6 400.4" id="125,98" style="stroke:rgb(89.4%,10.2%,11%);stroke-opacity:1.0" /><path d="M 134.2 363.9 L 192.4 376.1 A 237.7 237.7 0 0 1 192.4 376.1" id="124,97" style="stroke:rgb(89.4%,10.2%,11%);stroke-opacity:1.0" /><path d="M 142.1 334.2 L 198.7 352.3 A 237.7 237.7 0 0 1 204.2 336.9" id="123,96" style="stroke:rgb(89.4%,10.2%,11%);stroke-opacity:1.0" /><path d="M 157.3 296.1 L 210.8 321.9 A 237.7 237.7 0 0 0 204.2 336.9" id="123,95" style="stroke:rgb(89.4%,10.2%,11%);stroke-opacity:1.0" /><path d="M 319.6 147.2 L 340.7 202.8 A 237.7 237.7 0 0 1 340.7 202.8" id="122,94" style="stroke:rgb(89.4%,10.2%,11%);stroke-opacity:1.0" /><path d="M 530.4 147.2 L 509.3 202.8 A 237.7 237.7 0 0 1 593.6 257.4" id="121,93" style="stroke:rgb(89.4%,10.2%,11%);stroke-opacity:1.0" /><path d="M 618.2 199.2 L 579.5 244.4 A 237.7 237.7 0 0 1 593.6 257.4" id="121,92" style="stroke:rgb(89.4%,10.2%,11%);stroke-opacity:1.0" /><path d="M 710.9 344.0 L 653.7 360.2 A 237.7 237.7 0 0 0 593.6 257.4" id="121,91" style="stroke:rgb(89.4%,10.2%,11%);stroke-opacity:1.0" /><path d="M 780.7 449.6 L 721.4 445.5 A 297.1 297.1 0 0 1 721.4 445.5" id="120,90" style="stroke:rgb(100%,49.8%,0%);stroke-opacity:1.0" /><path d="M 778.1 474.1 L 719.3 465.9 A 297.1 297.1 0 0 1 719.3 465.9" id="119,89" style="stroke:rgb(21.6%,49.4%,72.2%);stroke-opacity:1.0" /><path d="M 773.9 498.3 L 715.8 486.1 A 297.1 297.1 0 0 1 713.5 496.1" id="118,88" style="stroke:rgb(21.6%,49.4%,72.2%);stroke-opacity:1.0" /><path d="M 768.0 522.2 L 710.9 506.0 A 297.1 297.1 0 0 0 713.5 496.1" id="118,87" style="stroke:rgb(21.6%,49.4%,72.2%);stroke-opacity:1.0" /><path d="M 760.5 545.7 L 704.6 525.5 A 297.1 297.1 0 0 1 697.0 544.6" id="117,86" style="stroke:rgb(21.6%,49.4%,72.2%);stroke-opacity:1.0" /><path d="M 751.4 568.5 L 697.0 544.6 A 297.1 297.1 0 0 1 697.0 544.6" id="117,85" style="stroke:rgb(21.6%,49.4%,72.2%);stroke-opacity:1.0" /><path d="M 740.7 590.7 L 688.1 563.1 A 297.1 297.1 0 0 0 697.0 544.6" id="117,84" style="stroke:rgb(21.6%,49.4%,72.2%);stroke-opacity:1.0" /><path d="M 728.5 612.1 L 677.9 580.9 A 297.1 297.1 0 0 1 677.9 580.9" id="116,83" style="stroke:rgb(59.6%,30.6%,63.9%);stroke-opacity:1.0" /><path d="M 714.9 632.6 L 666.6 598.0 A 297.1 297.1 0 0 1 666.6 598.0" id="115,82" style="stroke:rgb(59.6%,30.6%,63.9%);stroke-opacity:1.0" /><path d="M 699.9 652.1 L 654.1 614.2 A 297.1 297.1 0 0 1 625.8 644.0" id="114,81" style="stroke:rgb(59.6%,30.6%,63.9%);stroke-opacity:1.0" /><path d="M 683.6 670.5 L 640.5 629.6 A 297.1 297.1 0 0 1 625.8 644.0" id="114,80" style="stroke:rgb(59.6%,30.6%,63.9%);stroke-opacity:1.0" /><path d="M 666.0 687.8 L 625.8 644.0 A 297.1 297.1 0 0 1 625.8 644.0" id="114,79" style="stroke:rgb(59.6%,30.6%,63.9%);stroke-opacity:1.0" /><path d="M 647.3 703.8 L 610.2 657.3 A 297.1 297.1 0 0 0 625.8 644.0" id="114,78" style="stroke:rgb(59.6%,30.6%,63.9%);stroke-opacity:1.0" /><path d="M 627.5 718.4 L 593.8 669.5 A 297.1 297.1 0 0 0 625.8 644.0" id="114,77" style="stroke:rgb(59.6%,30.6%,63.9%);stroke-opacity:1.0" /><path d="M 606.8 731.7 L 576.5 680.6 A 297.1 297.1 0 0 1 576.5 680.6" id="113,76" style="stroke:rgb(30.2%,68.6%,29%);stroke-opacity:1.0" /><path d="M 585.2 743.5 L 558.5 690.4 A 297.1 297.1 0 0 1 558.5 690.4" id="112,75" style="stroke:rgb(30.2%,68.6%,29%);stroke-opacity:1.0" /><path d="M 562.9 753.8 L 539.9 699.0 A 297.1 297.1 0 0 1 530.4 702.8" id="111,74" style="stroke:rgb(30.2%,68.6%,29%);stroke-opacity:1.0" /><path d="M 539.8 762.5 L 520.7 706.3 A 297.1 297.1 0 0 0 530.4 702.8" id="111,73" style="stroke:rgb(30.2%,68.6%,29%);stroke-opacity:1.0" /><path d="M 516.3 769.7 L 501.1 712.2 A 297.1 297.1 0 0 1 491.1 714.7" id="110,72" style="stroke:rgb(30.2%,68.6%,29%);stroke-opacity:1.0" /><path d="M 492.3 775.1 L 481.1 716.8 A 297.1 297.1 0 0 0 491.1 714.7" id="110,71" style="stroke:rgb(30.2%,68.6%,29%);stroke-opacity:1.0" /><path d="M 468.0 778.9 L 460.8 719.9 A 297.1 297.1 0 0 1 450.6 721.0" id="109,70" style="stroke:rgb(30.2%,68.6%,29%);stroke-opacity:1.0" /><path d="M 443.5 781.1 L 440.4 721.7 A 297.1 297.1 0 0 0 450.6 721.0" id="109,69" style="stroke:rgb(30.2%,68.6%,29%);stroke-opacity:1.0" /><path d="M 418.8 781.5 L 419.9 722.1 A 297.1 297.1 0 0 1 379.0 718.5" id="108,68" style="stroke:rgb(30.2%,68.6%,29%);stroke-opacity:1.0" /><path d="M 394.3 780.2 L 399.4 721.0 A 297.1 297.1 0 0 1 379.0 718.5" id="108,67" style="stroke:rgb(30.2%,68.6%,29%);stroke-opacity:1.0" /><path d="M 369.8 777.2 L 379.0 718.5 A 297.1 297.1 0 0 0 379.0 718.5" id="108,66" style="stroke:rgb(30.2%,68.6%,29%);stroke-opacity:1.0" /><path d="M 345.7 772.6 L 358.9 714.7 A 297.1 297.1 0 0 0 379.0 718.5" id="108,65" style="stroke:rgb(30.2%,68.6%,29%);stroke-opacity:1.0" /><path d="M 321.9 766.3 L 339.1 709.4 A 297.1 297.1 0 0 0 379.0 718.5" id="108,64" style="stroke:rgb(30.2%,68.6%,29%);stroke-opacity:1.0" /><path d="M 298.6 758.4 L 319.6 702.8 A 297.1 297.1 0 0 1 310.1 699.0" id="107,63" style="stroke:rgb(89.4%,10.2%,11%);stroke-opacity:1.0" /><path d="M 275.9 748.8 L 300.7 694.9 A 297.1 297.1 0 0 0 310.1 699.0" id="107,62" style="stroke:rgb(89.4%,10.2%,11%);stroke-opacity:1.0" /><path d="M 253.9 737.8 L 282.4 685.7 A 297.1 297.1 0 0 1 264.8 675.2" id="106,61" style="stroke:rgb(89.4%,10.2%,11%);stroke-opacity:1.0" /><path d="M 232.7 725.2 L 264.8 675.2 A 297.1 297.1 0 0 0 264.8 675.2" id="106,60" style="stroke:rgb(89.4%,10.2%,11%);stroke-opacity:1.0" /><path d="M 212.5 711.3 L 247.9 663.5 A 297.1 297.1 0 0 0 264.8 675.2" id="106,59" style="stroke:rgb(89.4%,10.2%,11%);stroke-opacity:1.0" /><path d="M 193.2 695.9 L 231.8 650.8 A 297.1 297.1 0 0 0 231.8 650.8" id="105,58" style="stroke:rgb(89.4%,10.2%,11%);stroke-opacity:1.0" /><path d="M 175.1 679.3 L 216.7 636.9 A 297.1 297.1 0 0 0 216.7 636.9" id="104,57" style="stroke:rgb(89.4%,10.2%,11%);stroke-opacity:1.0" /><path d="M 158.1 661.4 L 202.6 622.0 A 297.1 297.1 0 0 0 202.6 622.0" id="103,56" style="stroke:rgb(89.4%,10.2%,11%);stroke-opacity:1.0" /><path d="M 142.5 642.5 L 189.5 606.2 A 297.1 297.1 0 0 1 172.1 580.9" id="102,55" style="stroke:rgb(89.4%,10.2%,11%);stroke-opacity:1.0" /><path d="M 128.1 622.4 L 177.6 589.5 A 297.1 297.1 0 0 1 172.1 580.9" id="102,54" style="stroke:rgb(89.4%,10.2%,11%);stroke-opacity:1.0" /><path d="M 115.2 601.5 L 166.8 572.1 A 297.1 297.1 0 0 0 172.1 580.9" id="102,53" style="stroke:rgb(89.4%,10.2%,11%);stroke-opacity:1.0" /><path d="M 103.8 579.7 L 157.3 553.9 A 297.1 297.1 0 0 0 172.1 580.9" id="102,52" style="stroke:rgb(89.4%,10.2%,11%);stroke-opacity:1.0" /><path d="M 93.9 557.2 L 149.1 535.1 A 297.1 297.1 0 0 1 136.5 496.1" id="101,51" style="stroke:rgb(89.4%,10.2%,11%);stroke-opacity:1.0" /><path d="M 85.5 534.0 L 142.1 515.8 A 297.1 297.1 0 0 1 136.5 496.1" id="101,50" style="stroke:rgb(89.4%,10.2%,11%);stroke-opacity:1.0" /><path d="M 78.8 510.3 L 136.5 496.1 A 297.1 297.1 0 0 0 136.5 496.1" id="101,49" style="stroke:rgb(89.4%,10.2%,11%);stroke-opacity:1.0" /><path d="M 73.8 486.2 L 132.3 476.0 A 297.1 297.1 0 0 0 136.5 496.1" id="101,48" style="stroke:rgb(89.4%,10.2%,11%);stroke-opacity:1.0" /><path d="M 70.4 461.9 L 129.5 455.7 A 297.1 297.1 0 0 0 136.5 496.1" id="101,47" style="stroke:rgb(89.4%,10.2%,11%);stroke-opacity:1.0" /><path d="M 68.7 437.3 L 128.1 435.3 A 297.1 297.1 0 0 0 128.1 435.3" id="100,46" style="stroke:rgb(89.4%,10.2%,11%);stroke-opacity:1.0" /><path d="M 68.7 412.7 L 128.1 414.7 A 297.1 297.1 0 0 1 128.1 414.7" id="99,45" style="stroke:rgb(89.4%,10.2%,11%);stroke-opacity:1.0" /><path d="M 70.4 388.1 L 129.5 394.3 A 297.1 297.1 0 0 1 129.5 394.3" id="98,44" style="stroke:rgb(89.4%,10.2%,11%);stroke-opacity:1.0" /><path d="M 73.8 363.8 L 132.3 374.0 A 297.1 297.1 0 0 1 134.2 363.9" id="97,43" style="stroke:rgb(89.4%,10.2%,11%);stroke-opacity:1.0" /><path d="M 78.8 339.7 L 136.5 353.9 A 297.1 297.1 0 0 0 134.2 363.9" id="97,42" style="stroke:rgb(89.4%,10.2%,11%);stroke-opacity:1.0" /><path d="M 85.5 316.0 L 142.1 334.2 A 297.1 297.1 0 0 1 142.1 334.2" id="96,41" style="stroke:rgb(89.4%,10.2%,11%);stroke-opacity:1.0" /><path d="M 93.9 292.8 L 149.1 314.9 A 297.1 297.1 0 0 1 157.3 296.1" id="95,40" style="stroke:rgb(89.4%,10.2%,11%);stroke-opacity:1.0" /><path d="M 103.8 270.3 L 157.3 296.1 A 297.1 297.1 0 0 1 157.3 296.1" id="95,39" style="stroke:rgb(89.4%,10.2%,11%);stroke-opacity:1.0" /><path d="M 115.2 248.5 L 166.8 277.9 A 297.1 297.1 0 0 0 157.3 296.1" id="95,38" style="stroke:rgb(89.4%,10.2%,11%);stroke-opacity:1.0" /><path d="M 128.1 227.6 L 177.6 260.5 A 297.1 297.1 0 0 1 319.6 147.2" id="94,37" style="stroke:rgb(89.4%,10.2%,11%);stroke-opacity:1.0" /><path d="M 142.5 207.5 L 189.5 243.8 A 297.1 297.1 0 0 1 319.6 147.2" id="94,36" style="stroke:rgb(89.4%,10.2%,11%);stroke-opacity:1.0" /><path d="M 158.1 188.6 L 202.6 228.0 A 297.1 297.1 0 0 1 319.6 147.2" id="94,35" style="stroke:rgb(89.4%,10.2%,11%);stroke-opacity:1.0" /><path d="M 175.1 170.7 L 216.7 213.1 A 297.1 297.1 0 0 1 319.6 147.2" id="94,34" style="stroke:rgb(89.4%,10.2%,11%);stroke-opacity:1.0" /><path d="M 193.2 154.1 L 231.8 199.2 A 297.1 297.1 0 0 1 319.6 147.2" id="94,33" style="stroke:rgb(89.4%,10.2%,11%);stroke-opacity:1.0" /><path d="M 212.5 138.7 L 247.9 186.5 A 297.1 297.1 0 0 1 319.6 147.2" id="94,32" style="stroke:rgb(89.4%,10.2%,11%);stroke-opacity:1.0" /><path d="M 232.7 124.8 L 264.8 174.8 A 297.1 297.1 0 0 1 319.6 147.2" id="94,31" style="stroke:rgb(89.4%,10.2%,11%);stroke-opacity:1.0" /><path d="M 253.9 112.2 L 282.4 164.3 A 297.1 297.1 0 0 1 319.6 147.2" id="94,30" style="stroke:rgb(89.4%,10.2%,11%);stroke-opacity:1.0" /><path d="M 275.9 101.2 L 300.7 155.1 A 297.1 297.1 0 0 1 319.6 147.2" id="94,29" style="stroke:rgb(89.4%,10.2%,11%);stroke-opacity:1.0" /><path d="M 298.6 91.6 L 319.6 147.2 A 297.1 297.1 0 0 1 319.6 147.2" id="94,28" style="stroke:rgb(89.4%,10.2%,11%);stroke-opacity:1.0" /><path d="M 321.9 83.7 L 339.1 140.6 A 297.1 297.1 0 0 0 319.6 147.2" id="94,27" style="stroke:rgb(89.4%,10.2%,11%);stroke-opacity:1.0" /><path d="M 345.7 77.4 L 358.9 135.3 A 297.1 297.1 0 0 0 319.6 147.2" id="94,26" style="stroke:rgb(89.4%,10.2%,11%);stroke-opacity:1.0" /><path d="M 369.8 72.8 L 379.0 131.5 A 297.1 297.1 0 0 0 319.6 147.2" id="94,25" style="stroke:rgb(89.4%,10.2%,11%);stroke-opacity:1.0" /><path d="M 394.3 69.8 L 399.4 129.0 A 297.1 297.1 0 0 0 319.6 147.2" id="94,24" style="stroke:rgb(89.4%,10.2%,11%);stroke-opacity:1.0" /><path d="M 418.8 68.5 L 419.9 127.9 A 297.1 297.1 0 0 0 319.6 147.2" id="94,23" style="stroke:rgb(89.4%,10.2%,11%);stroke-opacity:1.0" /><path d="M 443.5 68.9 L 440.4 128.3 A 297.1 297.1 0 0 0 319.6 147.2" id="94,22" style="stroke:rgb(89.4%,10.2%,11%);stroke-opacity:1.0" /><path d="M 468.0 71.1 L 460.8 130.1 A 297.1 297.1 0 0 0 319.6 147.2" id="94,21" style="stroke:rgb(89.4%,10.2%,11%);stroke-opacity:1.0" /><path d="M 492.3 74.9 L 481.1 133.2 A 297.1 297.1 0 0 0 319.6 147.2" id="94,20" style="stroke:rgb(89.4%,10.2%,11%);stroke-opacity:1.0" /><path d="M 516.3 80.3 L 501.1 137.8 A 297.1 297.1 0 0 0 319.6 147.2" id="94,19" style="stroke:rgb(89.4%,10.2%,11%);stroke-opacity:1.0" /><path d="M 539.8 87.5 L 520.7 143.7 A 297.1 297.1 0 0 1 530.4 147.2" id="93,18" style="stroke:rgb(89.4%,10.2%,11%);stroke-opacity:1.0" /><path d="M 562.9 96.2 L 539.9 151.0 A 297.1 297.1 0 0 0 530.4 147.2" id="93,17" style="stroke:rgb(89.4%,10.2%,11%);stroke-opacity:1.0" /><path d="M 585.2 106.5 L 558.5 159.6 A 297.1 297.1 0 0 1 618.2 199.2" id="92,16" style="stroke:rgb(89.4%,10.2%,11%);stroke-opacity:1.0" /><path d="M 606.8 118.3 L 576.5 169.4 A 297.1 297.1 0 0 1 618.2 199.2" id="92,15" style="stroke:rgb(89.4%,10.2%,11%);stroke-opacity:1.0" /><path d="M 627.5 131.6 L 593.8 180.5 A 297.1 297.1 0 0 1 618.2 199.2" id="92,14" style="stroke:rgb(89.4%,10.2%,11%);stroke-opacity:1.0" /><path d="M 647.3 146.2 L 610.2 192.7 A 297.1 297.1 0 0 1 618.2 199.2" id="92,13" style="stroke:rgb(89.4%,10.2%,11%);stroke-opacity:1.0" /><path d="M 666.0 162.2 L 625.8 206.0 A 297.1 297.1 0 0 0 618.2 199.2" id="92,12" style="stroke:rgb(89.4%,10.2%,11%);stroke-opacity:1.0" /><path d="M 683.6 179.5 L 640.5 220.4 A 297.1 297.1 0 0 0 618.2 199.2" id="92,11" style="stroke:rgb(89.4%,10.2%,11%);stroke-opacity:1.0" /><path d="M 699.9 197.9 L 654.1 235.8 A 297.1 297.1 0 0 0 618.2 199.2" id="92,10" style="stroke:rgb(89.4%,10.2%,11%);stroke-opacity:1.0" /><path d="M 714.9 217.4 L 666.6 252.0 A 297.1 297.1 0 0 0 618.2 199.2" id="92,9" style="stroke:rgb(89.4%,10.2%,11%);stroke-opacity:1.0" /><path d="M 728.5 237.9 L 677.9 269.1 A 297.1 297.1 0 0 1 710.9 344.0" id="91,8" style="stroke:rgb(89.4%,10.2%,11%);stroke-opacity:1.0" /><path d="M 740.7 259.3 L 688.1 286.9 A 297.1 297.1 0 0 1 710.9 344.0" id="91,7" style="stroke:rgb(89.4%,10.2%,11%);stroke-opacity:1.0" /><path d="M 751.4 281.5 L 697.0 305.4 A 297.1 297.1 0 0 1 710.9 344.0" id="91,6" style="stroke:rgb(89.4%,10.2%,11%);stroke-opacity:1.0" /><path d="M 760.5 304.3 L 704.6 324.5 A 297.1 297.1 0 0 1 710.9 344.0" id="91,5" style="stroke:rgb(89.4%,10.2%,11%);stroke-opacity:1.0" /><path d="M 768.0 327.8 L 710.9 344.0 A 297.1 297.1 0 0 0 710.9 344.0" id="91,4" style="stroke:rgb(89.4%,10.2%,11%);stroke-opacity:1.0" /><path d="M 773.9 351.7 L 715.8 363.9 A 297.1 297.1 0 0 0 710.9 344.0" id="91,3" style="stroke:rgb(89.4%,10.2%,11%);stroke-opacity:1.0" /><path d="M 778.1 375.9 L 719.3 384.1 A 297.1 297.1 0 0 0 710.9 344.0" id="91,2" style="stroke:rgb(89.4%,10.2%,11%);stroke-opacity:1.0" /><path d="M 780.7 400.4 L 721.4 404.5 A 297.1 297.1 0 0 0 710.9 344.0" id="91,1" style="stroke:rgb(89.4%,10.2%,11%);stroke-opacity:1.0" /><path d="M 781.5 425.0 L 722.1 425.0 A 297.1 297.1 0 0 0 710.9 344.0" id="91,0" style="stroke:rgb(89.4%,10.2%,11%);stroke-opacity:1.0" /></g><g class="toytree-AlignEdges" style="stroke:rgb(66.3%,66.3%,66.3%);stroke-dasharray:2, 4;stroke-linecap:round;stroke-opacity:1.0;stroke-width:2"><path d="M 781.5 425.0 L 781.5 425.0" /><path d="M 780.7 400.4 L 780.7 400.4" /><path d="M 778.1 375.9 L 778.1 375.9" /><path d="M 773.9 351.7 L 773.9 351.7" /><path d="M 768.0 327.8 L 768.0 327.8" /><path d="M 760.5 304.3 L 760.5 304.3" /><path d="M 751.4 281.5 L 751.4 281.5" /><path d="M 740.7 259.3 L 740.7 259.3" /><path d="M 728.5 237.9 L 728.5 237.9" /><path d="M 714.9 217.4 L 714.9 217.4" /><path d="M 699.9 197.9 L 699.9 197.9" /><path d="M 683.6 179.5 L 683.6 179.5" /><path d="M 666.0 162.2 L 666.0 162.2" /><path d="M 647.3 146.2 L 647.3 146.2" /><path d="M 627.5 131.6 L 627.5 131.6" /><path d="M 606.8 118.3 L 606.8 118.3" /><path d="M 585.2 106.5 L 585.2 106.5" /><path d="M 562.9 96.2 L 562.9 96.2" /><path d="M 539.8 87.5 L 539.8 87.5" /><path d="M 516.3 80.3 L 516.3 80.3" /><path d="M 492.3 74.9 L 492.3 74.9" /><path d="M 468.0 71.1 L 468.0 71.1" /><path d="M 443.5 68.9 L 443.5 68.9" /><path d="M 418.8 68.5 L 418.8 68.5" /><path d="M 394.3 69.8 L 394.3 69.8" /><path d="M 369.8 72.8 L 369.8 72.8" /><path d="M 345.7 77.4 L 345.7 77.4" /><path d="M 321.9 83.7 L 321.9 83.7" /><path d="M 298.6 91.6 L 298.6 91.6" /><path d="M 275.9 101.2 L 275.9 101.2" /><path d="M 253.9 112.2 L 253.9 112.2" /><path d="M 232.7 124.8 L 232.7 124.8" /><path d="M 212.5 138.7 L 212.5 138.7" /><path d="M 193.2 154.1 L 193.2 154.1" /><path d="M 175.1 170.7 L 175.1 170.7" /><path d="M 158.1 188.6 L 158.1 188.6" /><path d="M 142.5 207.5 L 142.5 207.5" /><path d="M 128.1 227.6 L 128.1 227.6" /><path d="M 115.2 248.5 L 115.2 248.5" /><path d="M 103.8 270.3 L 103.8 270.3" /><path d="M 93.9 292.8 L 93.9 292.8" /><path d="M 85.5 316.0 L 85.5 316.0" /><path d="M 78.8 339.7 L 78.8 339.7" /><path d="M 73.8 363.8 L 73.8 363.8" /><path d="M 70.4 388.1 L 70.4 388.1" /><path d="M 68.7 412.7 L 68.7 412.7" /><path d="M 68.7 437.3 L 68.7 437.3" /><path d="M 70.4 461.9 L 70.4 461.9" /><path d="M 73.8 486.2 L 73.8 486.2" /><path d="M 78.8 510.3 L 78.8 510.3" /><path d="M 85.5 534.0 L 85.5 534.0" /><path d="M 93.9 557.2 L 93.9 557.2" /><path d="M 103.8 579.7 L 103.8 579.7" /><path d="M 115.2 601.5 L 115.2 601.5" /><path d="M 128.1 622.4 L 128.1 622.4" /><path d="M 142.5 642.5 L 142.5 642.5" /><path d="M 158.1 661.4 L 158.1 661.4" /><path d="M 175.1 679.3 L 175.1 679.3" /><path d="M 193.2 695.9 L 193.2 695.9" /><path d="M 212.5 711.3 L 212.5 711.3" /><path d="M 232.7 725.2 L 232.7 725.2" /><path d="M 253.9 737.8 L 253.9 737.8" /><path d="M 275.9 748.8 L 275.9 748.8" /><path d="M 298.6 758.4 L 298.6 758.4" /><path d="M 321.9 766.3 L 321.9 766.3" /><path d="M 345.7 772.6 L 345.7 772.6" /><path d="M 369.8 777.2 L 369.8 777.2" /><path d="M 394.3 780.2 L 394.3 780.2" /><path d="M 418.8 781.5 L 418.8 781.5" /><path d="M 443.5 781.1 L 443.5 781.1" /><path d="M 468.0 778.9 L 468.0 778.9" /><path d="M 492.3 775.1 L 492.3 775.1" /><path d="M 516.3 769.7 L 516.3 769.7" /><path d="M 539.8 762.5 L 539.8 762.5" /><path d="M 562.9 753.8 L 562.9 753.8" /><path d="M 585.2 743.5 L 585.2 743.5" /><path d="M 606.8 731.7 L 606.8 731.7" /><path d="M 627.5 718.4 L 627.5 718.4" /><path d="M 647.3 703.8 L 647.3 703.8" /><path d="M 666.0 687.8 L 666.0 687.8" /><path d="M 683.6 670.5 L 683.6 670.5" /><path d="M 699.9 652.1 L 699.9 652.1" /><path d="M 714.9 632.6 L 714.9 632.6" /><path d="M 728.5 612.1 L 728.5 612.1" /><path d="M 740.7 590.7 L 740.7 590.7" /><path d="M 751.4 568.5 L 751.4 568.5" /><path d="M 760.5 545.7 L 760.5 545.7" /><path d="M 768.0 522.2 L 768.0 522.2" /><path d="M 773.9 498.3 L 773.9 498.3" /><path d="M 778.1 474.1 L 778.1 474.1" /><path d="M 780.7 449.6 L 780.7 449.6" /></g><g class="toytree-Nodes" style="fill:rgb(40%,76.1%,64.7%);fill-opacity:1.0;stroke:rgb(0%,0%,0%);stroke-opacity:1.0;stroke-width:1"><g fill="rgb(0%,100%,100%)" fill-opacity="1.0" id="node-0" transform="translate(781.538,425.000)"><circle r="0.0" /></g><g fill="rgb(0%,100%,100%)" fill-opacity="1.0" id="node-1" transform="translate(780.689,400.402)"><circle r="0.0" /></g><g fill="rgb(0%,100%,100%)" fill-opacity="1.0" id="node-2" transform="translate(778.144,375.922)"><circle r="0.0" /></g><g fill="rgb(0%,100%,100%)" fill-opacity="1.0" id="node-3" transform="translate(773.917,351.675)"><circle r="0.0" /></g><g fill="rgb(0%,100%,100%)" fill-opacity="1.0" id="node-4" transform="translate(768.027,327.778)"><circle r="0.0" /></g><g fill="rgb(0%,100%,100%)" fill-opacity="1.0" id="node-5" transform="translate(760.502,304.344)"><circle r="0.0" /></g><g fill="rgb(0%,100%,100%)" fill-opacity="1.0" id="node-6" transform="translate(751.378,281.485)"><circle r="0.0" /></g><g fill="rgb(0%,100%,100%)" fill-opacity="1.0" id="node-7" transform="translate(740.699,259.310)"><circle r="0.0" /></g><g fill="rgb(0%,100%,100%)" fill-opacity="1.0" id="node-8" transform="translate(728.515,237.924)"><circle r="0.0" /></g><g fill="rgb(0%,100%,100%)" fill-opacity="1.0" id="node-9" transform="translate(714.886,217.430)"><circle r="0.0" /></g><g fill="rgb(0%,100%,100%)" fill-opacity="1.0" id="node-10" transform="translate(699.874,197.925)"><circle r="0.0" /></g><g fill="rgb(0%,100%,100%)" fill-opacity="1.0" id="node-11" transform="translate(683.553,179.503)"><circle r="0.0" /></g><g fill="rgb(0%,100%,100%)" fill-opacity="1.0" id="node-12" transform="translate(666.000,162.250)"><circle r="0.0" /></g><g fill="rgb(0%,100%,100%)" fill-opacity="1.0" id="node-13" transform="translate(647.298,146.249)"><circle r="0.0" /></g><g fill="rgb(0%,100%,100%)" fill-opacity="1.0" id="node-14" transform="translate(627.537,131.577)"><circle r="0.0" /></g><g fill="rgb(0%,100%,100%)" fill-opacity="1.0" id="node-15" transform="translate(606.810,118.303)"><circle r="0.0" /></g><g fill="rgb(0%,100%,100%)" fill-opacity="1.0" id="node-16" transform="translate(585.218,106.490)"><circle r="0.0" /></g><g fill="rgb(0%,100%,100%)" fill-opacity="1.0" id="node-17" transform="translate(562.861,96.196)"><circle r="0.0" /></g><g fill="rgb(0%,100%,100%)" fill-opacity="1.0" id="node-18" transform="translate(539.848,87.468)"><circle r="0.0" /></g><g fill="rgb(0%,100%,100%)" fill-opacity="1.0" id="node-19" transform="translate(516.288,80.349)"><circle r="0.0" /></g><g fill="rgb(0%,100%,100%)" fill-opacity="1.0" id="node-20" transform="translate(492.292,74.872)"><circle r="0.0" /></g><g fill="rgb(0%,100%,100%)" fill-opacity="1.0" id="node-21" transform="translate(467.976,71.064)"><circle r="0.0" /></g><g fill="rgb(0%,100%,100%)" fill-opacity="1.0" id="node-22" transform="translate(443.455,68.942)"><circle r="0.0" /></g><g fill="rgb(0%,100%,100%)" fill-opacity="1.0" id="node-23" transform="translate(418.846,68.517)"><circle r="0.0" /></g><g fill="rgb(0%,100%,100%)" fill-opacity="1.0" id="node-24" transform="translate(394.266,69.791)"><circle r="0.0" /></g><g fill="rgb(0%,100%,100%)" fill-opacity="1.0" id="node-25" transform="translate(369.833,72.758)"><circle r="0.0" /></g><g fill="rgb(0%,100%,100%)" fill-opacity="1.0" id="node-26" transform="translate(345.663,77.403)"><circle r="0.0" /></g><g fill="rgb(0%,100%,100%)" fill-opacity="1.0" id="node-27" transform="translate(321.871,83.705)"><circle r="0.0" /></g><g fill="rgb(0%,100%,100%)" fill-opacity="1.0" id="node-28" transform="translate(298.570,91.633)"><circle r="0.0" /></g><g fill="rgb(0%,100%,100%)" fill-opacity="1.0" id="node-29" transform="translate(275.872,101.150)"><circle r="0.0" /></g><g fill="rgb(0%,100%,100%)" fill-opacity="1.0" id="node-30" transform="translate(253.884,112.210)"><circle r="0.0" /></g><g fill="rgb(0%,100%,100%)" fill-opacity="1.0" id="node-31" transform="translate(232.712,124.761)"><circle r="0.0" /></g><g fill="rgb(0%,100%,100%)" fill-opacity="1.0" id="node-32" transform="translate(212.456,138.742)"><circle r="0.0" /></g><g fill="rgb(0%,100%,100%)" fill-opacity="1.0" id="node-33" transform="translate(193.213,154.088)"><circle r="0.0" /></g><g fill="rgb(0%,100%,100%)" fill-opacity="1.0" id="node-34" transform="translate(175.075,170.725)"><circle r="0.0" /></g><g fill="rgb(0%,100%,100%)" fill-opacity="1.0" id="node-35" transform="translate(158.127,188.573)"><circle r="0.0" /></g><g fill="rgb(0%,100%,100%)" fill-opacity="1.0" id="node-36" transform="translate(142.452,207.548)"><circle r="0.0" /></g><g fill="rgb(0%,100%,100%)" fill-opacity="1.0" id="node-37" transform="translate(128.123,227.560)"><circle r="0.0" /></g><g fill="rgb(0%,100%,100%)" fill-opacity="1.0" id="node-38" transform="translate(115.208,248.512)"><circle r="0.0" /></g><g fill="rgb(0%,100%,100%)" fill-opacity="1.0" id="node-39" transform="translate(103.770,270.305)"><circle r="0.0" /></g><g fill="rgb(0%,100%,100%)" fill-opacity="1.0" id="node-40" transform="translate(93.863,292.835)"><circle r="0.0" /></g><g fill="rgb(0%,100%,100%)" fill-opacity="1.0" id="node-41" transform="translate(85.534,315.996)"><circle r="0.0" /></g><g fill="rgb(0%,100%,100%)" fill-opacity="1.0" id="node-42" transform="translate(78.822,339.675)"><circle r="0.0" /></g><g fill="rgb(0%,100%,100%)" fill-opacity="1.0" id="node-43" transform="translate(73.760,363.762)"><circle r="0.0" /></g><g fill="rgb(0%,100%,100%)" fill-opacity="1.0" id="node-44" transform="translate(70.372,388.140)"><circle r="0.0" /></g><g fill="rgb(0%,100%,100%)" fill-opacity="1.0" id="node-45" transform="translate(68.674,412.694)"><circle r="0.0" /></g><g fill="rgb(0%,100%,100%)" fill-opacity="1.0" id="node-46" transform="translate(68.674,437.306)"><circle r="0.0" /></g><g fill="rgb(0%,100%,100%)" fill-opacity="1.0" id="node-47" transform="translate(70.372,461.860)"><circle r="0.0" /></g><g fill="rgb(0%,100%,100%)" fill-opacity="1.0" id="node-48" transform="translate(73.760,486.238)"><circle r="0.0" /></g><g fill="rgb(0%,100%,100%)" fill-opacity="1.0" id="node-49" transform="translate(78.822,510.325)"><circle r="0.0" /></g><g fill="rgb(0%,100%,100%)" fill-opacity="1.0" id="node-50" transform="translate(85.534,534.004)"><circle r="0.0" /></g><g fill="rgb(0%,100%,100%)" fill-opacity="1.0" id="node-51" transform="translate(93.863,557.165)"><circle r="0.0" /></g><g fill="rgb(0%,100%,100%)" fill-opacity="1.0" id="node-52" transform="translate(103.770,579.695)"><circle r="0.0" /></g><g fill="rgb(0%,100%,100%)" fill-opacity="1.0" id="node-53" transform="translate(115.208,601.488)"><circle r="0.0" /></g><g fill="rgb(0%,100%,100%)" fill-opacity="1.0" id="node-54" transform="translate(128.123,622.440)"><circle r="0.0" /></g><g fill="rgb(0%,100%,100%)" fill-opacity="1.0" id="node-55" transform="translate(142.452,642.452)"><circle r="0.0" /></g><g fill="rgb(0%,100%,100%)" fill-opacity="1.0" id="node-56" transform="translate(158.127,661.427)"><circle r="0.0" /></g><g fill="rgb(0%,100%,100%)" fill-opacity="1.0" id="node-57" transform="translate(175.075,679.275)"><circle r="0.0" /></g><g fill="rgb(0%,100%,100%)" fill-opacity="1.0" id="node-58" transform="translate(193.213,695.912)"><circle r="0.0" /></g><g fill="rgb(0%,100%,100%)" fill-opacity="1.0" id="node-59" transform="translate(212.456,711.258)"><circle r="0.0" /></g><g fill="rgb(0%,100%,100%)" fill-opacity="1.0" id="node-60" transform="translate(232.712,725.239)"><circle r="0.0" /></g><g fill="rgb(0%,100%,100%)" fill-opacity="1.0" id="node-61" transform="translate(253.884,737.790)"><circle r="0.0" /></g><g fill="rgb(0%,100%,100%)" fill-opacity="1.0" id="node-62" transform="translate(275.872,748.850)"><circle r="0.0" /></g><g fill="rgb(0%,100%,100%)" fill-opacity="1.0" id="node-63" transform="translate(298.570,758.367)"><circle r="0.0" /></g><g fill="rgb(0%,100%,100%)" fill-opacity="1.0" id="node-64" transform="translate(321.871,766.295)"><circle r="0.0" /></g><g fill="rgb(0%,100%,100%)" fill-opacity="1.0" id="node-65" transform="translate(345.663,772.597)"><circle r="0.0" /></g><g fill="rgb(0%,100%,100%)" fill-opacity="1.0" id="node-66" transform="translate(369.833,777.242)"><circle r="0.0" /></g><g fill="rgb(0%,100%,100%)" fill-opacity="1.0" id="node-67" transform="translate(394.266,780.209)"><circle r="0.0" /></g><g fill="rgb(0%,100%,100%)" fill-opacity="1.0" id="node-68" transform="translate(418.846,781.483)"><circle r="0.0" /></g><g fill="rgb(0%,100%,100%)" fill-opacity="1.0" id="node-69" transform="translate(443.455,781.058)"><circle r="0.0" /></g><g fill="rgb(0%,100%,100%)" fill-opacity="1.0" id="node-70" transform="translate(467.976,778.936)"><circle r="0.0" /></g><g fill="rgb(0%,100%,100%)" fill-opacity="1.0" id="node-71" transform="translate(492.292,775.128)"><circle r="0.0" /></g><g fill="rgb(0%,100%,100%)" fill-opacity="1.0" id="node-72" transform="translate(516.288,769.651)"><circle r="0.0" /></g><g fill="rgb(0%,100%,100%)" fill-opacity="1.0" id="node-73" transform="translate(539.848,762.532)"><circle r="0.0" /></g><g fill="rgb(0%,100%,100%)" fill-opacity="1.0" id="node-74" transform="translate(562.861,753.804)"><circle r="0.0" /></g><g fill="rgb(100%,100%,100%)" fill-opacity="1.0" id="node-75" transform="translate(585.218,743.510)"><circle r="9.711743772241993" /></g><g fill="rgb(100%,100%,100%)" fill-opacity="1.0" id="node-76" transform="translate(606.810,731.697)"><circle r="6.110320284697509" /></g><g fill="rgb(0%,100%,100%)" fill-opacity="1.0" id="node-77" transform="translate(627.537,718.423)"><circle r="0.0" /></g><g fill="rgb(0%,100%,100%)" fill-opacity="1.0" id="node-78" transform="translate(647.298,703.751)"><circle r="0.0" /></g><g fill="rgb(0%,100%,100%)" fill-opacity="1.0" id="node-79" transform="translate(666.000,687.750)"><circle r="0.0" /></g><g fill="rgb(0%,100%,100%)" fill-opacity="1.0" id="node-80" transform="translate(683.553,670.497)"><circle r="0.0" /></g><g fill="rgb(0%,100%,100%)" fill-opacity="1.0" id="node-81" transform="translate(699.874,652.075)"><circle r="0.0" /></g><g fill="rgb(0%,100%,100%)" fill-opacity="1.0" id="node-82" transform="translate(714.886,632.570)"><circle r="0.0" /></g><g fill="rgb(0%,100%,100%)" fill-opacity="1.0" id="node-83" transform="translate(728.515,612.076)"><circle r="0.0" /></g><g fill="rgb(0%,100%,100%)" fill-opacity="1.0" id="node-84" transform="translate(740.699,590.690)"><circle r="0.0" /></g><g fill="rgb(0%,100%,100%)" fill-opacity="1.0" id="node-85" transform="translate(751.378,568.515)"><circle r="0.0" /></g><g fill="rgb(0%,100%,100%)" fill-opacity="1.0" id="node-86" transform="translate(760.502,545.656)"><circle r="0.0" /></g><g fill="rgb(0%,100%,100%)" fill-opacity="1.0" id="node-87" transform="translate(768.027,522.222)"><circle r="0.0" /></g><g fill="rgb(0%,100%,100%)" fill-opacity="1.0" id="node-88" transform="translate(773.917,498.325)"><circle r="0.0" /></g><g fill="rgb(0%,100%,100%)" fill-opacity="1.0" id="node-89" transform="translate(778.144,474.078)"><circle r="0.0" /></g><g fill="rgb(0%,100%,100%)" fill-opacity="1.0" id="node-90" transform="translate(780.689,449.598)"><circle r="0.0" /></g><g fill="rgb(0%,100%,100%)" fill-opacity="1.0" id="node-91" transform="translate(710.855,343.981)"><circle r="0.0" /></g><g fill="rgb(0%,100%,100%)" fill-opacity="1.0" id="node-92" transform="translate(618.156,199.240)"><circle r="0.0" /></g><g fill="rgb(0%,100%,100%)" fill-opacity="1.0" id="node-93" transform="translate(530.359,147.194)"><circle r="0.0" /></g><g fill="rgb(0%,100%,100%)" fill-opacity="1.0" id="node-94" transform="translate(319.641,147.194)"><circle r="0.0" /></g><g fill="rgb(0%,100%,100%)" fill-opacity="1.0" id="node-95" transform="translate(157.308,296.087)"><circle r="0.0" /></g><g fill="rgb(0%,100%,100%)" fill-opacity="1.0" id="node-96" transform="translate(142.111,334.163)"><circle r="0.0" /></g><g fill="rgb(0%,100%,100%)" fill-opacity="1.0" id="node-97" transform="translate(134.236,363.896)"><circle r="0.0" /></g><g fill="rgb(0%,100%,100%)" fill-opacity="1.0" id="node-98" transform="translate(129.477,394.283)"><circle r="0.0" /></g><g fill="rgb(0%,100%,100%)" fill-opacity="1.0" id="node-99" transform="translate(128.062,414.745)"><circle r="0.0" /></g><g fill="rgb(0%,100%,100%)" fill-opacity="1.0" id="node-100" transform="translate(128.062,435.255)"><circle r="0.0" /></g><g fill="rgb(0%,100%,100%)" fill-opacity="1.0" id="node-101" transform="translate(136.518,496.104)"><circle r="0.0" /></g><g fill="rgb(0%,100%,100%)" fill-opacity="1.0" id="node-102" transform="translate(172.070,580.897)"><circle r="0.0" /></g><g fill="rgb(0%,100%,100%)" fill-opacity="1.0" id="node-103" transform="translate(202.606,622.022)"><circle r="0.0" /></g><g fill="rgb(0%,100%,100%)" fill-opacity="1.0" id="node-104" transform="translate(216.729,636.896)"><circle r="0.0" /></g><g fill="rgb(0%,100%,100%)" fill-opacity="1.0" id="node-105" transform="translate(231.844,650.760)"><circle r="0.0" /></g><g fill="rgb(0%,100%,100%)" fill-opacity="1.0" id="node-106" transform="translate(264.760,675.199)"><circle r="0.0" /></g><g fill="rgb(0%,100%,100%)" fill-opacity="1.0" id="node-107" transform="translate(310.115,699.003)"><circle r="0.0" /></g><g fill="rgb(0%,100%,100%)" fill-opacity="1.0" id="node-108" transform="translate(379.028,718.535)"><circle r="0.0" /></g><g fill="rgb(0%,100%,100%)" fill-opacity="1.0" id="node-109" transform="translate(450.611,721.007)"><circle r="0.0" /></g><g fill="rgb(0%,100%,100%)" fill-opacity="1.0" id="node-110" transform="translate(491.114,714.664)"><circle r="0.0" /></g><g fill="rgb(0%,100%,100%)" fill-opacity="1.0" id="node-111" transform="translate(530.359,702.806)"><circle r="0.0" /></g><g fill="rgb(0%,100%,100%)" fill-opacity="1.0" id="node-112" transform="translate(558.515,690.425)"><circle r="0.0" /></g><g fill="rgb(0%,100%,100%)" fill-opacity="1.0" id="node-113" transform="translate(576.509,680.581)"><circle r="0.0" /></g><g fill="rgb(0%,100%,100%)" fill-opacity="1.0" id="node-114" transform="translate(625.833,643.958)"><circle r="0.0" /></g><g fill="rgb(0%,100%,100%)" fill-opacity="1.0" id="node-115" transform="translate(666.571,597.975)"><circle r="0.0" /></g><g fill="rgb(0%,100%,100%)" fill-opacity="1.0" id="node-116" transform="translate(677.930,580.897)"><circle r="0.0" /></g><g fill="rgb(0%,100%,100%)" fill-opacity="1.0" id="node-117" transform="translate(696.982,544.596)"><circle r="0.0" /></g><g fill="rgb(0%,100%,100%)" fill-opacity="1.0" id="node-118" transform="translate(713.482,496.104)"><circle r="0.0" /></g><g fill="rgb(0%,100%,100%)" fill-opacity="1.0" id="node-119" transform="translate(719.287,465.899)"><circle r="0.0" /></g><g fill="rgb(0%,100%,100%)" fill-opacity="1.0" id="node-120" transform="translate(721.407,445.498)"><circle r="0.0" /></g><g fill="rgb(100%,100%,100%)" fill-opacity="1.0" id="node-121" transform="translate(593.557,257.412)"><circle r="6.6512455516014235" /></g><g fill="rgb(0%,100%,100%)" fill-opacity="1.0" id="node-122" transform="translate(340.713,202.756)"><circle r="0.0" /></g><g fill="rgb(0%,100%,100%)" fill-opacity="1.0" id="node-123" transform="translate(204.242,336.890)"><circle r="0.0" /></g><g fill="rgb(0%,100%,100%)" fill-opacity="1.0" id="node-124" transform="translate(192.389,376.117)"><circle r="0.0" /></g><g fill="rgb(0%,100%,100%)" fill-opacity="1.0" id="node-125" transform="translate(188.581,400.427)"><circle r="0.0" /></g><g fill="rgb(0%,100%,100%)" fill-opacity="1.0" id="node-126" transform="translate(187.449,416.796)"><circle r="0.0" /></g><g fill="rgb(0%,100%,100%)" fill-opacity="1.0" id="node-127" transform="translate(187.449,433.204)"><circle r="0.0" /></g><g fill="rgb(0%,100%,100%)" fill-opacity="1.0" id="node-128" transform="translate(205.796,516.907)"><circle r="0.0" /></g><g fill="rgb(0%,100%,100%)" fill-opacity="1.0" id="node-129" transform="translate(258.383,594.517)"><circle r="0.0" /></g><g fill="rgb(0%,100%,100%)" fill-opacity="1.0" id="node-130" transform="translate(296.808,625.159)"><circle r="0.0" /></g><g fill="rgb(0%,100%,100%)" fill-opacity="1.0" id="node-131" transform="translate(333.092,644.203)"><circle r="0.0" /></g><g fill="rgb(0%,100%,100%)" fill-opacity="1.0" id="node-132" transform="translate(484.535,655.114)"><circle r="0.0" /></g><g fill="rgb(0%,100%,100%)" fill-opacity="1.0" id="node-133" transform="translate(611.685,572.126)"><circle r="0.0" /></g><g fill="rgb(0%,100%,100%)" fill-opacity="1.0" id="node-134" transform="translate(650.023,501.565)"><circle r="0.0" /></g><g fill="rgb(0%,100%,100%)" fill-opacity="1.0" id="node-135" transform="translate(660.429,457.719)"><circle r="0.0" /></g><g fill="rgb(0%,100%,100%)" fill-opacity="1.0" id="node-136" transform="translate(662.126,441.399)"><circle r="0.0" /></g><g fill="rgb(0%,100%,100%)" fill-opacity="1.0" id="node-137" transform="translate(278.705,323.130)"><circle r="0.0" /></g><g fill="rgb(0%,100%,100%)" fill-opacity="1.0" id="node-138" transform="translate(277.419,524.998)"><circle r="0.0" /></g><g fill="rgb(0%,100%,100%)" fill-opacity="1.0" id="node-139" transform="translate(342.154,582.848)"><circle r="0.0" /></g><g fill="rgb(0%,100%,100%)" fill-opacity="1.0" id="node-140" transform="translate(469.652,597.585)"><circle r="0.0" /></g><g fill="rgb(0%,100%,100%)" fill-opacity="1.0" id="node-141" transform="translate(565.014,535.344)"><circle r="0.0" /></g><g fill="rgb(0%,100%,100%)" fill-opacity="1.0" id="node-142" transform="translate(598.451,466.167)"><circle r="0.0" /></g><g fill="rgb(0%,100%,100%)" fill-opacity="1.0" id="node-143" transform="translate(602.844,437.299)"><circle r="0.0" /></g><g fill="rgb(0%,100%,100%)" fill-opacity="1.0" id="node-144" transform="translate(313.699,466.671)"><circle r="0.0" /></g><g fill="rgb(0%,100%,100%)" fill-opacity="1.0" id="node-145" transform="translate(454.768,540.057)"><circle r="0.0" /></g><g fill="rgb(0%,100%,100%)" fill-opacity="1.0" id="node-146" transform="translate(518.342,498.563)"><circle r="0.0" /></g><g fill="rgb(0%,100%,100%)" fill-opacity="1.0" id="node-147" transform="translate(540.634,452.445)"><circle r="0.0" /></g><g fill="rgb(0%,100%,100%)" fill-opacity="1.0" id="node-148" transform="translate(543.563,433.199)"><circle r="0.0" /></g><g fill="rgb(0%,100%,100%)" fill-opacity="1.0" id="node-149" transform="translate(456.398,475.450)"><circle r="0.0" /></g><g fill="rgb(0%,100%,100%)" fill-opacity="1.0" id="node-150" transform="translate(425.000,425.000)"><circle r="0.0" /></g></g></g></g></g><g class="toyplot-coordinates-Cartesian" id="t1db490c5ff384ae1b4d90c4c3c741f19"><clipPath id="t50d205df5de04f6ead2adad283fcd0d6"><rect x="50.0" y="50.0" width="750.0" height="50.0" /></clipPath><g clip-path="url(#t50d205df5de04f6ead2adad283fcd0d6)" /><g transform="translate(425.0,42.0)"><text x="-62.446999999999996" y="-4.823" style="fill:rgb(16.1%,15.3%,14.1%);fill-opacity:1.0;font-family:helvetica;font-size:14.0px;font-weight:bold;stroke:none;vertical-align:baseline;white-space:pre">Healthy vs. IBS, =0</text></g></g><g class="toyplot-coordinates-Table" id="tc8300a888f4c4d61ab83da9af0cd8534"><g transform="translate(900.0,275.0)"><text x="-25.284000000000002" y="-10.423" style="fill:rgb(16.1%,15.3%,14.1%);fill-opacity:1.0;font-family:helvetica;font-size:14.0px;font-weight:bold;stroke:none;vertical-align:baseline;white-space:pre">Phylum</text></g><g transform="translate(895.0,285.0)"><g style="fill:rgb(100%,49.8%,0%);fill-opacity:1.0" transform="translate(-5.55, -4.440892098500626e-16)"><circle r="4.0" /></g></g><g transform="translate(905.0,285.0)"><text x="0" y="3.066" style="fill:rgb(16.1%,15.3%,14.1%);fill-opacity:1.0;font-family:helvetica;font-size:12.0px;font-weight:normal;stroke:none;vertical-align:baseline;white-space:pre">Synergistota</text></g><g transform="translate(895.0,305.0)"><g style="fill:rgb(21.6%,49.4%,72.2%);fill-opacity:1.0" transform="translate(-5.55, -4.440892098500626e-16)"><circle r="4.0" /></g></g><g transform="translate(905.0,305.0)"><text x="0" y="3.066" style="fill:rgb(16.1%,15.3%,14.1%);fill-opacity:1.0;font-family:helvetica;font-size:12.0px;font-weight:normal;stroke:none;vertical-align:baseline;white-space:pre">Proteobacteria</text></g><g transform="translate(895.0,325.0)"><g style="fill:rgb(59.6%,30.6%,63.9%);fill-opacity:1.0" transform="translate(-5.55, -4.440892098500626e-16)"><circle r="4.0" /></g></g><g transform="translate(905.0,325.0)"><text x="0" y="3.066" style="fill:rgb(16.1%,15.3%,14.1%);fill-opacity:1.0;font-family:helvetica;font-size:12.0px;font-weight:normal;stroke:none;vertical-align:baseline;white-space:pre">Actinobacteriota</text></g><g transform="translate(895.0,345.0)"><g style="fill:rgb(30.2%,68.6%,29%);fill-opacity:1.0" transform="translate(-5.55, -4.440892098500626e-16)"><circle r="4.0" /></g></g><g transform="translate(905.0,345.0)"><text x="0" y="3.066" style="fill:rgb(16.1%,15.3%,14.1%);fill-opacity:1.0;font-family:helvetica;font-size:12.0px;font-weight:normal;stroke:none;vertical-align:baseline;white-space:pre">Bacteroidota</text></g><g transform="translate(895.0,365.0)"><g style="fill:rgb(89.4%,10.2%,11%);fill-opacity:1.0" transform="translate(-5.55, -4.440892098500626e-16)"><circle r="4.0" /></g></g><g transform="translate(905.0,365.0)"><text x="0" y="3.066" style="fill:rgb(16.1%,15.3%,14.1%);fill-opacity:1.0;font-family:helvetica;font-size:12.0px;font-weight:normal;stroke:none;vertical-align:baseline;white-space:pre">Firmicutes</text></g></g><g class="toyplot-coordinates-Table" id="tc9df949e9e9c481f871b154d22030896"><g transform="translate(900.0,425.0)"><text x="-59.899" y="-10.423" style="fill:rgb(16.1%,15.3%,14.1%);fill-opacity:1.0;font-family:helvetica;font-size:14.0px;font-weight:bold;stroke:none;vertical-align:baseline;white-space:pre">tascCODA Effects</text></g><g transform="translate(895.0,450.0)"><g style="fill:rgb(0%,0%,0%);fill-opacity:1.0" transform="translate(-5.55, -4.440892098500626e-16)"><circle r="10.0" /></g></g><g transform="translate(905.0,450.0)"><text x="0" y="3.066" style="fill:rgb(16.1%,15.3%,14.1%);fill-opacity:1.0;font-family:helvetica;font-size:12.0px;font-weight:normal;stroke:none;vertical-align:baseline;white-space:pre">1.405</text></g><g transform="translate(895.0,500.0)"><g style="fill:rgb(100%,100%,100%);fill-opacity:1.0" transform="translate(-5.55, -4.440892098500626e-16)"><circle r="10.0" /></g></g><g transform="translate(905.0,500.0)"><text x="0" y="3.066" style="fill:rgb(16.1%,15.3%,14.1%);fill-opacity:1.0;font-family:helvetica;font-size:12.0px;font-weight:normal;stroke:none;vertical-align:baseline;white-space:pre">-1.405</text></g></g></svg>