<svg class="toyplot-canvas-Canvas" xmlns:toyplot="http://www.sandia.gov/toyplot" xmlns:xlink="http://www.w3.org/1999/xlink" xmlns="http://www.w3.org/2000/svg" width="1000.0px" height="1000.0px" viewBox="0 0 1000.0 1000.0" preserveAspectRatio="xMidYMid meet" style="background-color:transparent;border-color:#292724;border-style:none;border-width:1.0;fill:rgb(16.1%,15.3%,14.1%);fill-opacity:1.0;font-family:Helvetica;font-size:12px;opacity:1.0;stroke:rgb(16.1%,15.3%,14.1%);stroke-opacity:1.0;stroke-width:1.0" id="t691c2b60856a47caab18dd75bd7c29d3"><g class="toyplot-coordinates-Cartesian" id="t77b7227cbbb14ad8a781f73cf3cab22f"><clipPath id="tf09af371c8bb44f4a5ce6a84697f9acb"><rect x="30.0" y="30.0" width="790.0" height="790.0" /></clipPath><g clip-path="url(#tf09af371c8bb44f4a5ce6a84697f9acb)"><g class="toytree-mark-Toytree" id="t466cfcd7587b491ea062e2a54240a864"><g class="toytree-Edges" style="fill:none;stroke:rgb(14.9%,14.9%,14.9%);stroke-linecap:round;stroke-opacity:1;stroke-width:3"><path d="M 456.0 474.8 L 425.0 425.0 A -0.0 -0.0 0 0 0 425.0 425.0" id="150,149" style="stroke:rgb(0%,0%,0%);stroke-opacity:1.0" /><path d="M 542.1 433.1 L 483.6 429.1 A 58.7 58.7 0 0 1 456.0 474.8" id="149,148" style="stroke:rgb(100%,49.8%,0%);stroke-opacity:1.0" /><path d="M 539.2 452.1 L 482.1 438.6 A 58.7 58.7 0 0 1 456.0 474.8" id="149,147" style="stroke:rgb(21.6%,49.4%,72.2%);stroke-opacity:1.0" /><path d="M 517.2 497.7 L 471.1 461.3 A 58.7 58.7 0 0 1 456.0 474.8" id="149,146" style="stroke:rgb(59.6%,30.6%,63.9%);stroke-opacity:1.0" /><path d="M 454.4 538.7 L 439.7 481.8 A 58.7 58.7 0 0 0 456.0 474.8" id="149,145" style="stroke:rgb(30.2%,68.6%,29%);stroke-opacity:1.0" /><path d="M 315.0 466.2 L 370.0 445.6 A 58.7 58.7 0 0 0 456.0 474.8" id="149,144" style="stroke:rgb(89.4%,10.2%,11%);stroke-opacity:1.0" /><path d="M 600.7 437.2 L 542.1 433.1 A 117.4 117.4 0 0 1 542.1 433.1" id="148,143" style="stroke:rgb(100%,49.8%,0%);stroke-opacity:1.0" /><path d="M 596.4 465.7 L 539.2 452.1 A 117.4 117.4 0 0 1 539.2 452.1" id="147,142" style="stroke:rgb(21.6%,49.4%,72.2%);stroke-opacity:1.0" /><path d="M 563.3 534.0 L 517.2 497.7 A 117.4 117.4 0 0 1 517.2 497.7" id="146,141" style="stroke:rgb(59.6%,30.6%,63.9%);stroke-opacity:1.0" /><path d="M 469.1 595.5 L 454.4 538.7 A 117.4 117.4 0 0 1 454.4 538.7" id="145,140" style="stroke:rgb(30.2%,68.6%,29%);stroke-opacity:1.0" /><path d="M 343.2 580.9 L 370.4 529.0 A 117.4 117.4 0 0 1 315.0 466.2" id="144,139" style="stroke:rgb(89.4%,10.2%,11%);stroke-opacity:1.0" /><path d="M 279.2 523.8 L 327.8 490.9 A 117.4 117.4 0 0 1 315.0 466.2" id="144,138" style="stroke:rgb(89.4%,10.2%,11%);stroke-opacity:1.0" /><path d="M 280.5 324.4 L 328.6 357.9 A 117.4 117.4 0 0 0 315.0 466.2" id="144,137" style="stroke:rgb(89.4%,10.2%,11%);stroke-opacity:1.0" /><path d="M 659.3 441.2 L 600.7 437.2 A 176.1 176.1 0 0 1 600.7 437.2" id="143,136" style="stroke:rgb(100%,49.8%,0%);stroke-opacity:1.0" /><path d="M 657.6 457.3 L 599.4 449.2 A 176.1 176.1 0 0 1 596.4 465.7" id="142,135" style="stroke:rgb(21.6%,49.4%,72.2%);stroke-opacity:1.0" /><path d="M 647.3 500.6 L 591.7 481.7 A 176.1 176.1 0 0 0 596.4 465.7" id="142,134" style="stroke:rgb(21.6%,49.4%,72.2%);stroke-opacity:1.0" /><path d="M 609.4 570.3 L 563.3 534.0 A 176.1 176.1 0 0 1 563.3 534.0" id="141,133" style="stroke:rgb(59.6%,30.6%,63.9%);stroke-opacity:1.0" /><path d="M 483.8 652.3 L 469.1 595.5 A 176.1 176.1 0 0 1 469.1 595.5" id="140,132" style="stroke:rgb(30.2%,68.6%,29%);stroke-opacity:1.0" /><path d="M 334.2 641.6 L 356.9 587.4 A 176.1 176.1 0 0 1 343.2 580.9" id="139,131" style="stroke:rgb(89.4%,10.2%,11%);stroke-opacity:1.0" /><path d="M 298.4 622.7 L 330.0 573.3 A 176.1 176.1 0 0 0 343.2 580.9" id="139,130" style="stroke:rgb(89.4%,10.2%,11%);stroke-opacity:1.0" /><path d="M 260.4 592.5 L 301.5 550.6 A 176.1 176.1 0 0 1 279.2 523.8" id="138,129" style="stroke:rgb(89.4%,10.2%,11%);stroke-opacity:1.0" /><path d="M 208.4 515.8 L 262.6 493.1 A 176.1 176.1 0 0 0 279.2 523.8" id="138,128" style="stroke:rgb(89.4%,10.2%,11%);stroke-opacity:1.0" /><path d="M 190.3 433.1 L 249.0 431.1 A 176.1 176.1 0 0 1 280.5 324.4" id="137,127" style="stroke:rgb(89.4%,10.2%,11%);stroke-opacity:1.0" /><path d="M 190.3 416.9 L 249.0 418.9 A 176.1 176.1 0 0 1 280.5 324.4" id="137,126" style="stroke:rgb(89.4%,10.2%,11%);stroke-opacity:1.0" /><path d="M 191.4 400.7 L 249.8 406.8 A 176.1 176.1 0 0 1 280.5 324.4" id="137,125" style="stroke:rgb(89.4%,10.2%,11%);stroke-opacity:1.0" /><path d="M 195.2 376.7 L 252.6 388.8 A 176.1 176.1 0 0 1 280.5 324.4" id="137,124" style="stroke:rgb(89.4%,10.2%,11%);stroke-opacity:1.0" /><path d="M 206.9 338.0 L 261.4 359.7 A 176.1 176.1 0 0 1 280.5 324.4" id="137,123" style="stroke:rgb(89.4%,10.2%,11%);stroke-opacity:1.0" /><path d="M 341.7 205.4 L 362.5 260.3 A 176.1 176.1 0 0 0 280.5 324.4" id="137,122" style="stroke:rgb(89.4%,10.2%,11%);stroke-opacity:1.0" /><path d="M 591.5 259.4 L 549.9 300.8 A 176.1 176.1 0 0 0 280.5 324.4" id="137,121" style="stroke:rgb(89.4%,10.2%,11%);stroke-opacity:1.0" /><path d="M 717.8 445.3 L 659.3 441.2 A 234.8 234.8 0 0 1 659.3 441.2" id="136,120" style="stroke:rgb(100%,49.8%,0%);stroke-opacity:1.0" /><path d="M 715.7 465.4 L 657.6 457.3 A 234.8 234.8 0 0 1 657.6 457.3" id="135,119" style="stroke:rgb(21.6%,49.4%,72.2%);stroke-opacity:1.0" /><path d="M 710.0 495.2 L 653.0 481.2 A 234.8 234.8 0 0 1 647.3 500.6" id="134,118" style="stroke:rgb(21.6%,49.4%,72.2%);stroke-opacity:1.0" /><path d="M 693.7 543.2 L 640.0 519.5 A 234.8 234.8 0 0 0 647.3 500.6" id="134,117" style="stroke:rgb(21.6%,49.4%,72.2%);stroke-opacity:1.0" /><path d="M 674.9 579.0 L 624.9 548.2 A 234.8 234.8 0 0 1 609.4 570.3" id="133,116" style="stroke:rgb(59.6%,30.6%,63.9%);stroke-opacity:1.0" /><path d="M 663.7 595.9 L 615.9 561.7 A 234.8 234.8 0 0 1 609.4 570.3" id="133,115" style="stroke:rgb(59.6%,30.6%,63.9%);stroke-opacity:1.0" /><path d="M 623.4 641.3 L 583.7 598.1 A 234.8 234.8 0 0 0 609.4 570.3" id="133,114" style="stroke:rgb(59.6%,30.6%,63.9%);stroke-opacity:1.0" /><path d="M 574.7 677.5 L 544.7 627.0 A 234.8 234.8 0 0 1 483.8 652.3" id="132,113" style="stroke:rgb(30.2%,68.6%,29%);stroke-opacity:1.0" /><path d="M 556.9 687.2 L 530.5 634.8 A 234.8 234.8 0 0 1 483.8 652.3" id="132,112" style="stroke:rgb(30.2%,68.6%,29%);stroke-opacity:1.0" /><path d="M 529.1 699.4 L 508.3 644.6 A 234.8 234.8 0 0 1 483.8 652.3" id="132,111" style="stroke:rgb(30.2%,68.6%,29%);stroke-opacity:1.0" /><path d="M 490.3 711.2 L 477.3 653.9 A 234.8 234.8 0 0 0 483.8 652.3" id="132,110" style="stroke:rgb(30.2%,68.6%,29%);stroke-opacity:1.0" /><path d="M 450.3 717.4 L 445.2 658.9 A 234.8 234.8 0 0 0 483.8 652.3" id="132,109" style="stroke:rgb(30.2%,68.6%,29%);stroke-opacity:1.0" /><path d="M 379.6 715.0 L 388.7 657.0 A 234.8 234.8 0 0 0 483.8 652.3" id="132,108" style="stroke:rgb(30.2%,68.6%,29%);stroke-opacity:1.0" /><path d="M 311.5 695.7 L 334.2 641.6 A 234.8 234.8 0 0 0 334.2 641.6" id="131,107" style="stroke:rgb(89.4%,10.2%,11%);stroke-opacity:1.0" /><path d="M 266.7 672.2 L 298.4 622.7 A 234.8 234.8 0 0 0 298.4 622.7" id="130,106" style="stroke:rgb(89.4%,10.2%,11%);stroke-opacity:1.0" /><path d="M 234.2 648.0 L 272.3 603.4 A 234.8 234.8 0 0 1 260.4 592.5" id="129,105" style="stroke:rgb(89.4%,10.2%,11%);stroke-opacity:1.0" /><path d="M 219.2 634.3 L 260.4 592.5 A 234.8 234.8 0 0 0 260.4 592.5" id="129,104" style="stroke:rgb(89.4%,10.2%,11%);stroke-opacity:1.0" /><path d="M 205.3 619.6 L 249.2 580.7 A 234.8 234.8 0 0 0 260.4 592.5" id="129,103" style="stroke:rgb(89.4%,10.2%,11%);stroke-opacity:1.0" /><path d="M 175.1 579.0 L 225.1 548.2 A 234.8 234.8 0 0 1 208.4 515.8" id="128,102" style="stroke:rgb(89.4%,10.2%,11%);stroke-opacity:1.0" /><path d="M 140.0 495.2 L 197.0 481.2 A 234.8 234.8 0 0 0 208.4 515.8" id="128,101" style="stroke:rgb(89.4%,10.2%,11%);stroke-opacity:1.0" /><path d="M 131.6 435.1 L 190.3 433.1 A 234.8 234.8 0 0 0 190.3 433.1" id="127,100" style="stroke:rgb(89.4%,10.2%,11%);stroke-opacity:1.0" /><path d="M 131.6 414.9 L 190.3 416.9 A 234.8 234.8 0 0 1 190.3 416.9" id="126,99" style="stroke:rgb(89.4%,10.2%,11%);stroke-opacity:1.0" /><path d="M 133.0 394.7 L 191.4 400.7 A 234.8 234.8 0 0 1 191.4 400.7" id="125,98" style="stroke:rgb(89.4%,10.2%,11%);stroke-opacity:1.0" /><path d="M 137.7 364.6 L 195.2 376.7 A 234.8 234.8 0 0 1 195.2 376.7" id="124,97" style="stroke:rgb(89.4%,10.2%,11%);stroke-opacity:1.0" /><path d="M 145.5 335.3 L 201.4 353.2 A 234.8 234.8 0 0 1 206.9 338.0" id="123,96" style="stroke:rgb(89.4%,10.2%,11%);stroke-opacity:1.0" /><path d="M 160.5 297.6 L 213.4 323.1 A 234.8 234.8 0 0 0 206.9 338.0" id="123,95" style="stroke:rgb(89.4%,10.2%,11%);stroke-opacity:1.0" /><path d="M 320.9 150.6 L 341.7 205.4 A 234.8 234.8 0 0 1 341.7 205.4" id="122,94" style="stroke:rgb(89.4%,10.2%,11%);stroke-opacity:1.0" /><path d="M 529.1 150.6 L 508.3 205.4 A 234.8 234.8 0 0 1 591.5 259.4" id="121,93" style="stroke:rgb(89.4%,10.2%,11%);stroke-opacity:1.0" /><path d="M 615.8 202.0 L 577.7 246.6 A 234.8 234.8 0 0 1 591.5 259.4" id="121,92" style="stroke:rgb(89.4%,10.2%,11%);stroke-opacity:1.0" /><path d="M 707.4 345.0 L 650.9 361.0 A 234.8 234.8 0 0 0 591.5 259.4" id="121,91" style="stroke:rgb(89.4%,10.2%,11%);stroke-opacity:1.0" /><path d="M 776.4 449.3 L 717.8 445.3 A 293.5 293.5 0 0 1 717.8 445.3" id="120,90" style="stroke:rgb(100%,49.8%,0%);stroke-opacity:1.0" /><path d="M 773.9 473.5 L 715.7 465.4 A 293.5 293.5 0 0 1 715.7 465.4" id="119,89" style="stroke:rgb(21.6%,49.4%,72.2%);stroke-opacity:1.0" /><path d="M 769.7 497.4 L 712.3 485.4 A 293.5 293.5 0 0 1 710.0 495.2" id="118,88" style="stroke:rgb(21.6%,49.4%,72.2%);stroke-opacity:1.0" /><path d="M 763.9 521.0 L 707.4 505.0 A 293.5 293.5 0 0 0 710.0 495.2" id="118,87" style="stroke:rgb(21.6%,49.4%,72.2%);stroke-opacity:1.0" /><path d="M 756.4 544.2 L 701.2 524.3 A 293.5 293.5 0 0 1 693.7 543.2" id="117,86" style="stroke:rgb(21.6%,49.4%,72.2%);stroke-opacity:1.0" /><path d="M 747.4 566.8 L 693.7 543.2 A 293.5 293.5 0 0 1 693.7 543.2" id="117,85" style="stroke:rgb(21.6%,49.4%,72.2%);stroke-opacity:1.0" /><path d="M 736.9 588.7 L 684.9 561.4 A 293.5 293.5 0 0 0 693.7 543.2" id="117,84" style="stroke:rgb(21.6%,49.4%,72.2%);stroke-opacity:1.0" /><path d="M 724.8 609.8 L 674.9 579.0 A 293.5 293.5 0 0 1 674.9 579.0" id="116,83" style="stroke:rgb(59.6%,30.6%,63.9%);stroke-opacity:1.0" /><path d="M 711.4 630.1 L 663.7 595.9 A 293.5 293.5 0 0 1 663.7 595.9" id="115,82" style="stroke:rgb(59.6%,30.6%,63.9%);stroke-opacity:1.0" /><path d="M 696.6 649.3 L 651.3 611.9 A 293.5 293.5 0 0 1 623.4 641.3" id="114,81" style="stroke:rgb(59.6%,30.6%,63.9%);stroke-opacity:1.0" /><path d="M 680.4 667.5 L 637.9 627.1 A 293.5 293.5 0 0 1 623.4 641.3" id="114,80" style="stroke:rgb(59.6%,30.6%,63.9%);stroke-opacity:1.0" /><path d="M 663.1 684.6 L 623.4 641.3 A 293.5 293.5 0 0 1 623.4 641.3" id="114,79" style="stroke:rgb(59.6%,30.6%,63.9%);stroke-opacity:1.0" /><path d="M 644.6 700.4 L 608.0 654.5 A 293.5 293.5 0 0 0 623.4 641.3" id="114,78" style="stroke:rgb(59.6%,30.6%,63.9%);stroke-opacity:1.0" /><path d="M 625.1 714.9 L 591.7 666.6 A 293.5 293.5 0 0 0 623.4 641.3" id="114,77" style="stroke:rgb(59.6%,30.6%,63.9%);stroke-opacity:1.0" /><path d="M 604.6 728.0 L 574.7 677.5 A 293.5 293.5 0 0 1 574.7 677.5" id="113,76" style="stroke:rgb(30.2%,68.6%,29%);stroke-opacity:1.0" /><path d="M 583.3 739.7 L 556.9 687.2 A 293.5 293.5 0 0 1 556.9 687.2" id="112,75" style="stroke:rgb(30.2%,68.6%,29%);stroke-opacity:1.0" /><path d="M 561.2 749.8 L 538.5 695.7 A 293.5 293.5 0 0 1 529.1 699.4" id="111,74" style="stroke:rgb(30.2%,68.6%,29%);stroke-opacity:1.0" /><path d="M 538.5 758.5 L 519.6 702.9 A 293.5 293.5 0 0 0 529.1 699.4" id="111,73" style="stroke:rgb(30.2%,68.6%,29%);stroke-opacity:1.0" /><path d="M 515.2 765.5 L 500.2 708.7 A 293.5 293.5 0 0 1 490.3 711.2" id="110,72" style="stroke:rgb(30.2%,68.6%,29%);stroke-opacity:1.0" /><path d="M 491.5 770.9 L 480.4 713.2 A 293.5 293.5 0 0 0 490.3 711.2" id="110,71" style="stroke:rgb(30.2%,68.6%,29%);stroke-opacity:1.0" /><path d="M 467.5 774.7 L 460.4 716.4 A 293.5 293.5 0 0 1 450.3 717.4" id="109,70" style="stroke:rgb(30.2%,68.6%,29%);stroke-opacity:1.0" /><path d="M 443.2 776.8 L 440.2 718.1 A 293.5 293.5 0 0 0 450.3 717.4" id="109,69" style="stroke:rgb(30.2%,68.6%,29%);stroke-opacity:1.0" /><path d="M 418.9 777.2 L 419.9 718.5 A 293.5 293.5 0 0 1 379.6 715.0" id="108,68" style="stroke:rgb(30.2%,68.6%,29%);stroke-opacity:1.0" /><path d="M 394.6 775.9 L 399.7 717.4 A 293.5 293.5 0 0 1 379.6 715.0" id="108,67" style="stroke:rgb(30.2%,68.6%,29%);stroke-opacity:1.0" /><path d="M 370.5 773.0 L 379.6 715.0 A 293.5 293.5 0 0 0 379.6 715.0" id="108,66" style="stroke:rgb(30.2%,68.6%,29%);stroke-opacity:1.0" /><path d="M 346.6 768.4 L 359.7 711.2 A 293.5 293.5 0 0 0 379.6 715.0" id="108,65" style="stroke:rgb(30.2%,68.6%,29%);stroke-opacity:1.0" /><path d="M 323.1 762.2 L 340.1 706.0 A 293.5 293.5 0 0 0 379.6 715.0" id="108,64" style="stroke:rgb(30.2%,68.6%,29%);stroke-opacity:1.0" /><path d="M 300.1 754.3 L 320.9 699.5 A 293.5 293.5 0 0 1 311.5 695.7" id="107,63" style="stroke:rgb(89.4%,10.2%,11%);stroke-opacity:1.0" /><path d="M 277.7 744.9 L 302.2 691.6 A 293.5 293.5 0 0 0 311.5 695.7" id="107,62" style="stroke:rgb(89.4%,10.2%,11%);stroke-opacity:1.0" /><path d="M 256.0 734.0 L 284.1 682.5 A 293.5 293.5 0 0 1 266.7 672.2" id="106,61" style="stroke:rgb(89.4%,10.2%,11%);stroke-opacity:1.0" /><path d="M 235.0 721.6 L 266.7 672.2 A 293.5 293.5 0 0 0 266.7 672.2" id="106,60" style="stroke:rgb(89.4%,10.2%,11%);stroke-opacity:1.0" /><path d="M 215.0 707.8 L 250.0 660.7 A 293.5 293.5 0 0 0 266.7 672.2" id="106,59" style="stroke:rgb(89.4%,10.2%,11%);stroke-opacity:1.0" /><path d="M 196.0 692.6 L 234.2 648.0 A 293.5 293.5 0 0 0 234.2 648.0" id="105,58" style="stroke:rgb(89.4%,10.2%,11%);stroke-opacity:1.0" /><path d="M 178.1 676.2 L 219.2 634.3 A 293.5 293.5 0 0 0 219.2 634.3" id="104,57" style="stroke:rgb(89.4%,10.2%,11%);stroke-opacity:1.0" /><path d="M 161.4 658.6 L 205.3 619.6 A 293.5 293.5 0 0 0 205.3 619.6" id="103,56" style="stroke:rgb(89.4%,10.2%,11%);stroke-opacity:1.0" /><path d="M 145.9 639.8 L 192.4 604.0 A 293.5 293.5 0 0 1 175.1 579.0" id="102,55" style="stroke:rgb(89.4%,10.2%,11%);stroke-opacity:1.0" /><path d="M 131.7 620.1 L 180.6 587.5 A 293.5 293.5 0 0 1 175.1 579.0" id="102,54" style="stroke:rgb(89.4%,10.2%,11%);stroke-opacity:1.0" /><path d="M 119.0 599.4 L 170.0 570.3 A 293.5 293.5 0 0 0 175.1 579.0" id="102,53" style="stroke:rgb(89.4%,10.2%,11%);stroke-opacity:1.0" /><path d="M 107.7 577.8 L 160.5 552.4 A 293.5 293.5 0 0 0 175.1 579.0" id="102,52" style="stroke:rgb(89.4%,10.2%,11%);stroke-opacity:1.0" /><path d="M 97.9 555.6 L 152.4 533.8 A 293.5 293.5 0 0 1 140.0 495.2" id="101,51" style="stroke:rgb(89.4%,10.2%,11%);stroke-opacity:1.0" /><path d="M 89.6 532.7 L 145.5 514.7 A 293.5 293.5 0 0 1 140.0 495.2" id="101,50" style="stroke:rgb(89.4%,10.2%,11%);stroke-opacity:1.0" /><path d="M 83.0 509.3 L 140.0 495.2 A 293.5 293.5 0 0 0 140.0 495.2" id="101,49" style="stroke:rgb(89.4%,10.2%,11%);stroke-opacity:1.0" /><path d="M 78.0 485.5 L 135.8 475.4 A 293.5 293.5 0 0 0 140.0 495.2" id="101,48" style="stroke:rgb(89.4%,10.2%,11%);stroke-opacity:1.0" /><path d="M 74.7 461.4 L 133.0 455.3 A 293.5 293.5 0 0 0 140.0 495.2" id="101,47" style="stroke:rgb(89.4%,10.2%,11%);stroke-opacity:1.0" /><path d="M 73.0 437.2 L 131.6 435.1 A 293.5 293.5 0 0 0 131.6 435.1" id="100,46" style="stroke:rgb(89.4%,10.2%,11%);stroke-opacity:1.0" /><path d="M 73.0 412.8 L 131.6 414.9 A 293.5 293.5 0 0 1 131.6 414.9" id="99,45" style="stroke:rgb(89.4%,10.2%,11%);stroke-opacity:1.0" /><path d="M 74.7 388.6 L 133.0 394.7 A 293.5 293.5 0 0 1 133.0 394.7" id="98,44" style="stroke:rgb(89.4%,10.2%,11%);stroke-opacity:1.0" /><path d="M 78.0 364.5 L 135.8 374.6 A 293.5 293.5 0 0 1 137.7 364.6" id="97,43" style="stroke:rgb(89.4%,10.2%,11%);stroke-opacity:1.0" /><path d="M 83.0 340.7 L 140.0 354.8 A 293.5 293.5 0 0 0 137.7 364.6" id="97,42" style="stroke:rgb(89.4%,10.2%,11%);stroke-opacity:1.0" /><path d="M 89.6 317.3 L 145.5 335.3 A 293.5 293.5 0 0 1 145.5 335.3" id="96,41" style="stroke:rgb(89.4%,10.2%,11%);stroke-opacity:1.0" /><path d="M 97.9 294.4 L 152.4 316.2 A 293.5 293.5 0 0 1 160.5 297.6" id="95,40" style="stroke:rgb(89.4%,10.2%,11%);stroke-opacity:1.0" /><path d="M 107.7 272.2 L 160.5 297.6 A 293.5 293.5 0 0 1 160.5 297.6" id="95,39" style="stroke:rgb(89.4%,10.2%,11%);stroke-opacity:1.0" /><path d="M 119.0 250.6 L 170.0 279.7 A 293.5 293.5 0 0 0 160.5 297.6" id="95,38" style="stroke:rgb(89.4%,10.2%,11%);stroke-opacity:1.0" /><path d="M 131.7 229.9 L 180.6 262.5 A 293.5 293.5 0 0 1 320.9 150.6" id="94,37" style="stroke:rgb(89.4%,10.2%,11%);stroke-opacity:1.0" /><path d="M 145.9 210.2 L 192.4 246.0 A 293.5 293.5 0 0 1 320.9 150.6" id="94,36" style="stroke:rgb(89.4%,10.2%,11%);stroke-opacity:1.0" /><path d="M 161.4 191.4 L 205.3 230.4 A 293.5 293.5 0 0 1 320.9 150.6" id="94,35" style="stroke:rgb(89.4%,10.2%,11%);stroke-opacity:1.0" /><path d="M 178.1 173.8 L 219.2 215.7 A 293.5 293.5 0 0 1 320.9 150.6" id="94,34" style="stroke:rgb(89.4%,10.2%,11%);stroke-opacity:1.0" /><path d="M 196.0 157.4 L 234.2 202.0 A 293.5 293.5 0 0 1 320.9 150.6" id="94,33" style="stroke:rgb(89.4%,10.2%,11%);stroke-opacity:1.0" /><path d="M 215.0 142.2 L 250.0 189.3 A 293.5 293.5 0 0 1 320.9 150.6" id="94,32" style="stroke:rgb(89.4%,10.2%,11%);stroke-opacity:1.0" /><path d="M 235.0 128.4 L 266.7 177.8 A 293.5 293.5 0 0 1 320.9 150.6" id="94,31" style="stroke:rgb(89.4%,10.2%,11%);stroke-opacity:1.0" /><path d="M 256.0 116.0 L 284.1 167.5 A 293.5 293.5 0 0 1 320.9 150.6" id="94,30" style="stroke:rgb(89.4%,10.2%,11%);stroke-opacity:1.0" /><path d="M 277.7 105.1 L 302.2 158.4 A 293.5 293.5 0 0 1 320.9 150.6" id="94,29" style="stroke:rgb(89.4%,10.2%,11%);stroke-opacity:1.0" /><path d="M 300.1 95.7 L 320.9 150.5 A 293.5 293.5 0 0 1 320.9 150.6" id="94,28" style="stroke:rgb(89.4%,10.2%,11%);stroke-opacity:1.0" /><path d="M 323.1 87.8 L 340.1 144.0 A 293.5 293.5 0 0 0 320.9 150.6" id="94,27" style="stroke:rgb(89.4%,10.2%,11%);stroke-opacity:1.0" /><path d="M 346.6 81.6 L 359.7 138.8 A 293.5 293.5 0 0 0 320.9 150.6" id="94,26" style="stroke:rgb(89.4%,10.2%,11%);stroke-opacity:1.0" /><path d="M 370.5 77.0 L 379.6 135.0 A 293.5 293.5 0 0 0 320.9 150.6" id="94,25" style="stroke:rgb(89.4%,10.2%,11%);stroke-opacity:1.0" /><path d="M 394.6 74.1 L 399.7 132.6 A 293.5 293.5 0 0 0 320.9 150.6" id="94,24" style="stroke:rgb(89.4%,10.2%,11%);stroke-opacity:1.0" /><path d="M 418.9 72.8 L 419.9 131.5 A 293.5 293.5 0 0 0 320.9 150.6" id="94,23" style="stroke:rgb(89.4%,10.2%,11%);stroke-opacity:1.0" /><path d="M 443.2 73.2 L 440.2 131.9 A 293.5 293.5 0 0 0 320.9 150.6" id="94,22" style="stroke:rgb(89.4%,10.2%,11%);stroke-opacity:1.0" /><path d="M 467.5 75.3 L 460.4 133.6 A 293.5 293.5 0 0 0 320.9 150.6" id="94,21" style="stroke:rgb(89.4%,10.2%,11%);stroke-opacity:1.0" /><path d="M 491.5 79.1 L 480.4 136.8 A 293.5 293.5 0 0 0 320.9 150.6" id="94,20" style="stroke:rgb(89.4%,10.2%,11%);stroke-opacity:1.0" /><path d="M 515.2 84.5 L 500.2 141.3 A 293.5 293.5 0 0 0 320.9 150.6" id="94,19" style="stroke:rgb(89.4%,10.2%,11%);stroke-opacity:1.0" /><path d="M 538.5 91.5 L 519.6 147.1 A 293.5 293.5 0 0 1 529.1 150.6" id="93,18" style="stroke:rgb(89.4%,10.2%,11%);stroke-opacity:1.0" /><path d="M 561.2 100.2 L 538.5 154.3 A 293.5 293.5 0 0 0 529.1 150.6" id="93,17" style="stroke:rgb(89.4%,10.2%,11%);stroke-opacity:1.0" /><path d="M 583.3 110.3 L 556.9 162.8 A 293.5 293.5 0 0 1 615.8 202.0" id="92,16" style="stroke:rgb(89.4%,10.2%,11%);stroke-opacity:1.0" /><path d="M 604.6 122.0 L 574.7 172.5 A 293.5 293.5 0 0 1 615.8 202.0" id="92,15" style="stroke:rgb(89.4%,10.2%,11%);stroke-opacity:1.0" /><path d="M 625.1 135.1 L 591.7 183.4 A 293.5 293.5 0 0 1 615.8 202.0" id="92,14" style="stroke:rgb(89.4%,10.2%,11%);stroke-opacity:1.0" /><path d="M 644.6 149.6 L 608.0 195.5 A 293.5 293.5 0 0 1 615.8 202.0" id="92,13" style="stroke:rgb(89.4%,10.2%,11%);stroke-opacity:1.0" /><path d="M 663.1 165.4 L 623.4 208.7 A 293.5 293.5 0 0 0 615.8 202.0" id="92,12" style="stroke:rgb(89.4%,10.2%,11%);stroke-opacity:1.0" /><path d="M 680.4 182.5 L 637.9 222.9 A 293.5 293.5 0 0 0 615.8 202.0" id="92,11" style="stroke:rgb(89.4%,10.2%,11%);stroke-opacity:1.0" /><path d="M 696.6 200.7 L 651.3 238.1 A 293.5 293.5 0 0 0 615.8 202.0" id="92,10" style="stroke:rgb(89.4%,10.2%,11%);stroke-opacity:1.0" /><path d="M 711.4 219.9 L 663.7 254.1 A 293.5 293.5 0 0 0 615.8 202.0" id="92,9" style="stroke:rgb(89.4%,10.2%,11%);stroke-opacity:1.0" /><path d="M 724.8 240.2 L 674.9 271.0 A 293.5 293.5 0 0 1 707.4 345.0" id="91,8" style="stroke:rgb(89.4%,10.2%,11%);stroke-opacity:1.0" /><path d="M 736.9 261.3 L 684.9 288.6 A 293.5 293.5 0 0 1 707.4 345.0" id="91,7" style="stroke:rgb(89.4%,10.2%,11%);stroke-opacity:1.0" /><path d="M 747.4 283.2 L 693.7 306.8 A 293.5 293.5 0 0 1 707.4 345.0" id="91,6" style="stroke:rgb(89.4%,10.2%,11%);stroke-opacity:1.0" /><path d="M 756.4 305.8 L 701.2 325.7 A 293.5 293.5 0 0 1 707.4 345.0" id="91,5" style="stroke:rgb(89.4%,10.2%,11%);stroke-opacity:1.0" /><path d="M 763.9 329.0 L 707.4 345.0 A 293.5 293.5 0 0 0 707.4 345.0" id="91,4" style="stroke:rgb(89.4%,10.2%,11%);stroke-opacity:1.0" /><path d="M 769.7 352.6 L 712.3 364.6 A 293.5 293.5 0 0 0 707.4 345.0" id="91,3" style="stroke:rgb(89.4%,10.2%,11%);stroke-opacity:1.0" /><path d="M 773.9 376.5 L 715.7 384.6 A 293.5 293.5 0 0 0 707.4 345.0" id="91,2" style="stroke:rgb(89.4%,10.2%,11%);stroke-opacity:1.0" /><path d="M 776.4 400.7 L 717.8 404.7 A 293.5 293.5 0 0 0 707.4 345.0" id="91,1" style="stroke:rgb(89.4%,10.2%,11%);stroke-opacity:1.0" /><path d="M 777.2 425.0 L 718.5 425.0 A 293.5 293.5 0 0 0 707.4 345.0" id="91,0" style="stroke:rgb(89.4%,10.2%,11%);stroke-opacity:1.0" /></g><g class="toytree-AlignEdges" style="stroke:rgb(66.3%,66.3%,66.3%);stroke-dasharray:2, 4;stroke-linecap:round;stroke-opacity:1.0;stroke-width:2"><path d="M 777.2 425.0 L 777.2 425.0" /><path d="M 776.4 400.7 L 776.4 400.7" /><path d="M 773.9 376.5 L 773.9 376.5" /><path d="M 769.7 352.6 L 769.7 352.6" /><path d="M 763.9 329.0 L 763.9 329.0" /><path d="M 756.4 305.8 L 756.4 305.8" /><path d="M 747.4 283.2 L 747.4 283.2" /><path d="M 736.9 261.3 L 736.9 261.3" /><path d="M 724.8 240.2 L 724.8 240.2" /><path d="M 711.4 219.9 L 711.4 219.9" /><path d="M 696.6 200.7 L 696.6 200.7" /><path d="M 680.4 182.5 L 680.4 182.5" /><path d="M 663.1 165.4 L 663.1 165.4" /><path d="M 644.6 149.6 L 644.6 149.6" /><path d="M 625.1 135.1 L 625.1 135.1" /><path d="M 604.6 122.0 L 604.6 122.0" /><path d="M 583.3 110.3 L 583.3 110.3" /><path d="M 561.2 100.2 L 561.2 100.2" /><path d="M 538.5 91.5 L 538.5 91.5" /><path d="M 515.2 84.5 L 515.2 84.5" /><path d="M 491.5 79.1 L 491.5 79.1" /><path d="M 467.5 75.3 L 467.5 75.3" /><path d="M 443.2 73.2 L 443.2 73.2" /><path d="M 418.9 72.8 L 418.9 72.8" /><path d="M 394.6 74.1 L 394.6 74.1" /><path d="M 370.5 77.0 L 370.5 77.0" /><path d="M 346.6 81.6 L 346.6 81.6" /><path d="M 323.1 87.8 L 323.1 87.8" /><path d="M 300.1 95.7 L 300.1 95.7" /><path d="M 277.7 105.1 L 277.7 105.1" /><path d="M 256.0 116.0 L 256.0 116.0" /><path d="M 235.0 128.4 L 235.0 128.4" /><path d="M 215.0 142.2 L 215.0 142.2" /><path d="M 196.0 157.4 L 196.0 157.4" /><path d="M 178.1 173.8 L 178.1 173.8" /><path d="M 161.4 191.4 L 161.4 191.4" /><path d="M 145.9 210.2 L 145.9 210.2" /><path d="M 131.7 229.9 L 131.7 229.9" /><path d="M 119.0 250.6 L 119.0 250.6" /><path d="M 107.7 272.2 L 107.7 272.2" /><path d="M 97.9 294.4 L 97.9 294.4" /><path d="M 89.6 317.3 L 89.6 317.3" /><path d="M 83.0 340.7 L 83.0 340.7" /><path d="M 78.0 364.5 L 78.0 364.5" /><path d="M 74.7 388.6 L 74.7 388.6" /><path d="M 73.0 412.8 L 73.0 412.8" /><path d="M 73.0 437.2 L 73.0 437.2" /><path d="M 74.7 461.4 L 74.7 461.4" /><path d="M 78.0 485.5 L 78.0 485.5" /><path d="M 83.0 509.3 L 83.0 509.3" /><path d="M 89.6 532.7 L 89.6 532.7" /><path d="M 97.9 555.6 L 97.9 555.6" /><path d="M 107.7 577.8 L 107.7 577.8" /><path d="M 119.0 599.4 L 119.0 599.4" /><path d="M 131.7 620.1 L 131.7 620.1" /><path d="M 145.9 639.8 L 145.9 639.8" /><path d="M 161.4 658.6 L 161.4 658.6" /><path d="M 178.1 676.2 L 178.1 676.2" /><path d="M 196.0 692.6 L 196.0 692.6" /><path d="M 215.0 707.8 L 215.0 707.8" /><path d="M 235.0 721.6 L 235.0 721.6" /><path d="M 256.0 734.0 L 256.0 734.0" /><path d="M 277.7 744.9 L 277.7 744.9" /><path d="M 300.1 754.3 L 300.1 754.3" /><path d="M 323.1 762.2 L 323.1 762.2" /><path d="M 346.6 768.4 L 346.6 768.4" /><path d="M 370.5 773.0 L 370.5 773.0" /><path d="M 394.6 775.9 L 394.6 775.9" /><path d="M 418.9 777.2 L 418.9 777.2" /><path d="M 443.2 776.8 L 443.2 776.8" /><path d="M 467.5 774.7 L 467.5 774.7" /><path d="M 491.5 770.9 L 491.5 770.9" /><path d="M 515.2 765.5 L 515.2 765.5" /><path d="M 538.5 758.5 L 538.5 758.5" /><path d="M 561.2 749.8 L 561.2 749.8" /><path d="M 583.3 739.7 L 583.3 739.7" /><path d="M 604.6 728.0 L 604.6 728.0" /><path d="M 625.1 714.9 L 625.1 714.9" /><path d="M 644.6 700.4 L 644.6 700.4" /><path d="M 663.1 684.6 L 663.1 684.6" /><path d="M 680.4 667.5 L 680.4 667.5" /><path d="M 696.6 649.3 L 696.6 649.3" /><path d="M 711.4 630.1 L 711.4 630.1" /><path d="M 724.8 609.8 L 724.8 609.8" /><path d="M 736.9 588.7 L 736.9 588.7" /><path d="M 747.4 566.8 L 747.4 566.8" /><path d="M 756.4 544.2 L 756.4 544.2" /><path d="M 763.9 521.0 L 763.9 521.0" /><path d="M 769.7 497.4 L 769.7 497.4" /><path d="M 773.9 473.5 L 773.9 473.5" /><path d="M 776.4 449.3 L 776.4 449.3" /></g><g class="toytree-Nodes" style="fill:rgb(40%,76.1%,64.7%);fill-opacity:1.0;stroke:rgb(0%,0%,0%);stroke-opacity:1.0;stroke-width:1"><g fill="rgb(100%,100%,100%)" fill-opacity="1.0" id="node-0" transform="translate(777.230,425.000)"><circle r="6.7935943060498225" /></g><g fill="rgb(100%,100%,100%)" fill-opacity="1.0" id="node-1" transform="translate(776.391,400.699)"><circle r="6.594306049822064" /></g><g fill="rgb(0%,100%,100%)" fill-opacity="1.0" id="node-2" transform="translate(773.877,376.515)"><circle r="0.0" /></g><g fill="rgb(0%,100%,100%)" fill-opacity="1.0" id="node-3" transform="translate(769.701,352.561)"><circle r="0.0" /></g><g fill="rgb(0%,100%,100%)" fill-opacity="1.0" id="node-4" transform="translate(763.882,328.953)"><circle r="0.0" /></g><g fill="rgb(0%,100%,100%)" fill-opacity="1.0" id="node-5" transform="translate(756.448,305.802)"><circle r="0.0" /></g><g fill="rgb(0%,100%,100%)" fill-opacity="1.0" id="node-6" transform="translate(747.434,283.219)"><circle r="0.0" /></g><g fill="rgb(0%,100%,100%)" fill-opacity="1.0" id="node-7" transform="translate(736.884,261.312)"><circle r="0.0" /></g><g fill="rgb(0%,100%,100%)" fill-opacity="1.0" id="node-8" transform="translate(724.848,240.185)"><circle r="0.0" /></g><g fill="rgb(0%,100%,100%)" fill-opacity="1.0" id="node-9" transform="translate(711.383,219.939)"><circle r="0.0" /></g><g fill="rgb(0%,100%,100%)" fill-opacity="1.0" id="node-10" transform="translate(696.553,200.670)"><circle r="0.0" /></g><g fill="rgb(0%,100%,100%)" fill-opacity="1.0" id="node-11" transform="translate(680.429,182.470)"><circle r="0.0" /></g><g fill="rgb(0%,100%,100%)" fill-opacity="1.0" id="node-12" transform="translate(663.088,165.425)"><circle r="0.0" /></g><g fill="rgb(0%,100%,100%)" fill-opacity="1.0" id="node-13" transform="translate(644.612,149.618)"><circle r="0.0" /></g><g fill="rgb(0%,100%,100%)" fill-opacity="1.0" id="node-14" transform="translate(625.089,135.123)"><circle r="0.0" /></g><g fill="rgb(0%,100%,100%)" fill-opacity="1.0" id="node-15" transform="translate(604.614,122.009)"><circle r="0.0" /></g><g fill="rgb(0%,100%,100%)" fill-opacity="1.0" id="node-16" transform="translate(583.282,110.340)"><circle r="0.0" /></g><g fill="rgb(0%,100%,100%)" fill-opacity="1.0" id="node-17" transform="translate(561.196,100.169)"><circle r="0.0" /></g><g fill="rgb(0%,100%,100%)" fill-opacity="1.0" id="node-18" transform="translate(538.461,91.547)"><circle r="0.0" /></g><g fill="rgb(0%,100%,100%)" fill-opacity="1.0" id="node-19" transform="translate(515.185,84.514)"><circle r="0.0" /></g><g fill="rgb(0%,100%,100%)" fill-opacity="1.0" id="node-20" transform="translate(491.479,79.103)"><circle r="0.0" /></g><g fill="rgb(100%,100%,100%)" fill-opacity="1.0" id="node-21" transform="translate(467.457,75.341)"><circle r="9.341637010676155" /></g><g fill="rgb(0%,100%,100%)" fill-opacity="1.0" id="node-22" transform="translate(443.232,73.245)"><circle r="0.0" /></g><g fill="rgb(0%,100%,100%)" fill-opacity="1.0" id="node-23" transform="translate(418.920,72.826)"><circle r="0.0" /></g><g fill="rgb(0%,100%,100%)" fill-opacity="1.0" id="node-24" transform="translate(394.638,74.084)"><circle r="0.0" /></g><g fill="rgb(0%,100%,100%)" fill-opacity="1.0" id="node-25" transform="translate(370.500,77.015)"><circle r="0.0" /></g><g fill="rgb(0%,100%,100%)" fill-opacity="1.0" id="node-26" transform="translate(346.621,81.604)"><circle r="0.0" /></g><g fill="rgb(0%,100%,100%)" fill-opacity="1.0" id="node-27" transform="translate(323.117,87.830)"><circle r="0.0" /></g><g fill="rgb(0%,100%,100%)" fill-opacity="1.0" id="node-28" transform="translate(300.097,95.662)"><circle r="0.0" /></g><g fill="rgb(0%,100%,100%)" fill-opacity="1.0" id="node-29" transform="translate(277.674,105.064)"><circle r="0.0" /></g><g fill="rgb(0%,100%,100%)" fill-opacity="1.0" id="node-30" transform="translate(255.952,115.990)"><circle r="0.0" /></g><g fill="rgb(0%,100%,100%)" fill-opacity="1.0" id="node-31" transform="translate(235.035,128.389)"><circle r="0.0" /></g><g fill="rgb(0%,100%,100%)" fill-opacity="1.0" id="node-32" transform="translate(215.024,142.202)"><circle r="0.0" /></g><g fill="rgb(0%,100%,100%)" fill-opacity="1.0" id="node-33" transform="translate(196.014,157.362)"><circle r="0.0" /></g><g fill="rgb(0%,100%,100%)" fill-opacity="1.0" id="node-34" transform="translate(178.095,173.798)"><circle r="0.0" /></g><g fill="rgb(0%,100%,100%)" fill-opacity="1.0" id="node-35" transform="translate(161.352,191.430)"><circle r="0.0" /></g><g fill="rgb(0%,100%,100%)" fill-opacity="1.0" id="node-36" transform="translate(145.866,210.176)"><circle r="0.0" /></g><g fill="rgb(0%,100%,100%)" fill-opacity="1.0" id="node-37" transform="translate(131.710,229.946)"><circle r="0.0" /></g><g fill="rgb(0%,100%,100%)" fill-opacity="1.0" id="node-38" transform="translate(118.952,250.645)"><circle r="0.0" /></g><g fill="rgb(0%,100%,100%)" fill-opacity="1.0" id="node-39" transform="translate(107.652,272.174)"><circle r="0.0" /></g><g fill="rgb(0%,100%,100%)" fill-opacity="1.0" id="node-40" transform="translate(97.864,294.433)"><circle r="0.0" /></g><g fill="rgb(0%,100%,100%)" fill-opacity="1.0" id="node-41" transform="translate(89.636,317.313)"><circle r="0.0" /></g><g fill="rgb(0%,100%,100%)" fill-opacity="1.0" id="node-42" transform="translate(83.005,340.707)"><circle r="0.0" /></g><g fill="rgb(0%,100%,100%)" fill-opacity="1.0" id="node-43" transform="translate(78.004,364.502)"><circle r="0.0" /></g><g fill="rgb(0%,100%,100%)" fill-opacity="1.0" id="node-44" transform="translate(74.657,388.585)"><circle r="0.0" /></g><g fill="rgb(0%,100%,100%)" fill-opacity="1.0" id="node-45" transform="translate(72.980,412.842)"><circle r="0.0" /></g><g fill="rgb(0%,100%,100%)" fill-opacity="1.0" id="node-46" transform="translate(72.980,437.158)"><circle r="0.0" /></g><g fill="rgb(0%,100%,100%)" fill-opacity="1.0" id="node-47" transform="translate(74.657,461.415)"><circle r="0.0" /></g><g fill="rgb(0%,100%,100%)" fill-opacity="1.0" id="node-48" transform="translate(78.004,485.498)"><circle r="0.0" /></g><g fill="rgb(0%,100%,100%)" fill-opacity="1.0" id="node-49" transform="translate(83.005,509.293)"><circle r="0.0" /></g><g fill="rgb(0%,100%,100%)" fill-opacity="1.0" id="node-50" transform="translate(89.636,532.687)"><circle r="0.0" /></g><g fill="rgb(0%,100%,100%)" fill-opacity="1.0" id="node-51" transform="translate(97.864,555.567)"><circle r="0.0" /></g><g fill="rgb(0%,100%,100%)" fill-opacity="1.0" id="node-52" transform="translate(107.652,577.826)"><circle r="0.0" /></g><g fill="rgb(0%,100%,100%)" fill-opacity="1.0" id="node-53" transform="translate(118.952,599.355)"><circle r="0.0" /></g><g fill="rgb(0%,100%,100%)" fill-opacity="1.0" id="node-54" transform="translate(131.710,620.054)"><circle r="0.0" /></g><g fill="rgb(0%,100%,100%)" fill-opacity="1.0" id="node-55" transform="translate(145.866,639.824)"><circle r="0.0" /></g><g fill="rgb(0%,100%,100%)" fill-opacity="1.0" id="node-56" transform="translate(161.352,658.570)"><circle r="0.0" /></g><g fill="rgb(0%,100%,100%)" fill-opacity="1.0" id="node-57" transform="translate(178.095,676.202)"><circle r="0.0" /></g><g fill="rgb(0%,100%,100%)" fill-opacity="1.0" id="node-58" transform="translate(196.014,692.638)"><circle r="0.0" /></g><g fill="rgb(0%,100%,100%)" fill-opacity="1.0" id="node-59" transform="translate(215.024,707.798)"><circle r="0.0" /></g><g fill="rgb(0%,100%,100%)" fill-opacity="1.0" id="node-60" transform="translate(235.035,721.611)"><circle r="0.0" /></g><g fill="rgb(0%,100%,100%)" fill-opacity="1.0" id="node-61" transform="translate(255.952,734.010)"><circle r="0.0" /></g><g fill="rgb(0%,100%,100%)" fill-opacity="1.0" id="node-62" transform="translate(277.674,744.936)"><circle r="0.0" /></g><g fill="rgb(100%,100%,100%)" fill-opacity="1.0" id="node-63" transform="translate(300.097,754.338)"><circle r="6.779359430604982" /></g><g fill="rgb(100%,100%,100%)" fill-opacity="1.0" id="node-64" transform="translate(323.117,762.170)"><circle r="7.93950177935943" /></g><g fill="rgb(0%,100%,100%)" fill-opacity="1.0" id="node-65" transform="translate(346.621,768.396)"><circle r="0.0" /></g><g fill="rgb(0%,100%,100%)" fill-opacity="1.0" id="node-66" transform="translate(370.500,772.985)"><circle r="0.0" /></g><g fill="rgb(0%,100%,100%)" fill-opacity="1.0" id="node-67" transform="translate(394.638,775.916)"><circle r="0.0" /></g><g fill="rgb(0%,100%,100%)" fill-opacity="1.0" id="node-68" transform="translate(418.920,777.174)"><circle r="0.0" /></g><g fill="rgb(0%,100%,100%)" fill-opacity="1.0" id="node-69" transform="translate(443.232,776.755)"><circle r="0.0" /></g><g fill="rgb(0%,100%,100%)" fill-opacity="1.0" id="node-70" transform="translate(467.457,774.659)"><circle r="0.0" /></g><g fill="rgb(0%,100%,100%)" fill-opacity="1.0" id="node-71" transform="translate(491.479,770.897)"><circle r="0.0" /></g><g fill="rgb(0%,100%,100%)" fill-opacity="1.0" id="node-72" transform="translate(515.185,765.486)"><circle r="0.0" /></g><g fill="rgb(0%,100%,100%)" fill-opacity="1.0" id="node-73" transform="translate(538.461,758.453)"><circle r="0.0" /></g><g fill="rgb(0%,100%,100%)" fill-opacity="1.0" id="node-74" transform="translate(561.196,749.831)"><circle r="0.0" /></g><g fill="rgb(100%,100%,100%)" fill-opacity="1.0" id="node-75" transform="translate(583.282,739.660)"><circle r="12.124555160142346" /></g><g fill="rgb(100%,100%,100%)" fill-opacity="1.0" id="node-76" transform="translate(604.614,727.991)"><circle r="11.014234875444838" /></g><g fill="rgb(0%,100%,100%)" fill-opacity="1.0" id="node-77" transform="translate(625.089,714.877)"><circle r="0.0" /></g><g fill="rgb(0%,100%,100%)" fill-opacity="1.0" id="node-78" transform="translate(644.612,700.382)"><circle r="0.0" /></g><g fill="rgb(0%,100%,100%)" fill-opacity="1.0" id="node-79" transform="translate(663.088,684.575)"><circle r="0.0" /></g><g fill="rgb(0%,100%,100%)" fill-opacity="1.0" id="node-80" transform="translate(680.429,667.530)"><circle r="0.0" /></g><g fill="rgb(0%,100%,100%)" fill-opacity="1.0" id="node-81" transform="translate(696.553,649.330)"><circle r="0.0" /></g><g fill="rgb(0%,100%,100%)" fill-opacity="1.0" id="node-82" transform="translate(711.383,630.061)"><circle r="0.0" /></g><g fill="rgb(0%,100%,100%)" fill-opacity="1.0" id="node-83" transform="translate(724.848,609.815)"><circle r="0.0" /></g><g fill="rgb(0%,100%,100%)" fill-opacity="1.0" id="node-84" transform="translate(736.884,588.688)"><circle r="0.0" /></g><g fill="rgb(0%,100%,100%)" fill-opacity="1.0" id="node-85" transform="translate(747.434,566.781)"><circle r="0.0" /></g><g fill="rgb(0%,100%,100%)" fill-opacity="1.0" id="node-86" transform="translate(756.448,544.198)"><circle r="0.0" /></g><g fill="rgb(0%,100%,100%)" fill-opacity="1.0" id="node-87" transform="translate(763.882,521.047)"><circle r="0.0" /></g><g fill="rgb(0%,100%,100%)" fill-opacity="1.0" id="node-88" transform="translate(769.701,497.439)"><circle r="0.0" /></g><g fill="rgb(0%,100%,100%)" fill-opacity="1.0" id="node-89" transform="translate(773.877,473.485)"><circle r="0.0" /></g><g fill="rgb(0%,100%,100%)" fill-opacity="1.0" id="node-90" transform="translate(776.391,449.301)"><circle r="0.0" /></g><g fill="rgb(100%,100%,100%)" fill-opacity="1.0" id="node-91" transform="translate(707.401,344.960)"><circle r="7.419928825622776" /></g><g fill="rgb(0%,100%,100%)" fill-opacity="1.0" id="node-92" transform="translate(615.822,201.968)"><circle r="0.0" /></g><g fill="rgb(0%,100%,100%)" fill-opacity="1.0" id="node-93" transform="translate(529.085,150.552)"><circle r="0.0" /></g><g fill="rgb(0%,100%,100%)" fill-opacity="1.0" id="node-94" transform="translate(320.915,150.552)"><circle r="0.0" /></g><g fill="rgb(0%,100%,100%)" fill-opacity="1.0" id="node-95" transform="translate(160.543,297.645)"><circle r="0.0" /></g><g fill="rgb(0%,100%,100%)" fill-opacity="1.0" id="node-96" transform="translate(145.530,335.261)"><circle r="0.0" /></g><g fill="rgb(0%,100%,100%)" fill-opacity="1.0" id="node-97" transform="translate(137.749,364.634)"><circle r="0.0" /></g><g fill="rgb(0%,100%,100%)" fill-opacity="1.0" id="node-98" transform="translate(133.048,394.654)"><circle r="0.0" /></g><g fill="rgb(0%,100%,100%)" fill-opacity="1.0" id="node-99" transform="translate(131.650,414.869)"><circle r="0.0" /></g><g fill="rgb(0%,100%,100%)" fill-opacity="1.0" id="node-100" transform="translate(131.650,435.131)"><circle r="0.0" /></g><g fill="rgb(0%,100%,100%)" fill-opacity="1.0" id="node-101" transform="translate(140.004,495.245)"><circle r="0.0" /></g><g fill="rgb(0%,100%,100%)" fill-opacity="1.0" id="node-102" transform="translate(175.127,579.013)"><circle r="0.0" /></g><g fill="rgb(0%,100%,100%)" fill-opacity="1.0" id="node-103" transform="translate(205.293,619.641)"><circle r="0.0" /></g><g fill="rgb(0%,100%,100%)" fill-opacity="1.0" id="node-104" transform="translate(219.245,634.335)"><circle r="0.0" /></g><g fill="rgb(0%,100%,100%)" fill-opacity="1.0" id="node-105" transform="translate(234.178,648.032)"><circle r="0.0" /></g><g fill="rgb(0%,100%,100%)" fill-opacity="1.0" id="node-106" transform="translate(266.696,672.175)"><circle r="0.0" /></g><g fill="rgb(0%,100%,100%)" fill-opacity="1.0" id="node-107" transform="translate(311.504,695.692)"><circle r="0.0" /></g><g fill="rgb(0%,100%,100%)" fill-opacity="1.0" id="node-108" transform="translate(379.583,714.987)"><circle r="0.0" /></g><g fill="rgb(0%,100%,100%)" fill-opacity="1.0" id="node-109" transform="translate(450.302,717.430)"><circle r="0.0" /></g><g fill="rgb(0%,100%,100%)" fill-opacity="1.0" id="node-110" transform="translate(490.315,711.163)"><circle r="0.0" /></g><g fill="rgb(0%,100%,100%)" fill-opacity="1.0" id="node-111" transform="translate(529.085,699.448)"><circle r="0.0" /></g><g fill="rgb(0%,100%,100%)" fill-opacity="1.0" id="node-112" transform="translate(556.901,687.217)"><circle r="0.0" /></g><g fill="rgb(0%,100%,100%)" fill-opacity="1.0" id="node-113" transform="translate(574.678,677.492)"><circle r="0.0" /></g><g fill="rgb(0%,100%,100%)" fill-opacity="1.0" id="node-114" transform="translate(623.406,641.312)"><circle r="0.0" /></g><g fill="rgb(0%,100%,100%)" fill-opacity="1.0" id="node-115" transform="translate(663.652,595.884)"><circle r="0.0" /></g><g fill="rgb(0%,100%,100%)" fill-opacity="1.0" id="node-116" transform="translate(674.873,579.013)"><circle r="0.0" /></g><g fill="rgb(0%,100%,100%)" fill-opacity="1.0" id="node-117" transform="translate(693.695,543.151)"><circle r="0.0" /></g><g fill="rgb(0%,100%,100%)" fill-opacity="1.0" id="node-118" transform="translate(709.996,495.245)"><circle r="0.0" /></g><g fill="rgb(0%,100%,100%)" fill-opacity="1.0" id="node-119" transform="translate(715.731,465.404)"><circle r="0.0" /></g><g fill="rgb(0%,100%,100%)" fill-opacity="1.0" id="node-120" transform="translate(717.826,445.250)"><circle r="0.0" /></g><g fill="rgb(0%,100%,100%)" fill-opacity="1.0" id="node-121" transform="translate(591.520,259.437)"><circle r="0.0" /></g><g fill="rgb(0%,100%,100%)" fill-opacity="1.0" id="node-122" transform="translate(341.732,205.441)"><circle r="0.0" /></g><g fill="rgb(0%,100%,100%)" fill-opacity="1.0" id="node-123" transform="translate(206.909,337.955)"><circle r="0.0" /></g><g fill="rgb(0%,100%,100%)" fill-opacity="1.0" id="node-124" transform="translate(195.200,376.707)"><circle r="0.0" /></g><g fill="rgb(0%,100%,100%)" fill-opacity="1.0" id="node-125" transform="translate(191.438,400.724)"><circle r="0.0" /></g><g fill="rgb(0%,100%,100%)" fill-opacity="1.0" id="node-126" transform="translate(190.320,416.895)"><circle r="0.0" /></g><g fill="rgb(0%,100%,100%)" fill-opacity="1.0" id="node-127" transform="translate(190.320,433.105)"><circle r="0.0" /></g><g fill="rgb(0%,100%,100%)" fill-opacity="1.0" id="node-128" transform="translate(208.444,515.796)"><circle r="0.0" /></g><g fill="rgb(0%,100%,100%)" fill-opacity="1.0" id="node-129" transform="translate(260.396,592.468)"><circle r="0.0" /></g><g fill="rgb(0%,100%,100%)" fill-opacity="1.0" id="node-130" transform="translate(298.357,622.740)"><circle r="0.0" /></g><g fill="rgb(0%,100%,100%)" fill-opacity="1.0" id="node-131" transform="translate(334.203,641.554)"><circle r="0.0" /></g><g fill="rgb(0%,100%,100%)" fill-opacity="1.0" id="node-132" transform="translate(483.816,652.333)"><circle r="0.0" /></g><g fill="rgb(0%,100%,100%)" fill-opacity="1.0" id="node-133" transform="translate(609.429,570.348)"><circle r="0.0" /></g><g fill="rgb(0%,100%,100%)" fill-opacity="1.0" id="node-134" transform="translate(647.304,500.640)"><circle r="0.0" /></g><g fill="rgb(0%,100%,100%)" fill-opacity="1.0" id="node-135" transform="translate(657.585,457.324)"><circle r="0.0" /></g><g fill="rgb(0%,100%,100%)" fill-opacity="1.0" id="node-136" transform="translate(659.261,441.200)"><circle r="0.0" /></g><g fill="rgb(0%,100%,100%)" fill-opacity="1.0" id="node-137" transform="translate(280.473,324.361)"><circle r="0.0" /></g><g fill="rgb(0%,100%,100%)" fill-opacity="1.0" id="node-138" transform="translate(279.202,523.789)"><circle r="0.0" /></g><g fill="rgb(0%,100%,100%)" fill-opacity="1.0" id="node-139" transform="translate(343.155,580.941)"><circle r="0.0" /></g><g fill="rgb(0%,100%,100%)" fill-opacity="1.0" id="node-140" transform="translate(469.112,595.500)"><circle r="0.0" /></g><g fill="rgb(0%,100%,100%)" fill-opacity="1.0" id="node-141" transform="translate(563.322,534.011)"><circle r="0.0" /></g><g fill="rgb(0%,100%,100%)" fill-opacity="1.0" id="node-142" transform="translate(596.355,465.669)"><circle r="0.0" /></g><g fill="rgb(0%,100%,100%)" fill-opacity="1.0" id="node-143" transform="translate(600.695,437.150)"><circle r="0.0" /></g><g fill="rgb(0%,100%,100%)" fill-opacity="1.0" id="node-144" transform="translate(315.044,466.167)"><circle r="0.0" /></g><g fill="rgb(0%,100%,100%)" fill-opacity="1.0" id="node-145" transform="translate(454.408,538.666)"><circle r="0.0" /></g><g fill="rgb(0%,100%,100%)" fill-opacity="1.0" id="node-146" transform="translate(517.215,497.674)"><circle r="0.0" /></g><g fill="rgb(0%,100%,100%)" fill-opacity="1.0" id="node-147" transform="translate(539.237,452.113)"><circle r="0.0" /></g><g fill="rgb(0%,100%,100%)" fill-opacity="1.0" id="node-148" transform="translate(542.130,433.100)"><circle r="0.0" /></g><g fill="rgb(0%,100%,100%)" fill-opacity="1.0" id="node-149" transform="translate(456.019,474.840)"><circle r="0.0" /></g><g fill="rgb(0%,100%,100%)" fill-opacity="1.0" id="node-150" transform="translate(425.000,425.000)"><circle r="0.0" /></g></g></g></g></g><g class="toyplot-coordinates-Cartesian" id="tf4f5dc12bba24d55ab5c0c0d0ade7fcf"><clipPath id="ta6f7dd5adce54dbf8f3f115487d87b5e"><rect x="50.0" y="50.0" width="750.0" height="50.0" /></clipPath><g clip-path="url(#ta6f7dd5adce54dbf8f3f115487d87b5e)" /><g transform="translate(425.0,42.0)"><text x="-62.446999999999996" y="-4.823" style="fill:rgb(16.1%,15.3%,14.1%);fill-opacity:1.0;font-family:helvetica;font-size:14.0px;font-weight:bold;stroke:none;vertical-align:baseline;white-space:pre">Healthy vs. IBS, =5</text></g></g><g class="toyplot-coordinates-Table" id="teaa2ed37dfa54cfba743ee64e1343a7f"><g transform="translate(900.0,275.0)"><text x="-25.284000000000002" y="-10.423" style="fill:rgb(16.1%,15.3%,14.1%);fill-opacity:1.0;font-family:helvetica;font-size:14.0px;font-weight:bold;stroke:none;vertical-align:baseline;white-space:pre">Phylum</text></g><g transform="translate(895.0,285.0)"><g style="fill:rgb(100%,49.8%,0%);fill-opacity:1.0" transform="translate(-5.55, -4.440892098500626e-16)"><circle r="4.0" /></g></g><g transform="translate(905.0,285.0)"><text x="0" y="3.066" style="fill:rgb(16.1%,15.3%,14.1%);fill-opacity:1.0;font-family:helvetica;font-size:12.0px;font-weight:normal;stroke:none;vertical-align:baseline;white-space:pre">Synergistota</text></g><g transform="translate(895.0,305.0)"><g style="fill:rgb(21.6%,49.4%,72.2%);fill-opacity:1.0" transform="translate(-5.55, -4.440892098500626e-16)"><circle r="4.0" /></g></g><g transform="translate(905.0,305.0)"><text x="0" y="3.066" style="fill:rgb(16.1%,15.3%,14.1%);fill-opacity:1.0;font-family:helvetica;font-size:12.0px;font-weight:normal;stroke:none;vertical-align:baseline;white-space:pre">Proteobacteria</text></g><g transform="translate(895.0,325.0)"><g style="fill:rgb(59.6%,30.6%,63.9%);fill-opacity:1.0" transform="translate(-5.55, -4.440892098500626e-16)"><circle r="4.0" /></g></g><g transform="translate(905.0,325.0)"><text x="0" y="3.066" style="fill:rgb(16.1%,15.3%,14.1%);fill-opacity:1.0;font-family:helvetica;font-size:12.0px;font-weight:normal;stroke:none;vertical-align:baseline;white-space:pre">Actinobacteriota</text></g><g transform="translate(895.0,345.0)"><g style="fill:rgb(30.2%,68.6%,29%);fill-opacity:1.0" transform="translate(-5.55, -4.440892098500626e-16)"><circle r="4.0" /></g></g><g transform="translate(905.0,345.0)"><text x="0" y="3.066" style="fill:rgb(16.1%,15.3%,14.1%);fill-opacity:1.0;font-family:helvetica;font-size:12.0px;font-weight:normal;stroke:none;vertical-align:baseline;white-space:pre">Bacteroidota</text></g><g transform="translate(895.0,365.0)"><g style="fill:rgb(89.4%,10.2%,11%);fill-opacity:1.0" transform="translate(-5.55, -4.440892098500626e-16)"><circle r="4.0" /></g></g><g transform="translate(905.0,365.0)"><text x="0" y="3.066" style="fill:rgb(16.1%,15.3%,14.1%);fill-opacity:1.0;font-family:helvetica;font-size:12.0px;font-weight:normal;stroke:none;vertical-align:baseline;white-space:pre">Firmicutes</text></g></g><g class="toyplot-coordinates-Table" id="t62973560da3a4c3ab8b5c1e261fff2da"><g transform="translate(900.0,425.0)"><text x="-59.899" y="-10.423" style="fill:rgb(16.1%,15.3%,14.1%);fill-opacity:1.0;font-family:helvetica;font-size:14.0px;font-weight:bold;stroke:none;vertical-align:baseline;white-space:pre">tascCODA Effects</text></g><g transform="translate(895.0,450.0)"><g style="fill:rgb(0%,0%,0%);fill-opacity:1.0" transform="translate(-5.55, -4.440892098500626e-16)"><circle r="10.0" /></g></g><g transform="translate(905.0,450.0)"><text x="0" y="3.066" style="fill:rgb(16.1%,15.3%,14.1%);fill-opacity:1.0;font-family:helvetica;font-size:12.0px;font-weight:normal;stroke:none;vertical-align:baseline;white-space:pre">1.405</text></g><g transform="translate(895.0,500.0)"><g style="fill:rgb(100%,100%,100%);fill-opacity:1.0" transform="translate(-5.55, -4.440892098500626e-16)"><circle r="10.0" /></g></g><g transform="translate(905.0,500.0)"><text x="0" y="3.066" style="fill:rgb(16.1%,15.3%,14.1%);fill-opacity:1.0;font-family:helvetica;font-size:12.0px;font-weight:normal;stroke:none;vertical-align:baseline;white-space:pre">-1.405</text></g></g></svg>