<svg class="toyplot-canvas-Canvas" xmlns:toyplot="http://www.sandia.gov/toyplot" xmlns:xlink="http://www.w3.org/1999/xlink" xmlns="http://www.w3.org/2000/svg" width="1000.0px" height="1000.0px" viewBox="0 0 1000.0 1000.0" preserveAspectRatio="xMidYMid meet" style="background-color:transparent;border-color:#292724;border-style:none;border-width:1.0;fill:rgb(16.1%,15.3%,14.1%);fill-opacity:1.0;font-family:Helvetica;font-size:12px;opacity:1.0;stroke:rgb(16.1%,15.3%,14.1%);stroke-opacity:1.0;stroke-width:1.0" id="t9a29536e12dc4c51950bc0b842c4ff68"><g class="toyplot-coordinates-Cartesian" id="td6e63ed4e2f34da1bc3c3c25372de1e0"><clipPath id="t4357f8d098fa49bfbb0fd42cd76a978f"><rect x="30.0" y="30.0" width="790.0" height="790.0" /></clipPath><g clip-path="url(#t4357f8d098fa49bfbb0fd42cd76a978f)"><g class="toytree-mark-Toytree" id="t8f2506a50fad45908e54c3d69fd5cb62"><g class="toytree-Edges" style="fill:none;stroke:rgb(14.9%,14.9%,14.9%);stroke-linecap:round;stroke-opacity:1;stroke-width:3"><path d="M 456.8 476.1 L 425.0 425.0 A -0.0 -0.0 0 0 0 425.0 425.0" id="150,149" style="stroke:rgb(0%,0%,0%);stroke-opacity:1.0" /><path d="M 545.1 433.3 L 485.0 429.2 A 60.2 60.2 0 0 1 456.8 476.1" id="149,148" style="stroke:rgb(100%,49.8%,0%);stroke-opacity:1.0" /><path d="M 542.1 452.8 L 483.6 438.9 A 60.2 60.2 0 0 1 456.8 476.1" id="149,147" style="stroke:rgb(21.6%,49.4%,72.2%);stroke-opacity:1.0" /><path d="M 519.5 499.5 L 472.3 462.3 A 60.2 60.2 0 0 1 456.8 476.1" id="149,146" style="stroke:rgb(59.6%,30.6%,63.9%);stroke-opacity:1.0" /><path d="M 455.1 541.5 L 440.1 483.3 A 60.2 60.2 0 0 0 456.8 476.1" id="149,145" style="stroke:rgb(30.2%,68.6%,29%);stroke-opacity:1.0" /><path d="M 312.3 467.2 L 368.6 446.1 A 60.2 60.2 0 0 0 456.8 476.1" id="149,144" style="stroke:rgb(89.4%,10.2%,11%);stroke-opacity:1.0" /><path d="M 605.1 437.5 L 545.1 433.3 A 120.4 120.4 0 0 1 545.1 433.3" id="148,143" style="stroke:rgb(100%,49.8%,0%);stroke-opacity:1.0" /><path d="M 600.7 466.7 L 542.1 452.8 A 120.4 120.4 0 0 1 542.1 452.8" id="147,142" style="stroke:rgb(21.6%,49.4%,72.2%);stroke-opacity:1.0" /><path d="M 566.8 536.8 L 519.5 499.5 A 120.4 120.4 0 0 1 519.5 499.5" id="146,141" style="stroke:rgb(59.6%,30.6%,63.9%);stroke-opacity:1.0" /><path d="M 470.2 599.8 L 455.1 541.5 A 120.4 120.4 0 0 1 455.1 541.5" id="145,140" style="stroke:rgb(30.2%,68.6%,29%);stroke-opacity:1.0" /><path d="M 341.1 584.9 L 369.1 531.6 A 120.4 120.4 0 0 1 312.3 467.2" id="144,139" style="stroke:rgb(89.4%,10.2%,11%);stroke-opacity:1.0" /><path d="M 275.5 526.3 L 325.4 492.5 A 120.4 120.4 0 0 1 312.3 467.2" id="144,138" style="stroke:rgb(89.4%,10.2%,11%);stroke-opacity:1.0" /><path d="M 276.8 321.8 L 326.2 356.2 A 120.4 120.4 0 0 0 312.3 467.2" id="144,137" style="stroke:rgb(89.4%,10.2%,11%);stroke-opacity:1.0" /><path d="M 665.1 441.6 L 605.1 437.5 A 180.5 180.5 0 0 1 605.1 437.5" id="143,136" style="stroke:rgb(100%,49.8%,0%);stroke-opacity:1.0" /><path d="M 663.4 458.1 L 603.8 449.9 A 180.5 180.5 0 0 1 600.7 466.7" id="142,135" style="stroke:rgb(21.6%,49.4%,72.2%);stroke-opacity:1.0" /><path d="M 652.9 502.5 L 595.9 483.2 A 180.5 180.5 0 0 0 600.7 466.7" id="142,134" style="stroke:rgb(21.6%,49.4%,72.2%);stroke-opacity:1.0" /><path d="M 614.1 574.0 L 566.8 536.8 A 180.5 180.5 0 0 1 566.8 536.8" id="141,133" style="stroke:rgb(59.6%,30.6%,63.9%);stroke-opacity:1.0" /><path d="M 485.3 658.0 L 470.2 599.8 A 180.5 180.5 0 0 1 470.2 599.8" id="140,132" style="stroke:rgb(30.2%,68.6%,29%);stroke-opacity:1.0" /><path d="M 331.9 647.0 L 355.2 591.5 A 180.5 180.5 0 0 1 341.1 584.9" id="139,131" style="stroke:rgb(89.4%,10.2%,11%);stroke-opacity:1.0" /><path d="M 295.2 627.7 L 327.6 577.0 A 180.5 180.5 0 0 0 341.1 584.9" id="139,130" style="stroke:rgb(89.4%,10.2%,11%);stroke-opacity:1.0" /><path d="M 256.3 596.7 L 298.4 553.8 A 180.5 180.5 0 0 1 275.5 526.3" id="138,129" style="stroke:rgb(89.4%,10.2%,11%);stroke-opacity:1.0" /><path d="M 203.0 518.1 L 258.5 494.8 A 180.5 180.5 0 0 0 275.5 526.3" id="138,128" style="stroke:rgb(89.4%,10.2%,11%);stroke-opacity:1.0" /><path d="M 184.4 433.3 L 244.6 431.2 A 180.5 180.5 0 0 1 276.8 321.8" id="137,127" style="stroke:rgb(89.4%,10.2%,11%);stroke-opacity:1.0" /><path d="M 184.4 416.7 L 244.6 418.8 A 180.5 180.5 0 0 1 276.8 321.8" id="137,126" style="stroke:rgb(89.4%,10.2%,11%);stroke-opacity:1.0" /><path d="M 185.6 400.1 L 245.4 406.3 A 180.5 180.5 0 0 1 276.8 321.8" id="137,125" style="stroke:rgb(89.4%,10.2%,11%);stroke-opacity:1.0" /><path d="M 189.4 375.5 L 248.3 387.9 A 180.5 180.5 0 0 1 276.8 321.8" id="137,124" style="stroke:rgb(89.4%,10.2%,11%);stroke-opacity:1.0" /><path d="M 201.4 335.8 L 257.3 358.1 A 180.5 180.5 0 0 1 276.8 321.8" id="137,123" style="stroke:rgb(89.4%,10.2%,11%);stroke-opacity:1.0" /><path d="M 339.6 199.9 L 361.0 256.2 A 180.5 180.5 0 0 0 276.8 321.8" id="137,122" style="stroke:rgb(89.4%,10.2%,11%);stroke-opacity:1.0" /><path d="M 595.7 255.3 L 553.0 297.7 A 180.5 180.5 0 0 0 276.8 321.8" id="137,121" style="stroke:rgb(89.4%,10.2%,11%);stroke-opacity:1.0" /><path d="M 725.2 445.8 L 665.1 441.6 A 240.7 240.7 0 0 1 665.1 441.6" id="136,120" style="stroke:rgb(100%,49.8%,0%);stroke-opacity:1.0" /><path d="M 723.0 466.4 L 663.4 458.1 A 240.7 240.7 0 0 1 663.4 458.1" id="135,119" style="stroke:rgb(21.6%,49.4%,72.2%);stroke-opacity:1.0" /><path d="M 717.2 497.0 L 658.7 482.6 A 240.7 240.7 0 0 1 652.9 502.5" id="134,118" style="stroke:rgb(21.6%,49.4%,72.2%);stroke-opacity:1.0" /><path d="M 700.5 546.1 L 645.4 521.9 A 240.7 240.7 0 0 0 652.9 502.5" id="134,117" style="stroke:rgb(21.6%,49.4%,72.2%);stroke-opacity:1.0" /><path d="M 681.2 582.9 L 629.9 551.3 A 240.7 240.7 0 0 1 614.1 574.0" id="133,116" style="stroke:rgb(59.6%,30.6%,63.9%);stroke-opacity:1.0" /><path d="M 669.7 600.2 L 620.7 565.1 A 240.7 240.7 0 0 1 614.1 574.0" id="133,115" style="stroke:rgb(59.6%,30.6%,63.9%);stroke-opacity:1.0" /><path d="M 628.4 646.8 L 587.7 602.4 A 240.7 240.7 0 0 0 614.1 574.0" id="133,114" style="stroke:rgb(59.6%,30.6%,63.9%);stroke-opacity:1.0" /><path d="M 578.4 683.8 L 547.8 632.1 A 240.7 240.7 0 0 1 485.3 658.0" id="132,113" style="stroke:rgb(30.2%,68.6%,29%);stroke-opacity:1.0" /><path d="M 560.2 693.8 L 533.2 640.0 A 240.7 240.7 0 0 1 485.3 658.0" id="132,112" style="stroke:rgb(30.2%,68.6%,29%);stroke-opacity:1.0" /><path d="M 531.7 706.3 L 510.4 650.1 A 240.7 240.7 0 0 1 485.3 658.0" id="132,111" style="stroke:rgb(30.2%,68.6%,29%);stroke-opacity:1.0" /><path d="M 492.0 718.4 L 478.6 659.7 A 240.7 240.7 0 0 0 485.3 658.0" id="132,110" style="stroke:rgb(30.2%,68.6%,29%);stroke-opacity:1.0" /><path d="M 450.9 724.8 L 445.8 664.8 A 240.7 240.7 0 0 0 485.3 658.0" id="132,109" style="stroke:rgb(30.2%,68.6%,29%);stroke-opacity:1.0" /><path d="M 378.4 722.3 L 387.8 662.8 A 240.7 240.7 0 0 0 485.3 658.0" id="132,108" style="stroke:rgb(30.2%,68.6%,29%);stroke-opacity:1.0" /><path d="M 308.7 702.5 L 331.9 647.0 A 240.7 240.7 0 0 0 331.9 647.0" id="131,107" style="stroke:rgb(89.4%,10.2%,11%);stroke-opacity:1.0" /><path d="M 262.7 678.4 L 295.2 627.7 A 240.7 240.7 0 0 0 295.2 627.7" id="130,106" style="stroke:rgb(89.4%,10.2%,11%);stroke-opacity:1.0" /><path d="M 229.4 653.6 L 268.5 607.9 A 240.7 240.7 0 0 1 256.3 596.7" id="129,105" style="stroke:rgb(89.4%,10.2%,11%);stroke-opacity:1.0" /><path d="M 214.1 639.6 L 256.3 596.7 A 240.7 240.7 0 0 0 256.3 596.7" id="129,104" style="stroke:rgb(89.4%,10.2%,11%);stroke-opacity:1.0" /><path d="M 199.8 624.5 L 244.8 584.6 A 240.7 240.7 0 0 0 256.3 596.7" id="129,103" style="stroke:rgb(89.4%,10.2%,11%);stroke-opacity:1.0" /><path d="M 168.8 582.9 L 220.1 551.3 A 240.7 240.7 0 0 1 203.0 518.1" id="128,102" style="stroke:rgb(89.4%,10.2%,11%);stroke-opacity:1.0" /><path d="M 132.8 497.0 L 191.3 482.6 A 240.7 240.7 0 0 0 203.0 518.1" id="128,101" style="stroke:rgb(89.4%,10.2%,11%);stroke-opacity:1.0" /><path d="M 124.3 435.4 L 184.4 433.3 A 240.7 240.7 0 0 0 184.4 433.3" id="127,100" style="stroke:rgb(89.4%,10.2%,11%);stroke-opacity:1.0" /><path d="M 124.3 414.6 L 184.4 416.7 A 240.7 240.7 0 0 1 184.4 416.7" id="126,99" style="stroke:rgb(89.4%,10.2%,11%);stroke-opacity:1.0" /><path d="M 125.7 393.9 L 185.6 400.1 A 240.7 240.7 0 0 1 185.6 400.1" id="125,98" style="stroke:rgb(89.4%,10.2%,11%);stroke-opacity:1.0" /><path d="M 130.5 363.1 L 189.4 375.5 A 240.7 240.7 0 0 1 189.4 375.5" id="124,97" style="stroke:rgb(89.4%,10.2%,11%);stroke-opacity:1.0" /><path d="M 138.5 333.0 L 195.8 351.4 A 240.7 240.7 0 0 1 201.4 335.8" id="123,96" style="stroke:rgb(89.4%,10.2%,11%);stroke-opacity:1.0" /><path d="M 153.9 294.4 L 208.1 320.6 A 240.7 240.7 0 0 0 201.4 335.8" id="123,95" style="stroke:rgb(89.4%,10.2%,11%);stroke-opacity:1.0" /><path d="M 318.3 143.7 L 339.6 199.9 A 240.7 240.7 0 0 1 339.6 199.9" id="122,94" style="stroke:rgb(89.4%,10.2%,11%);stroke-opacity:1.0" /><path d="M 531.7 143.7 L 510.4 199.9 A 240.7 240.7 0 0 1 595.7 255.3" id="121,93" style="stroke:rgb(89.4%,10.2%,11%);stroke-opacity:1.0" /><path d="M 620.6 196.4 L 581.5 242.1 A 240.7 240.7 0 0 1 595.7 255.3" id="121,92" style="stroke:rgb(89.4%,10.2%,11%);stroke-opacity:1.0" /><path d="M 714.5 342.9 L 656.6 359.4 A 240.7 240.7 0 0 0 595.7 255.3" id="121,91" style="stroke:rgb(89.4%,10.2%,11%);stroke-opacity:1.0" /><path d="M 785.2 449.9 L 725.2 445.8 A 300.9 300.9 0 0 1 725.2 445.8" id="120,90" style="stroke:rgb(100%,49.8%,0%);stroke-opacity:1.0" /><path d="M 782.6 474.7 L 723.0 466.4 A 300.9 300.9 0 0 1 723.0 466.4" id="119,89" style="stroke:rgb(21.6%,49.4%,72.2%);stroke-opacity:1.0" /><path d="M 778.4 499.3 L 719.5 486.9 A 300.9 300.9 0 0 1 717.2 497.0" id="118,88" style="stroke:rgb(21.6%,49.4%,72.2%);stroke-opacity:1.0" /><path d="M 772.4 523.5 L 714.5 507.1 A 300.9 300.9 0 0 0 717.2 497.0" id="118,87" style="stroke:rgb(21.6%,49.4%,72.2%);stroke-opacity:1.0" /><path d="M 764.8 547.2 L 708.2 526.8 A 300.9 300.9 0 0 1 700.5 546.1" id="117,86" style="stroke:rgb(21.6%,49.4%,72.2%);stroke-opacity:1.0" /><path d="M 755.5 570.3 L 700.5 546.1 A 300.9 300.9 0 0 1 700.5 546.1" id="117,85" style="stroke:rgb(21.6%,49.4%,72.2%);stroke-opacity:1.0" /><path d="M 744.7 592.8 L 691.4 564.8 A 300.9 300.9 0 0 0 700.5 546.1" id="117,84" style="stroke:rgb(21.6%,49.4%,72.2%);stroke-opacity:1.0" /><path d="M 732.4 614.5 L 681.2 582.9 A 300.9 300.9 0 0 1 681.2 582.9" id="116,83" style="stroke:rgb(59.6%,30.6%,63.9%);stroke-opacity:1.0" /><path d="M 718.6 635.2 L 669.7 600.2 A 300.9 300.9 0 0 1 669.7 600.2" id="115,82" style="stroke:rgb(59.6%,30.6%,63.9%);stroke-opacity:1.0" /><path d="M 703.4 655.0 L 657.0 616.6 A 300.9 300.9 0 0 1 628.4 646.8" id="114,81" style="stroke:rgb(59.6%,30.6%,63.9%);stroke-opacity:1.0" /><path d="M 686.9 673.6 L 643.2 632.2 A 300.9 300.9 0 0 1 628.4 646.8" id="114,80" style="stroke:rgb(59.6%,30.6%,63.9%);stroke-opacity:1.0" /><path d="M 669.1 691.1 L 628.4 646.8 A 300.9 300.9 0 0 1 628.4 646.8" id="114,79" style="stroke:rgb(59.6%,30.6%,63.9%);stroke-opacity:1.0" /><path d="M 650.1 707.3 L 612.6 660.3 A 300.9 300.9 0 0 0 628.4 646.8" id="114,78" style="stroke:rgb(59.6%,30.6%,63.9%);stroke-opacity:1.0" /><path d="M 630.1 722.2 L 595.9 672.6 A 300.9 300.9 0 0 0 628.4 646.8" id="114,77" style="stroke:rgb(59.6%,30.6%,63.9%);stroke-opacity:1.0" /><path d="M 609.1 735.6 L 578.4 683.8 A 300.9 300.9 0 0 1 578.4 683.8" id="113,76" style="stroke:rgb(30.2%,68.6%,29%);stroke-opacity:1.0" /><path d="M 587.3 747.6 L 560.2 693.8 A 300.9 300.9 0 0 1 560.2 693.8" id="112,75" style="stroke:rgb(30.2%,68.6%,29%);stroke-opacity:1.0" /><path d="M 564.6 758.0 L 541.4 702.5 A 300.9 300.9 0 0 1 531.7 706.3" id="111,74" style="stroke:rgb(30.2%,68.6%,29%);stroke-opacity:1.0" /><path d="M 541.3 766.8 L 521.9 709.9 A 300.9 300.9 0 0 0 531.7 706.3" id="111,73" style="stroke:rgb(30.2%,68.6%,29%);stroke-opacity:1.0" /><path d="M 517.5 774.0 L 502.0 715.9 A 300.9 300.9 0 0 1 492.0 718.4" id="110,72" style="stroke:rgb(30.2%,68.6%,29%);stroke-opacity:1.0" /><path d="M 493.2 779.6 L 481.8 720.5 A 300.9 300.9 0 0 0 492.0 718.4" id="110,71" style="stroke:rgb(30.2%,68.6%,29%);stroke-opacity:1.0" /><path d="M 468.5 783.5 L 461.3 723.7 A 300.9 300.9 0 0 1 450.9 724.8" id="109,70" style="stroke:rgb(30.2%,68.6%,29%);stroke-opacity:1.0" /><path d="M 443.7 785.6 L 440.6 725.5 A 300.9 300.9 0 0 0 450.9 724.8" id="109,69" style="stroke:rgb(30.2%,68.6%,29%);stroke-opacity:1.0" /><path d="M 418.8 786.0 L 419.8 725.9 A 300.9 300.9 0 0 1 378.4 722.3" id="108,68" style="stroke:rgb(30.2%,68.6%,29%);stroke-opacity:1.0" /><path d="M 393.9 784.7 L 399.1 724.8 A 300.9 300.9 0 0 1 378.4 722.3" id="108,67" style="stroke:rgb(30.2%,68.6%,29%);stroke-opacity:1.0" /><path d="M 369.1 781.7 L 378.4 722.3 A 300.9 300.9 0 0 0 378.4 722.3" id="108,66" style="stroke:rgb(30.2%,68.6%,29%);stroke-opacity:1.0" /><path d="M 344.7 777.0 L 358.0 718.4 A 300.9 300.9 0 0 0 378.4 722.3" id="108,65" style="stroke:rgb(30.2%,68.6%,29%);stroke-opacity:1.0" /><path d="M 320.6 770.6 L 338.0 713.0 A 300.9 300.9 0 0 0 378.4 722.3" id="108,64" style="stroke:rgb(30.2%,68.6%,29%);stroke-opacity:1.0" /><path d="M 297.0 762.6 L 318.3 706.4 A 300.9 300.9 0 0 1 308.7 702.5" id="107,63" style="stroke:rgb(89.4%,10.2%,11%);stroke-opacity:1.0" /><path d="M 274.0 753.0 L 299.1 698.3 A 300.9 300.9 0 0 0 308.7 702.5" id="107,62" style="stroke:rgb(89.4%,10.2%,11%);stroke-opacity:1.0" /><path d="M 251.7 741.8 L 280.6 689.0 A 300.9 300.9 0 0 1 262.7 678.4" id="106,61" style="stroke:rgb(89.4%,10.2%,11%);stroke-opacity:1.0" /><path d="M 230.3 729.1 L 262.7 678.4 A 300.9 300.9 0 0 0 262.7 678.4" id="106,60" style="stroke:rgb(89.4%,10.2%,11%);stroke-opacity:1.0" /><path d="M 209.7 714.9 L 245.6 666.6 A 300.9 300.9 0 0 0 262.7 678.4" id="106,59" style="stroke:rgb(89.4%,10.2%,11%);stroke-opacity:1.0" /><path d="M 190.3 699.4 L 229.4 653.6 A 300.9 300.9 0 0 0 229.4 653.6" id="105,58" style="stroke:rgb(89.4%,10.2%,11%);stroke-opacity:1.0" /><path d="M 171.9 682.5 L 214.1 639.6 A 300.9 300.9 0 0 0 214.1 639.6" id="104,57" style="stroke:rgb(89.4%,10.2%,11%);stroke-opacity:1.0" /><path d="M 154.7 664.4 L 199.8 624.5 A 300.9 300.9 0 0 0 199.8 624.5" id="103,56" style="stroke:rgb(89.4%,10.2%,11%);stroke-opacity:1.0" /><path d="M 138.8 645.2 L 186.5 608.5 A 300.9 300.9 0 0 1 168.8 582.9" id="102,55" style="stroke:rgb(89.4%,10.2%,11%);stroke-opacity:1.0" /><path d="M 124.3 625.0 L 174.4 591.6 A 300.9 300.9 0 0 1 168.8 582.9" id="102,54" style="stroke:rgb(89.4%,10.2%,11%);stroke-opacity:1.0" /><path d="M 111.3 603.7 L 163.5 573.9 A 300.9 300.9 0 0 0 168.8 582.9" id="102,53" style="stroke:rgb(89.4%,10.2%,11%);stroke-opacity:1.0" /><path d="M 99.7 581.7 L 153.9 555.6 A 300.9 300.9 0 0 0 168.8 582.9" id="102,52" style="stroke:rgb(89.4%,10.2%,11%);stroke-opacity:1.0" /><path d="M 89.6 558.9 L 145.5 536.5 A 300.9 300.9 0 0 1 132.8 497.0" id="101,51" style="stroke:rgb(89.4%,10.2%,11%);stroke-opacity:1.0" /><path d="M 81.2 535.4 L 138.5 517.0 A 300.9 300.9 0 0 1 132.8 497.0" id="101,50" style="stroke:rgb(89.4%,10.2%,11%);stroke-opacity:1.0" /><path d="M 74.4 511.4 L 132.8 497.0 A 300.9 300.9 0 0 0 132.8 497.0" id="101,49" style="stroke:rgb(89.4%,10.2%,11%);stroke-opacity:1.0" /><path d="M 69.3 487.0 L 128.6 476.7 A 300.9 300.9 0 0 0 132.8 497.0" id="101,48" style="stroke:rgb(89.4%,10.2%,11%);stroke-opacity:1.0" /><path d="M 65.8 462.3 L 125.7 456.1 A 300.9 300.9 0 0 0 132.8 497.0" id="101,47" style="stroke:rgb(89.4%,10.2%,11%);stroke-opacity:1.0" /><path d="M 64.1 437.5 L 124.3 435.4 A 300.9 300.9 0 0 0 124.3 435.4" id="100,46" style="stroke:rgb(89.4%,10.2%,11%);stroke-opacity:1.0" /><path d="M 64.1 412.5 L 124.3 414.6 A 300.9 300.9 0 0 1 124.3 414.6" id="99,45" style="stroke:rgb(89.4%,10.2%,11%);stroke-opacity:1.0" /><path d="M 65.8 387.7 L 125.7 393.9 A 300.9 300.9 0 0 1 125.7 393.9" id="98,44" style="stroke:rgb(89.4%,10.2%,11%);stroke-opacity:1.0" /><path d="M 69.3 363.0 L 128.6 373.3 A 300.9 300.9 0 0 1 130.5 363.1" id="97,43" style="stroke:rgb(89.4%,10.2%,11%);stroke-opacity:1.0" /><path d="M 74.4 338.6 L 132.8 353.0 A 300.9 300.9 0 0 0 130.5 363.1" id="97,42" style="stroke:rgb(89.4%,10.2%,11%);stroke-opacity:1.0" /><path d="M 81.2 314.6 L 138.5 333.0 A 300.9 300.9 0 0 1 138.5 333.0" id="96,41" style="stroke:rgb(89.4%,10.2%,11%);stroke-opacity:1.0" /><path d="M 89.6 291.1 L 145.5 313.5 A 300.9 300.9 0 0 1 153.9 294.4" id="95,40" style="stroke:rgb(89.4%,10.2%,11%);stroke-opacity:1.0" /><path d="M 99.7 268.3 L 153.9 294.4 A 300.9 300.9 0 0 1 153.9 294.4" id="95,39" style="stroke:rgb(89.4%,10.2%,11%);stroke-opacity:1.0" /><path d="M 111.3 246.3 L 163.5 276.1 A 300.9 300.9 0 0 0 153.9 294.4" id="95,38" style="stroke:rgb(89.4%,10.2%,11%);stroke-opacity:1.0" /><path d="M 124.3 225.0 L 174.4 258.4 A 300.9 300.9 0 0 1 318.3 143.7" id="94,37" style="stroke:rgb(89.4%,10.2%,11%);stroke-opacity:1.0" /><path d="M 138.8 204.8 L 186.5 241.5 A 300.9 300.9 0 0 1 318.3 143.7" id="94,36" style="stroke:rgb(89.4%,10.2%,11%);stroke-opacity:1.0" /><path d="M 154.7 185.6 L 199.8 225.5 A 300.9 300.9 0 0 1 318.3 143.7" id="94,35" style="stroke:rgb(89.4%,10.2%,11%);stroke-opacity:1.0" /><path d="M 171.9 167.5 L 214.1 210.4 A 300.9 300.9 0 0 1 318.3 143.7" id="94,34" style="stroke:rgb(89.4%,10.2%,11%);stroke-opacity:1.0" /><path d="M 190.3 150.6 L 229.4 196.4 A 300.9 300.9 0 0 1 318.3 143.7" id="94,33" style="stroke:rgb(89.4%,10.2%,11%);stroke-opacity:1.0" /><path d="M 209.7 135.1 L 245.6 183.4 A 300.9 300.9 0 0 1 318.3 143.7" id="94,32" style="stroke:rgb(89.4%,10.2%,11%);stroke-opacity:1.0" /><path d="M 230.3 120.9 L 262.7 171.6 A 300.9 300.9 0 0 1 318.3 143.7" id="94,31" style="stroke:rgb(89.4%,10.2%,11%);stroke-opacity:1.0" /><path d="M 251.7 108.2 L 280.6 161.0 A 300.9 300.9 0 0 1 318.3 143.7" id="94,30" style="stroke:rgb(89.4%,10.2%,11%);stroke-opacity:1.0" /><path d="M 274.0 97.0 L 299.1 151.7 A 300.9 300.9 0 0 1 318.3 143.7" id="94,29" style="stroke:rgb(89.4%,10.2%,11%);stroke-opacity:1.0" /><path d="M 297.0 87.4 L 318.3 143.6 A 300.9 300.9 0 0 1 318.3 143.7" id="94,28" style="stroke:rgb(89.4%,10.2%,11%);stroke-opacity:1.0" /><path d="M 320.6 79.4 L 338.0 137.0 A 300.9 300.9 0 0 0 318.3 143.7" id="94,27" style="stroke:rgb(89.4%,10.2%,11%);stroke-opacity:1.0" /><path d="M 344.7 73.0 L 358.0 131.6 A 300.9 300.9 0 0 0 318.3 143.7" id="94,26" style="stroke:rgb(89.4%,10.2%,11%);stroke-opacity:1.0" /><path d="M 369.1 68.3 L 378.4 127.7 A 300.9 300.9 0 0 0 318.3 143.7" id="94,25" style="stroke:rgb(89.4%,10.2%,11%);stroke-opacity:1.0" /><path d="M 393.9 65.3 L 399.1 125.2 A 300.9 300.9 0 0 0 318.3 143.7" id="94,24" style="stroke:rgb(89.4%,10.2%,11%);stroke-opacity:1.0" /><path d="M 418.8 64.0 L 419.8 124.1 A 300.9 300.9 0 0 0 318.3 143.7" id="94,23" style="stroke:rgb(89.4%,10.2%,11%);stroke-opacity:1.0" /><path d="M 443.7 64.4 L 440.6 124.5 A 300.9 300.9 0 0 0 318.3 143.7" id="94,22" style="stroke:rgb(89.4%,10.2%,11%);stroke-opacity:1.0" /><path d="M 468.5 66.5 L 461.3 126.3 A 300.9 300.9 0 0 0 318.3 143.7" id="94,21" style="stroke:rgb(89.4%,10.2%,11%);stroke-opacity:1.0" /><path d="M 493.2 70.4 L 481.8 129.5 A 300.9 300.9 0 0 0 318.3 143.7" id="94,20" style="stroke:rgb(89.4%,10.2%,11%);stroke-opacity:1.0" /><path d="M 517.5 76.0 L 502.0 134.1 A 300.9 300.9 0 0 0 318.3 143.7" id="94,19" style="stroke:rgb(89.4%,10.2%,11%);stroke-opacity:1.0" /><path d="M 541.3 83.2 L 521.9 140.1 A 300.9 300.9 0 0 1 531.7 143.7" id="93,18" style="stroke:rgb(89.4%,10.2%,11%);stroke-opacity:1.0" /><path d="M 564.6 92.0 L 541.4 147.5 A 300.9 300.9 0 0 0 531.7 143.7" id="93,17" style="stroke:rgb(89.4%,10.2%,11%);stroke-opacity:1.0" /><path d="M 587.3 102.4 L 560.2 156.2 A 300.9 300.9 0 0 1 620.6 196.4" id="92,16" style="stroke:rgb(89.4%,10.2%,11%);stroke-opacity:1.0" /><path d="M 609.1 114.4 L 578.4 166.2 A 300.9 300.9 0 0 1 620.6 196.4" id="92,15" style="stroke:rgb(89.4%,10.2%,11%);stroke-opacity:1.0" /><path d="M 630.1 127.8 L 595.9 177.4 A 300.9 300.9 0 0 1 620.6 196.4" id="92,14" style="stroke:rgb(89.4%,10.2%,11%);stroke-opacity:1.0" /><path d="M 650.1 142.7 L 612.6 189.7 A 300.9 300.9 0 0 1 620.6 196.4" id="92,13" style="stroke:rgb(89.4%,10.2%,11%);stroke-opacity:1.0" /><path d="M 669.1 158.9 L 628.4 203.2 A 300.9 300.9 0 0 0 620.6 196.4" id="92,12" style="stroke:rgb(89.4%,10.2%,11%);stroke-opacity:1.0" /><path d="M 686.9 176.4 L 643.2 217.8 A 300.9 300.9 0 0 0 620.6 196.4" id="92,11" style="stroke:rgb(89.4%,10.2%,11%);stroke-opacity:1.0" /><path d="M 703.4 195.0 L 657.0 233.4 A 300.9 300.9 0 0 0 620.6 196.4" id="92,10" style="stroke:rgb(89.4%,10.2%,11%);stroke-opacity:1.0" /><path d="M 718.6 214.8 L 669.7 249.8 A 300.9 300.9 0 0 0 620.6 196.4" id="92,9" style="stroke:rgb(89.4%,10.2%,11%);stroke-opacity:1.0" /><path d="M 732.4 235.5 L 681.2 267.1 A 300.9 300.9 0 0 1 714.5 342.9" id="91,8" style="stroke:rgb(89.4%,10.2%,11%);stroke-opacity:1.0" /><path d="M 744.7 257.2 L 691.4 285.2 A 300.9 300.9 0 0 1 714.5 342.9" id="91,7" style="stroke:rgb(89.4%,10.2%,11%);stroke-opacity:1.0" /><path d="M 755.5 279.7 L 700.5 303.9 A 300.9 300.9 0 0 1 714.5 342.9" id="91,6" style="stroke:rgb(89.4%,10.2%,11%);stroke-opacity:1.0" /><path d="M 764.8 302.8 L 708.2 323.2 A 300.9 300.9 0 0 1 714.5 342.9" id="91,5" style="stroke:rgb(89.4%,10.2%,11%);stroke-opacity:1.0" /><path d="M 772.4 326.5 L 714.5 342.9 A 300.9 300.9 0 0 0 714.5 342.9" id="91,4" style="stroke:rgb(89.4%,10.2%,11%);stroke-opacity:1.0" /><path d="M 778.4 350.7 L 719.5 363.1 A 300.9 300.9 0 0 0 714.5 342.9" id="91,3" style="stroke:rgb(89.4%,10.2%,11%);stroke-opacity:1.0" /><path d="M 782.6 375.3 L 723.0 383.6 A 300.9 300.9 0 0 0 714.5 342.9" id="91,2" style="stroke:rgb(89.4%,10.2%,11%);stroke-opacity:1.0" /><path d="M 785.2 400.1 L 725.2 404.2 A 300.9 300.9 0 0 0 714.5 342.9" id="91,1" style="stroke:rgb(89.4%,10.2%,11%);stroke-opacity:1.0" /><path d="M 786.1 425.0 L 725.9 425.0 A 300.9 300.9 0 0 0 714.5 342.9" id="91,0" style="stroke:rgb(89.4%,10.2%,11%);stroke-opacity:1.0" /></g><g class="toytree-AlignEdges" style="stroke:rgb(66.3%,66.3%,66.3%);stroke-dasharray:2, 4;stroke-linecap:round;stroke-opacity:1.0;stroke-width:2"><path d="M 786.1 425.0 L 786.1 425.0" /><path d="M 785.2 400.1 L 785.2 400.1" /><path d="M 782.6 375.3 L 782.6 375.3" /><path d="M 778.4 350.7 L 778.4 350.7" /><path d="M 772.4 326.5 L 772.4 326.5" /><path d="M 764.8 302.8 L 764.8 302.8" /><path d="M 755.5 279.7 L 755.5 279.7" /><path d="M 744.7 257.2 L 744.7 257.2" /><path d="M 732.4 235.5 L 732.4 235.5" /><path d="M 718.6 214.8 L 718.6 214.8" /><path d="M 703.4 195.0 L 703.4 195.0" /><path d="M 686.9 176.4 L 686.9 176.4" /><path d="M 669.1 158.9 L 669.1 158.9" /><path d="M 650.1 142.7 L 650.1 142.7" /><path d="M 630.1 127.8 L 630.1 127.8" /><path d="M 609.1 114.4 L 609.1 114.4" /><path d="M 587.3 102.4 L 587.3 102.4" /><path d="M 564.6 92.0 L 564.6 92.0" /><path d="M 541.3 83.2 L 541.3 83.2" /><path d="M 517.5 76.0 L 517.5 76.0" /><path d="M 493.2 70.4 L 493.2 70.4" /><path d="M 468.5 66.5 L 468.5 66.5" /><path d="M 443.7 64.4 L 443.7 64.4" /><path d="M 418.8 64.0 L 418.8 64.0" /><path d="M 393.9 65.3 L 393.9 65.3" /><path d="M 369.1 68.3 L 369.1 68.3" /><path d="M 344.7 73.0 L 344.7 73.0" /><path d="M 320.6 79.4 L 320.6 79.4" /><path d="M 297.0 87.4 L 297.0 87.4" /><path d="M 274.0 97.0 L 274.0 97.0" /><path d="M 251.7 108.2 L 251.7 108.2" /><path d="M 230.3 120.9 L 230.3 120.9" /><path d="M 209.7 135.1 L 209.7 135.1" /><path d="M 190.3 150.6 L 190.3 150.6" /><path d="M 171.9 167.5 L 171.9 167.5" /><path d="M 154.7 185.6 L 154.7 185.6" /><path d="M 138.8 204.8 L 138.8 204.8" /><path d="M 124.3 225.0 L 124.3 225.0" /><path d="M 111.3 246.3 L 111.3 246.3" /><path d="M 99.7 268.3 L 99.7 268.3" /><path d="M 89.6 291.1 L 89.6 291.1" /><path d="M 81.2 314.6 L 81.2 314.6" /><path d="M 74.4 338.6 L 74.4 338.6" /><path d="M 69.3 363.0 L 69.3 363.0" /><path d="M 65.8 387.7 L 65.8 387.7" /><path d="M 64.1 412.5 L 64.1 412.5" /><path d="M 64.1 437.5 L 64.1 437.5" /><path d="M 65.8 462.3 L 65.8 462.3" /><path d="M 69.3 487.0 L 69.3 487.0" /><path d="M 74.4 511.4 L 74.4 511.4" /><path d="M 81.2 535.4 L 81.2 535.4" /><path d="M 89.6 558.9 L 89.6 558.9" /><path d="M 99.7 581.7 L 99.7 581.7" /><path d="M 111.3 603.7 L 111.3 603.7" /><path d="M 124.3 625.0 L 124.3 625.0" /><path d="M 138.8 645.2 L 138.8 645.2" /><path d="M 154.7 664.4 L 154.7 664.4" /><path d="M 171.9 682.5 L 171.9 682.5" /><path d="M 190.3 699.4 L 190.3 699.4" /><path d="M 209.7 714.9 L 209.7 714.9" /><path d="M 230.3 729.1 L 230.3 729.1" /><path d="M 251.7 741.8 L 251.7 741.8" /><path d="M 274.0 753.0 L 274.0 753.0" /><path d="M 297.0 762.6 L 297.0 762.6" /><path d="M 320.6 770.6 L 320.6 770.6" /><path d="M 344.7 777.0 L 344.7 777.0" /><path d="M 369.1 781.7 L 369.1 781.7" /><path d="M 393.9 784.7 L 393.9 784.7" /><path d="M 418.8 786.0 L 418.8 786.0" /><path d="M 443.7 785.6 L 443.7 785.6" /><path d="M 468.5 783.5 L 468.5 783.5" /><path d="M 493.2 779.6 L 493.2 779.6" /><path d="M 517.5 774.0 L 517.5 774.0" /><path d="M 541.3 766.8 L 541.3 766.8" /><path d="M 564.6 758.0 L 564.6 758.0" /><path d="M 587.3 747.6 L 587.3 747.6" /><path d="M 609.1 735.6 L 609.1 735.6" /><path d="M 630.1 722.2 L 630.1 722.2" /><path d="M 650.1 707.3 L 650.1 707.3" /><path d="M 669.1 691.1 L 669.1 691.1" /><path d="M 686.9 673.6 L 686.9 673.6" /><path d="M 703.4 655.0 L 703.4 655.0" /><path d="M 718.6 635.2 L 718.6 635.2" /><path d="M 732.4 614.5 L 732.4 614.5" /><path d="M 744.7 592.8 L 744.7 592.8" /><path d="M 755.5 570.3 L 755.5 570.3" /><path d="M 764.8 547.2 L 764.8 547.2" /><path d="M 772.4 523.5 L 772.4 523.5" /><path d="M 778.4 499.3 L 778.4 499.3" /><path d="M 782.6 474.7 L 782.6 474.7" /><path d="M 785.2 449.9 L 785.2 449.9" /></g><g class="toytree-Nodes" style="fill:rgb(40%,76.1%,64.7%);fill-opacity:1.0;stroke:rgb(0%,0%,0%);stroke-opacity:1.0;stroke-width:1"><g fill="rgb(0%,100%,100%)" fill-opacity="1.0" id="node-0" transform="translate(786.085,425.000)"><circle r="0.0" /></g><g fill="rgb(0%,100%,100%)" fill-opacity="1.0" id="node-1" transform="translate(785.225,400.088)"><circle r="0.0" /></g><g fill="rgb(0%,100%,100%)" fill-opacity="1.0" id="node-2" transform="translate(782.648,375.296)"><circle r="0.0" /></g><g fill="rgb(0%,100%,100%)" fill-opacity="1.0" id="node-3" transform="translate(778.366,350.740)"><circle r="0.0" /></g><g fill="rgb(0%,100%,100%)" fill-opacity="1.0" id="node-4" transform="translate(772.401,326.538)"><circle r="0.0" /></g><g fill="rgb(0%,100%,100%)" fill-opacity="1.0" id="node-5" transform="translate(764.780,302.805)"><circle r="0.0" /></g><g fill="rgb(0%,100%,100%)" fill-opacity="1.0" id="node-6" transform="translate(755.540,279.654)"><circle r="0.0" /></g><g fill="rgb(0%,100%,100%)" fill-opacity="1.0" id="node-7" transform="translate(744.725,257.196)"><circle r="0.0" /></g><g fill="rgb(0%,100%,100%)" fill-opacity="1.0" id="node-8" transform="translate(732.386,235.538)"><circle r="0.0" /></g><g fill="rgb(0%,100%,100%)" fill-opacity="1.0" id="node-9" transform="translate(718.582,214.783)"><circle r="0.0" /></g><g fill="rgb(0%,100%,100%)" fill-opacity="1.0" id="node-10" transform="translate(703.380,195.029)"><circle r="0.0" /></g><g fill="rgb(0%,100%,100%)" fill-opacity="1.0" id="node-11" transform="translate(686.850,176.372)"><circle r="0.0" /></g><g fill="rgb(0%,100%,100%)" fill-opacity="1.0" id="node-12" transform="translate(669.073,158.899)"><circle r="0.0" /></g><g fill="rgb(0%,100%,100%)" fill-opacity="1.0" id="node-13" transform="translate(650.133,142.694)"><circle r="0.0" /></g><g fill="rgb(0%,100%,100%)" fill-opacity="1.0" id="node-14" transform="translate(630.120,127.834)"><circle r="0.0" /></g><g fill="rgb(0%,100%,100%)" fill-opacity="1.0" id="node-15" transform="translate(609.129,114.391)"><circle r="0.0" /></g><g fill="rgb(0%,100%,100%)" fill-opacity="1.0" id="node-16" transform="translate(587.261,102.428)"><circle r="0.0" /></g><g fill="rgb(0%,100%,100%)" fill-opacity="1.0" id="node-17" transform="translate(564.620,92.002)"><circle r="0.0" /></g><g fill="rgb(0%,100%,100%)" fill-opacity="1.0" id="node-18" transform="translate(541.313,83.163)"><circle r="0.0" /></g><g fill="rgb(0%,100%,100%)" fill-opacity="1.0" id="node-19" transform="translate(517.452,75.953)"><circle r="0.0" /></g><g fill="rgb(0%,100%,100%)" fill-opacity="1.0" id="node-20" transform="translate(493.150,70.407)"><circle r="0.0" /></g><g fill="rgb(0%,100%,100%)" fill-opacity="1.0" id="node-21" transform="translate(468.524,66.550)"><circle r="0.0" /></g><g fill="rgb(0%,100%,100%)" fill-opacity="1.0" id="node-22" transform="translate(443.690,64.401)"><circle r="0.0" /></g><g fill="rgb(0%,100%,100%)" fill-opacity="1.0" id="node-23" transform="translate(418.767,63.971)"><circle r="0.0" /></g><g fill="rgb(0%,100%,100%)" fill-opacity="1.0" id="node-24" transform="translate(393.874,65.261)"><circle r="0.0" /></g><g fill="rgb(0%,100%,100%)" fill-opacity="1.0" id="node-25" transform="translate(369.130,68.266)"><circle r="0.0" /></g><g fill="rgb(0%,100%,100%)" fill-opacity="1.0" id="node-26" transform="translate(344.651,72.970)"><circle r="0.0" /></g><g fill="rgb(0%,100%,100%)" fill-opacity="1.0" id="node-27" transform="translate(320.555,79.352)"><circle r="0.0" /></g><g fill="rgb(0%,100%,100%)" fill-opacity="1.0" id="node-28" transform="translate(296.957,87.382)"><circle r="0.0" /></g><g fill="rgb(0%,100%,100%)" fill-opacity="1.0" id="node-29" transform="translate(273.970,97.020)"><circle r="0.0" /></g><g fill="rgb(0%,100%,100%)" fill-opacity="1.0" id="node-30" transform="translate(251.702,108.221)"><circle r="0.0" /></g><g fill="rgb(0%,100%,100%)" fill-opacity="1.0" id="node-31" transform="translate(230.260,120.932)"><circle r="0.0" /></g><g fill="rgb(0%,100%,100%)" fill-opacity="1.0" id="node-32" transform="translate(209.745,135.091)"><circle r="0.0" /></g><g fill="rgb(0%,100%,100%)" fill-opacity="1.0" id="node-33" transform="translate(190.257,150.633)"><circle r="0.0" /></g><g fill="rgb(0%,100%,100%)" fill-opacity="1.0" id="node-34" transform="translate(171.887,167.482)"><circle r="0.0" /></g><g fill="rgb(0%,100%,100%)" fill-opacity="1.0" id="node-35" transform="translate(154.724,185.558)"><circle r="0.0" /></g><g fill="rgb(0%,100%,100%)" fill-opacity="1.0" id="node-36" transform="translate(138.848,204.775)"><circle r="0.0" /></g><g fill="rgb(0%,100%,100%)" fill-opacity="1.0" id="node-37" transform="translate(124.337,225.041)"><circle r="0.0" /></g><g fill="rgb(0%,100%,100%)" fill-opacity="1.0" id="node-38" transform="translate(111.258,246.261)"><circle r="0.0" /></g><g fill="rgb(0%,100%,100%)" fill-opacity="1.0" id="node-39" transform="translate(99.674,268.332)"><circle r="0.0" /></g><g fill="rgb(0%,100%,100%)" fill-opacity="1.0" id="node-40" transform="translate(89.640,291.150)"><circle r="0.0" /></g><g fill="rgb(0%,100%,100%)" fill-opacity="1.0" id="node-41" transform="translate(81.205,314.605)"><circle r="0.0" /></g><g fill="rgb(0%,100%,100%)" fill-opacity="1.0" id="node-42" transform="translate(74.407,338.587)"><circle r="0.0" /></g><g fill="rgb(0%,100%,100%)" fill-opacity="1.0" id="node-43" transform="translate(69.281,362.981)"><circle r="0.0" /></g><g fill="rgb(0%,100%,100%)" fill-opacity="1.0" id="node-44" transform="translate(65.850,387.670)"><circle r="0.0" /></g><g fill="rgb(0%,100%,100%)" fill-opacity="1.0" id="node-45" transform="translate(64.130,412.537)"><circle r="0.0" /></g><g fill="rgb(0%,100%,100%)" fill-opacity="1.0" id="node-46" transform="translate(64.130,437.463)"><circle r="0.0" /></g><g fill="rgb(0%,100%,100%)" fill-opacity="1.0" id="node-47" transform="translate(65.850,462.330)"><circle r="0.0" /></g><g fill="rgb(0%,100%,100%)" fill-opacity="1.0" id="node-48" transform="translate(69.281,487.019)"><circle r="0.0" /></g><g fill="rgb(0%,100%,100%)" fill-opacity="1.0" id="node-49" transform="translate(74.407,511.413)"><circle r="0.0" /></g><g fill="rgb(0%,100%,100%)" fill-opacity="1.0" id="node-50" transform="translate(81.205,535.395)"><circle r="0.0" /></g><g fill="rgb(0%,100%,100%)" fill-opacity="1.0" id="node-51" transform="translate(89.640,558.850)"><circle r="0.0" /></g><g fill="rgb(0%,100%,100%)" fill-opacity="1.0" id="node-52" transform="translate(99.674,581.668)"><circle r="0.0" /></g><g fill="rgb(0%,100%,100%)" fill-opacity="1.0" id="node-53" transform="translate(111.258,603.739)"><circle r="0.0" /></g><g fill="rgb(0%,100%,100%)" fill-opacity="1.0" id="node-54" transform="translate(124.337,624.959)"><circle r="0.0" /></g><g fill="rgb(0%,100%,100%)" fill-opacity="1.0" id="node-55" transform="translate(138.848,645.225)"><circle r="0.0" /></g><g fill="rgb(0%,100%,100%)" fill-opacity="1.0" id="node-56" transform="translate(154.724,664.442)"><circle r="0.0" /></g><g fill="rgb(0%,100%,100%)" fill-opacity="1.0" id="node-57" transform="translate(171.887,682.518)"><circle r="0.0" /></g><g fill="rgb(0%,100%,100%)" fill-opacity="1.0" id="node-58" transform="translate(190.257,699.367)"><circle r="0.0" /></g><g fill="rgb(0%,100%,100%)" fill-opacity="1.0" id="node-59" transform="translate(209.745,714.909)"><circle r="0.0" /></g><g fill="rgb(0%,100%,100%)" fill-opacity="1.0" id="node-60" transform="translate(230.260,729.068)"><circle r="0.0" /></g><g fill="rgb(0%,100%,100%)" fill-opacity="1.0" id="node-61" transform="translate(251.702,741.779)"><circle r="0.0" /></g><g fill="rgb(0%,100%,100%)" fill-opacity="1.0" id="node-62" transform="translate(273.970,752.980)"><circle r="0.0" /></g><g fill="rgb(0%,100%,100%)" fill-opacity="1.0" id="node-63" transform="translate(296.957,762.618)"><circle r="0.0" /></g><g fill="rgb(0%,100%,100%)" fill-opacity="1.0" id="node-64" transform="translate(320.555,770.648)"><circle r="0.0" /></g><g fill="rgb(0%,100%,100%)" fill-opacity="1.0" id="node-65" transform="translate(344.651,777.030)"><circle r="0.0" /></g><g fill="rgb(0%,100%,100%)" fill-opacity="1.0" id="node-66" transform="translate(369.130,781.734)"><circle r="0.0" /></g><g fill="rgb(0%,100%,100%)" fill-opacity="1.0" id="node-67" transform="translate(393.874,784.739)"><circle r="0.0" /></g><g fill="rgb(0%,100%,100%)" fill-opacity="1.0" id="node-68" transform="translate(418.767,786.029)"><circle r="0.0" /></g><g fill="rgb(0%,100%,100%)" fill-opacity="1.0" id="node-69" transform="translate(443.690,785.599)"><circle r="0.0" /></g><g fill="rgb(0%,100%,100%)" fill-opacity="1.0" id="node-70" transform="translate(468.524,783.450)"><circle r="0.0" /></g><g fill="rgb(0%,100%,100%)" fill-opacity="1.0" id="node-71" transform="translate(493.150,779.593)"><circle r="0.0" /></g><g fill="rgb(0%,100%,100%)" fill-opacity="1.0" id="node-72" transform="translate(517.452,774.047)"><circle r="0.0" /></g><g fill="rgb(0%,100%,100%)" fill-opacity="1.0" id="node-73" transform="translate(541.313,766.837)"><circle r="0.0" /></g><g fill="rgb(0%,100%,100%)" fill-opacity="1.0" id="node-74" transform="translate(564.620,757.998)"><circle r="0.0" /></g><g fill="rgb(0%,100%,100%)" fill-opacity="1.0" id="node-75" transform="translate(587.261,747.572)"><circle r="0.0" /></g><g fill="rgb(0%,100%,100%)" fill-opacity="1.0" id="node-76" transform="translate(609.129,735.609)"><circle r="0.0" /></g><g fill="rgb(0%,100%,100%)" fill-opacity="1.0" id="node-77" transform="translate(630.120,722.166)"><circle r="0.0" /></g><g fill="rgb(0%,100%,100%)" fill-opacity="1.0" id="node-78" transform="translate(650.133,707.306)"><circle r="0.0" /></g><g fill="rgb(0%,100%,100%)" fill-opacity="1.0" id="node-79" transform="translate(669.073,691.101)"><circle r="0.0" /></g><g fill="rgb(0%,100%,100%)" fill-opacity="1.0" id="node-80" transform="translate(686.850,673.628)"><circle r="0.0" /></g><g fill="rgb(0%,100%,100%)" fill-opacity="1.0" id="node-81" transform="translate(703.380,654.971)"><circle r="0.0" /></g><g fill="rgb(0%,100%,100%)" fill-opacity="1.0" id="node-82" transform="translate(718.582,635.217)"><circle r="0.0" /></g><g fill="rgb(0%,100%,100%)" fill-opacity="1.0" id="node-83" transform="translate(732.386,614.462)"><circle r="0.0" /></g><g fill="rgb(0%,100%,100%)" fill-opacity="1.0" id="node-84" transform="translate(744.725,592.804)"><circle r="0.0" /></g><g fill="rgb(0%,100%,100%)" fill-opacity="1.0" id="node-85" transform="translate(755.540,570.346)"><circle r="0.0" /></g><g fill="rgb(0%,100%,100%)" fill-opacity="1.0" id="node-86" transform="translate(764.780,547.195)"><circle r="0.0" /></g><g fill="rgb(0%,100%,100%)" fill-opacity="1.0" id="node-87" transform="translate(772.401,523.462)"><circle r="0.0" /></g><g fill="rgb(0%,100%,100%)" fill-opacity="1.0" id="node-88" transform="translate(778.366,499.260)"><circle r="0.0" /></g><g fill="rgb(0%,100%,100%)" fill-opacity="1.0" id="node-89" transform="translate(782.648,474.704)"><circle r="0.0" /></g><g fill="rgb(0%,100%,100%)" fill-opacity="1.0" id="node-90" transform="translate(785.225,449.912)"><circle r="0.0" /></g><g fill="rgb(0%,100%,100%)" fill-opacity="1.0" id="node-91" transform="translate(714.501,342.948)"><circle r="0.0" /></g><g fill="rgb(0%,100%,100%)" fill-opacity="1.0" id="node-92" transform="translate(620.619,196.361)"><circle r="0.0" /></g><g fill="rgb(0%,100%,100%)" fill-opacity="1.0" id="node-93" transform="translate(531.702,143.651)"><circle r="0.0" /></g><g fill="rgb(0%,100%,100%)" fill-opacity="1.0" id="node-94" transform="translate(318.298,143.651)"><circle r="0.0" /></g><g fill="rgb(0%,100%,100%)" fill-opacity="1.0" id="node-95" transform="translate(153.895,294.443)"><circle r="0.0" /></g><g fill="rgb(0%,100%,100%)" fill-opacity="1.0" id="node-96" transform="translate(138.504,333.005)"><circle r="0.0" /></g><g fill="rgb(0%,100%,100%)" fill-opacity="1.0" id="node-97" transform="translate(130.528,363.116)"><circle r="0.0" /></g><g fill="rgb(0%,100%,100%)" fill-opacity="1.0" id="node-98" transform="translate(125.708,393.892)"><circle r="0.0" /></g><g fill="rgb(0%,100%,100%)" fill-opacity="1.0" id="node-99" transform="translate(124.275,414.614)"><circle r="0.0" /></g><g fill="rgb(0%,100%,100%)" fill-opacity="1.0" id="node-100" transform="translate(124.275,435.386)"><circle r="0.0" /></g><g fill="rgb(0%,100%,100%)" fill-opacity="1.0" id="node-101" transform="translate(132.840,497.011)"><circle r="0.0" /></g><g fill="rgb(0%,100%,100%)" fill-opacity="1.0" id="node-102" transform="translate(168.845,582.885)"><circle r="0.0" /></g><g fill="rgb(0%,100%,100%)" fill-opacity="1.0" id="node-103" transform="translate(199.770,624.535)"><circle r="0.0" /></g><g fill="rgb(0%,100%,100%)" fill-opacity="1.0" id="node-104" transform="translate(214.073,639.599)"><circle r="0.0" /></g><g fill="rgb(0%,100%,100%)" fill-opacity="1.0" id="node-105" transform="translate(229.381,653.639)"><circle r="0.0" /></g><g fill="rgb(0%,100%,100%)" fill-opacity="1.0" id="node-106" transform="translate(262.716,678.390)"><circle r="0.0" /></g><g fill="rgb(0%,100%,100%)" fill-opacity="1.0" id="node-107" transform="translate(308.650,702.498)"><circle r="0.0" /></g><g fill="rgb(0%,100%,100%)" fill-opacity="1.0" id="node-108" transform="translate(378.441,722.279)"><circle r="0.0" /></g><g fill="rgb(0%,100%,100%)" fill-opacity="1.0" id="node-109" transform="translate(450.938,724.783)"><circle r="0.0" /></g><g fill="rgb(0%,100%,100%)" fill-opacity="1.0" id="node-110" transform="translate(491.957,718.358)"><circle r="0.0" /></g><g fill="rgb(0%,100%,100%)" fill-opacity="1.0" id="node-111" transform="translate(531.702,706.349)"><circle r="0.0" /></g><g fill="rgb(0%,100%,100%)" fill-opacity="1.0" id="node-112" transform="translate(560.217,693.810)"><circle r="0.0" /></g><g fill="rgb(0%,100%,100%)" fill-opacity="1.0" id="node-113" transform="translate(578.441,683.841)"><circle r="0.0" /></g><g fill="rgb(0%,100%,100%)" fill-opacity="1.0" id="node-114" transform="translate(628.394,646.751)"><circle r="0.0" /></g><g fill="rgb(0%,100%,100%)" fill-opacity="1.0" id="node-115" transform="translate(669.652,600.181)"><circle r="0.0" /></g><g fill="rgb(0%,100%,100%)" fill-opacity="1.0" id="node-116" transform="translate(681.155,582.885)"><circle r="0.0" /></g><g fill="rgb(0%,100%,100%)" fill-opacity="1.0" id="node-117" transform="translate(700.450,546.121)"><circle r="0.0" /></g><g fill="rgb(0%,100%,100%)" fill-opacity="1.0" id="node-118" transform="translate(717.160,497.011)"><circle r="0.0" /></g><g fill="rgb(0%,100%,100%)" fill-opacity="1.0" id="node-119" transform="translate(723.040,466.420)"><circle r="0.0" /></g><g fill="rgb(0%,100%,100%)" fill-opacity="1.0" id="node-120" transform="translate(725.187,445.760)"><circle r="0.0" /></g><g fill="rgb(0%,100%,100%)" fill-opacity="1.0" id="node-121" transform="translate(595.706,255.274)"><circle r="0.0" /></g><g fill="rgb(0%,100%,100%)" fill-opacity="1.0" id="node-122" transform="translate(339.638,199.921)"><circle r="0.0" /></g><g fill="rgb(0%,100%,100%)" fill-opacity="1.0" id="node-123" transform="translate(201.427,335.767)"><circle r="0.0" /></g><g fill="rgb(0%,100%,100%)" fill-opacity="1.0" id="node-124" transform="translate(189.422,375.493)"><circle r="0.0" /></g><g fill="rgb(0%,100%,100%)" fill-opacity="1.0" id="node-125" transform="translate(185.567,400.113)"><circle r="0.0" /></g><g fill="rgb(0%,100%,100%)" fill-opacity="1.0" id="node-126" transform="translate(184.420,416.691)"><circle r="0.0" /></g><g fill="rgb(0%,100%,100%)" fill-opacity="1.0" id="node-127" transform="translate(184.420,433.309)"><circle r="0.0" /></g><g fill="rgb(0%,100%,100%)" fill-opacity="1.0" id="node-128" transform="translate(203.000,518.079)"><circle r="0.0" /></g><g fill="rgb(0%,100%,100%)" fill-opacity="1.0" id="node-129" transform="translate(256.258,596.679)"><circle r="0.0" /></g><g fill="rgb(0%,100%,100%)" fill-opacity="1.0" id="node-130" transform="translate(295.173,627.712)"><circle r="0.0" /></g><g fill="rgb(0%,100%,100%)" fill-opacity="1.0" id="node-131" transform="translate(331.920,646.999)"><circle r="0.0" /></g><g fill="rgb(0%,100%,100%)" fill-opacity="1.0" id="node-132" transform="translate(485.295,658.049)"><circle r="0.0" /></g><g fill="rgb(0%,100%,100%)" fill-opacity="1.0" id="node-133" transform="translate(614.066,574.002)"><circle r="0.0" /></g><g fill="rgb(0%,100%,100%)" fill-opacity="1.0" id="node-134" transform="translate(652.892,502.541)"><circle r="0.0" /></g><g fill="rgb(0%,100%,100%)" fill-opacity="1.0" id="node-135" transform="translate(663.432,458.136)"><circle r="0.0" /></g><g fill="rgb(0%,100%,100%)" fill-opacity="1.0" id="node-136" transform="translate(665.150,441.608)"><circle r="0.0" /></g><g fill="rgb(0%,100%,100%)" fill-opacity="1.0" id="node-137" transform="translate(276.839,321.831)"><circle r="0.0" /></g><g fill="rgb(0%,100%,100%)" fill-opacity="1.0" id="node-138" transform="translate(275.537,526.273)"><circle r="0.0" /></g><g fill="rgb(0%,100%,100%)" fill-opacity="1.0" id="node-139" transform="translate(341.098,584.862)"><circle r="0.0" /></g><g fill="rgb(0%,100%,100%)" fill-opacity="1.0" id="node-140" transform="translate(470.221,599.787)"><circle r="0.0" /></g><g fill="rgb(0%,100%,100%)" fill-opacity="1.0" id="node-141" transform="translate(566.799,536.752)"><circle r="0.0" /></g><g fill="rgb(0%,100%,100%)" fill-opacity="1.0" id="node-142" transform="translate(600.663,466.692)"><circle r="0.0" /></g><g fill="rgb(0%,100%,100%)" fill-opacity="1.0" id="node-143" transform="translate(605.112,437.456)"><circle r="0.0" /></g><g fill="rgb(100%,100%,100%)" fill-opacity="1.0" id="node-144" transform="translate(312.280,467.202)"><circle r="7.227758007117437" /></g><g fill="rgb(0%,100%,100%)" fill-opacity="1.0" id="node-145" transform="translate(455.147,541.524)"><circle r="0.0" /></g><g fill="rgb(0%,100%,100%)" fill-opacity="1.0" id="node-146" transform="translate(519.533,499.501)"><circle r="0.0" /></g><g fill="rgb(0%,100%,100%)" fill-opacity="1.0" id="node-147" transform="translate(542.108,452.795)"><circle r="0.0" /></g><g fill="rgb(0%,100%,100%)" fill-opacity="1.0" id="node-148" transform="translate(545.075,433.304)"><circle r="0.0" /></g><g fill="rgb(0%,100%,100%)" fill-opacity="1.0" id="node-149" transform="translate(456.799,476.094)"><circle r="0.0" /></g><g fill="rgb(0%,100%,100%)" fill-opacity="1.0" id="node-150" transform="translate(425.000,425.000)"><circle r="0.0" /></g></g></g></g></g><g class="toyplot-coordinates-Cartesian" id="t0a01d09b988d4866ad51e68292ecb642"><clipPath id="te0e52f9e81164014a7f52e00ada55374"><rect x="50.0" y="50.0" width="750.0" height="50.0" /></clipPath><g clip-path="url(#te0e52f9e81164014a7f52e00ada55374)" /><g transform="translate(425.0,42.0)"><text x="-64.778" y="-4.823" style="fill:rgb(16.1%,15.3%,14.1%);fill-opacity:1.0;font-family:helvetica;font-size:14.0px;font-weight:bold;stroke:none;vertical-align:baseline;white-space:pre">Healthy vs. IBS, =-5</text></g></g><g class="toyplot-coordinates-Table" id="t5e3f249516bc4022a3ea86226385e3d5"><g transform="translate(900.0,275.0)"><text x="-25.284000000000002" y="-10.423" style="fill:rgb(16.1%,15.3%,14.1%);fill-opacity:1.0;font-family:helvetica;font-size:14.0px;font-weight:bold;stroke:none;vertical-align:baseline;white-space:pre">Phylum</text></g><g transform="translate(895.0,285.0)"><g style="fill:rgb(100%,49.8%,0%);fill-opacity:1.0" transform="translate(-5.55, -4.440892098500626e-16)"><circle r="4.0" /></g></g><g transform="translate(905.0,285.0)"><text x="0" y="3.066" style="fill:rgb(16.1%,15.3%,14.1%);fill-opacity:1.0;font-family:helvetica;font-size:12.0px;font-weight:normal;stroke:none;vertical-align:baseline;white-space:pre">Synergistota</text></g><g transform="translate(895.0,305.0)"><g style="fill:rgb(21.6%,49.4%,72.2%);fill-opacity:1.0" transform="translate(-5.55, -4.440892098500626e-16)"><circle r="4.0" /></g></g><g transform="translate(905.0,305.0)"><text x="0" y="3.066" style="fill:rgb(16.1%,15.3%,14.1%);fill-opacity:1.0;font-family:helvetica;font-size:12.0px;font-weight:normal;stroke:none;vertical-align:baseline;white-space:pre">Proteobacteria</text></g><g transform="translate(895.0,325.0)"><g style="fill:rgb(59.6%,30.6%,63.9%);fill-opacity:1.0" transform="translate(-5.55, -4.440892098500626e-16)"><circle r="4.0" /></g></g><g transform="translate(905.0,325.0)"><text x="0" y="3.066" style="fill:rgb(16.1%,15.3%,14.1%);fill-opacity:1.0;font-family:helvetica;font-size:12.0px;font-weight:normal;stroke:none;vertical-align:baseline;white-space:pre">Actinobacteriota</text></g><g transform="translate(895.0,345.0)"><g style="fill:rgb(30.2%,68.6%,29%);fill-opacity:1.0" transform="translate(-5.55, -4.440892098500626e-16)"><circle r="4.0" /></g></g><g transform="translate(905.0,345.0)"><text x="0" y="3.066" style="fill:rgb(16.1%,15.3%,14.1%);fill-opacity:1.0;font-family:helvetica;font-size:12.0px;font-weight:normal;stroke:none;vertical-align:baseline;white-space:pre">Bacteroidota</text></g><g transform="translate(895.0,365.0)"><g style="fill:rgb(89.4%,10.2%,11%);fill-opacity:1.0" transform="translate(-5.55, -4.440892098500626e-16)"><circle r="4.0" /></g></g><g transform="translate(905.0,365.0)"><text x="0" y="3.066" style="fill:rgb(16.1%,15.3%,14.1%);fill-opacity:1.0;font-family:helvetica;font-size:12.0px;font-weight:normal;stroke:none;vertical-align:baseline;white-space:pre">Firmicutes</text></g></g><g class="toyplot-coordinates-Table" id="t9e8b64fa7205477faf0d16c7eef497ea"><g transform="translate(900.0,425.0)"><text x="-59.899" y="-10.423" style="fill:rgb(16.1%,15.3%,14.1%);fill-opacity:1.0;font-family:helvetica;font-size:14.0px;font-weight:bold;stroke:none;vertical-align:baseline;white-space:pre">tascCODA Effects</text></g><g transform="translate(895.0,450.0)"><g style="fill:rgb(0%,0%,0%);fill-opacity:1.0" transform="translate(-5.55, -4.440892098500626e-16)"><circle r="10.0" /></g></g><g transform="translate(905.0,450.0)"><text x="0" y="3.066" style="fill:rgb(16.1%,15.3%,14.1%);fill-opacity:1.0;font-family:helvetica;font-size:12.0px;font-weight:normal;stroke:none;vertical-align:baseline;white-space:pre">1.405</text></g><g transform="translate(895.0,500.0)"><g style="fill:rgb(100%,100%,100%);fill-opacity:1.0" transform="translate(-5.55, -4.440892098500626e-16)"><circle r="10.0" /></g></g><g transform="translate(905.0,500.0)"><text x="0" y="3.066" style="fill:rgb(16.1%,15.3%,14.1%);fill-opacity:1.0;font-family:helvetica;font-size:12.0px;font-weight:normal;stroke:none;vertical-align:baseline;white-space:pre">-1.405</text></g></g></svg>