<svg class="toyplot-canvas-Canvas" xmlns:toyplot="http://www.sandia.gov/toyplot" xmlns:xlink="http://www.w3.org/1999/xlink" xmlns="http://www.w3.org/2000/svg" width="1000.0px" height="1000.0px" viewBox="0 0 1000.0 1000.0" preserveAspectRatio="xMidYMid meet" style="background-color:transparent;border-color:#292724;border-style:none;border-width:1.0;fill:rgb(16.1%,15.3%,14.1%);fill-opacity:1.0;font-family:Helvetica;font-size:12px;opacity:1.0;stroke:rgb(16.1%,15.3%,14.1%);stroke-opacity:1.0;stroke-width:1.0" id="te0101327b4d14694af6ccd595ccd54f2"><g class="toyplot-coordinates-Cartesian" id="tc43d61264f03407e8c9f2c189b1a18c0"><clipPath id="tac56b9e913b745b7b593ecaea93311cc"><rect x="30.0" y="30.0" width="790.0" height="790.0" /></clipPath><g clip-path="url(#tac56b9e913b745b7b593ecaea93311cc)"><g class="toytree-mark-Toytree" id="t45e02b00cd15429cb0bbd21ebcb0589e"><g class="toytree-Edges" style="fill:none;stroke:rgb(14.9%,14.9%,14.9%);stroke-linecap:round;stroke-opacity:1;stroke-width:3"><path d="M 456.9 476.2 L 425.0 425.0 A -0.0 -0.0 0 0 0 425.0 425.0" id="150,149" style="stroke:rgb(0%,0%,0%);stroke-opacity:1.0" /><path d="M 545.3 433.3 L 485.2 429.2 A 60.3 60.3 0 0 1 456.9 476.2" id="149,148" style="stroke:rgb(100%,49.8%,0%);stroke-opacity:1.0" /><path d="M 542.3 452.8 L 483.7 438.9 A 60.3 60.3 0 0 1 456.9 476.2" id="149,147" style="stroke:rgb(21.6%,49.4%,72.2%);stroke-opacity:1.0" /><path d="M 519.7 499.6 L 472.4 462.3 A 60.3 60.3 0 0 1 456.9 476.2" id="149,146" style="stroke:rgb(59.6%,30.6%,63.9%);stroke-opacity:1.0" /><path d="M 455.2 541.8 L 440.1 483.4 A 60.3 60.3 0 0 0 456.9 476.2" id="149,145" style="stroke:rgb(30.2%,68.6%,29%);stroke-opacity:1.0" /><path d="M 312.1 467.3 L 368.5 446.1 A 60.3 60.3 0 0 0 456.9 476.2" id="149,144" style="stroke:rgb(89.4%,10.2%,11%);stroke-opacity:1.0" /><path d="M 605.5 437.5 L 545.3 433.3 A 120.6 120.6 0 0 1 545.3 433.3" id="148,143" style="stroke:rgb(100%,49.8%,0%);stroke-opacity:1.0" /><path d="M 601.0 466.8 L 542.3 452.8 A 120.6 120.6 0 0 1 542.3 452.8" id="147,142" style="stroke:rgb(21.6%,49.4%,72.2%);stroke-opacity:1.0" /><path d="M 567.1 537.0 L 519.7 499.6 A 120.6 120.6 0 0 1 519.7 499.6" id="146,141" style="stroke:rgb(59.6%,30.6%,63.9%);stroke-opacity:1.0" /><path d="M 470.3 600.1 L 455.2 541.8 A 120.6 120.6 0 0 1 455.2 541.8" id="145,140" style="stroke:rgb(30.2%,68.6%,29%);stroke-opacity:1.0" /><path d="M 340.9 585.2 L 369.0 531.8 A 120.6 120.6 0 0 1 312.1 467.3" id="144,139" style="stroke:rgb(89.4%,10.2%,11%);stroke-opacity:1.0" /><path d="M 275.2 526.5 L 325.2 492.6 A 120.6 120.6 0 0 1 312.1 467.3" id="144,138" style="stroke:rgb(89.4%,10.2%,11%);stroke-opacity:1.0" /><path d="M 276.5 321.6 L 326.0 356.1 A 120.6 120.6 0 0 0 312.1 467.3" id="144,137" style="stroke:rgb(89.4%,10.2%,11%);stroke-opacity:1.0" /><path d="M 665.6 441.6 L 605.5 437.5 A 180.9 180.9 0 0 1 605.5 437.5" id="143,136" style="stroke:rgb(100%,49.8%,0%);stroke-opacity:1.0" /><path d="M 663.9 458.2 L 604.2 449.9 A 180.9 180.9 0 0 1 601.0 466.8" id="142,135" style="stroke:rgb(21.6%,49.4%,72.2%);stroke-opacity:1.0" /><path d="M 653.3 502.7 L 596.3 483.3 A 180.9 180.9 0 0 0 601.0 466.8" id="142,134" style="stroke:rgb(21.6%,49.4%,72.2%);stroke-opacity:1.0" /><path d="M 614.4 574.3 L 567.1 537.0 A 180.9 180.9 0 0 1 567.1 537.0" id="141,133" style="stroke:rgb(59.6%,30.6%,63.9%);stroke-opacity:1.0" /><path d="M 485.4 658.5 L 470.3 600.1 A 180.9 180.9 0 0 1 470.3 600.1" id="140,132" style="stroke:rgb(30.2%,68.6%,29%);stroke-opacity:1.0" /><path d="M 331.7 647.4 L 355.1 591.8 A 180.9 180.9 0 0 1 340.9 585.2" id="139,131" style="stroke:rgb(89.4%,10.2%,11%);stroke-opacity:1.0" /><path d="M 294.9 628.1 L 327.4 577.3 A 180.9 180.9 0 0 0 340.9 585.2" id="139,130" style="stroke:rgb(89.4%,10.2%,11%);stroke-opacity:1.0" /><path d="M 255.9 597.0 L 298.2 554.0 A 180.9 180.9 0 0 1 275.2 526.5" id="138,129" style="stroke:rgb(89.4%,10.2%,11%);stroke-opacity:1.0" /><path d="M 202.6 518.3 L 258.2 494.9 A 180.9 180.9 0 0 0 275.2 526.5" id="138,128" style="stroke:rgb(89.4%,10.2%,11%);stroke-opacity:1.0" /><path d="M 183.9 433.3 L 244.2 431.2 A 180.9 180.9 0 0 1 276.5 321.6" id="137,127" style="stroke:rgb(89.4%,10.2%,11%);stroke-opacity:1.0" /><path d="M 183.9 416.7 L 244.2 418.8 A 180.9 180.9 0 0 1 276.5 321.6" id="137,126" style="stroke:rgb(89.4%,10.2%,11%);stroke-opacity:1.0" /><path d="M 185.1 400.1 L 245.1 406.3 A 180.9 180.9 0 0 1 276.5 321.6" id="137,125" style="stroke:rgb(89.4%,10.2%,11%);stroke-opacity:1.0" /><path d="M 189.0 375.4 L 248.0 387.8 A 180.9 180.9 0 0 1 276.5 321.6" id="137,124" style="stroke:rgb(89.4%,10.2%,11%);stroke-opacity:1.0" /><path d="M 201.0 335.6 L 257.0 357.9 A 180.9 180.9 0 0 1 276.5 321.6" id="137,123" style="stroke:rgb(89.4%,10.2%,11%);stroke-opacity:1.0" /><path d="M 339.5 199.5 L 360.9 255.9 A 180.9 180.9 0 0 0 276.5 321.6" id="137,122" style="stroke:rgb(89.4%,10.2%,11%);stroke-opacity:1.0" /><path d="M 596.0 254.9 L 553.3 297.5 A 180.9 180.9 0 0 0 276.5 321.6" id="137,121" style="stroke:rgb(89.4%,10.2%,11%);stroke-opacity:1.0" /><path d="M 725.8 445.8 L 665.6 441.6 A 241.2 241.2 0 0 1 665.6 441.6" id="136,120" style="stroke:rgb(100%,49.8%,0%);stroke-opacity:1.0" /><path d="M 723.6 466.5 L 663.9 458.2 A 241.2 241.2 0 0 1 663.9 458.2" id="135,119" style="stroke:rgb(21.6%,49.4%,72.2%);stroke-opacity:1.0" /><path d="M 717.7 497.2 L 659.2 482.7 A 241.2 241.2 0 0 1 653.3 502.7" id="134,118" style="stroke:rgb(21.6%,49.4%,72.2%);stroke-opacity:1.0" /><path d="M 701.0 546.4 L 645.8 522.1 A 241.2 241.2 0 0 0 653.3 502.7" id="134,117" style="stroke:rgb(21.6%,49.4%,72.2%);stroke-opacity:1.0" /><path d="M 681.7 583.2 L 630.3 551.6 A 241.2 241.2 0 0 1 614.4 574.3" id="133,116" style="stroke:rgb(59.6%,30.6%,63.9%);stroke-opacity:1.0" /><path d="M 670.1 600.5 L 621.1 565.4 A 241.2 241.2 0 0 1 614.4 574.3" id="133,115" style="stroke:rgb(59.6%,30.6%,63.9%);stroke-opacity:1.0" /><path d="M 628.8 647.2 L 588.0 602.8 A 241.2 241.2 0 0 0 614.4 574.3" id="133,114" style="stroke:rgb(59.6%,30.6%,63.9%);stroke-opacity:1.0" /><path d="M 578.7 684.4 L 548.0 632.5 A 241.2 241.2 0 0 1 485.4 658.5" id="132,113" style="stroke:rgb(30.2%,68.6%,29%);stroke-opacity:1.0" /><path d="M 560.5 694.3 L 533.4 640.5 A 241.2 241.2 0 0 1 485.4 658.5" id="132,112" style="stroke:rgb(30.2%,68.6%,29%);stroke-opacity:1.0" /><path d="M 531.9 706.9 L 510.5 650.5 A 241.2 241.2 0 0 1 485.4 658.5" id="132,111" style="stroke:rgb(30.2%,68.6%,29%);stroke-opacity:1.0" /><path d="M 492.1 718.9 L 478.7 660.2 A 241.2 241.2 0 0 0 485.4 658.5" id="132,110" style="stroke:rgb(30.2%,68.6%,29%);stroke-opacity:1.0" /><path d="M 451.0 725.4 L 445.8 665.3 A 241.2 241.2 0 0 0 485.4 658.5" id="132,109" style="stroke:rgb(30.2%,68.6%,29%);stroke-opacity:1.0" /><path d="M 378.3 722.9 L 387.7 663.3 A 241.2 241.2 0 0 0 485.4 658.5" id="132,108" style="stroke:rgb(30.2%,68.6%,29%);stroke-opacity:1.0" /><path d="M 308.4 703.0 L 331.7 647.4 A 241.2 241.2 0 0 0 331.7 647.4" id="131,107" style="stroke:rgb(89.4%,10.2%,11%);stroke-opacity:1.0" /><path d="M 262.4 678.9 L 294.9 628.1 A 241.2 241.2 0 0 0 294.9 628.1" id="130,106" style="stroke:rgb(89.4%,10.2%,11%);stroke-opacity:1.0" /><path d="M 229.0 654.1 L 268.2 608.3 A 241.2 241.2 0 0 1 255.9 597.0" id="129,105" style="stroke:rgb(89.4%,10.2%,11%);stroke-opacity:1.0" /><path d="M 213.7 640.0 L 255.9 597.0 A 241.2 241.2 0 0 0 255.9 597.0" id="129,104" style="stroke:rgb(89.4%,10.2%,11%);stroke-opacity:1.0" /><path d="M 199.3 624.9 L 244.5 584.9 A 241.2 241.2 0 0 0 255.9 597.0" id="129,103" style="stroke:rgb(89.4%,10.2%,11%);stroke-opacity:1.0" /><path d="M 168.3 583.2 L 219.7 551.6 A 241.2 241.2 0 0 1 202.6 518.3" id="128,102" style="stroke:rgb(89.4%,10.2%,11%);stroke-opacity:1.0" /><path d="M 132.3 497.2 L 190.8 482.7 A 241.2 241.2 0 0 0 202.6 518.3" id="128,101" style="stroke:rgb(89.4%,10.2%,11%);stroke-opacity:1.0" /><path d="M 123.7 435.4 L 183.9 433.3 A 241.2 241.2 0 0 0 183.9 433.3" id="127,100" style="stroke:rgb(89.4%,10.2%,11%);stroke-opacity:1.0" /><path d="M 123.7 414.6 L 183.9 416.7 A 241.2 241.2 0 0 1 183.9 416.7" id="126,99" style="stroke:rgb(89.4%,10.2%,11%);stroke-opacity:1.0" /><path d="M 125.1 393.8 L 185.1 400.1 A 241.2 241.2 0 0 1 185.1 400.1" id="125,98" style="stroke:rgb(89.4%,10.2%,11%);stroke-opacity:1.0" /><path d="M 129.9 363.0 L 189.0 375.4 A 241.2 241.2 0 0 1 189.0 375.4" id="124,97" style="stroke:rgb(89.4%,10.2%,11%);stroke-opacity:1.0" /><path d="M 137.9 332.8 L 195.3 351.3 A 241.2 241.2 0 0 1 201.0 335.6" id="123,96" style="stroke:rgb(89.4%,10.2%,11%);stroke-opacity:1.0" /><path d="M 153.4 294.2 L 207.7 320.3 A 241.2 241.2 0 0 0 201.0 335.6" id="123,95" style="stroke:rgb(89.4%,10.2%,11%);stroke-opacity:1.0" /><path d="M 318.1 143.1 L 339.5 199.5 A 241.2 241.2 0 0 1 339.5 199.5" id="122,94" style="stroke:rgb(89.4%,10.2%,11%);stroke-opacity:1.0" /><path d="M 531.9 143.1 L 510.5 199.5 A 241.2 241.2 0 0 1 596.0 254.9" id="121,93" style="stroke:rgb(89.4%,10.2%,11%);stroke-opacity:1.0" /><path d="M 621.0 195.9 L 581.8 241.7 A 241.2 241.2 0 0 1 596.0 254.9" id="121,92" style="stroke:rgb(89.4%,10.2%,11%);stroke-opacity:1.0" /><path d="M 715.1 342.8 L 657.1 359.2 A 241.2 241.2 0 0 0 596.0 254.9" id="121,91" style="stroke:rgb(89.4%,10.2%,11%);stroke-opacity:1.0" /><path d="M 785.9 450.0 L 725.8 445.8 A 301.5 301.5 0 0 1 725.8 445.8" id="120,90" style="stroke:rgb(100%,49.8%,0%);stroke-opacity:1.0" /><path d="M 783.4 474.8 L 723.6 466.5 A 301.5 301.5 0 0 1 723.6 466.5" id="119,89" style="stroke:rgb(21.6%,49.4%,72.2%);stroke-opacity:1.0" /><path d="M 779.1 499.4 L 720.1 487.0 A 301.5 301.5 0 0 1 717.7 497.2" id="118,88" style="stroke:rgb(21.6%,49.4%,72.2%);stroke-opacity:1.0" /><path d="M 773.1 523.7 L 715.1 507.2 A 301.5 301.5 0 0 0 717.7 497.2" id="118,87" style="stroke:rgb(21.6%,49.4%,72.2%);stroke-opacity:1.0" /><path d="M 765.5 547.4 L 708.7 527.0 A 301.5 301.5 0 0 1 701.0 546.4" id="117,86" style="stroke:rgb(21.6%,49.4%,72.2%);stroke-opacity:1.0" /><path d="M 756.2 570.6 L 701.0 546.4 A 301.5 301.5 0 0 1 701.0 546.4" id="117,85" style="stroke:rgb(21.6%,49.4%,72.2%);stroke-opacity:1.0" /><path d="M 745.4 593.1 L 692.0 565.1 A 301.5 301.5 0 0 0 701.0 546.4" id="117,84" style="stroke:rgb(21.6%,49.4%,72.2%);stroke-opacity:1.0" /><path d="M 733.0 614.8 L 681.7 583.2 A 301.5 301.5 0 0 1 681.7 583.2" id="116,83" style="stroke:rgb(59.6%,30.6%,63.9%);stroke-opacity:1.0" /><path d="M 719.2 635.6 L 670.1 600.5 A 301.5 301.5 0 0 1 670.1 600.5" id="115,82" style="stroke:rgb(59.6%,30.6%,63.9%);stroke-opacity:1.0" /><path d="M 703.9 655.4 L 657.4 617.0 A 301.5 301.5 0 0 1 628.8 647.2" id="114,81" style="stroke:rgb(59.6%,30.6%,63.9%);stroke-opacity:1.0" /><path d="M 687.4 674.1 L 643.6 632.6 A 301.5 301.5 0 0 1 628.8 647.2" id="114,80" style="stroke:rgb(59.6%,30.6%,63.9%);stroke-opacity:1.0" /><path d="M 669.6 691.6 L 628.8 647.2 A 301.5 301.5 0 0 1 628.8 647.2" id="114,79" style="stroke:rgb(59.6%,30.6%,63.9%);stroke-opacity:1.0" /><path d="M 650.6 707.9 L 613.0 660.7 A 301.5 301.5 0 0 0 628.8 647.2" id="114,78" style="stroke:rgb(59.6%,30.6%,63.9%);stroke-opacity:1.0" /><path d="M 630.5 722.8 L 596.3 673.1 A 301.5 301.5 0 0 0 628.8 647.2" id="114,77" style="stroke:rgb(59.6%,30.6%,63.9%);stroke-opacity:1.0" /><path d="M 609.5 736.2 L 578.7 684.4 A 301.5 301.5 0 0 1 578.7 684.4" id="113,76" style="stroke:rgb(30.2%,68.6%,29%);stroke-opacity:1.0" /><path d="M 587.6 748.2 L 560.5 694.3 A 301.5 301.5 0 0 1 560.5 694.3" id="112,75" style="stroke:rgb(30.2%,68.6%,29%);stroke-opacity:1.0" /><path d="M 564.9 758.7 L 541.6 703.0 A 301.5 301.5 0 0 1 531.9 706.9" id="111,74" style="stroke:rgb(30.2%,68.6%,29%);stroke-opacity:1.0" /><path d="M 541.5 767.5 L 522.1 710.4 A 301.5 301.5 0 0 0 531.9 706.9" id="111,73" style="stroke:rgb(30.2%,68.6%,29%);stroke-opacity:1.0" /><path d="M 517.6 774.7 L 502.2 716.4 A 301.5 301.5 0 0 1 492.1 718.9" id="110,72" style="stroke:rgb(30.2%,68.6%,29%);stroke-opacity:1.0" /><path d="M 493.3 780.3 L 481.9 721.1 A 301.5 301.5 0 0 0 492.1 718.9" id="110,71" style="stroke:rgb(30.2%,68.6%,29%);stroke-opacity:1.0" /><path d="M 468.6 784.2 L 461.3 724.3 A 301.5 301.5 0 0 1 451.0 725.4" id="109,70" style="stroke:rgb(30.2%,68.6%,29%);stroke-opacity:1.0" /><path d="M 443.7 786.3 L 440.6 726.1 A 301.5 301.5 0 0 0 451.0 725.4" id="109,69" style="stroke:rgb(30.2%,68.6%,29%);stroke-opacity:1.0" /><path d="M 418.8 786.7 L 419.8 726.5 A 301.5 301.5 0 0 1 378.3 722.9" id="108,68" style="stroke:rgb(30.2%,68.6%,29%);stroke-opacity:1.0" /><path d="M 393.8 785.5 L 399.0 725.4 A 301.5 301.5 0 0 1 378.3 722.9" id="108,67" style="stroke:rgb(30.2%,68.6%,29%);stroke-opacity:1.0" /><path d="M 369.0 782.4 L 378.3 722.9 A 301.5 301.5 0 0 0 378.3 722.9" id="108,66" style="stroke:rgb(30.2%,68.6%,29%);stroke-opacity:1.0" /><path d="M 344.5 777.7 L 357.9 718.9 A 301.5 301.5 0 0 0 378.3 722.9" id="108,65" style="stroke:rgb(30.2%,68.6%,29%);stroke-opacity:1.0" /><path d="M 320.3 771.3 L 337.8 713.6 A 301.5 301.5 0 0 0 378.3 722.9" id="108,64" style="stroke:rgb(30.2%,68.6%,29%);stroke-opacity:1.0" /><path d="M 296.7 763.3 L 318.1 706.9 A 301.5 301.5 0 0 1 308.4 703.0" id="107,63" style="stroke:rgb(89.4%,10.2%,11%);stroke-opacity:1.0" /><path d="M 273.7 753.6 L 298.9 698.9 A 301.5 301.5 0 0 0 308.4 703.0" id="107,62" style="stroke:rgb(89.4%,10.2%,11%);stroke-opacity:1.0" /><path d="M 251.4 742.4 L 280.3 689.5 A 301.5 301.5 0 0 1 262.4 678.9" id="106,61" style="stroke:rgb(89.4%,10.2%,11%);stroke-opacity:1.0" /><path d="M 229.9 729.7 L 262.4 678.9 A 301.5 301.5 0 0 0 262.4 678.9" id="106,60" style="stroke:rgb(89.4%,10.2%,11%);stroke-opacity:1.0" /><path d="M 209.3 715.5 L 245.3 667.1 A 301.5 301.5 0 0 0 262.4 678.9" id="106,59" style="stroke:rgb(89.4%,10.2%,11%);stroke-opacity:1.0" /><path d="M 189.8 699.9 L 229.0 654.1 A 301.5 301.5 0 0 0 229.0 654.1" id="105,58" style="stroke:rgb(89.4%,10.2%,11%);stroke-opacity:1.0" /><path d="M 171.4 683.0 L 213.7 640.0 A 301.5 301.5 0 0 0 213.7 640.0" id="104,57" style="stroke:rgb(89.4%,10.2%,11%);stroke-opacity:1.0" /><path d="M 154.2 664.9 L 199.3 624.9 A 301.5 301.5 0 0 0 199.3 624.9" id="103,56" style="stroke:rgb(89.4%,10.2%,11%);stroke-opacity:1.0" /><path d="M 138.3 645.7 L 186.1 608.9 A 301.5 301.5 0 0 1 168.3 583.2" id="102,55" style="stroke:rgb(89.4%,10.2%,11%);stroke-opacity:1.0" /><path d="M 123.7 625.4 L 174.0 592.0 A 301.5 301.5 0 0 1 168.3 583.2" id="102,54" style="stroke:rgb(89.4%,10.2%,11%);stroke-opacity:1.0" /><path d="M 110.6 604.1 L 163.0 574.2 A 301.5 301.5 0 0 0 168.3 583.2" id="102,53" style="stroke:rgb(89.4%,10.2%,11%);stroke-opacity:1.0" /><path d="M 99.0 582.0 L 153.4 555.8 A 301.5 301.5 0 0 0 168.3 583.2" id="102,52" style="stroke:rgb(89.4%,10.2%,11%);stroke-opacity:1.0" /><path d="M 89.0 559.1 L 145.0 536.8 A 301.5 301.5 0 0 1 132.3 497.2" id="101,51" style="stroke:rgb(89.4%,10.2%,11%);stroke-opacity:1.0" /><path d="M 80.5 535.6 L 137.9 517.2 A 301.5 301.5 0 0 1 132.3 497.2" id="101,50" style="stroke:rgb(89.4%,10.2%,11%);stroke-opacity:1.0" /><path d="M 73.7 511.6 L 132.3 497.2 A 301.5 301.5 0 0 0 132.3 497.2" id="101,49" style="stroke:rgb(89.4%,10.2%,11%);stroke-opacity:1.0" /><path d="M 68.6 487.1 L 128.0 476.8 A 301.5 301.5 0 0 0 132.3 497.2" id="101,48" style="stroke:rgb(89.4%,10.2%,11%);stroke-opacity:1.0" /><path d="M 65.1 462.4 L 125.1 456.2 A 301.5 301.5 0 0 0 132.3 497.2" id="101,47" style="stroke:rgb(89.4%,10.2%,11%);stroke-opacity:1.0" /><path d="M 63.4 437.5 L 123.7 435.4 A 301.5 301.5 0 0 0 123.7 435.4" id="100,46" style="stroke:rgb(89.4%,10.2%,11%);stroke-opacity:1.0" /><path d="M 63.4 412.5 L 123.7 414.6 A 301.5 301.5 0 0 1 123.7 414.6" id="99,45" style="stroke:rgb(89.4%,10.2%,11%);stroke-opacity:1.0" /><path d="M 65.1 387.6 L 125.1 393.8 A 301.5 301.5 0 0 1 125.1 393.8" id="98,44" style="stroke:rgb(89.4%,10.2%,11%);stroke-opacity:1.0" /><path d="M 68.6 362.9 L 128.0 373.2 A 301.5 301.5 0 0 1 129.9 363.0" id="97,43" style="stroke:rgb(89.4%,10.2%,11%);stroke-opacity:1.0" /><path d="M 73.7 338.4 L 132.3 352.8 A 301.5 301.5 0 0 0 129.9 363.0" id="97,42" style="stroke:rgb(89.4%,10.2%,11%);stroke-opacity:1.0" /><path d="M 80.5 314.4 L 137.9 332.8 A 301.5 301.5 0 0 1 137.9 332.8" id="96,41" style="stroke:rgb(89.4%,10.2%,11%);stroke-opacity:1.0" /><path d="M 89.0 290.9 L 145.0 313.2 A 301.5 301.5 0 0 1 153.4 294.2" id="95,40" style="stroke:rgb(89.4%,10.2%,11%);stroke-opacity:1.0" /><path d="M 99.0 268.0 L 153.4 294.2 A 301.5 301.5 0 0 1 153.4 294.2" id="95,39" style="stroke:rgb(89.4%,10.2%,11%);stroke-opacity:1.0" /><path d="M 110.6 245.9 L 163.0 275.8 A 301.5 301.5 0 0 0 153.4 294.2" id="95,38" style="stroke:rgb(89.4%,10.2%,11%);stroke-opacity:1.0" /><path d="M 123.7 224.6 L 174.0 258.0 A 301.5 301.5 0 0 1 318.1 143.1" id="94,37" style="stroke:rgb(89.4%,10.2%,11%);stroke-opacity:1.0" /><path d="M 138.3 204.3 L 186.1 241.1 A 301.5 301.5 0 0 1 318.1 143.1" id="94,36" style="stroke:rgb(89.4%,10.2%,11%);stroke-opacity:1.0" /><path d="M 154.2 185.1 L 199.3 225.1 A 301.5 301.5 0 0 1 318.1 143.1" id="94,35" style="stroke:rgb(89.4%,10.2%,11%);stroke-opacity:1.0" /><path d="M 171.4 167.0 L 213.7 210.0 A 301.5 301.5 0 0 1 318.1 143.1" id="94,34" style="stroke:rgb(89.4%,10.2%,11%);stroke-opacity:1.0" /><path d="M 189.8 150.1 L 229.0 195.9 A 301.5 301.5 0 0 1 318.1 143.1" id="94,33" style="stroke:rgb(89.4%,10.2%,11%);stroke-opacity:1.0" /><path d="M 209.3 134.5 L 245.3 182.9 A 301.5 301.5 0 0 1 318.1 143.1" id="94,32" style="stroke:rgb(89.4%,10.2%,11%);stroke-opacity:1.0" /><path d="M 229.9 120.3 L 262.4 171.1 A 301.5 301.5 0 0 1 318.1 143.1" id="94,31" style="stroke:rgb(89.4%,10.2%,11%);stroke-opacity:1.0" /><path d="M 251.4 107.6 L 280.3 160.5 A 301.5 301.5 0 0 1 318.1 143.1" id="94,30" style="stroke:rgb(89.4%,10.2%,11%);stroke-opacity:1.0" /><path d="M 273.7 96.4 L 298.9 151.1 A 301.5 301.5 0 0 1 318.1 143.1" id="94,29" style="stroke:rgb(89.4%,10.2%,11%);stroke-opacity:1.0" /><path d="M 296.7 86.7 L 318.1 143.1 A 301.5 301.5 0 0 1 318.1 143.1" id="94,28" style="stroke:rgb(89.4%,10.2%,11%);stroke-opacity:1.0" /><path d="M 320.3 78.7 L 337.8 136.4 A 301.5 301.5 0 0 0 318.1 143.1" id="94,27" style="stroke:rgb(89.4%,10.2%,11%);stroke-opacity:1.0" /><path d="M 344.5 72.3 L 357.9 131.1 A 301.5 301.5 0 0 0 318.1 143.1" id="94,26" style="stroke:rgb(89.4%,10.2%,11%);stroke-opacity:1.0" /><path d="M 369.0 67.6 L 378.3 127.1 A 301.5 301.5 0 0 0 318.1 143.1" id="94,25" style="stroke:rgb(89.4%,10.2%,11%);stroke-opacity:1.0" /><path d="M 393.8 64.5 L 399.0 124.6 A 301.5 301.5 0 0 0 318.1 143.1" id="94,24" style="stroke:rgb(89.4%,10.2%,11%);stroke-opacity:1.0" /><path d="M 418.8 63.3 L 419.8 123.5 A 301.5 301.5 0 0 0 318.1 143.1" id="94,23" style="stroke:rgb(89.4%,10.2%,11%);stroke-opacity:1.0" /><path d="M 443.7 63.7 L 440.6 123.9 A 301.5 301.5 0 0 0 318.1 143.1" id="94,22" style="stroke:rgb(89.4%,10.2%,11%);stroke-opacity:1.0" /><path d="M 468.6 65.8 L 461.3 125.7 A 301.5 301.5 0 0 0 318.1 143.1" id="94,21" style="stroke:rgb(89.4%,10.2%,11%);stroke-opacity:1.0" /><path d="M 493.3 69.7 L 481.9 128.9 A 301.5 301.5 0 0 0 318.1 143.1" id="94,20" style="stroke:rgb(89.4%,10.2%,11%);stroke-opacity:1.0" /><path d="M 517.6 75.3 L 502.2 133.6 A 301.5 301.5 0 0 0 318.1 143.1" id="94,19" style="stroke:rgb(89.4%,10.2%,11%);stroke-opacity:1.0" /><path d="M 541.5 82.5 L 522.1 139.6 A 301.5 301.5 0 0 1 531.9 143.1" id="93,18" style="stroke:rgb(89.4%,10.2%,11%);stroke-opacity:1.0" /><path d="M 564.9 91.3 L 541.6 147.0 A 301.5 301.5 0 0 0 531.9 143.1" id="93,17" style="stroke:rgb(89.4%,10.2%,11%);stroke-opacity:1.0" /><path d="M 587.6 101.8 L 560.5 155.7 A 301.5 301.5 0 0 1 621.0 195.9" id="92,16" style="stroke:rgb(89.4%,10.2%,11%);stroke-opacity:1.0" /><path d="M 609.5 113.8 L 578.7 165.6 A 301.5 301.5 0 0 1 621.0 195.9" id="92,15" style="stroke:rgb(89.4%,10.2%,11%);stroke-opacity:1.0" /><path d="M 630.5 127.2 L 596.3 176.9 A 301.5 301.5 0 0 1 621.0 195.9" id="92,14" style="stroke:rgb(89.4%,10.2%,11%);stroke-opacity:1.0" /><path d="M 650.6 142.1 L 613.0 189.3 A 301.5 301.5 0 0 1 621.0 195.9" id="92,13" style="stroke:rgb(89.4%,10.2%,11%);stroke-opacity:1.0" /><path d="M 669.6 158.4 L 628.8 202.8 A 301.5 301.5 0 0 0 621.0 195.9" id="92,12" style="stroke:rgb(89.4%,10.2%,11%);stroke-opacity:1.0" /><path d="M 687.4 175.9 L 643.6 217.4 A 301.5 301.5 0 0 0 621.0 195.9" id="92,11" style="stroke:rgb(89.4%,10.2%,11%);stroke-opacity:1.0" /><path d="M 703.9 194.6 L 657.4 233.0 A 301.5 301.5 0 0 0 621.0 195.9" id="92,10" style="stroke:rgb(89.4%,10.2%,11%);stroke-opacity:1.0" /><path d="M 719.2 214.4 L 670.1 249.5 A 301.5 301.5 0 0 0 621.0 195.9" id="92,9" style="stroke:rgb(89.4%,10.2%,11%);stroke-opacity:1.0" /><path d="M 733.0 235.2 L 681.7 266.8 A 301.5 301.5 0 0 1 715.1 342.8" id="91,8" style="stroke:rgb(89.4%,10.2%,11%);stroke-opacity:1.0" /><path d="M 745.4 256.9 L 692.0 284.9 A 301.5 301.5 0 0 1 715.1 342.8" id="91,7" style="stroke:rgb(89.4%,10.2%,11%);stroke-opacity:1.0" /><path d="M 756.2 279.4 L 701.0 303.6 A 301.5 301.5 0 0 1 715.1 342.8" id="91,6" style="stroke:rgb(89.4%,10.2%,11%);stroke-opacity:1.0" /><path d="M 765.5 302.6 L 708.7 323.0 A 301.5 301.5 0 0 1 715.1 342.8" id="91,5" style="stroke:rgb(89.4%,10.2%,11%);stroke-opacity:1.0" /><path d="M 773.1 326.3 L 715.1 342.8 A 301.5 301.5 0 0 0 715.1 342.8" id="91,4" style="stroke:rgb(89.4%,10.2%,11%);stroke-opacity:1.0" /><path d="M 779.1 350.6 L 720.1 363.0 A 301.5 301.5 0 0 0 715.1 342.8" id="91,3" style="stroke:rgb(89.4%,10.2%,11%);stroke-opacity:1.0" /><path d="M 783.4 375.2 L 723.6 383.5 A 301.5 301.5 0 0 0 715.1 342.8" id="91,2" style="stroke:rgb(89.4%,10.2%,11%);stroke-opacity:1.0" /><path d="M 785.9 400.0 L 725.8 404.2 A 301.5 301.5 0 0 0 715.1 342.8" id="91,1" style="stroke:rgb(89.4%,10.2%,11%);stroke-opacity:1.0" /><path d="M 786.8 425.0 L 726.5 425.0 A 301.5 301.5 0 0 0 715.1 342.8" id="91,0" style="stroke:rgb(89.4%,10.2%,11%);stroke-opacity:1.0" /></g><g class="toytree-AlignEdges" style="stroke:rgb(66.3%,66.3%,66.3%);stroke-dasharray:2, 4;stroke-linecap:round;stroke-opacity:1.0;stroke-width:2"><path d="M 786.8 425.0 L 786.8 425.0" /><path d="M 785.9 400.0 L 785.9 400.0" /><path d="M 783.4 375.2 L 783.4 375.2" /><path d="M 779.1 350.6 L 779.1 350.6" /><path d="M 773.1 326.3 L 773.1 326.3" /><path d="M 765.5 302.6 L 765.5 302.6" /><path d="M 756.2 279.4 L 756.2 279.4" /><path d="M 745.4 256.9 L 745.4 256.9" /><path d="M 733.0 235.2 L 733.0 235.2" /><path d="M 719.2 214.4 L 719.2 214.4" /><path d="M 703.9 194.6 L 703.9 194.6" /><path d="M 687.4 175.9 L 687.4 175.9" /><path d="M 669.6 158.4 L 669.6 158.4" /><path d="M 650.6 142.1 L 650.6 142.1" /><path d="M 630.5 127.2 L 630.5 127.2" /><path d="M 609.5 113.8 L 609.5 113.8" /><path d="M 587.6 101.8 L 587.6 101.8" /><path d="M 564.9 91.3 L 564.9 91.3" /><path d="M 541.5 82.5 L 541.5 82.5" /><path d="M 517.6 75.3 L 517.6 75.3" /><path d="M 493.3 69.7 L 493.3 69.7" /><path d="M 468.6 65.8 L 468.6 65.8" /><path d="M 443.7 63.7 L 443.7 63.7" /><path d="M 418.8 63.3 L 418.8 63.3" /><path d="M 393.8 64.5 L 393.8 64.5" /><path d="M 369.0 67.6 L 369.0 67.6" /><path d="M 344.5 72.3 L 344.5 72.3" /><path d="M 320.3 78.7 L 320.3 78.7" /><path d="M 296.7 86.7 L 296.7 86.7" /><path d="M 273.7 96.4 L 273.7 96.4" /><path d="M 251.4 107.6 L 251.4 107.6" /><path d="M 229.9 120.3 L 229.9 120.3" /><path d="M 209.3 134.5 L 209.3 134.5" /><path d="M 189.8 150.1 L 189.8 150.1" /><path d="M 171.4 167.0 L 171.4 167.0" /><path d="M 154.2 185.1 L 154.2 185.1" /><path d="M 138.3 204.3 L 138.3 204.3" /><path d="M 123.7 224.6 L 123.7 224.6" /><path d="M 110.6 245.9 L 110.6 245.9" /><path d="M 99.0 268.0 L 99.0 268.0" /><path d="M 89.0 290.9 L 89.0 290.9" /><path d="M 80.5 314.4 L 80.5 314.4" /><path d="M 73.7 338.4 L 73.7 338.4" /><path d="M 68.6 362.9 L 68.6 362.9" /><path d="M 65.1 387.6 L 65.1 387.6" /><path d="M 63.4 412.5 L 63.4 412.5" /><path d="M 63.4 437.5 L 63.4 437.5" /><path d="M 65.1 462.4 L 65.1 462.4" /><path d="M 68.6 487.1 L 68.6 487.1" /><path d="M 73.7 511.6 L 73.7 511.6" /><path d="M 80.5 535.6 L 80.5 535.6" /><path d="M 89.0 559.1 L 89.0 559.1" /><path d="M 99.0 582.0 L 99.0 582.0" /><path d="M 110.6 604.1 L 110.6 604.1" /><path d="M 123.7 625.4 L 123.7 625.4" /><path d="M 138.3 645.7 L 138.3 645.7" /><path d="M 154.2 664.9 L 154.2 664.9" /><path d="M 171.4 683.0 L 171.4 683.0" /><path d="M 189.8 699.9 L 189.8 699.9" /><path d="M 209.3 715.5 L 209.3 715.5" /><path d="M 229.9 729.7 L 229.9 729.7" /><path d="M 251.4 742.4 L 251.4 742.4" /><path d="M 273.7 753.6 L 273.7 753.6" /><path d="M 296.7 763.3 L 296.7 763.3" /><path d="M 320.3 771.3 L 320.3 771.3" /><path d="M 344.5 777.7 L 344.5 777.7" /><path d="M 369.0 782.4 L 369.0 782.4" /><path d="M 393.8 785.5 L 393.8 785.5" /><path d="M 418.8 786.7 L 418.8 786.7" /><path d="M 443.7 786.3 L 443.7 786.3" /><path d="M 468.6 784.2 L 468.6 784.2" /><path d="M 493.3 780.3 L 493.3 780.3" /><path d="M 517.6 774.7 L 517.6 774.7" /><path d="M 541.5 767.5 L 541.5 767.5" /><path d="M 564.9 758.7 L 564.9 758.7" /><path d="M 587.6 748.2 L 587.6 748.2" /><path d="M 609.5 736.2 L 609.5 736.2" /><path d="M 630.5 722.8 L 630.5 722.8" /><path d="M 650.6 707.9 L 650.6 707.9" /><path d="M 669.6 691.6 L 669.6 691.6" /><path d="M 687.4 674.1 L 687.4 674.1" /><path d="M 703.9 655.4 L 703.9 655.4" /><path d="M 719.2 635.6 L 719.2 635.6" /><path d="M 733.0 614.8 L 733.0 614.8" /><path d="M 745.4 593.1 L 745.4 593.1" /><path d="M 756.2 570.6 L 756.2 570.6" /><path d="M 765.5 547.4 L 765.5 547.4" /><path d="M 773.1 523.7 L 773.1 523.7" /><path d="M 779.1 499.4 L 779.1 499.4" /><path d="M 783.4 474.8 L 783.4 474.8" /><path d="M 785.9 450.0 L 785.9 450.0" /></g><g class="toytree-Nodes" style="fill:rgb(40%,76.1%,64.7%);fill-opacity:1.0;stroke:rgb(0%,0%,0%);stroke-opacity:1.0;stroke-width:1"><g fill="rgb(0%,100%,100%)" fill-opacity="1.0" id="node-0" transform="translate(786.799,425.000)"><circle r="0.0" /></g><g fill="rgb(0%,100%,100%)" fill-opacity="1.0" id="node-1" transform="translate(785.937,400.039)"><circle r="0.0" /></g><g fill="rgb(0%,100%,100%)" fill-opacity="1.0" id="node-2" transform="translate(783.355,375.197)"><circle r="0.0" /></g><g fill="rgb(0%,100%,100%)" fill-opacity="1.0" id="node-3" transform="translate(779.065,350.593)"><circle r="0.0" /></g><g fill="rgb(0%,100%,100%)" fill-opacity="1.0" id="node-4" transform="translate(773.088,326.343)"><circle r="0.0" /></g><g fill="rgb(0%,100%,100%)" fill-opacity="1.0" id="node-5" transform="translate(765.452,302.563)"><circle r="0.0" /></g><g fill="rgb(0%,100%,100%)" fill-opacity="1.0" id="node-6" transform="translate(756.194,279.367)"><circle r="0.0" /></g><g fill="rgb(0%,100%,100%)" fill-opacity="1.0" id="node-7" transform="translate(745.357,256.865)"><circle r="0.0" /></g><g fill="rgb(0%,100%,100%)" fill-opacity="1.0" id="node-8" transform="translate(732.994,235.163)"><circle r="0.0" /></g><g fill="rgb(0%,100%,100%)" fill-opacity="1.0" id="node-9" transform="translate(719.163,214.367)"><circle r="0.0" /></g><g fill="rgb(0%,100%,100%)" fill-opacity="1.0" id="node-10" transform="translate(703.930,194.574)"><circle r="0.0" /></g><g fill="rgb(0%,100%,100%)" fill-opacity="1.0" id="node-11" transform="translate(687.368,175.880)"><circle r="0.0" /></g><g fill="rgb(0%,100%,100%)" fill-opacity="1.0" id="node-12" transform="translate(669.556,158.372)"><circle r="0.0" /></g><g fill="rgb(0%,100%,100%)" fill-opacity="1.0" id="node-13" transform="translate(650.578,142.136)"><circle r="0.0" /></g><g fill="rgb(0%,100%,100%)" fill-opacity="1.0" id="node-14" transform="translate(630.525,127.247)"><circle r="0.0" /></g><g fill="rgb(0%,100%,100%)" fill-opacity="1.0" id="node-15" transform="translate(609.493,113.777)"><circle r="0.0" /></g><g fill="rgb(0%,100%,100%)" fill-opacity="1.0" id="node-16" transform="translate(587.582,101.790)"><circle r="0.0" /></g><g fill="rgb(0%,100%,100%)" fill-opacity="1.0" id="node-17" transform="translate(564.896,91.344)"><circle r="0.0" /></g><g fill="rgb(0%,100%,100%)" fill-opacity="1.0" id="node-18" transform="translate(541.543,82.487)"><circle r="0.0" /></g><g fill="rgb(0%,100%,100%)" fill-opacity="1.0" id="node-19" transform="translate(517.635,75.263)"><circle r="0.0" /></g><g fill="rgb(0%,100%,100%)" fill-opacity="1.0" id="node-20" transform="translate(493.285,69.705)"><circle r="0.0" /></g><g fill="rgb(0%,100%,100%)" fill-opacity="1.0" id="node-21" transform="translate(468.610,65.841)"><circle r="0.0" /></g><g fill="rgb(0%,100%,100%)" fill-opacity="1.0" id="node-22" transform="translate(443.727,63.688)"><circle r="0.0" /></g><g fill="rgb(0%,100%,100%)" fill-opacity="1.0" id="node-23" transform="translate(418.755,63.257)"><circle r="0.0" /></g><g fill="rgb(0%,100%,100%)" fill-opacity="1.0" id="node-24" transform="translate(393.813,64.550)"><circle r="0.0" /></g><g fill="rgb(0%,100%,100%)" fill-opacity="1.0" id="node-25" transform="translate(369.019,67.560)"><circle r="0.0" /></g><g fill="rgb(0%,100%,100%)" fill-opacity="1.0" id="node-26" transform="translate(344.492,72.274)"><circle r="0.0" /></g><g fill="rgb(0%,100%,100%)" fill-opacity="1.0" id="node-27" transform="translate(320.349,78.669)"><circle r="0.0" /></g><g fill="rgb(0%,100%,100%)" fill-opacity="1.0" id="node-28" transform="translate(296.704,86.714)"><circle r="0.0" /></g><g fill="rgb(0%,100%,100%)" fill-opacity="1.0" id="node-29" transform="translate(273.671,96.371)"><circle r="0.0" /></g><g fill="rgb(0%,100%,100%)" fill-opacity="1.0" id="node-30" transform="translate(251.359,107.594)"><circle r="0.0" /></g><g fill="rgb(0%,100%,100%)" fill-opacity="1.0" id="node-31" transform="translate(229.875,120.330)"><circle r="0.0" /></g><g fill="rgb(0%,100%,100%)" fill-opacity="1.0" id="node-32" transform="translate(209.320,134.518)"><circle r="0.0" /></g><g fill="rgb(0%,100%,100%)" fill-opacity="1.0" id="node-33" transform="translate(189.793,150.090)"><circle r="0.0" /></g><g fill="rgb(0%,100%,100%)" fill-opacity="1.0" id="node-34" transform="translate(171.387,166.972)"><circle r="0.0" /></g><g fill="rgb(0%,100%,100%)" fill-opacity="1.0" id="node-35" transform="translate(154.190,185.084)"><circle r="0.0" /></g><g fill="rgb(0%,100%,100%)" fill-opacity="1.0" id="node-36" transform="translate(138.283,204.339)"><circle r="0.0" /></g><g fill="rgb(0%,100%,100%)" fill-opacity="1.0" id="node-37" transform="translate(123.742,224.646)"><circle r="0.0" /></g><g fill="rgb(0%,0%,0%)" fill-opacity="1.0" id="node-38" transform="translate(110.637,245.907)"><circle r="6.843416370106762" /></g><g fill="rgb(0%,100%,100%)" fill-opacity="1.0" id="node-39" transform="translate(99.030,268.022)"><circle r="0.0" /></g><g fill="rgb(0%,100%,100%)" fill-opacity="1.0" id="node-40" transform="translate(88.977,290.885)"><circle r="0.0" /></g><g fill="rgb(0%,100%,100%)" fill-opacity="1.0" id="node-41" transform="translate(80.525,314.387)"><circle r="0.0" /></g><g fill="rgb(0%,100%,100%)" fill-opacity="1.0" id="node-42" transform="translate(73.714,338.416)"><circle r="0.0" /></g><g fill="rgb(0%,100%,100%)" fill-opacity="1.0" id="node-43" transform="translate(68.578,362.858)"><circle r="0.0" /></g><g fill="rgb(0%,100%,100%)" fill-opacity="1.0" id="node-44" transform="translate(65.140,387.596)"><circle r="0.0" /></g><g fill="rgb(0%,100%,100%)" fill-opacity="1.0" id="node-45" transform="translate(63.417,412.512)"><circle r="0.0" /></g><g fill="rgb(0%,100%,100%)" fill-opacity="1.0" id="node-46" transform="translate(63.417,437.488)"><circle r="0.0" /></g><g fill="rgb(0%,100%,100%)" fill-opacity="1.0" id="node-47" transform="translate(65.140,462.404)"><circle r="0.0" /></g><g fill="rgb(0%,100%,100%)" fill-opacity="1.0" id="node-48" transform="translate(68.578,487.142)"><circle r="0.0" /></g><g fill="rgb(0%,100%,100%)" fill-opacity="1.0" id="node-49" transform="translate(73.714,511.584)"><circle r="0.0" /></g><g fill="rgb(0%,100%,100%)" fill-opacity="1.0" id="node-50" transform="translate(80.525,535.613)"><circle r="0.0" /></g><g fill="rgb(0%,100%,100%)" fill-opacity="1.0" id="node-51" transform="translate(88.977,559.115)"><circle r="0.0" /></g><g fill="rgb(0%,100%,100%)" fill-opacity="1.0" id="node-52" transform="translate(99.030,581.978)"><circle r="0.0" /></g><g fill="rgb(0%,100%,100%)" fill-opacity="1.0" id="node-53" transform="translate(110.637,604.093)"><circle r="0.0" /></g><g fill="rgb(0%,100%,100%)" fill-opacity="1.0" id="node-54" transform="translate(123.742,625.354)"><circle r="0.0" /></g><g fill="rgb(0%,100%,100%)" fill-opacity="1.0" id="node-55" transform="translate(138.283,645.661)"><circle r="0.0" /></g><g fill="rgb(0%,100%,100%)" fill-opacity="1.0" id="node-56" transform="translate(154.190,664.916)"><circle r="0.0" /></g><g fill="rgb(0%,100%,100%)" fill-opacity="1.0" id="node-57" transform="translate(171.387,683.028)"><circle r="0.0" /></g><g fill="rgb(0%,100%,100%)" fill-opacity="1.0" id="node-58" transform="translate(189.793,699.910)"><circle r="0.0" /></g><g fill="rgb(0%,100%,100%)" fill-opacity="1.0" id="node-59" transform="translate(209.320,715.482)"><circle r="0.0" /></g><g fill="rgb(0%,100%,100%)" fill-opacity="1.0" id="node-60" transform="translate(229.875,729.670)"><circle r="0.0" /></g><g fill="rgb(0%,100%,100%)" fill-opacity="1.0" id="node-61" transform="translate(251.359,742.406)"><circle r="0.0" /></g><g fill="rgb(0%,100%,100%)" fill-opacity="1.0" id="node-62" transform="translate(273.671,753.629)"><circle r="0.0" /></g><g fill="rgb(0%,100%,100%)" fill-opacity="1.0" id="node-63" transform="translate(296.704,763.286)"><circle r="0.0" /></g><g fill="rgb(0%,100%,100%)" fill-opacity="1.0" id="node-64" transform="translate(320.349,771.331)"><circle r="0.0" /></g><g fill="rgb(0%,100%,100%)" fill-opacity="1.0" id="node-65" transform="translate(344.492,777.726)"><circle r="0.0" /></g><g fill="rgb(0%,100%,100%)" fill-opacity="1.0" id="node-66" transform="translate(369.019,782.440)"><circle r="0.0" /></g><g fill="rgb(0%,100%,100%)" fill-opacity="1.0" id="node-67" transform="translate(393.813,785.450)"><circle r="0.0" /></g><g fill="rgb(0%,100%,100%)" fill-opacity="1.0" id="node-68" transform="translate(418.755,786.743)"><circle r="0.0" /></g><g fill="rgb(0%,100%,100%)" fill-opacity="1.0" id="node-69" transform="translate(443.727,786.312)"><circle r="0.0" /></g><g fill="rgb(0%,100%,100%)" fill-opacity="1.0" id="node-70" transform="translate(468.610,784.159)"><circle r="0.0" /></g><g fill="rgb(0%,100%,100%)" fill-opacity="1.0" id="node-71" transform="translate(493.285,780.295)"><circle r="0.0" /></g><g fill="rgb(0%,100%,100%)" fill-opacity="1.0" id="node-72" transform="translate(517.635,774.737)"><circle r="0.0" /></g><g fill="rgb(0%,100%,100%)" fill-opacity="1.0" id="node-73" transform="translate(541.543,767.513)"><circle r="0.0" /></g><g fill="rgb(0%,100%,100%)" fill-opacity="1.0" id="node-74" transform="translate(564.896,758.656)"><circle r="0.0" /></g><g fill="rgb(0%,100%,100%)" fill-opacity="1.0" id="node-75" transform="translate(587.582,748.210)"><circle r="0.0" /></g><g fill="rgb(0%,100%,100%)" fill-opacity="1.0" id="node-76" transform="translate(609.493,736.223)"><circle r="0.0" /></g><g fill="rgb(0%,100%,100%)" fill-opacity="1.0" id="node-77" transform="translate(630.525,722.753)"><circle r="0.0" /></g><g fill="rgb(0%,100%,100%)" fill-opacity="1.0" id="node-78" transform="translate(650.578,707.864)"><circle r="0.0" /></g><g fill="rgb(0%,100%,100%)" fill-opacity="1.0" id="node-79" transform="translate(669.556,691.628)"><circle r="0.0" /></g><g fill="rgb(0%,100%,100%)" fill-opacity="1.0" id="node-80" transform="translate(687.368,674.120)"><circle r="0.0" /></g><g fill="rgb(0%,100%,100%)" fill-opacity="1.0" id="node-81" transform="translate(703.930,655.426)"><circle r="0.0" /></g><g fill="rgb(0%,100%,100%)" fill-opacity="1.0" id="node-82" transform="translate(719.163,635.633)"><circle r="0.0" /></g><g fill="rgb(0%,100%,100%)" fill-opacity="1.0" id="node-83" transform="translate(732.994,614.837)"><circle r="0.0" /></g><g fill="rgb(0%,100%,100%)" fill-opacity="1.0" id="node-84" transform="translate(745.357,593.135)"><circle r="0.0" /></g><g fill="rgb(0%,100%,100%)" fill-opacity="1.0" id="node-85" transform="translate(756.194,570.633)"><circle r="0.0" /></g><g fill="rgb(0%,100%,100%)" fill-opacity="1.0" id="node-86" transform="translate(765.452,547.437)"><circle r="0.0" /></g><g fill="rgb(0%,100%,100%)" fill-opacity="1.0" id="node-87" transform="translate(773.088,523.657)"><circle r="0.0" /></g><g fill="rgb(0%,100%,100%)" fill-opacity="1.0" id="node-88" transform="translate(779.065,499.407)"><circle r="0.0" /></g><g fill="rgb(0%,100%,100%)" fill-opacity="1.0" id="node-89" transform="translate(783.355,474.803)"><circle r="0.0" /></g><g fill="rgb(0%,100%,100%)" fill-opacity="1.0" id="node-90" transform="translate(785.937,449.961)"><circle r="0.0" /></g><g fill="rgb(0%,100%,100%)" fill-opacity="1.0" id="node-91" transform="translate(715.073,342.786)"><circle r="0.0" /></g><g fill="rgb(0%,100%,100%)" fill-opacity="1.0" id="node-92" transform="translate(621.006,195.909)"><circle r="0.0" /></g><g fill="rgb(0%,100%,100%)" fill-opacity="1.0" id="node-93" transform="translate(531.913,143.095)"><circle r="0.0" /></g><g fill="rgb(0%,100%,100%)" fill-opacity="1.0" id="node-94" transform="translate(318.087,143.095)"><circle r="0.0" /></g><g fill="rgb(0%,100%,100%)" fill-opacity="1.0" id="node-95" transform="translate(153.359,294.185)"><circle r="0.0" /></g><g fill="rgb(0%,100%,100%)" fill-opacity="1.0" id="node-96" transform="translate(137.937,332.823)"><circle r="0.0" /></g><g fill="rgb(0%,100%,100%)" fill-opacity="1.0" id="node-97" transform="translate(129.946,362.994)"><circle r="0.0" /></g><g fill="rgb(0%,100%,100%)" fill-opacity="1.0" id="node-98" transform="translate(125.116,393.830)"><circle r="0.0" /></g><g fill="rgb(0%,100%,100%)" fill-opacity="1.0" id="node-99" transform="translate(123.681,414.593)"><circle r="0.0" /></g><g fill="rgb(0%,100%,100%)" fill-opacity="1.0" id="node-100" transform="translate(123.681,435.407)"><circle r="0.0" /></g><g fill="rgb(0%,100%,100%)" fill-opacity="1.0" id="node-101" transform="translate(132.262,497.153)"><circle r="0.0" /></g><g fill="rgb(0%,100%,100%)" fill-opacity="1.0" id="node-102" transform="translate(168.339,583.197)"><circle r="0.0" /></g><g fill="rgb(0%,100%,100%)" fill-opacity="1.0" id="node-103" transform="translate(199.325,624.930)"><circle r="0.0" /></g><g fill="rgb(0%,100%,100%)" fill-opacity="1.0" id="node-104" transform="translate(213.656,640.023)"><circle r="0.0" /></g><g fill="rgb(0%,100%,100%)" fill-opacity="1.0" id="node-105" transform="translate(228.994,654.091)"><circle r="0.0" /></g><g fill="rgb(0%,100%,100%)" fill-opacity="1.0" id="node-106" transform="translate(262.395,678.891)"><circle r="0.0" /></g><g fill="rgb(0%,100%,100%)" fill-opacity="1.0" id="node-107" transform="translate(308.420,703.047)"><circle r="0.0" /></g><g fill="rgb(0%,100%,100%)" fill-opacity="1.0" id="node-108" transform="translate(378.349,722.867)"><circle r="0.0" /></g><g fill="rgb(0%,100%,100%)" fill-opacity="1.0" id="node-109" transform="translate(450.989,725.375)"><circle r="0.0" /></g><g fill="rgb(0%,100%,100%)" fill-opacity="1.0" id="node-110" transform="translate(492.090,718.938)"><circle r="0.0" /></g><g fill="rgb(0%,100%,100%)" fill-opacity="1.0" id="node-111" transform="translate(531.913,706.905)"><circle r="0.0" /></g><g fill="rgb(0%,100%,100%)" fill-opacity="1.0" id="node-112" transform="translate(560.485,694.341)"><circle r="0.0" /></g><g fill="rgb(0%,100%,100%)" fill-opacity="1.0" id="node-113" transform="translate(578.744,684.352)"><circle r="0.0" /></g><g fill="rgb(0%,100%,100%)" fill-opacity="1.0" id="node-114" transform="translate(628.796,647.190)"><circle r="0.0" /></g><g fill="rgb(0%,100%,100%)" fill-opacity="1.0" id="node-115" transform="translate(670.136,600.527)"><circle r="0.0" /></g><g fill="rgb(0%,100%,100%)" fill-opacity="1.0" id="node-116" transform="translate(681.661,583.197)"><circle r="0.0" /></g><g fill="rgb(0%,100%,100%)" fill-opacity="1.0" id="node-117" transform="translate(700.995,546.361)"><circle r="0.0" /></g><g fill="rgb(0%,100%,100%)" fill-opacity="1.0" id="node-118" transform="translate(717.738,497.153)"><circle r="0.0" /></g><g fill="rgb(0%,100%,100%)" fill-opacity="1.0" id="node-119" transform="translate(723.629,466.502)"><circle r="0.0" /></g><g fill="rgb(0%,100%,100%)" fill-opacity="1.0" id="node-120" transform="translate(725.781,445.801)"><circle r="0.0" /></g><g fill="rgb(0%,100%,100%)" fill-opacity="1.0" id="node-121" transform="translate(596.044,254.939)"><circle r="0.0" /></g><g fill="rgb(0%,100%,100%)" fill-opacity="1.0" id="node-122" transform="translate(339.470,199.476)"><circle r="0.0" /></g><g fill="rgb(0%,100%,100%)" fill-opacity="1.0" id="node-123" transform="translate(200.985,335.590)"><circle r="0.0" /></g><g fill="rgb(0%,100%,100%)" fill-opacity="1.0" id="node-124" transform="translate(188.957,375.395)"><circle r="0.0" /></g><g fill="rgb(0%,100%,100%)" fill-opacity="1.0" id="node-125" transform="translate(185.093,400.064)"><circle r="0.0" /></g><g fill="rgb(0%,100%,100%)" fill-opacity="1.0" id="node-126" transform="translate(183.944,416.675)"><circle r="0.0" /></g><g fill="rgb(0%,100%,100%)" fill-opacity="1.0" id="node-127" transform="translate(183.944,433.325)"><circle r="0.0" /></g><g fill="rgb(0%,100%,100%)" fill-opacity="1.0" id="node-128" transform="translate(202.561,518.263)"><circle r="0.0" /></g><g fill="rgb(0%,100%,100%)" fill-opacity="1.0" id="node-129" transform="translate(255.925,597.018)"><circle r="0.0" /></g><g fill="rgb(0%,100%,100%)" fill-opacity="1.0" id="node-130" transform="translate(294.916,628.113)"><circle r="0.0" /></g><g fill="rgb(0%,100%,100%)" fill-opacity="1.0" id="node-131" transform="translate(331.736,647.438)"><circle r="0.0" /></g><g fill="rgb(0%,100%,100%)" fill-opacity="1.0" id="node-132" transform="translate(485.414,658.509)"><circle r="0.0" /></g><g fill="rgb(0%,100%,100%)" fill-opacity="1.0" id="node-133" transform="translate(614.439,574.297)"><circle r="0.0" /></g><g fill="rgb(0%,100%,100%)" fill-opacity="1.0" id="node-134" transform="translate(653.343,502.695)"><circle r="0.0" /></g><g fill="rgb(0%,100%,100%)" fill-opacity="1.0" id="node-135" transform="translate(663.903,458.202)"><circle r="0.0" /></g><g fill="rgb(0%,100%,100%)" fill-opacity="1.0" id="node-136" transform="translate(665.625,441.641)"><circle r="0.0" /></g><g fill="rgb(0%,100%,100%)" fill-opacity="1.0" id="node-137" transform="translate(276.546,321.627)"><circle r="0.0" /></g><g fill="rgb(0%,100%,100%)" fill-opacity="1.0" id="node-138" transform="translate(275.241,526.473)"><circle r="0.0" /></g><g fill="rgb(0%,100%,100%)" fill-opacity="1.0" id="node-139" transform="translate(340.932,585.178)"><circle r="0.0" /></g><g fill="rgb(0%,100%,100%)" fill-opacity="1.0" id="node-140" transform="translate(470.310,600.132)"><circle r="0.0" /></g><g fill="rgb(0%,100%,100%)" fill-opacity="1.0" id="node-141" transform="translate(567.080,536.973)"><circle r="0.0" /></g><g fill="rgb(0%,100%,100%)" fill-opacity="1.0" id="node-142" transform="translate(601.010,466.774)"><circle r="0.0" /></g><g fill="rgb(0%,100%,100%)" fill-opacity="1.0" id="node-143" transform="translate(605.468,437.480)"><circle r="0.0" /></g><g fill="rgb(0%,100%,100%)" fill-opacity="1.0" id="node-144" transform="translate(312.057,467.286)"><circle r="0.0" /></g><g fill="rgb(0%,100%,100%)" fill-opacity="1.0" id="node-145" transform="translate(455.207,541.755)"><circle r="0.0" /></g><g fill="rgb(0%,100%,100%)" fill-opacity="1.0" id="node-146" transform="translate(519.720,499.648)"><circle r="0.0" /></g><g fill="rgb(0%,100%,100%)" fill-opacity="1.0" id="node-147" transform="translate(542.340,452.850)"><circle r="0.0" /></g><g fill="rgb(0%,100%,100%)" fill-opacity="1.0" id="node-148" transform="translate(545.312,433.320)"><circle r="0.0" /></g><g fill="rgb(0%,100%,100%)" fill-opacity="1.0" id="node-149" transform="translate(456.862,476.195)"><circle r="0.0" /></g><g fill="rgb(0%,100%,100%)" fill-opacity="1.0" id="node-150" transform="translate(425.000,425.000)"><circle r="0.0" /></g></g></g></g></g><g class="toyplot-coordinates-Cartesian" id="t667f81c0fe514084a923eb42296b75ad"><clipPath id="t5e3b83954d304662bb9a4ce019f0a38b"><rect x="50.0" y="50.0" width="750.0" height="50.0" /></clipPath><g clip-path="url(#t5e3b83954d304662bb9a4ce019f0a38b)" /><g transform="translate(425.0,42.0)"><text x="-103.677" y="-4.823" style="fill:rgb(16.1%,15.3%,14.1%);fill-opacity:1.0;font-family:helvetica;font-size:14.0px;font-weight:bold;stroke:none;vertical-align:baseline;white-space:pre">Healthy vs. IBS-unspecified, =5</text></g></g><g class="toyplot-coordinates-Table" id="tb32f9297c80541bd8d808270b8351884"><g transform="translate(900.0,275.0)"><text x="-25.284000000000002" y="-10.423" style="fill:rgb(16.1%,15.3%,14.1%);fill-opacity:1.0;font-family:helvetica;font-size:14.0px;font-weight:bold;stroke:none;vertical-align:baseline;white-space:pre">Phylum</text></g><g transform="translate(895.0,285.0)"><g style="fill:rgb(100%,49.8%,0%);fill-opacity:1.0" transform="translate(-5.55, -4.440892098500626e-16)"><circle r="4.0" /></g></g><g transform="translate(905.0,285.0)"><text x="0" y="3.066" style="fill:rgb(16.1%,15.3%,14.1%);fill-opacity:1.0;font-family:helvetica;font-size:12.0px;font-weight:normal;stroke:none;vertical-align:baseline;white-space:pre">Synergistota</text></g><g transform="translate(895.0,305.0)"><g style="fill:rgb(21.6%,49.4%,72.2%);fill-opacity:1.0" transform="translate(-5.55, -4.440892098500626e-16)"><circle r="4.0" /></g></g><g transform="translate(905.0,305.0)"><text x="0" y="3.066" style="fill:rgb(16.1%,15.3%,14.1%);fill-opacity:1.0;font-family:helvetica;font-size:12.0px;font-weight:normal;stroke:none;vertical-align:baseline;white-space:pre">Proteobacteria</text></g><g transform="translate(895.0,325.0)"><g style="fill:rgb(59.6%,30.6%,63.9%);fill-opacity:1.0" transform="translate(-5.55, -4.440892098500626e-16)"><circle r="4.0" /></g></g><g transform="translate(905.0,325.0)"><text x="0" y="3.066" style="fill:rgb(16.1%,15.3%,14.1%);fill-opacity:1.0;font-family:helvetica;font-size:12.0px;font-weight:normal;stroke:none;vertical-align:baseline;white-space:pre">Actinobacteriota</text></g><g transform="translate(895.0,345.0)"><g style="fill:rgb(30.2%,68.6%,29%);fill-opacity:1.0" transform="translate(-5.55, -4.440892098500626e-16)"><circle r="4.0" /></g></g><g transform="translate(905.0,345.0)"><text x="0" y="3.066" style="fill:rgb(16.1%,15.3%,14.1%);fill-opacity:1.0;font-family:helvetica;font-size:12.0px;font-weight:normal;stroke:none;vertical-align:baseline;white-space:pre">Bacteroidota</text></g><g transform="translate(895.0,365.0)"><g style="fill:rgb(89.4%,10.2%,11%);fill-opacity:1.0" transform="translate(-5.55, -4.440892098500626e-16)"><circle r="4.0" /></g></g><g transform="translate(905.0,365.0)"><text x="0" y="3.066" style="fill:rgb(16.1%,15.3%,14.1%);fill-opacity:1.0;font-family:helvetica;font-size:12.0px;font-weight:normal;stroke:none;vertical-align:baseline;white-space:pre">Firmicutes</text></g></g><g class="toyplot-coordinates-Table" id="t20b8ff666f8844d2a30bf4a31d0872cc"><g transform="translate(900.0,425.0)"><text x="-59.899" y="-10.423" style="fill:rgb(16.1%,15.3%,14.1%);fill-opacity:1.0;font-family:helvetica;font-size:14.0px;font-weight:bold;stroke:none;vertical-align:baseline;white-space:pre">tascCODA Effects</text></g><g transform="translate(895.0,450.0)"><g style="fill:rgb(0%,0%,0%);fill-opacity:1.0" transform="translate(-5.55, -4.440892098500626e-16)"><circle r="10.0" /></g></g><g transform="translate(905.0,450.0)"><text x="0" y="3.066" style="fill:rgb(16.1%,15.3%,14.1%);fill-opacity:1.0;font-family:helvetica;font-size:12.0px;font-weight:normal;stroke:none;vertical-align:baseline;white-space:pre">1.405</text></g><g transform="translate(895.0,500.0)"><g style="fill:rgb(100%,100%,100%);fill-opacity:1.0" transform="translate(-5.55, -4.440892098500626e-16)"><circle r="10.0" /></g></g><g transform="translate(905.0,500.0)"><text x="0" y="3.066" style="fill:rgb(16.1%,15.3%,14.1%);fill-opacity:1.0;font-family:helvetica;font-size:12.0px;font-weight:normal;stroke:none;vertical-align:baseline;white-space:pre">-1.405</text></g></g></svg>