<svg class="toyplot-canvas-Canvas" xmlns:toyplot="http://www.sandia.gov/toyplot" xmlns:xlink="http://www.w3.org/1999/xlink" xmlns="http://www.w3.org/2000/svg" width="1000.0px" height="1000.0px" viewBox="0 0 1000.0 1000.0" preserveAspectRatio="xMidYMid meet" style="background-color:transparent;border-color:#292724;border-style:none;border-width:1.0;fill:rgb(16.1%,15.3%,14.1%);fill-opacity:1.0;font-family:Helvetica;font-size:12px;opacity:1.0;stroke:rgb(16.1%,15.3%,14.1%);stroke-opacity:1.0;stroke-width:1.0" id="tc55a41b1046d4a2bbcf5409f1f4c7fba"><g class="toyplot-coordinates-Cartesian" id="t19f2464d4f0b41359b5a7ca1754d3be4"><clipPath id="t0a84c6d185b743f6bd35637f54342d88"><rect x="30.0" y="30.0" width="790.0" height="790.0" /></clipPath><g clip-path="url(#t0a84c6d185b743f6bd35637f54342d88)"><g class="toytree-mark-Toytree" id="t3196748786214a1ba4e9560d42611c26"><g class="toytree-Edges" style="fill:none;stroke:rgb(14.9%,14.9%,14.9%);stroke-linecap:round;stroke-opacity:1;stroke-width:3"><path d="M 455.6 474.1 L 425.0 425.0 A -0.0 -0.0 0 0 0 425.0 425.0" id="150,149" style="stroke:rgb(0%,0%,0%);stroke-opacity:1.0" /><path d="M 540.5 433.0 L 482.7 429.0 A 57.9 57.9 0 0 1 455.6 474.1" id="149,148" style="stroke:rgb(100%,49.8%,0%);stroke-opacity:1.0" /><path d="M 537.6 451.7 L 481.3 438.4 A 57.9 57.9 0 0 1 455.6 474.1" id="149,147" style="stroke:rgb(21.6%,49.4%,72.2%);stroke-opacity:1.0" /><path d="M 515.9 496.6 L 470.5 460.8 A 57.9 57.9 0 0 1 455.6 474.1" id="149,146" style="stroke:rgb(59.6%,30.6%,63.9%);stroke-opacity:1.0" /><path d="M 454.0 537.1 L 439.5 481.0 A 57.9 57.9 0 0 0 455.6 474.1" id="149,145" style="stroke:rgb(30.2%,68.6%,29%);stroke-opacity:1.0" /><path d="M 316.6 465.6 L 370.8 445.3 A 57.9 57.9 0 0 0 455.6 474.1" id="149,144" style="stroke:rgb(89.4%,10.2%,11%);stroke-opacity:1.0" /><path d="M 598.2 437.0 L 540.5 433.0 A 115.7 115.7 0 0 1 540.5 433.0" id="148,143" style="stroke:rgb(100%,49.8%,0%);stroke-opacity:1.0" /><path d="M 593.9 465.1 L 537.6 451.7 A 115.7 115.7 0 0 1 537.6 451.7" id="147,142" style="stroke:rgb(21.6%,49.4%,72.2%);stroke-opacity:1.0" /><path d="M 561.4 532.5 L 515.9 496.6 A 115.7 115.7 0 0 1 515.9 496.6" id="146,141" style="stroke:rgb(59.6%,30.6%,63.9%);stroke-opacity:1.0" /><path d="M 468.5 593.1 L 454.0 537.1 A 115.7 115.7 0 0 1 454.0 537.1" id="145,140" style="stroke:rgb(30.2%,68.6%,29%);stroke-opacity:1.0" /><path d="M 344.3 578.7 L 371.2 527.5 A 115.7 115.7 0 0 1 316.6 465.6" id="144,139" style="stroke:rgb(89.4%,10.2%,11%);stroke-opacity:1.0" /><path d="M 281.3 522.4 L 329.2 489.9 A 115.7 115.7 0 0 1 316.6 465.6" id="144,138" style="stroke:rgb(89.4%,10.2%,11%);stroke-opacity:1.0" /><path d="M 282.5 325.8 L 330.0 358.9 A 115.7 115.7 0 0 0 316.6 465.6" id="144,137" style="stroke:rgb(89.4%,10.2%,11%);stroke-opacity:1.0" /><path d="M 655.9 441.0 L 598.2 437.0 A 173.6 173.6 0 0 1 598.2 437.0" id="143,136" style="stroke:rgb(100%,49.8%,0%);stroke-opacity:1.0" /><path d="M 654.3 456.9 L 597.0 448.9 A 173.6 173.6 0 0 1 593.9 465.1" id="142,135" style="stroke:rgb(21.6%,49.4%,72.2%);stroke-opacity:1.0" /><path d="M 644.1 499.6 L 589.4 480.9 A 173.6 173.6 0 0 0 593.9 465.1" id="142,134" style="stroke:rgb(21.6%,49.4%,72.2%);stroke-opacity:1.0" /><path d="M 606.8 568.3 L 561.4 532.5 A 173.6 173.6 0 0 1 561.4 532.5" id="141,133" style="stroke:rgb(59.6%,30.6%,63.9%);stroke-opacity:1.0" /><path d="M 483.0 649.1 L 468.5 593.1 A 173.6 173.6 0 0 1 468.5 593.1" id="140,132" style="stroke:rgb(30.2%,68.6%,29%);stroke-opacity:1.0" /><path d="M 335.5 638.5 L 357.9 585.1 A 173.6 173.6 0 0 1 344.3 578.7" id="139,131" style="stroke:rgb(89.4%,10.2%,11%);stroke-opacity:1.0" /><path d="M 300.2 619.9 L 331.4 571.2 A 173.6 173.6 0 0 0 344.3 578.7" id="139,130" style="stroke:rgb(89.4%,10.2%,11%);stroke-opacity:1.0" /><path d="M 262.7 590.1 L 303.3 548.8 A 173.6 173.6 0 0 1 281.3 522.4" id="138,129" style="stroke:rgb(89.4%,10.2%,11%);stroke-opacity:1.0" /><path d="M 211.5 514.5 L 264.9 492.1 A 173.6 173.6 0 0 0 281.3 522.4" id="138,128" style="stroke:rgb(89.4%,10.2%,11%);stroke-opacity:1.0" /><path d="M 193.7 433.0 L 251.5 431.0 A 173.6 173.6 0 0 1 282.5 325.8" id="137,127" style="stroke:rgb(89.4%,10.2%,11%);stroke-opacity:1.0" /><path d="M 193.7 417.0 L 251.5 419.0 A 173.6 173.6 0 0 1 282.5 325.8" id="137,126" style="stroke:rgb(89.4%,10.2%,11%);stroke-opacity:1.0" /><path d="M 194.8 401.1 L 252.3 407.1 A 173.6 173.6 0 0 1 282.5 325.8" id="137,125" style="stroke:rgb(89.4%,10.2%,11%);stroke-opacity:1.0" /><path d="M 198.5 377.4 L 255.1 389.3 A 173.6 173.6 0 0 1 282.5 325.8" id="137,124" style="stroke:rgb(89.4%,10.2%,11%);stroke-opacity:1.0" /><path d="M 210.0 339.2 L 263.8 360.6 A 173.6 173.6 0 0 1 282.5 325.8" id="137,123" style="stroke:rgb(89.4%,10.2%,11%);stroke-opacity:1.0" /><path d="M 342.9 208.6 L 363.4 262.7 A 173.6 173.6 0 0 0 282.5 325.8" id="137,122" style="stroke:rgb(89.4%,10.2%,11%);stroke-opacity:1.0" /><path d="M 589.2 261.8 L 548.1 302.6 A 173.6 173.6 0 0 0 282.5 325.8" id="137,121" style="stroke:rgb(89.4%,10.2%,11%);stroke-opacity:1.0" /><path d="M 713.7 445.0 L 655.9 441.0 A 231.5 231.5 0 0 1 655.9 441.0" id="136,120" style="stroke:rgb(100%,49.8%,0%);stroke-opacity:1.0" /><path d="M 711.6 464.8 L 654.3 456.9 A 231.5 231.5 0 0 1 654.3 456.9" id="135,119" style="stroke:rgb(21.6%,49.4%,72.2%);stroke-opacity:1.0" /><path d="M 706.0 494.2 L 649.8 480.4 A 231.5 231.5 0 0 1 644.1 499.6" id="134,118" style="stroke:rgb(21.6%,49.4%,72.2%);stroke-opacity:1.0" /><path d="M 689.9 541.5 L 636.9 518.2 A 231.5 231.5 0 0 0 644.1 499.6" id="134,117" style="stroke:rgb(21.6%,49.4%,72.2%);stroke-opacity:1.0" /><path d="M 671.3 576.8 L 622.1 546.5 A 231.5 231.5 0 0 1 606.8 568.3" id="133,116" style="stroke:rgb(59.6%,30.6%,63.9%);stroke-opacity:1.0" /><path d="M 660.3 593.5 L 613.2 559.8 A 231.5 231.5 0 0 1 606.8 568.3" id="133,115" style="stroke:rgb(59.6%,30.6%,63.9%);stroke-opacity:1.0" /><path d="M 620.6 638.2 L 581.5 595.6 A 231.5 231.5 0 0 0 606.8 568.3" id="133,114" style="stroke:rgb(59.6%,30.6%,63.9%);stroke-opacity:1.0" /><path d="M 572.6 673.9 L 543.0 624.1 A 231.5 231.5 0 0 1 483.0 649.1" id="132,113" style="stroke:rgb(30.2%,68.6%,29%);stroke-opacity:1.0" /><path d="M 555.0 683.5 L 529.0 631.8 A 231.5 231.5 0 0 1 483.0 649.1" id="132,112" style="stroke:rgb(30.2%,68.6%,29%);stroke-opacity:1.0" /><path d="M 527.6 695.6 L 507.1 641.4 A 231.5 231.5 0 0 1 483.0 649.1" id="132,111" style="stroke:rgb(30.2%,68.6%,29%);stroke-opacity:1.0" /><path d="M 489.4 707.1 L 476.5 650.7 A 231.5 231.5 0 0 0 483.0 649.1" id="132,110" style="stroke:rgb(30.2%,68.6%,29%);stroke-opacity:1.0" /><path d="M 449.9 713.3 L 445.0 655.6 A 231.5 231.5 0 0 0 483.0 649.1" id="132,109" style="stroke:rgb(30.2%,68.6%,29%);stroke-opacity:1.0" /><path d="M 380.2 710.9 L 389.2 653.7 A 231.5 231.5 0 0 0 483.0 649.1" id="132,108" style="stroke:rgb(30.2%,68.6%,29%);stroke-opacity:1.0" /><path d="M 313.1 691.8 L 335.5 638.5 A 231.5 231.5 0 0 0 335.5 638.5" id="131,107" style="stroke:rgb(89.4%,10.2%,11%);stroke-opacity:1.0" /><path d="M 268.9 668.7 L 300.2 619.9 A 231.5 231.5 0 0 0 300.2 619.9" id="130,106" style="stroke:rgb(89.4%,10.2%,11%);stroke-opacity:1.0" /><path d="M 236.9 644.9 L 274.5 600.9 A 231.5 231.5 0 0 1 262.7 590.1" id="129,105" style="stroke:rgb(89.4%,10.2%,11%);stroke-opacity:1.0" /><path d="M 222.2 631.4 L 262.7 590.1 A 231.5 231.5 0 0 0 262.7 590.1" id="129,104" style="stroke:rgb(89.4%,10.2%,11%);stroke-opacity:1.0" /><path d="M 208.4 616.9 L 251.7 578.5 A 231.5 231.5 0 0 0 262.7 590.1" id="129,103" style="stroke:rgb(89.4%,10.2%,11%);stroke-opacity:1.0" /><path d="M 178.7 576.8 L 227.9 546.5 A 231.5 231.5 0 0 1 211.5 514.5" id="128,102" style="stroke:rgb(89.4%,10.2%,11%);stroke-opacity:1.0" /><path d="M 144.0 494.2 L 200.2 480.4 A 231.5 231.5 0 0 0 211.5 514.5" id="128,101" style="stroke:rgb(89.4%,10.2%,11%);stroke-opacity:1.0" /><path d="M 135.8 435.0 L 193.7 433.0 A 231.5 231.5 0 0 0 193.7 433.0" id="127,100" style="stroke:rgb(89.4%,10.2%,11%);stroke-opacity:1.0" /><path d="M 135.8 415.0 L 193.7 417.0 A 231.5 231.5 0 0 1 193.7 417.0" id="126,99" style="stroke:rgb(89.4%,10.2%,11%);stroke-opacity:1.0" /><path d="M 137.2 395.1 L 194.8 401.1 A 231.5 231.5 0 0 1 194.8 401.1" id="125,98" style="stroke:rgb(89.4%,10.2%,11%);stroke-opacity:1.0" /><path d="M 141.8 365.5 L 198.5 377.4 A 231.5 231.5 0 0 1 198.5 377.4" id="124,97" style="stroke:rgb(89.4%,10.2%,11%);stroke-opacity:1.0" /><path d="M 149.5 336.5 L 204.6 354.2 A 231.5 231.5 0 0 1 210.0 339.2" id="123,96" style="stroke:rgb(89.4%,10.2%,11%);stroke-opacity:1.0" /><path d="M 164.3 299.5 L 216.4 324.6 A 231.5 231.5 0 0 0 210.0 339.2" id="123,95" style="stroke:rgb(89.4%,10.2%,11%);stroke-opacity:1.0" /><path d="M 322.4 154.4 L 342.9 208.6 A 231.5 231.5 0 0 1 342.9 208.6" id="122,94" style="stroke:rgb(89.4%,10.2%,11%);stroke-opacity:1.0" /><path d="M 527.6 154.4 L 507.1 208.6 A 231.5 231.5 0 0 1 589.2 261.8" id="121,93" style="stroke:rgb(89.4%,10.2%,11%);stroke-opacity:1.0" /><path d="M 613.1 205.1 L 575.5 249.1 A 231.5 231.5 0 0 1 589.2 261.8" id="121,92" style="stroke:rgb(89.4%,10.2%,11%);stroke-opacity:1.0" /><path d="M 703.4 346.1 L 647.7 361.9 A 231.5 231.5 0 0 0 589.2 261.8" id="121,91" style="stroke:rgb(89.4%,10.2%,11%);stroke-opacity:1.0" /><path d="M 771.4 449.0 L 713.7 445.0 A 289.4 289.4 0 0 1 713.7 445.0" id="120,90" style="stroke:rgb(100%,49.8%,0%);stroke-opacity:1.0" /><path d="M 768.9 472.8 L 711.6 464.8 A 289.4 289.4 0 0 1 711.6 464.8" id="119,89" style="stroke:rgb(21.6%,49.4%,72.2%);stroke-opacity:1.0" /><path d="M 764.8 496.4 L 708.2 484.5 A 289.4 289.4 0 0 1 706.0 494.2" id="118,88" style="stroke:rgb(21.6%,49.4%,72.2%);stroke-opacity:1.0" /><path d="M 759.1 519.7 L 703.4 503.9 A 289.4 289.4 0 0 0 706.0 494.2" id="118,87" style="stroke:rgb(21.6%,49.4%,72.2%);stroke-opacity:1.0" /><path d="M 751.7 542.5 L 697.3 522.9 A 289.4 289.4 0 0 1 689.9 541.5" id="117,86" style="stroke:rgb(21.6%,49.4%,72.2%);stroke-opacity:1.0" /><path d="M 742.9 564.8 L 689.9 541.5 A 289.4 289.4 0 0 1 689.9 541.5" id="117,85" style="stroke:rgb(21.6%,49.4%,72.2%);stroke-opacity:1.0" /><path d="M 732.5 586.4 L 681.2 559.5 A 289.4 289.4 0 0 0 689.9 541.5" id="117,84" style="stroke:rgb(21.6%,49.4%,72.2%);stroke-opacity:1.0" /><path d="M 720.6 607.2 L 671.3 576.8 A 289.4 289.4 0 0 1 671.3 576.8" id="116,83" style="stroke:rgb(59.6%,30.6%,63.9%);stroke-opacity:1.0" /><path d="M 707.3 627.1 L 660.3 593.5 A 289.4 289.4 0 0 1 660.3 593.5" id="115,82" style="stroke:rgb(59.6%,30.6%,63.9%);stroke-opacity:1.0" /><path d="M 692.7 646.1 L 648.1 609.3 A 289.4 289.4 0 0 1 620.6 638.2" id="114,81" style="stroke:rgb(59.6%,30.6%,63.9%);stroke-opacity:1.0" /><path d="M 676.8 664.1 L 634.8 624.2 A 289.4 289.4 0 0 1 620.6 638.2" id="114,80" style="stroke:rgb(59.6%,30.6%,63.9%);stroke-opacity:1.0" /><path d="M 659.7 680.9 L 620.6 638.2 A 289.4 289.4 0 0 1 620.6 638.2" id="114,79" style="stroke:rgb(59.6%,30.6%,63.9%);stroke-opacity:1.0" /><path d="M 641.5 696.5 L 605.4 651.2 A 289.4 289.4 0 0 0 620.6 638.2" id="114,78" style="stroke:rgb(59.6%,30.6%,63.9%);stroke-opacity:1.0" /><path d="M 622.2 710.8 L 589.4 663.1 A 289.4 289.4 0 0 0 620.6 638.2" id="114,77" style="stroke:rgb(59.6%,30.6%,63.9%);stroke-opacity:1.0" /><path d="M 602.1 723.7 L 572.6 673.9 A 289.4 289.4 0 0 1 572.6 673.9" id="113,76" style="stroke:rgb(30.2%,68.6%,29%);stroke-opacity:1.0" /><path d="M 581.0 735.2 L 555.0 683.5 A 289.4 289.4 0 0 1 555.0 683.5" id="112,75" style="stroke:rgb(30.2%,68.6%,29%);stroke-opacity:1.0" /><path d="M 559.3 745.2 L 536.9 691.9 A 289.4 289.4 0 0 1 527.6 695.6" id="111,74" style="stroke:rgb(30.2%,68.6%,29%);stroke-opacity:1.0" /><path d="M 536.8 753.7 L 518.2 698.9 A 289.4 289.4 0 0 0 527.6 695.6" id="111,73" style="stroke:rgb(30.2%,68.6%,29%);stroke-opacity:1.0" /><path d="M 513.9 760.7 L 499.1 704.7 A 289.4 289.4 0 0 1 489.4 707.1" id="110,72" style="stroke:rgb(30.2%,68.6%,29%);stroke-opacity:1.0" /><path d="M 490.5 766.0 L 479.6 709.2 A 289.4 289.4 0 0 0 489.4 707.1" id="110,71" style="stroke:rgb(30.2%,68.6%,29%);stroke-opacity:1.0" /><path d="M 466.9 769.7 L 459.9 712.2 A 289.4 289.4 0 0 1 449.9 713.3" id="109,70" style="stroke:rgb(30.2%,68.6%,29%);stroke-opacity:1.0" /><path d="M 443.0 771.8 L 440.0 714.0 A 289.4 289.4 0 0 0 449.9 713.3" id="109,69" style="stroke:rgb(30.2%,68.6%,29%);stroke-opacity:1.0" /><path d="M 419.0 772.2 L 420.0 714.3 A 289.4 289.4 0 0 1 380.2 710.9" id="108,68" style="stroke:rgb(30.2%,68.6%,29%);stroke-opacity:1.0" /><path d="M 395.1 770.9 L 400.1 713.3 A 289.4 289.4 0 0 1 380.2 710.9" id="108,67" style="stroke:rgb(30.2%,68.6%,29%);stroke-opacity:1.0" /><path d="M 371.3 768.0 L 380.2 710.9 A 289.4 289.4 0 0 0 380.2 710.9" id="108,66" style="stroke:rgb(30.2%,68.6%,29%);stroke-opacity:1.0" /><path d="M 347.7 763.5 L 360.6 707.1 A 289.4 289.4 0 0 0 380.2 710.9" id="108,65" style="stroke:rgb(30.2%,68.6%,29%);stroke-opacity:1.0" /><path d="M 324.6 757.4 L 341.3 702.0 A 289.4 289.4 0 0 0 380.2 710.9" id="108,64" style="stroke:rgb(30.2%,68.6%,29%);stroke-opacity:1.0" /><path d="M 301.9 749.7 L 322.4 695.6 A 289.4 289.4 0 0 1 313.1 691.8" id="107,63" style="stroke:rgb(89.4%,10.2%,11%);stroke-opacity:1.0" /><path d="M 279.8 740.4 L 304.0 687.8 A 289.4 289.4 0 0 0 313.1 691.8" id="107,62" style="stroke:rgb(89.4%,10.2%,11%);stroke-opacity:1.0" /><path d="M 258.4 729.6 L 286.1 678.9 A 289.4 289.4 0 0 1 268.9 668.7" id="106,61" style="stroke:rgb(89.4%,10.2%,11%);stroke-opacity:1.0" /><path d="M 237.7 717.4 L 268.9 668.7 A 289.4 289.4 0 0 0 268.9 668.7" id="106,60" style="stroke:rgb(89.4%,10.2%,11%);stroke-opacity:1.0" /><path d="M 218.0 703.8 L 252.5 657.3 A 289.4 289.4 0 0 0 268.9 668.7" id="106,59" style="stroke:rgb(89.4%,10.2%,11%);stroke-opacity:1.0" /><path d="M 199.3 688.8 L 236.9 644.9 A 289.4 289.4 0 0 0 236.9 644.9" id="105,58" style="stroke:rgb(89.4%,10.2%,11%);stroke-opacity:1.0" /><path d="M 181.6 672.6 L 222.2 631.4 A 289.4 289.4 0 0 0 222.2 631.4" id="104,57" style="stroke:rgb(89.4%,10.2%,11%);stroke-opacity:1.0" /><path d="M 165.1 655.3 L 208.4 616.9 A 289.4 289.4 0 0 0 208.4 616.9" id="103,56" style="stroke:rgb(89.4%,10.2%,11%);stroke-opacity:1.0" /><path d="M 149.8 636.8 L 195.7 601.5 A 289.4 289.4 0 0 1 178.7 576.8" id="102,55" style="stroke:rgb(89.4%,10.2%,11%);stroke-opacity:1.0" /><path d="M 135.9 617.3 L 184.1 585.2 A 289.4 289.4 0 0 1 178.7 576.8" id="102,54" style="stroke:rgb(89.4%,10.2%,11%);stroke-opacity:1.0" /><path d="M 123.3 596.9 L 173.6 568.2 A 289.4 289.4 0 0 0 178.7 576.8" id="102,53" style="stroke:rgb(89.4%,10.2%,11%);stroke-opacity:1.0" /><path d="M 112.2 575.7 L 164.3 550.5 A 289.4 289.4 0 0 0 178.7 576.8" id="102,52" style="stroke:rgb(89.4%,10.2%,11%);stroke-opacity:1.0" /><path d="M 102.5 553.7 L 156.3 532.3 A 289.4 289.4 0 0 1 144.0 494.2" id="101,51" style="stroke:rgb(89.4%,10.2%,11%);stroke-opacity:1.0" /><path d="M 94.4 531.2 L 149.5 513.5 A 289.4 289.4 0 0 1 144.0 494.2" id="101,50" style="stroke:rgb(89.4%,10.2%,11%);stroke-opacity:1.0" /><path d="M 87.9 508.1 L 144.0 494.2 A 289.4 289.4 0 0 0 144.0 494.2" id="101,49" style="stroke:rgb(89.4%,10.2%,11%);stroke-opacity:1.0" /><path d="M 82.9 484.6 L 139.9 474.7 A 289.4 289.4 0 0 0 144.0 494.2" id="101,48" style="stroke:rgb(89.4%,10.2%,11%);stroke-opacity:1.0" /><path d="M 79.6 460.9 L 137.2 454.9 A 289.4 289.4 0 0 0 144.0 494.2" id="101,47" style="stroke:rgb(89.4%,10.2%,11%);stroke-opacity:1.0" /><path d="M 78.0 437.0 L 135.8 435.0 A 289.4 289.4 0 0 0 135.8 435.0" id="100,46" style="stroke:rgb(89.4%,10.2%,11%);stroke-opacity:1.0" /><path d="M 78.0 413.0 L 135.8 415.0 A 289.4 289.4 0 0 1 135.8 415.0" id="99,45" style="stroke:rgb(89.4%,10.2%,11%);stroke-opacity:1.0" /><path d="M 79.6 389.1 L 137.2 395.1 A 289.4 289.4 0 0 1 137.2 395.1" id="98,44" style="stroke:rgb(89.4%,10.2%,11%);stroke-opacity:1.0" /><path d="M 82.9 365.4 L 139.9 375.3 A 289.4 289.4 0 0 1 141.8 365.5" id="97,43" style="stroke:rgb(89.4%,10.2%,11%);stroke-opacity:1.0" /><path d="M 87.9 341.9 L 144.0 355.8 A 289.4 289.4 0 0 0 141.8 365.5" id="97,42" style="stroke:rgb(89.4%,10.2%,11%);stroke-opacity:1.0" /><path d="M 94.4 318.8 L 149.5 336.5 A 289.4 289.4 0 0 1 149.5 336.5" id="96,41" style="stroke:rgb(89.4%,10.2%,11%);stroke-opacity:1.0" /><path d="M 102.5 296.3 L 156.3 317.7 A 289.4 289.4 0 0 1 164.3 299.5" id="95,40" style="stroke:rgb(89.4%,10.2%,11%);stroke-opacity:1.0" /><path d="M 112.2 274.3 L 164.3 299.5 A 289.4 289.4 0 0 1 164.3 299.5" id="95,39" style="stroke:rgb(89.4%,10.2%,11%);stroke-opacity:1.0" /><path d="M 123.3 253.1 L 173.6 281.8 A 289.4 289.4 0 0 0 164.3 299.5" id="95,38" style="stroke:rgb(89.4%,10.2%,11%);stroke-opacity:1.0" /><path d="M 135.9 232.7 L 184.1 264.8 A 289.4 289.4 0 0 1 322.4 154.4" id="94,37" style="stroke:rgb(89.4%,10.2%,11%);stroke-opacity:1.0" /><path d="M 149.8 213.2 L 195.7 248.5 A 289.4 289.4 0 0 1 322.4 154.4" id="94,36" style="stroke:rgb(89.4%,10.2%,11%);stroke-opacity:1.0" /><path d="M 165.1 194.7 L 208.4 233.1 A 289.4 289.4 0 0 1 322.4 154.4" id="94,35" style="stroke:rgb(89.4%,10.2%,11%);stroke-opacity:1.0" /><path d="M 181.6 177.4 L 222.2 218.6 A 289.4 289.4 0 0 1 322.4 154.4" id="94,34" style="stroke:rgb(89.4%,10.2%,11%);stroke-opacity:1.0" /><path d="M 199.3 161.2 L 236.9 205.1 A 289.4 289.4 0 0 1 322.4 154.4" id="94,33" style="stroke:rgb(89.4%,10.2%,11%);stroke-opacity:1.0" /><path d="M 218.0 146.2 L 252.5 192.7 A 289.4 289.4 0 0 1 322.4 154.4" id="94,32" style="stroke:rgb(89.4%,10.2%,11%);stroke-opacity:1.0" /><path d="M 237.7 132.6 L 268.9 181.3 A 289.4 289.4 0 0 1 322.4 154.4" id="94,31" style="stroke:rgb(89.4%,10.2%,11%);stroke-opacity:1.0" /><path d="M 258.4 120.4 L 286.1 171.1 A 289.4 289.4 0 0 1 322.4 154.4" id="94,30" style="stroke:rgb(89.4%,10.2%,11%);stroke-opacity:1.0" /><path d="M 279.8 109.6 L 304.0 162.2 A 289.4 289.4 0 0 1 322.4 154.4" id="94,29" style="stroke:rgb(89.4%,10.2%,11%);stroke-opacity:1.0" /><path d="M 301.9 100.3 L 322.4 154.4 A 289.4 289.4 0 0 1 322.4 154.4" id="94,28" style="stroke:rgb(89.4%,10.2%,11%);stroke-opacity:1.0" /><path d="M 324.6 92.6 L 341.3 148.0 A 289.4 289.4 0 0 0 322.4 154.4" id="94,27" style="stroke:rgb(89.4%,10.2%,11%);stroke-opacity:1.0" /><path d="M 347.7 86.5 L 360.6 142.9 A 289.4 289.4 0 0 0 322.4 154.4" id="94,26" style="stroke:rgb(89.4%,10.2%,11%);stroke-opacity:1.0" /><path d="M 371.3 82.0 L 380.2 139.1 A 289.4 289.4 0 0 0 322.4 154.4" id="94,25" style="stroke:rgb(89.4%,10.2%,11%);stroke-opacity:1.0" /><path d="M 395.1 79.1 L 400.1 136.7 A 289.4 289.4 0 0 0 322.4 154.4" id="94,24" style="stroke:rgb(89.4%,10.2%,11%);stroke-opacity:1.0" /><path d="M 419.0 77.8 L 420.0 135.7 A 289.4 289.4 0 0 0 322.4 154.4" id="94,23" style="stroke:rgb(89.4%,10.2%,11%);stroke-opacity:1.0" /><path d="M 443.0 78.2 L 440.0 136.0 A 289.4 289.4 0 0 0 322.4 154.4" id="94,22" style="stroke:rgb(89.4%,10.2%,11%);stroke-opacity:1.0" /><path d="M 466.9 80.3 L 459.9 137.8 A 289.4 289.4 0 0 0 322.4 154.4" id="94,21" style="stroke:rgb(89.4%,10.2%,11%);stroke-opacity:1.0" /><path d="M 490.5 84.0 L 479.6 140.8 A 289.4 289.4 0 0 0 322.4 154.4" id="94,20" style="stroke:rgb(89.4%,10.2%,11%);stroke-opacity:1.0" /><path d="M 513.9 89.3 L 499.1 145.3 A 289.4 289.4 0 0 0 322.4 154.4" id="94,19" style="stroke:rgb(89.4%,10.2%,11%);stroke-opacity:1.0" /><path d="M 536.8 96.3 L 518.2 151.1 A 289.4 289.4 0 0 1 527.6 154.4" id="93,18" style="stroke:rgb(89.4%,10.2%,11%);stroke-opacity:1.0" /><path d="M 559.3 104.8 L 536.9 158.1 A 289.4 289.4 0 0 0 527.6 154.4" id="93,17" style="stroke:rgb(89.4%,10.2%,11%);stroke-opacity:1.0" /><path d="M 581.0 114.8 L 555.0 166.5 A 289.4 289.4 0 0 1 613.1 205.1" id="92,16" style="stroke:rgb(89.4%,10.2%,11%);stroke-opacity:1.0" /><path d="M 602.1 126.3 L 572.6 176.1 A 289.4 289.4 0 0 1 613.1 205.1" id="92,15" style="stroke:rgb(89.4%,10.2%,11%);stroke-opacity:1.0" /><path d="M 622.2 139.2 L 589.4 186.9 A 289.4 289.4 0 0 1 613.1 205.1" id="92,14" style="stroke:rgb(89.4%,10.2%,11%);stroke-opacity:1.0" /><path d="M 641.5 153.5 L 605.4 198.8 A 289.4 289.4 0 0 1 613.1 205.1" id="92,13" style="stroke:rgb(89.4%,10.2%,11%);stroke-opacity:1.0" /><path d="M 659.7 169.1 L 620.6 211.8 A 289.4 289.4 0 0 0 613.1 205.1" id="92,12" style="stroke:rgb(89.4%,10.2%,11%);stroke-opacity:1.0" /><path d="M 676.8 185.9 L 634.8 225.8 A 289.4 289.4 0 0 0 613.1 205.1" id="92,11" style="stroke:rgb(89.4%,10.2%,11%);stroke-opacity:1.0" /><path d="M 692.7 203.9 L 648.1 240.7 A 289.4 289.4 0 0 0 613.1 205.1" id="92,10" style="stroke:rgb(89.4%,10.2%,11%);stroke-opacity:1.0" /><path d="M 707.3 222.9 L 660.3 256.5 A 289.4 289.4 0 0 0 613.1 205.1" id="92,9" style="stroke:rgb(89.4%,10.2%,11%);stroke-opacity:1.0" /><path d="M 720.6 242.8 L 671.3 273.2 A 289.4 289.4 0 0 1 703.4 346.1" id="91,8" style="stroke:rgb(89.4%,10.2%,11%);stroke-opacity:1.0" /><path d="M 732.5 263.6 L 681.2 290.5 A 289.4 289.4 0 0 1 703.4 346.1" id="91,7" style="stroke:rgb(89.4%,10.2%,11%);stroke-opacity:1.0" /><path d="M 742.9 285.2 L 689.9 308.5 A 289.4 289.4 0 0 1 703.4 346.1" id="91,6" style="stroke:rgb(89.4%,10.2%,11%);stroke-opacity:1.0" /><path d="M 751.7 307.5 L 697.3 327.1 A 289.4 289.4 0 0 1 703.4 346.1" id="91,5" style="stroke:rgb(89.4%,10.2%,11%);stroke-opacity:1.0" /><path d="M 759.1 330.3 L 703.4 346.1 A 289.4 289.4 0 0 0 703.4 346.1" id="91,4" style="stroke:rgb(89.4%,10.2%,11%);stroke-opacity:1.0" /><path d="M 764.8 353.6 L 708.2 365.5 A 289.4 289.4 0 0 0 703.4 346.1" id="91,3" style="stroke:rgb(89.4%,10.2%,11%);stroke-opacity:1.0" /><path d="M 768.9 377.2 L 711.6 385.2 A 289.4 289.4 0 0 0 703.4 346.1" id="91,2" style="stroke:rgb(89.4%,10.2%,11%);stroke-opacity:1.0" /><path d="M 771.4 401.0 L 713.7 405.0 A 289.4 289.4 0 0 0 703.4 346.1" id="91,1" style="stroke:rgb(89.4%,10.2%,11%);stroke-opacity:1.0" /><path d="M 772.2 425.0 L 714.4 425.0 A 289.4 289.4 0 0 0 703.4 346.1" id="91,0" style="stroke:rgb(89.4%,10.2%,11%);stroke-opacity:1.0" /></g><g class="toytree-AlignEdges" style="stroke:rgb(66.3%,66.3%,66.3%);stroke-dasharray:2, 4;stroke-linecap:round;stroke-opacity:1.0;stroke-width:2"><path d="M 772.2 425.0 L 772.2 425.0" /><path d="M 771.4 401.0 L 771.4 401.0" /><path d="M 768.9 377.2 L 768.9 377.2" /><path d="M 764.8 353.6 L 764.8 353.6" /><path d="M 759.1 330.3 L 759.1 330.3" /><path d="M 751.7 307.5 L 751.7 307.5" /><path d="M 742.9 285.2 L 742.9 285.2" /><path d="M 732.5 263.6 L 732.5 263.6" /><path d="M 720.6 242.8 L 720.6 242.8" /><path d="M 707.3 222.9 L 707.3 222.9" /><path d="M 692.7 203.9 L 692.7 203.9" /><path d="M 676.8 185.9 L 676.8 185.9" /><path d="M 659.7 169.1 L 659.7 169.1" /><path d="M 641.5 153.5 L 641.5 153.5" /><path d="M 622.2 139.2 L 622.2 139.2" /><path d="M 602.1 126.3 L 602.1 126.3" /><path d="M 581.0 114.8 L 581.0 114.8" /><path d="M 559.3 104.8 L 559.3 104.8" /><path d="M 536.8 96.3 L 536.8 96.3" /><path d="M 513.9 89.3 L 513.9 89.3" /><path d="M 490.5 84.0 L 490.5 84.0" /><path d="M 466.9 80.3 L 466.9 80.3" /><path d="M 443.0 78.2 L 443.0 78.2" /><path d="M 419.0 77.8 L 419.0 77.8" /><path d="M 395.1 79.1 L 395.1 79.1" /><path d="M 371.3 82.0 L 371.3 82.0" /><path d="M 347.7 86.5 L 347.7 86.5" /><path d="M 324.6 92.6 L 324.6 92.6" /><path d="M 301.9 100.3 L 301.9 100.3" /><path d="M 279.8 109.6 L 279.8 109.6" /><path d="M 258.4 120.4 L 258.4 120.4" /><path d="M 237.7 132.6 L 237.7 132.6" /><path d="M 218.0 146.2 L 218.0 146.2" /><path d="M 199.3 161.2 L 199.3 161.2" /><path d="M 181.6 177.4 L 181.6 177.4" /><path d="M 165.1 194.7 L 165.1 194.7" /><path d="M 149.8 213.2 L 149.8 213.2" /><path d="M 135.9 232.7 L 135.9 232.7" /><path d="M 123.3 253.1 L 123.3 253.1" /><path d="M 112.2 274.3 L 112.2 274.3" /><path d="M 102.5 296.3 L 102.5 296.3" /><path d="M 94.4 318.8 L 94.4 318.8" /><path d="M 87.9 341.9 L 87.9 341.9" /><path d="M 82.9 365.4 L 82.9 365.4" /><path d="M 79.6 389.1 L 79.6 389.1" /><path d="M 78.0 413.0 L 78.0 413.0" /><path d="M 78.0 437.0 L 78.0 437.0" /><path d="M 79.6 460.9 L 79.6 460.9" /><path d="M 82.9 484.6 L 82.9 484.6" /><path d="M 87.9 508.1 L 87.9 508.1" /><path d="M 94.4 531.2 L 94.4 531.2" /><path d="M 102.5 553.7 L 102.5 553.7" /><path d="M 112.2 575.7 L 112.2 575.7" /><path d="M 123.3 596.9 L 123.3 596.9" /><path d="M 135.9 617.3 L 135.9 617.3" /><path d="M 149.8 636.8 L 149.8 636.8" /><path d="M 165.1 655.3 L 165.1 655.3" /><path d="M 181.6 672.6 L 181.6 672.6" /><path d="M 199.3 688.8 L 199.3 688.8" /><path d="M 218.0 703.8 L 218.0 703.8" /><path d="M 237.7 717.4 L 237.7 717.4" /><path d="M 258.4 729.6 L 258.4 729.6" /><path d="M 279.8 740.4 L 279.8 740.4" /><path d="M 301.9 749.7 L 301.9 749.7" /><path d="M 324.6 757.4 L 324.6 757.4" /><path d="M 347.7 763.5 L 347.7 763.5" /><path d="M 371.3 768.0 L 371.3 768.0" /><path d="M 395.1 770.9 L 395.1 770.9" /><path d="M 419.0 772.2 L 419.0 772.2" /><path d="M 443.0 771.8 L 443.0 771.8" /><path d="M 466.9 769.7 L 466.9 769.7" /><path d="M 490.5 766.0 L 490.5 766.0" /><path d="M 513.9 760.7 L 513.9 760.7" /><path d="M 536.8 753.7 L 536.8 753.7" /><path d="M 559.3 745.2 L 559.3 745.2" /><path d="M 581.0 735.2 L 581.0 735.2" /><path d="M 602.1 723.7 L 602.1 723.7" /><path d="M 622.2 710.8 L 622.2 710.8" /><path d="M 641.5 696.5 L 641.5 696.5" /><path d="M 659.7 680.9 L 659.7 680.9" /><path d="M 676.8 664.1 L 676.8 664.1" /><path d="M 692.7 646.1 L 692.7 646.1" /><path d="M 707.3 627.1 L 707.3 627.1" /><path d="M 720.6 607.2 L 720.6 607.2" /><path d="M 732.5 586.4 L 732.5 586.4" /><path d="M 742.9 564.8 L 742.9 564.8" /><path d="M 751.7 542.5 L 751.7 542.5" /><path d="M 759.1 519.7 L 759.1 519.7" /><path d="M 764.8 496.4 L 764.8 496.4" /><path d="M 768.9 472.8 L 768.9 472.8" /><path d="M 771.4 449.0 L 771.4 449.0" /></g><g class="toytree-Nodes" style="fill:rgb(40%,76.1%,64.7%);fill-opacity:1.0;stroke:rgb(0%,0%,0%);stroke-opacity:1.0;stroke-width:1"><g fill="rgb(0%,100%,100%)" fill-opacity="1.0" id="node-0" transform="translate(772.230,425.000)"><circle r="0.0" /></g><g fill="rgb(0%,100%,100%)" fill-opacity="1.0" id="node-1" transform="translate(771.403,401.044)"><circle r="0.0" /></g><g fill="rgb(0%,100%,100%)" fill-opacity="1.0" id="node-2" transform="translate(768.924,377.203)"><circle r="0.0" /></g><g fill="rgb(0%,100%,100%)" fill-opacity="1.0" id="node-3" transform="translate(764.807,353.590)"><circle r="0.0" /></g><g fill="rgb(0%,100%,100%)" fill-opacity="1.0" id="node-4" transform="translate(759.071,330.316)"><circle r="0.0" /></g><g fill="rgb(0%,100%,100%)" fill-opacity="1.0" id="node-5" transform="translate(751.743,307.494)"><circle r="0.0" /></g><g fill="rgb(0%,100%,100%)" fill-opacity="1.0" id="node-6" transform="translate(742.857,285.232)"><circle r="0.0" /></g><g fill="rgb(0%,100%,100%)" fill-opacity="1.0" id="node-7" transform="translate(732.457,263.636)"><circle r="0.0" /></g><g fill="rgb(0%,100%,100%)" fill-opacity="1.0" id="node-8" transform="translate(720.591,242.809)"><circle r="0.0" /></g><g fill="rgb(0%,100%,100%)" fill-opacity="1.0" id="node-9" transform="translate(707.317,222.850)"><circle r="0.0" /></g><g fill="rgb(0%,100%,100%)" fill-opacity="1.0" id="node-10" transform="translate(692.698,203.855)"><circle r="0.0" /></g><g fill="rgb(0%,100%,100%)" fill-opacity="1.0" id="node-11" transform="translate(676.803,185.913)"><circle r="0.0" /></g><g fill="rgb(0%,100%,100%)" fill-opacity="1.0" id="node-12" transform="translate(659.708,169.111)"><circle r="0.0" /></g><g fill="rgb(0%,100%,100%)" fill-opacity="1.0" id="node-13" transform="translate(641.494,153.528)"><circle r="0.0" /></g><g fill="rgb(0%,100%,100%)" fill-opacity="1.0" id="node-14" transform="translate(622.249,139.239)"><circle r="0.0" /></g><g fill="rgb(0%,100%,100%)" fill-opacity="1.0" id="node-15" transform="translate(602.064,126.311)"><circle r="0.0" /></g><g fill="rgb(0%,100%,100%)" fill-opacity="1.0" id="node-16" transform="translate(581.035,114.807)"><circle r="0.0" /></g><g fill="rgb(0%,100%,100%)" fill-opacity="1.0" id="node-17" transform="translate(559.262,104.781)"><circle r="0.0" /></g><g fill="rgb(0%,100%,100%)" fill-opacity="1.0" id="node-18" transform="translate(536.850,96.282)"><circle r="0.0" /></g><g fill="rgb(0%,100%,100%)" fill-opacity="1.0" id="node-19" transform="translate(513.904,89.348)"><circle r="0.0" /></g><g fill="rgb(0%,100%,100%)" fill-opacity="1.0" id="node-20" transform="translate(490.535,84.014)"><circle r="0.0" /></g><g fill="rgb(0%,100%,100%)" fill-opacity="1.0" id="node-21" transform="translate(466.854,80.306)"><circle r="0.0" /></g><g fill="rgb(0%,100%,100%)" fill-opacity="1.0" id="node-22" transform="translate(442.973,78.239)"><circle r="0.0" /></g><g fill="rgb(0%,100%,100%)" fill-opacity="1.0" id="node-23" transform="translate(419.007,77.826)"><circle r="0.0" /></g><g fill="rgb(0%,100%,100%)" fill-opacity="1.0" id="node-24" transform="translate(395.069,79.066)"><circle r="0.0" /></g><g fill="rgb(0%,100%,100%)" fill-opacity="1.0" id="node-25" transform="translate(371.273,81.956)"><circle r="0.0" /></g><g fill="rgb(0%,100%,100%)" fill-opacity="1.0" id="node-26" transform="translate(347.734,86.480)"><circle r="0.0" /></g><g fill="rgb(0%,100%,100%)" fill-opacity="1.0" id="node-27" transform="translate(324.563,92.617)"><circle r="0.0" /></g><g fill="rgb(0%,100%,100%)" fill-opacity="1.0" id="node-28" transform="translate(301.871,100.338)"><circle r="0.0" /></g><g fill="rgb(0%,100%,100%)" fill-opacity="1.0" id="node-29" transform="translate(279.765,109.606)"><circle r="0.0" /></g><g fill="rgb(0%,100%,100%)" fill-opacity="1.0" id="node-30" transform="translate(258.351,120.378)"><circle r="0.0" /></g><g fill="rgb(0%,100%,100%)" fill-opacity="1.0" id="node-31" transform="translate(237.732,132.601)"><circle r="0.0" /></g><g fill="rgb(0%,100%,100%)" fill-opacity="1.0" id="node-32" transform="translate(218.005,146.217)"><circle r="0.0" /></g><g fill="rgb(0%,100%,100%)" fill-opacity="1.0" id="node-33" transform="translate(199.264,161.162)"><circle r="0.0" /></g><g fill="rgb(0%,100%,100%)" fill-opacity="1.0" id="node-34" transform="translate(181.600,177.364)"><circle r="0.0" /></g><g fill="rgb(0%,100%,100%)" fill-opacity="1.0" id="node-35" transform="translate(165.095,194.747)"><circle r="0.0" /></g><g fill="rgb(0%,100%,100%)" fill-opacity="1.0" id="node-36" transform="translate(149.828,213.226)"><circle r="0.0" /></g><g fill="rgb(0%,100%,100%)" fill-opacity="1.0" id="node-37" transform="translate(135.873,232.715)"><circle r="0.0" /></g><g fill="rgb(0%,100%,100%)" fill-opacity="1.0" id="node-38" transform="translate(123.296,253.120)"><circle r="0.0" /></g><g fill="rgb(0%,100%,100%)" fill-opacity="1.0" id="node-39" transform="translate(112.157,274.344)"><circle r="0.0" /></g><g fill="rgb(0%,100%,100%)" fill-opacity="1.0" id="node-40" transform="translate(102.508,296.286)"><circle r="0.0" /></g><g fill="rgb(0%,100%,100%)" fill-opacity="1.0" id="node-41" transform="translate(94.396,318.842)"><circle r="0.0" /></g><g fill="rgb(0%,100%,100%)" fill-opacity="1.0" id="node-42" transform="translate(87.860,341.903)"><circle r="0.0" /></g><g fill="rgb(0%,100%,100%)" fill-opacity="1.0" id="node-43" transform="translate(82.930,365.361)"><circle r="0.0" /></g><g fill="rgb(0%,100%,100%)" fill-opacity="1.0" id="node-44" transform="translate(79.631,389.102)"><circle r="0.0" /></g><g fill="rgb(0%,100%,100%)" fill-opacity="1.0" id="node-45" transform="translate(77.977,413.015)"><circle r="0.0" /></g><g fill="rgb(0%,100%,100%)" fill-opacity="1.0" id="node-46" transform="translate(77.977,436.985)"><circle r="0.0" /></g><g fill="rgb(0%,100%,100%)" fill-opacity="1.0" id="node-47" transform="translate(79.631,460.898)"><circle r="0.0" /></g><g fill="rgb(0%,100%,100%)" fill-opacity="1.0" id="node-48" transform="translate(82.930,484.639)"><circle r="0.0" /></g><g fill="rgb(0%,100%,100%)" fill-opacity="1.0" id="node-49" transform="translate(87.860,508.097)"><circle r="0.0" /></g><g fill="rgb(0%,100%,100%)" fill-opacity="1.0" id="node-50" transform="translate(94.396,531.158)"><circle r="0.0" /></g><g fill="rgb(0%,100%,100%)" fill-opacity="1.0" id="node-51" transform="translate(102.508,553.714)"><circle r="0.0" /></g><g fill="rgb(0%,100%,100%)" fill-opacity="1.0" id="node-52" transform="translate(112.157,575.656)"><circle r="0.0" /></g><g fill="rgb(0%,100%,100%)" fill-opacity="1.0" id="node-53" transform="translate(123.296,596.880)"><circle r="0.0" /></g><g fill="rgb(0%,100%,100%)" fill-opacity="1.0" id="node-54" transform="translate(135.873,617.285)"><circle r="0.0" /></g><g fill="rgb(0%,100%,100%)" fill-opacity="1.0" id="node-55" transform="translate(149.828,636.774)"><circle r="0.0" /></g><g fill="rgb(0%,100%,100%)" fill-opacity="1.0" id="node-56" transform="translate(165.095,655.253)"><circle r="0.0" /></g><g fill="rgb(0%,100%,100%)" fill-opacity="1.0" id="node-57" transform="translate(181.600,672.636)"><circle r="0.0" /></g><g fill="rgb(0%,100%,100%)" fill-opacity="1.0" id="node-58" transform="translate(199.264,688.838)"><circle r="0.0" /></g><g fill="rgb(0%,100%,100%)" fill-opacity="1.0" id="node-59" transform="translate(218.005,703.783)"><circle r="0.0" /></g><g fill="rgb(0%,100%,100%)" fill-opacity="1.0" id="node-60" transform="translate(237.732,717.399)"><circle r="0.0" /></g><g fill="rgb(0%,100%,100%)" fill-opacity="1.0" id="node-61" transform="translate(258.351,729.622)"><circle r="0.0" /></g><g fill="rgb(0%,100%,100%)" fill-opacity="1.0" id="node-62" transform="translate(279.765,740.394)"><circle r="0.0" /></g><g fill="rgb(0%,100%,100%)" fill-opacity="1.0" id="node-63" transform="translate(301.871,749.662)"><circle r="0.0" /></g><g fill="rgb(0%,100%,100%)" fill-opacity="1.0" id="node-64" transform="translate(324.563,757.383)"><circle r="0.0" /></g><g fill="rgb(0%,100%,100%)" fill-opacity="1.0" id="node-65" transform="translate(347.734,763.520)"><circle r="0.0" /></g><g fill="rgb(0%,100%,100%)" fill-opacity="1.0" id="node-66" transform="translate(371.273,768.044)"><circle r="0.0" /></g><g fill="rgb(0%,100%,100%)" fill-opacity="1.0" id="node-67" transform="translate(395.069,770.934)"><circle r="0.0" /></g><g fill="rgb(0%,100%,100%)" fill-opacity="1.0" id="node-68" transform="translate(419.007,772.174)"><circle r="0.0" /></g><g fill="rgb(0%,100%,100%)" fill-opacity="1.0" id="node-69" transform="translate(442.973,771.761)"><circle r="0.0" /></g><g fill="rgb(0%,100%,100%)" fill-opacity="1.0" id="node-70" transform="translate(466.854,769.694)"><circle r="0.0" /></g><g fill="rgb(0%,100%,100%)" fill-opacity="1.0" id="node-71" transform="translate(490.535,765.986)"><circle r="0.0" /></g><g fill="rgb(0%,100%,100%)" fill-opacity="1.0" id="node-72" transform="translate(513.904,760.652)"><circle r="0.0" /></g><g fill="rgb(0%,100%,100%)" fill-opacity="1.0" id="node-73" transform="translate(536.850,753.718)"><circle r="0.0" /></g><g fill="rgb(0%,100%,100%)" fill-opacity="1.0" id="node-74" transform="translate(559.262,745.219)"><circle r="0.0" /></g><g fill="rgb(100%,100%,100%)" fill-opacity="1.0" id="node-75" transform="translate(581.035,735.193)"><circle r="15.0" /></g><g fill="rgb(100%,100%,100%)" fill-opacity="1.0" id="node-76" transform="translate(602.064,723.689)"><circle r="7.790035587188612" /></g><g fill="rgb(0%,100%,100%)" fill-opacity="1.0" id="node-77" transform="translate(622.249,710.761)"><circle r="0.0" /></g><g fill="rgb(0%,100%,100%)" fill-opacity="1.0" id="node-78" transform="translate(641.494,696.472)"><circle r="0.0" /></g><g fill="rgb(0%,100%,100%)" fill-opacity="1.0" id="node-79" transform="translate(659.708,680.889)"><circle r="0.0" /></g><g fill="rgb(0%,100%,100%)" fill-opacity="1.0" id="node-80" transform="translate(676.803,664.087)"><circle r="0.0" /></g><g fill="rgb(0%,100%,100%)" fill-opacity="1.0" id="node-81" transform="translate(692.698,646.145)"><circle r="0.0" /></g><g fill="rgb(0%,100%,100%)" fill-opacity="1.0" id="node-82" transform="translate(707.317,627.150)"><circle r="0.0" /></g><g fill="rgb(0%,100%,100%)" fill-opacity="1.0" id="node-83" transform="translate(720.591,607.191)"><circle r="0.0" /></g><g fill="rgb(0%,100%,100%)" fill-opacity="1.0" id="node-84" transform="translate(732.457,586.364)"><circle r="0.0" /></g><g fill="rgb(0%,100%,100%)" fill-opacity="1.0" id="node-85" transform="translate(742.857,564.768)"><circle r="0.0" /></g><g fill="rgb(0%,100%,100%)" fill-opacity="1.0" id="node-86" transform="translate(751.743,542.506)"><circle r="0.0" /></g><g fill="rgb(0%,100%,100%)" fill-opacity="1.0" id="node-87" transform="translate(759.071,519.684)"><circle r="0.0" /></g><g fill="rgb(0%,100%,100%)" fill-opacity="1.0" id="node-88" transform="translate(764.807,496.410)"><circle r="0.0" /></g><g fill="rgb(0%,100%,100%)" fill-opacity="1.0" id="node-89" transform="translate(768.924,472.797)"><circle r="0.0" /></g><g fill="rgb(0%,100%,100%)" fill-opacity="1.0" id="node-90" transform="translate(771.403,448.956)"><circle r="0.0" /></g><g fill="rgb(0%,100%,100%)" fill-opacity="1.0" id="node-91" transform="translate(703.392,346.097)"><circle r="0.0" /></g><g fill="rgb(0%,100%,100%)" fill-opacity="1.0" id="node-92" transform="translate(613.113,205.135)"><circle r="0.0" /></g><g fill="rgb(0%,100%,100%)" fill-opacity="1.0" id="node-93" transform="translate(527.608,154.448)"><circle r="0.0" /></g><g fill="rgb(0%,100%,100%)" fill-opacity="1.0" id="node-94" transform="translate(322.392,154.448)"><circle r="0.0" /></g><g fill="rgb(0%,100%,100%)" fill-opacity="1.0" id="node-95" transform="translate(164.297,299.454)"><circle r="0.0" /></g><g fill="rgb(0%,100%,100%)" fill-opacity="1.0" id="node-96" transform="translate(149.497,336.535)"><circle r="0.0" /></g><g fill="rgb(0%,100%,100%)" fill-opacity="1.0" id="node-97" transform="translate(141.827,365.491)"><circle r="0.0" /></g><g fill="rgb(0%,100%,100%)" fill-opacity="1.0" id="node-98" transform="translate(137.192,395.085)"><circle r="0.0" /></g><g fill="rgb(0%,100%,100%)" fill-opacity="1.0" id="node-99" transform="translate(135.814,415.013)"><circle r="0.0" /></g><g fill="rgb(0%,100%,100%)" fill-opacity="1.0" id="node-100" transform="translate(135.814,434.987)"><circle r="0.0" /></g><g fill="rgb(0%,100%,100%)" fill-opacity="1.0" id="node-101" transform="translate(144.050,494.247)"><circle r="0.0" /></g><g fill="rgb(0%,100%,100%)" fill-opacity="1.0" id="node-102" transform="translate(178.674,576.826)"><circle r="0.0" /></g><g fill="rgb(0%,100%,100%)" fill-opacity="1.0" id="node-103" transform="translate(208.412,616.878)"><circle r="0.0" /></g><g fill="rgb(0%,100%,100%)" fill-opacity="1.0" id="node-104" transform="translate(222.166,631.363)"><circle r="0.0" /></g><g fill="rgb(0%,100%,100%)" fill-opacity="1.0" id="node-105" transform="translate(236.887,644.865)"><circle r="0.0" /></g><g fill="rgb(0%,100%,100%)" fill-opacity="1.0" id="node-106" transform="translate(268.943,668.666)"><circle r="0.0" /></g><g fill="rgb(0%,100%,100%)" fill-opacity="1.0" id="node-107" transform="translate(313.115,691.849)"><circle r="0.0" /></g><g fill="rgb(0%,100%,100%)" fill-opacity="1.0" id="node-108" transform="translate(380.228,710.870)"><circle r="0.0" /></g><g fill="rgb(0%,100%,100%)" fill-opacity="1.0" id="node-109" transform="translate(449.943,713.278)"><circle r="0.0" /></g><g fill="rgb(0%,100%,100%)" fill-opacity="1.0" id="node-110" transform="translate(489.388,707.100)"><circle r="0.0" /></g><g fill="rgb(0%,100%,100%)" fill-opacity="1.0" id="node-111" transform="translate(527.608,695.552)"><circle r="0.0" /></g><g fill="rgb(0%,100%,100%)" fill-opacity="1.0" id="node-112" transform="translate(555.029,683.494)"><circle r="0.0" /></g><g fill="rgb(0%,100%,100%)" fill-opacity="1.0" id="node-113" transform="translate(572.553,673.907)"><circle r="0.0" /></g><g fill="rgb(0%,100%,100%)" fill-opacity="1.0" id="node-114" transform="translate(620.590,638.241)"><circle r="0.0" /></g><g fill="rgb(0%,100%,100%)" fill-opacity="1.0" id="node-115" transform="translate(660.264,593.458)"><circle r="0.0" /></g><g fill="rgb(0%,100%,100%)" fill-opacity="1.0" id="node-116" transform="translate(671.326,576.826)"><circle r="0.0" /></g><g fill="rgb(0%,100%,100%)" fill-opacity="1.0" id="node-117" transform="translate(689.881,541.473)"><circle r="0.0" /></g><g fill="rgb(0%,100%,100%)" fill-opacity="1.0" id="node-118" transform="translate(705.950,494.247)"><circle r="0.0" /></g><g fill="rgb(0%,100%,100%)" fill-opacity="1.0" id="node-119" transform="translate(711.604,464.831)"><circle r="0.0" /></g><g fill="rgb(0%,100%,100%)" fill-opacity="1.0" id="node-120" transform="translate(713.669,444.963)"><circle r="0.0" /></g><g fill="rgb(0%,100%,100%)" fill-opacity="1.0" id="node-121" transform="translate(589.156,261.788)"><circle r="0.0" /></g><g fill="rgb(0%,100%,100%)" fill-opacity="1.0" id="node-122" transform="translate(342.914,208.559)"><circle r="0.0" /></g><g fill="rgb(0%,100%,100%)" fill-opacity="1.0" id="node-123" transform="translate(210.005,339.191)"><circle r="0.0" /></g><g fill="rgb(0%,100%,100%)" fill-opacity="1.0" id="node-124" transform="translate(198.462,377.393)"><circle r="0.0" /></g><g fill="rgb(0%,100%,100%)" fill-opacity="1.0" id="node-125" transform="translate(194.754,401.068)"><circle r="0.0" /></g><g fill="rgb(0%,100%,100%)" fill-opacity="1.0" id="node-126" transform="translate(193.651,417.010)"><circle r="0.0" /></g><g fill="rgb(0%,100%,100%)" fill-opacity="1.0" id="node-127" transform="translate(193.651,432.990)"><circle r="0.0" /></g><g fill="rgb(0%,100%,100%)" fill-opacity="1.0" id="node-128" transform="translate(211.519,514.507)"><circle r="0.0" /></g><g fill="rgb(0%,100%,100%)" fill-opacity="1.0" id="node-129" transform="translate(262.733,590.091)"><circle r="0.0" /></g><g fill="rgb(0%,100%,100%)" fill-opacity="1.0" id="node-130" transform="translate(300.155,619.933)"><circle r="0.0" /></g><g fill="rgb(0%,100%,100%)" fill-opacity="1.0" id="node-131" transform="translate(335.492,638.479)"><circle r="0.0" /></g><g fill="rgb(0%,100%,100%)" fill-opacity="1.0" id="node-132" transform="translate(482.981,649.105)"><circle r="0.0" /></g><g fill="rgb(0%,100%,100%)" fill-opacity="1.0" id="node-133" transform="translate(606.811,568.284)"><circle r="0.0" /></g><g fill="rgb(0%,100%,100%)" fill-opacity="1.0" id="node-134" transform="translate(644.148,499.566)"><circle r="0.0" /></g><g fill="rgb(0%,100%,100%)" fill-opacity="1.0" id="node-135" transform="translate(654.283,456.865)"><circle r="0.0" /></g><g fill="rgb(0%,100%,100%)" fill-opacity="1.0" id="node-136" transform="translate(655.935,440.970)"><circle r="0.0" /></g><g fill="rgb(0%,100%,100%)" fill-opacity="1.0" id="node-137" transform="translate(282.524,325.790)"><circle r="0.0" /></g><g fill="rgb(0%,100%,100%)" fill-opacity="1.0" id="node-138" transform="translate(281.272,522.387)"><circle r="0.0" /></g><g fill="rgb(0%,100%,100%)" fill-opacity="1.0" id="node-139" transform="translate(344.317,578.727)"><circle r="0.0" /></g><g fill="rgb(0%,100%,100%)" fill-opacity="1.0" id="node-140" transform="translate(468.486,593.079)"><circle r="0.0" /></g><g fill="rgb(0%,100%,100%)" fill-opacity="1.0" id="node-141" transform="translate(561.358,532.463)"><circle r="0.0" /></g><g fill="rgb(0%,100%,100%)" fill-opacity="1.0" id="node-142" transform="translate(593.922,465.092)"><circle r="0.0" /></g><g fill="rgb(0%,100%,100%)" fill-opacity="1.0" id="node-143" transform="translate(598.201,436.978)"><circle r="0.0" /></g><g fill="rgb(0%,100%,100%)" fill-opacity="1.0" id="node-144" transform="translate(316.605,465.583)"><circle r="0.0" /></g><g fill="rgb(0%,100%,100%)" fill-opacity="1.0" id="node-145" transform="translate(453.991,537.053)"><circle r="0.0" /></g><g fill="rgb(0%,100%,100%)" fill-opacity="1.0" id="node-146" transform="translate(515.905,496.642)"><circle r="0.0" /></g><g fill="rgb(0%,100%,100%)" fill-opacity="1.0" id="node-147" transform="translate(537.615,451.728)"><circle r="0.0" /></g><g fill="rgb(0%,100%,100%)" fill-opacity="1.0" id="node-148" transform="translate(540.468,432.985)"><circle r="0.0" /></g><g fill="rgb(0%,100%,100%)" fill-opacity="1.0" id="node-149" transform="translate(455.579,474.133)"><circle r="0.0" /></g><g fill="rgb(0%,100%,100%)" fill-opacity="1.0" id="node-150" transform="translate(425.000,425.000)"><circle r="0.0" /></g></g></g></g></g><g class="toyplot-coordinates-Cartesian" id="tfcdeeb19ef9d4bceb5545d1ab5bea8c8"><clipPath id="tfc6f69f83ba04a31a7d675bc000c8527"><rect x="50.0" y="50.0" width="750.0" height="50.0" /></clipPath><g clip-path="url(#tfc6f69f83ba04a31a7d675bc000c8527)" /><g transform="translate(425.0,42.0)"><text x="-69.83200000000001" y="-4.823" style="fill:rgb(16.1%,15.3%,14.1%);fill-opacity:1.0;font-family:helvetica;font-size:14.0px;font-weight:bold;stroke:none;vertical-align:baseline;white-space:pre">Healthy vs. IBS-D, =5</text></g></g><g class="toyplot-coordinates-Table" id="t284fd2ca82ff42cb8a080da788a1f5aa"><g transform="translate(900.0,275.0)"><text x="-25.284000000000002" y="-10.423" style="fill:rgb(16.1%,15.3%,14.1%);fill-opacity:1.0;font-family:helvetica;font-size:14.0px;font-weight:bold;stroke:none;vertical-align:baseline;white-space:pre">Phylum</text></g><g transform="translate(895.0,285.0)"><g style="fill:rgb(100%,49.8%,0%);fill-opacity:1.0" transform="translate(-5.55, -4.440892098500626e-16)"><circle r="4.0" /></g></g><g transform="translate(905.0,285.0)"><text x="0" y="3.066" style="fill:rgb(16.1%,15.3%,14.1%);fill-opacity:1.0;font-family:helvetica;font-size:12.0px;font-weight:normal;stroke:none;vertical-align:baseline;white-space:pre">Synergistota</text></g><g transform="translate(895.0,305.0)"><g style="fill:rgb(21.6%,49.4%,72.2%);fill-opacity:1.0" transform="translate(-5.55, -4.440892098500626e-16)"><circle r="4.0" /></g></g><g transform="translate(905.0,305.0)"><text x="0" y="3.066" style="fill:rgb(16.1%,15.3%,14.1%);fill-opacity:1.0;font-family:helvetica;font-size:12.0px;font-weight:normal;stroke:none;vertical-align:baseline;white-space:pre">Proteobacteria</text></g><g transform="translate(895.0,325.0)"><g style="fill:rgb(59.6%,30.6%,63.9%);fill-opacity:1.0" transform="translate(-5.55, -4.440892098500626e-16)"><circle r="4.0" /></g></g><g transform="translate(905.0,325.0)"><text x="0" y="3.066" style="fill:rgb(16.1%,15.3%,14.1%);fill-opacity:1.0;font-family:helvetica;font-size:12.0px;font-weight:normal;stroke:none;vertical-align:baseline;white-space:pre">Actinobacteriota</text></g><g transform="translate(895.0,345.0)"><g style="fill:rgb(30.2%,68.6%,29%);fill-opacity:1.0" transform="translate(-5.55, -4.440892098500626e-16)"><circle r="4.0" /></g></g><g transform="translate(905.0,345.0)"><text x="0" y="3.066" style="fill:rgb(16.1%,15.3%,14.1%);fill-opacity:1.0;font-family:helvetica;font-size:12.0px;font-weight:normal;stroke:none;vertical-align:baseline;white-space:pre">Bacteroidota</text></g><g transform="translate(895.0,365.0)"><g style="fill:rgb(89.4%,10.2%,11%);fill-opacity:1.0" transform="translate(-5.55, -4.440892098500626e-16)"><circle r="4.0" /></g></g><g transform="translate(905.0,365.0)"><text x="0" y="3.066" style="fill:rgb(16.1%,15.3%,14.1%);fill-opacity:1.0;font-family:helvetica;font-size:12.0px;font-weight:normal;stroke:none;vertical-align:baseline;white-space:pre">Firmicutes</text></g></g><g class="toyplot-coordinates-Table" id="t4137aaa57832476bb84cc3c6d531d69e"><g transform="translate(900.0,425.0)"><text x="-59.899" y="-10.423" style="fill:rgb(16.1%,15.3%,14.1%);fill-opacity:1.0;font-family:helvetica;font-size:14.0px;font-weight:bold;stroke:none;vertical-align:baseline;white-space:pre">tascCODA Effects</text></g><g transform="translate(895.0,450.0)"><g style="fill:rgb(0%,0%,0%);fill-opacity:1.0" transform="translate(-5.55, -4.440892098500626e-16)"><circle r="10.0" /></g></g><g transform="translate(905.0,450.0)"><text x="0" y="3.066" style="fill:rgb(16.1%,15.3%,14.1%);fill-opacity:1.0;font-family:helvetica;font-size:12.0px;font-weight:normal;stroke:none;vertical-align:baseline;white-space:pre">1.405</text></g><g transform="translate(895.0,500.0)"><g style="fill:rgb(100%,100%,100%);fill-opacity:1.0" transform="translate(-5.55, -4.440892098500626e-16)"><circle r="10.0" /></g></g><g transform="translate(905.0,500.0)"><text x="0" y="3.066" style="fill:rgb(16.1%,15.3%,14.1%);fill-opacity:1.0;font-family:helvetica;font-size:12.0px;font-weight:normal;stroke:none;vertical-align:baseline;white-space:pre">-1.405</text></g></g></svg>