<svg class="toyplot-canvas-Canvas" xmlns:toyplot="http://www.sandia.gov/toyplot" xmlns:xlink="http://www.w3.org/1999/xlink" xmlns="http://www.w3.org/2000/svg" width="1000.0px" height="1000.0px" viewBox="0 0 1000.0 1000.0" preserveAspectRatio="xMidYMid meet" style="background-color:transparent;border-color:#292724;border-style:none;border-width:1.0;fill:rgb(16.1%,15.3%,14.1%);fill-opacity:1.0;font-family:Helvetica;font-size:12px;opacity:1.0;stroke:rgb(16.1%,15.3%,14.1%);stroke-opacity:1.0;stroke-width:1.0" id="tb9fd2ad0106a40c7b576209b5c2ed9d5"><g class="toyplot-coordinates-Cartesian" id="t2ba8bb4f2f73424cb0cc63fbaef0e32d"><clipPath id="tf93bf7748cfe48f0b66c7f223d4090fb"><rect x="30.0" y="30.0" width="790.0" height="790.0" /></clipPath><g clip-path="url(#tf93bf7748cfe48f0b66c7f223d4090fb)"><g class="toytree-mark-Toytree" id="tf246bd3bf6474700894651cdb771f05a"><g class="toytree-Edges" style="fill:none;stroke:rgb(14.9%,14.9%,14.9%);stroke-linecap:round;stroke-opacity:1;stroke-width:3"><path d="M 456.2 475.2 L 425.0 425.0 A -0.0 -0.0 0 0 0 425.0 425.0" id="150,149" style="stroke:rgb(0%,0%,0%);stroke-opacity:1.0" /><path d="M 543.0 433.2 L 484.0 429.1 A 59.1 59.1 0 0 1 456.2 475.2" id="149,148" style="stroke:rgb(100%,49.8%,0%);stroke-opacity:1.0" /><path d="M 540.1 452.3 L 482.5 438.7 A 59.1 59.1 0 0 1 456.2 475.2" id="149,147" style="stroke:rgb(21.6%,49.4%,72.2%);stroke-opacity:1.0" /><path d="M 517.9 498.2 L 471.4 461.6 A 59.1 59.1 0 0 1 456.2 475.2" id="149,146" style="stroke:rgb(59.6%,30.6%,63.9%);stroke-opacity:1.0" /><path d="M 454.6 539.5 L 439.8 482.2 A 59.1 59.1 0 0 0 456.2 475.2" id="149,145" style="stroke:rgb(30.2%,68.6%,29%);stroke-opacity:1.0" /><path d="M 314.2 466.5 L 369.6 445.7 A 59.1 59.1 0 0 0 456.2 475.2" id="149,144" style="stroke:rgb(89.4%,10.2%,11%);stroke-opacity:1.0" /><path d="M 602.0 437.2 L 543.0 433.2 A 118.3 118.3 0 0 1 543.0 433.2" id="148,143" style="stroke:rgb(100%,49.8%,0%);stroke-opacity:1.0" /><path d="M 597.6 466.0 L 540.1 452.3 A 118.3 118.3 0 0 1 540.1 452.3" id="147,142" style="stroke:rgb(21.6%,49.4%,72.2%);stroke-opacity:1.0" /><path d="M 564.3 534.8 L 517.9 498.2 A 118.3 118.3 0 0 1 517.9 498.2" id="146,141" style="stroke:rgb(59.6%,30.6%,63.9%);stroke-opacity:1.0" /><path d="M 469.4 596.7 L 454.6 539.5 A 118.3 118.3 0 0 1 454.6 539.5" id="145,140" style="stroke:rgb(30.2%,68.6%,29%);stroke-opacity:1.0" /><path d="M 342.6 582.1 L 370.0 529.7 A 118.3 118.3 0 0 1 314.2 466.5" id="144,139" style="stroke:rgb(89.4%,10.2%,11%);stroke-opacity:1.0" /><path d="M 278.1 524.5 L 327.1 491.3 A 118.3 118.3 0 0 1 314.2 466.5" id="144,138" style="stroke:rgb(89.4%,10.2%,11%);stroke-opacity:1.0" /><path d="M 279.4 323.6 L 327.9 357.4 A 118.3 118.3 0 0 0 314.2 466.5" id="144,137" style="stroke:rgb(89.4%,10.2%,11%);stroke-opacity:1.0" /><path d="M 661.0 441.3 L 602.0 437.2 A 177.4 177.4 0 0 1 602.0 437.2" id="143,136" style="stroke:rgb(100%,49.8%,0%);stroke-opacity:1.0" /><path d="M 659.3 457.6 L 600.7 449.4 A 177.4 177.4 0 0 1 597.6 466.0" id="142,135" style="stroke:rgb(21.6%,49.4%,72.2%);stroke-opacity:1.0" /><path d="M 648.9 501.2 L 592.9 482.1 A 177.4 177.4 0 0 0 597.6 466.0" id="142,134" style="stroke:rgb(21.6%,49.4%,72.2%);stroke-opacity:1.0" /><path d="M 610.8 571.4 L 564.3 534.8 A 177.4 177.4 0 0 1 564.3 534.8" id="141,133" style="stroke:rgb(59.6%,30.6%,63.9%);stroke-opacity:1.0" /><path d="M 484.2 654.0 L 469.4 596.7 A 177.4 177.4 0 0 1 469.4 596.7" id="140,132" style="stroke:rgb(30.2%,68.6%,29%);stroke-opacity:1.0" /><path d="M 333.5 643.1 L 356.4 588.6 A 177.4 177.4 0 0 1 342.6 582.1" id="139,131" style="stroke:rgb(89.4%,10.2%,11%);stroke-opacity:1.0" /><path d="M 297.4 624.2 L 329.3 574.4 A 177.4 177.4 0 0 0 342.6 582.1" id="139,130" style="stroke:rgb(89.4%,10.2%,11%);stroke-opacity:1.0" /><path d="M 259.2 593.7 L 300.7 551.5 A 177.4 177.4 0 0 1 278.1 524.5" id="138,129" style="stroke:rgb(89.4%,10.2%,11%);stroke-opacity:1.0" /><path d="M 206.9 516.5 L 261.4 493.6 A 177.4 177.4 0 0 0 278.1 524.5" id="138,128" style="stroke:rgb(89.4%,10.2%,11%);stroke-opacity:1.0" /><path d="M 188.6 433.2 L 247.7 431.1 A 177.4 177.4 0 0 1 279.4 323.6" id="137,127" style="stroke:rgb(89.4%,10.2%,11%);stroke-opacity:1.0" /><path d="M 188.6 416.8 L 247.7 418.9 A 177.4 177.4 0 0 1 279.4 323.6" id="137,126" style="stroke:rgb(89.4%,10.2%,11%);stroke-opacity:1.0" /><path d="M 189.7 400.5 L 248.6 406.7 A 177.4 177.4 0 0 1 279.4 323.6" id="137,125" style="stroke:rgb(89.4%,10.2%,11%);stroke-opacity:1.0" /><path d="M 193.5 376.4 L 251.4 388.5 A 177.4 177.4 0 0 1 279.4 323.6" id="137,124" style="stroke:rgb(89.4%,10.2%,11%);stroke-opacity:1.0" /><path d="M 205.3 337.3 L 260.2 359.2 A 177.4 177.4 0 0 1 279.4 323.6" id="137,123" style="stroke:rgb(89.4%,10.2%,11%);stroke-opacity:1.0" /><path d="M 341.1 203.8 L 362.1 259.1 A 177.4 177.4 0 0 0 279.4 323.6" id="137,122" style="stroke:rgb(89.4%,10.2%,11%);stroke-opacity:1.0" /><path d="M 592.7 258.2 L 550.8 299.9 A 177.4 177.4 0 0 0 279.4 323.6" id="137,121" style="stroke:rgb(89.4%,10.2%,11%);stroke-opacity:1.0" /><path d="M 719.9 445.4 L 661.0 441.3 A 236.5 236.5 0 0 1 661.0 441.3" id="136,120" style="stroke:rgb(100%,49.8%,0%);stroke-opacity:1.0" /><path d="M 717.8 465.7 L 659.3 457.6 A 236.5 236.5 0 0 1 659.3 457.6" id="135,119" style="stroke:rgb(21.6%,49.4%,72.2%);stroke-opacity:1.0" /><path d="M 712.1 495.8 L 654.7 481.6 A 236.5 236.5 0 0 1 648.9 501.2" id="134,118" style="stroke:rgb(21.6%,49.4%,72.2%);stroke-opacity:1.0" /><path d="M 695.6 544.0 L 641.5 520.2 A 236.5 236.5 0 0 0 648.9 501.2" id="134,117" style="stroke:rgb(21.6%,49.4%,72.2%);stroke-opacity:1.0" /><path d="M 676.7 580.1 L 626.3 549.1 A 236.5 236.5 0 0 1 610.8 571.4" id="133,116" style="stroke:rgb(59.6%,30.6%,63.9%);stroke-opacity:1.0" /><path d="M 665.4 597.1 L 617.3 562.7 A 236.5 236.5 0 0 1 610.8 571.4" id="133,115" style="stroke:rgb(59.6%,30.6%,63.9%);stroke-opacity:1.0" /><path d="M 624.8 642.9 L 584.9 599.3 A 236.5 236.5 0 0 0 610.8 571.4" id="133,114" style="stroke:rgb(59.6%,30.6%,63.9%);stroke-opacity:1.0" /><path d="M 575.8 679.3 L 545.6 628.5 A 236.5 236.5 0 0 1 484.2 654.0" id="132,113" style="stroke:rgb(30.2%,68.6%,29%);stroke-opacity:1.0" /><path d="M 557.9 689.1 L 531.3 636.3 A 236.5 236.5 0 0 1 484.2 654.0" id="132,112" style="stroke:rgb(30.2%,68.6%,29%);stroke-opacity:1.0" /><path d="M 529.8 701.4 L 508.9 646.2 A 236.5 236.5 0 0 1 484.2 654.0" id="132,111" style="stroke:rgb(30.2%,68.6%,29%);stroke-opacity:1.0" /><path d="M 490.8 713.2 L 477.6 655.6 A 236.5 236.5 0 0 0 484.2 654.0" id="132,110" style="stroke:rgb(30.2%,68.6%,29%);stroke-opacity:1.0" /><path d="M 450.5 719.6 L 445.4 660.6 A 236.5 236.5 0 0 0 484.2 654.0" id="132,109" style="stroke:rgb(30.2%,68.6%,29%);stroke-opacity:1.0" /><path d="M 379.3 717.1 L 388.4 658.7 A 236.5 236.5 0 0 0 484.2 654.0" id="132,108" style="stroke:rgb(30.2%,68.6%,29%);stroke-opacity:1.0" /><path d="M 310.7 697.7 L 333.5 643.1 A 236.5 236.5 0 0 0 333.5 643.1" id="131,107" style="stroke:rgb(89.4%,10.2%,11%);stroke-opacity:1.0" /><path d="M 265.5 674.0 L 297.4 624.2 A 236.5 236.5 0 0 0 297.4 624.2" id="130,106" style="stroke:rgb(89.4%,10.2%,11%);stroke-opacity:1.0" /><path d="M 232.8 649.6 L 271.2 604.7 A 236.5 236.5 0 0 1 259.2 593.7" id="129,105" style="stroke:rgb(89.4%,10.2%,11%);stroke-opacity:1.0" /><path d="M 217.8 635.9 L 259.2 593.7 A 236.5 236.5 0 0 0 259.2 593.7" id="129,104" style="stroke:rgb(89.4%,10.2%,11%);stroke-opacity:1.0" /><path d="M 203.7 621.1 L 248.0 581.8 A 236.5 236.5 0 0 0 259.2 593.7" id="129,103" style="stroke:rgb(89.4%,10.2%,11%);stroke-opacity:1.0" /><path d="M 173.3 580.1 L 223.7 549.1 A 236.5 236.5 0 0 1 206.9 516.5" id="128,102" style="stroke:rgb(89.4%,10.2%,11%);stroke-opacity:1.0" /><path d="M 137.9 495.8 L 195.3 481.6 A 236.5 236.5 0 0 0 206.9 516.5" id="128,101" style="stroke:rgb(89.4%,10.2%,11%);stroke-opacity:1.0" /><path d="M 129.5 435.2 L 188.6 433.2 A 236.5 236.5 0 0 0 188.6 433.2" id="127,100" style="stroke:rgb(89.4%,10.2%,11%);stroke-opacity:1.0" /><path d="M 129.5 414.8 L 188.6 416.8 A 236.5 236.5 0 0 1 188.6 416.8" id="126,99" style="stroke:rgb(89.4%,10.2%,11%);stroke-opacity:1.0" /><path d="M 130.9 394.4 L 189.7 400.5 A 236.5 236.5 0 0 1 189.7 400.5" id="125,98" style="stroke:rgb(89.4%,10.2%,11%);stroke-opacity:1.0" /><path d="M 135.7 364.2 L 193.5 376.4 A 236.5 236.5 0 0 1 193.5 376.4" id="124,97" style="stroke:rgb(89.4%,10.2%,11%);stroke-opacity:1.0" /><path d="M 143.5 334.6 L 199.8 352.7 A 236.5 236.5 0 0 1 205.3 337.3" id="123,96" style="stroke:rgb(89.4%,10.2%,11%);stroke-opacity:1.0" /><path d="M 158.6 296.7 L 211.9 322.4 A 236.5 236.5 0 0 0 205.3 337.3" id="123,95" style="stroke:rgb(89.4%,10.2%,11%);stroke-opacity:1.0" /><path d="M 320.2 148.6 L 341.1 203.8 A 236.5 236.5 0 0 1 341.1 203.8" id="122,94" style="stroke:rgb(89.4%,10.2%,11%);stroke-opacity:1.0" /><path d="M 529.8 148.6 L 508.9 203.8 A 236.5 236.5 0 0 1 592.7 258.2" id="121,93" style="stroke:rgb(89.4%,10.2%,11%);stroke-opacity:1.0" /><path d="M 617.2 200.4 L 578.8 245.3 A 236.5 236.5 0 0 1 592.7 258.2" id="121,92" style="stroke:rgb(89.4%,10.2%,11%);stroke-opacity:1.0" /><path d="M 709.4 344.4 L 652.6 360.5 A 236.5 236.5 0 0 0 592.7 258.2" id="121,91" style="stroke:rgb(89.4%,10.2%,11%);stroke-opacity:1.0" /><path d="M 778.9 449.5 L 719.9 445.4 A 295.7 295.7 0 0 1 719.9 445.4" id="120,90" style="stroke:rgb(100%,49.8%,0%);stroke-opacity:1.0" /><path d="M 776.4 473.8 L 717.8 465.7 A 295.7 295.7 0 0 1 717.8 465.7" id="119,89" style="stroke:rgb(21.6%,49.4%,72.2%);stroke-opacity:1.0" /><path d="M 772.2 498.0 L 714.3 485.8 A 295.7 295.7 0 0 1 712.1 495.8" id="118,88" style="stroke:rgb(21.6%,49.4%,72.2%);stroke-opacity:1.0" /><path d="M 766.3 521.7 L 709.4 505.6 A 295.7 295.7 0 0 0 712.1 495.8" id="118,87" style="stroke:rgb(21.6%,49.4%,72.2%);stroke-opacity:1.0" /><path d="M 758.9 545.1 L 703.2 525.1 A 295.7 295.7 0 0 1 695.6 544.0" id="117,86" style="stroke:rgb(21.6%,49.4%,72.2%);stroke-opacity:1.0" /><path d="M 749.8 567.8 L 695.6 544.0 A 295.7 295.7 0 0 1 695.6 544.0" id="117,85" style="stroke:rgb(21.6%,49.4%,72.2%);stroke-opacity:1.0" /><path d="M 739.1 589.9 L 686.8 562.4 A 295.7 295.7 0 0 0 695.6 544.0" id="117,84" style="stroke:rgb(21.6%,49.4%,72.2%);stroke-opacity:1.0" /><path d="M 727.0 611.2 L 676.7 580.1 A 295.7 295.7 0 0 1 676.7 580.1" id="116,83" style="stroke:rgb(59.6%,30.6%,63.9%);stroke-opacity:1.0" /><path d="M 713.5 631.5 L 665.4 597.1 A 295.7 295.7 0 0 1 665.4 597.1" id="115,82" style="stroke:rgb(59.6%,30.6%,63.9%);stroke-opacity:1.0" /><path d="M 698.5 651.0 L 652.9 613.3 A 295.7 295.7 0 0 1 624.8 642.9" id="114,81" style="stroke:rgb(59.6%,30.6%,63.9%);stroke-opacity:1.0" /><path d="M 682.3 669.3 L 639.4 628.6 A 295.7 295.7 0 0 1 624.8 642.9" id="114,80" style="stroke:rgb(59.6%,30.6%,63.9%);stroke-opacity:1.0" /><path d="M 664.8 686.5 L 624.8 642.9 A 295.7 295.7 0 0 1 624.8 642.9" id="114,79" style="stroke:rgb(59.6%,30.6%,63.9%);stroke-opacity:1.0" /><path d="M 646.2 702.4 L 609.3 656.2 A 295.7 295.7 0 0 0 624.8 642.9" id="114,78" style="stroke:rgb(59.6%,30.6%,63.9%);stroke-opacity:1.0" /><path d="M 626.5 717.0 L 593.0 668.3 A 295.7 295.7 0 0 0 624.8 642.9" id="114,77" style="stroke:rgb(59.6%,30.6%,63.9%);stroke-opacity:1.0" /><path d="M 605.9 730.2 L 575.8 679.3 A 295.7 295.7 0 0 1 575.8 679.3" id="113,76" style="stroke:rgb(30.2%,68.6%,29%);stroke-opacity:1.0" /><path d="M 584.4 741.9 L 557.9 689.1 A 295.7 295.7 0 0 1 557.9 689.1" id="112,75" style="stroke:rgb(30.2%,68.6%,29%);stroke-opacity:1.0" /><path d="M 562.2 752.2 L 539.3 697.7 A 295.7 295.7 0 0 1 529.8 701.4" id="111,74" style="stroke:rgb(30.2%,68.6%,29%);stroke-opacity:1.0" /><path d="M 539.3 760.9 L 520.2 704.9 A 295.7 295.7 0 0 0 529.8 701.4" id="111,73" style="stroke:rgb(30.2%,68.6%,29%);stroke-opacity:1.0" /><path d="M 515.8 768.0 L 500.7 710.8 A 295.7 295.7 0 0 1 490.8 713.2" id="110,72" style="stroke:rgb(30.2%,68.6%,29%);stroke-opacity:1.0" /><path d="M 492.0 773.4 L 480.8 715.3 A 295.7 295.7 0 0 0 490.8 713.2" id="110,71" style="stroke:rgb(30.2%,68.6%,29%);stroke-opacity:1.0" /><path d="M 467.8 777.2 L 460.6 718.5 A 295.7 295.7 0 0 1 450.5 719.6" id="109,70" style="stroke:rgb(30.2%,68.6%,29%);stroke-opacity:1.0" /><path d="M 443.4 779.3 L 440.3 720.3 A 295.7 295.7 0 0 0 450.5 719.6" id="109,69" style="stroke:rgb(30.2%,68.6%,29%);stroke-opacity:1.0" /><path d="M 418.9 779.7 L 419.9 720.6 A 295.7 295.7 0 0 1 379.3 717.1" id="108,68" style="stroke:rgb(30.2%,68.6%,29%);stroke-opacity:1.0" /><path d="M 394.4 778.5 L 399.5 719.6 A 295.7 295.7 0 0 1 379.3 717.1" id="108,67" style="stroke:rgb(30.2%,68.6%,29%);stroke-opacity:1.0" /><path d="M 370.1 775.5 L 379.3 717.1 A 295.7 295.7 0 0 0 379.3 717.1" id="108,66" style="stroke:rgb(30.2%,68.6%,29%);stroke-opacity:1.0" /><path d="M 346.1 770.9 L 359.2 713.2 A 295.7 295.7 0 0 0 379.3 717.1" id="108,65" style="stroke:rgb(30.2%,68.6%,29%);stroke-opacity:1.0" /><path d="M 322.4 764.6 L 339.5 708.0 A 295.7 295.7 0 0 0 379.3 717.1" id="108,64" style="stroke:rgb(30.2%,68.6%,29%);stroke-opacity:1.0" /><path d="M 299.2 756.7 L 320.2 701.4 A 295.7 295.7 0 0 1 310.7 697.7" id="107,63" style="stroke:rgb(89.4%,10.2%,11%);stroke-opacity:1.0" /><path d="M 276.6 747.3 L 301.3 693.5 A 295.7 295.7 0 0 0 310.7 697.7" id="107,62" style="stroke:rgb(89.4%,10.2%,11%);stroke-opacity:1.0" /><path d="M 254.7 736.3 L 283.1 684.4 A 295.7 295.7 0 0 1 265.5 674.0" id="106,61" style="stroke:rgb(89.4%,10.2%,11%);stroke-opacity:1.0" /><path d="M 233.7 723.8 L 265.5 674.0 A 295.7 295.7 0 0 0 265.5 674.0" id="106,60" style="stroke:rgb(89.4%,10.2%,11%);stroke-opacity:1.0" /><path d="M 213.5 709.8 L 248.8 662.4 A 295.7 295.7 0 0 0 265.5 674.0" id="106,59" style="stroke:rgb(89.4%,10.2%,11%);stroke-opacity:1.0" /><path d="M 194.4 694.6 L 232.8 649.7 A 295.7 295.7 0 0 0 232.8 649.6" id="105,58" style="stroke:rgb(89.4%,10.2%,11%);stroke-opacity:1.0" /><path d="M 176.3 678.0 L 217.8 635.9 A 295.7 295.7 0 0 0 217.8 635.9" id="104,57" style="stroke:rgb(89.4%,10.2%,11%);stroke-opacity:1.0" /><path d="M 159.4 660.3 L 203.7 621.1 A 295.7 295.7 0 0 0 203.7 621.1" id="103,56" style="stroke:rgb(89.4%,10.2%,11%);stroke-opacity:1.0" /><path d="M 143.8 641.4 L 190.7 605.3 A 295.7 295.7 0 0 1 173.3 580.1" id="102,55" style="stroke:rgb(89.4%,10.2%,11%);stroke-opacity:1.0" /><path d="M 129.6 621.5 L 178.8 588.7 A 295.7 295.7 0 0 1 173.3 580.1" id="102,54" style="stroke:rgb(89.4%,10.2%,11%);stroke-opacity:1.0" /><path d="M 116.7 600.6 L 168.1 571.4 A 295.7 295.7 0 0 0 173.3 580.1" id="102,53" style="stroke:rgb(89.4%,10.2%,11%);stroke-opacity:1.0" /><path d="M 105.4 578.9 L 158.6 553.3 A 295.7 295.7 0 0 0 173.3 580.1" id="102,52" style="stroke:rgb(89.4%,10.2%,11%);stroke-opacity:1.0" /><path d="M 95.5 556.5 L 150.4 534.6 A 295.7 295.7 0 0 1 137.9 495.8" id="101,51" style="stroke:rgb(89.4%,10.2%,11%);stroke-opacity:1.0" /><path d="M 87.2 533.5 L 143.5 515.4 A 295.7 295.7 0 0 1 137.9 495.8" id="101,50" style="stroke:rgb(89.4%,10.2%,11%);stroke-opacity:1.0" /><path d="M 80.5 509.9 L 137.9 495.8 A 295.7 295.7 0 0 0 137.9 495.8" id="101,49" style="stroke:rgb(89.4%,10.2%,11%);stroke-opacity:1.0" /><path d="M 75.5 485.9 L 133.7 475.8 A 295.7 295.7 0 0 0 137.9 495.8" id="101,48" style="stroke:rgb(89.4%,10.2%,11%);stroke-opacity:1.0" /><path d="M 72.1 461.7 L 130.9 455.6 A 295.7 295.7 0 0 0 137.9 495.8" id="101,47" style="stroke:rgb(89.4%,10.2%,11%);stroke-opacity:1.0" /><path d="M 70.4 437.2 L 129.5 435.2 A 295.7 295.7 0 0 0 129.5 435.2" id="100,46" style="stroke:rgb(89.4%,10.2%,11%);stroke-opacity:1.0" /><path d="M 70.4 412.8 L 129.5 414.8 A 295.7 295.7 0 0 1 129.5 414.8" id="99,45" style="stroke:rgb(89.4%,10.2%,11%);stroke-opacity:1.0" /><path d="M 72.1 388.3 L 130.9 394.4 A 295.7 295.7 0 0 1 130.9 394.4" id="98,44" style="stroke:rgb(89.4%,10.2%,11%);stroke-opacity:1.0" /><path d="M 75.5 364.1 L 133.7 374.2 A 295.7 295.7 0 0 1 135.7 364.2" id="97,43" style="stroke:rgb(89.4%,10.2%,11%);stroke-opacity:1.0" /><path d="M 80.5 340.1 L 137.9 354.2 A 295.7 295.7 0 0 0 135.7 364.2" id="97,42" style="stroke:rgb(89.4%,10.2%,11%);stroke-opacity:1.0" /><path d="M 87.2 316.5 L 143.5 334.6 A 295.7 295.7 0 0 1 143.5 334.6" id="96,41" style="stroke:rgb(89.4%,10.2%,11%);stroke-opacity:1.0" /><path d="M 95.5 293.5 L 150.4 315.4 A 295.7 295.7 0 0 1 158.6 296.7" id="95,40" style="stroke:rgb(89.4%,10.2%,11%);stroke-opacity:1.0" /><path d="M 105.4 271.1 L 158.6 296.7 A 295.7 295.7 0 0 1 158.6 296.7" id="95,39" style="stroke:rgb(89.4%,10.2%,11%);stroke-opacity:1.0" /><path d="M 116.7 249.4 L 168.1 278.6 A 295.7 295.7 0 0 0 158.6 296.7" id="95,38" style="stroke:rgb(89.4%,10.2%,11%);stroke-opacity:1.0" /><path d="M 129.6 228.5 L 178.8 261.3 A 295.7 295.7 0 0 1 320.2 148.6" id="94,37" style="stroke:rgb(89.4%,10.2%,11%);stroke-opacity:1.0" /><path d="M 143.8 208.6 L 190.7 244.7 A 295.7 295.7 0 0 1 320.2 148.6" id="94,36" style="stroke:rgb(89.4%,10.2%,11%);stroke-opacity:1.0" /><path d="M 159.4 189.7 L 203.7 228.9 A 295.7 295.7 0 0 1 320.2 148.6" id="94,35" style="stroke:rgb(89.4%,10.2%,11%);stroke-opacity:1.0" /><path d="M 176.3 172.0 L 217.8 214.1 A 295.7 295.7 0 0 1 320.2 148.6" id="94,34" style="stroke:rgb(89.4%,10.2%,11%);stroke-opacity:1.0" /><path d="M 194.4 155.4 L 232.8 200.3 A 295.7 295.7 0 0 1 320.2 148.6" id="94,33" style="stroke:rgb(89.4%,10.2%,11%);stroke-opacity:1.0" /><path d="M 213.5 140.2 L 248.8 187.6 A 295.7 295.7 0 0 1 320.2 148.6" id="94,32" style="stroke:rgb(89.4%,10.2%,11%);stroke-opacity:1.0" /><path d="M 233.7 126.2 L 265.5 176.0 A 295.7 295.7 0 0 1 320.2 148.6" id="94,31" style="stroke:rgb(89.4%,10.2%,11%);stroke-opacity:1.0" /><path d="M 254.7 113.7 L 283.1 165.6 A 295.7 295.7 0 0 1 320.2 148.6" id="94,30" style="stroke:rgb(89.4%,10.2%,11%);stroke-opacity:1.0" /><path d="M 276.6 102.7 L 301.3 156.5 A 295.7 295.7 0 0 1 320.2 148.6" id="94,29" style="stroke:rgb(89.4%,10.2%,11%);stroke-opacity:1.0" /><path d="M 299.2 93.3 L 320.2 148.6 A 295.7 295.7 0 0 1 320.2 148.6" id="94,28" style="stroke:rgb(89.4%,10.2%,11%);stroke-opacity:1.0" /><path d="M 322.4 85.4 L 339.5 142.0 A 295.7 295.7 0 0 0 320.2 148.6" id="94,27" style="stroke:rgb(89.4%,10.2%,11%);stroke-opacity:1.0" /><path d="M 346.1 79.1 L 359.2 136.8 A 295.7 295.7 0 0 0 320.2 148.6" id="94,26" style="stroke:rgb(89.4%,10.2%,11%);stroke-opacity:1.0" /><path d="M 370.1 74.5 L 379.3 132.9 A 295.7 295.7 0 0 0 320.2 148.6" id="94,25" style="stroke:rgb(89.4%,10.2%,11%);stroke-opacity:1.0" /><path d="M 394.4 71.5 L 399.5 130.4 A 295.7 295.7 0 0 0 320.2 148.6" id="94,24" style="stroke:rgb(89.4%,10.2%,11%);stroke-opacity:1.0" /><path d="M 418.9 70.3 L 419.9 129.4 A 295.7 295.7 0 0 0 320.2 148.6" id="94,23" style="stroke:rgb(89.4%,10.2%,11%);stroke-opacity:1.0" /><path d="M 443.4 70.7 L 440.3 129.7 A 295.7 295.7 0 0 0 320.2 148.6" id="94,22" style="stroke:rgb(89.4%,10.2%,11%);stroke-opacity:1.0" /><path d="M 467.8 72.8 L 460.6 131.5 A 295.7 295.7 0 0 0 320.2 148.6" id="94,21" style="stroke:rgb(89.4%,10.2%,11%);stroke-opacity:1.0" /><path d="M 492.0 76.6 L 480.8 134.7 A 295.7 295.7 0 0 0 320.2 148.6" id="94,20" style="stroke:rgb(89.4%,10.2%,11%);stroke-opacity:1.0" /><path d="M 515.8 82.0 L 500.7 139.2 A 295.7 295.7 0 0 0 320.2 148.6" id="94,19" style="stroke:rgb(89.4%,10.2%,11%);stroke-opacity:1.0" /><path d="M 539.3 89.1 L 520.2 145.1 A 295.7 295.7 0 0 1 529.8 148.6" id="93,18" style="stroke:rgb(89.4%,10.2%,11%);stroke-opacity:1.0" /><path d="M 562.2 97.8 L 539.3 152.3 A 295.7 295.7 0 0 0 529.8 148.6" id="93,17" style="stroke:rgb(89.4%,10.2%,11%);stroke-opacity:1.0" /><path d="M 584.4 108.1 L 557.9 160.9 A 295.7 295.7 0 0 1 617.2 200.4" id="92,16" style="stroke:rgb(89.4%,10.2%,11%);stroke-opacity:1.0" /><path d="M 605.9 119.8 L 575.8 170.7 A 295.7 295.7 0 0 1 617.2 200.4" id="92,15" style="stroke:rgb(89.4%,10.2%,11%);stroke-opacity:1.0" /><path d="M 626.5 133.0 L 593.0 181.7 A 295.7 295.7 0 0 1 617.2 200.4" id="92,14" style="stroke:rgb(89.4%,10.2%,11%);stroke-opacity:1.0" /><path d="M 646.2 147.6 L 609.3 193.8 A 295.7 295.7 0 0 1 617.2 200.4" id="92,13" style="stroke:rgb(89.4%,10.2%,11%);stroke-opacity:1.0" /><path d="M 664.8 163.5 L 624.8 207.1 A 295.7 295.7 0 0 0 617.2 200.4" id="92,12" style="stroke:rgb(89.4%,10.2%,11%);stroke-opacity:1.0" /><path d="M 682.3 180.7 L 639.4 221.4 A 295.7 295.7 0 0 0 617.2 200.4" id="92,11" style="stroke:rgb(89.4%,10.2%,11%);stroke-opacity:1.0" /><path d="M 698.5 199.0 L 652.9 236.7 A 295.7 295.7 0 0 0 617.2 200.4" id="92,10" style="stroke:rgb(89.4%,10.2%,11%);stroke-opacity:1.0" /><path d="M 713.5 218.5 L 665.4 252.9 A 295.7 295.7 0 0 0 617.2 200.4" id="92,9" style="stroke:rgb(89.4%,10.2%,11%);stroke-opacity:1.0" /><path d="M 727.0 238.8 L 676.7 269.9 A 295.7 295.7 0 0 1 709.4 344.4" id="91,8" style="stroke:rgb(89.4%,10.2%,11%);stroke-opacity:1.0" /><path d="M 739.1 260.1 L 686.8 287.6 A 295.7 295.7 0 0 1 709.4 344.4" id="91,7" style="stroke:rgb(89.4%,10.2%,11%);stroke-opacity:1.0" /><path d="M 749.8 282.2 L 695.6 306.0 A 295.7 295.7 0 0 1 709.4 344.4" id="91,6" style="stroke:rgb(89.4%,10.2%,11%);stroke-opacity:1.0" /><path d="M 758.9 304.9 L 703.2 324.9 A 295.7 295.7 0 0 1 709.4 344.4" id="91,5" style="stroke:rgb(89.4%,10.2%,11%);stroke-opacity:1.0" /><path d="M 766.3 328.3 L 709.4 344.4 A 295.7 295.7 0 0 0 709.4 344.4" id="91,4" style="stroke:rgb(89.4%,10.2%,11%);stroke-opacity:1.0" /><path d="M 772.2 352.0 L 714.3 364.2 A 295.7 295.7 0 0 0 709.4 344.4" id="91,3" style="stroke:rgb(89.4%,10.2%,11%);stroke-opacity:1.0" /><path d="M 776.4 376.2 L 717.8 384.3 A 295.7 295.7 0 0 0 709.4 344.4" id="91,2" style="stroke:rgb(89.4%,10.2%,11%);stroke-opacity:1.0" /><path d="M 778.9 400.5 L 719.9 404.6 A 295.7 295.7 0 0 0 709.4 344.4" id="91,1" style="stroke:rgb(89.4%,10.2%,11%);stroke-opacity:1.0" /><path d="M 779.8 425.0 L 720.7 425.0 A 295.7 295.7 0 0 0 709.4 344.4" id="91,0" style="stroke:rgb(89.4%,10.2%,11%);stroke-opacity:1.0" /></g><g class="toytree-AlignEdges" style="stroke:rgb(66.3%,66.3%,66.3%);stroke-dasharray:2, 4;stroke-linecap:round;stroke-opacity:1.0;stroke-width:2"><path d="M 779.8 425.0 L 779.8 425.0" /><path d="M 778.9 400.5 L 778.9 400.5" /><path d="M 776.4 376.2 L 776.4 376.2" /><path d="M 772.2 352.0 L 772.2 352.0" /><path d="M 766.3 328.3 L 766.3 328.3" /><path d="M 758.9 304.9 L 758.9 304.9" /><path d="M 749.8 282.2 L 749.8 282.2" /><path d="M 739.1 260.1 L 739.1 260.1" /><path d="M 727.0 238.8 L 727.0 238.8" /><path d="M 713.5 218.5 L 713.5 218.5" /><path d="M 698.5 199.0 L 698.5 199.0" /><path d="M 682.3 180.7 L 682.3 180.7" /><path d="M 664.8 163.5 L 664.8 163.5" /><path d="M 646.2 147.6 L 646.2 147.6" /><path d="M 626.5 133.0 L 626.5 133.0" /><path d="M 605.9 119.8 L 605.9 119.8" /><path d="M 584.4 108.1 L 584.4 108.1" /><path d="M 562.2 97.8 L 562.2 97.8" /><path d="M 539.3 89.1 L 539.3 89.1" /><path d="M 515.8 82.0 L 515.8 82.0" /><path d="M 492.0 76.6 L 492.0 76.6" /><path d="M 467.8 72.8 L 467.8 72.8" /><path d="M 443.4 70.7 L 443.4 70.7" /><path d="M 418.9 70.3 L 418.9 70.3" /><path d="M 394.4 71.5 L 394.4 71.5" /><path d="M 370.1 74.5 L 370.1 74.5" /><path d="M 346.1 79.1 L 346.1 79.1" /><path d="M 322.4 85.4 L 322.4 85.4" /><path d="M 299.2 93.3 L 299.2 93.3" /><path d="M 276.6 102.7 L 276.6 102.7" /><path d="M 254.7 113.7 L 254.7 113.7" /><path d="M 233.7 126.2 L 233.7 126.2" /><path d="M 213.5 140.2 L 213.5 140.2" /><path d="M 194.4 155.4 L 194.4 155.4" /><path d="M 176.3 172.0 L 176.3 172.0" /><path d="M 159.4 189.7 L 159.4 189.7" /><path d="M 143.8 208.6 L 143.8 208.6" /><path d="M 129.6 228.5 L 129.6 228.5" /><path d="M 116.7 249.4 L 116.7 249.4" /><path d="M 105.4 271.1 L 105.4 271.1" /><path d="M 95.5 293.5 L 95.5 293.5" /><path d="M 87.2 316.5 L 87.2 316.5" /><path d="M 80.5 340.1 L 80.5 340.1" /><path d="M 75.5 364.1 L 75.5 364.1" /><path d="M 72.1 388.3 L 72.1 388.3" /><path d="M 70.4 412.8 L 70.4 412.8" /><path d="M 70.4 437.2 L 70.4 437.2" /><path d="M 72.1 461.7 L 72.1 461.7" /><path d="M 75.5 485.9 L 75.5 485.9" /><path d="M 80.5 509.9 L 80.5 509.9" /><path d="M 87.2 533.5 L 87.2 533.5" /><path d="M 95.5 556.5 L 95.5 556.5" /><path d="M 105.4 578.9 L 105.4 578.9" /><path d="M 116.7 600.6 L 116.7 600.6" /><path d="M 129.6 621.5 L 129.6 621.5" /><path d="M 143.8 641.4 L 143.8 641.4" /><path d="M 159.4 660.3 L 159.4 660.3" /><path d="M 176.3 678.0 L 176.3 678.0" /><path d="M 194.4 694.6 L 194.4 694.6" /><path d="M 213.5 709.8 L 213.5 709.8" /><path d="M 233.7 723.8 L 233.7 723.8" /><path d="M 254.7 736.3 L 254.7 736.3" /><path d="M 276.6 747.3 L 276.6 747.3" /><path d="M 299.2 756.7 L 299.2 756.7" /><path d="M 322.4 764.6 L 322.4 764.6" /><path d="M 346.1 770.9 L 346.1 770.9" /><path d="M 370.1 775.5 L 370.1 775.5" /><path d="M 394.4 778.5 L 394.4 778.5" /><path d="M 418.9 779.7 L 418.9 779.7" /><path d="M 443.4 779.3 L 443.4 779.3" /><path d="M 467.8 777.2 L 467.8 777.2" /><path d="M 492.0 773.4 L 492.0 773.4" /><path d="M 515.8 768.0 L 515.8 768.0" /><path d="M 539.3 760.9 L 539.3 760.9" /><path d="M 562.2 752.2 L 562.2 752.2" /><path d="M 584.4 741.9 L 584.4 741.9" /><path d="M 605.9 730.2 L 605.9 730.2" /><path d="M 626.5 717.0 L 626.5 717.0" /><path d="M 646.2 702.4 L 646.2 702.4" /><path d="M 664.8 686.5 L 664.8 686.5" /><path d="M 682.3 669.3 L 682.3 669.3" /><path d="M 698.5 651.0 L 698.5 651.0" /><path d="M 713.5 631.5 L 713.5 631.5" /><path d="M 727.0 611.2 L 727.0 611.2" /><path d="M 739.1 589.9 L 739.1 589.9" /><path d="M 749.8 567.8 L 749.8 567.8" /><path d="M 758.9 545.1 L 758.9 545.1" /><path d="M 766.3 521.7 L 766.3 521.7" /><path d="M 772.2 498.0 L 772.2 498.0" /><path d="M 776.4 473.8 L 776.4 473.8" /><path d="M 778.9 449.5 L 778.9 449.5" /></g><g class="toytree-Nodes" style="fill:rgb(40%,76.1%,64.7%);fill-opacity:1.0;stroke:rgb(0%,0%,0%);stroke-opacity:1.0;stroke-width:1"><g fill="rgb(100%,100%,100%)" fill-opacity="1.0" id="node-0" transform="translate(779.785,425.000)"><circle r="7.02846975088968" /></g><g fill="rgb(0%,100%,100%)" fill-opacity="1.0" id="node-1" transform="translate(778.939,400.523)"><circle r="0.0" /></g><g fill="rgb(0%,100%,100%)" fill-opacity="1.0" id="node-2" transform="translate(776.407,376.163)"><circle r="0.0" /></g><g fill="rgb(0%,100%,100%)" fill-opacity="1.0" id="node-3" transform="translate(772.201,352.036)"><circle r="0.0" /></g><g fill="rgb(0%,100%,100%)" fill-opacity="1.0" id="node-4" transform="translate(766.339,328.256)"><circle r="0.0" /></g><g fill="rgb(0%,100%,100%)" fill-opacity="1.0" id="node-5" transform="translate(758.851,304.937)"><circle r="0.0" /></g><g fill="rgb(0%,100%,100%)" fill-opacity="1.0" id="node-6" transform="translate(749.773,282.191)"><circle r="0.0" /></g><g fill="rgb(0%,100%,100%)" fill-opacity="1.0" id="node-7" transform="translate(739.146,260.125)"><circle r="0.0" /></g><g fill="rgb(0%,100%,100%)" fill-opacity="1.0" id="node-8" transform="translate(727.023,238.844)"><circle r="0.0" /></g><g fill="rgb(0%,100%,100%)" fill-opacity="1.0" id="node-9" transform="translate(713.460,218.451)"><circle r="0.0" /></g><g fill="rgb(0%,100%,100%)" fill-opacity="1.0" id="node-10" transform="translate(698.522,199.042)"><circle r="0.0" /></g><g fill="rgb(0%,100%,100%)" fill-opacity="1.0" id="node-11" transform="translate(682.281,180.710)"><circle r="0.0" /></g><g fill="rgb(0%,100%,100%)" fill-opacity="1.0" id="node-12" transform="translate(664.814,163.542)"><circle r="0.0" /></g><g fill="rgb(0%,100%,100%)" fill-opacity="1.0" id="node-13" transform="translate(646.205,147.620)"><circle r="0.0" /></g><g fill="rgb(0%,100%,100%)" fill-opacity="1.0" id="node-14" transform="translate(626.541,133.020)"><circle r="0.0" /></g><g fill="rgb(0%,100%,100%)" fill-opacity="1.0" id="node-15" transform="translate(605.916,119.812)"><circle r="0.0" /></g><g fill="rgb(0%,100%,100%)" fill-opacity="1.0" id="node-16" transform="translate(584.430,108.057)"><circle r="0.0" /></g><g fill="rgb(0%,100%,100%)" fill-opacity="1.0" id="node-17" transform="translate(562.183,97.813)"><circle r="0.0" /></g><g fill="rgb(0%,100%,100%)" fill-opacity="1.0" id="node-18" transform="translate(539.283,89.129)"><circle r="0.0" /></g><g fill="rgb(0%,0%,0%)" fill-opacity="1.0" id="node-19" transform="translate(515.839,82.044)"><circle r="10.686832740213523" /></g><g fill="rgb(0%,100%,100%)" fill-opacity="1.0" id="node-20" transform="translate(491.961,76.595)"><circle r="0.0" /></g><g fill="rgb(0%,100%,100%)" fill-opacity="1.0" id="node-21" transform="translate(467.765,72.805)"><circle r="0.0" /></g><g fill="rgb(0%,100%,100%)" fill-opacity="1.0" id="node-22" transform="translate(443.364,70.694)"><circle r="0.0" /></g><g fill="rgb(0%,100%,100%)" fill-opacity="1.0" id="node-23" transform="translate(418.876,70.271)"><circle r="0.0" /></g><g fill="rgb(0%,100%,100%)" fill-opacity="1.0" id="node-24" transform="translate(394.417,71.539)"><circle r="0.0" /></g><g fill="rgb(0%,100%,100%)" fill-opacity="1.0" id="node-25" transform="translate(370.104,74.491)"><circle r="0.0" /></g><g fill="rgb(0%,100%,100%)" fill-opacity="1.0" id="node-26" transform="translate(346.053,79.113)"><circle r="0.0" /></g><g fill="rgb(0%,100%,100%)" fill-opacity="1.0" id="node-27" transform="translate(322.378,85.384)"><circle r="0.0" /></g><g fill="rgb(0%,100%,100%)" fill-opacity="1.0" id="node-28" transform="translate(299.192,93.273)"><circle r="0.0" /></g><g fill="rgb(0%,100%,100%)" fill-opacity="1.0" id="node-29" transform="translate(276.605,102.743)"><circle r="0.0" /></g><g fill="rgb(0%,100%,100%)" fill-opacity="1.0" id="node-30" transform="translate(254.726,113.749)"><circle r="0.0" /></g><g fill="rgb(0%,100%,100%)" fill-opacity="1.0" id="node-31" transform="translate(233.658,126.238)"><circle r="0.0" /></g><g fill="rgb(0%,100%,100%)" fill-opacity="1.0" id="node-32" transform="translate(213.501,140.151)"><circle r="0.0" /></g><g fill="rgb(0%,100%,100%)" fill-opacity="1.0" id="node-33" transform="translate(194.353,155.421)"><circle r="0.0" /></g><g fill="rgb(0%,100%,100%)" fill-opacity="1.0" id="node-34" transform="translate(176.304,171.976)"><circle r="0.0" /></g><g fill="rgb(0%,100%,100%)" fill-opacity="1.0" id="node-35" transform="translate(159.440,189.736)"><circle r="0.0" /></g><g fill="rgb(0%,100%,100%)" fill-opacity="1.0" id="node-36" transform="translate(143.841,208.618)"><circle r="0.0" /></g><g fill="rgb(0%,100%,100%)" fill-opacity="1.0" id="node-37" transform="translate(129.583,228.531)"><circle r="0.0" /></g><g fill="rgb(0%,100%,100%)" fill-opacity="1.0" id="node-38" transform="translate(116.732,249.380)"><circle r="0.0" /></g><g fill="rgb(0%,100%,100%)" fill-opacity="1.0" id="node-39" transform="translate(105.350,271.066)"><circle r="0.0" /></g><g fill="rgb(0%,100%,100%)" fill-opacity="1.0" id="node-40" transform="translate(95.492,293.486)"><circle r="0.0" /></g><g fill="rgb(0%,100%,100%)" fill-opacity="1.0" id="node-41" transform="translate(87.203,316.532)"><circle r="0.0" /></g><g fill="rgb(0%,100%,100%)" fill-opacity="1.0" id="node-42" transform="translate(80.525,340.095)"><circle r="0.0" /></g><g fill="rgb(0%,100%,100%)" fill-opacity="1.0" id="node-43" transform="translate(75.488,364.063)"><circle r="0.0" /></g><g fill="rgb(0%,100%,100%)" fill-opacity="1.0" id="node-44" transform="translate(72.117,388.321)"><circle r="0.0" /></g><g fill="rgb(0%,100%,100%)" fill-opacity="1.0" id="node-45" transform="translate(70.427,412.754)"><circle r="0.0" /></g><g fill="rgb(0%,100%,100%)" fill-opacity="1.0" id="node-46" transform="translate(70.427,437.246)"><circle r="0.0" /></g><g fill="rgb(0%,100%,100%)" fill-opacity="1.0" id="node-47" transform="translate(72.117,461.679)"><circle r="0.0" /></g><g fill="rgb(0%,100%,100%)" fill-opacity="1.0" id="node-48" transform="translate(75.488,485.937)"><circle r="0.0" /></g><g fill="rgb(0%,100%,100%)" fill-opacity="1.0" id="node-49" transform="translate(80.525,509.905)"><circle r="0.0" /></g><g fill="rgb(0%,100%,100%)" fill-opacity="1.0" id="node-50" transform="translate(87.203,533.468)"><circle r="0.0" /></g><g fill="rgb(0%,100%,100%)" fill-opacity="1.0" id="node-51" transform="translate(95.492,556.514)"><circle r="0.0" /></g><g fill="rgb(0%,100%,100%)" fill-opacity="1.0" id="node-52" transform="translate(105.350,578.934)"><circle r="0.0" /></g><g fill="rgb(0%,100%,100%)" fill-opacity="1.0" id="node-53" transform="translate(116.732,600.620)"><circle r="0.0" /></g><g fill="rgb(0%,100%,100%)" fill-opacity="1.0" id="node-54" transform="translate(129.583,621.469)"><circle r="0.0" /></g><g fill="rgb(0%,100%,100%)" fill-opacity="1.0" id="node-55" transform="translate(143.841,641.382)"><circle r="0.0" /></g><g fill="rgb(0%,100%,100%)" fill-opacity="1.0" id="node-56" transform="translate(159.440,660.264)"><circle r="0.0" /></g><g fill="rgb(0%,100%,100%)" fill-opacity="1.0" id="node-57" transform="translate(176.304,678.024)"><circle r="0.0" /></g><g fill="rgb(0%,100%,100%)" fill-opacity="1.0" id="node-58" transform="translate(194.353,694.579)"><circle r="0.0" /></g><g fill="rgb(0%,100%,100%)" fill-opacity="1.0" id="node-59" transform="translate(213.501,709.849)"><circle r="0.0" /></g><g fill="rgb(0%,100%,100%)" fill-opacity="1.0" id="node-60" transform="translate(233.658,723.762)"><circle r="0.0" /></g><g fill="rgb(0%,100%,100%)" fill-opacity="1.0" id="node-61" transform="translate(254.726,736.251)"><circle r="0.0" /></g><g fill="rgb(0%,100%,100%)" fill-opacity="1.0" id="node-62" transform="translate(276.605,747.257)"><circle r="0.0" /></g><g fill="rgb(0%,100%,100%)" fill-opacity="1.0" id="node-63" transform="translate(299.192,756.727)"><circle r="0.0" /></g><g fill="rgb(0%,100%,100%)" fill-opacity="1.0" id="node-64" transform="translate(322.378,764.616)"><circle r="0.0" /></g><g fill="rgb(0%,100%,100%)" fill-opacity="1.0" id="node-65" transform="translate(346.053,770.887)"><circle r="0.0" /></g><g fill="rgb(0%,100%,100%)" fill-opacity="1.0" id="node-66" transform="translate(370.104,775.509)"><circle r="0.0" /></g><g fill="rgb(0%,100%,100%)" fill-opacity="1.0" id="node-67" transform="translate(394.417,778.461)"><circle r="0.0" /></g><g fill="rgb(0%,100%,100%)" fill-opacity="1.0" id="node-68" transform="translate(418.876,779.729)"><circle r="0.0" /></g><g fill="rgb(0%,100%,100%)" fill-opacity="1.0" id="node-69" transform="translate(443.364,779.306)"><circle r="0.0" /></g><g fill="rgb(0%,100%,100%)" fill-opacity="1.0" id="node-70" transform="translate(467.765,777.195)"><circle r="0.0" /></g><g fill="rgb(0%,100%,100%)" fill-opacity="1.0" id="node-71" transform="translate(491.961,773.405)"><circle r="0.0" /></g><g fill="rgb(0%,100%,100%)" fill-opacity="1.0" id="node-72" transform="translate(515.839,767.956)"><circle r="0.0" /></g><g fill="rgb(0%,100%,100%)" fill-opacity="1.0" id="node-73" transform="translate(539.283,760.871)"><circle r="0.0" /></g><g fill="rgb(0%,100%,100%)" fill-opacity="1.0" id="node-74" transform="translate(562.183,752.187)"><circle r="0.0" /></g><g fill="rgb(0%,100%,100%)" fill-opacity="1.0" id="node-75" transform="translate(584.430,741.943)"><circle r="0.0" /></g><g fill="rgb(100%,100%,100%)" fill-opacity="1.0" id="node-76" transform="translate(605.916,730.188)"><circle r="8.017793594306049" /></g><g fill="rgb(0%,100%,100%)" fill-opacity="1.0" id="node-77" transform="translate(626.541,716.980)"><circle r="0.0" /></g><g fill="rgb(0%,100%,100%)" fill-opacity="1.0" id="node-78" transform="translate(646.205,702.380)"><circle r="0.0" /></g><g fill="rgb(0%,100%,100%)" fill-opacity="1.0" id="node-79" transform="translate(664.814,686.458)"><circle r="0.0" /></g><g fill="rgb(0%,100%,100%)" fill-opacity="1.0" id="node-80" transform="translate(682.281,669.290)"><circle r="0.0" /></g><g fill="rgb(0%,100%,100%)" fill-opacity="1.0" id="node-81" transform="translate(698.522,650.958)"><circle r="0.0" /></g><g fill="rgb(0%,100%,100%)" fill-opacity="1.0" id="node-82" transform="translate(713.460,631.549)"><circle r="0.0" /></g><g fill="rgb(0%,100%,100%)" fill-opacity="1.0" id="node-83" transform="translate(727.023,611.156)"><circle r="0.0" /></g><g fill="rgb(0%,100%,100%)" fill-opacity="1.0" id="node-84" transform="translate(739.146,589.875)"><circle r="0.0" /></g><g fill="rgb(0%,100%,100%)" fill-opacity="1.0" id="node-85" transform="translate(749.773,567.809)"><circle r="0.0" /></g><g fill="rgb(0%,100%,100%)" fill-opacity="1.0" id="node-86" transform="translate(758.851,545.063)"><circle r="0.0" /></g><g fill="rgb(0%,100%,100%)" fill-opacity="1.0" id="node-87" transform="translate(766.339,521.744)"><circle r="0.0" /></g><g fill="rgb(0%,100%,100%)" fill-opacity="1.0" id="node-88" transform="translate(772.201,497.964)"><circle r="0.0" /></g><g fill="rgb(0%,100%,100%)" fill-opacity="1.0" id="node-89" transform="translate(776.407,473.837)"><circle r="0.0" /></g><g fill="rgb(0%,100%,100%)" fill-opacity="1.0" id="node-90" transform="translate(778.939,449.477)"><circle r="0.0" /></g><g fill="rgb(0%,100%,100%)" fill-opacity="1.0" id="node-91" transform="translate(709.449,344.380)"><circle r="0.0" /></g><g fill="rgb(0%,100%,100%)" fill-opacity="1.0" id="node-92" transform="translate(617.206,200.351)"><circle r="0.0" /></g><g fill="rgb(0%,100%,100%)" fill-opacity="1.0" id="node-93" transform="translate(529.840,148.561)"><circle r="0.0" /></g><g fill="rgb(0%,100%,100%)" fill-opacity="1.0" id="node-94" transform="translate(320.160,148.561)"><circle r="0.0" /></g><g fill="rgb(0%,100%,100%)" fill-opacity="1.0" id="node-95" transform="translate(158.625,296.722)"><circle r="0.0" /></g><g fill="rgb(0%,100%,100%)" fill-opacity="1.0" id="node-96" transform="translate(143.503,334.610)"><circle r="0.0" /></g><g fill="rgb(0%,100%,100%)" fill-opacity="1.0" id="node-97" transform="translate(135.666,364.196)"><circle r="0.0" /></g><g fill="rgb(0%,100%,100%)" fill-opacity="1.0" id="node-98" transform="translate(130.930,394.434)"><circle r="0.0" /></g><g fill="rgb(0%,100%,100%)" fill-opacity="1.0" id="node-99" transform="translate(129.522,414.795)"><circle r="0.0" /></g><g fill="rgb(0%,100%,100%)" fill-opacity="1.0" id="node-100" transform="translate(129.522,435.205)"><circle r="0.0" /></g><g fill="rgb(0%,100%,100%)" fill-opacity="1.0" id="node-101" transform="translate(137.937,495.754)"><circle r="0.0" /></g><g fill="rgb(0%,100%,100%)" fill-opacity="1.0" id="node-102" transform="translate(173.315,580.130)"><circle r="0.0" /></g><g fill="rgb(0%,100%,100%)" fill-opacity="1.0" id="node-103" transform="translate(203.700,621.053)"><circle r="0.0" /></g><g fill="rgb(0%,100%,100%)" fill-opacity="1.0" id="node-104" transform="translate(217.753,635.854)"><circle r="0.0" /></g><g fill="rgb(0%,100%,100%)" fill-opacity="1.0" id="node-105" transform="translate(232.794,649.649)"><circle r="0.0" /></g><g fill="rgb(0%,100%,100%)" fill-opacity="1.0" id="node-106" transform="translate(265.548,673.968)"><circle r="0.0" /></g><g fill="rgb(0%,100%,100%)" fill-opacity="1.0" id="node-107" transform="translate(310.681,697.656)"><circle r="0.0" /></g><g fill="rgb(0%,100%,100%)" fill-opacity="1.0" id="node-108" transform="translate(379.254,717.091)"><circle r="0.0" /></g><g fill="rgb(0%,100%,100%)" fill-opacity="1.0" id="node-109" transform="translate(450.485,719.551)"><circle r="0.0" /></g><g fill="rgb(0%,100%,100%)" fill-opacity="1.0" id="node-110" transform="translate(490.789,713.239)"><circle r="0.0" /></g><g fill="rgb(0%,100%,100%)" fill-opacity="1.0" id="node-111" transform="translate(529.840,701.439)"><circle r="0.0" /></g><g fill="rgb(0%,100%,100%)" fill-opacity="1.0" id="node-112" transform="translate(557.858,689.119)"><circle r="0.0" /></g><g fill="rgb(0%,100%,100%)" fill-opacity="1.0" id="node-113" transform="translate(575.764,679.324)"><circle r="0.0" /></g><g fill="rgb(0%,100%,100%)" fill-opacity="1.0" id="node-114" transform="translate(624.845,642.881)"><circle r="0.0" /></g><g fill="rgb(0%,100%,100%)" fill-opacity="1.0" id="node-115" transform="translate(665.383,597.124)"><circle r="0.0" /></g><g fill="rgb(0%,100%,100%)" fill-opacity="1.0" id="node-116" transform="translate(676.685,580.130)"><circle r="0.0" /></g><g fill="rgb(0%,100%,100%)" fill-opacity="1.0" id="node-117" transform="translate(695.644,544.008)"><circle r="0.0" /></g><g fill="rgb(0%,100%,100%)" fill-opacity="1.0" id="node-118" transform="translate(712.063,495.754)"><circle r="0.0" /></g><g fill="rgb(0%,100%,100%)" fill-opacity="1.0" id="node-119" transform="translate(717.839,465.697)"><circle r="0.0" /></g><g fill="rgb(0%,100%,100%)" fill-opacity="1.0" id="node-120" transform="translate(719.949,445.397)"><circle r="0.0" /></g><g fill="rgb(0%,100%,100%)" fill-opacity="1.0" id="node-121" transform="translate(592.728,258.236)"><circle r="0.0" /></g><g fill="rgb(0%,100%,100%)" fill-opacity="1.0" id="node-122" transform="translate(341.128,203.849)"><circle r="0.0" /></g><g fill="rgb(0%,100%,100%)" fill-opacity="1.0" id="node-123" transform="translate(205.328,337.324)"><circle r="0.0" /></g><g fill="rgb(0%,100%,100%)" fill-opacity="1.0" id="node-124" transform="translate(193.533,376.357)"><circle r="0.0" /></g><g fill="rgb(0%,100%,100%)" fill-opacity="1.0" id="node-125" transform="translate(189.744,400.548)"><circle r="0.0" /></g><g fill="rgb(0%,100%,100%)" fill-opacity="1.0" id="node-126" transform="translate(188.618,416.836)"><circle r="0.0" /></g><g fill="rgb(0%,100%,100%)" fill-opacity="1.0" id="node-127" transform="translate(188.618,433.164)"><circle r="0.0" /></g><g fill="rgb(0%,100%,100%)" fill-opacity="1.0" id="node-128" transform="translate(206.874,516.455)"><circle r="0.0" /></g><g fill="rgb(0%,100%,100%)" fill-opacity="1.0" id="node-129" transform="translate(259.203,593.683)"><circle r="0.0" /></g><g fill="rgb(0%,100%,100%)" fill-opacity="1.0" id="node-130" transform="translate(297.438,624.175)"><circle r="0.0" /></g><g fill="rgb(0%,100%,100%)" fill-opacity="1.0" id="node-131" transform="translate(333.544,643.124)"><circle r="0.0" /></g><g fill="rgb(0%,100%,100%)" fill-opacity="1.0" id="node-132" transform="translate(484.243,653.982)"><circle r="0.0" /></g><g fill="rgb(0%,100%,100%)" fill-opacity="1.0" id="node-133" transform="translate(610.767,571.402)"><circle r="0.0" /></g><g fill="rgb(0%,100%,100%)" fill-opacity="1.0" id="node-134" transform="translate(648.916,501.188)"><circle r="0.0" /></g><g fill="rgb(0%,100%,100%)" fill-opacity="1.0" id="node-135" transform="translate(659.271,457.558)"><circle r="0.0" /></g><g fill="rgb(0%,100%,100%)" fill-opacity="1.0" id="node-136" transform="translate(660.959,441.318)"><circle r="0.0" /></g><g fill="rgb(0%,100%,100%)" fill-opacity="1.0" id="node-137" transform="translate(279.424,323.631)"><circle r="0.0" /></g><g fill="rgb(0%,100%,100%)" fill-opacity="1.0" id="node-138" transform="translate(278.145,524.506)"><circle r="0.0" /></g><g fill="rgb(0%,100%,100%)" fill-opacity="1.0" id="node-139" transform="translate(342.562,582.072)"><circle r="0.0" /></g><g fill="rgb(0%,100%,100%)" fill-opacity="1.0" id="node-140" transform="translate(469.432,596.736)"><circle r="0.0" /></g><g fill="rgb(0%,100%,100%)" fill-opacity="1.0" id="node-141" transform="translate(564.325,534.802)"><circle r="0.0" /></g><g fill="rgb(0%,100%,100%)" fill-opacity="1.0" id="node-142" transform="translate(597.598,465.964)"><circle r="0.0" /></g><g fill="rgb(0%,100%,100%)" fill-opacity="1.0" id="node-143" transform="translate(601.970,437.238)"><circle r="0.0" /></g><g fill="rgb(0%,100%,100%)" fill-opacity="1.0" id="node-144" transform="translate(314.246,466.466)"><circle r="0.0" /></g><g fill="rgb(0%,100%,100%)" fill-opacity="1.0" id="node-145" transform="translate(454.621,539.491)"><circle r="0.0" /></g><g fill="rgb(0%,100%,100%)" fill-opacity="1.0" id="node-146" transform="translate(517.883,498.201)"><circle r="0.0" /></g><g fill="rgb(0%,100%,100%)" fill-opacity="1.0" id="node-147" transform="translate(540.065,452.310)"><circle r="0.0" /></g><g fill="rgb(0%,100%,100%)" fill-opacity="1.0" id="node-148" transform="translate(542.980,433.159)"><circle r="0.0" /></g><g fill="rgb(0%,100%,100%)" fill-opacity="1.0" id="node-149" transform="translate(456.244,475.202)"><circle r="0.0" /></g><g fill="rgb(0%,100%,100%)" fill-opacity="1.0" id="node-150" transform="translate(425.000,425.000)"><circle r="0.0" /></g></g></g></g></g><g class="toyplot-coordinates-Cartesian" id="t158d916613fa4e1b91506647999a7fc7"><clipPath id="tbf671f3575374b428bb22530f1da0c30"><rect x="50.0" y="50.0" width="750.0" height="50.0" /></clipPath><g clip-path="url(#tbf671f3575374b428bb22530f1da0c30)" /><g transform="translate(425.0,42.0)"><text x="-70.609" y="-4.823" style="fill:rgb(16.1%,15.3%,14.1%);fill-opacity:1.0;font-family:helvetica;font-size:14.0px;font-weight:bold;stroke:none;vertical-align:baseline;white-space:pre">Healthy vs. IBS-M, =5</text></g></g><g class="toyplot-coordinates-Table" id="te7b4e755b8be45109625853549e0f52a"><g transform="translate(900.0,275.0)"><text x="-25.284000000000002" y="-10.423" style="fill:rgb(16.1%,15.3%,14.1%);fill-opacity:1.0;font-family:helvetica;font-size:14.0px;font-weight:bold;stroke:none;vertical-align:baseline;white-space:pre">Phylum</text></g><g transform="translate(895.0,285.0)"><g style="fill:rgb(100%,49.8%,0%);fill-opacity:1.0" transform="translate(-5.55, -4.440892098500626e-16)"><circle r="4.0" /></g></g><g transform="translate(905.0,285.0)"><text x="0" y="3.066" style="fill:rgb(16.1%,15.3%,14.1%);fill-opacity:1.0;font-family:helvetica;font-size:12.0px;font-weight:normal;stroke:none;vertical-align:baseline;white-space:pre">Synergistota</text></g><g transform="translate(895.0,305.0)"><g style="fill:rgb(21.6%,49.4%,72.2%);fill-opacity:1.0" transform="translate(-5.55, -4.440892098500626e-16)"><circle r="4.0" /></g></g><g transform="translate(905.0,305.0)"><text x="0" y="3.066" style="fill:rgb(16.1%,15.3%,14.1%);fill-opacity:1.0;font-family:helvetica;font-size:12.0px;font-weight:normal;stroke:none;vertical-align:baseline;white-space:pre">Proteobacteria</text></g><g transform="translate(895.0,325.0)"><g style="fill:rgb(59.6%,30.6%,63.9%);fill-opacity:1.0" transform="translate(-5.55, -4.440892098500626e-16)"><circle r="4.0" /></g></g><g transform="translate(905.0,325.0)"><text x="0" y="3.066" style="fill:rgb(16.1%,15.3%,14.1%);fill-opacity:1.0;font-family:helvetica;font-size:12.0px;font-weight:normal;stroke:none;vertical-align:baseline;white-space:pre">Actinobacteriota</text></g><g transform="translate(895.0,345.0)"><g style="fill:rgb(30.2%,68.6%,29%);fill-opacity:1.0" transform="translate(-5.55, -4.440892098500626e-16)"><circle r="4.0" /></g></g><g transform="translate(905.0,345.0)"><text x="0" y="3.066" style="fill:rgb(16.1%,15.3%,14.1%);fill-opacity:1.0;font-family:helvetica;font-size:12.0px;font-weight:normal;stroke:none;vertical-align:baseline;white-space:pre">Bacteroidota</text></g><g transform="translate(895.0,365.0)"><g style="fill:rgb(89.4%,10.2%,11%);fill-opacity:1.0" transform="translate(-5.55, -4.440892098500626e-16)"><circle r="4.0" /></g></g><g transform="translate(905.0,365.0)"><text x="0" y="3.066" style="fill:rgb(16.1%,15.3%,14.1%);fill-opacity:1.0;font-family:helvetica;font-size:12.0px;font-weight:normal;stroke:none;vertical-align:baseline;white-space:pre">Firmicutes</text></g></g><g class="toyplot-coordinates-Table" id="t667f1fdc401b4aaa8e52e050214d47d1"><g transform="translate(900.0,425.0)"><text x="-59.899" y="-10.423" style="fill:rgb(16.1%,15.3%,14.1%);fill-opacity:1.0;font-family:helvetica;font-size:14.0px;font-weight:bold;stroke:none;vertical-align:baseline;white-space:pre">tascCODA Effects</text></g><g transform="translate(895.0,450.0)"><g style="fill:rgb(0%,0%,0%);fill-opacity:1.0" transform="translate(-5.55, -4.440892098500626e-16)"><circle r="10.0" /></g></g><g transform="translate(905.0,450.0)"><text x="0" y="3.066" style="fill:rgb(16.1%,15.3%,14.1%);fill-opacity:1.0;font-family:helvetica;font-size:12.0px;font-weight:normal;stroke:none;vertical-align:baseline;white-space:pre">1.405</text></g><g transform="translate(895.0,500.0)"><g style="fill:rgb(100%,100%,100%);fill-opacity:1.0" transform="translate(-5.55, -4.440892098500626e-16)"><circle r="10.0" /></g></g><g transform="translate(905.0,500.0)"><text x="0" y="3.066" style="fill:rgb(16.1%,15.3%,14.1%);fill-opacity:1.0;font-family:helvetica;font-size:12.0px;font-weight:normal;stroke:none;vertical-align:baseline;white-space:pre">-1.405</text></g></g></svg>