<svg class="toyplot-canvas-Canvas" xmlns:toyplot="http://www.sandia.gov/toyplot" xmlns:xlink="http://www.w3.org/1999/xlink" xmlns="http://www.w3.org/2000/svg" width="1000.0px" height="1000.0px" viewBox="0 0 1000.0 1000.0" preserveAspectRatio="xMidYMid meet" style="background-color:transparent;border-color:#292724;border-style:none;border-width:1.0;fill:rgb(16.1%,15.3%,14.1%);fill-opacity:1.0;font-family:Helvetica;font-size:12px;opacity:1.0;stroke:rgb(16.1%,15.3%,14.1%);stroke-opacity:1.0;stroke-width:1.0" id="t0877d861f0c44c1fbbe81150ab4600a2"><g class="toyplot-coordinates-Cartesian" id="ta022080308054bbea999417e4f94a556"><clipPath id="t9b9c8e59cd654fa78e0de2e8b09e89bd"><rect x="30.0" y="30.0" width="790.0" height="790.0" /></clipPath><g clip-path="url(#t9b9c8e59cd654fa78e0de2e8b09e89bd)"><g class="toytree-mark-Toytree" id="te5fdda5fdd7d40278e161e6fc24adc79"><g class="toytree-Edges" style="fill:none;stroke:rgb(14.9%,14.9%,14.9%);stroke-linecap:round;stroke-opacity:1;stroke-width:3"><path d="M 456.2 475.2 L 425.0 425.0 A -0.0 -0.0 0 0 0 425.0 425.0" id="150,149" style="stroke:rgb(0%,0%,0%);stroke-opacity:1.0" /><path d="M 542.9 433.2 L 483.9 429.1 A 59.1 59.1 0 0 1 456.2 475.2" id="149,148" style="stroke:rgb(100%,49.8%,0%);stroke-opacity:1.0" /><path d="M 540.0 452.3 L 482.5 438.6 A 59.1 59.1 0 0 1 456.2 475.2" id="149,147" style="stroke:rgb(21.6%,49.4%,72.2%);stroke-opacity:1.0" /><path d="M 517.8 498.1 L 471.4 461.6 A 59.1 59.1 0 0 1 456.2 475.2" id="149,146" style="stroke:rgb(59.6%,30.6%,63.9%);stroke-opacity:1.0" /><path d="M 454.6 539.4 L 439.8 482.2 A 59.1 59.1 0 0 0 456.2 475.2" id="149,145" style="stroke:rgb(30.2%,68.6%,29%);stroke-opacity:1.0" /><path d="M 314.3 466.4 L 369.7 445.7 A 59.1 59.1 0 0 0 456.2 475.2" id="149,144" style="stroke:rgb(89.4%,10.2%,11%);stroke-opacity:1.0" /><path d="M 601.8 437.2 L 542.9 433.2 A 118.2 118.2 0 0 1 542.9 433.2" id="148,143" style="stroke:rgb(100%,49.8%,0%);stroke-opacity:1.0" /><path d="M 597.5 465.9 L 540.0 452.3 A 118.2 118.2 0 0 1 540.0 452.3" id="147,142" style="stroke:rgb(21.6%,49.4%,72.2%);stroke-opacity:1.0" /><path d="M 564.2 534.7 L 517.8 498.1 A 118.2 118.2 0 0 1 517.8 498.1" id="146,141" style="stroke:rgb(59.6%,30.6%,63.9%);stroke-opacity:1.0" /><path d="M 469.4 596.6 L 454.6 539.4 A 118.2 118.2 0 0 1 454.6 539.4" id="145,140" style="stroke:rgb(30.2%,68.6%,29%);stroke-opacity:1.0" /><path d="M 342.6 582.0 L 370.1 529.6 A 118.2 118.2 0 0 1 314.3 466.4" id="144,139" style="stroke:rgb(89.4%,10.2%,11%);stroke-opacity:1.0" /><path d="M 278.3 524.4 L 327.2 491.3 A 118.2 118.2 0 0 1 314.3 466.4" id="144,138" style="stroke:rgb(89.4%,10.2%,11%);stroke-opacity:1.0" /><path d="M 279.5 323.7 L 328.0 357.5 A 118.2 118.2 0 0 0 314.3 466.4" id="144,137" style="stroke:rgb(89.4%,10.2%,11%);stroke-opacity:1.0" /><path d="M 660.8 441.3 L 601.8 437.2 A 177.3 177.3 0 0 1 601.8 437.2" id="143,136" style="stroke:rgb(100%,49.8%,0%);stroke-opacity:1.0" /><path d="M 659.1 457.5 L 600.6 449.4 A 177.3 177.3 0 0 1 597.5 465.9" id="142,135" style="stroke:rgb(21.6%,49.4%,72.2%);stroke-opacity:1.0" /><path d="M 648.8 501.1 L 592.8 482.1 A 177.3 177.3 0 0 0 597.5 465.9" id="142,134" style="stroke:rgb(21.6%,49.4%,72.2%);stroke-opacity:1.0" /><path d="M 610.6 571.3 L 564.2 534.7 A 177.3 177.3 0 0 1 564.2 534.7" id="141,133" style="stroke:rgb(59.6%,30.6%,63.9%);stroke-opacity:1.0" /><path d="M 484.2 653.8 L 469.4 596.6 A 177.3 177.3 0 0 1 469.4 596.6" id="140,132" style="stroke:rgb(30.2%,68.6%,29%);stroke-opacity:1.0" /><path d="M 333.6 643.0 L 356.5 588.5 A 177.3 177.3 0 0 1 342.6 582.0" id="139,131" style="stroke:rgb(89.4%,10.2%,11%);stroke-opacity:1.0" /><path d="M 297.5 624.0 L 329.4 574.3 A 177.3 177.3 0 0 0 342.6 582.0" id="139,130" style="stroke:rgb(89.4%,10.2%,11%);stroke-opacity:1.0" /><path d="M 259.3 593.6 L 300.7 551.4 A 177.3 177.3 0 0 1 278.3 524.4" id="138,129" style="stroke:rgb(89.4%,10.2%,11%);stroke-opacity:1.0" /><path d="M 207.0 516.4 L 261.5 493.5 A 177.3 177.3 0 0 0 278.3 524.4" id="138,128" style="stroke:rgb(89.4%,10.2%,11%);stroke-opacity:1.0" /><path d="M 188.8 433.2 L 247.8 431.1 A 177.3 177.3 0 0 1 279.5 323.7" id="137,127" style="stroke:rgb(89.4%,10.2%,11%);stroke-opacity:1.0" /><path d="M 188.8 416.8 L 247.8 418.9 A 177.3 177.3 0 0 1 279.5 323.7" id="137,126" style="stroke:rgb(89.4%,10.2%,11%);stroke-opacity:1.0" /><path d="M 189.9 400.6 L 248.7 406.7 A 177.3 177.3 0 0 1 279.5 323.7" id="137,125" style="stroke:rgb(89.4%,10.2%,11%);stroke-opacity:1.0" /><path d="M 193.7 376.4 L 251.5 388.5 A 177.3 177.3 0 0 1 279.5 323.7" id="137,124" style="stroke:rgb(89.4%,10.2%,11%);stroke-opacity:1.0" /><path d="M 205.5 337.4 L 260.4 359.3 A 177.3 177.3 0 0 1 279.5 323.7" id="137,123" style="stroke:rgb(89.4%,10.2%,11%);stroke-opacity:1.0" /><path d="M 341.2 204.0 L 362.1 259.3 A 177.3 177.3 0 0 0 279.5 323.7" id="137,122" style="stroke:rgb(89.4%,10.2%,11%);stroke-opacity:1.0" /><path d="M 592.6 258.4 L 550.7 300.0 A 177.3 177.3 0 0 0 279.5 323.7" id="137,121" style="stroke:rgb(89.4%,10.2%,11%);stroke-opacity:1.0" /><path d="M 719.7 445.4 L 660.8 441.3 A 236.4 236.4 0 0 1 660.8 441.3" id="136,120" style="stroke:rgb(100%,49.8%,0%);stroke-opacity:1.0" /><path d="M 717.6 465.7 L 659.1 457.5 A 236.4 236.4 0 0 1 659.1 457.5" id="135,119" style="stroke:rgb(21.6%,49.4%,72.2%);stroke-opacity:1.0" /><path d="M 711.9 495.7 L 654.5 481.6 A 236.4 236.4 0 0 1 648.8 501.1" id="134,118" style="stroke:rgb(21.6%,49.4%,72.2%);stroke-opacity:1.0" /><path d="M 695.4 543.9 L 641.4 520.1 A 236.4 236.4 0 0 0 648.8 501.1" id="134,117" style="stroke:rgb(21.6%,49.4%,72.2%);stroke-opacity:1.0" /><path d="M 676.5 580.0 L 626.2 549.0 A 236.4 236.4 0 0 1 610.6 571.3" id="133,116" style="stroke:rgb(59.6%,30.6%,63.9%);stroke-opacity:1.0" /><path d="M 665.2 597.0 L 617.2 562.6 A 236.4 236.4 0 0 1 610.6 571.3" id="133,115" style="stroke:rgb(59.6%,30.6%,63.9%);stroke-opacity:1.0" /><path d="M 624.7 642.7 L 584.8 599.2 A 236.4 236.4 0 0 0 610.6 571.3" id="133,114" style="stroke:rgb(59.6%,30.6%,63.9%);stroke-opacity:1.0" /><path d="M 575.7 679.1 L 545.5 628.3 A 236.4 236.4 0 0 1 484.2 653.8" id="132,113" style="stroke:rgb(30.2%,68.6%,29%);stroke-opacity:1.0" /><path d="M 557.8 688.9 L 531.2 636.1 A 236.4 236.4 0 0 1 484.2 653.8" id="132,112" style="stroke:rgb(30.2%,68.6%,29%);stroke-opacity:1.0" /><path d="M 529.8 701.2 L 508.8 646.0 A 236.4 236.4 0 0 1 484.2 653.8" id="132,111" style="stroke:rgb(30.2%,68.6%,29%);stroke-opacity:1.0" /><path d="M 490.7 713.0 L 477.6 655.4 A 236.4 236.4 0 0 0 484.2 653.8" id="132,110" style="stroke:rgb(30.2%,68.6%,29%);stroke-opacity:1.0" /><path d="M 450.5 719.3 L 445.4 660.5 A 236.4 236.4 0 0 0 484.2 653.8" id="132,109" style="stroke:rgb(30.2%,68.6%,29%);stroke-opacity:1.0" /><path d="M 379.3 716.9 L 388.4 658.5 A 236.4 236.4 0 0 0 484.2 653.8" id="132,108" style="stroke:rgb(30.2%,68.6%,29%);stroke-opacity:1.0" /><path d="M 310.8 697.5 L 333.6 643.0 A 236.4 236.4 0 0 0 333.6 643.0" id="131,107" style="stroke:rgb(89.4%,10.2%,11%);stroke-opacity:1.0" /><path d="M 265.7 673.8 L 297.5 624.0 A 236.4 236.4 0 0 0 297.5 624.0" id="130,106" style="stroke:rgb(89.4%,10.2%,11%);stroke-opacity:1.0" /><path d="M 232.9 649.5 L 271.3 604.6 A 236.4 236.4 0 0 1 259.3 593.6" id="129,105" style="stroke:rgb(89.4%,10.2%,11%);stroke-opacity:1.0" /><path d="M 217.9 635.7 L 259.3 593.6 A 236.4 236.4 0 0 0 259.3 593.6" id="129,104" style="stroke:rgb(89.4%,10.2%,11%);stroke-opacity:1.0" /><path d="M 203.9 620.9 L 248.1 581.7 A 236.4 236.4 0 0 0 259.3 593.6" id="129,103" style="stroke:rgb(89.4%,10.2%,11%);stroke-opacity:1.0" /><path d="M 173.5 580.0 L 223.8 549.0 A 236.4 236.4 0 0 1 207.0 516.4" id="128,102" style="stroke:rgb(89.4%,10.2%,11%);stroke-opacity:1.0" /><path d="M 138.1 495.7 L 195.5 481.6 A 236.4 236.4 0 0 0 207.0 516.4" id="128,101" style="stroke:rgb(89.4%,10.2%,11%);stroke-opacity:1.0" /><path d="M 129.7 435.2 L 188.8 433.2 A 236.4 236.4 0 0 0 188.8 433.2" id="127,100" style="stroke:rgb(89.4%,10.2%,11%);stroke-opacity:1.0" /><path d="M 129.7 414.8 L 188.8 416.8 A 236.4 236.4 0 0 1 188.8 416.8" id="126,99" style="stroke:rgb(89.4%,10.2%,11%);stroke-opacity:1.0" /><path d="M 131.1 394.5 L 189.9 400.6 A 236.4 236.4 0 0 1 189.9 400.6" id="125,98" style="stroke:rgb(89.4%,10.2%,11%);stroke-opacity:1.0" /><path d="M 135.9 364.2 L 193.7 376.4 A 236.4 236.4 0 0 1 193.7 376.4" id="124,97" style="stroke:rgb(89.4%,10.2%,11%);stroke-opacity:1.0" /><path d="M 143.7 334.7 L 200.0 352.7 A 236.4 236.4 0 0 1 205.5 337.4" id="123,96" style="stroke:rgb(89.4%,10.2%,11%);stroke-opacity:1.0" /><path d="M 158.8 296.8 L 212.1 322.5 A 236.4 236.4 0 0 0 205.5 337.4" id="123,95" style="stroke:rgb(89.4%,10.2%,11%);stroke-opacity:1.0" /><path d="M 320.2 148.8 L 341.2 204.0 A 236.4 236.4 0 0 1 341.2 204.0" id="122,94" style="stroke:rgb(89.4%,10.2%,11%);stroke-opacity:1.0" /><path d="M 529.8 148.8 L 508.8 204.0 A 236.4 236.4 0 0 1 592.6 258.4" id="121,93" style="stroke:rgb(89.4%,10.2%,11%);stroke-opacity:1.0" /><path d="M 617.1 200.5 L 578.7 245.4 A 236.4 236.4 0 0 1 592.6 258.4" id="121,92" style="stroke:rgb(89.4%,10.2%,11%);stroke-opacity:1.0" /><path d="M 709.2 344.4 L 652.4 360.6 A 236.4 236.4 0 0 0 592.6 258.4" id="121,91" style="stroke:rgb(89.4%,10.2%,11%);stroke-opacity:1.0" /><path d="M 778.7 449.5 L 719.7 445.4 A 295.4 295.4 0 0 1 719.7 445.4" id="120,90" style="stroke:rgb(100%,49.8%,0%);stroke-opacity:1.0" /><path d="M 776.2 473.8 L 717.6 465.7 A 295.4 295.4 0 0 1 717.6 465.7" id="119,89" style="stroke:rgb(21.6%,49.4%,72.2%);stroke-opacity:1.0" /><path d="M 772.0 497.9 L 714.1 485.8 A 295.4 295.4 0 0 1 711.9 495.7" id="118,88" style="stroke:rgb(21.6%,49.4%,72.2%);stroke-opacity:1.0" /><path d="M 766.1 521.7 L 709.2 505.6 A 295.4 295.4 0 0 0 711.9 495.7" id="118,87" style="stroke:rgb(21.6%,49.4%,72.2%);stroke-opacity:1.0" /><path d="M 758.6 545.0 L 703.0 525.0 A 295.4 295.4 0 0 1 695.4 543.9" id="117,86" style="stroke:rgb(21.6%,49.4%,72.2%);stroke-opacity:1.0" /><path d="M 749.5 567.7 L 695.5 543.9 A 295.4 295.4 0 0 1 695.4 543.9" id="117,85" style="stroke:rgb(21.6%,49.4%,72.2%);stroke-opacity:1.0" /><path d="M 738.9 589.8 L 686.6 562.3 A 295.4 295.4 0 0 0 695.4 543.9" id="117,84" style="stroke:rgb(21.6%,49.4%,72.2%);stroke-opacity:1.0" /><path d="M 726.8 611.0 L 676.5 580.0 A 295.4 295.4 0 0 1 676.5 580.0" id="116,83" style="stroke:rgb(59.6%,30.6%,63.9%);stroke-opacity:1.0" /><path d="M 713.3 631.4 L 665.2 597.0 A 295.4 295.4 0 0 1 665.2 597.0" id="115,82" style="stroke:rgb(59.6%,30.6%,63.9%);stroke-opacity:1.0" /><path d="M 698.3 650.8 L 652.8 613.2 A 295.4 295.4 0 0 1 624.7 642.7" id="114,81" style="stroke:rgb(59.6%,30.6%,63.9%);stroke-opacity:1.0" /><path d="M 682.1 669.1 L 639.2 628.4 A 295.4 295.4 0 0 1 624.7 642.7" id="114,80" style="stroke:rgb(59.6%,30.6%,63.9%);stroke-opacity:1.0" /><path d="M 664.6 686.3 L 624.7 642.7 A 295.4 295.4 0 0 1 624.7 642.7" id="114,79" style="stroke:rgb(59.6%,30.6%,63.9%);stroke-opacity:1.0" /><path d="M 646.0 702.2 L 609.2 656.0 A 295.4 295.4 0 0 0 624.7 642.7" id="114,78" style="stroke:rgb(59.6%,30.6%,63.9%);stroke-opacity:1.0" /><path d="M 626.4 716.8 L 592.8 668.1 A 295.4 295.4 0 0 0 624.7 642.7" id="114,77" style="stroke:rgb(59.6%,30.6%,63.9%);stroke-opacity:1.0" /><path d="M 605.8 730.0 L 575.7 679.1 A 295.4 295.4 0 0 1 575.7 679.1" id="113,76" style="stroke:rgb(30.2%,68.6%,29%);stroke-opacity:1.0" /><path d="M 584.3 741.7 L 557.8 688.9 A 295.4 295.4 0 0 1 557.8 688.9" id="112,75" style="stroke:rgb(30.2%,68.6%,29%);stroke-opacity:1.0" /><path d="M 562.1 752.0 L 539.2 697.5 A 295.4 295.4 0 0 1 529.8 701.2" id="111,74" style="stroke:rgb(30.2%,68.6%,29%);stroke-opacity:1.0" /><path d="M 539.2 760.6 L 520.2 704.7 A 295.4 295.4 0 0 0 529.8 701.2" id="111,73" style="stroke:rgb(30.2%,68.6%,29%);stroke-opacity:1.0" /><path d="M 515.8 767.7 L 500.6 710.6 A 295.4 295.4 0 0 1 490.7 713.0" id="110,72" style="stroke:rgb(30.2%,68.6%,29%);stroke-opacity:1.0" /><path d="M 491.9 773.2 L 480.8 715.1 A 295.4 295.4 0 0 0 490.7 713.0" id="110,71" style="stroke:rgb(30.2%,68.6%,29%);stroke-opacity:1.0" /><path d="M 467.7 776.9 L 460.6 718.3 A 295.4 295.4 0 0 1 450.5 719.3" id="109,70" style="stroke:rgb(30.2%,68.6%,29%);stroke-opacity:1.0" /><path d="M 443.4 779.1 L 440.3 720.0 A 295.4 295.4 0 0 0 450.5 719.3" id="109,69" style="stroke:rgb(30.2%,68.6%,29%);stroke-opacity:1.0" /><path d="M 418.9 779.5 L 419.9 720.4 A 295.4 295.4 0 0 1 379.3 716.9" id="108,68" style="stroke:rgb(30.2%,68.6%,29%);stroke-opacity:1.0" /><path d="M 394.4 778.2 L 399.5 719.3 A 295.4 295.4 0 0 1 379.3 716.9" id="108,67" style="stroke:rgb(30.2%,68.6%,29%);stroke-opacity:1.0" /><path d="M 370.1 775.3 L 379.3 716.9 A 295.4 295.4 0 0 0 379.3 716.9" id="108,66" style="stroke:rgb(30.2%,68.6%,29%);stroke-opacity:1.0" /><path d="M 346.1 770.6 L 359.3 713.0 A 295.4 295.4 0 0 0 379.3 716.9" id="108,65" style="stroke:rgb(30.2%,68.6%,29%);stroke-opacity:1.0" /><path d="M 322.5 764.4 L 339.5 707.8 A 295.4 295.4 0 0 0 379.3 716.9" id="108,64" style="stroke:rgb(30.2%,68.6%,29%);stroke-opacity:1.0" /><path d="M 299.3 756.5 L 320.2 701.2 A 295.4 295.4 0 0 1 310.8 697.5" id="107,63" style="stroke:rgb(89.4%,10.2%,11%);stroke-opacity:1.0" /><path d="M 276.7 747.0 L 301.4 693.4 A 295.4 295.4 0 0 0 310.8 697.5" id="107,62" style="stroke:rgb(89.4%,10.2%,11%);stroke-opacity:1.0" /><path d="M 254.8 736.0 L 283.2 684.2 A 295.4 295.4 0 0 1 265.7 673.8" id="106,61" style="stroke:rgb(89.4%,10.2%,11%);stroke-opacity:1.0" /><path d="M 233.8 723.5 L 265.7 673.8 A 295.4 295.4 0 0 0 265.7 673.8" id="106,60" style="stroke:rgb(89.4%,10.2%,11%);stroke-opacity:1.0" /><path d="M 213.7 709.6 L 248.9 662.2 A 295.4 295.4 0 0 0 265.7 673.8" id="106,59" style="stroke:rgb(89.4%,10.2%,11%);stroke-opacity:1.0" /><path d="M 194.5 694.4 L 232.9 649.5 A 295.4 295.4 0 0 0 232.9 649.5" id="105,58" style="stroke:rgb(89.4%,10.2%,11%);stroke-opacity:1.0" /><path d="M 176.5 677.8 L 217.9 635.7 A 295.4 295.4 0 0 0 217.9 635.7" id="104,57" style="stroke:rgb(89.4%,10.2%,11%);stroke-opacity:1.0" /><path d="M 159.6 660.1 L 203.9 620.9 A 295.4 295.4 0 0 0 203.9 620.9" id="103,56" style="stroke:rgb(89.4%,10.2%,11%);stroke-opacity:1.0" /><path d="M 144.0 641.2 L 190.9 605.2 A 295.4 295.4 0 0 1 173.5 580.0" id="102,55" style="stroke:rgb(89.4%,10.2%,11%);stroke-opacity:1.0" /><path d="M 129.8 621.3 L 179.0 588.6 A 295.4 295.4 0 0 1 173.5 580.0" id="102,54" style="stroke:rgb(89.4%,10.2%,11%);stroke-opacity:1.0" /><path d="M 117.0 600.5 L 168.3 571.2 A 295.4 295.4 0 0 0 173.5 580.0" id="102,53" style="stroke:rgb(89.4%,10.2%,11%);stroke-opacity:1.0" /><path d="M 105.6 578.8 L 158.8 553.2 A 295.4 295.4 0 0 0 173.5 580.0" id="102,52" style="stroke:rgb(89.4%,10.2%,11%);stroke-opacity:1.0" /><path d="M 95.7 556.4 L 150.6 534.5 A 295.4 295.4 0 0 1 138.1 495.7" id="101,51" style="stroke:rgb(89.4%,10.2%,11%);stroke-opacity:1.0" /><path d="M 87.4 533.4 L 143.7 515.3 A 295.4 295.4 0 0 1 138.1 495.7" id="101,50" style="stroke:rgb(89.4%,10.2%,11%);stroke-opacity:1.0" /><path d="M 80.8 509.8 L 138.1 495.7 A 295.4 295.4 0 0 0 138.1 495.7" id="101,49" style="stroke:rgb(89.4%,10.2%,11%);stroke-opacity:1.0" /><path d="M 75.7 485.9 L 133.9 475.7 A 295.4 295.4 0 0 0 138.1 495.7" id="101,48" style="stroke:rgb(89.4%,10.2%,11%);stroke-opacity:1.0" /><path d="M 72.4 461.7 L 131.1 455.5 A 295.4 295.4 0 0 0 138.1 495.7" id="101,47" style="stroke:rgb(89.4%,10.2%,11%);stroke-opacity:1.0" /><path d="M 70.7 437.2 L 129.7 435.2 A 295.4 295.4 0 0 0 129.7 435.2" id="100,46" style="stroke:rgb(89.4%,10.2%,11%);stroke-opacity:1.0" /><path d="M 70.7 412.8 L 129.7 414.8 A 295.4 295.4 0 0 1 129.7 414.8" id="99,45" style="stroke:rgb(89.4%,10.2%,11%);stroke-opacity:1.0" /><path d="M 72.4 388.3 L 131.1 394.5 A 295.4 295.4 0 0 1 131.1 394.5" id="98,44" style="stroke:rgb(89.4%,10.2%,11%);stroke-opacity:1.0" /><path d="M 75.7 364.1 L 133.9 374.3 A 295.4 295.4 0 0 1 135.9 364.2" id="97,43" style="stroke:rgb(89.4%,10.2%,11%);stroke-opacity:1.0" /><path d="M 80.8 340.2 L 138.1 354.3 A 295.4 295.4 0 0 0 135.9 364.2" id="97,42" style="stroke:rgb(89.4%,10.2%,11%);stroke-opacity:1.0" /><path d="M 87.4 316.6 L 143.7 334.7 A 295.4 295.4 0 0 1 143.7 334.7" id="96,41" style="stroke:rgb(89.4%,10.2%,11%);stroke-opacity:1.0" /><path d="M 95.7 293.6 L 150.6 315.5 A 295.4 295.4 0 0 1 158.8 296.8" id="95,40" style="stroke:rgb(89.4%,10.2%,11%);stroke-opacity:1.0" /><path d="M 105.6 271.2 L 158.8 296.8 A 295.4 295.4 0 0 1 158.8 296.8" id="95,39" style="stroke:rgb(89.4%,10.2%,11%);stroke-opacity:1.0" /><path d="M 117.0 249.5 L 168.3 278.8 A 295.4 295.4 0 0 0 158.8 296.8" id="95,38" style="stroke:rgb(89.4%,10.2%,11%);stroke-opacity:1.0" /><path d="M 129.8 228.7 L 179.0 261.4 A 295.4 295.4 0 0 1 320.2 148.8" id="94,37" style="stroke:rgb(89.4%,10.2%,11%);stroke-opacity:1.0" /><path d="M 144.0 208.8 L 190.9 244.8 A 295.4 295.4 0 0 1 320.2 148.8" id="94,36" style="stroke:rgb(89.4%,10.2%,11%);stroke-opacity:1.0" /><path d="M 159.6 189.9 L 203.9 229.1 A 295.4 295.4 0 0 1 320.2 148.8" id="94,35" style="stroke:rgb(89.4%,10.2%,11%);stroke-opacity:1.0" /><path d="M 176.5 172.2 L 217.9 214.3 A 295.4 295.4 0 0 1 320.2 148.8" id="94,34" style="stroke:rgb(89.4%,10.2%,11%);stroke-opacity:1.0" /><path d="M 194.5 155.6 L 232.9 200.5 A 295.4 295.4 0 0 1 320.2 148.8" id="94,33" style="stroke:rgb(89.4%,10.2%,11%);stroke-opacity:1.0" /><path d="M 213.7 140.4 L 248.9 187.8 A 295.4 295.4 0 0 1 320.2 148.8" id="94,32" style="stroke:rgb(89.4%,10.2%,11%);stroke-opacity:1.0" /><path d="M 233.8 126.5 L 265.7 176.2 A 295.4 295.4 0 0 1 320.2 148.8" id="94,31" style="stroke:rgb(89.4%,10.2%,11%);stroke-opacity:1.0" /><path d="M 254.8 114.0 L 283.2 165.8 A 295.4 295.4 0 0 1 320.2 148.8" id="94,30" style="stroke:rgb(89.4%,10.2%,11%);stroke-opacity:1.0" /><path d="M 276.7 103.0 L 301.4 156.6 A 295.4 295.4 0 0 1 320.2 148.8" id="94,29" style="stroke:rgb(89.4%,10.2%,11%);stroke-opacity:1.0" /><path d="M 299.3 93.5 L 320.2 148.8 A 295.4 295.4 0 0 1 320.2 148.8" id="94,28" style="stroke:rgb(89.4%,10.2%,11%);stroke-opacity:1.0" /><path d="M 322.5 85.6 L 339.5 142.2 A 295.4 295.4 0 0 0 320.2 148.8" id="94,27" style="stroke:rgb(89.4%,10.2%,11%);stroke-opacity:1.0" /><path d="M 346.1 79.4 L 359.3 137.0 A 295.4 295.4 0 0 0 320.2 148.8" id="94,26" style="stroke:rgb(89.4%,10.2%,11%);stroke-opacity:1.0" /><path d="M 370.1 74.7 L 379.3 133.1 A 295.4 295.4 0 0 0 320.2 148.8" id="94,25" style="stroke:rgb(89.4%,10.2%,11%);stroke-opacity:1.0" /><path d="M 394.4 71.8 L 399.5 130.7 A 295.4 295.4 0 0 0 320.2 148.8" id="94,24" style="stroke:rgb(89.4%,10.2%,11%);stroke-opacity:1.0" /><path d="M 418.9 70.5 L 419.9 129.6 A 295.4 295.4 0 0 0 320.2 148.8" id="94,23" style="stroke:rgb(89.4%,10.2%,11%);stroke-opacity:1.0" /><path d="M 443.4 70.9 L 440.3 130.0 A 295.4 295.4 0 0 0 320.2 148.8" id="94,22" style="stroke:rgb(89.4%,10.2%,11%);stroke-opacity:1.0" /><path d="M 467.7 73.1 L 460.6 131.7 A 295.4 295.4 0 0 0 320.2 148.8" id="94,21" style="stroke:rgb(89.4%,10.2%,11%);stroke-opacity:1.0" /><path d="M 491.9 76.8 L 480.8 134.9 A 295.4 295.4 0 0 0 320.2 148.8" id="94,20" style="stroke:rgb(89.4%,10.2%,11%);stroke-opacity:1.0" /><path d="M 515.8 82.3 L 500.6 139.4 A 295.4 295.4 0 0 0 320.2 148.8" id="94,19" style="stroke:rgb(89.4%,10.2%,11%);stroke-opacity:1.0" /><path d="M 539.2 89.4 L 520.2 145.3 A 295.4 295.4 0 0 1 529.8 148.8" id="93,18" style="stroke:rgb(89.4%,10.2%,11%);stroke-opacity:1.0" /><path d="M 562.1 98.0 L 539.2 152.5 A 295.4 295.4 0 0 0 529.8 148.8" id="93,17" style="stroke:rgb(89.4%,10.2%,11%);stroke-opacity:1.0" /><path d="M 584.3 108.3 L 557.8 161.1 A 295.4 295.4 0 0 1 617.1 200.5" id="92,16" style="stroke:rgb(89.4%,10.2%,11%);stroke-opacity:1.0" /><path d="M 605.8 120.0 L 575.7 170.9 A 295.4 295.4 0 0 1 617.1 200.5" id="92,15" style="stroke:rgb(89.4%,10.2%,11%);stroke-opacity:1.0" /><path d="M 626.4 133.2 L 592.8 181.9 A 295.4 295.4 0 0 1 617.1 200.5" id="92,14" style="stroke:rgb(89.4%,10.2%,11%);stroke-opacity:1.0" /><path d="M 646.0 147.8 L 609.2 194.0 A 295.4 295.4 0 0 1 617.1 200.5" id="92,13" style="stroke:rgb(89.4%,10.2%,11%);stroke-opacity:1.0" /><path d="M 664.6 163.7 L 624.7 207.3 A 295.4 295.4 0 0 0 617.1 200.5" id="92,12" style="stroke:rgb(89.4%,10.2%,11%);stroke-opacity:1.0" /><path d="M 682.1 180.9 L 639.2 221.6 A 295.4 295.4 0 0 0 617.1 200.5" id="92,11" style="stroke:rgb(89.4%,10.2%,11%);stroke-opacity:1.0" /><path d="M 698.3 199.2 L 652.8 236.8 A 295.4 295.4 0 0 0 617.1 200.5" id="92,10" style="stroke:rgb(89.4%,10.2%,11%);stroke-opacity:1.0" /><path d="M 713.3 218.6 L 665.2 253.0 A 295.4 295.4 0 0 0 617.1 200.5" id="92,9" style="stroke:rgb(89.4%,10.2%,11%);stroke-opacity:1.0" /><path d="M 726.8 239.0 L 676.5 270.0 A 295.4 295.4 0 0 1 709.2 344.4" id="91,8" style="stroke:rgb(89.4%,10.2%,11%);stroke-opacity:1.0" /><path d="M 738.9 260.2 L 686.6 287.7 A 295.4 295.4 0 0 1 709.2 344.4" id="91,7" style="stroke:rgb(89.4%,10.2%,11%);stroke-opacity:1.0" /><path d="M 749.5 282.3 L 695.5 306.1 A 295.4 295.4 0 0 1 709.2 344.4" id="91,6" style="stroke:rgb(89.4%,10.2%,11%);stroke-opacity:1.0" /><path d="M 758.6 305.0 L 703.0 325.0 A 295.4 295.4 0 0 1 709.2 344.4" id="91,5" style="stroke:rgb(89.4%,10.2%,11%);stroke-opacity:1.0" /><path d="M 766.1 328.3 L 709.2 344.4 A 295.4 295.4 0 0 0 709.2 344.4" id="91,4" style="stroke:rgb(89.4%,10.2%,11%);stroke-opacity:1.0" /><path d="M 772.0 352.1 L 714.1 364.2 A 295.4 295.4 0 0 0 709.2 344.4" id="91,3" style="stroke:rgb(89.4%,10.2%,11%);stroke-opacity:1.0" /><path d="M 776.2 376.2 L 717.6 384.3 A 295.4 295.4 0 0 0 709.2 344.4" id="91,2" style="stroke:rgb(89.4%,10.2%,11%);stroke-opacity:1.0" /><path d="M 778.7 400.5 L 719.7 404.6 A 295.4 295.4 0 0 0 709.2 344.4" id="91,1" style="stroke:rgb(89.4%,10.2%,11%);stroke-opacity:1.0" /><path d="M 779.5 425.0 L 720.4 425.0 A 295.4 295.4 0 0 0 709.2 344.4" id="91,0" style="stroke:rgb(89.4%,10.2%,11%);stroke-opacity:1.0" /></g><g class="toytree-AlignEdges" style="stroke:rgb(66.3%,66.3%,66.3%);stroke-dasharray:2, 4;stroke-linecap:round;stroke-opacity:1.0;stroke-width:2"><path d="M 779.5 425.0 L 779.5 425.0" /><path d="M 778.7 400.5 L 778.7 400.5" /><path d="M 776.2 376.2 L 776.2 376.2" /><path d="M 772.0 352.1 L 772.0 352.1" /><path d="M 766.1 328.3 L 766.1 328.3" /><path d="M 758.6 305.0 L 758.6 305.0" /><path d="M 749.5 282.3 L 749.5 282.3" /><path d="M 738.9 260.2 L 738.9 260.2" /><path d="M 726.8 239.0 L 726.8 239.0" /><path d="M 713.3 218.6 L 713.3 218.6" /><path d="M 698.3 199.2 L 698.3 199.2" /><path d="M 682.1 180.9 L 682.1 180.9" /><path d="M 664.6 163.7 L 664.6 163.7" /><path d="M 646.0 147.8 L 646.0 147.8" /><path d="M 626.4 133.2 L 626.4 133.2" /><path d="M 605.8 120.0 L 605.8 120.0" /><path d="M 584.3 108.3 L 584.3 108.3" /><path d="M 562.1 98.0 L 562.1 98.0" /><path d="M 539.2 89.4 L 539.2 89.4" /><path d="M 515.8 82.3 L 515.8 82.3" /><path d="M 491.9 76.8 L 491.9 76.8" /><path d="M 467.7 73.1 L 467.7 73.1" /><path d="M 443.4 70.9 L 443.4 70.9" /><path d="M 418.9 70.5 L 418.9 70.5" /><path d="M 394.4 71.8 L 394.4 71.8" /><path d="M 370.1 74.7 L 370.1 74.7" /><path d="M 346.1 79.4 L 346.1 79.4" /><path d="M 322.5 85.6 L 322.5 85.6" /><path d="M 299.3 93.5 L 299.3 93.5" /><path d="M 276.7 103.0 L 276.7 103.0" /><path d="M 254.8 114.0 L 254.8 114.0" /><path d="M 233.8 126.5 L 233.8 126.5" /><path d="M 213.7 140.4 L 213.7 140.4" /><path d="M 194.5 155.6 L 194.5 155.6" /><path d="M 176.5 172.2 L 176.5 172.2" /><path d="M 159.6 189.9 L 159.6 189.9" /><path d="M 144.0 208.8 L 144.0 208.8" /><path d="M 129.8 228.7 L 129.8 228.7" /><path d="M 117.0 249.5 L 117.0 249.5" /><path d="M 105.6 271.2 L 105.6 271.2" /><path d="M 95.7 293.6 L 95.7 293.6" /><path d="M 87.4 316.6 L 87.4 316.6" /><path d="M 80.8 340.2 L 80.8 340.2" /><path d="M 75.7 364.1 L 75.7 364.1" /><path d="M 72.4 388.3 L 72.4 388.3" /><path d="M 70.7 412.8 L 70.7 412.8" /><path d="M 70.7 437.2 L 70.7 437.2" /><path d="M 72.4 461.7 L 72.4 461.7" /><path d="M 75.7 485.9 L 75.7 485.9" /><path d="M 80.8 509.8 L 80.8 509.8" /><path d="M 87.4 533.4 L 87.4 533.4" /><path d="M 95.7 556.4 L 95.7 556.4" /><path d="M 105.6 578.8 L 105.6 578.8" /><path d="M 117.0 600.5 L 117.0 600.5" /><path d="M 129.8 621.3 L 129.8 621.3" /><path d="M 144.0 641.2 L 144.0 641.2" /><path d="M 159.6 660.1 L 159.6 660.1" /><path d="M 176.5 677.8 L 176.5 677.8" /><path d="M 194.5 694.4 L 194.5 694.4" /><path d="M 213.7 709.6 L 213.7 709.6" /><path d="M 233.8 723.5 L 233.8 723.5" /><path d="M 254.8 736.0 L 254.8 736.0" /><path d="M 276.7 747.0 L 276.7 747.0" /><path d="M 299.3 756.5 L 299.3 756.5" /><path d="M 322.5 764.4 L 322.5 764.4" /><path d="M 346.1 770.6 L 346.1 770.6" /><path d="M 370.1 775.3 L 370.1 775.3" /><path d="M 394.4 778.2 L 394.4 778.2" /><path d="M 418.9 779.5 L 418.9 779.5" /><path d="M 443.4 779.1 L 443.4 779.1" /><path d="M 467.7 776.9 L 467.7 776.9" /><path d="M 491.9 773.2 L 491.9 773.2" /><path d="M 515.8 767.7 L 515.8 767.7" /><path d="M 539.2 760.6 L 539.2 760.6" /><path d="M 562.1 752.0 L 562.1 752.0" /><path d="M 584.3 741.7 L 584.3 741.7" /><path d="M 605.8 730.0 L 605.8 730.0" /><path d="M 626.4 716.8 L 626.4 716.8" /><path d="M 646.0 702.2 L 646.0 702.2" /><path d="M 664.6 686.3 L 664.6 686.3" /><path d="M 682.1 669.1 L 682.1 669.1" /><path d="M 698.3 650.8 L 698.3 650.8" /><path d="M 713.3 631.4 L 713.3 631.4" /><path d="M 726.8 611.0 L 726.8 611.0" /><path d="M 738.9 589.8 L 738.9 589.8" /><path d="M 749.5 567.7 L 749.5 567.7" /><path d="M 758.6 545.0 L 758.6 545.0" /><path d="M 766.1 521.7 L 766.1 521.7" /><path d="M 772.0 497.9 L 772.0 497.9" /><path d="M 776.2 473.8 L 776.2 473.8" /><path d="M 778.7 449.5 L 778.7 449.5" /></g><g class="toytree-Nodes" style="fill:rgb(40%,76.1%,64.7%);fill-opacity:1.0;stroke:rgb(0%,0%,0%);stroke-opacity:1.0;stroke-width:1"><g fill="rgb(100%,100%,100%)" fill-opacity="1.0" id="node-0" transform="translate(779.530,425.000)"><circle r="7.277580071174377" /></g><g fill="rgb(0%,100%,100%)" fill-opacity="1.0" id="node-1" transform="translate(778.685,400.541)"><circle r="0.0" /></g><g fill="rgb(100%,100%,100%)" fill-opacity="1.0" id="node-2" transform="translate(776.155,376.198)"><circle r="6.864768683274021" /></g><g fill="rgb(0%,100%,100%)" fill-opacity="1.0" id="node-3" transform="translate(771.951,352.088)"><circle r="0.0" /></g><g fill="rgb(0%,100%,100%)" fill-opacity="1.0" id="node-4" transform="translate(766.094,328.325)"><circle r="0.0" /></g><g fill="rgb(0%,100%,100%)" fill-opacity="1.0" id="node-5" transform="translate(758.612,305.023)"><circle r="0.0" /></g><g fill="rgb(0%,100%,100%)" fill-opacity="1.0" id="node-6" transform="translate(749.540,282.293)"><circle r="0.0" /></g><g fill="rgb(0%,100%,100%)" fill-opacity="1.0" id="node-7" transform="translate(738.921,260.243)"><circle r="0.0" /></g><g fill="rgb(0%,100%,100%)" fill-opacity="1.0" id="node-8" transform="translate(726.806,238.978)"><circle r="0.0" /></g><g fill="rgb(0%,100%,100%)" fill-opacity="1.0" id="node-9" transform="translate(713.253,218.600)"><circle r="0.0" /></g><g fill="rgb(0%,100%,100%)" fill-opacity="1.0" id="node-10" transform="translate(698.326,199.205)"><circle r="0.0" /></g><g fill="rgb(0%,100%,100%)" fill-opacity="1.0" id="node-11" transform="translate(682.097,180.886)"><circle r="0.0" /></g><g fill="rgb(0%,100%,100%)" fill-opacity="1.0" id="node-12" transform="translate(664.642,163.730)"><circle r="0.0" /></g><g fill="rgb(0%,100%,100%)" fill-opacity="1.0" id="node-13" transform="translate(646.046,147.820)"><circle r="0.0" /></g><g fill="rgb(0%,100%,100%)" fill-opacity="1.0" id="node-14" transform="translate(626.396,133.230)"><circle r="0.0" /></g><g fill="rgb(0%,100%,100%)" fill-opacity="1.0" id="node-15" transform="translate(605.786,120.031)"><circle r="0.0" /></g><g fill="rgb(0%,100%,100%)" fill-opacity="1.0" id="node-16" transform="translate(584.315,108.285)"><circle r="0.0" /></g><g fill="rgb(0%,100%,100%)" fill-opacity="1.0" id="node-17" transform="translate(562.085,98.048)"><circle r="0.0" /></g><g fill="rgb(0%,100%,100%)" fill-opacity="1.0" id="node-18" transform="translate(539.201,89.370)"><circle r="0.0" /></g><g fill="rgb(0%,100%,100%)" fill-opacity="1.0" id="node-19" transform="translate(515.774,82.291)"><circle r="0.0" /></g><g fill="rgb(0%,100%,100%)" fill-opacity="1.0" id="node-20" transform="translate(491.913,76.845)"><circle r="0.0" /></g><g fill="rgb(100%,100%,100%)" fill-opacity="1.0" id="node-21" transform="translate(467.734,73.058)"><circle r="10.82918149466192" /></g><g fill="rgb(0%,100%,100%)" fill-opacity="1.0" id="node-22" transform="translate(443.351,70.948)"><circle r="0.0" /></g><g fill="rgb(0%,0%,0%)" fill-opacity="1.0" id="node-23" transform="translate(418.881,70.526)"><circle r="8.117437722419929" /></g><g fill="rgb(0%,100%,100%)" fill-opacity="1.0" id="node-24" transform="translate(394.439,71.793)"><circle r="0.0" /></g><g fill="rgb(0%,100%,100%)" fill-opacity="1.0" id="node-25" transform="translate(370.144,74.742)"><circle r="0.0" /></g><g fill="rgb(0%,100%,100%)" fill-opacity="1.0" id="node-26" transform="translate(346.110,79.362)"><circle r="0.0" /></g><g fill="rgb(0%,100%,100%)" fill-opacity="1.0" id="node-27" transform="translate(322.451,85.628)"><circle r="0.0" /></g><g fill="rgb(0%,100%,100%)" fill-opacity="1.0" id="node-28" transform="translate(299.282,93.511)"><circle r="0.0" /></g><g fill="rgb(0%,100%,100%)" fill-opacity="1.0" id="node-29" transform="translate(276.712,102.975)"><circle r="0.0" /></g><g fill="rgb(0%,100%,100%)" fill-opacity="1.0" id="node-30" transform="translate(254.848,113.972)"><circle r="0.0" /></g><g fill="rgb(0%,100%,100%)" fill-opacity="1.0" id="node-31" transform="translate(233.795,126.452)"><circle r="0.0" /></g><g fill="rgb(0%,100%,100%)" fill-opacity="1.0" id="node-32" transform="translate(213.653,140.355)"><circle r="0.0" /></g><g fill="rgb(0%,100%,100%)" fill-opacity="1.0" id="node-33" transform="translate(194.519,155.614)"><circle r="0.0" /></g><g fill="rgb(0%,100%,100%)" fill-opacity="1.0" id="node-34" transform="translate(176.482,172.157)"><circle r="0.0" /></g><g fill="rgb(0%,100%,100%)" fill-opacity="1.0" id="node-35" transform="translate(159.630,189.905)"><circle r="0.0" /></g><g fill="rgb(0%,100%,100%)" fill-opacity="1.0" id="node-36" transform="translate(144.043,208.773)"><circle r="0.0" /></g><g fill="rgb(0%,100%,100%)" fill-opacity="1.0" id="node-37" transform="translate(129.795,228.672)"><circle r="0.0" /></g><g fill="rgb(0%,100%,100%)" fill-opacity="1.0" id="node-38" transform="translate(116.953,249.506)"><circle r="0.0" /></g><g fill="rgb(0%,100%,100%)" fill-opacity="1.0" id="node-39" transform="translate(105.580,271.176)"><circle r="0.0" /></g><g fill="rgb(0%,100%,100%)" fill-opacity="1.0" id="node-40" transform="translate(95.728,293.580)"><circle r="0.0" /></g><g fill="rgb(0%,100%,100%)" fill-opacity="1.0" id="node-41" transform="translate(87.446,316.610)"><circle r="0.0" /></g><g fill="rgb(0%,100%,100%)" fill-opacity="1.0" id="node-42" transform="translate(80.772,340.156)"><circle r="0.0" /></g><g fill="rgb(0%,100%,100%)" fill-opacity="1.0" id="node-43" transform="translate(75.739,364.107)"><circle r="0.0" /></g><g fill="rgb(0%,100%,100%)" fill-opacity="1.0" id="node-44" transform="translate(72.370,388.348)"><circle r="0.0" /></g><g fill="rgb(0%,100%,100%)" fill-opacity="1.0" id="node-45" transform="translate(70.681,412.763)"><circle r="0.0" /></g><g fill="rgb(0%,100%,100%)" fill-opacity="1.0" id="node-46" transform="translate(70.681,437.237)"><circle r="0.0" /></g><g fill="rgb(0%,100%,100%)" fill-opacity="1.0" id="node-47" transform="translate(72.370,461.652)"><circle r="0.0" /></g><g fill="rgb(0%,100%,100%)" fill-opacity="1.0" id="node-48" transform="translate(75.739,485.893)"><circle r="0.0" /></g><g fill="rgb(0%,100%,100%)" fill-opacity="1.0" id="node-49" transform="translate(80.772,509.844)"><circle r="0.0" /></g><g fill="rgb(0%,100%,100%)" fill-opacity="1.0" id="node-50" transform="translate(87.446,533.390)"><circle r="0.0" /></g><g fill="rgb(0%,100%,100%)" fill-opacity="1.0" id="node-51" transform="translate(95.728,556.420)"><circle r="0.0" /></g><g fill="rgb(0%,100%,100%)" fill-opacity="1.0" id="node-52" transform="translate(105.580,578.824)"><circle r="0.0" /></g><g fill="rgb(0%,100%,100%)" fill-opacity="1.0" id="node-53" transform="translate(116.953,600.494)"><circle r="0.0" /></g><g fill="rgb(0%,100%,100%)" fill-opacity="1.0" id="node-54" transform="translate(129.795,621.328)"><circle r="0.0" /></g><g fill="rgb(0%,100%,100%)" fill-opacity="1.0" id="node-55" transform="translate(144.043,641.227)"><circle r="0.0" /></g><g fill="rgb(0%,100%,100%)" fill-opacity="1.0" id="node-56" transform="translate(159.630,660.095)"><circle r="0.0" /></g><g fill="rgb(0%,100%,100%)" fill-opacity="1.0" id="node-57" transform="translate(176.482,677.843)"><circle r="0.0" /></g><g fill="rgb(0%,100%,100%)" fill-opacity="1.0" id="node-58" transform="translate(194.519,694.386)"><circle r="0.0" /></g><g fill="rgb(0%,100%,100%)" fill-opacity="1.0" id="node-59" transform="translate(213.653,709.645)"><circle r="0.0" /></g><g fill="rgb(0%,100%,100%)" fill-opacity="1.0" id="node-60" transform="translate(233.795,723.548)"><circle r="0.0" /></g><g fill="rgb(0%,100%,100%)" fill-opacity="1.0" id="node-61" transform="translate(254.848,736.028)"><circle r="0.0" /></g><g fill="rgb(0%,100%,100%)" fill-opacity="1.0" id="node-62" transform="translate(276.712,747.025)"><circle r="0.0" /></g><g fill="rgb(0%,100%,100%)" fill-opacity="1.0" id="node-63" transform="translate(299.282,756.489)"><circle r="0.0" /></g><g fill="rgb(0%,100%,100%)" fill-opacity="1.0" id="node-64" transform="translate(322.451,764.372)"><circle r="0.0" /></g><g fill="rgb(0%,100%,100%)" fill-opacity="1.0" id="node-65" transform="translate(346.110,770.638)"><circle r="0.0" /></g><g fill="rgb(0%,100%,100%)" fill-opacity="1.0" id="node-66" transform="translate(370.144,775.258)"><circle r="0.0" /></g><g fill="rgb(0%,100%,100%)" fill-opacity="1.0" id="node-67" transform="translate(394.439,778.207)"><circle r="0.0" /></g><g fill="rgb(0%,100%,100%)" fill-opacity="1.0" id="node-68" transform="translate(418.881,779.474)"><circle r="0.0" /></g><g fill="rgb(0%,100%,100%)" fill-opacity="1.0" id="node-69" transform="translate(443.351,779.052)"><circle r="0.0" /></g><g fill="rgb(0%,100%,100%)" fill-opacity="1.0" id="node-70" transform="translate(467.734,776.942)"><circle r="0.0" /></g><g fill="rgb(0%,100%,100%)" fill-opacity="1.0" id="node-71" transform="translate(491.913,773.155)"><circle r="0.0" /></g><g fill="rgb(0%,100%,100%)" fill-opacity="1.0" id="node-72" transform="translate(515.774,767.709)"><circle r="0.0" /></g><g fill="rgb(0%,100%,100%)" fill-opacity="1.0" id="node-73" transform="translate(539.201,760.630)"><circle r="0.0" /></g><g fill="rgb(0%,100%,100%)" fill-opacity="1.0" id="node-74" transform="translate(562.085,751.952)"><circle r="0.0" /></g><g fill="rgb(100%,100%,100%)" fill-opacity="1.0" id="node-75" transform="translate(584.315,741.715)"><circle r="8.03202846975089" /></g><g fill="rgb(0%,100%,100%)" fill-opacity="1.0" id="node-76" transform="translate(605.786,729.969)"><circle r="0.0" /></g><g fill="rgb(0%,100%,100%)" fill-opacity="1.0" id="node-77" transform="translate(626.396,716.770)"><circle r="0.0" /></g><g fill="rgb(0%,100%,100%)" fill-opacity="1.0" id="node-78" transform="translate(646.046,702.180)"><circle r="0.0" /></g><g fill="rgb(0%,100%,100%)" fill-opacity="1.0" id="node-79" transform="translate(664.642,686.270)"><circle r="0.0" /></g><g fill="rgb(0%,100%,100%)" fill-opacity="1.0" id="node-80" transform="translate(682.097,669.114)"><circle r="0.0" /></g><g fill="rgb(0%,100%,100%)" fill-opacity="1.0" id="node-81" transform="translate(698.326,650.795)"><circle r="0.0" /></g><g fill="rgb(0%,100%,100%)" fill-opacity="1.0" id="node-82" transform="translate(713.253,631.400)"><circle r="0.0" /></g><g fill="rgb(0%,100%,100%)" fill-opacity="1.0" id="node-83" transform="translate(726.806,611.022)"><circle r="0.0" /></g><g fill="rgb(0%,100%,100%)" fill-opacity="1.0" id="node-84" transform="translate(738.921,589.757)"><circle r="0.0" /></g><g fill="rgb(0%,100%,100%)" fill-opacity="1.0" id="node-85" transform="translate(749.540,567.707)"><circle r="0.0" /></g><g fill="rgb(0%,100%,100%)" fill-opacity="1.0" id="node-86" transform="translate(758.612,544.977)"><circle r="0.0" /></g><g fill="rgb(0%,100%,100%)" fill-opacity="1.0" id="node-87" transform="translate(766.094,521.675)"><circle r="0.0" /></g><g fill="rgb(0%,100%,100%)" fill-opacity="1.0" id="node-88" transform="translate(771.951,497.912)"><circle r="0.0" /></g><g fill="rgb(0%,100%,100%)" fill-opacity="1.0" id="node-89" transform="translate(776.155,473.802)"><circle r="0.0" /></g><g fill="rgb(0%,100%,100%)" fill-opacity="1.0" id="node-90" transform="translate(778.685,449.459)"><circle r="0.0" /></g><g fill="rgb(0%,100%,100%)" fill-opacity="1.0" id="node-91" transform="translate(709.245,344.438)"><circle r="0.0" /></g><g fill="rgb(0%,100%,100%)" fill-opacity="1.0" id="node-92" transform="translate(617.068,200.512)"><circle r="0.0" /></g><g fill="rgb(0%,100%,100%)" fill-opacity="1.0" id="node-93" transform="translate(529.765,148.759)"><circle r="0.0" /></g><g fill="rgb(0%,100%,100%)" fill-opacity="1.0" id="node-94" transform="translate(320.235,148.759)"><circle r="0.0" /></g><g fill="rgb(0%,100%,100%)" fill-opacity="1.0" id="node-95" transform="translate(158.816,296.814)"><circle r="0.0" /></g><g fill="rgb(0%,100%,100%)" fill-opacity="1.0" id="node-96" transform="translate(143.705,334.675)"><circle r="0.0" /></g><g fill="rgb(0%,100%,100%)" fill-opacity="1.0" id="node-97" transform="translate(135.874,364.240)"><circle r="0.0" /></g><g fill="rgb(0%,100%,100%)" fill-opacity="1.0" id="node-98" transform="translate(131.141,394.456)"><circle r="0.0" /></g><g fill="rgb(0%,100%,100%)" fill-opacity="1.0" id="node-99" transform="translate(129.734,414.803)"><circle r="0.0" /></g><g fill="rgb(0%,100%,100%)" fill-opacity="1.0" id="node-100" transform="translate(129.734,435.197)"><circle r="0.0" /></g><g fill="rgb(0%,100%,100%)" fill-opacity="1.0" id="node-101" transform="translate(138.143,495.703)"><circle r="0.0" /></g><g fill="rgb(0%,100%,100%)" fill-opacity="1.0" id="node-102" transform="translate(173.495,580.018)"><circle r="0.0" /></g><g fill="rgb(0%,100%,100%)" fill-opacity="1.0" id="node-103" transform="translate(203.859,620.912)"><circle r="0.0" /></g><g fill="rgb(0%,100%,100%)" fill-opacity="1.0" id="node-104" transform="translate(217.902,635.702)"><circle r="0.0" /></g><g fill="rgb(0%,100%,100%)" fill-opacity="1.0" id="node-105" transform="translate(232.932,649.488)"><circle r="0.0" /></g><g fill="rgb(0%,100%,100%)" fill-opacity="1.0" id="node-106" transform="translate(265.662,673.790)"><circle r="0.0" /></g><g fill="rgb(0%,100%,100%)" fill-opacity="1.0" id="node-107" transform="translate(310.763,697.460)"><circle r="0.0" /></g><g fill="rgb(0%,100%,100%)" fill-opacity="1.0" id="node-108" transform="translate(379.287,716.881)"><circle r="0.0" /></g><g fill="rgb(0%,100%,100%)" fill-opacity="1.0" id="node-109" transform="translate(450.467,719.340)"><circle r="0.0" /></g><g fill="rgb(0%,100%,100%)" fill-opacity="1.0" id="node-110" transform="translate(490.742,713.032)"><circle r="0.0" /></g><g fill="rgb(0%,100%,100%)" fill-opacity="1.0" id="node-111" transform="translate(529.765,701.241)"><circle r="0.0" /></g><g fill="rgb(0%,100%,100%)" fill-opacity="1.0" id="node-112" transform="translate(557.763,688.929)"><circle r="0.0" /></g><g fill="rgb(0%,100%,100%)" fill-opacity="1.0" id="node-113" transform="translate(575.655,679.141)"><circle r="0.0" /></g><g fill="rgb(0%,100%,100%)" fill-opacity="1.0" id="node-114" transform="translate(624.702,642.725)"><circle r="0.0" /></g><g fill="rgb(0%,100%,100%)" fill-opacity="1.0" id="node-115" transform="translate(665.211,597.000)"><circle r="0.0" /></g><g fill="rgb(0%,100%,100%)" fill-opacity="1.0" id="node-116" transform="translate(676.505,580.018)"><circle r="0.0" /></g><g fill="rgb(0%,100%,100%)" fill-opacity="1.0" id="node-117" transform="translate(695.450,543.922)"><circle r="0.0" /></g><g fill="rgb(0%,100%,100%)" fill-opacity="1.0" id="node-118" transform="translate(711.857,495.703)"><circle r="0.0" /></g><g fill="rgb(0%,100%,100%)" fill-opacity="1.0" id="node-119" transform="translate(717.629,465.668)"><circle r="0.0" /></g><g fill="rgb(0%,100%,100%)" fill-opacity="1.0" id="node-120" transform="translate(719.738,445.383)"><circle r="0.0" /></g><g fill="rgb(0%,100%,100%)" fill-opacity="1.0" id="node-121" transform="translate(592.607,258.356)"><circle r="0.0" /></g><g fill="rgb(0%,100%,100%)" fill-opacity="1.0" id="node-122" transform="translate(341.188,204.008)"><circle r="0.0" /></g><g fill="rgb(0%,100%,100%)" fill-opacity="1.0" id="node-123" transform="translate(205.485,337.387)"><circle r="0.0" /></g><g fill="rgb(0%,100%,100%)" fill-opacity="1.0" id="node-124" transform="translate(193.699,376.392)"><circle r="0.0" /></g><g fill="rgb(0%,100%,100%)" fill-opacity="1.0" id="node-125" transform="translate(189.913,400.565)"><circle r="0.0" /></g><g fill="rgb(0%,100%,100%)" fill-opacity="1.0" id="node-126" transform="translate(188.788,416.842)"><circle r="0.0" /></g><g fill="rgb(0%,100%,100%)" fill-opacity="1.0" id="node-127" transform="translate(188.788,433.158)"><circle r="0.0" /></g><g fill="rgb(0%,100%,100%)" fill-opacity="1.0" id="node-128" transform="translate(207.030,516.389)"><circle r="0.0" /></g><g fill="rgb(0%,100%,100%)" fill-opacity="1.0" id="node-129" transform="translate(259.322,593.562)"><circle r="0.0" /></g><g fill="rgb(0%,100%,100%)" fill-opacity="1.0" id="node-130" transform="translate(297.530,624.032)"><circle r="0.0" /></g><g fill="rgb(0%,100%,100%)" fill-opacity="1.0" id="node-131" transform="translate(333.610,642.968)"><circle r="0.0" /></g><g fill="rgb(0%,100%,100%)" fill-opacity="1.0" id="node-132" transform="translate(484.200,653.817)"><circle r="0.0" /></g><g fill="rgb(0%,100%,100%)" fill-opacity="1.0" id="node-133" transform="translate(610.633,571.297)"><circle r="0.0" /></g><g fill="rgb(0%,100%,100%)" fill-opacity="1.0" id="node-134" transform="translate(648.755,501.134)"><circle r="0.0" /></g><g fill="rgb(0%,100%,100%)" fill-opacity="1.0" id="node-135" transform="translate(659.103,457.535)"><circle r="0.0" /></g><g fill="rgb(0%,100%,100%)" fill-opacity="1.0" id="node-136" transform="translate(660.790,441.306)"><circle r="0.0" /></g><g fill="rgb(0%,100%,100%)" fill-opacity="1.0" id="node-137" transform="translate(279.529,323.704)"><circle r="0.0" /></g><g fill="rgb(0%,100%,100%)" fill-opacity="1.0" id="node-138" transform="translate(278.250,524.434)"><circle r="0.0" /></g><g fill="rgb(0%,100%,100%)" fill-opacity="1.0" id="node-139" transform="translate(342.621,581.959)"><circle r="0.0" /></g><g fill="rgb(0%,100%,100%)" fill-opacity="1.0" id="node-140" transform="translate(469.400,596.613)"><circle r="0.0" /></g><g fill="rgb(0%,100%,100%)" fill-opacity="1.0" id="node-141" transform="translate(564.225,534.723)"><circle r="0.0" /></g><g fill="rgb(0%,100%,100%)" fill-opacity="1.0" id="node-142" transform="translate(597.474,465.935)"><circle r="0.0" /></g><g fill="rgb(0%,100%,100%)" fill-opacity="1.0" id="node-143" transform="translate(601.843,437.230)"><circle r="0.0" /></g><g fill="rgb(0%,100%,100%)" fill-opacity="1.0" id="node-144" transform="translate(314.326,466.436)"><circle r="0.0" /></g><g fill="rgb(0%,100%,100%)" fill-opacity="1.0" id="node-145" transform="translate(454.600,539.409)"><circle r="0.0" /></g><g fill="rgb(0%,100%,100%)" fill-opacity="1.0" id="node-146" transform="translate(517.817,498.149)"><circle r="0.0" /></g><g fill="rgb(0%,100%,100%)" fill-opacity="1.0" id="node-147" transform="translate(539.982,452.290)"><circle r="0.0" /></g><g fill="rgb(0%,100%,100%)" fill-opacity="1.0" id="node-148" transform="translate(542.895,433.153)"><circle r="0.0" /></g><g fill="rgb(0%,100%,100%)" fill-opacity="1.0" id="node-149" transform="translate(456.221,475.166)"><circle r="0.0" /></g><g fill="rgb(0%,100%,100%)" fill-opacity="1.0" id="node-150" transform="translate(425.000,425.000)"><circle r="0.0" /></g></g></g></g></g><g class="toyplot-coordinates-Cartesian" id="t294652e1388246c1b381dc8521cbe52e"><clipPath id="t748aa2e8fb6b4a1db60f605aeac65dee"><rect x="50.0" y="50.0" width="750.0" height="50.0" /></clipPath><g clip-path="url(#t748aa2e8fb6b4a1db60f605aeac65dee)" /><g transform="translate(425.0,42.0)"><text x="-69.83200000000001" y="-4.823" style="fill:rgb(16.1%,15.3%,14.1%);fill-opacity:1.0;font-family:helvetica;font-size:14.0px;font-weight:bold;stroke:none;vertical-align:baseline;white-space:pre">Healthy vs. IBS-C, =5</text></g></g><g class="toyplot-coordinates-Table" id="tde31448a63cd4b17b2dfd53934835298"><g transform="translate(900.0,275.0)"><text x="-25.284000000000002" y="-10.423" style="fill:rgb(16.1%,15.3%,14.1%);fill-opacity:1.0;font-family:helvetica;font-size:14.0px;font-weight:bold;stroke:none;vertical-align:baseline;white-space:pre">Phylum</text></g><g transform="translate(895.0,285.0)"><g style="fill:rgb(100%,49.8%,0%);fill-opacity:1.0" transform="translate(-5.55, -4.440892098500626e-16)"><circle r="4.0" /></g></g><g transform="translate(905.0,285.0)"><text x="0" y="3.066" style="fill:rgb(16.1%,15.3%,14.1%);fill-opacity:1.0;font-family:helvetica;font-size:12.0px;font-weight:normal;stroke:none;vertical-align:baseline;white-space:pre">Synergistota</text></g><g transform="translate(895.0,305.0)"><g style="fill:rgb(21.6%,49.4%,72.2%);fill-opacity:1.0" transform="translate(-5.55, -4.440892098500626e-16)"><circle r="4.0" /></g></g><g transform="translate(905.0,305.0)"><text x="0" y="3.066" style="fill:rgb(16.1%,15.3%,14.1%);fill-opacity:1.0;font-family:helvetica;font-size:12.0px;font-weight:normal;stroke:none;vertical-align:baseline;white-space:pre">Proteobacteria</text></g><g transform="translate(895.0,325.0)"><g style="fill:rgb(59.6%,30.6%,63.9%);fill-opacity:1.0" transform="translate(-5.55, -4.440892098500626e-16)"><circle r="4.0" /></g></g><g transform="translate(905.0,325.0)"><text x="0" y="3.066" style="fill:rgb(16.1%,15.3%,14.1%);fill-opacity:1.0;font-family:helvetica;font-size:12.0px;font-weight:normal;stroke:none;vertical-align:baseline;white-space:pre">Actinobacteriota</text></g><g transform="translate(895.0,345.0)"><g style="fill:rgb(30.2%,68.6%,29%);fill-opacity:1.0" transform="translate(-5.55, -4.440892098500626e-16)"><circle r="4.0" /></g></g><g transform="translate(905.0,345.0)"><text x="0" y="3.066" style="fill:rgb(16.1%,15.3%,14.1%);fill-opacity:1.0;font-family:helvetica;font-size:12.0px;font-weight:normal;stroke:none;vertical-align:baseline;white-space:pre">Bacteroidota</text></g><g transform="translate(895.0,365.0)"><g style="fill:rgb(89.4%,10.2%,11%);fill-opacity:1.0" transform="translate(-5.55, -4.440892098500626e-16)"><circle r="4.0" /></g></g><g transform="translate(905.0,365.0)"><text x="0" y="3.066" style="fill:rgb(16.1%,15.3%,14.1%);fill-opacity:1.0;font-family:helvetica;font-size:12.0px;font-weight:normal;stroke:none;vertical-align:baseline;white-space:pre">Firmicutes</text></g></g><g class="toyplot-coordinates-Table" id="tec435096808a4240935d72dbe3b82128"><g transform="translate(900.0,425.0)"><text x="-59.899" y="-10.423" style="fill:rgb(16.1%,15.3%,14.1%);fill-opacity:1.0;font-family:helvetica;font-size:14.0px;font-weight:bold;stroke:none;vertical-align:baseline;white-space:pre">tascCODA Effects</text></g><g transform="translate(895.0,450.0)"><g style="fill:rgb(0%,0%,0%);fill-opacity:1.0" transform="translate(-5.55, -4.440892098500626e-16)"><circle r="10.0" /></g></g><g transform="translate(905.0,450.0)"><text x="0" y="3.066" style="fill:rgb(16.1%,15.3%,14.1%);fill-opacity:1.0;font-family:helvetica;font-size:12.0px;font-weight:normal;stroke:none;vertical-align:baseline;white-space:pre">1.405</text></g><g transform="translate(895.0,500.0)"><g style="fill:rgb(100%,100%,100%);fill-opacity:1.0" transform="translate(-5.55, -4.440892098500626e-16)"><circle r="10.0" /></g></g><g transform="translate(905.0,500.0)"><text x="0" y="3.066" style="fill:rgb(16.1%,15.3%,14.1%);fill-opacity:1.0;font-family:helvetica;font-size:12.0px;font-weight:normal;stroke:none;vertical-align:baseline;white-space:pre">-1.405</text></g></g></svg>