<svg class="toyplot-canvas-Canvas" xmlns:toyplot="http://www.sandia.gov/toyplot" xmlns:xlink="http://www.w3.org/1999/xlink" xmlns="http://www.w3.org/2000/svg" width="800.0px" height="400.0px" viewBox="0 0 800.0 400.0" preserveAspectRatio="xMidYMid meet" style="background-color:transparent;border-color:#292724;border-style:none;border-width:1.0;fill:rgb(16.1%,15.3%,14.1%);fill-opacity:1.0;font-family:Helvetica;font-size:12px;opacity:1.0;stroke:rgb(16.1%,15.3%,14.1%);stroke-opacity:1.0;stroke-width:1.0" id="t3b3ecc16c93547cdaa17b1d3500af26a"><g class="toyplot-coordinates-Cartesian" id="t5ccfbb3da000496184e36b138a354d08"><clipPath id="tcdc5edea90a6409f8d6972c279e95519"><rect x="-20.0" y="-20.0" width="840.0" height="440.0" /></clipPath><g clip-path="url(#tcdc5edea90a6409f8d6972c279e95519)"><g class="toytree-mark-Toytree" id="t1a606395feb74419a9014dfcc5160a30"><g class="toytree-Edges" style="fill:none;stroke:rgb(14.9%,14.9%,14.9%);stroke-linecap:round;stroke-opacity:1;stroke-width:2"><path d="M 441.3 26.1 L 648.1 142.0" id="20,19" /><path d="M 441.3 26.1 L 234.6 142.0" id="20,18" /><path d="M 648.1 142.0 L 741.1 258.0" id="19,17" /><path d="M 648.1 142.0 L 555.0 258.0" id="19,16" /><path d="M 234.6 142.0 L 369.0 258.0" id="18,15" /><path d="M 234.6 142.0 L 245.0 258.0" id="18,14" /><path d="M 234.6 142.0 L 89.9 258.0" id="18,13" /><path d="M 741.1 258.0 L 772.1 373.9" id="17,12" /><path d="M 741.1 258.0 L 710.1 373.9" id="17,11" /><path d="M 555.0 258.0 L 648.1 373.9" id="16,10" /><path d="M 555.0 258.0 L 586.0 373.9" id="16,9" /><path d="M 555.0 258.0 L 524.0 373.9" id="16,8" /><path d="M 555.0 258.0 L 462.0 373.9" id="16,7" /><path d="M 369.0 258.0 L 400.0 373.9" id="15,6" /><path d="M 369.0 258.0 L 338.0 373.9" id="15,5" /><path d="M 245.0 258.0 L 276.0 373.9" id="14,4" /><path d="M 245.0 258.0 L 214.0 373.9" id="14,3" /><path d="M 89.9 258.0 L 151.9 373.9" id="13,2" /><path d="M 89.9 258.0 L 89.9 373.9" id="13,1" /><path d="M 89.9 258.0 L 27.9 373.9" id="13,0" /></g><g class="toytree-Nodes" style="fill:rgb(40%,76.1%,64.7%);fill-opacity:1.0;stroke:rgb(0%,0%,0%);stroke-opacity:1.0;stroke-width:1"><g fill="rgb(82.7%,82.7%,82.7%)" fill-opacity="1.0" id="node-0" transform="translate(27.907,373.913)"><circle r="15.0" /></g><g fill="rgb(82.7%,82.7%,82.7%)" fill-opacity="1.0" id="node-1" transform="translate(89.922,373.913)"><circle r="15.0" /></g><g fill="rgb(82.7%,82.7%,82.7%)" fill-opacity="1.0" id="node-2" transform="translate(151.938,373.913)"><circle r="15.0" /></g><g fill="rgb(82.7%,82.7%,82.7%)" fill-opacity="1.0" id="node-3" transform="translate(213.953,373.913)"><circle r="15.0" /></g><g fill="rgb(67.8%,84.7%,90.2%)" fill-opacity="1.0" id="node-4" transform="translate(275.969,373.913)"><circle r="15.0" /></g><g fill="rgb(82.7%,82.7%,82.7%)" fill-opacity="1.0" id="node-5" transform="translate(337.984,373.913)"><circle r="15.0" /></g><g fill="rgb(82.7%,82.7%,82.7%)" fill-opacity="1.0" id="node-6" transform="translate(400.000,373.913)"><circle r="15.0" /></g><g fill="rgb(82.7%,82.7%,82.7%)" fill-opacity="1.0" id="node-7" transform="translate(462.016,373.913)"><circle r="15.0" /></g><g fill="rgb(82.7%,82.7%,82.7%)" fill-opacity="1.0" id="node-8" transform="translate(524.031,373.913)"><circle r="15.0" /></g><g fill="rgb(67.8%,84.7%,90.2%)" fill-opacity="1.0" id="node-9" transform="translate(586.047,373.913)"><circle r="15.0" /></g><g fill="rgb(82.7%,82.7%,82.7%)" fill-opacity="1.0" id="node-10" transform="translate(648.062,373.913)"><circle r="15.0" /></g><g fill="rgb(82.7%,82.7%,82.7%)" fill-opacity="1.0" id="node-11" transform="translate(710.078,373.913)"><circle r="15.0" /></g><g fill="rgb(82.7%,82.7%,82.7%)" fill-opacity="1.0" id="node-12" transform="translate(772.093,373.913)"><circle r="15.0" /></g><g fill="rgb(82.7%,82.7%,82.7%)" fill-opacity="1.0" id="node-13" transform="translate(89.922,257.971)"><circle r="15.0" /></g><g fill="rgb(82.7%,82.7%,82.7%)" fill-opacity="1.0" id="node-14" transform="translate(244.961,257.971)"><circle r="15.0" /></g><g fill="rgb(82.7%,82.7%,82.7%)" fill-opacity="1.0" id="node-15" transform="translate(368.992,257.971)"><circle r="15.0" /></g><g fill="rgb(67.8%,84.7%,90.2%)" fill-opacity="1.0" id="node-16" transform="translate(555.039,257.971)"><circle r="15.0" /></g><g fill="rgb(82.7%,82.7%,82.7%)" fill-opacity="1.0" id="node-17" transform="translate(741.085,257.971)"><circle r="15.0" /></g><g fill="rgb(82.7%,82.7%,82.7%)" fill-opacity="1.0" id="node-18" transform="translate(234.625,142.029)"><circle r="15.0" /></g><g fill="rgb(82.7%,82.7%,82.7%)" fill-opacity="1.0" id="node-19" transform="translate(648.062,142.029)"><circle r="15.0" /></g><g fill="rgb(82.7%,82.7%,82.7%)" fill-opacity="1.0" id="node-20" transform="translate(441.344,26.087)"><circle r="15.0" /></g></g><g class="toytree-NodeLabels" style="fill:rgb(14.9%,14.9%,14.9%);fill-opacity:1.0;font-size:12;stroke:none"><g transform="translate(17.57,376.98)"><text>T13</text></g><g transform="translate(79.58,376.98)"><text>T12</text></g><g transform="translate(141.60,376.98)"><text>T11</text></g><g transform="translate(203.62,376.98)"><text>T10</text></g><g transform="translate(268.97,376.98)"><text>T9</text></g><g transform="translate(330.98,376.98)"><text>T8</text></g><g transform="translate(393.00,376.98)"><text>T7</text></g><g transform="translate(455.01,376.98)"><text>T6</text></g><g transform="translate(517.03,376.98)"><text>T5</text></g><g transform="translate(579.04,376.98)"><text>T4</text></g><g transform="translate(641.06,376.98)"><text>T3</text></g><g transform="translate(703.08,376.98)"><text>T2</text></g><g transform="translate(765.09,376.98)"><text>T1</text></g><g transform="translate(82.25,261.04)"><text>N8</text></g><g transform="translate(237.29,261.04)"><text>N7</text></g><g transform="translate(361.32,261.04)"><text>N6</text></g><g transform="translate(547.37,261.04)"><text>N5</text></g><g transform="translate(733.42,261.04)"><text>N4</text></g><g transform="translate(226.96,145.09)"><text>N3</text></g><g transform="translate(640.39,145.09)"><text>N2</text></g><g transform="translate(433.68,29.15)"><text>N1</text></g></g></g></g><g class="toyplot-coordinates-Axis" id="tcedffa78893949bf830fb7812fc5dad3" transform="translate(0.0,400.0)translate(0,20.0)"><line x1="27.90697674418604" y1="0" x2="772.0930232558139" y2="0" style="" /><g><g transform="translate(27.90697674418604,6)"><text x="-2.78" y="8.555" style="fill:rgb(16.1%,15.3%,14.1%);fill-opacity:1.0;font-family:helvetica;font-size:10.0px;font-weight:normal;stroke:none;vertical-align:baseline;white-space:pre">0</text></g><g transform="translate(275.968992248062,6)"><text x="-2.78" y="8.555" style="fill:rgb(16.1%,15.3%,14.1%);fill-opacity:1.0;font-family:helvetica;font-size:10.0px;font-weight:normal;stroke:none;vertical-align:baseline;white-space:pre">4</text></g><g transform="translate(524.031007751938,6)"><text x="-2.78" y="8.555" style="fill:rgb(16.1%,15.3%,14.1%);fill-opacity:1.0;font-family:helvetica;font-size:10.0px;font-weight:normal;stroke:none;vertical-align:baseline;white-space:pre">8</text></g><g transform="translate(772.0930232558139,6)"><text x="-5.56" y="8.555" style="fill:rgb(16.1%,15.3%,14.1%);fill-opacity:1.0;font-family:helvetica;font-size:10.0px;font-weight:normal;stroke:none;vertical-align:baseline;white-space:pre">12</text></g></g><g class="toyplot-coordinates-Axis-coordinates" style="visibility:hidden" transform=""><line x1="0" x2="0" y1="-3.0" y2="4.5" style="stroke:rgb(43.9%,50.2%,56.5%);stroke-opacity:1.0;stroke-width:1.0" /><text x="0" y="-6" style="alignment-baseline:alphabetic;fill:rgb(43.9%,50.2%,56.5%);fill-opacity:1.0;font-size:10px;font-weight:normal;stroke:none;text-anchor:middle" /></g></g><g class="toyplot-coordinates-Axis" id="t4f1d9fb301dd41a5ba64ef5bd96139bd" transform="translate(0.0,400.0)rotate(-90.0)translate(0,-20.0)"><line x1="26.08695652173913" y1="0" x2="373.9130434782609" y2="0" style="" /><g><g transform="translate(26.08695652173913,-6)"><text x="-2.78" y="-4.440892098500626e-16" style="fill:rgb(16.1%,15.3%,14.1%);fill-opacity:1.0;font-family:helvetica;font-size:10.0px;font-weight:normal;stroke:none;vertical-align:baseline;white-space:pre">0</text></g><g transform="translate(142.0289855072464,-6)"><text x="-2.78" y="-4.440892098500626e-16" style="fill:rgb(16.1%,15.3%,14.1%);fill-opacity:1.0;font-family:helvetica;font-size:10.0px;font-weight:normal;stroke:none;vertical-align:baseline;white-space:pre">1</text></g><g transform="translate(257.9710144927537,-6)"><text x="-2.78" y="-4.440892098500626e-16" style="fill:rgb(16.1%,15.3%,14.1%);fill-opacity:1.0;font-family:helvetica;font-size:10.0px;font-weight:normal;stroke:none;vertical-align:baseline;white-space:pre">2</text></g><g transform="translate(373.9130434782609,-6)"><text x="-2.78" y="-4.440892098500626e-16" style="fill:rgb(16.1%,15.3%,14.1%);fill-opacity:1.0;font-family:helvetica;font-size:10.0px;font-weight:normal;stroke:none;vertical-align:baseline;white-space:pre">3</text></g></g><g class="toyplot-coordinates-Axis-coordinates" style="visibility:hidden" transform=""><line x1="0" x2="0" y1="3.0" y2="-4.5" style="stroke:rgb(43.9%,50.2%,56.5%);stroke-opacity:1.0;stroke-width:1.0" /><text x="0" y="6" style="alignment-baseline:hanging;fill:rgb(43.9%,50.2%,56.5%);fill-opacity:1.0;font-size:10px;font-weight:normal;stroke:none;text-anchor:middle" /></g></g></g></svg>